<svg xmlns="http://www.w3.org/2000/svg" viewBox="0 0 130 20.11">
  <defs/>
  <g fill="#333">
    <path d="M82.047 12.305c0 3.4-1.593 3.4-2.359 3.4s-2.359 0-2.359-3.4V2.736h-3.988v10.177c0 3.927 2.614 6.675 6.347 6.675s6.347-2.748 6.347-6.675V2.736h-3.988zM121.149 2.274a8.845 8.845 0 00-8.852 8.815 8.852 8.852 0 0017.7 0 8.853 8.853 0 00-8.848-8.815zm0 13.63a4.8 4.8 0 01-4.752-4.83 4.755 4.755 0 119.508 0 4.8 4.8 0 01-4.756 4.83zM8.9 0L0 19.442h4.523l1.7-3.745H11.6l1.7 3.745h4.523zM7.234 12.39L8.9 8.292l1.678 4.1zM28.167 2.821h-6.5v16.366h4.11v-4.718h2.176c4.024 0 6.529-2.249 6.529-5.873v-.049c0-3.537-2.415-5.726-6.315-5.726zm2.2 5.982a2.229 2.229 0 01-2.5 2.225h-2.09V6.521h2.067c1.6 0 2.529.815 2.529 2.237zM44.97 2.821h-6.5v16.366h4.11v-4.718h2.176c4.025 0 6.529-2.249 6.529-5.873v-.049c0-3.537-2.415-5.726-6.315-5.726zm2.2 5.982a2.229 2.229 0 01-2.5 2.225h-2.09V6.521h2.067c1.6 0 2.529.815 2.529 2.237zM63.383 8.025c-3.246-.839-3.9-1.216-3.9-2.31v-.049c0-.9.888-1.483 2.249-1.483a8.5 8.5 0 014.754 1.812l.122.085 2.286-3.319-.109-.085a10.962 10.962 0 00-7-2.4c-3.927 0-6.663 2.371-6.663 5.763v.049c0 3.915 2.724 4.924 6.286 5.836 3.137.8 3.648 1.313 3.648 2.225v.049c0 1.009-.948 1.6-2.541 1.6a8.411 8.411 0 01-5.471-2.225l-.109-.1-2.6 3.113.109.1a11.978 11.978 0 008 3.015c4.3 0 6.979-2.274 6.979-5.921v-.04c-.021-3.441-2.429-4.767-6.04-5.715zM99.494 20.11l-4.936-8.353-1.459 7.733h-3.563l3.6-17.241 6.444 10.87 6.092-10.87 3.647 17.241h-3.793l-1.41-7.623z"/>
  </g>
</svg>
