<svg xmlns="http://www.w3.org/2000/svg" xmlns:xlink="http://www.w3.org/1999/xlink" width="281.5" height="108.5" viewBox="0 0 281.5 108.5"><defs><style>.a{fill:#ffc861;stroke:#ae2e00;}.b{fill:#fff;}.c{fill:#c3c3c3;}.d{fill:#e3e3e3;}.e{fill:#f07d25;}.f{stroke:none;}.g{fill:none;}.h{filter:url(#a);}</style><filter id="a" x="0" y="0" width="264" height="104" filterUnits="userSpaceOnUse"><feOffset dy="8" input="SourceAlpha"/><feGaussianBlur stdDeviation="3.5" result="b"/><feFlood flood-opacity="0.161"/><feComposite operator="in" in2="b"/><feComposite in="SourceGraphic"/></filter></defs><g transform="translate(-109.5 -1684.5)"><g class="a" transform="translate(148 1710)"><rect class="f" width="243" height="83" rx="11"/><rect class="g" x="0.5" y="0.5" width="242" height="82" rx="10.5"/></g><g transform="translate(25 -1495)"><g class="h" transform="matrix(1, 0, 0, 1, 84.5, 3179.5)"><rect class="b" width="243" height="83" rx="11" transform="translate(10.5 2.5)"/></g><rect class="c" width="127" height="12" rx="3" transform="translate(177 3209)"/><rect class="d" width="76" height="12" rx="3" transform="translate(177 3224)"/></g><g transform="translate(139 1689.647)"><path class="e" d="M33.591,210.455V191.706h-6.3v18.748h-2.1V195.9H18.9v14.547H16.8V200.1H10.5v10.346H8.4V204.3H2.1v6.145H0v2.1l35.828.009v-2.1Zm-4.2-16.65h2.1v16.65h-2.1Zm-8.4,4.2h2.1v12.449h-2.1Zm-8.4,4.2h2.1v8.248H12.6Zm-8.4,4.2H6.3v4.047H4.2V206.4Z" transform="translate(0 -157.502)"/><path class="e" d="M65.509,40.313,88.855,26.634l-.422,1.6,2.03.536,1.34-5.074-5.074-1.34-.536,2.03,1.621.428L64.448,38.5Z" transform="translate(-59.938)"/></g></g></svg>