<svg xmlns="http://www.w3.org/2000/svg" width="40" height="40" viewBox="0 0 40 40"><defs><style>.a{fill:#181818;}.b{fill:#fff;}</style></defs><g transform="translate(-105 -1299)"><circle class="a" cx="20" cy="20" r="20" transform="translate(105 1299)"/><path class="b" d="M-10968.373-94.028a1.368,1.368,0,0,1-1.013-.855l-2.762-7.367h-.417a.688.688,0,0,1-.687-.688v-.687h-2.062a.687.687,0,0,1-.687-.688v-4.125a.687.687,0,0,1,.688-.688h2.062v-.687a.688.688,0,0,1,.688-.688h6.848c.24-.011.475-.048.713-.07v8.39c-.236-.022-.469-.059-.705-.07h-1.825l2.306,4.616a1.372,1.372,0,0,1-.253,1.591l-1.65,1.638a1.337,1.337,0,0,1-.967.407A1.341,1.341,0,0,1-10968.373-94.028Zm13.4-2.783c-.02-.01-.036-.027-.058-.04a.673.673,0,0,1-.17-.132c-.007-.008-.017-.011-.022-.018a14.459,14.459,0,0,0-8.4-4.98v-8.787a14.461,14.461,0,0,0,8.4-4.981c.006-.005.015-.007.02-.012a.679.679,0,0,1,.3-.2.676.676,0,0,1,.077-.015.616.616,0,0,1,.133-.027.684.684,0,0,1,.192.038.05.05,0,0,0,.02,0,.05.05,0,0,1,.021,0s.007.007.011.008a.675.675,0,0,1,.287.22.515.515,0,0,1,.044.065.663.663,0,0,1,.113.355v17.874a.663.663,0,0,1-.113.355l-.044.065a.663.663,0,0,1-.287.22s-.007.007-.011.008a.719.719,0,0,1-.232.04A.711.711,0,0,1-10954.976-96.811Z" transform="translate(11090 1424)"/></g></svg>