<svg height="32" viewBox="0 0 32 32" width="32" xmlns="http://www.w3.org/2000/svg"><path d="m-123-190a16.018 16.018 0 0 1 16-16 16.018 16.018 0 0 1 16 16 16.018 16.018 0 0 1 -16 16 16.018 16.018 0 0 1 -16-16zm2.595 0a13.421 13.421 0 0 0 13.405 13.406 13.421 13.421 0 0 0 13.406-13.406 13.421 13.421 0 0 0 -13.406-13.405 13.421 13.421 0 0 0 -13.406 13.405zm10.314 5.273-4.843-4.973a1.3 1.3 0 0 1 .024-1.834 1.3 1.3 0 0 1 1.834.023l3.95 4.056 8.283-7.854a1.3 1.3 0 0 1 1.833.049 1.3 1.3 0 0 1 -.048 1.834l-9.212 8.734a1.3 1.3 0 0 1 -.893.356 1.293 1.293 0 0 1 -.929-.391z" transform="translate(123 206)"/></svg>