<svg xmlns="http://www.w3.org/2000/svg" width="40" height="40" viewBox="0 0 40 40"><defs><style>.a{fill:#181818;}.b{fill:#fff;}</style></defs><g transform="translate(-105 -959)"><circle class="a" cx="20" cy="20" r="20" transform="translate(105 959)"/><path class="b" d="M23.105,15.189a3.639,3.639,0,1,0-3.639-3.639A3.628,3.628,0,0,0,23.105,15.189ZM12.189,13.733A4.367,4.367,0,1,0,7.822,9.367,4.348,4.348,0,0,0,12.189,13.733ZM23.105,18.1c-2.664,0-8.005,1.339-8.005,4v3.275H31.111V22.1C31.111,19.439,25.769,18.1,23.105,18.1ZM12.189,16.644C8.8,16.644,2,18.347,2,21.739v3.639H12.189V22.1c0-1.237.48-3.406,3.45-5.051A17.878,17.878,0,0,0,12.189,16.644Z" transform="translate(108.283 963.811)"/></g></svg>