<svg xmlns="http://www.w3.org/2000/svg" xmlns:xlink="http://www.w3.org/1999/xlink" width="281.5" height="108.5" viewBox="0 0 281.5 108.5"><defs><style>.a{fill:#ffc861;stroke:#ae2e00;}.b{fill:#fff;}.c{fill:#c3c3c3;}.d{fill:#e3e3e3;}.e{fill:#f07d25;}.f{stroke:none;}.g{fill:none;}.h{filter:url(#a);}</style><filter id="a" x="0" y="0" width="264" height="104" filterUnits="userSpaceOnUse"><feOffset dy="8" input="SourceAlpha"/><feGaussianBlur stdDeviation="3.5" result="b"/><feFlood flood-opacity="0.161"/><feComposite operator="in" in2="b"/><feComposite in="SourceGraphic"/></filter></defs><g transform="translate(-545.5 -1684.5)"><g class="a" transform="translate(584 1710)"><rect class="f" width="243" height="83" rx="11"/><rect class="g" x="0.5" y="0.5" width="242" height="82" rx="10.5"/></g><g transform="translate(-100 -1495)"><g transform="translate(561)"><g class="h" transform="matrix(1, 0, 0, 1, 84.5, 3179.5)"><rect class="b" width="243" height="83" rx="11" transform="translate(10.5 2.5)"/></g><rect class="c" width="127" height="12" rx="3" transform="translate(177 3209)"/><rect class="d" width="76" height="12" rx="3" transform="translate(177 3224)"/></g><g transform="translate(677 3118.75)"><g transform="translate(0 92.25)"><path class="e" d="M35.41,103.689a4.674,4.674,0,1,0-5.363,0,8.1,8.1,0,0,0-2.763,1.62,10.48,10.48,0,0,0-3.791-2.066,5.922,5.922,0,1,0-6.124,0,10.567,10.567,0,0,0-3.751,2.041,8.165,8.165,0,0,0-2.73-1.588,4.674,4.674,0,1,0-5.363,0A8.205,8.205,0,0,0,0,111.45v.535a.035.035,0,0,0,.032.032H9.94a10.9,10.9,0,0,0-.089,1.369v.551a4.308,4.308,0,0,0,4.31,4.31H26.718a4.308,4.308,0,0,0,4.31-4.31v-.551a10.9,10.9,0,0,0-.089-1.369h9.973a.035.035,0,0,0,.032-.032v-.535A8.237,8.237,0,0,0,35.41,103.689Zm-6.06-3.832a3.378,3.378,0,1,1,3.443,3.378h-.13A3.373,3.373,0,0,1,29.351,99.857ZM15.789,98.172a4.626,4.626,0,1,1,4.893,4.618h-.535A4.632,4.632,0,0,1,15.789,98.172ZM4.8,99.857a3.378,3.378,0,1,1,3.443,3.378h-.13A3.379,3.379,0,0,1,4.8,99.857Zm5.363,10.856H1.312a6.922,6.922,0,0,1,6.821-6.181h.1a6.85,6.85,0,0,1,4.415,1.645A10.637,10.637,0,0,0,10.167,110.713Zm19.548,3.224a3.018,3.018,0,0,1-3.014,3.014H14.145a3.018,3.018,0,0,1-3.014-3.014v-.551a9.306,9.306,0,0,1,9.017-9.292c.089.008.186.008.275.008s.186,0,.275-.008a9.306,9.306,0,0,1,9.017,9.292Zm.964-3.224a10.609,10.609,0,0,0-2.455-4.5,6.883,6.883,0,0,1,4.456-1.677h.1a6.922,6.922,0,0,1,6.821,6.181Z" transform="translate(0 -92.25)"/></g></g></g></g></svg>