<svg clip-rule="evenodd" fill-rule="evenodd" stroke-linejoin="round" stroke-miterlimit="2" viewBox="0 0 2283 488" xmlns="http://www.w3.org/2000/svg"><path d="m2182.11 175.36c-17.879-10.545-41.813-25.877-88.386-25.877-88.152 0-159.715 68.47-159.715 168.853 0 89.958 58.961 169.444 159.715 169.444 44.077 0 66.269-12.331 88.386-25.122v15.268h100.616v-327.003h-100.616zm-1228.54 95.9c-41.718-7.71-80.794-11.25-80.794-34.354 0-20.539 19.79-31.493 45.466-31.493 28.876 0 50.509 7.628 52.729 39.837h96.277c-5.138-64.822-55.201-105.263-148.264-105.263-77.664 0-146.265 32.499-146.265 101.817 0 77.016 65.394 92.19 122.519 101.811 43.649 7.704 83.436 10.911 83.436 40.442 0 21.18-19.897 32.725-51.346 32.725-34.662 0-56.986-9.495-58.646-39.473h-102.258c2.107 72.715 65.275 107.509 161.546 107.509 86.002 0 149.547-37.222 149.547-109.112 0-75.06-66.18-94.825-123.947-104.446zm609.961-128.215c-93.46 0-170.287 69.13-170.287 170.287 0 101.78 76.827 170.28 169.645 170.28 76.846 0 136.612-37.611 162.181-106.301h-102.364c-17.005 20.23-39.788 24.362-59.817 24.362-34.568 0-60.822-23.689-69.142-62.093h235.587v-26.248c-1.925-104.993-74.903-170.287-165.803-170.287zm-974.722 0c-93.46 0-170.287 69.13-170.287 170.287 0 101.78 76.827 170.28 169.646 170.28 76.852 0 136.612-37.611 162.181-106.301h-102.365c-17.01 20.23-39.787 24.362-59.816 24.362-34.568 0-60.817-23.689-69.143-62.093h235.587v-26.248c-1.924-104.993-74.902-170.287-165.803-170.287zm-419.686-92.737h-169.13v427.62h169.13c141.051 0 234.235-86.801 234.235-213.81s-93.19-213.81-234.235-213.81zm1591.65 224.163v197.171h100.617v-170.325c0-54.679 8.093-74.928 55.043-74.928h1.553v-82.606c-126.405 0-157.213 63.986-157.213 130.688zm-324.227-129.835h-129.462l-105.987 113.445-.251-258.081h-106.653v471.639h106.904l.34-117.903 108.917 117.903h136.977l-157.785-171.312zm735.093 209.123c-11.728 23.432-34.228 41.247-68.463 41.247-55.32 0-78.285-42.731-78.285-78.148v-.597c0-39.838 28.128-80.147 77.826-80.147 37.027 0 60.936 21.092 71.727 45.46 5.157 11.25 7.515 23.909 7.031 36.083-.937 12.659-3.755 24.846-9.836 36.102zm-2004.71 29.841h-60.036v-245.253h60.036c79.833 0 132.204 48.542 132.204 122.627s-52.377 122.626-132.204 122.626zm1333.14-106.905c9.533-32.392 38.763-50.189 67.356-50.189 29.229 0 54.648 15.885 64.181 50.189zm-979.67 0c9.533-32.392 38.762-50.189 67.356-50.189 29.229 0 54.641 15.885 64.181 50.189z" fill-rule="nonzero"/></svg>