<svg xmlns="http://www.w3.org/2000/svg" width="18.999" height="18.999" viewBox="0 0 18.999 18.999"><defs><style>.a{fill:#ffc64a;fill-rule:evenodd;}</style></defs><g transform="translate(17225 717.517)"><g transform="translate(-17225 -717.517)"><path class="a" d="M9.5-46.483a9.5,9.5,0,0,0-9.5,9.5,9.5,9.5,0,0,0,9.5,9.5,9.5,9.5,0,0,0,9.5-9.5A9.5,9.5,0,0,0,9.5-46.483Zm0,1.773a7.73,7.73,0,0,1,7.727,7.727A7.73,7.73,0,0,1,9.5-29.257a7.73,7.73,0,0,1-7.727-7.727A7.73,7.73,0,0,1,9.5-44.71Zm-.006,2.46a5.273,5.273,0,0,1,5.273,5.273A5.275,5.275,0,0,1,9.494-31.7a5.273,5.273,0,0,1-3.728-1.544l3.728-3.728Z" transform="translate(0 46.483)"/></g></g></svg>