<svg xmlns="http://www.w3.org/2000/svg" width="170" height="134.867" viewBox="0 0 170 134.867"><defs><style>.a{opacity:0.5;}.b{fill:rgba(176,14,26,0.5);}</style></defs><g class="a"><path class="b" d="M34.812,83.1a2.385,2.385,0,1,1-2.386-2.375A2.381,2.381,0,0,1,34.812,83.1Zm-30.043,0a2.384,2.384,0,1,1-2.384-2.375A2.379,2.379,0,0,1,4.769,83.1Zm45.063,0a2.384,2.384,0,1,1-2.384-2.375A2.379,2.379,0,0,1,49.832,83.1Zm45.063,0a2.384,2.384,0,1,1-2.384-2.375A2.379,2.379,0,0,1,94.9,83.1Zm-75.106,0A2.385,2.385,0,1,1,17.4,80.723,2.378,2.378,0,0,1,19.789,83.1Zm45.065,0a2.385,2.385,0,1,1-2.384-2.375A2.379,2.379,0,0,1,64.854,83.1Zm15.021,0a2.385,2.385,0,1,1-2.386-2.375A2.38,2.38,0,0,1,79.875,83.1ZM94.9,70.086a2.384,2.384,0,1,1-2.384-2.374A2.381,2.381,0,0,1,94.9,70.086Zm-45.063,0a2.384,2.384,0,1,1-2.384-2.374A2.381,2.381,0,0,1,49.832,70.086Zm15.022,0a2.385,2.385,0,1,1-2.384-2.374A2.381,2.381,0,0,1,64.854,70.086Zm-60.086,0a2.384,2.384,0,1,1-2.384-2.374A2.381,2.381,0,0,1,4.769,70.086Zm75.106,0a2.385,2.385,0,1,1-2.386-2.374A2.381,2.381,0,0,1,79.875,70.086Zm-60.086,0A2.385,2.385,0,1,1,17.4,67.712,2.38,2.38,0,0,1,19.789,70.086Zm15.022,0a2.385,2.385,0,1,1-2.386-2.374A2.382,2.382,0,0,1,34.812,70.086ZM49.832,57.074A2.384,2.384,0,1,1,47.448,54.7,2.379,2.379,0,0,1,49.832,57.074Zm45.063,0A2.384,2.384,0,1,1,92.511,54.7,2.379,2.379,0,0,1,94.9,57.074Zm-30.041,0A2.385,2.385,0,1,1,62.47,54.7,2.379,2.379,0,0,1,64.854,57.074Zm-60.086,0A2.384,2.384,0,1,1,2.384,54.7,2.379,2.379,0,0,1,4.769,57.074Zm75.106,0A2.385,2.385,0,1,1,77.489,54.7,2.38,2.38,0,0,1,79.875,57.074Zm-60.086,0A2.385,2.385,0,1,1,17.4,54.7,2.378,2.378,0,0,1,19.789,57.074Zm15.022,0A2.385,2.385,0,1,1,32.425,54.7,2.381,2.381,0,0,1,34.812,57.074ZM49.832,44.061a2.384,2.384,0,1,1-2.384-2.374A2.38,2.38,0,0,1,49.832,44.061Zm45.063,0a2.384,2.384,0,1,1-2.384-2.374A2.38,2.38,0,0,1,94.9,44.061Zm-15.021,0a2.385,2.385,0,1,1-2.386-2.374A2.38,2.38,0,0,1,79.875,44.061Zm-45.063,0a2.385,2.385,0,1,1-2.386-2.374A2.381,2.381,0,0,1,34.812,44.061Zm30.043,0a2.385,2.385,0,1,1-2.384-2.374A2.379,2.379,0,0,1,64.854,44.061Zm-60.086,0a2.384,2.384,0,1,1-2.384-2.374A2.38,2.38,0,0,1,4.769,44.061Zm15.021,0A2.385,2.385,0,1,1,17.4,41.687,2.378,2.378,0,0,1,19.789,44.061ZM77.427,33.425A2.378,2.378,0,0,1,75.1,31.052v0a2.372,2.372,0,0,1,1.236-2.081l.063-.033.012-.006a2.376,2.376,0,0,1,.71-.226l.059-.008a2.425,2.425,0,0,1,.3-.019,2.375,2.375,0,1,1,0,4.75ZM64.854,31.05a2.385,2.385,0,1,1-2.384-2.374A2.379,2.379,0,0,1,64.854,31.05Zm-45.065,0A2.385,2.385,0,1,1,17.4,28.676,2.378,2.378,0,0,1,19.789,31.05Zm72.72-2.374h0a2.375,2.375,0,1,1,0,4.75h0a2.375,2.375,0,1,1,0-4.75ZM49.832,31.05a2.384,2.384,0,1,1-2.384-2.374A2.379,2.379,0,0,1,49.832,31.05Zm-45.063,0a2.384,2.384,0,1,1-2.384-2.374A2.379,2.379,0,0,1,4.769,31.05Zm30.043,0a2.385,2.385,0,1,1-2.386-2.374A2.381,2.381,0,0,1,34.812,31.05Zm120.168,0a2.385,2.385,0,1,1-2.386-2.376A2.379,2.379,0,0,1,154.98,31.052Zm-45.063,0a2.385,2.385,0,1,1-2.386-2.376A2.381,2.381,0,0,1,109.916,31.052Zm30.043,0a2.385,2.385,0,1,1-2.384-2.376A2.379,2.379,0,0,1,139.959,31.052Zm30.041,0a2.384,2.384,0,1,1-2.384-2.376A2.379,2.379,0,0,1,170,31.052Zm-45.063,0a2.384,2.384,0,1,1-2.384-2.376A2.379,2.379,0,0,1,124.937,31.052ZM4.769,18.04a2.384,2.384,0,1,1-2.384-2.376A2.379,2.379,0,0,1,4.769,18.04Zm87.741-2.376h0a2.375,2.375,0,1,1,0,4.75h0a2.375,2.375,0,1,1,0-4.75ZM64.854,18.04a2.385,2.385,0,1,1-2.384-2.376A2.379,2.379,0,0,1,64.854,18.04Zm12.461-2.369c.057,0,.115-.006.173-.006a2.375,2.375,0,1,1,0,4.75h-.061a2.378,2.378,0,0,1-1.066-.281L76.3,20.1l-.01-.006A2.37,2.37,0,0,1,75.1,18.04v0A2.377,2.377,0,0,1,77.316,15.671ZM19.789,18.04A2.385,2.385,0,1,1,17.4,15.665,2.378,2.378,0,0,1,19.789,18.04Zm15.022,0a2.385,2.385,0,1,1-2.386-2.376A2.381,2.381,0,0,1,34.812,18.04Zm75.1,0a2.385,2.385,0,1,1-2.386-2.374A2.382,2.382,0,0,1,109.916,18.038Zm-60.084,0a2.384,2.384,0,1,1-2.384-2.376A2.379,2.379,0,0,1,49.832,18.04Zm120.168,0a2.384,2.384,0,1,1-2.384-2.374A2.381,2.381,0,0,1,170,18.038Zm-45.063,0a2.384,2.384,0,1,1-2.384-2.374A2.381,2.381,0,0,1,124.937,18.038Zm15.022,0a2.385,2.385,0,1,1-2.384-2.374A2.381,2.381,0,0,1,139.959,18.038Zm15.021,0a2.385,2.385,0,1,1-2.386-2.374A2.381,2.381,0,0,1,154.98,18.038ZM4.769,5.027A2.384,2.384,0,1,1,2.384,2.653,2.381,2.381,0,0,1,4.769,5.027ZM75.1,5.01a2.392,2.392,0,1,1,0,.017Zm-55.315.017A2.385,2.385,0,1,1,17.4,2.653,2.38,2.38,0,0,1,19.789,5.027Zm30.043,0a2.384,2.384,0,1,1-2.384-2.374A2.381,2.381,0,0,1,49.832,5.027ZM91.293,7.069a2.386,2.386,0,1,1,1.218.333A2.37,2.37,0,0,1,91.293,7.069ZM64.854,5.027A2.385,2.385,0,1,1,62.47,2.653,2.381,2.381,0,0,1,64.854,5.027Zm-30.043,0a2.385,2.385,0,1,1-2.386-2.374A2.382,2.382,0,0,1,34.812,5.027Zm90.125,0a2.384,2.384,0,1,1-2.384-2.376A2.379,2.379,0,0,1,124.937,5.027Zm45.063,0a2.384,2.384,0,1,1-2.384-2.376A2.379,2.379,0,0,1,170,5.027Zm-30.041,0a2.385,2.385,0,1,1-2.384-2.376A2.379,2.379,0,0,1,139.959,5.027Zm15.021,0a2.385,2.385,0,1,1-2.386-2.376A2.379,2.379,0,0,1,154.98,5.027Zm-45.063,0a2.385,2.385,0,1,1-2.386-2.376A2.381,2.381,0,0,1,109.916,5.027ZM124.937-7.986a2.38,2.38,0,0,1-2.384,2.376,2.379,2.379,0,0,1-2.384-2.376,2.379,2.379,0,0,1,2.384-2.374A2.379,2.379,0,0,1,124.937-7.986Zm45.063,0a2.379,2.379,0,0,1-2.384,2.376,2.379,2.379,0,0,1-2.384-2.376,2.379,2.379,0,0,1,2.384-2.374A2.379,2.379,0,0,1,170-7.986Zm-15.02,0a2.38,2.38,0,0,1-2.386,2.376,2.38,2.38,0,0,1-2.384-2.376,2.379,2.379,0,0,1,2.384-2.374A2.379,2.379,0,0,1,154.98-7.986Zm-45.063,0A2.381,2.381,0,0,1,107.53-5.61a2.38,2.38,0,0,1-2.384-2.376,2.379,2.379,0,0,1,2.384-2.374A2.381,2.381,0,0,1,109.916-7.986Zm30.043,0a2.379,2.379,0,0,1-2.384,2.376,2.38,2.38,0,0,1-2.386-2.376,2.379,2.379,0,0,1,2.386-2.374A2.379,2.379,0,0,1,139.959-7.986Zm-60.086,0A2.38,2.38,0,0,1,77.489-5.61,2.378,2.378,0,0,1,75.1-7.986a2.378,2.378,0,0,1,2.384-2.374A2.379,2.379,0,0,1,79.873-7.986Zm15.02,0A2.378,2.378,0,0,1,92.509-5.61a2.381,2.381,0,0,1-2.386-2.376,2.381,2.381,0,0,1,2.386-2.374A2.378,2.378,0,0,1,94.894-7.986ZM154.98-21a2.38,2.38,0,0,1-2.386,2.376A2.38,2.38,0,0,1,150.209-21a2.379,2.379,0,0,1,2.384-2.374A2.38,2.38,0,0,1,154.98-21Zm-15.021,0a2.38,2.38,0,0,1-2.384,2.376A2.38,2.38,0,0,1,135.189-21a2.38,2.38,0,0,1,2.386-2.374A2.379,2.379,0,0,1,139.959-21ZM94.894-21a2.378,2.378,0,0,1-2.384,2.376A2.381,2.381,0,0,1,90.123-21a2.381,2.381,0,0,1,2.386-2.374A2.378,2.378,0,0,1,94.894-21ZM170-21a2.379,2.379,0,0,1-2.384,2.376A2.379,2.379,0,0,1,165.232-21a2.379,2.379,0,0,1,2.384-2.374A2.379,2.379,0,0,1,170-21Zm-45.063,0a2.38,2.38,0,0,1-2.384,2.376A2.379,2.379,0,0,1,120.168-21a2.379,2.379,0,0,1,2.384-2.374A2.379,2.379,0,0,1,124.937-21ZM79.873-21a2.38,2.38,0,0,1-2.384,2.376A2.378,2.378,0,0,1,75.1-21a2.378,2.378,0,0,1,2.384-2.374A2.379,2.379,0,0,1,79.873-21Zm30.043,0a2.381,2.381,0,0,1-2.386,2.376A2.38,2.38,0,0,1,105.146-21a2.379,2.379,0,0,1,2.384-2.374A2.381,2.381,0,0,1,109.916-21ZM79.873-34.007a2.379,2.379,0,0,1-2.384,2.374A2.378,2.378,0,0,1,75.1-34.007a2.378,2.378,0,0,1,2.384-2.376A2.38,2.38,0,0,1,79.873-34.007Zm90.127,0a2.379,2.379,0,0,1-2.384,2.374,2.379,2.379,0,0,1-2.384-2.374,2.379,2.379,0,0,1,2.384-2.376A2.379,2.379,0,0,1,170-34.007Zm-45.063,0a2.379,2.379,0,0,1-2.384,2.374,2.379,2.379,0,0,1-2.384-2.374,2.379,2.379,0,0,1,2.384-2.376A2.38,2.38,0,0,1,124.937-34.007Zm15.022,0a2.379,2.379,0,0,1-2.384,2.374,2.38,2.38,0,0,1-2.386-2.374,2.38,2.38,0,0,1,2.386-2.376A2.38,2.38,0,0,1,139.959-34.007Zm15.021,0a2.38,2.38,0,0,1-2.386,2.374,2.379,2.379,0,0,1-2.384-2.374,2.38,2.38,0,0,1,2.384-2.376A2.38,2.38,0,0,1,154.98-34.007Zm-60.086,0a2.378,2.378,0,0,1-2.384,2.374,2.381,2.381,0,0,1-2.386-2.374,2.381,2.381,0,0,1,2.386-2.376A2.378,2.378,0,0,1,94.894-34.007Zm15.023,0a2.381,2.381,0,0,1-2.386,2.374,2.379,2.379,0,0,1-2.384-2.374,2.38,2.38,0,0,1,2.384-2.376A2.381,2.381,0,0,1,109.916-34.007ZM79.873-47.02a2.381,2.381,0,0,1-2.384,2.376A2.379,2.379,0,0,1,75.1-47.02a2.378,2.378,0,0,1,2.384-2.374A2.379,2.379,0,0,1,79.873-47.02Zm60.086,0a2.381,2.381,0,0,1-2.384,2.376,2.381,2.381,0,0,1-2.386-2.376,2.379,2.379,0,0,1,2.386-2.374A2.379,2.379,0,0,1,139.959-47.02Zm30.041,0a2.381,2.381,0,0,1-2.384,2.376,2.381,2.381,0,0,1-2.384-2.376,2.379,2.379,0,0,1,2.384-2.374A2.379,2.379,0,0,1,170-47.02Zm-45.063,0a2.381,2.381,0,0,1-2.384,2.376,2.381,2.381,0,0,1-2.384-2.376,2.379,2.379,0,0,1,2.384-2.374A2.379,2.379,0,0,1,124.937-47.02Zm-30.043,0a2.379,2.379,0,0,1-2.384,2.376,2.382,2.382,0,0,1-2.386-2.376,2.381,2.381,0,0,1,2.386-2.374A2.378,2.378,0,0,1,94.894-47.02Zm60.086,0a2.381,2.381,0,0,1-2.386,2.376,2.381,2.381,0,0,1-2.384-2.376,2.379,2.379,0,0,1,2.384-2.374A2.38,2.38,0,0,1,154.98-47.02Zm-45.063,0a2.382,2.382,0,0,1-2.386,2.376,2.381,2.381,0,0,1-2.384-2.376,2.379,2.379,0,0,1,2.384-2.374A2.381,2.381,0,0,1,109.916-47.02Z" transform="translate(0 49.394)"/></g></svg>