<svg xmlns="http://www.w3.org/2000/svg" width="239" height="52" viewBox="0 0 239 52"><defs><style>.a{fill:#181818;}.b{fill:#f5f5f5;font-size:22px;font-family:Inter-Medium, Inter;font-weight:500;letter-spacing:-0.02em;}.c{fill:#f07d25;}</style></defs><g transform="translate(-14486 -787)"><path class="a" d="M21,0H218a21,21,0,0,1,21,21V31a21,21,0,0,1-21,21H0a0,0,0,0,1,0,0V21A21,21,0,0,1,21,0Z" transform="translate(14486 787)"/><text class="b" transform="translate(14545 821)"><tspan x="0" y="0">Meeting today</tspan></text><path class="c" d="M12.21.5A11.721,11.721,0,1,0,23.943,12.221,11.716,11.716,0,0,0,12.21.5Zm.012,21.1A9.377,9.377,0,1,1,21.6,12.221,9.374,9.374,0,0,1,12.221,21.6Zm.586-15.238H11.049v7.033L17.2,17.086l.879-1.442-5.275-3.13Z" transform="translate(14503.536 802.359)"/></g></svg>