<svg height="102.186" viewBox="0 0 141.256 102.186" width="141.256" xmlns="http://www.w3.org/2000/svg"><path d="m-16.974-113.506-10.5 9.692-10.5-9.692-9.681 8.934-1.643-1.78 11.323-10.448 10.5 9.692 10.5-9.692 10.5 9.692 9.675-8.938 1.643 1.781-11.317 10.451zm-73.451-17.153 12.556 7.249-12.556 7.25zm105.26-14.095a1.71 1.71 0 0 1 1.711-1.709 1.71 1.71 0 0 1 1.71 1.709 1.711 1.711 0 0 1 -1.71 1.711 1.711 1.711 0 0 1 -1.711-1.711zm-12.659 0a1.709 1.709 0 0 1 1.711-1.709 1.71 1.71 0 0 1 1.713 1.709 1.712 1.712 0 0 1 -1.711 1.711 1.711 1.711 0 0 1 -1.714-1.711zm-12.662 0a1.711 1.711 0 0 1 1.713-1.709 1.71 1.71 0 0 1 1.71 1.709 1.711 1.711 0 0 1 -1.71 1.711 1.712 1.712 0 0 1 -1.714-1.711zm-12.658 0a1.71 1.71 0 0 1 1.711-1.709 1.709 1.709 0 0 1 1.711 1.709 1.711 1.711 0 0 1 -1.711 1.711 1.712 1.712 0 0 1 -1.712-1.711zm-12.66 0a1.71 1.71 0 0 1 1.711-1.709 1.709 1.709 0 0 1 1.71 1.709 1.711 1.711 0 0 1 -1.71 1.711 1.711 1.711 0 0 1 -1.713-1.711zm-12.661 0a1.71 1.71 0 0 1 1.711-1.709 1.709 1.709 0 0 1 1.711 1.709 1.711 1.711 0 0 1 -1.711 1.711 1.712 1.712 0 0 1 -1.713-1.711zm-74.535-8.069 3.275-13.63 12.846 2.02 3.036-12.641 12.849 2.017 2.8-11.654 2.144.514-3.281 13.636-12.847-2.019-3.037 12.641-12.846-2.02-2.8 11.651zm137.835-3.839a1.71 1.71 0 0 1 1.711-1.71 1.71 1.71 0 0 1 1.71 1.71 1.711 1.711 0 0 1 -1.71 1.711 1.711 1.711 0 0 1 -1.711-1.71zm-12.659 0a1.709 1.709 0 0 1 1.711-1.71 1.711 1.711 0 0 1 1.711 1.71 1.711 1.711 0 0 1 -1.711 1.711 1.71 1.71 0 0 1 -1.712-1.71zm-12.662 0a1.711 1.711 0 0 1 1.713-1.71 1.71 1.71 0 0 1 1.71 1.71 1.711 1.711 0 0 1 -1.71 1.711 1.712 1.712 0 0 1 -1.714-1.71zm-12.658 0a1.711 1.711 0 0 1 1.711-1.71 1.709 1.709 0 0 1 1.711 1.71 1.71 1.71 0 0 1 -1.711 1.711 1.711 1.711 0 0 1 -1.712-1.71zm-12.66 0a1.71 1.71 0 0 1 1.711-1.71 1.709 1.709 0 0 1 1.71 1.71 1.71 1.71 0 0 1 -1.71 1.711 1.711 1.711 0 0 1 -1.713-1.71zm-12.661 0a1.711 1.711 0 0 1 1.711-1.71 1.709 1.709 0 0 1 1.711 1.71 1.71 1.71 0 0 1 -1.711 1.711 1.711 1.711 0 0 1 -1.713-1.71zm63.3-11.907a1.711 1.711 0 0 1 1.711-1.711 1.711 1.711 0 0 1 1.71 1.711 1.71 1.71 0 0 1 -1.71 1.71 1.711 1.711 0 0 1 -1.711-1.709zm-12.659 0a1.71 1.71 0 0 1 1.711-1.711 1.711 1.711 0 0 1 1.713 1.712 1.711 1.711 0 0 1 -1.711 1.71 1.71 1.71 0 0 1 -1.714-1.71zm-12.662 0a1.712 1.712 0 0 1 1.713-1.711 1.711 1.711 0 0 1 1.71 1.711 1.71 1.71 0 0 1 -1.71 1.71 1.712 1.712 0 0 1 -1.714-1.709zm-12.658 0a1.711 1.711 0 0 1 1.711-1.711 1.71 1.71 0 0 1 1.711 1.711 1.71 1.71 0 0 1 -1.711 1.71 1.711 1.711 0 0 1 -1.712-1.709zm-12.66 0a1.711 1.711 0 0 1 1.711-1.711 1.71 1.71 0 0 1 1.71 1.711 1.71 1.71 0 0 1 -1.71 1.71 1.711 1.711 0 0 1 -1.713-1.709zm-12.661 0a1.711 1.711 0 0 1 1.711-1.711 1.71 1.71 0 0 1 1.711 1.711 1.71 1.71 0 0 1 -1.711 1.71 1.711 1.711 0 0 1 -1.713-1.709zm63.3-11.907a1.711 1.711 0 0 1 1.711-1.711 1.711 1.711 0 0 1 1.71 1.711 1.711 1.711 0 0 1 -1.71 1.711 1.711 1.711 0 0 1 -1.711-1.71zm-12.659 0a1.71 1.71 0 0 1 1.711-1.711 1.711 1.711 0 0 1 1.713 1.712 1.712 1.712 0 0 1 -1.711 1.711 1.711 1.711 0 0 1 -1.714-1.711zm-12.662 0a1.712 1.712 0 0 1 1.713-1.711 1.711 1.711 0 0 1 1.71 1.711 1.711 1.711 0 0 1 -1.71 1.711 1.712 1.712 0 0 1 -1.714-1.71zm-12.658 0a1.711 1.711 0 0 1 1.711-1.711 1.71 1.71 0 0 1 1.711 1.711 1.711 1.711 0 0 1 -1.711 1.711 1.712 1.712 0 0 1 -1.712-1.71zm-12.66 0a1.711 1.711 0 0 1 1.711-1.711 1.71 1.71 0 0 1 1.71 1.711 1.711 1.711 0 0 1 -1.71 1.711 1.711 1.711 0 0 1 -1.713-1.71zm-12.661 0a1.711 1.711 0 0 1 1.711-1.711 1.71 1.71 0 0 1 1.711 1.711 1.711 1.711 0 0 1 -1.711 1.711 1.712 1.712 0 0 1 -1.713-1.71zm63.3-11.908a1.711 1.711 0 0 1 1.711-1.711 1.711 1.711 0 0 1 1.71 1.711 1.711 1.711 0 0 1 -1.71 1.711 1.711 1.711 0 0 1 -1.711-1.71zm-12.659 0a1.711 1.711 0 0 1 1.711-1.711 1.712 1.712 0 0 1 1.713 1.712 1.711 1.711 0 0 1 -1.711 1.711 1.71 1.71 0 0 1 -1.714-1.711zm-12.662 0a1.712 1.712 0 0 1 1.713-1.711 1.711 1.711 0 0 1 1.71 1.711 1.711 1.711 0 0 1 -1.71 1.711 1.712 1.712 0 0 1 -1.714-1.71zm-12.658 0a1.712 1.712 0 0 1 1.711-1.711 1.711 1.711 0 0 1 1.711 1.711 1.71 1.71 0 0 1 -1.711 1.711 1.711 1.711 0 0 1 -1.712-1.71zm-12.66 0a1.711 1.711 0 0 1 1.711-1.711 1.711 1.711 0 0 1 1.71 1.711 1.71 1.71 0 0 1 -1.71 1.711 1.711 1.711 0 0 1 -1.713-1.71zm-12.661 0a1.712 1.712 0 0 1 1.711-1.711 1.711 1.711 0 0 1 1.711 1.711 1.71 1.71 0 0 1 -1.711 1.711 1.711 1.711 0 0 1 -1.713-1.71zm63.3-11.906a1.71 1.71 0 0 1 1.711-1.71 1.71 1.71 0 0 1 1.71 1.711 1.711 1.711 0 0 1 -1.71 1.711 1.711 1.711 0 0 1 -1.711-1.711zm-12.659 0a1.71 1.71 0 0 1 1.71-1.71 1.711 1.711 0 0 1 1.714 1.711 1.712 1.712 0 0 1 -1.711 1.711 1.711 1.711 0 0 1 -1.714-1.711zm-12.662 0a1.711 1.711 0 0 1 1.712-1.71 1.71 1.71 0 0 1 1.71 1.711 1.711 1.711 0 0 1 -1.71 1.711 1.712 1.712 0 0 1 -1.713-1.711zm-12.658 0a1.711 1.711 0 0 1 1.71-1.71 1.71 1.71 0 0 1 1.711 1.711 1.711 1.711 0 0 1 -1.711 1.711 1.712 1.712 0 0 1 -1.711-1.711zm-12.66 0a1.71 1.71 0 0 1 1.709-1.71 1.709 1.709 0 0 1 1.71 1.711 1.711 1.711 0 0 1 -1.71 1.711 1.711 1.711 0 0 1 -1.711-1.711zm-12.661 0a1.711 1.711 0 0 1 1.709-1.71 1.71 1.71 0 0 1 1.711 1.711 1.711 1.711 0 0 1 -1.711 1.711 1.712 1.712 0 0 1 -1.711-1.711z" fill="#ef651f" transform="translate(123 206)"/></svg>