<svg height="104.25" viewBox="0 0 123.027 104.25" width="123.027" xmlns="http://www.w3.org/2000/svg"><path d="m25.193 53.021a1.729 1.729 0 1 1 -1.727-1.836 1.784 1.784 0 0 1 1.727 1.836zm-21.742 0a1.783 1.783 0 0 1 -1.726 1.835 1.839 1.839 0 0 1 0-3.671 1.784 1.784 0 0 1 1.726 1.836zm32.612 0a1.729 1.729 0 1 1 -1.726-1.836 1.783 1.783 0 0 1 1.726 1.836zm32.612 0a1.729 1.729 0 1 1 -1.726-1.836 1.783 1.783 0 0 1 1.726 1.836zm-54.354 0a1.729 1.729 0 1 1 -1.721-1.836 1.782 1.782 0 0 1 1.721 1.836zm32.613 0a1.729 1.729 0 1 1 -1.725-1.836 1.783 1.783 0 0 1 1.725 1.836zm10.87 0a1.729 1.729 0 1 1 -1.727-1.836 1.783 1.783 0 0 1 1.723 1.836zm10.87-10.059a1.729 1.729 0 1 1 -1.726-1.835 1.784 1.784 0 0 1 1.727 1.835zm-32.612 0a1.729 1.729 0 1 1 -1.726-1.835 1.784 1.784 0 0 1 1.727 1.835zm10.871 0a1.729 1.729 0 1 1 -1.725-1.835 1.784 1.784 0 0 1 1.726 1.835zm-43.483 0a1.784 1.784 0 0 1 -1.725 1.838 1.839 1.839 0 0 1 0-3.672 1.783 1.783 0 0 1 1.726 1.834zm54.354 0a1.729 1.729 0 1 1 -1.727-1.835 1.784 1.784 0 0 1 1.723 1.835zm-43.483 0a1.729 1.729 0 1 1 -1.721-1.835 1.783 1.783 0 0 1 1.721 1.835zm10.871 0a1.729 1.729 0 1 1 -1.727-1.835 1.785 1.785 0 0 1 1.728 1.835zm10.871-10.062a1.729 1.729 0 1 1 -1.726-1.836 1.783 1.783 0 0 1 1.726 1.836zm32.612 0a1.729 1.729 0 1 1 -1.726-1.836 1.783 1.783 0 0 1 1.726 1.836zm-21.741 0a1.729 1.729 0 1 1 -1.725-1.836 1.783 1.783 0 0 1 1.725 1.836zm-43.483 0a1.783 1.783 0 0 1 -1.726 1.835 1.839 1.839 0 0 1 0-3.671 1.784 1.784 0 0 1 1.726 1.836zm54.354 0a1.729 1.729 0 1 1 -1.727-1.836 1.783 1.783 0 0 1 1.722 1.836zm-43.483 0a1.729 1.729 0 1 1 -1.722-1.832 1.782 1.782 0 0 1 1.721 1.832zm10.871 0a1.729 1.729 0 1 1 -1.727-1.836 1.784 1.784 0 0 1 1.727 1.836zm10.87-10.059a1.729 1.729 0 1 1 -1.726-1.835 1.783 1.783 0 0 1 1.726 1.839zm32.612 0a1.729 1.729 0 1 1 -1.726-1.835 1.783 1.783 0 0 1 1.726 1.839zm-10.87 0a1.729 1.729 0 1 1 -1.727-1.835 1.783 1.783 0 0 1 1.722 1.839zm-32.612 0a1.729 1.729 0 1 1 -1.727-1.835 1.784 1.784 0 0 1 1.727 1.839zm21.742 0a1.729 1.729 0 1 1 -1.725-1.835 1.783 1.783 0 0 1 1.724 1.839zm-43.483 0a1.783 1.783 0 0 1 -1.726 1.836 1.839 1.839 0 0 1 0-3.672 1.783 1.783 0 0 1 1.725 1.84zm10.87 0a1.729 1.729 0 1 1 -1.722-1.831 1.782 1.782 0 0 1 1.721 1.835zm41.712-8.222a1.785 1.785 0 0 1 -1.681-1.835 1.855 1.855 0 0 1 .895-1.609l.045-.026h.009a1.642 1.642 0 0 1 .514-.175l.043-.006a1.644 1.644 0 0 1 .22-.015 1.839 1.839 0 0 1 0 3.671zm-9.1-1.836a1.729 1.729 0 1 1 -1.725-1.835 1.783 1.783 0 0 1 1.725 1.84zm-32.613 0a1.729 1.729 0 1 1 -1.721-1.83 1.782 1.782 0 0 1 1.721 1.835zm52.627-1.835a1.839 1.839 0 0 1 0 3.671 1.839 1.839 0 0 1 0-3.671zm-30.885 1.84a1.729 1.729 0 1 1 -1.726-1.835 1.783 1.783 0 0 1 1.726 1.835zm-32.612 0a1.783 1.783 0 0 1 -1.726 1.836 1.839 1.839 0 0 1 0-3.671 1.783 1.783 0 0 1 1.726 1.835zm21.742 0a1.729 1.729 0 1 1 -1.727-1.835 1.784 1.784 0 0 1 1.727 1.835zm86.964 0a1.73 1.73 0 1 1 -1.727-1.836 1.783 1.783 0 0 1 1.727 1.837zm-32.612 0a1.73 1.73 0 1 1 -1.727-1.836 1.784 1.784 0 0 1 1.727 1.837zm21.742 0a1.729 1.729 0 1 1 -1.725-1.836 1.783 1.783 0 0 1 1.725 1.837zm21.74 0a1.729 1.729 0 1 1 -1.725-1.836 1.783 1.783 0 0 1 1.725 1.837zm-32.612 0a1.729 1.729 0 1 1 -1.726-1.836 1.783 1.783 0 0 1 1.726 1.837zm-86.964-10.056a1.783 1.783 0 0 1 -1.726 1.835 1.782 1.782 0 0 1 -1.725-1.835 1.782 1.782 0 0 1 1.725-1.832 1.783 1.783 0 0 1 1.726 1.832zm63.497-1.832a1.783 1.783 0 0 1 1.726 1.836 1.783 1.783 0 0 1 -1.726 1.835 1.785 1.785 0 0 1 -1.727-1.841 1.784 1.784 0 0 1 1.727-1.83zm-20.014 1.832a1.729 1.729 0 1 1 -3.452 0 1.729 1.729 0 1 1 3.452 0zm9.018-1.832h.125a1.783 1.783 0 0 1 1.723 1.832 1.783 1.783 0 0 1 -1.727 1.835h-.044a1.636 1.636 0 0 1 -.772-.217l-.043-.026h-.008a1.857 1.857 0 0 1 -.859-1.587 1.792 1.792 0 0 1 1.605-1.837zm-41.631 1.832a1.729 1.729 0 1 1 -3.452 0 1.729 1.729 0 1 1 3.452 0zm10.871 0a1.729 1.729 0 1 1 -3.452 0 1.729 1.729 0 1 1 3.452 0zm54.352 0a1.73 1.73 0 1 1 -3.452 0 1.729 1.729 0 1 1 3.452 0zm-43.482 0a1.729 1.729 0 1 1 -3.451 0 1.729 1.729 0 1 1 3.451 0zm86.964 0a1.729 1.729 0 1 1 -3.451 0 1.729 1.729 0 1 1 3.451 0zm-32.612 0a1.729 1.729 0 1 1 -3.451 0 1.729 1.729 0 1 1 3.451 0zm10.871 0a1.729 1.729 0 1 1 -3.452 0 1.729 1.729 0 1 1 3.452 0zm10.87 0a1.73 1.73 0 1 1 -3.452 0 1.729 1.729 0 1 1 3.452 0zm-108.704-10.059a1.784 1.784 0 0 1 -1.726 1.836 1.783 1.783 0 0 1 -1.725-1.836 1.782 1.782 0 0 1 1.725-1.835 1.783 1.783 0 0 1 1.726 1.835zm50.9-.013a1.782 1.782 0 0 1 1.725-1.824 1.652 1.652 0 0 1 1.053.382 1.873 1.873 0 0 1 .671 1.455 1.784 1.784 0 0 1 -1.727 1.836 1.687 1.687 0 0 1 -1.356-.7 1.9 1.9 0 0 1 -.37-1.136zm-40.031.013a1.783 1.783 0 0 1 -1.72 1.836 1.785 1.785 0 0 1 -1.727-1.836 1.784 1.784 0 0 1 1.727-1.835 1.782 1.782 0 0 1 1.721 1.835zm21.742 0a1.784 1.784 0 0 1 -1.726 1.836 1.784 1.784 0 0 1 -1.725-1.836 1.783 1.783 0 0 1 1.725-1.835 1.783 1.783 0 0 1 1.727 1.835zm30.006 1.578a1.859 1.859 0 0 1 -.847-1.579 1.785 1.785 0 0 1 1.727-1.836 1.663 1.663 0 0 1 1.161.478 1.884 1.884 0 0 1 .566 1.359 1.784 1.784 0 0 1 -1.726 1.836 1.637 1.637 0 0 1 -.881-.258zm-19.134-1.578a1.784 1.784 0 0 1 -1.725 1.836 1.784 1.784 0 0 1 -1.727-1.836 1.783 1.783 0 0 1 1.727-1.835 1.783 1.783 0 0 1 1.725 1.835zm-21.742 0a1.785 1.785 0 0 1 -1.727 1.836 1.784 1.784 0 0 1 -1.725-1.836 1.783 1.783 0 0 1 1.725-1.835 1.784 1.784 0 0 1 1.728 1.835zm65.223 0a1.783 1.783 0 0 1 -1.725 1.835 1.783 1.783 0 0 1 -1.725-1.835 1.784 1.784 0 0 1 1.725-1.837 1.784 1.784 0 0 1 1.725 1.837zm32.612 0a1.783 1.783 0 0 1 -1.727 1.835 1.783 1.783 0 0 1 -1.725-1.835 1.784 1.784 0 0 1 1.725-1.837 1.784 1.784 0 0 1 1.727 1.837zm-21.74 0a1.783 1.783 0 0 1 -1.725 1.835 1.783 1.783 0 0 1 -1.727-1.835 1.784 1.784 0 0 1 1.727-1.836 1.784 1.784 0 0 1 1.725 1.836zm10.87 0a1.783 1.783 0 0 1 -1.727 1.835 1.783 1.783 0 0 1 -1.73-1.835 1.784 1.784 0 0 1 1.726-1.836 1.784 1.784 0 0 1 1.731 1.836zm-32.612 0a1.784 1.784 0 0 1 -1.727 1.835 1.783 1.783 0 0 1 -1.726-1.835 1.784 1.784 0 0 1 1.726-1.836 1.785 1.785 0 0 1 1.727 1.836zm10.87-10.059a1.783 1.783 0 0 1 -1.725 1.836 1.783 1.783 0 0 1 -1.725-1.836 1.783 1.783 0 0 1 1.725-1.835 1.783 1.783 0 0 1 1.725 1.835zm32.612 0a1.783 1.783 0 0 1 -1.727 1.836 1.783 1.783 0 0 1 -1.725-1.836 1.783 1.783 0 0 1 1.725-1.835 1.783 1.783 0 0 1 1.727 1.835zm-10.87 0a1.783 1.783 0 0 1 -1.727 1.836 1.783 1.783 0 0 1 -1.726-1.836 1.783 1.783 0 0 1 1.726-1.835 1.783 1.783 0 0 1 1.727 1.835zm-32.612 0a1.784 1.784 0 0 1 -1.727 1.836 1.783 1.783 0 0 1 -1.726-1.836 1.783 1.783 0 0 1 1.726-1.835 1.784 1.784 0 0 1 1.727 1.835zm21.742 0a1.783 1.783 0 0 1 -1.725 1.836 1.783 1.783 0 0 1 -1.727-1.836 1.783 1.783 0 0 1 1.727-1.835 1.783 1.783 0 0 1 1.725 1.835zm-43.483 0a1.783 1.783 0 0 1 -1.726 1.836 1.782 1.782 0 0 1 -1.725-1.836 1.782 1.782 0 0 1 1.725-1.835 1.783 1.783 0 0 1 1.722 1.835zm10.87 0a1.782 1.782 0 0 1 -1.725 1.836 1.784 1.784 0 0 1 -1.727-1.836 1.784 1.784 0 0 1 1.727-1.835 1.782 1.782 0 0 1 1.725 1.835zm43.484-10.058a1.783 1.783 0 0 1 -1.727 1.836 1.783 1.783 0 0 1 -1.726-1.836 1.783 1.783 0 0 1 1.726-1.835 1.783 1.783 0 0 1 1.726 1.835zm-10.87 0a1.783 1.783 0 0 1 -1.725 1.836 1.783 1.783 0 0 1 -1.727-1.836 1.783 1.783 0 0 1 1.727-1.835 1.783 1.783 0 0 1 1.724 1.835zm-32.613 0a1.782 1.782 0 0 1 -1.725 1.836 1.784 1.784 0 0 1 -1.727-1.836 1.784 1.784 0 0 1 1.727-1.835 1.782 1.782 0 0 1 1.724 1.835zm54.354 0a1.783 1.783 0 0 1 -1.725 1.836 1.783 1.783 0 0 1 -1.725-1.836 1.783 1.783 0 0 1 1.725-1.835 1.783 1.783 0 0 1 1.723 1.835zm-32.612 0a1.783 1.783 0 0 1 -1.726 1.836 1.783 1.783 0 0 1 -1.725-1.836 1.783 1.783 0 0 1 1.725-1.835 1.783 1.783 0 0 1 1.724 1.835zm-32.612 0a1.783 1.783 0 0 1 -1.726 1.836 1.782 1.782 0 0 1 -1.725-1.836 1.782 1.782 0 0 1 1.725-1.835 1.783 1.783 0 0 1 1.721 1.835zm21.742 0a1.784 1.784 0 0 1 -1.727 1.836 1.783 1.783 0 0 1 -1.726-1.836 1.783 1.783 0 0 1 1.726-1.835 1.784 1.784 0 0 1 1.725 1.835zm-21.747-10.056a1.783 1.783 0 0 1 -1.726 1.835 1.782 1.782 0 0 1 -1.722-1.835 1.782 1.782 0 0 1 1.725-1.836 1.783 1.783 0 0 1 1.723 1.836zm65.224 0a1.783 1.783 0 0 1 -1.725 1.835 1.783 1.783 0 0 1 -1.725-1.835 1.783 1.783 0 0 1 1.725-1.836 1.783 1.783 0 0 1 1.728 1.836zm-32.612 0a1.783 1.783 0 0 1 -1.726 1.835 1.783 1.783 0 0 1 -1.722-1.835 1.783 1.783 0 0 1 1.725-1.836 1.783 1.783 0 0 1 1.726 1.836zm10.871 0a1.783 1.783 0 0 1 -1.725 1.835 1.783 1.783 0 0 1 -1.723-1.835 1.783 1.783 0 0 1 1.727-1.836 1.783 1.783 0 0 1 1.725 1.836zm10.87 0a1.783 1.783 0 0 1 -1.727 1.835 1.783 1.783 0 0 1 -1.726-1.835 1.783 1.783 0 0 1 1.726-1.836 1.783 1.783 0 0 1 1.731 1.836zm-43.484 0a1.782 1.782 0 0 1 -1.725 1.835 1.784 1.784 0 0 1 -1.723-1.835 1.784 1.784 0 0 1 1.727-1.836 1.782 1.782 0 0 1 1.726 1.836zm10.872 0a1.784 1.784 0 0 1 -1.727 1.835 1.783 1.783 0 0 1 -1.721-1.835 1.783 1.783 0 0 1 1.726-1.836 1.784 1.784 0 0 1 1.726 1.836zm-21.741-10.059a1.784 1.784 0 0 1 -1.726 1.836 1.783 1.783 0 0 1 -1.725-1.836 1.782 1.782 0 0 1 1.725-1.835 1.783 1.783 0 0 1 1.726 1.835zm43.483 0a1.784 1.784 0 0 1 -1.725 1.836 1.784 1.784 0 0 1 -1.727-1.836 1.783 1.783 0 0 1 1.727-1.835 1.783 1.783 0 0 1 1.729 1.835zm21.74 0a1.784 1.784 0 0 1 -1.725 1.836 1.784 1.784 0 0 1 -1.725-1.836 1.783 1.783 0 0 1 1.725-1.835 1.783 1.783 0 0 1 1.729 1.835zm-32.612 0a1.784 1.784 0 0 1 -1.726 1.836 1.784 1.784 0 0 1 -1.725-1.836 1.783 1.783 0 0 1 1.725-1.835 1.783 1.783 0 0 1 1.73 1.835zm-21.742 0a1.783 1.783 0 0 1 -1.725 1.836 1.785 1.785 0 0 1 -1.727-1.836 1.784 1.784 0 0 1 1.727-1.835 1.782 1.782 0 0 1 1.73 1.835zm43.484 0a1.784 1.784 0 0 1 -1.727 1.836 1.784 1.784 0 0 1 -1.726-1.836 1.783 1.783 0 0 1 1.726-1.835 1.783 1.783 0 0 1 1.731 1.835zm-32.612 0a1.785 1.785 0 0 1 -1.727 1.836 1.784 1.784 0 0 1 -1.726-1.836 1.783 1.783 0 0 1 1.726-1.835 1.784 1.784 0 0 1 1.731 1.835z" fill="#ef651f" transform="translate(0 49.394)"/></svg>