<svg height="60.096" viewBox="0 0 129.529 60.096" width="129.529" xmlns="http://www.w3.org/2000/svg"><path d="m121.543 34.582s-33.138-27.474-87.378-29.099c0 0-21.521-1.979-31.887-.294 0 0-3.149-.477-2.081-2.817a4.855 4.855 0 0 1 .66-1.025c39.693-4.562 94.391-.368 124.12 30.377 0 0 .374 3.5-3.434 2.86zm-119.533-32.054c.177-.021 61.448-7.663 104.917 18.02l.379-.676c-43.684-25.81-105.192-18.138-105.371-18.116l.074.773z" fill="#ffe8b6" fill-rule="evenodd" transform="matrix(.978 -.208 .208 .978 .066 26.186)"/></svg>