<svg height="24" viewBox="0 0 19.2 24" width="19.2" xmlns="http://www.w3.org/2000/svg"><path d="m12-150h-9.6a2.4 2.4 0 0 0 -2.388 2.4l-.012 19.2a2.4 2.4 0 0 0 2.388 2.4h14.412a2.407 2.407 0 0 0 2.4-2.4v-14.4zm2.4 18.7a.5.5 0 0 1 -.5.5h-8.6a.5.5 0 0 1 -.5-.5v-1.4a.5.5 0 0 1 .5-.5h8.6a.5.5 0 0 1 .5.5zm0-4.8a.5.5 0 0 1 -.5.5h-8.6a.5.5 0 0 1 -.5-.5v-1.4a.5.5 0 0 1 .5-.5h8.6a.5.5 0 0 1 .5.5zm-2.761-5.5a.839.839 0 0 1 -.593-.246.839.839 0 0 1 -.246-.593v-5.761l6.6 6.6z" fill="#fff" transform="translate(0 150)"/></svg>