<svg height="32" viewBox="0 0 32 32" width="32" xmlns="http://www.w3.org/2000/svg"><circle cx="16" cy="16" fill="#181818" r="16"/><path d="m-96.754 260.624a1.147 1.147 0 0 1 -1.616 0l-2.355-2.378a1.126 1.126 0 0 1 0-1.581l.011-.011a1.119 1.119 0 0 1 1.593 0l1.559 1.559 5.04-5.074a1.133 1.133 0 0 1 1.6 0l.011.011a1.126 1.126 0 0 1 0 1.581zm-4.756.25-.978-.978a3.409 3.409 0 0 1 .023-4.847l.956-.933a10.632 10.632 0 0 0 -1.138-.068c-3.038 0-9.1 1.525-9.1 4.551v2.275zm-1.138-9.1a4.55 4.55 0 0 0 4.551-4.551 4.55 4.55 0 0 0 -4.551-4.551 4.55 4.55 0 0 0 -4.551 4.551 4.55 4.55 0 0 0 4.552 4.549z" fill="#fff" transform="translate(118.607 -237.338)"/></svg>