<svg height="32.236" viewBox="0 0 30.406 32.236" width="30.406" xmlns="http://www.w3.org/2000/svg"><path d="m-110.251-173.764h-12.749v-32.236h12.749c10.561 0 17.656 6.474 17.656 16.11s-7.095 16.126-17.656 16.126zm1.218-11.012 4.33 2.277h.593a.465.465 0 0 0 .172-.446l-.844-4.92 3.217-3.135v-1.16l-4.84-.7-2.21-4.477a.459.459 0 0 0 -.127-.158h-.582a.459.459 0 0 0 -.128.158l-2.209 4.477-4.839.7v1.16l3.215 3.135-.843 4.92a.467.467 0 0 0 .173.446h.592z" fill="#ae2e00" transform="translate(123 206)"/></svg>