<svg xmlns="http://www.w3.org/2000/svg" width="32" height="32" viewBox="0 0 32 32"><g transform="translate(-956 -1238)" style="isolation:isolate"><g transform="translate(312 6)"><circle cx="16" cy="16" r="16" transform="translate(644 1232)" fill="#181818"/></g><g transform="translate(-5310.484 -1197.042)"><g transform="translate(6272.483 2441.042)"><g transform="translate(0)"><path d="M19.39,3.212a2.023,2.023,0,0,1,2.022,2.022V19.39a2.022,2.022,0,0,1-2.022,2.022H5.235A2.022,2.022,0,0,1,3.212,19.39V5.235A2.023,2.023,0,0,1,5.235,3.212ZM12.312,5.235a7.078,7.078,0,1,0,7.078,7.078A7.078,7.078,0,0,0,12.312,5.235ZM7.257,12.312,10.29,9.279V11.3h4.044V9.279l3.033,3.033-3.033,3.033V13.324H10.29v2.022Z" transform="translate(-2.212 -2.212)" fill="#fff"/></g></g></g></g></svg>