<svg xmlns="http://www.w3.org/2000/svg" xmlns:xlink="http://www.w3.org/1999/xlink" width="30.368" height="32" viewBox="0 0 30.368 32"><defs><style>.cls-1{clip-rule:evenodd}.cls-2{fill:#ddd}.cls-11,.cls-2,.cls-3,.cls-5,.cls-6,.cls-7,.cls-8,.cls-9{fill-rule:evenodd}.cls-3{fill:#ffaa1c}.cls-4{clip-path:url(#clip-path)}.cls-5{fill:#d31d00}.cls-6{fill:#ff5c11}.cls-7{fill:#fe4309}.cls-8{fill:#fe6e10}.cls-9{fill:#ff7814}.cls-10{clip-path:url(#clip-path-2)}.cls-11{fill:rgba(252,35,0,.44)}</style><clipPath id="clip-path"><path id="Path_10640" data-name="Path 10640" class="cls-1" d="M1006.253,742.487l-4.065-3.568,3.6-5.509a5.092,5.092,0,0,1,1.277,3.362v2.972A5.065,5.065,0,0,1,1006.253,742.487Z" transform="translate(-1002.188 -733.409)"/></clipPath><clipPath id="clip-path-2"><path id="Path_10652" data-name="Path 10652" class="cls-1" d="M211.826,4.761a4.71,4.71,0,1,1,4.71,4.761h0a4.758,4.758,0,0,1-4.71-4.761v0Z" transform="translate(-211.826)"/></clipPath></defs><g id="icon-product-people" transform="translate(0)"><path id="Path_10637" data-name="Path 10637" class="cls-2" d="M23.078,92.07q.235-.023.475-.024a5.012,5.012,0,0,1,3.769,1.743A5.092,5.092,0,0,1,28.6,97.151v2.972q0,.136-.008.271l0,.033q-.015.24-.052.475-.006.041-.014.083-.028.16-.065.316l-.009.035q-.018.071-.037.142l-.011.038a5.046,5.046,0,0,1-.186.534l-.013.032a5.073,5.073,0,0,1-.415.786l-.034.052q-.038.058-.078.115a5.154,5.154,0,0,1-1.085,1.143l-.026.02a5.083,5.083,0,0,1-.606.4,5,5,0,0,1-.806.36l-.079.027-.032.01q-.084.027-.17.051l-.072.02q-.151.04-.3.07l-.063.012q-.167.031-.339.05l-.04,0a4.973,4.973,0,0,1-.5.026h-.1l-.129,0-.128-.008-.125-.011-.079-.008a5.124,5.124,0,0,1-4.491-5.068V97.151a5.1,5.1,0,0,1,.074-.855q.021-.121.048-.24l.007-.032q.011-.049.023-.1.028-.112.061-.222.05-.165.11-.326l.01-.027q.049-.127.1-.251a5.132,5.132,0,0,1,.335-.636q.1-.167.219-.326l.042-.057.025-.033.042-.055.044-.055.029-.035a5.147,5.147,0,0,1,1.362-1.166l.029-.017a4.993,4.993,0,0,1,1.38-.547q.1-.024.211-.044l.067-.012q.134-.023.271-.039l.083-.009ZM3.5,88.517c.17-.125.971-.626,1.2-.745l.128-.064.034-.016q.117-.057.236-.11l.087-.038q.153-.066.31-.126l.056-.021.053-.02a8.322,8.322,0,0,1,.847-.263l.053-.013.118-.028.107-.024q.169-.036.339-.066l.023,0q.175-.03.352-.052l.119-.014.117-.012.056-.005q.338-.031.684-.033h.015a8.145,8.145,0,0,1,1.717.182l1.023.291a8.278,8.278,0,0,1,2.612,1.507h0a8.482,8.482,0,0,1,3.032,6.494q0,.014,0,.027v4.849a6.657,6.657,0,0,0,2.106,4.864h0l.067.064H4.881a4.9,4.9,0,0,1-4.458-2.947A4.863,4.863,0,0,1,0,100.212V95.363a8.6,8.6,0,0,1,2.215-5.674q.071-.079.143-.156a8.661,8.661,0,0,1,.692-.656l.079-.066q.11-.091.223-.179l.152-.115Zm15.354,16.556h0Zm-.06,0h.008l-.018,0Zm-.126-.017.015,0-.03-.005Zm-.034-.006.015,0-.029-.006Zm-.049-.01.031.007-.062-.014Zm-.048-.011.017,0-.026-.006Zm-.01,0h0Zm-.771-.421-.159-.165a1.781,1.781,0,0,0,.9.579h0l.026.007-.026-.007h0a1.767,1.767,0,0,1-.743-.414Zm5.625-20.961c.055,0,.111,0,.168,0a3.312,3.312,0,0,1,3.254,3.7l0,.032q-.01.082-.025.163-.007.041-.016.082l-.008.04q-.027.126-.064.249-.022.072-.047.143a3.322,3.322,0,0,1-.218.49l-.032.058-.013.022a3.362,3.362,0,0,1-.222.335l-.032.041a3.3,3.3,0,0,1-1.8,1.18q-.1.026-.211.045l-.062.011a3.2,3.2,0,0,1-.384.037h-.112a3.316,3.316,0,0,1-3.282-3.318h0a3.334,3.334,0,0,1,1.363-2.679l.058-.042.062-.042.1-.065a3.248,3.248,0,0,1,.882-.379l.079-.02.04-.009.118-.024.049-.009a3.205,3.205,0,0,1,.363-.04ZM8.3,75.135h.03a4.762,4.762,0,0,1,4.553,5.973l-.008.028a4.786,4.786,0,0,1-.863,1.714l-.018.022q-.044.056-.091.11L11.883,83a4.814,4.814,0,0,1-.4.409l-.029.027a4.779,4.779,0,0,1-.726.541l-.1.057a4.652,4.652,0,0,1-1.189.48l-.061.015q-.137.032-.278.056l-.121.019q-.134.019-.27.031l-.119.008-.058,0q-.09,0-.182,0H8.328A4.758,4.758,0,0,1,3.618,79.9v0A4.781,4.781,0,0,1,5.361,76.21l.06-.049q.074-.059.151-.115L5.632,76q.151-.107.31-.2l.041-.024A4.676,4.676,0,0,1,6.8,75.4q.116-.041.235-.076l.062-.018q.087-.024.175-.045l.028-.007q.118-.027.238-.048.084-.015.168-.026.131-.018.263-.028l.089-.006.12-.005.09,0H8.3Z" transform="translate(0 -73.224)"/><g id="Group_17553" data-name="Group 17553" transform="translate(1.77)"><path id="Path_10638" data-name="Path 10638" class="cls-3" d="M1006.253,742.487l-4.065-3.568,3.6-5.509a5.092,5.092,0,0,1,1.277,3.362v2.972A5.065,5.065,0,0,1,1006.253,742.487Z" transform="translate(-978.467 -714.755)"/><g id="Group_17551" data-name="Group 17551" class="cls-4" transform="translate(23.721 18.654)"><path id="Path_10639" data-name="Path 10639" class="cls-5" d="M414.375,518.292l5.692-5.672s2.638,2.45,2.881,3.877-.188,9.248.915,10.971a14.588,14.588,0,0,1,1.373,2.477,2.117,2.117,0,0,0-.534-.324,1.892,1.892,0,0,1-1.333-.567C422.874,528.49,414.375,518.292,414.375,518.292Z" transform="translate(-429.326 -518.237)"/></g><path id="Path_10641" data-name="Path 10641" class="cls-6" d="M818.971,672.132l-4.782-4.2a5.082,5.082,0,0,1,4.613-3.054,5.012,5.012,0,0,1,3.769,1.743Z" transform="translate(-795.249 -647.969)"/><path id="Path_10642" data-name="Path 10642" class="cls-7" d="M806.229,792.733A5.048,5.048,0,0,1,802,795.09a5.112,5.112,0,0,1-5.051-5.1v-2.972a5.043,5.043,0,0,1,.439-2.05Z" transform="translate(-778.443 -765.001)"/><path id="Path_10643" data-name="Path 10643" class="cls-8" d="M879.651,954.94,882.768,950l4.065,3.568a5.048,5.048,0,0,1-4.234,2.357A4.944,4.944,0,0,1,879.651,954.94Z" transform="translate(-859.046 -925.833)"/><path id="Path_10644" data-name="Path 10644" class="cls-3" d="M78.338,517.733l-8.347,8.347a4.863,4.863,0,0,1-.423-1.981V519.25a8.628,8.628,0,0,1,4.028-7.2Z" transform="translate(-69.568 -499.022)"/><path id="Path_10645" data-name="Path 10645" class="cls-8" d="M232.66,468.009l-4.743-5.686a8.331,8.331,0,0,1,4.4-1.3h.015a8.145,8.145,0,0,1,1.717.182l1.023.291A8.277,8.277,0,0,1,237.682,463Z" transform="translate(-223.889 -449.299)"/><path id="Path_10646" data-name="Path 10646" class="cls-5" d="M419.4,538.854a8.482,8.482,0,0,1,3.032,6.494c0,.009,0,.018,0,.027v4.849a6.657,6.657,0,0,0,2.106,4.864,1.767,1.767,0,0,1-1.171-.475l-4.678-5.586-4.311-5.169Z" transform="translate(-405.605 -525.148)"/><path id="Path_10647" data-name="Path 10647" class="cls-9" d="M94.537,735.621l8.831,10.59a1.778,1.778,0,0,0,1.33.64l.067.064H90.648a4.9,4.9,0,0,1-4.458-2.947Z" transform="translate(-85.767 -716.91)"/><path id="Path_10648" data-name="Path 10648" class="cls-3" d="M211.826,4.761a4.71,4.71,0,1,1,4.71,4.761h0a4.758,4.758,0,0,1-4.71-4.761v0Z" transform="translate(-208.208)"/><g id="Group_17552" data-name="Group 17552" class="cls-10" transform="translate(3.618)"><path id="Path_10649" data-name="Path 10649" class="cls-6" d="M121.77,384.761a1.79,1.79,0,0,0,2.872-.167l7.877-12.053-27.447-7.8Z" transform="translate(-107.787 -355.461)"/><path id="Path_10650" data-name="Path 10650" class="cls-5" d="M414.375,518.292l5.692-5.672s2.638,2.45,2.881,3.877-.188,9.248.915,10.971a14.588,14.588,0,0,1,1.373,2.477,2.117,2.117,0,0,0-.534-.324,1.892,1.892,0,0,1-1.333-.567C422.874,528.49,414.375,518.292,414.375,518.292Z" transform="translate(-409.223 -499.582)"/><path id="Path_10651" data-name="Path 10651" class="cls-11" d="M746.048,781.442l10.876,9.548s-4.2,2.62-6.282,2.369a7.665,7.665,0,0,1-5.815-5.636c-.646-3.123-.5-4.738-.179-5.1A16.515,16.515,0,0,1,746.048,781.442Z" transform="translate(-730.829 -761.566)"/></g><path id="Path_10653" data-name="Path 10653" class="cls-8" d="M866.51,337.49a3.279,3.279,0,1,1,3.281,3.316,3.316,3.316,0,0,1-3.281-3.316Z" transform="translate(-846.239 -325.678)"/></g></g></svg>