<svg xmlns="http://www.w3.org/2000/svg" width="32" height="32" viewBox="0 0 32 32"><g transform="translate(-644 -1232)" style="isolation:isolate"><circle cx="16" cy="16" r="16" transform="translate(644 1232)" fill="#181818"/><g transform="translate(650.857 1238.857)"><g transform="translate(0 0)"><path d="M2.636.894A1.738,1.738,0,0,0,.894,2.636v9.578a1.738,1.738,0,0,0,1.741,1.741H4.377V12.214H2.636V2.636h9.578V4.377h1.741V2.636A1.738,1.738,0,0,0,12.214.894ZM7.86,6.119A1.738,1.738,0,0,0,6.119,7.86V9.6H7.86V7.86H9.6V6.119Zm3.483,0V7.86h.871v.871h1.741V6.119Zm4.354,0V7.86h1.741v9.578H7.86V15.7H6.119v1.741A1.738,1.738,0,0,0,7.86,19.18h9.578a1.738,1.738,0,0,0,1.741-1.741V7.86a1.738,1.738,0,0,0-1.741-1.741Zm-3.483,4.354v1.741H10.473v1.741h1.741a1.738,1.738,0,0,0,1.741-1.741V10.473Zm-6.1.871v2.612H8.731V12.214H7.86v-.871Z" transform="translate(-0.894 -0.894)" fill="#fff"/></g></g></g></svg>