<svg xmlns="http://www.w3.org/2000/svg" width="33.674" height="32" viewBox="0 0 33.674 32">
  <path id="icon-product-sales-mono-outline" d="M30.127-134.658a.849.849,0,0,1,.653.206.855.855,0,0,1,.277.613v.311A15.528,15.528,0,0,1,15.534-118,15.538,15.538,0,0,1,0-133.528a15.538,15.538,0,0,1,15.534-15.529,15.618,15.618,0,0,1,4.049.534.584.584,0,0,1,.343.276.553.553,0,0,1,.033.439c-.907,2.665-4.78,14.08-4.78,14.08a.464.464,0,0,0,.066.433.467.467,0,0,0,.409.169ZM16.164-146.021c-.21-.012-.42-.018-.631-.018A12.52,12.52,0,0,0,3.02-133.528a12.52,12.52,0,0,0,12.513,12.511,12.519,12.519,0,0,0,12.325-10.366l-11.883,1.258a3.482,3.482,0,0,1-3.087-1.286,3.514,3.514,0,0,1-.575-3.287Zm7.413-3.455a.762.762,0,0,1,.42-.457.773.773,0,0,1,.62,0,15.58,15.58,0,0,1,9.05,11.569.473.473,0,0,1-.1.379.47.47,0,0,1-.343.191c-2.224.237-11.042,1.171-13.5,1.429a.4.4,0,0,1-.354-.15.4.4,0,0,1-.066-.386C20.059-139.142,22.725-146.975,23.577-149.477Z" transform="translate(0 150)" fill-rule="evenodd"/>
</svg>
