<svg xmlns="http://www.w3.org/2000/svg" xmlns:xlink="http://www.w3.org/1999/xlink" width="22.805" height="22.75" viewBox="0 0 22.805 22.75">
  <defs>
    <clipPath id="clip-path">
      <path id="Path_9522" data-name="Path 9522" d="M37.8-290.054a.575.575,0,0,1,.441.141.575.575,0,0,1,.194.42q0,.11,0,.22a10.732,10.732,0,0,1-10.727,10.727,10.732,10.732,0,0,1-10.727-10.727A10.732,10.732,0,0,1,27.707-300a10.725,10.725,0,0,1,2.8.37.382.382,0,0,1,.235.189.382.382,0,0,1,.024.3c-.623,1.835-3.306,9.729-3.306,9.729a.316.316,0,0,0,.052.3.316.316,0,0,0,.28.117Zm-6.27-8.871a.529.529,0,0,1,.286-.313.529.529,0,0,1,.424,0,10.755,10.755,0,0,1,6.256,8,.338.338,0,0,1-.064.26.338.338,0,0,1-.233.131l-9.329.988a.279.279,0,0,1-.248-.1.279.279,0,0,1-.046-.264Z" transform="translate(-16.981 300)" fill="none" clip-rule="evenodd"/>
    </clipPath>
  </defs>
  <g id="icon-product-sales-default" style="isolation: isolate">
    <g id="Group_15700" data-name="Group 15700" transform="translate(0 300)">
      <path id="Path_9515" data-name="Path 9515" d="M20.817-272.959a.575.575,0,0,1,.441.141.575.575,0,0,1,.194.42q0,.11,0,.22c0,2.22.142,3.556-1.015,5.269a22.557,22.557,0,0,1-2.4,2.578,10.688,10.688,0,0,1-7.311,2.88A10.732,10.732,0,0,1,0-272.178a10.692,10.692,0,0,1,3.072-7.512,15.087,15.087,0,0,1,2.415-2.219c1.6-.954,3.24-1,5.239-1a10.726,10.726,0,0,1,2.8.37.382.382,0,0,1,.235.189.382.382,0,0,1,.024.3c-.623,1.835-3.306,9.729-3.306,9.729a.316.316,0,0,0,.052.3.316.316,0,0,0,.28.117Z" transform="translate(0 -15.799)" fill="#ddd" fill-rule="evenodd" opacity="0.904" style="mix-blend-mode: multiply;isolation: isolate"/>
      <path id="Path_9516" data-name="Path 9516" d="M37.8-290.054a.575.575,0,0,1,.441.141.575.575,0,0,1,.194.42q0,.11,0,.22a10.732,10.732,0,0,1-10.727,10.727,10.732,10.732,0,0,1-10.727-10.727A10.732,10.732,0,0,1,27.707-300a10.725,10.725,0,0,1,2.8.37.382.382,0,0,1,.235.189.382.382,0,0,1,.024.3c-.623,1.835-3.306,9.729-3.306,9.729a.316.316,0,0,0,.052.3.316.316,0,0,0,.28.117Zm-6.27-8.871a.529.529,0,0,1,.286-.313.529.529,0,0,1,.424,0,10.755,10.755,0,0,1,6.256,8,.338.338,0,0,1-.064.26.338.338,0,0,1-.233.131l-9.329.988a.279.279,0,0,1-.248-.1.279.279,0,0,1-.046-.264Z" transform="translate(-15.693)" fill="#1aaf5c" fill-rule="evenodd"/>
      <g id="Group_15699" data-name="Group 15699" transform="translate(1.288 -300)" clip-path="url(#clip-path)" style="isolation: isolate">
        <path id="Path_9517" data-name="Path 9517" d="M163.769-301.976l-3.533,10.771,11.731-1.286s-2-5.625-3.725-7.257A10.809,10.809,0,0,0,163.769-301.976Z" transform="translate(-149.372 301.826)" fill="#117940" fill-rule="evenodd"/>
        <path id="Path_9518" data-name="Path 9518" d="M18.747-186.234,20.3-175.159-9.788-170.93-11.4-182.372Z" transform="translate(9.244 194.861)" fill="#1fe762" fill-rule="evenodd"/>
        <path id="Path_9519" data-name="Path 9519" d="M102.486-383.534l-11.243,4.311-4.956-12.9L80.365-407.6l11.615-4.453Z" transform="translate(-75.558 403.552)" fill="rgba(7,86,34,0.29)" fill-rule="evenodd"/>
        <path id="Path_9520" data-name="Path 9520" d="M73.388-156.721l-6.749,10.995,11.059.184Z" transform="translate(-62.873 167.586)" fill="#85f6ac" fill-rule="evenodd"/>
        <path id="Path_9521" data-name="Path 9521" d="M168.024-227.2l9.7-5.04s1.632,3.6,1.176,4.152S168.024-227.2,168.024-227.2Z" transform="translate(-156.57 237.379)" fill="#0b552a" fill-rule="evenodd"/>
      </g>
    </g>
  </g>
</svg>
