<svg xmlns="http://www.w3.org/2000/svg" xmlns:xlink="http://www.w3.org/1999/xlink" width="38" height="38" viewBox="0 0 38 38">
  <defs>
    <style>
      .cls-1 {
        fill: none;
        clip-rule: evenodd;
      }

      .cls-11, .cls-2, .cls-4, .cls-6 {
        isolation: isolate;
      }

      .cls-3, .cls-9 {
        fill: #fff;
      }

      .cls-4 {
        fill: #ddd;
        opacity: 0.9;
        mix-blend-mode: multiply;
      }

      .cls-10, .cls-12, .cls-4, .cls-5, .cls-7, .cls-8, .cls-9 {
        fill-rule: evenodd;
      }

      .cls-5 {
        fill: #008bcc;
      }

      .cls-6 {
        clip-path: url(#clip-path);
      }

      .cls-7 {
        fill: #0074cc;
      }

      .cls-8 {
        fill: rgba(87,6,187,0.14);
      }

      .cls-10 {
        fill: #37b5e1;
      }

      .cls-11 {
        clip-path: url(#clip-path-2);
      }

      .cls-12 {
        fill: #35ccff;
      }
    </style>
    <clipPath id="clip-path">
      <path id="Path_9507" data-name="Path 9507" class="cls-1" d="M34.647-293.691,28.146-300H19.3a1.521,1.521,0,0,0-1.52,1.521v18.316a1.521,1.521,0,0,0,1.52,1.521h13.83a1.521,1.521,0,0,0,1.521-1.521Z" transform="translate(-17.776 300)"/>
    </clipPath>
    <clipPath id="clip-path-2">
      <path id="Path_9514" data-name="Path 9514" class="cls-1" d="M161.781-293.66l-6.464-6.332v4.747a1.583,1.583,0,0,0,.464,1.121,1.582,1.582,0,0,0,1.12.463Z" transform="translate(-155.317 299.992)"/>
    </clipPath>
  </defs>
  <g id="icon-product-books-circle" class="cls-2" transform="translate(-289 -1279)">
    <circle id="Ellipse_127" data-name="Ellipse 127" class="cls-3" cx="19" cy="19" r="19" transform="translate(289 1279)"/>
    <g id="icon-product-books" class="cls-2" transform="translate(298 1286)">
      <g id="Group_15697" data-name="Group 15697" transform="translate(0 300)">
        <path id="Path_9503" data-name="Path 9503" class="cls-4" d="M16.871-275.943l-6.5-6.309H1.52A1.521,1.521,0,0,0,0-280.731v18.316a1.521,1.521,0,0,0,1.52,1.521H15.35a1.521,1.521,0,0,0,1.52-1.521Z" transform="translate(0 -16.405)"/>
        <path id="Path_9504" data-name="Path 9504" class="cls-5" d="M34.647-293.691,28.146-300H19.3a1.521,1.521,0,0,0-1.52,1.521v18.316a1.521,1.521,0,0,0,1.52,1.521h13.83a1.521,1.521,0,0,0,1.521-1.521Z" transform="translate(-16.431)"/>
        <g id="Group_15697-2" data-name="Group 15697" class="cls-6" transform="translate(1.345 -300)">
          <path id="Path_9505" data-name="Path 9505" class="cls-7" d="M31.308-215.437,48.3-231.774l.229,16.24Z" transform="translate(-30.284 236.936)"/>
          <path id="Path_9506" data-name="Path 9506" class="cls-8" d="M5.013-310.766l18.95,19.385v3.394H4.874Z" transform="translate(-5.85 309.951)"/>
        </g>
        <path id="Path_9508" data-name="Path 9508" class="cls-9" d="M62.24-175.67a.716.716,0,0,0-.752-.672H51.042a.716.716,0,0,0-.752.672.716.716,0,0,0,.752.672H61.488A.716.716,0,0,0,62.24-175.67Z" transform="translate(-46.484 -114.301)"/>
        <path id="Path_9509" data-name="Path 9509" class="cls-3" d="M51.359-250.478a1.057,1.057,0,0,0,1.08-1.131,1.047,1.047,0,0,0-1.08-1.131,1.051,1.051,0,0,0-1.069,1.131A1.054,1.054,0,0,0,51.359-250.478Zm3.184,1.934a1.057,1.057,0,0,0,1.08-1.131,1.047,1.047,0,0,0-1.08-1.131,1.051,1.051,0,0,0-1.069,1.131A1.054,1.054,0,0,0,54.543-248.544Zm-2.991-.156h.574l2.184-3.861h-.574Z" transform="translate(-46.484 -43.684)"/>
        <path id="Path_9510" data-name="Path 9510" class="cls-9" d="M62.24-128.881a.716.716,0,0,0-.752-.672H51.042a.716.716,0,0,0-.752.672.716.716,0,0,0,.752.672H61.488A.716.716,0,0,0,62.24-128.881Z" transform="translate(-46.484 -157.55)"/>
        <path id="Path_9511" data-name="Path 9511" class="cls-9" d="M57.252-82.092a.716.716,0,0,0-.753-.672H51.042a.716.716,0,0,0-.753.672.716.716,0,0,0,.753.672H56.5A.716.716,0,0,0,57.252-82.092Z" transform="translate(-46.484 -200.799)"/>
        <path id="Path_9512" data-name="Path 9512" class="cls-10" d="M161.781-293.66l-6.464-6.332v4.747a1.583,1.583,0,0,0,.464,1.121,1.582,1.582,0,0,0,1.12.463Z" transform="translate(-143.565 -0.007)"/>
        <g id="Group_15698" data-name="Group 15698" class="cls-11" transform="translate(11.752 -299.999)">
          <path id="Path_9513" data-name="Path 9513" class="cls-12" d="M156.739-306.522l-3.7-3.589v7.952Z" transform="translate(-153.211 309.345)"/>
        </g>
      </g>
    </g>
  </g>
</svg>
