<svg id="icon-product-books" xmlns="http://www.w3.org/2000/svg" xmlns:xlink="http://www.w3.org/1999/xlink" width="26.182" height="32" viewBox="0 0 26.182 32"><defs><style>.cls-1{clip-rule:evenodd}.cls-2{fill:#ddd}.cls-10,.cls-2,.cls-3,.cls-5,.cls-6,.cls-7,.cls-9{fill-rule:evenodd}.cls-3{fill:#018bcc}.cls-4{clip-path:url(#clip-path)}.cls-5{fill:#0175cc}.cls-6{fill:rgba(88,7,188,.14)}.cls-7,.cls-8{fill:#fff}.cls-9{fill:#37b6e1}.cls-10{fill:#36ccff}</style><clipPath id="clip-path"><path id="Path_10630" data-name="Path 10630" class="cls-1" d="M111.33,8.894,101.094,0H89.78a2.28,2.28,0,0,0-2.394,2.144V27.963a2.28,2.28,0,0,0,2.394,2.144h19.156a2.28,2.28,0,0,0,2.394-2.144V8.894Z" transform="translate(-87.386)"/></clipPath></defs><path id="Path_10626" data-name="Path 10626" class="cls-2" d="M23.944,82.842,13.708,73.948H2.394A2.28,2.28,0,0,0,0,76.092v25.819a2.28,2.28,0,0,0,2.394,2.144H21.55a2.28,2.28,0,0,0,2.394-2.144V82.842Z" transform="translate(0 -72.055)"/><path id="Path_10627" data-name="Path 10627" class="cls-3" d="M111.33,8.894,101.094,0H89.78a2.28,2.28,0,0,0-2.394,2.144V27.963a2.28,2.28,0,0,0,2.394,2.144h19.156a2.28,2.28,0,0,0,2.394-2.144V8.894Z" transform="translate(-85.149)"/><g id="Group_17549" data-name="Group 17549" class="cls-4" transform="translate(2.237)"><path id="Path_10628" data-name="Path 10628" class="cls-5" d="M149.768,324.978l.661.575v19.069a2.175,2.175,0,0,1-1.595,2.021l-20.173.114a2.558,2.558,0,0,1-1.15-.375Z" transform="translate(-126.485 -316.659)"/><path id="Path_10629" data-name="Path 10629" class="cls-6" d="M88.306,17.856l23.028,20.615v6.891a2.28,2.28,0,0,1-2.394,2.144H89.783a2.28,2.28,0,0,1-2.394-2.144V19.543a2.069,2.069,0,0,1,.917-1.687Z" transform="translate(-87.389 -17.399)"/></g><path id="Path_10631" data-name="Path 10631" class="cls-7" d="M243.856,491.593a1.007,1.007,0,0,0-1.057-.947H228.121a.953.953,0,1,0,0,1.894H242.8A1.007,1.007,0,0,0,243.856,491.593Z" transform="translate(-221.251 -478.085)"/><path id="Path_10632" data-name="Path 10632" class="cls-8" d="M226.761,198.574a1.6,1.6,0,1,0-1.684-1.594A1.577,1.577,0,0,0,226.761,198.574Zm5.014,2.726a1.6,1.6,0,1,0-1.684-1.594A1.577,1.577,0,0,0,231.776,201.3Zm-4.71-.22h.9l3.439-5.443h-.9Z" transform="translate(-219.316 -190.383)"/><path id="Path_10633" data-name="Path 10633" class="cls-7" d="M243.856,686.548a1.007,1.007,0,0,0-1.057-.947H228.121a.953.953,0,1,0,0,1.894H242.8A1.007,1.007,0,0,0,243.856,686.548Z" transform="translate(-221.251 -668.05)"/><path id="Path_10634" data-name="Path 10634" class="cls-7" d="M236.825,881.5a1.007,1.007,0,0,0-1.058-.947H228.1a.953.953,0,1,0,0,1.894h7.668A1.007,1.007,0,0,0,236.825,881.5Z" transform="translate(-221.229 -858.014)"/><g id="Group_17550" data-name="Group 17550" transform="translate(16.004 0.001)"><path id="Path_10635" data-name="Path 10635" class="cls-9" d="M675.385,174.523l5.084,4.459h-7.684a2.689,2.689,0,0,1-1.308-.334Z" transform="translate(-670.291 -170.056)"/><path id="Path_10636" data-name="Path 10636" class="cls-10" d="M630.243,4.5l-3.908,4.125a2.312,2.312,0,0,1-.456-.32,2.12,2.12,0,0,1-.73-1.58V.033L630.243,4.5Z" transform="translate(-625.149 -0.033)"/></g></svg>