<svg height="24" viewBox="0 0 23.795 24" width="23.795" xmlns="http://www.w3.org/2000/svg"><path d="m15.716-130.08v-2.377a4.1 4.1 0 0 1 4.043-4.083 4.092 4.092 0 0 1 4.035 4.083v2.377a4.089 4.089 0 0 1 -4.034 4.08 4.094 4.094 0 0 1 -4.044-4.08zm-11.808 4.08a3.95 3.95 0 0 1 -3.908-3.942v-3.879a6.861 6.861 0 0 1 6.739-6.8h.017a6.779 6.779 0 0 1 6.705 6.778v3.9a5.312 5.312 0 0 0 1.739 3.943zm13.232-14.619a2.645 2.645 0 0 1 2.619-2.649 2.646 2.646 0 0 1 2.619 2.649 2.648 2.648 0 0 1 -2.619 2.652 2.654 2.654 0 0 1 -2.628-2.653zm-10.429-9.381a3.8 3.8 0 0 1 3.715 3.808 3.8 3.8 0 0 1 -3.764 3.808 3.808 3.808 0 0 1 -3.772-3.759v-.049a3.809 3.809 0 0 1 3.773-3.808z" fill="#fff" fill-rule="evenodd" transform="translate(0 150)"/></svg>