<svg xmlns="http://www.w3.org/2000/svg" width="25.6" height="32" viewBox="0 0 25.6 32">
  <path id="icon-product-books-outline" d="M6.4-126.93a.671.671,0,0,1,.67-.67H18.53a.671.671,0,0,1,.67.67v1.859a.671.671,0,0,1-.67.67H7.07a.671.671,0,0,1-.67-.67Zm0-6.4a.666.666,0,0,1,.2-.47.666.666,0,0,1,.47-.2H18.53a.671.671,0,0,1,.67.67v1.859a.671.671,0,0,1-.67.67H7.078a.685.685,0,0,1-.48-.2.685.685,0,0,1-.2-.48ZM16-150H3.2A3.209,3.209,0,0,0,0-146.8v25.6A3.2,3.2,0,0,0,3.184-118H22.4a3.209,3.209,0,0,0,3.2-3.2v-19.2Zm6.543,28.973H3.058v-25.915H14.4v7.024a1.119,1.119,0,0,0,.328.791,1.119,1.119,0,0,0,.79.328h7.024Z" transform="translate(0 150)" fill="#3756d5"/>
</svg>
