<svg xmlns="http://www.w3.org/2000/svg" xmlns:xlink="http://www.w3.org/1999/xlink" width="38" height="38" viewBox="0 0 38 38">
  <defs>
    <style>
      .cls-1 {
        fill: none;
      }

      .cls-2, .cls-4, .cls-6 {
        isolation: isolate;
      }

      .cls-3 {
        fill: #fff;
      }

      .cls-4 {
        fill: #ddd;
        opacity: 0.9;
        mix-blend-mode: multiply;
      }

      .cls-5 {
        fill: #ffaa1b;
      }

      .cls-6 {
        clip-path: url(#clip-path);
      }

      .cls-7 {
        fill: #ff5b11;
      }

      .cls-10, .cls-7, .cls-8, .cls-9 {
        fill-rule: evenodd;
      }

      .cls-8 {
        fill: rgba(255,27,46,0.33);
      }

      .cls-9 {
        fill: #d31c00;
      }

      .cls-10 {
        fill: rgba(251,34,0,0.44);
      }
    </style>
    <clipPath id="clip-path">
      <path id="Path_9530" data-name="Path 9530" class="cls-1" d="M31.572-282.12v-2.127a3.661,3.661,0,0,1,3.615-3.653,3.66,3.66,0,0,1,3.611,3.653v2.127a3.657,3.657,0,0,1-3.611,3.65A3.658,3.658,0,0,1,31.572-282.12Zm-9.746,3.589a3.531,3.531,0,0,1-3.492-3.526v-3.47a6.139,6.139,0,0,1,6.029-6.083h.011a6.06,6.06,0,0,1,6,6.064v3.489a4.769,4.769,0,0,0,1.555,3.526Zm11.013-13.018a2.372,2.372,0,0,1,2.347-2.37,2.371,2.371,0,0,1,2.345,2.37,2.372,2.372,0,0,1-2.345,2.373,2.373,2.373,0,0,1-2.348-2.374Zm-11.916-5.046A3.4,3.4,0,0,1,24.293-300a3.4,3.4,0,0,1,3.37,3.406,3.4,3.4,0,0,1-3.37,3.406h0a3.4,3.4,0,0,1-3.37-3.406v0Z" transform="translate(-18.334 300)"/>
    </clipPath>
  </defs>
  <g id="icon-product-people-circle" class="cls-2" transform="translate(-388 -1279)">
    <circle id="Ellipse_129" data-name="Ellipse 129" class="cls-3" cx="19" cy="19" r="19" transform="translate(388 1279)"/>
    <g id="icon-product-people" class="cls-2" transform="translate(396 1286)">
      <g id="Group_15702" data-name="Group 15702" transform="translate(0 300)">
        <path id="Path_9523" data-name="Path 9523" class="cls-4" d="M13.238-279.322v-2.127a3.679,3.679,0,0,1,1.393-2.867c.508-.4,1.34-1.178,1.34-1.178s1.64-.475,1.785-.476c1.979.007,2.7,2.521,2.709,4.521v2.127c0,.7,1.018.551.557,1.022-.076.078-.175.293-.279.387a10.708,10.708,0,0,1-3.036,2.135,3.543,3.543,0,0,1-.853.106A3.658,3.658,0,0,1,13.238-279.322Zm-9.746,3.59A3.531,3.531,0,0,1,0-279.259v-3.47a6.155,6.155,0,0,1,1.665-4.148c1.1-1.178,3.343-2.716,5.054-2.73,0,0-.362.69-.358.69a5.888,5.888,0,0,1,5.678,6.169v3.489c0,1.21,2.132,1.43,2.945,2.3h0l-1.429,1.221Zm11.085-13.3a2.376,2.376,0,0,1,.575-1.546,8.272,8.272,0,0,1,2.336-1.625c1.183-.5,1.779,1.872,1.78,3.171,0,.333.834.56.6.769a5.4,5.4,0,0,1-2.944,1.6,2.372,2.372,0,0,1-2.348-2.374Zm-12.06-4.9a3.416,3.416,0,0,1,1.072-2.482,22.774,22.774,0,0,1,2.185-1.6s1.176-.272,1.2-.272c1.849,0,.439,4.217,2.283,4.354,1.574.116.328.521.15,1.623A17.582,17.582,0,0,1,7.188-290.9a2.9,2.9,0,0,1-1.372.3h0a3.283,3.283,0,0,1-3.3-3.335v0Z" transform="translate(0 -1.578)"/>
        <path id="Path_9524" data-name="Path 9524" class="cls-5" d="M31.572-282.12v-2.127a3.661,3.661,0,0,1,3.615-3.653,3.66,3.66,0,0,1,3.611,3.653v2.127a3.657,3.657,0,0,1-3.611,3.65A3.658,3.658,0,0,1,31.572-282.12Zm-9.746,3.589a3.531,3.531,0,0,1-3.492-3.526v-3.47a6.139,6.139,0,0,1,6.029-6.083h.011a6.06,6.06,0,0,1,6,6.064v3.489a4.769,4.769,0,0,0,1.555,3.526Zm11.013-13.018a2.372,2.372,0,0,1,2.347-2.37,2.371,2.371,0,0,1,2.345,2.37,2.372,2.372,0,0,1-2.345,2.373,2.373,2.373,0,0,1-2.348-2.374Zm-11.916-5.046A3.4,3.4,0,0,1,24.293-300a3.4,3.4,0,0,1,3.37,3.406,3.4,3.4,0,0,1-3.37,3.406h0a3.4,3.4,0,0,1-3.37-3.406v0Z" transform="translate(-16.943 0)"/>
        <g id="Group_15701" data-name="Group 15701" class="cls-6" transform="translate(1.39 -300)">
          <path id="Path_9525" data-name="Path 9525" class="cls-7" d="M38.8-198.136a1.28,1.28,0,0,0,1.058.458,1.281,1.281,0,0,0,1-.578l5.636-8.624-19.64-5.583Z" transform="translate(-26.208 219.101)"/>
          <path id="Path_9526" data-name="Path 9526" class="cls-8" d="M21.561-184.785,10-173.227s.06,2.288,6.231,2.318a65.509,65.509,0,0,0,9.271-.451s-1.836-1.565-1.836-2.769-.271-5.418-.271-6.351S21.561-184.785,21.561-184.785Z" transform="translate(-10.635 193.522)"/>
          <path id="Path_9527" data-name="Path 9527" class="cls-9" d="M101.087-172.913l4.073-4.058s1.888,1.753,2.061,2.774-.135,6.617.655,7.85a10.439,10.439,0,0,1,.982,1.772,1.516,1.516,0,0,0-.382-.232,1.354,1.354,0,0,1-.954-.406C107.168-165.616,101.087-172.913,101.087-172.913Z" transform="translate(-94.812 186.301)"/>
          <path id="Path_9528" data-name="Path 9528" class="cls-10" d="M181.485-112.454l7.782,6.832s-3.005,1.875-4.495,1.7a5.485,5.485,0,0,1-4.161-4.032c-.462-2.235-.36-3.39-.128-3.647A11.813,11.813,0,0,1,181.485-112.454Z" transform="translate(-168.006 126.676)"/>
          <path id="Path_9529" data-name="Path 9529" class="cls-10" d="M205.656-239.047a3.4,3.4,0,0,1,3.4,3.4,3.4,3.4,0,0,1-3.4,3.4,3.4,3.4,0,0,1-3.4-3.4A3.4,3.4,0,0,1,205.656-239.047Z" transform="translate(-188.308 243.669)"/>
        </g>
      </g>
    </g>
  </g>
</svg>
