<svg xmlns="http://www.w3.org/2000/svg" width="17.949" height="23.449" viewBox="0 0 17.949 23.449"><defs><style>.a{isolation:isolate;}.b{fill:#fff;}</style></defs><g class="a"><path class="b" d="M7.592,22.882V19.828L0,10.989V9.326a.573.573,0,0,1,.574-.571h16.8a.577.577,0,0,1,.574.571v1.662l-7.593,8.84v2.4a.555.555,0,0,1-.358.529l-1.611.655a.644.644,0,0,1-.221.042A.573.573,0,0,1,7.592,22.882ZM1.118,11.315H16.831v-.65H1.118ZM3.489,6.8a3.087,3.087,0,0,1-.143-.94,3.276,3.276,0,0,1,6.552,0,3.148,3.148,0,0,1-.143.94Zm7.354-4.915a1.9,1.9,0,0,1,3.809,0,1.9,1.9,0,0,1-3.809,0Z"/></g></svg>