<svg xmlns="http://www.w3.org/2000/svg" width="18" height="18" viewBox="0 0 18 18"><defs><style>.a{fill:#fff;}</style></defs><path class="a" d="M2.609.894A1.711,1.711,0,0,0,.894,2.609v9.429a1.711,1.711,0,0,0,1.714,1.714H4.323V12.037H2.609V2.609h9.429V4.323h1.714V2.609A1.711,1.711,0,0,0,12.037.894ZM7.751,6.037A1.711,1.711,0,0,0,6.037,7.751V9.466H7.751V7.751H9.466V6.037Zm3.429,0V7.751h.857v.857h1.714V6.037Zm4.286,0V7.751H17.18V17.18H7.751V15.466H6.037V17.18a1.711,1.711,0,0,0,1.714,1.714H17.18a1.711,1.711,0,0,0,1.714-1.714V7.751A1.711,1.711,0,0,0,17.18,6.037Zm-3.429,4.286v1.714H10.323v1.714h1.714a1.711,1.711,0,0,0,1.714-1.714V10.323Zm-6,.857v2.571H8.609V12.037H7.751V11.18Z" transform="translate(-0.894 -0.894)"/></svg>