<svg xmlns="http://www.w3.org/2000/svg" xmlns:xlink="http://www.w3.org/1999/xlink" width="18.216" height="22.7" viewBox="0 0 18.216 22.7">
  <defs>
    <clipPath id="clip-path">
      <path id="Path_9507" data-name="Path 9507" d="M34.647-293.691,28.146-300H19.3a1.521,1.521,0,0,0-1.52,1.521v18.316a1.521,1.521,0,0,0,1.52,1.521h13.83a1.521,1.521,0,0,0,1.521-1.521Z" transform="translate(-17.776 300)" fill="none" clip-rule="evenodd"/>
    </clipPath>
    <clipPath id="clip-path-2">
      <path id="Path_9514" data-name="Path 9514" d="M161.781-293.66l-6.464-6.332v4.747a1.583,1.583,0,0,0,.464,1.121,1.582,1.582,0,0,0,1.12.463Z" transform="translate(-155.317 299.992)" fill="none" clip-rule="evenodd"/>
    </clipPath>
  </defs>
  <g id="icon-product-books-default" style="isolation: isolate">
    <g id="Group_15697" data-name="Group 15697" transform="translate(0 300)">
      <path id="Path_9503" data-name="Path 9503" d="M16.871-275.943l-6.5-6.309H1.52A1.521,1.521,0,0,0,0-280.731v18.316a1.521,1.521,0,0,0,1.52,1.521H15.35a1.521,1.521,0,0,0,1.52-1.521Z" transform="translate(0 -16.405)" fill="#ddd" fill-rule="evenodd" opacity="0.9" style="mix-blend-mode: multiply;isolation: isolate"/>
      <path id="Path_9504" data-name="Path 9504" d="M34.647-293.691,28.146-300H19.3a1.521,1.521,0,0,0-1.52,1.521v18.316a1.521,1.521,0,0,0,1.52,1.521h13.83a1.521,1.521,0,0,0,1.521-1.521Z" transform="translate(-16.431)" fill="#008bcc" fill-rule="evenodd"/>
      <g id="Group_15697-2" data-name="Group 15697" transform="translate(1.345 -300)" clip-path="url(#clip-path)" style="isolation: isolate">
        <path id="Path_9505" data-name="Path 9505" d="M31.308-215.437,48.3-231.774l.229,16.24Z" transform="translate(-30.284 236.936)" fill="#0074cc" fill-rule="evenodd"/>
        <path id="Path_9506" data-name="Path 9506" d="M5.013-310.766l18.95,19.385v3.394H4.874Z" transform="translate(-5.85 309.951)" fill="rgba(87,6,187,0.14)" fill-rule="evenodd"/>
      </g>
      <path id="Path_9508" data-name="Path 9508" d="M62.24-175.67a.716.716,0,0,0-.752-.672H51.042a.716.716,0,0,0-.752.672.716.716,0,0,0,.752.672H61.488A.716.716,0,0,0,62.24-175.67Z" transform="translate(-46.484 -114.301)" fill="#fff" fill-rule="evenodd"/>
      <path id="Path_9509" data-name="Path 9509" d="M51.359-250.478a1.057,1.057,0,0,0,1.08-1.131,1.047,1.047,0,0,0-1.08-1.131,1.051,1.051,0,0,0-1.069,1.131A1.054,1.054,0,0,0,51.359-250.478Zm3.184,1.934a1.057,1.057,0,0,0,1.08-1.131,1.047,1.047,0,0,0-1.08-1.131,1.051,1.051,0,0,0-1.069,1.131A1.054,1.054,0,0,0,54.543-248.544Zm-2.991-.156h.574l2.184-3.861h-.574Z" transform="translate(-46.484 -43.684)" fill="#fff"/>
      <path id="Path_9510" data-name="Path 9510" d="M62.24-128.881a.716.716,0,0,0-.752-.672H51.042a.716.716,0,0,0-.752.672.716.716,0,0,0,.752.672H61.488A.716.716,0,0,0,62.24-128.881Z" transform="translate(-46.484 -157.55)" fill="#fff" fill-rule="evenodd"/>
      <path id="Path_9511" data-name="Path 9511" d="M57.252-82.092a.716.716,0,0,0-.753-.672H51.042a.716.716,0,0,0-.753.672.716.716,0,0,0,.753.672H56.5A.716.716,0,0,0,57.252-82.092Z" transform="translate(-46.484 -200.799)" fill="#fff" fill-rule="evenodd"/>
      <path id="Path_9512" data-name="Path 9512" d="M161.781-293.66l-6.464-6.332v4.747a1.583,1.583,0,0,0,.464,1.121,1.582,1.582,0,0,0,1.12.463Z" transform="translate(-143.565 -0.007)" fill="#37b5e1" fill-rule="evenodd"/>
      <g id="Group_15698" data-name="Group 15698" transform="translate(11.752 -299.999)" clip-path="url(#clip-path-2)" style="isolation: isolate">
        <path id="Path_9513" data-name="Path 9513" d="M156.739-306.522l-3.7-3.589v7.952Z" transform="translate(-153.211 309.345)" fill="#35ccff" fill-rule="evenodd"/>
      </g>
    </g>
  </g>
</svg>
