<svg xmlns="http://www.w3.org/2000/svg" width="17.067" height="22.75" viewBox="0 0 17.067 22.75"><defs><style>.a{isolation:isolate;}.b{fill:#fff;fill-rule:evenodd;}</style></defs><g class="a"><g transform="translate(-420.999 -410.988)"><path class="b" d="M454.78,410.988h-.445v5.673h5.682v-.271a1.055,1.055,0,0,0-.3-.746l-4.356-4.356A1.024,1.024,0,0,0,454.78,410.988Z" transform="translate(-21.951 0)"/><path class="b" d="M430.961,417.019v-6.031H421.89a1.072,1.072,0,0,0-.891,1.055v20.63a1.075,1.075,0,0,0,1.065,1.065H437a1.068,1.068,0,0,0,1.065-1.065V418.084h-6.041A1.062,1.062,0,0,1,430.961,417.019Zm3.485,8.229H433.3v.794a1.622,1.622,0,0,0-1.365,1.578,1.49,1.49,0,0,0,1.191,1.452c.562.184,1.2.406,1.2.861a.468.468,0,0,1-.484.455.512.512,0,0,1-.5-.552H431.89a1.56,1.56,0,0,0,1.414,1.549v.794h1.142v-.794a1.735,1.735,0,0,0,1.346-1.616,1.606,1.606,0,0,0-1.258-1.491c-.746-.271-1.142-.406-1.142-.813a.432.432,0,0,1,.455-.436.465.465,0,0,1,.474.494h1.317a1.416,1.416,0,0,0-1.191-1.481Zm-6.457,1.617h-1.317v1.413h-1.355v1.229h1.355v1.423h1.317v-1.423h1.365v-1.229h-1.365Zm7.968-4.937H423.11v1.646h12.846Zm-5.363-3.078h-4.047v1.646h4.047Zm-5.625,0H423.11v1.646h1.859Z" transform="translate(0 0)"/></g></g></svg>