<svg xmlns="http://www.w3.org/2000/svg" width="33.663" height="32" viewBox="0 0 33.663 32">
  <path id="icon-product-sales-mono-fill" d="M30.127-134.658a.838.838,0,0,1,.642.206.867.867,0,0,1,.288.613v.311A15.538,15.538,0,0,1,15.523-118,15.535,15.535,0,0,1,0-133.528a15.536,15.536,0,0,1,15.523-15.529,15.492,15.492,0,0,1,4.049.534.526.526,0,0,1,.343.276.555.555,0,0,1,.044.439c-.907,2.665-4.791,14.08-4.791,14.08a.468.468,0,0,0,.077.433.467.467,0,0,0,.409.169Zm-6.55-14.819a.744.744,0,0,1,.409-.457.774.774,0,0,1,.62,0,15.58,15.58,0,0,1,9.05,11.569.512.512,0,0,1-.089.379.515.515,0,0,1-.343.191l-13.5,1.429a.423.423,0,0,1-.365-.15.436.436,0,0,1-.066-.386C20.059-139.142,22.725-146.975,23.577-149.477Z" transform="translate(0 150)" fill-rule="evenodd"/>
</svg>
