<svg xmlns="http://www.w3.org/2000/svg" width="24" height="24" viewBox="0 0 24 24"><defs><style>.a{isolation:isolate;}.b{fill:none;}.c{fill:#0e1317;fill-rule:evenodd;}</style></defs><g class="a"><rect class="b" width="24" height="24"/><g transform="translate(0 -0.104)"><path class="c" d="M6,16a6,6,0,0,1,12,0v6a1,1,0,0,1-2,0V16a4,4,0,0,0-8,0v6a1,1,0,0,1-2,0Z"/><path class="c" d="M12,2a1,1,0,0,1,1,1v8a1,1,0,0,1-2,0V3A1,1,0,0,1,12,2Z"/><path class="c" d="M15.71,5.71a1,1,0,0,1-1.42,0L12,3.41,9.71,5.71A1,1,0,1,1,8.29,4.29l2.65-2.64a1.49,1.49,0,0,1,2.12,0l2.65,2.64a1,1,0,0,1,0,1.42Z"/></g></g></svg>