<svg height="24" viewBox="0 0 25.247 24" width="25.247" xmlns="http://www.w3.org/2000/svg"><path d="m22.6-138.493a.628.628 0 0 1 .481.154.65.65 0 0 1 .216.46v.233a11.653 11.653 0 0 1 -11.655 11.646 11.651 11.651 0 0 1 -11.642-11.646 11.652 11.652 0 0 1 11.642-11.647 11.619 11.619 0 0 1 3.037.4.394.394 0 0 1 .257.207.417.417 0 0 1 .033.329l-3.593 10.557a.351.351 0 0 0 .058.324.35.35 0 0 0 .307.127zm-4.912-11.114a.558.558 0 0 1 .307-.343.58.58 0 0 1 .465 0 11.685 11.685 0 0 1 6.788 8.677.384.384 0 0 1 -.066.285.386.386 0 0 1 -.257.144l-10.125 1.069a.317.317 0 0 1 -.274-.113.327.327 0 0 1 -.05-.29c.568-1.678 2.568-7.553 3.207-9.429z" fill="#fff" fill-rule="evenodd" transform="translate(0 150)"/></svg>