<svg xmlns="http://www.w3.org/2000/svg" width="31.727" height="32" viewBox="0 0 31.727 32">
  <path id="icon-product-pepole-outline" d="M20.955-123.44v-3.169a5.463,5.463,0,0,1,5.391-5.444,5.456,5.456,0,0,1,5.38,5.444v3.169a5.451,5.451,0,0,1-5.38,5.44A5.459,5.459,0,0,1,20.955-123.44ZM5.211-118A5.266,5.266,0,0,1,0-123.256v-5.171a9.15,9.15,0,0,1,8.986-9.067h.023a9.04,9.04,0,0,1,8.94,9.038v5.2A7.08,7.08,0,0,0,20.266-118Zm3.8-16.41a6.047,6.047,0,0,0-5.923,5.984v5.165a2.162,2.162,0,0,0,2.125,2.178H15.1a9.946,9.946,0,0,1-.237-2.171v-5.2A5.934,5.934,0,0,0,9.008-134.41Zm13.846-3.082a3.527,3.527,0,0,1,3.492-3.532,3.528,3.528,0,0,1,3.492,3.532,3.531,3.531,0,0,1-3.492,3.537,3.538,3.538,0,0,1-3.5-3.538ZM8.948-150a5.07,5.07,0,0,1,4.954,5.077,5.068,5.068,0,0,1-5.018,5.077,5.078,5.078,0,0,1-5.029-5.012v-.065A5.079,5.079,0,0,1,8.884-150ZM6.94-144.923a1.98,1.98,0,0,0,1.944,1.995,1.97,1.97,0,0,0,1.933-1.995,1.97,1.97,0,0,0-1.933-1.994,1.984,1.984,0,0,0-1.944,1.893Z" transform="translate(0 150)" fill="#f07d25" fill-rule="evenodd"/>
</svg>
