<svg height="32" viewBox="0 0 31.91 32" width="31.91" xmlns="http://www.w3.org/2000/svg"><g fill-rule="evenodd"><path d="m29.285 85.22a.808.808 0 0 1 .893.789q0 .154 0 .309c0 3.123.2 5-1.428 7.411a31.725 31.725 0 0 1 -3.377 3.626 15.085 15.085 0 0 1 -21.05-21.6 21.225 21.225 0 0 1 3.4-3.122c2.255-1.342 4.558-1.4 7.37-1.4a15.085 15.085 0 0 1 3.939.52.537.537 0 0 1 .365.69c-.877 2.582-4.65 13.685-4.65 13.685a.444.444 0 0 0 .467.585z" fill="#ddd" transform="translate(-.005 -69.407)"/><path d="m64.363 60.044a14.572 14.572 0 0 1 -.146-2.073 15.094 15.094 0 0 1 9.369-13.962l5.36 14 .027.089.018.03.014.035z" fill="#1aaf5d" transform="translate(-62.573 -42.882)"/><path d="m641.367 547.58.04.065a.444.444 0 0 0 .394.164l14.072-1.49a.808.808 0 0 1 .893.789q0 .154 0 .309a15.1 15.1 0 0 1 -10.006 14.207l-5.079-13.219z" fill="#18be50" transform="translate(-624.948 -532.33)"/><path d="m430.2 1.127a15.116 15.116 0 0 1 9.662-.607.537.537 0 0 1 .365.69c-.877 2.582-4.65 13.685-4.65 13.685a.426.426 0 0 0 -.012.235l-5.36-14z" fill="#15964c" transform="translate(-419.191)"/><path d="m84.547 597.074.3.791 5.079 13.219a15.087 15.087 0 0 1 -20.026-12.134l14.643-1.876z" fill="#1fe763" transform="translate(-68.114 -581.789)"/><path d="m353.351 611a15.1 15.1 0 0 1 -13.125-1.424l7.724-12.576z" fill="#86f6ac" transform="translate(-331.516 -581.712)"/><path d="m704.506 39.894a.744.744 0 0 1 1-.444 15.128 15.128 0 0 1 8.794 11.25.475.475 0 0 1 -.419.55l-13.122 1.39a.393.393 0 0 1 -.413-.517z" fill="#0e7037" transform="translate(-682.401 -38.381)"/><path d="m717.694 303.679a14.984 14.984 0 0 1 1.562 4.543.475.475 0 0 1 -.419.55l-13.122 1.39a.393.393 0 0 1 -.3-.1z" fill="#0b552a" transform="translate(-687.352 -295.905)"/></g></svg>