<svg height="32.236" viewBox="0 0 30.406 32.236" width="30.406" xmlns="http://www.w3.org/2000/svg"><path d="m-110.251-173.764h-12.749v-32.236h12.749c10.561 0 17.656 6.474 17.656 16.11s-7.095 16.126-17.656 16.126zm-.916-12.495v3.092a.5.5 0 0 0 .344.475.515.515 0 0 0 .156.024.5.5 0 0 0 .4-.2l1.808-2.462-2.711-.927zm7.547-9.1-6.865 8.27 6.988 2.389a.493.493 0 0 0 .161.027.5.5 0 0 0 .26-.073.5.5 0 0 0 .235-.353l1.833-12.334a.5.5 0 0 0 -.2-.481.5.5 0 0 0 -.292-.086.5.5 0 0 0 -.231.057l-15 7.834a.5.5 0 0 0 -.267.482.5.5 0 0 0 .337.435l4.17 1.426z" fill="#ffb24a" transform="translate(123 206)"/></svg>