<svg xmlns="http://www.w3.org/2000/svg" width="25.6" height="32" viewBox="0 0 25.6 32">
  <path id="icon-product-books-mono-fill" d="M16-150H3.2a3.2,3.2,0,0,0-3.184,3.2L0-121.2A3.2,3.2,0,0,0,3.184-118H22.4a3.209,3.209,0,0,0,3.2-3.2v-19.2Zm3.2,24.93a.671.671,0,0,1-.67.67H7.07a.671.671,0,0,1-.67-.67v-1.859a.671.671,0,0,1,.67-.67H18.53a.671.671,0,0,1,.67.67Zm0-6.4a.671.671,0,0,1-.67.67H7.07a.671.671,0,0,1-.67-.67v-1.859a.671.671,0,0,1,.67-.67H18.53a.671.671,0,0,1,.67.67Zm-3.682-7.33a1.119,1.119,0,0,1-.79-.328,1.119,1.119,0,0,1-.328-.79V-147.6l8.8,8.8Z" transform="translate(0 150)"/>
</svg>
