<svg xmlns="http://www.w3.org/2000/svg" width="21.253" height="22.125" viewBox="0 0 21.253 22.125"><defs><style>.a{fill:#fff;}</style></defs><path class="a" d="M-15310.252-5012.626v-2.185a3.764,3.764,0,0,1,3.754-3.753,3.763,3.763,0,0,1,3.75,3.753v2.185a3.76,3.76,0,0,1-3.75,3.75A3.761,3.761,0,0,1-15310.252-5012.626Zm-10.122,3.688a3.63,3.63,0,0,1-3.627-3.623v-3.565a6.312,6.312,0,0,1,6.262-6.25,6.23,6.23,0,0,1,6.241,6.25v3.565a4.874,4.874,0,0,0,1.615,3.623Zm11.438-13.375a2.439,2.439,0,0,1,2.438-2.435,2.438,2.438,0,0,1,2.435,2.435,2.439,2.439,0,0,1-2.435,2.438A2.439,2.439,0,0,1-15308.937-5022.314Zm-12.376-5.184a3.5,3.5,0,0,1,3.5-3.5,3.5,3.5,0,0,1,3.5,3.5,3.5,3.5,0,0,1-3.5,3.5A3.5,3.5,0,0,1-15321.312-5027.5Z" transform="translate(15324.001 5031.002)"/></svg>