<svg xmlns="http://www.w3.org/2000/svg" xmlns:xlink="http://www.w3.org/1999/xlink" width="38" height="38" viewBox="0 0 38 38">
  <defs>
    <style>
      .cls-1 {
        fill: none;
        clip-rule: evenodd;
      }

      .cls-2, .cls-4, .cls-6 {
        isolation: isolate;
      }

      .cls-3 {
        fill: #fff;
      }

      .cls-4 {
        fill: #ddd;
        opacity: 0.904;
        mix-blend-mode: multiply;
      }

      .cls-10, .cls-11, .cls-4, .cls-5, .cls-7, .cls-8, .cls-9 {
        fill-rule: evenodd;
      }

      .cls-5 {
        fill: #1aaf5c;
      }

      .cls-6 {
        clip-path: url(#clip-path);
      }

      .cls-7 {
        fill: #117940;
      }

      .cls-8 {
        fill: #1fe762;
      }

      .cls-9 {
        fill: rgba(7,86,34,0.29);
      }

      .cls-10 {
        fill: #85f6ac;
      }

      .cls-11 {
        fill: #0b552a;
      }
    </style>
    <clipPath id="clip-path">
      <path id="Path_9522" data-name="Path 9522" class="cls-1" d="M37.8-290.054a.575.575,0,0,1,.441.141.575.575,0,0,1,.194.42q0,.11,0,.22a10.732,10.732,0,0,1-10.727,10.727,10.732,10.732,0,0,1-10.727-10.727A10.732,10.732,0,0,1,27.707-300a10.725,10.725,0,0,1,2.8.37.382.382,0,0,1,.235.189.382.382,0,0,1,.024.3c-.623,1.835-3.306,9.729-3.306,9.729a.316.316,0,0,0,.052.3.316.316,0,0,0,.28.117Zm-6.27-8.871a.529.529,0,0,1,.286-.313.529.529,0,0,1,.424,0,10.755,10.755,0,0,1,6.256,8,.338.338,0,0,1-.064.26.338.338,0,0,1-.233.131l-9.329.988a.279.279,0,0,1-.248-.1.279.279,0,0,1-.046-.264Z" transform="translate(-16.981 300)"/>
    </clipPath>
  </defs>
  <g id="icon-product-sales-circle" class="cls-2" transform="translate(-289 -1279)">
    <circle id="Ellipse_127" data-name="Ellipse 127" class="cls-3" cx="19" cy="19" r="19" transform="translate(289 1279)"/>
    <g id="icon-product-sales" transform="translate(296 1287)">
      <g id="Group_15700" data-name="Group 15700" transform="translate(0 300)">
        <path id="Path_9515" data-name="Path 9515" class="cls-4" d="M20.817-272.959a.575.575,0,0,1,.441.141.575.575,0,0,1,.194.42q0,.11,0,.22c0,2.22.142,3.556-1.015,5.269a22.557,22.557,0,0,1-2.4,2.578,10.688,10.688,0,0,1-7.311,2.88A10.732,10.732,0,0,1,0-272.178a10.692,10.692,0,0,1,3.072-7.512,15.087,15.087,0,0,1,2.415-2.219c1.6-.954,3.24-1,5.239-1a10.726,10.726,0,0,1,2.8.37.382.382,0,0,1,.235.189.382.382,0,0,1,.024.3c-.623,1.835-3.306,9.729-3.306,9.729a.316.316,0,0,0,.052.3.316.316,0,0,0,.28.117Z" transform="translate(0 -15.799)"/>
        <path id="Path_9516" data-name="Path 9516" class="cls-5" d="M37.8-290.054a.575.575,0,0,1,.441.141.575.575,0,0,1,.194.42q0,.11,0,.22a10.732,10.732,0,0,1-10.727,10.727,10.732,10.732,0,0,1-10.727-10.727A10.732,10.732,0,0,1,27.707-300a10.725,10.725,0,0,1,2.8.37.382.382,0,0,1,.235.189.382.382,0,0,1,.024.3c-.623,1.835-3.306,9.729-3.306,9.729a.316.316,0,0,0,.052.3.316.316,0,0,0,.28.117Zm-6.27-8.871a.529.529,0,0,1,.286-.313.529.529,0,0,1,.424,0,10.755,10.755,0,0,1,6.256,8,.338.338,0,0,1-.064.26.338.338,0,0,1-.233.131l-9.329.988a.279.279,0,0,1-.248-.1.279.279,0,0,1-.046-.264Z" transform="translate(-15.693)"/>
        <g id="Group_15699" data-name="Group 15699" class="cls-6" transform="translate(1.288 -300)">
          <path id="Path_9517" data-name="Path 9517" class="cls-7" d="M163.769-301.976l-3.533,10.771,11.731-1.286s-2-5.625-3.725-7.257A10.809,10.809,0,0,0,163.769-301.976Z" transform="translate(-149.372 301.826)"/>
          <path id="Path_9518" data-name="Path 9518" class="cls-8" d="M18.747-186.234,20.3-175.159-9.788-170.93-11.4-182.372Z" transform="translate(9.244 194.861)"/>
          <path id="Path_9519" data-name="Path 9519" class="cls-9" d="M102.486-383.534l-11.243,4.311-4.956-12.9L80.365-407.6l11.615-4.453Z" transform="translate(-75.558 403.552)"/>
          <path id="Path_9520" data-name="Path 9520" class="cls-10" d="M73.388-156.721l-6.749,10.995,11.059.184Z" transform="translate(-62.873 167.586)"/>
          <path id="Path_9521" data-name="Path 9521" class="cls-11" d="M168.024-227.2l9.7-5.04s1.632,3.6,1.176,4.152S168.024-227.2,168.024-227.2Z" transform="translate(-156.57 237.379)"/>
        </g>
      </g>
    </g>
  </g>
</svg>
