<svg height="18" viewBox="0 0 18 18" width="18" xmlns="http://www.w3.org/2000/svg"><path d="m-99 260.343a.884.884 0 0 1 -1.374 0l-2-2.341a1.236 1.236 0 0 1 0-1.557l.01-.011a.864.864 0 0 1 1.354 0l1.325 1.534 4.286-4.995a.874.874 0 0 1 1.364 0l.01.011a1.236 1.236 0 0 1 0 1.557zm-4.044.246-.832-.963a3.739 3.739 0 0 1 .019-4.771l.813-.918a7.828 7.828 0 0 0 -.967-.067c-2.583 0-7.74 1.5-7.74 4.48v2.24zm-.967-8.959c2.138 0 3.87-2 3.87-4.48s-1.732-4.48-3.87-4.48-3.87 2-3.87 4.48 1.734 4.48 3.872 4.48z" fill="#fff" transform="translate(111.749 -242.671)"/></svg>