<svg xmlns="http://www.w3.org/2000/svg" width="40" height="40" viewBox="0 0 40 40"><defs><style>.a{fill:#181818;}.b{fill:#fff;}</style></defs><g transform="translate(-548 -1299)"><g transform="translate(469 69)"><circle class="a" cx="20" cy="20" r="20" transform="translate(79 1230)"/></g><path class="b" d="M21.393,0H.962A.96.96,0,0,0,.106.521.973.973,0,0,0,.182,1.534L7.667,12.079l.008.011a2.138,2.138,0,0,1,.42,1.269v8.6a.956.956,0,0,0,.956.962.985.985,0,0,0,.377-.076l4.206-1.6a.911.911,0,0,0,.627-.9V13.358a2.139,2.139,0,0,1,.42-1.269l.008-.011L22.173,1.534A.972.972,0,0,0,22.249.521.959.959,0,0,0,21.393,0Zm0,0" transform="translate(557.001 1309.083)"/></g></svg>