<svg xmlns="http://www.w3.org/2000/svg" fill-rule="evenodd" stroke-linejoin="round" stroke-miterlimit="2" clip-rule="evenodd" viewBox="0 0 142 74">
  <defs />
  <g id="mainbody">
    <path d="M38.48 28.891c-.876-11.07-24.943 2.69-28.763 14.151-.275.823.371 1.308 1.096 1.369 1.782-6.034 31.667-27.627 22.983-8.26a70.858 70.858 0 01-9.099 12.353c-2.013 2.441-4.17 4.765-6.517 6.88-.001.053-.001.053-.05.066.001-.052.001-.052.05-.066 1.166-4.937 2.67-11.665 3.138-15.562-.72-.786-2.553-.605-3.204.942.176.144-1.006 6.161-1.136 5.909-6.413 1.78-23.092 20.69-13.127 21.418.943-.002 6.097-.95 8.757-4.051-.387 2.252-2.39 10.697 1.547 8.197 1.433-2.541.894-5.999 1.991-8.656 2.9 3.533 41.083 10.928 43.153 8.153-.673.29-36.719-8.382-38.349-9.329-1.399-.396-2.404-1.267-3.409-2.191 5.164-4.194 21.752-22.246 20.939-31.323zM16.212 50.022c-.812 3.154-1.479 6.319-2.435 9.355-22.921 17.1-3.311-7.76 2.435-9.355z" />
    <path d="M38.48 28.891c-.876-11.07-24.943 2.69-28.763 14.151-.275.823.371 1.308 1.096 1.369 1.782-6.034 31.667-27.627 22.983-8.26a70.858 70.858 0 01-9.099 12.353c-2.013 2.441-4.17 4.765-6.517 6.88-.001.053-.001.053-.05.066.001-.052.001-.052.05-.066 1.166-4.937 2.67-11.665 3.138-15.562-.72-.786-2.553-.605-3.204.942.176.144-1.006 6.161-1.136 5.909-6.413 1.78-23.092 20.69-13.127 21.418.943-.002 6.097-.95 8.757-4.051-.387 2.252-2.39 10.697 1.547 8.197 1.433-2.541.894-5.999 1.991-8.656 2.9 3.533 41.083 10.928 43.153 8.153-.673.29-36.719-8.382-38.349-9.329-1.399-.396-2.404-1.267-3.409-2.191 5.164-4.194 21.752-22.246 20.939-31.323zM16.212 50.022c-.812 3.154-1.479 6.319-2.435 9.355-22.921 17.1-3.311-7.76 2.435-9.355z" />
    <path d="M40.646 38.727c-2.693-.599-11.171 12.465-11.002 17.692.006 3.501 2.742 5.356 5.956 3.575 5.518-3.828 8.87-10.612 8.941-16.533-.39.047-4.703 10.947-10.463 14.394 0 0-3.883 1.819-1.808-2.583.144.117.386.154.529.271 2.332-.751 3.279-3.053 4.75-4.716 1.629-2.7 3.208-5.229 4.55-8.268.198-.513 1.058-3.204-1.453-3.832h0zm-.809 2.891c.456.54-5.452 8.891-6.214 9.776-.931.007 5.502-8.99 6.214-9.776z" />
    <path d="M40.646 38.727c-2.693-.599-11.171 12.465-11.002 17.692.006 3.501 2.742 5.356 5.956 3.575 5.518-3.828 8.87-10.612 8.941-16.533-.39.047-4.703 10.947-10.463 14.394 0 0-3.883 1.819-1.808-2.583.144.117.386.154.529.271 2.332-.751 3.279-3.053 4.75-4.716 1.629-2.7 3.208-5.229 4.55-8.268.198-.513 1.058-3.204-1.453-3.832zm-.809 2.891c.456.54-5.452 8.891-6.214 9.776-.931.007 5.502-8.99 6.214-9.776z" />
    <path d="M60.799 27.914c-9.821 14.011-11.447 20.664-12.107 21.083.062-.146.046-8.821 1.024-12.727-1.193-1.103-1.144-.814-2.701-.662-1.057 1.556-1.672 17.765-1.114 20.228.503 1.124 2.315 1.036 3.136.698 1.486-3.49 7.137-18.321 13.59-27.768 0-.353-.008-1.295-1.828-.852h0z" />
    <path d="M60.799 27.914c-9.821 14.011-11.447 20.664-12.107 21.083.062-.146.046-8.821 1.024-12.727-1.193-1.103-1.144-.814-2.701-.662-1.057 1.556-1.672 17.765-1.114 20.228.503 1.124 2.315 1.036 3.136.698 1.486-3.49 7.137-18.321 13.59-27.768 0-.353-.008-1.295-1.828-.852z" />
    <path d="M76.182 33.936c-.409.223-.716.604-1.226 1.385-1.562 2.761-4.436 9.251-6.622 11.51-1.113-1.469 1.821-11.957 2.841-14.956-.246-.618-1.317-1.151-2.069-.942-.082.388-1.286 3.315-1.639 3.539.155-.827.602-1.735.712-2.864-.641-1.393-1.471-1.482-2.112-1.4-3.097.396-11.602 17.023-10.57 22.015 1.61 7.782 9.169-4.327 9.391-4.436.02 2.347 2.441 2.198 4.626 1.487 2.752-2.235 8.836-15.242 6.668-15.338h0zm-11.765.755c.14.379-.4 1.052-.311 1.707.574.52 1.346.725 2.167.863-.523 3.277-6.244 13.619-7.969 14.915.069-5.775 2.378-12.247 6.113-17.485z" />
    <path d="M76.182 33.936c-.409.223-.716.604-1.226 1.385-1.562 2.761-4.436 9.251-6.622 11.51-1.113-1.469 1.821-11.957 2.841-14.956-.246-.618-1.317-1.151-2.069-.942-.082.388-1.286 3.315-1.639 3.539.155-.827.602-1.735.712-2.864-.641-1.393-1.471-1.482-2.112-1.4-3.097.396-11.602 17.023-10.57 22.015 1.61 7.782 9.169-4.327 9.391-4.436.02 2.347 2.441 2.198 4.626 1.487 2.752-2.235 8.836-15.242 6.668-15.338zm-11.765.755c.14.379-.4 1.052-.311 1.707.574.52 1.346.725 2.167.863-.523 3.277-6.244 13.619-7.969 14.915.069-5.775 2.378-12.247 6.113-17.485z" />
    <path d="M81.976 35.43c-.143-.784.931-4.332.51-6.154-1.665-4.492-4.701 2.693-5.904 4.148a25.5 25.5 0 00.615-2.837c-.629-.861-1.808-1.38-2.987-1.053-.439.279-.542.778-.74 1.199.583.475-1.981 10.656-2.326 12.303-.122.586-1.245 5.91-.551 5.643-.012.978 3.051 1.233 3.08 1.288-.117-.622 1.759-9.077 4.362-12.712-.188 1.567-1.56 6.75-.722 7.781.381.053 2.265 1.083 2.796.793.687-.766.989-1.791 1.389-2.79.54-2.886 5.422-12.412 5.417-11.96-1.6 5.043-3.494 12.898-3.845 18.006-.054 1.98 1.079 3.032 3.418 1.352 3.076-2.659 6.412-12.132 7.521-13.85 6.254-11.452-7.225 9.43-7.472 9.811.065-5.444 10.316-39.709-4.561-10.968h0z" />
    <path d="M81.976 35.43c-.143-.784.931-4.332.51-6.154-1.665-4.492-4.701 2.693-5.904 4.148a25.5 25.5 0 00.615-2.837c-.629-.861-1.808-1.38-2.987-1.053-.439.279-.542.778-.74 1.199.583.475-1.981 10.656-2.326 12.303-.122.586-1.245 5.91-.551 5.643-.012.978 3.051 1.233 3.08 1.288-.117-.622 1.759-9.077 4.362-12.712-.188 1.567-1.56 6.75-.722 7.781.381.053 2.265 1.083 2.796.793.687-.766.989-1.791 1.389-2.79.54-2.886 5.422-12.412 5.417-11.96-1.6 5.043-3.494 12.898-3.845 18.006-.054 1.98 1.079 3.032 3.418 1.352 3.076-2.659 6.412-12.132 7.521-13.85 6.254-11.452-7.225 9.43-7.472 9.811.065-5.444 10.316-39.709-4.561-10.968z" />
    <path d="M106.292 22.569c-.367-7.384-8.41-.819-9.657 2.471-1.761-.787-3.884-1.143-2.978 2.186-1.668 9.685-6.942 22.102-7.051 31.129.72.531 2.01.336 2.566-.137 1.555-1.429 1.551-10.822 3.504-13.781 5.343-1.483 13.768-17.766 13.616-21.868h0zM93.544 40.693c.625-3.281 2.88-9.794 4.603-12.674.704-1.178 3.83-5.807 5.148-5.664.657 3.926-8.783 18.383-9.755 18.653-.055-.025-.053-.152.004-.315h0z" />
    <path d="M106.292 22.569c-.367-7.384-8.41-.819-9.657 2.471-1.761-.787-3.884-1.143-2.978 2.186-1.668 9.685-6.942 22.102-7.051 31.129.72.531 2.01.336 2.566-.137 1.555-1.429 1.551-10.822 3.504-13.781 5.343-1.483 13.768-17.766 13.616-21.868zM93.544 40.693c.625-3.281 2.88-9.794 4.603-12.674.704-1.178 3.83-5.807 5.148-5.664.657 3.926-8.783 18.383-9.755 18.653-.055-.025-.053-.152.004-.315z" />
    <path d="M138.952 21.075c-.057.185-3.505 7.148-3.864 7.503.001-.05-.804-1.674-.73-3.666.069-1.847.482-3.844.986-5.554 1.536-6.046 3.053-12.079 4.476-18.129-.718-.584-2.526-.871-3.151.561a186.856 186.856 0 00-2.803 11.809c-.889-.95-1.796-1.597-3.671-.497-3.217 1.886-6.221 8.057-7.396 11.567-4.157 11.574 1.691 16.097 8.709 3.962 1.03 1.328-.2 4.481 4.774 1.795.792-.657 2.422-3.46 4.452-8.643.155-.582-1.175-1.84-1.782-.708h0zm-7.899-6.904c.612 1.398-.282 3.319-.352 5.064.057.449 1.241.418 1.592.447.566.461-5.222 13.264-7.424 13.876-2.758-2.017 1.812-17.001 6.184-19.387h0z" />
    <path d="M138.952 21.075c-.057.185-3.505 7.148-3.864 7.503.001-.05-.804-1.674-.73-3.666.069-1.847.482-3.844.986-5.554 1.536-6.046 3.053-12.079 4.476-18.129-.718-.584-2.526-.871-3.151.561a186.856 186.856 0 00-2.803 11.809c-.889-.95-1.796-1.597-3.671-.497-3.217 1.886-6.221 8.057-7.396 11.567-4.157 11.574 1.691 16.097 8.709 3.962 1.03 1.328-.2 4.481 4.774 1.795.792-.657 2.422-3.46 4.452-8.643.155-.582-1.175-1.84-1.782-.708zm-7.899-6.904c.612 1.398-.282 3.319-.352 5.064.057.449 1.241.418 1.592.447.566.461-5.222 13.264-7.424 13.876-2.758-2.017 1.812-17.001 6.184-19.387z" />
    <path d="M120.422 22.523c-.472.13-4.791 7.041-5.122 7.486-2.008 2.697-3.541 4.799-6.222 6.484-.001 0-3.884 1.819-1.808-2.583.144.117.385.154.529.271 3.403-1.097 9.929-12.567 9.764-15.309-4.415-5.227-13.087 11.001-12.919 16.185.006 3.501 2.741 5.356 5.956 3.575 6.623-4.391 16.084-21.9 9.822-16.109zm-5.585-2.267c.456.54-5.452 8.891-6.214 9.776-.931.007 5.501-8.99 6.214-9.776z" />
    <path d="M120.422 22.523c-.472.13-4.791 7.041-5.122 7.486-2.008 2.697-3.541 4.799-6.222 6.484-.001 0-3.884 1.819-1.808-2.583.144.117.385.154.529.271 3.403-1.097 9.929-12.567 9.764-15.309-4.415-5.227-13.087 11.001-12.919 16.185.006 3.501 2.741 5.356 5.956 3.575 6.623-4.391 16.084-21.9 9.822-16.109zm-5.585-2.267c.456.54-5.452 8.891-6.214 9.776-.931.007 5.501-8.99 6.214-9.776z" />
  </g>
</svg>
