<svg xmlns="http://www.w3.org/2000/svg" width="65" height="65" viewBox="0 0 65 65"><defs><style>.a{fill:#1ea4a5;}.b{fill:#fff;}</style></defs><g transform="translate(-519 -24409)"><g transform="translate(425 15974)"><circle class="a" cx="32.5" cy="32.5" r="32.5" transform="translate(94 8435)"/></g><g transform="translate(1 15311)"><path class="b" d="M615.405-4.157c-3.782-.983-5-2-5-3.583,0-1.817,1.682-3.083,4.5-3.083,2.966,0,4.067,1.417,4.167,3.5h3.682a6.642,6.642,0,0,0-5.349-6.35v-3.65h-5v3.6c-3.232.7-5.833,2.8-5.833,6.017,0,3.85,3.183,5.767,7.833,6.883,4.166,1,5,2.467,5,4.017,0,1.15-.818,2.983-4.5,2.983-3.433,0-4.783-1.533-4.967-3.5h-3.668c.2,3.65,2.934,5.7,6.133,6.383v3.617h5V9.093c3.249-.617,5.833-2.5,5.833-5.917C623.239-1.557,619.189-3.173,615.405-4.157Z" transform="translate(-64.271 9133.323)"/></g></g></svg>