<svg xmlns="http://www.w3.org/2000/svg" width="65" height="65" viewBox="0 0 65 65"><defs><style>.a{fill:#f1f1f1;}.b{fill:#2980b9;}.c{fill:#9fe0f6;}.d{fill:#3498db;}.e{fill:#333;}.f{fill:#ffcc5c;}.g{fill:#f7931e;}.h{fill:#f15a24;}</style></defs><g transform="translate(-194 -11663)"><g transform="translate(100 3228)"><circle class="a" cx="32.5" cy="32.5" r="32.5" transform="translate(94 8435)"/></g><g transform="translate(205 11673)"><rect class="b" width="9.109" height="22.121" rx="1" transform="translate(29.977 18.916)"/><rect class="c" width="4" height="3" rx="1" transform="translate(33 22)"/><rect class="c" width="4" height="4" rx="1" transform="translate(33 27)"/><rect class="b" width="9.109" height="22.121" rx="1" transform="translate(3.952 18.916)"/><rect class="c" width="4" height="3" rx="1" transform="translate(6 22)"/><rect class="c" width="4" height="4" rx="1" transform="translate(6 27)"/><rect class="d" width="19.519" height="29.278" rx="1" transform="translate(11.759 11.759)"/><g transform="translate(13.711 14.362)"><rect class="c" width="3.904" height="3.904" rx="1"/><rect class="c" width="3.904" height="3.904" rx="1" transform="translate(5.856)"/><rect class="c" width="3.904" height="3.904" rx="1" transform="translate(11.711)"/><rect class="c" width="3.904" height="3.904" rx="1" transform="translate(0 5.205)"/><rect class="c" width="3.904" height="3.904" rx="1" transform="translate(5.856 5.205)"/><rect class="c" width="3.904" height="3.904" rx="1" transform="translate(11.711 5.205)"/><rect class="c" width="3.904" height="3.904" rx="1" transform="translate(0 10.41)"/><rect class="c" width="3.904" height="3.904" rx="1" transform="translate(5.856 10.41)"/><rect class="c" width="3.904" height="3.904" rx="1" transform="translate(11.711 10.41)"/></g><path class="b" d="M34.061,46.3H23.651a.651.651,0,1,1,0-1.3h10.41a.651.651,0,1,1,0,1.3Z" transform="translate(-7.337 -15.023)"/><path class="c" d="M26,46h7.807v9.759H26Z" transform="translate(-8.385 -15.373)"/><path class="b" d="M33.458,45H25.651a.651.651,0,0,0-.651.651V55.41a.651.651,0,0,0,.651.651h7.807a.651.651,0,0,0,.651-.651V45.651A.651.651,0,0,0,33.458,45ZM26.3,46.3h2.6v8.458H26.3Zm6.506,8.458H30.2V46.3h2.6Z" transform="translate(-8.036 -15.023)"/><path class="e" d="M40.387,61.3H2.651a.651.651,0,1,1,0-1.3H40.387a.651.651,0,1,1,0,1.3Z" transform="translate(0 -20.264)"/><path class="f" d="M32.588,13.682a.655.655,0,0,1-.228-.042,5.105,5.105,0,0,0-3.59,0,.651.651,0,1,1-.455-1.219,6.412,6.412,0,0,1,4.5,0,.651.651,0,0,1-.228,1.26Z" transform="translate(-9.046 -3.498)"/><path class="g" d="M33.443,9.269a.651.651,0,0,1-.3-.073,7.807,7.807,0,0,0-7.183,0,.651.651,0,1,1-.6-1.155,9.109,9.109,0,0,1,8.38,0,.651.651,0,0,1-.3,1.228Z" transform="translate(-8.034 -1.754)"/><path class="h" d="M34.3,4.907a.651.651,0,0,1-.337-.094,10.34,10.34,0,0,0-10.763,0A.651.651,0,1,1,22.523,3.7a11.638,11.638,0,0,1,12.113,0A.651.651,0,0,1,34.3,4.907Z" transform="translate(-7.061 0)"/></g></g></svg>