<svg xmlns="http://www.w3.org/2000/svg" width="65" height="65" viewBox="0 0 65 65"><defs><style>.a{fill:#3856d5;}.b{fill:#fff;}</style></defs><g transform="translate(-519 -23730)"><g transform="translate(425 15295)"><circle class="a" cx="32.5" cy="32.5" r="32.5" transform="translate(94 8435)"/></g><g transform="translate(1 15091)"><g transform="translate(-1.998 1.785)"><g transform="translate(537.998 8649.215)"><g transform="translate(0 0)"><path class="b" d="M23.067,17.9h2.726a1.262,1.262,0,0,0,.965-.434,1.5,1.5,0,0,0,.4-1.053V13.441a1.5,1.5,0,0,0-.4-1.053,1.262,1.262,0,0,0-.965-.434H24.2a.631.631,0,0,1-.483-.217.751.751,0,0,1-.2-.527v-.248a2,2,0,0,1,.532-1.4,1.681,1.681,0,0,1,1.285-.581h.454a.42.42,0,0,0,.319-.147.5.5,0,0,0,.135-.348V7.5a.5.5,0,0,0-.135-.348A.42.42,0,0,0,25.793,7h-.454a3.289,3.289,0,0,0-1.409.314,3.66,3.66,0,0,0-1.161.848,4.036,4.036,0,0,0-.777,1.266,4.165,4.165,0,0,0-.287,1.537v5.451a1.5,1.5,0,0,0,.4,1.053A1.261,1.261,0,0,0,23.067,17.9Z" transform="translate(-15.345 -7)"/><path class="b" d="M16.487,17.467a1.261,1.261,0,0,0,.965.434h2.726a1.261,1.261,0,0,0,.965-.434,1.5,1.5,0,0,0,.4-1.053V13.441a1.5,1.5,0,0,0-.4-1.053,1.261,1.261,0,0,0-.965-.434h-1.59a.631.631,0,0,1-.483-.217.752.752,0,0,1-.2-.527v-.248a2,2,0,0,1,.532-1.4,1.681,1.681,0,0,1,1.285-.581h.454a.42.42,0,0,0,.319-.147.5.5,0,0,0,.135-.348V7.5a.5.5,0,0,0-.135-.348A.42.42,0,0,0,20.178,7h-.454a3.289,3.289,0,0,0-1.409.314,3.659,3.659,0,0,0-1.16.848,4.033,4.033,0,0,0-.777,1.266,4.164,4.164,0,0,0-.287,1.537v5.451A1.5,1.5,0,0,0,16.487,17.467Z" transform="translate(-16.089 -7)"/></g><path class="b" d="M11.044,2.1ZM27.418-16.323H15.137a2.053,2.053,0,0,0-2.047,2.047V-2A2.053,2.053,0,0,0,15.137.051h12.28A2.053,2.053,0,0,0,29.464-2v-12.28A2.053,2.053,0,0,0,27.418-16.323ZM27.418-2H15.137v-12.28h12.28ZM17.184-9.16h8.187v2.047H17.184Zm0,3.07h4.093v2.047H17.184Zm0-6.14h8.187v2.047H17.184Z" transform="translate(-5.99 28.233)"/><g transform="translate(18.19 29.303)"><path class="b" d="M25.793,7H23.067a1.262,1.262,0,0,0-.965.434,1.5,1.5,0,0,0-.4,1.053v2.973a1.5,1.5,0,0,0,.4,1.053,1.262,1.262,0,0,0,.965.434h1.59a.631.631,0,0,1,.483.217.751.751,0,0,1,.2.527v.248a2,2,0,0,1-.532,1.4,1.681,1.681,0,0,1-1.285.581h-.454a.42.42,0,0,0-.319.147.5.5,0,0,0-.135.348V17.4a.5.5,0,0,0,.135.348.42.42,0,0,0,.319.147h.454a3.289,3.289,0,0,0,1.409-.314,3.66,3.66,0,0,0,1.16-.848,4.036,4.036,0,0,0,.777-1.266,4.165,4.165,0,0,0,.287-1.537V8.486a1.5,1.5,0,0,0-.4-1.053A1.261,1.261,0,0,0,25.793,7Z" transform="translate(-21.704 -7)"/><path class="b" d="M21.142,7.433A1.261,1.261,0,0,0,20.177,7H17.452a1.261,1.261,0,0,0-.965.434,1.5,1.5,0,0,0-.4,1.053v2.973a1.5,1.5,0,0,0,.4,1.053,1.261,1.261,0,0,0,.965.434h1.59a.631.631,0,0,1,.483.217.752.752,0,0,1,.2.527v.248a2,2,0,0,1-.532,1.4,1.681,1.681,0,0,1-1.285.581h-.454a.42.42,0,0,0-.319.147.5.5,0,0,0-.135.348V17.4a.5.5,0,0,0,.135.348.42.42,0,0,0,.319.147h.454a3.289,3.289,0,0,0,1.409-.314,3.659,3.659,0,0,0,1.16-.848,4.033,4.033,0,0,0,.777-1.266,4.164,4.164,0,0,0,.287-1.537V8.486A1.5,1.5,0,0,0,21.142,7.433Z" transform="translate(-9.73 -7)"/></g></g></g></g></g></svg>