<svg xmlns="http://www.w3.org/2000/svg" width="55" height="55" viewBox="0 0 55 55"><defs><style>.a{fill:#691d49;}.b{fill:#fff;}</style></defs><g transform="translate(-726 -4998)"><g transform="translate(190 4224)"><circle class="a" cx="27.5" cy="27.5" r="27.5" transform="translate(536 774)"/></g><path class="b" d="M20.362,7.472H.56A.56.56,0,0,1,0,6.912V5.231A2.242,2.242,0,0,1,2.242,2.989H4.483V.56A.56.56,0,0,1,5.044,0H6.912a.56.56,0,0,1,.56.56V2.989H13.45V.56a.56.56,0,0,1,.56-.56h1.868a.56.56,0,0,1,.56.56V2.989h2.242a2.242,2.242,0,0,1,2.242,2.242V6.912A.56.56,0,0,1,20.362,7.472ZM.56,8.967h19.8a.56.56,0,0,1,.56.56V21.67a2.242,2.242,0,0,1-2.242,2.242H2.242A2.242,2.242,0,0,1,0,21.67V9.527A.56.56,0,0,1,.56,8.967Zm15.566,4.481-1.316-1.326a.56.56,0,0,0-.793,0L9.066,17.031,6.919,14.866a.56.56,0,0,0-.793,0L4.8,16.179a.56.56,0,0,0,0,.793L8.654,20.86a.56.56,0,0,0,.793,0l6.676-6.623a.56.56,0,0,0,0-.793Z" transform="translate(743 5014)"/></g></svg>