<svg xmlns="http://www.w3.org/2000/svg" xmlns:xlink="http://www.w3.org/1999/xlink" width="348.878" height="388" viewBox="0 0 348.878 388"><defs><style>.a,.b,.m,.n,.y,.z{fill:#fff;}.b{stroke:#3856d5;stroke-width:2px;}.c{fill:#c8c8c8;stroke:#c5c5c5;opacity:0.71;}.c,.d{stroke-width:0.5px;}.ad,.d,.k{fill:none;}.d{stroke:#d3d3d3;opacity:0.42;}.e{fill:#a1dafe;}.f{fill:#3856d5;}.aa,.g,.i,.j,.o,.w{fill:#181818;}.g,.h{font-size:4px;}.g,.h,.j,.n,.w,.x{font-family:Inter-Regular, Inter;}.ab,.g,.h,.v,.w,.x{letter-spacing:-0.02em;}.g,.w{opacity:0.52;}.h,.x{fill:#878787;}.i{font-size:8px;}.i,.m,.o,.v{font-family:Inter-Bold, Inter;font-weight:700;}.j,.v,.x{font-size:6px;}.j{opacity:0.81;}.k{stroke:#a1dafe;}.l{fill:#1c2755;}.m,.n,.w{font-size:5px;}.n{opacity:0.57;}.o{font-size:7px;}.p{opacity:0.84;}.q{fill:#25f033;}.r{fill:#5771db;}.s{fill:#b0dffe;}.t{fill:#47f253;}.u,.v{fill:#003f5e;}.u{opacity:0.1;}.y{opacity:0.73;}.z{opacity:0.25;}.ab{fill:#f5f5f5;font-size:9px;font-family:Inter-Medium, Inter;font-weight:500;}.ac{stroke:none;}.ae{filter:url(#i);}.af{filter:url(#g);}.ag{filter:url(#e);}.ah{filter:url(#c);}.ai{filter:url(#a);}</style><filter id="a" x="104.06" y="9.093" width="244.818" height="163.106" filterUnits="userSpaceOnUse"><feOffset dy="10" input="SourceAlpha"/><feGaussianBlur stdDeviation="6" result="b"/><feFlood flood-opacity="0.11"/><feComposite operator="in" in2="b"/><feComposite in="SourceGraphic"/></filter><filter id="c" x="110.346" y="222.798" width="238.532" height="165.202" filterUnits="userSpaceOnUse"><feOffset dy="10" input="SourceAlpha"/><feGaussianBlur stdDeviation="6" result="d"/><feFlood flood-opacity="0.11"/><feComposite operator="in" in2="d"/><feComposite in="SourceGraphic"/></filter><filter id="e" x="0" y="99.882" width="244.818" height="187.55" filterUnits="userSpaceOnUse"><feOffset dy="10" input="SourceAlpha"/><feGaussianBlur stdDeviation="6" result="f"/><feFlood flood-opacity="0.11"/><feComposite operator="in" in2="f"/><feComposite in="SourceGraphic"/></filter><filter id="g" x="122.249" y="16.97" width="209.818" height="127.106" filterUnits="userSpaceOnUse"><feOffset dx="1" input="SourceAlpha"/><feGaussianBlur result="h"/><feFlood flood-opacity="0.161"/><feComposite operator="in" in2="h"/><feComposite in="SourceGraphic"/></filter><filter id="i" x="145.321" y="260.944" width="47.113" height="39.153" filterUnits="userSpaceOnUse"><feOffset dy="2" input="SourceAlpha"/><feGaussianBlur stdDeviation="1.5" result="j"/><feFlood flood-color="#a4f96c" flood-opacity="0.859"/><feComposite operator="in" in2="j"/><feComposite in="SourceGraphic"/></filter></defs><g transform="translate(-813.614 -7049.999)"><g class="ai" transform="matrix(1, 0, 0, 1, 813.61, 7050)"><rect class="a" width="208.818" height="127.106" rx="5" transform="translate(122.06 17.09)"/></g><g class="ah" transform="matrix(1, 0, 0, 1, 813.61, 7050)"><rect class="a" width="202.532" height="129.202" rx="5" transform="translate(128.35 230.8)"/></g><g class="ag" transform="matrix(1, 0, 0, 1, 813.61, 7050)"><rect class="a" width="208.818" height="151.55" rx="5" transform="translate(18 107.88)"/></g><g transform="translate(935.863 7066.969)"><g class="af" transform="matrix(1, 0, 0, 1, -122.25, -16.97)"><g class="b" transform="translate(122.25 16.97)"><path class="ac" d="M1,0H208.818a0,0,0,0,1,0,0V127.106a0,0,0,0,1,0,0H1a1,1,0,0,1-1-1V1A1,1,0,0,1,1,0Z"/><path class="ad" d="M1,1H206.818a1,1,0,0,1,1,1V125.106a1,1,0,0,1-1,1H1a0,0,0,0,1,0,0V1A0,0,0,0,1,1,1Z"/></g></g><path class="c" d="M16222.924,2212.5h167.311" transform="translate(-16194.674 -2132.859)"/><path class="d" d="M16222.929,2113.123h165.938" transform="translate(-16194.679 -2084.944)"/><path class="d" d="M16222.929,2113.123h165.938" transform="translate(-16194.679 -2059.622)"/><path class="d" d="M16222.929,2113.123h165.938" transform="translate(-16193.049 -2008.163)"/><rect class="e" width="12.632" height="33.049" transform="translate(170.082 71.234)"/><rect class="e" width="12.632" height="8.106" transform="translate(148.759 96.177)"/><rect class="e" width="12.632" height="3.741" transform="translate(127.436 100.541)"/><rect class="e" width="12.632" height="6.859" transform="translate(106.113 97.424)"/><rect class="f" width="12.632" height="41.067" transform="translate(81.423 63.216)"/><rect class="e" width="12.632" height="10.601" transform="translate(55.049 93.682)"/><text class="g" transform="translate(11.952 28.549)"><tspan x="0" y="0">$15 M</tspan></text><text class="g" transform="translate(11.952 53.492)"><tspan x="0" y="0">$10 M</tspan></text><text class="g" transform="translate(11.952 78.435)"><tspan x="0" y="0">$5 M</tspan></text><text class="g" transform="translate(11.952 104.002)"><tspan x="0" y="0">$ 0 M</tspan></text><text class="h" transform="translate(45.136 110.03)"><tspan x="0" y="0" xml:space="preserve">Jan                 Feb              Mar              Apr           May          June            July </tspan></text><text class="i" transform="translate(10.201 15.87)"><tspan x="0" y="0">Purchases</tspan></text><text class="j" transform="translate(160.358 13.623)"><tspan x="0" y="0">last 6 months</tspan></text><line class="k" y2="34.919" transform="translate(88.052 28.275)"/><g transform="translate(87.5 42.51)"><path class="l" d="M3,0H33.3a3,3,0,0,1,3,3V7.639a3,3,0,0,1-3,3H0a0,0,0,0,1,0,0V3A3,3,0,0,1,3,0Z"/><text class="m" transform="translate(3.636 7.52)"><tspan x="0" y="0">May</tspan></text><text class="n" transform="translate(15.636 7.521)"><tspan x="0" y="0">5.6M</tspan></text></g></g><g transform="translate(941.885 7280.468)"><g class="b" transform="translate(0 0)"><rect class="ac" width="202.532" height="129.202" rx="1"/><rect class="ad" x="1" y="1" width="200.532" height="127.202"/></g><text class="o" transform="translate(9.213 14.166)"><tspan x="0" y="0">Product trend</tspan></text><text class="j" transform="translate(148.114 17.532)"><tspan x="0" y="0">last 6 months</tspan></text><g class="p" transform="translate(21.551 32.975)"><path class="f" d="M-28.571-91.964a36.812,36.812,0,0,1,33.95,25.4A36.949,36.949,0,0,1-7.011-25.955a36.726,36.726,0,0,1-42.313,2.013l4.03-5.986A29.54,29.54,0,0,0-11.377-31.7a29.72,29.72,0,0,0,9.934-32.56A29.611,29.611,0,0,0-28.571-84.743Z" transform="translate(68.73 95.388)"/><path class="e" d="M-76.629,15.349a36.942,36.942,0,0,1-14.051-39.8l6.889,2.112A29.715,29.715,0,0,0-72.6,9.362Z" transform="translate(94.339 54.95)"/><g class="ae" transform="matrix(1, 0, 0, 1, -149.82, -263.44)"><path class="q" d="M-87.195-63.695a41.441,41.441,0,0,1,38.113-28.27V-79.6c-13.795.478-22.206,4.7-26.7,17.786Z" transform="translate(237.02 355.41)"/></g></g><ellipse class="r" cx="2.815" cy="2.822" rx="2.815" ry="2.822" transform="translate(118.238 59.028)"/><ellipse class="s" cx="2.815" cy="2.822" rx="2.815" ry="2.822" transform="translate(118.238 72.575)"/><ellipse class="t" cx="2.815" cy="2.822" rx="2.815" ry="2.822" transform="translate(118.238 85.155)"/><rect class="u" width="18.3" height="6.309" rx="2" transform="translate(167.561 59.124)"/><rect class="u" width="18.3" height="6.309" rx="2" transform="translate(167.561 72.792)"/><rect class="u" width="18.3" height="6.309" rx="2" transform="translate(167.561 85.493)"/><text class="v" transform="translate(128.419 61.072)"><tspan x="0" y="0">1,423</tspan></text><text class="v" transform="translate(128.419 74.619)"><tspan x="0" y="0">200</tspan></text><text class="v" transform="translate(129.386 87.199)"><tspan x="0" y="0">323</tspan></text></g><g transform="translate(831.804 7157.759)"><g class="b" transform="translate(0 0)"><rect class="ac" width="208.818" height="151.55" rx="1"/><rect class="ad" x="1" y="1" width="206.818" height="149.55"/></g><path class="c" d="M16222.924,2212.5h167.311" transform="translate(-16214.993 -2132.924)"/><path class="d" d="M16222.929,2113.123h165.938" transform="translate(-16214.998 -2084.967)"/><path class="d" d="M16222.929,2113.123h165.938" transform="translate(-16214.998 -2059.666)"/><path class="d" d="M16222.929,2113.123h165.938" transform="translate(-16213.367 -2008.249)"/><rect class="e" width="6.225" height="21.184" transform="translate(154.245 83.013)"/><rect class="e" width="6.225" height="13.084" transform="translate(130.591 91.113)"/><rect class="e" width="6.225" height="6.854" transform="translate(106.937 97.344)"/><rect class="e" width="6.225" height="3.738" transform="translate(83.283 100.459)"/><rect class="e" width="6.847" height="29.907" transform="translate(55.895 74.29)"/><rect class="e" width="6.847" height="16.823" transform="translate(26.638 87.375)"/><rect class="f" width="6.225" height="33.022" transform="translate(162.337 71.175)"/><rect class="f" width="6.225" height="8.1" transform="translate(138.683 96.098)"/><rect class="f" width="6.225" height="3.738" transform="translate(115.03 100.459)"/><rect class="f" width="6.225" height="6.854" transform="translate(91.375 97.344)"/><rect class="f" width="6.847" height="58.568" transform="translate(63.987 45.629)"/><rect class="f" width="6.847" height="10.592" transform="translate(34.73 93.605)"/><text class="g" transform="translate(178.011 30.829)"><tspan x="0" y="0">$15 M</tspan></text><text class="g" transform="translate(178.011 55.751)"><tspan x="0" y="0">$10 M</tspan></text><text class="g" transform="translate(178.011 80.674)"><tspan x="0" y="0">$5 M</tspan></text><text class="g" transform="translate(178.011 106.219)"><tspan x="0" y="0">$ 0 M</tspan></text><text class="w" transform="translate(26.196 113.241)"><tspan x="0" y="0" xml:space="preserve">Jan                 Feb              Mar              Apr           May          June </tspan></text><text class="i" transform="translate(10.201 17.862)"><tspan x="0" y="0">Profit and loss</tspan></text><text class="j" transform="translate(155.358 15.615)"><tspan x="0" y="0">last 6 months</tspan></text><text class="x" transform="translate(114.632 137.917)"><tspan x="0" y="0">Other Expense</tspan></text><text class="x" transform="translate(63.987 137.917)"><tspan x="0" y="0">Profit Loss</tspan></text><path class="e" d="M2.377,0A2.379,2.379,0,1,1,0,2.379,2.378,2.378,0,0,1,2.377,0Z" transform="translate(57.863 133.411)"/><ellipse class="f" cx="2.302" cy="2.304" rx="2.302" ry="2.304" transform="translate(108.558 133.411)"/><path class="f" d="M3,0H36.922a3,3,0,0,1,3,3v9.594a3,3,0,0,1-3,3H0a0,0,0,0,1,0,0V3A3,3,0,0,1,3,0Z" transform="translate(78.332 49.469)"/><rect class="y" width="15.579" height="2.924" rx="1.462" transform="translate(81.253 53.367)"/><rect class="z" width="34.079" height="2.924" rx="1.462" transform="translate(81.253 58.24)"/></g><g transform="translate(1007.219 7049.999)"><path class="aa" d="M12.92,0H106.5a12.92,12.92,0,0,1,12.92,12.92v0A12.92,12.92,0,0,1,106.5,25.84H0a0,0,0,0,1,0,0V12.92A12.92,12.92,0,0,1,12.92,0Z" transform="translate(0 0)"/><text class="ab" transform="translate(29.332 15.285)"><tspan x="0" y="0">Highest trend</tspan></text><path class="f" d="M6.342.5A5.848,5.848,0,1,0,12.2,6.348,5.845,5.845,0,0,0,6.342.5Zm.006,10.527a4.679,4.679,0,1,1,4.679-4.679A4.677,4.677,0,0,1,6.348,11.027Zm.292-7.6H5.763V6.933l3.07,1.842.439-.719L6.641,6.494Z" transform="translate(8.499 7.308)"/></g></g></svg>