<svg xmlns="http://www.w3.org/2000/svg" xmlns:xlink="http://www.w3.org/1999/xlink" width="65" height="65" viewBox="0 0 65 65"><defs><style>.a,.i{fill:#fff;}.a{stroke:#707070;}.b{fill:#f1f1f1;}.c{clip-path:url(#a);}.d{fill:#114f78;}.e{fill:#093754;}.f{fill:#f05654;}.g{fill:#b92127;}.h{fill:#e5dbe3;}.j{fill:#00d7df;}.k{fill:#00a6ac;}.l{fill:#00858a;}</style><clipPath id="a"><rect class="a" width="28" height="40" transform="translate(209 11670)"/></clipPath></defs><g transform="translate(-518 -11656)"><g transform="translate(424 3221)"><circle class="b" cx="32.5" cy="32.5" r="32.5" transform="translate(94 8435)"/></g><g class="c" transform="translate(328 -1)"><g transform="translate(209.024 11670)"><g transform="translate(0)"><path class="d" d="M37.07,138.715a.631.631,0,1,1-.631.63A.63.63,0,0,1,37.07,138.715Zm-6.16-36.841a2.711,2.711,0,0,0-2.7,2.7v34.6a2.707,2.707,0,0,0,2.7,2.7h9.179V140.9a1.6,1.6,0,0,1-.262.023,1.579,1.579,0,0,1,0-3.158,1.543,1.543,0,0,1,.262.024v-.914h-10V106.159h10v-4.285Z" transform="translate(-25.557 -101.874)"/><path class="e" d="M45.543,139.976a.631.631,0,1,1,.631-.631A.631.631,0,0,1,45.543,139.976ZM48.167,104.2c.022-.2.027-.309.027-.181A.634.634,0,0,1,48.167,104.2Zm3.535-2.323H43.049L43.007,105h.041v1.16h9.477v30.717H43.049v.914a1.577,1.577,0,0,1,0,3.111v.973H51.7a2.708,2.708,0,0,0,2.7-2.7v-34.6A2.709,2.709,0,0,0,51.7,101.874Z" transform="translate(-28.517 -101.874)"/><path class="f" d="M27.719,107.632c0-.019-.01-.038-.013-.057s.009-.062.013-.093-.006-.052-.008-.078-.005-.073-.005-.11c0,.037,0,.074.005.11s0,.052.008.078.008.063.013.093S27.723,107.613,27.719,107.632Zm.289,6.536c0-.026-.006-.052-.008-.078s-.005-.073-.005-.11v-7.246h-3.1v7.246a1.5,1.5,0,0,0,1.5,1.5h.145a1.5,1.5,0,0,0,1.464-1.165c0-.019-.01-.038-.013-.057S28,114.2,28.008,114.168Z" transform="translate(-24.895 -102.846)"/><path class="g" d="M27.995,106.187l1.931-1.951-1.843,0-3.188,1.948v.047h3.1Z" transform="translate(-24.895 -102.346)"/><path class="h" d="M28.769,106.234h3.1v-.047l1.236-1.955-2.4,0-1.931,1.951Z" transform="translate(-25.67 -102.345)"/><path class="i" d="M31.869,106.734h-3.1v7.246c0,.037,0,.074.005.11s0,.052.008.078.008.063.013.093-.009.038-.013.057a1.5,1.5,0,0,0,1.464,1.165h.145a1.529,1.529,0,0,0,1.526-1.389,1.51,1.51,0,0,1-.049-.381Z" transform="translate(-25.67 -102.846)"/><path class="f" d="M35.744,106.734h-3.1v6.98a1.5,1.5,0,0,0,1.5,1.5h.145A1.5,1.5,0,0,0,35.771,114a1.513,1.513,0,0,1-.027-.282Z" transform="translate(-26.445 -102.846)"/><path class="g" d="M32.646,106.233h3.1v-.047l.7-1.959-2.559,0-1.24,1.955v.047Z" transform="translate(-26.445 -102.344)"/><path class="h" d="M36.519,106.232h3.1v-2.01l-2.4,0-.7,1.959Z" transform="translate(-27.22 -102.343)"/><path class="i" d="M39.618,106.734h-3.1v6.98a1.505,1.505,0,0,0,1.5,1.5h.145a1.5,1.5,0,0,0,1.465-1.163,1.506,1.506,0,0,1-.014-.2Z" transform="translate(-27.22 -102.846)"/><path class="g" d="M43.493,106.23v-.015h-.008v-2l-3.091,0v1.963h0v.047Z" transform="translate(-27.995 -102.342)"/><path class="f" d="M43.493,106.734h-3.1v7.119a1.507,1.507,0,0,0,1.5,1.5h.145a1.5,1.5,0,0,0,1.478-1.222,1.517,1.517,0,0,1-.027-.282Z" transform="translate(-27.995 -102.846)"/><path class="h" d="M44.266,106.182v.047h3.1v-.047l-.769-1.971-2.339,0v1.968Z" transform="translate(-28.767 -102.341)"/><path class="i" d="M47.367,106.734h-3.1v7.119a1.505,1.505,0,0,0,1.5,1.5h.145a1.5,1.5,0,0,0,1.5-1.418,1.517,1.517,0,0,1-.051-.389Z" transform="translate(-28.769 -102.846)"/><path class="f" d="M51.242,106.734h-3.1v6.816a1.5,1.5,0,0,0,1.5,1.5h.145a1.5,1.5,0,0,0,1.465-1.162,1.531,1.531,0,0,1-.014-.2Z" transform="translate(-29.544 -102.846)"/><path class="g" d="M47.95,106.228h3.1v-.043l-.7-1.032-.643-.948-2.528,0,.769,1.971Z" transform="translate(-29.352 -102.34)"/><path class="h" d="M51.682,106.18v.047h3.1v-.034L52.658,104.2l-2.313,0,.641.948Z" transform="translate(-29.985 -102.339)"/><path class="i" d="M55.117,106.734h-3.1v6.954a1.531,1.531,0,0,0,.014.2,1.5,1.5,0,0,0,1.49,1.3h.144a1.5,1.5,0,0,0,1.478-1.223,1.5,1.5,0,0,1-.027-.282Z" transform="translate(-30.319 -102.846)"/><path class="g" d="M58.517,106.227v-.047L55.581,104.2l-2.328,0,2.111,1.979v.047Z" transform="translate(-30.566 -102.338)"/><path class="f" d="M55.892,106.734v6.954a1.506,1.506,0,0,0,1.5,1.5h.145a1.5,1.5,0,0,0,1.5-1.5v-6.954Z" transform="translate(-31.094 -102.846)"/></g></g></g><g transform="translate(544 11685)"><path class="j" d="M102.858,84.162h-8.38a.446.446,0,0,1-.438-.361L93,78.444a.446.446,0,0,1,.438-.531h10.309a.446.446,0,0,1,.44.52l-.893,5.356A.446.446,0,0,1,102.858,84.162Z" transform="translate(-90.509 -75.83)"/><path class="k" d="M12.349,10.118H4.315a.446.446,0,0,1-.438-.361L2.161.893H.446A.446.446,0,0,1,.446,0H2.529a.446.446,0,0,1,.438.361L4.683,9.225h7.666a.446.446,0,1,1,0,.893Z"/><path class="k" d="M168.3,414.5a1.339,1.339,0,1,1,1.339-1.339A1.341,1.341,0,0,1,168.3,414.5Zm0-1.785a.446.446,0,1,0,.446.446A.447.447,0,0,0,168.3,412.719Z" transform="translate(-162.492 -400.816)"/><g transform="translate(8.183 9.225)"><path class="l" d="M357.513,414.5a1.339,1.339,0,1,1,1.339-1.339A1.341,1.341,0,0,1,357.513,414.5Zm0-1.785a.446.446,0,1,0,.446.446A.447.447,0,0,0,357.513,412.719Z" transform="translate(-354.835 -410.041)"/></g><g transform="translate(5.059 3.868)"><path class="k" d="M289.837,147.373a.446.446,0,0,1-.446-.446v-1.785a.446.446,0,1,1,.893,0v1.785A.446.446,0,0,1,289.837,147.373Z" transform="translate(-286.713 -144.695)"/><path class="k" d="M189.663,147.373a.446.446,0,0,1-.446-.446v-1.785a.446.446,0,1,1,.893,0v1.785A.446.446,0,0,1,189.663,147.373Z" transform="translate(-189.217 -144.695)"/></g><g transform="translate(8.183 3.868)"><path class="l" d="M390.011,147.373a.446.446,0,0,1-.446-.446v-1.785a.446.446,0,0,1,.893,0v1.785A.446.446,0,0,1,390.011,147.373Z" transform="translate(-387.333 -144.695)"/></g></g></g></svg>