<svg xmlns="http://www.w3.org/2000/svg" width="65" height="65" viewBox="0 0 65 65"><defs><style>.a{fill:#a0a51e;}.b{fill:#fff;}</style></defs><g transform="translate(-1175 -24191)"><g transform="translate(1081 15756)"><circle class="a" cx="32.5" cy="32.5" r="32.5" transform="translate(94 8435)"/></g><g transform="translate(1193 24209)"><path class="b" d="M23.875,30H5.125A3.129,3.129,0,0,1,2,26.875V3.125A3.129,3.129,0,0,1,5.125,0h18.75A3.129,3.129,0,0,1,27,3.125v23.75A3.129,3.129,0,0,1,23.875,30ZM5.125,1.25A1.877,1.877,0,0,0,3.25,3.125v23.75A1.877,1.877,0,0,0,5.125,28.75h18.75a1.877,1.877,0,0,0,1.875-1.875V3.125A1.877,1.877,0,0,0,23.875,1.25Z"/><path class="b" d="M19.125,12.25h-2.5a.625.625,0,0,1,0-1.25h2.5a.625.625,0,0,1,0,1.25Z" transform="translate(3.5 2.75)"/><path class="b" d="M19.125,9.25h-2.5a.625.625,0,0,1,0-1.25h2.5a.625.625,0,0,1,0,1.25Z" transform="translate(3.5 2)"/><path class="b" d="M19.125,15.25h-2.5a.625.625,0,0,1,0-1.25h2.5a.625.625,0,0,1,0,1.25Z" transform="translate(3.5 3.5)"/><path class="b" d="M19.125,18.25h-2.5a.625.625,0,0,1,0-1.25h2.5a.625.625,0,0,1,0,1.25Z" transform="translate(3.5 4.25)"/><path class="b" d="M21.875,21.25H5.625a.625.625,0,0,1,0-1.25h16.25a.625.625,0,0,1,0,1.25Z" transform="translate(0.75 5)"/><path class="b" d="M11.25,20.5a6.25,6.25,0,1,1,6.25-6.25A6.257,6.257,0,0,1,11.25,20.5Zm0-11.25a5,5,0,1,0,5,5A5.005,5.005,0,0,0,11.25,9.25Z" transform="translate(0.75 2)"/><path class="b" d="M6.943,18.852A.624.624,0,0,1,6.5,17.786l3.8-3.8V8.625a.625.625,0,0,1,1.25,0V14.25a.629.629,0,0,1-.182.443L7.386,18.67A.628.628,0,0,1,6.943,18.852Z" transform="translate(1.079 2)"/></g></g></svg>