<svg xmlns="http://www.w3.org/2000/svg" xmlns:xlink="http://www.w3.org/1999/xlink" width="65" height="65" viewBox="0 0 65 65"><defs><style>.a,.j{fill:#fff;}.a{stroke:#707070;}.b{fill:#f1f1f1;}.c{clip-path:url(#a);}.d{fill:#333;}.e{fill:#3cb4c5;}.f{fill:#2599ae;}.g{fill:#e87b50;}.h{fill:#cfe4ff;}.i{fill:#fdb137;}.k{fill:#3a989c;}</style><clipPath id="a"><rect class="a" width="40" height="40" transform="translate(528 11905)"/></clipPath></defs><g transform="translate(-518 -11895)"><g transform="translate(424 3460)"><circle class="b" cx="32.5" cy="32.5" r="32.5" transform="translate(94 8435)"/></g><g class="c" transform="translate(3 3)"><g transform="translate(533.703 11905)"><g transform="translate(0 0)"><g transform="translate(0 0)"><g transform="translate(0 0)"><path class="d" d="M55.581,41.59h24.7a1.947,1.947,0,0,1,1.947,1.947V79.643A1.947,1.947,0,0,1,80.28,81.59h-24.7a1.947,1.947,0,0,1-1.947-1.947V43.537A1.947,1.947,0,0,1,55.581,41.59Z" transform="translate(-53.634 -41.59)"/><g transform="translate(2.575 3.29)"><rect class="e" width="23.713" height="6.102" transform="translate(0 0)"/></g><g transform="translate(2.575 3.29)"><path class="f" d="M57.16,51.393h-.629v-6.1H80.244v.879H57.16Z" transform="translate(-56.531 -45.291)"/></g><g transform="translate(2.575 11.133)"><path class="g" d="M62.483,56.313h-5.1a.852.852,0,0,1-.852-.852v-.495a.852.852,0,0,1,.852-.852h5.1a.852.852,0,0,1,.852.852v.495A.852.852,0,0,1,62.483,56.313Z" transform="translate(-56.531 -54.114)"/></g><g transform="translate(11.029 11.133)"><path class="g" d="M71.995,56.313h-5.1a.852.852,0,0,1-.852-.852v-.495a.852.852,0,0,1,.852-.852h5.1a.852.852,0,0,1,.852.852v.495A.852.852,0,0,1,71.995,56.313Z" transform="translate(-66.042 -54.114)"/></g><g transform="translate(19.484 11.133)"><path class="g" d="M81.506,56.313h-5.1a.852.852,0,0,1-.852-.852v-.495a.852.852,0,0,1,.852-.852h5.1a.852.852,0,0,1,.852.852v.495A.852.852,0,0,1,81.506,56.313Z" transform="translate(-75.554 -54.114)"/></g><g transform="translate(2.575 15.072)"><path class="h" d="M60.6,63.473H57.723a1.192,1.192,0,0,1-1.192-1.192V59.738a1.192,1.192,0,0,1,1.192-1.193H60.6A1.192,1.192,0,0,1,61.8,59.738v2.543A1.192,1.192,0,0,1,60.6,63.473Z" transform="translate(-56.531 -58.545)"/></g><g transform="translate(8.724 15.072)"><path class="h" d="M67.522,63.473H64.641a1.192,1.192,0,0,1-1.192-1.192V59.738a1.192,1.192,0,0,1,1.192-1.193h2.881a1.192,1.192,0,0,1,1.192,1.193v2.543A1.192,1.192,0,0,1,67.522,63.473Z" transform="translate(-63.449 -58.545)"/></g><g transform="translate(14.873 15.072)"><path class="h" d="M74.44,63.473H71.559a1.193,1.193,0,0,1-1.193-1.192V59.738a1.193,1.193,0,0,1,1.193-1.193H74.44a1.192,1.192,0,0,1,1.192,1.193v2.543A1.192,1.192,0,0,1,74.44,63.473Z" transform="translate(-70.366 -58.545)"/></g><g transform="translate(2.575 21.147)"><path class="h" d="M60.6,70.309H57.723a1.192,1.192,0,0,1-1.192-1.193V66.573a1.193,1.193,0,0,1,1.192-1.193H60.6A1.193,1.193,0,0,1,61.8,66.573v2.543A1.192,1.192,0,0,1,60.6,70.309Z" transform="translate(-56.531 -65.38)"/></g><g transform="translate(8.724 21.147)"><path class="h" d="M67.522,70.309H64.641a1.192,1.192,0,0,1-1.192-1.193V66.573a1.193,1.193,0,0,1,1.192-1.193h2.881a1.193,1.193,0,0,1,1.192,1.193v2.543A1.192,1.192,0,0,1,67.522,70.309Z" transform="translate(-63.449 -65.38)"/></g><g transform="translate(14.873 21.147)"><path class="h" d="M74.44,70.309H71.559a1.193,1.193,0,0,1-1.193-1.193V66.573a1.193,1.193,0,0,1,1.193-1.193H74.44a1.193,1.193,0,0,1,1.192,1.193v2.543A1.192,1.192,0,0,1,74.44,70.309Z" transform="translate(-70.366 -65.38)"/></g><g transform="translate(21.022 15.072)"><path class="i" d="M81.477,58.545h-3.12a1.073,1.073,0,0,0-1.073,1.073v8.859a1.073,1.073,0,0,0,1.073,1.073h3.12a1.073,1.073,0,0,0,1.073-1.073V59.618A1.073,1.073,0,0,0,81.477,58.545Z" transform="translate(-77.284 -58.545)"/></g><g transform="translate(2.575 27.223)"><path class="h" d="M60.6,77.144H57.723a1.192,1.192,0,0,1-1.192-1.193V73.408a1.192,1.192,0,0,1,1.192-1.192H60.6A1.192,1.192,0,0,1,61.8,73.408v2.543A1.192,1.192,0,0,1,60.6,77.144Z" transform="translate(-56.531 -72.216)"/></g><g transform="translate(8.724 27.223)"><path class="h" d="M67.522,77.144H64.641a1.192,1.192,0,0,1-1.192-1.193V73.408a1.192,1.192,0,0,1,1.192-1.192h2.881a1.192,1.192,0,0,1,1.192,1.192v2.543A1.192,1.192,0,0,1,67.522,77.144Z" transform="translate(-63.449 -72.216)"/></g><g transform="translate(14.873 27.223)"><path class="h" d="M74.44,77.144H71.559a1.193,1.193,0,0,1-1.193-1.193V73.408a1.193,1.193,0,0,1,1.193-1.192H74.44a1.192,1.192,0,0,1,1.192,1.192v2.543A1.192,1.192,0,0,1,74.44,77.144Z" transform="translate(-70.366 -72.216)"/></g><g transform="translate(21.022 27.223)"><path class="i" d="M81.357,77.144H78.477a1.192,1.192,0,0,1-1.193-1.193V73.408a1.192,1.192,0,0,1,1.193-1.192h2.881a1.192,1.192,0,0,1,1.193,1.192v2.543A1.192,1.192,0,0,1,81.357,77.144Z" transform="translate(-77.284 -72.216)"/></g><g transform="translate(2.575 33.299)"><path class="h" d="M60.6,83.979H57.723a1.192,1.192,0,0,1-1.192-1.192V80.243a1.192,1.192,0,0,1,1.192-1.192H60.6A1.192,1.192,0,0,1,61.8,80.243v2.544A1.192,1.192,0,0,1,60.6,83.979Z" transform="translate(-56.531 -79.051)"/></g><g transform="translate(8.724 33.299)"><path class="h" d="M67.522,83.979H64.641a1.192,1.192,0,0,1-1.192-1.192V80.243a1.192,1.192,0,0,1,1.192-1.192h2.881a1.192,1.192,0,0,1,1.192,1.192v2.544A1.192,1.192,0,0,1,67.522,83.979Z" transform="translate(-63.449 -79.051)"/></g><g transform="translate(14.873 33.299)"><path class="i" d="M74.44,83.979H71.559a1.193,1.193,0,0,1-1.193-1.192V80.243a1.193,1.193,0,0,1,1.193-1.192H74.44a1.192,1.192,0,0,1,1.192,1.192v2.544A1.192,1.192,0,0,1,74.44,83.979Z" transform="translate(-70.366 -79.051)"/></g><g transform="translate(21.022 33.299)"><path class="g" d="M81.357,83.979H78.477a1.192,1.192,0,0,1-1.193-1.192V80.243a1.192,1.192,0,0,1,1.193-1.192h2.881a1.192,1.192,0,0,1,1.193,1.192v2.544A1.192,1.192,0,0,1,81.357,83.979Z" transform="translate(-77.284 -79.051)"/></g><g transform="translate(4.348 28.392)"><path class="j" d="M60.286,73.531v.249l-1.216,2.543H58.68l1.212-2.47v-.008H58.525v-.313Z" transform="translate(-58.525 -73.531)"/></g><g transform="translate(10.435 28.345)"><path class="j" d="M65.837,74.2c0,.279.211.429.533.515A.55.55,0,0,0,66.8,74.2a.434.434,0,0,0-.472-.455A.444.444,0,0,0,65.837,74.2Zm1.04,1.4c0-.339-.236-.5-.614-.61a.606.606,0,0,0-.5.576.516.516,0,0,0,.558.533A.505.505,0,0,0,66.877,75.591Zm-1.5.017a.8.8,0,0,1,.554-.748l0-.013a.692.692,0,0,1-.442-.627.782.782,0,0,1,.863-.743.721.721,0,0,1,.812.687.709.709,0,0,1-.46.653v.013a.775.775,0,0,1,.563.722.86.86,0,0,1-.949.812C65.726,76.365,65.374,76.016,65.374,75.609Z" transform="translate(-65.374 -73.478)"/></g><g transform="translate(10.431 34.346)"><path class="j" d="M65.747,81.685c0,.726.224,1.139.567,1.139.387,0,.571-.451.571-1.164,0-.687-.176-1.138-.567-1.138C65.987,80.521,65.747,80.925,65.747,81.685Zm1.516-.043c0,.949-.352,1.473-.971,1.473-.545,0-.915-.511-.924-1.435s.4-1.452.971-1.452C66.928,80.229,67.263,80.753,67.263,81.642Z" transform="translate(-65.369 -80.229)"/></g><g transform="translate(16.69 28.345)"><path class="j" d="M72.784,74.444a.537.537,0,0,0,.537.593.625.625,0,0,0,.55-.292.249.249,0,0,0,.034-.137c0-.477-.176-.842-.571-.842C73.011,73.766,72.784,74.049,72.784,74.444Zm-.138,1.607a1.552,1.552,0,0,0,.305-.013,1.053,1.053,0,0,0,.584-.27,1.227,1.227,0,0,0,.37-.743h-.013a.82.82,0,0,1-.657.3.809.809,0,0,1-.825-.855.957.957,0,0,1,.953-.992c.571,0,.924.464.924,1.177a1.762,1.762,0,0,1-.481,1.31,1.4,1.4,0,0,1-.812.374,1.757,1.757,0,0,1-.348.021Z" transform="translate(-72.41 -73.478)"/></g><g transform="translate(4.168 22.198)"><path class="j" d="M59.62,68.3v-.932q0-.219.013-.438H59.62c-.086.163-.155.283-.232.412l-.683.949V68.3Zm0,1.057v-.76h-1.3v-.249l1.245-1.782h.408V68.3h.391v.3h-.391v.76Z" transform="translate(-58.323 -66.562)"/></g><g transform="translate(10.457 22.198)"><path class="j" d="M67.077,66.88H66.012L65.9,67.6a1.455,1.455,0,0,1,.228-.017,1.178,1.178,0,0,1,.6.15.8.8,0,0,1,.4.717.968.968,0,0,1-1.039.953,1.367,1.367,0,0,1-.7-.171l.094-.288a1.248,1.248,0,0,0,.6.155.616.616,0,0,0,.662-.606c0-.361-.245-.618-.8-.618a2.889,2.889,0,0,0-.387.03l.181-1.34h1.336Z" transform="translate(-65.398 -66.562)"/></g><g transform="translate(16.66 22.155)"><path class="j" d="M73.909,68.434a.567.567,0,0,0-.575-.64.622.622,0,0,0-.541.344.321.321,0,0,0-.043.167c.008.46.219.8.614.8C73.69,69.1,73.909,68.833,73.909,68.434Zm.107-1.611a1.367,1.367,0,0,0-.283.017,1.135,1.135,0,0,0-.971.992h.013a.851.851,0,0,1,1.517.58.934.934,0,0,1-.928.984c-.6,0-.988-.464-.988-1.19a1.755,1.755,0,0,1,.472-1.258,1.518,1.518,0,0,1,.894-.412,1.8,1.8,0,0,1,.275-.022Z" transform="translate(-72.376 -66.514)"/></g><g transform="translate(4.55 16.262)"><path class="j" d="M59.32,60.236h-.009l-.485.262-.073-.288.61-.326h.322v2.792H59.32Z" transform="translate(-58.752 -59.884)"/></g><g transform="translate(10.469 16.214)"><path class="j" d="M65.412,62.67v-.232l.3-.288c.713-.679,1.035-1.04,1.04-1.46a.5.5,0,0,0-.554-.545.952.952,0,0,0-.593.236l-.12-.266a1.225,1.225,0,0,1,.79-.284.786.786,0,0,1,.855.812c0,.515-.374.932-.962,1.5l-.224.206v.008h1.254v.313Z" transform="translate(-65.412 -59.83)"/></g><g transform="translate(16.694 16.214)"><path class="j" d="M72.518,62.236a1.265,1.265,0,0,0,.618.176c.485,0,.636-.309.631-.541,0-.391-.356-.558-.721-.558h-.211v-.284h.211c.275,0,.623-.142.623-.472,0-.224-.142-.421-.489-.421a1.025,1.025,0,0,0-.558.185l-.1-.275a1.327,1.327,0,0,1,.73-.215c.549,0,.8.326.8.666a.694.694,0,0,1-.516.657v.008a.727.727,0,0,1,.623.717c0,.447-.348.838-1.018.838a1.423,1.423,0,0,1-.726-.189Z" transform="translate(-72.415 -59.83)"/></g><g transform="translate(4.871 36.48)"><path class="j" d="M59.787,82.967a.337.337,0,1,1-.336-.337A.337.337,0,0,1,59.787,82.967Z" transform="translate(-59.114 -82.63)"/></g><g transform="translate(21.655 18.979)"><path class="j" d="M82,64.714H80.224V62.941h-.456v1.772H78v.456h1.772v1.772h.456V65.169H82Z" transform="translate(-77.996 -62.941)"/></g><g transform="translate(16.326 34.694)"><path class="j" d="M74.36,82.738l-.938-.938.938-.938-.241-.241-.938.938-.938-.938L72,80.861l.938.938L72,82.738l.241.241.938-.938.938.938Z" transform="translate(-72.001 -80.62)"/></g><g transform="translate(22.062 29.59)"><rect class="j" width="2.968" height="0.455"/></g><g transform="translate(22.171 34.844)"><rect class="j" width="2.969" height="0.454"/></g><g transform="translate(22.171 35.988)"><rect class="j" width="2.969" height="0.455"/></g><g transform="translate(13.565 5.874)"><path class="k" d="M68.895,48.553l.157-.355h0Z" transform="translate(-68.895 -48.198)"/></g></g></g></g></g></g></g></svg>