<svg xmlns="http://www.w3.org/2000/svg" width="65" height="65" viewBox="0 0 65 65"><defs><style>.a{fill:#a51e34;}.b{fill:#fff;}</style></defs><g transform="translate(-851 -24419)"><g transform="translate(757 15984)"><circle class="a" cx="32.5" cy="32.5" r="32.5" transform="translate(94 8435)"/></g><g transform="translate(813.403 24438)"><g transform="translate(58.597 0.001)"><g transform="translate(0 0)"><path class="b" d="M81.147,5.785,70.535.13a1.1,1.1,0,0,0-1.048.006L59.169,5.791a1.1,1.1,0,0,0-.572.966v8a15.868,15.868,0,0,0,9.511,14.522l1.432.624a1.1,1.1,0,0,0,.877,0l1.612-.7a15.837,15.837,0,0,0,9.7-14.6V6.757A1.1,1.1,0,0,0,81.147,5.785Zm-1.62,8.83a13.636,13.636,0,0,1-8.36,12.572l-.008,0-1.177.508-.992-.433a13.663,13.663,0,0,1-8.19-12.5V7.41l9.224-5.055,9.5,5.064v7.2Z" transform="translate(-58.597 -0.001)"/></g></g><g transform="translate(64.619 11.641)"><g transform="translate(0)"><path class="b" d="M172.619,199.069a1.1,1.1,0,0,0-1.55-.159l-5.665,4.609-2.092-2.45a1.1,1.1,0,0,0-1.675,1.431l2.791,3.268a1.1,1.1,0,0,0,1.533.139l6.5-5.287A1.1,1.1,0,0,0,172.619,199.069Z" transform="translate(-161.373 -198.663)"/></g></g></g></g></svg>