<svg xmlns="http://www.w3.org/2000/svg" width="51.958" height="27.382" viewBox="0 0 51.958 27.382"><defs><style>.a{fill:#646464;}</style></defs><path class="a" d="M19.608,51.052c3.08-.544,4.57-5.893,5.79-8.235,1.092-2.1-2.233-4.209-3.58-2.2-.373.557-.754,1.1-1.136,1.637C20.622,26.555,13.945,9.192,1.042.142A.658.658,0,0,0,.214,1.165C6.319,7.541,11.492,13.971,14.649,22.342a50.829,50.829,0,0,1,3.1,21.432c-.5-.706-1.011-1.4-1.576-2.064a2.208,2.208,0,0,0-3.589,2.568C13.868,46.437,16.4,51.619,19.608,51.052Z" transform="matrix(-0.035, 0.999, -0.999, -0.035, 51.958, 1.783)"/></svg>