<svg xmlns="http://www.w3.org/2000/svg" width="65" height="65" viewBox="0 0 65 65"><defs><style>.a{fill:#a56b1e;}.b{fill:#fff;}</style></defs><g transform="translate(-519 -24178)"><g transform="translate(425 15743)"><circle class="a" cx="32.5" cy="32.5" r="32.5" transform="translate(94 8435)"/></g><g transform="translate(532 24140.217)"><g transform="translate(0 62.959)"><path class="b" d="M37.238,172.069H34.97v-15a1.125,1.125,0,0,0-1.126-1.124H27.625a1.125,1.125,0,0,0-1.126,1.124v15h-3.08V152.618a1.125,1.125,0,0,0-1.126-1.124H16.072a1.125,1.125,0,0,0-1.126,1.124v19.451h-3.08V155.883a1.125,1.125,0,0,0-1.126-1.124H4.52a1.125,1.125,0,0,0-1.126,1.124v16.186H1.126a1.124,1.124,0,1,0,0,2.249H37.238a1.124,1.124,0,1,0,0-2.249Zm-31.591,0V157.007H9.613v15.062Zm11.552,0V153.742h3.966v18.327Zm11.552,0V158.2h3.966v13.872Z" transform="translate(0 -151.493)"/></g><path class="b" d="M44.944,60.063a1.126,1.126,0,0,0-.864-1.193l-3.633-.883a1.124,1.124,0,0,0-.531,2.185l1.028.25-2.913,1.8L26.985,55.931a1.124,1.124,0,0,0-1.034-.041L14.972,61.044,9.723,57.768a1.124,1.124,0,1,0-1.191,1.908l5.768,3.6a1.124,1.124,0,0,0,1.073.064l11.005-5.166L37.5,64.5a1.161,1.161,0,0,0,1.147-.02L42.175,62.3l-.235,1.1a1.125,1.125,0,0,0,2.2.47l.78-3.65a1.3,1.3,0,0,0,.025-.162Z" transform="translate(-7.403)"/></g></g></svg>