<svg xmlns="http://www.w3.org/2000/svg" width="158.453" height="44.139" viewBox="0 0 158.453 44.139">
  <g id="lp-aio-coming-in-qa-2020" transform="translate(-1009.047 -20471.861)">
    <path id="lp-aio-arrow-01" d="M19.608,51.052c3.08-.544,4.57-5.893,5.79-8.235,1.092-2.1-2.233-4.209-3.58-2.2-.373.557-.754,1.1-1.136,1.637C20.622,26.555,13.945,9.192,1.042.142A.658.658,0,0,0,.214,1.165C6.319,7.541,11.492,13.971,14.649,22.342a50.829,50.829,0,0,1,3.1,21.432c-.5-.706-1.011-1.4-1.576-2.064a2.208,2.208,0,0,0-3.589,2.568C13.868,46.437,16.4,51.619,19.608,51.052Z" transform="matrix(-0.035, 0.999, -0.999, -0.035, 1061.005, 20490.4)" fill="#646464"/>
    <path id="Path_14441" data-name="Path 14441" d="M-56.539-6.445a2.681,2.681,0,0,1,.789.117,2.489,2.489,0,0,1,.676.316,1.831,1.831,0,0,1,.473.453.89.89,0,0,1,.18.52.818.818,0,0,1-.07.332.949.949,0,0,1-.187.281.973.973,0,0,1-.266.2.69.69,0,0,1-.312.074.474.474,0,0,1-.328-.137q-.148-.137-.316-.3a2.394,2.394,0,0,0-.375-.3.88.88,0,0,0-.5-.137.985.985,0,0,0-.508.133,1.12,1.12,0,0,0-.379.371,1.9,1.9,0,0,0-.234.563,2.878,2.878,0,0,0-.082.707A2.831,2.831,0,0,0-57.562-1.6a1.375,1.375,0,0,0,1.188.574,1.532,1.532,0,0,0,.629-.117,2.738,2.738,0,0,0,.461-.258l.363-.258a.572.572,0,0,1,.336-.117.351.351,0,0,1,.188.059.7.7,0,0,1,.168.148.918.918,0,0,1,.125.2.516.516,0,0,1,.051.219.8.8,0,0,1-.254.531,2.635,2.635,0,0,1-.652.5,4.186,4.186,0,0,1-.887.363A3.423,3.423,0,0,1-56.8.383,2.668,2.668,0,0,1-57.93.145,2.662,2.662,0,0,1-58.82-.52a3.034,3.034,0,0,1-.582-1.02,3.965,3.965,0,0,1-.207-1.312,4.312,4.312,0,0,1,.23-1.437,3.534,3.534,0,0,1,.641-1.137,2.933,2.933,0,0,1,.973-.75A2.8,2.8,0,0,1-56.539-6.445Zm2.781,3.852a1.6,1.6,0,0,1,.031-.3A1.924,1.924,0,0,0-53.7-3.25a.225.225,0,0,0-.113-.2l-.254-.156a1.059,1.059,0,0,1-.254-.219.574.574,0,0,1-.113-.383.747.747,0,0,1,.1-.359,1.079,1.079,0,0,1,.285-.328,8.307,8.307,0,0,1,.957-.617,7.686,7.686,0,0,1,.992-.461,6.611,6.611,0,0,1,.98-.289,4.53,4.53,0,0,1,.93-.1,3.6,3.6,0,0,1,1.41.277,3.615,3.615,0,0,1,1.148.758,3.612,3.612,0,0,1,.773,1.125,3.37,3.37,0,0,1,.285,1.379,3.185,3.185,0,0,1-.3,1.363A3.719,3.719,0,0,1-47.68-.336a3.861,3.861,0,0,1-1.191.77,3.707,3.707,0,0,1-1.441.285,3.709,3.709,0,0,1-1.375-.25,3.332,3.332,0,0,1-1.094-.691A3.13,3.13,0,0,1-53.5-1.27,3.345,3.345,0,0,1-53.758-2.594Zm3.617,1.906a1.919,1.919,0,0,0,.68-.133,2.125,2.125,0,0,0,.645-.387,2.089,2.089,0,0,0,.484-.621,1.765,1.765,0,0,0,.191-.828,2.222,2.222,0,0,0-.172-.875,2.2,2.2,0,0,0-.473-.707,2.191,2.191,0,0,0-.711-.473,2.271,2.271,0,0,0-.887-.172,1.826,1.826,0,0,0-1.328.449,1.848,1.848,0,0,0-.461,1.379,2.821,2.821,0,0,0,.152.941,2.3,2.3,0,0,0,.426.75,1.991,1.991,0,0,0,.645.5A1.831,1.831,0,0,0-50.141-.687ZM-44.859.336q-.055-1.039-.176-1.918t-.25-1.535q-.129-.656-.227-1.062a3.162,3.162,0,0,1-.1-.508.457.457,0,0,1,.113-.289,1.1,1.1,0,0,1,.285-.246,1.652,1.652,0,0,1,.371-.168,1.224,1.224,0,0,1,.363-.062.528.528,0,0,1,.23.047.263.263,0,0,1,.137.156q.039.133.074.277t.074.348q.047.289.125.289t.2-.258a2.835,2.835,0,0,1,.336-.594,1.615,1.615,0,0,1,.387-.371,1.371,1.371,0,0,1,.43-.191,1.942,1.942,0,0,1,.465-.055,1.6,1.6,0,0,1,1.246.578,4.071,4.071,0,0,1,.8,1.672.5.5,0,0,0,.07.16.093.093,0,0,0,.07.035.132.132,0,0,0,.082-.035.338.338,0,0,0,.082-.145,3.762,3.762,0,0,1,.438-.863,2.928,2.928,0,0,1,.52-.578,1.863,1.863,0,0,1,.551-.324,1.586,1.586,0,0,1,.539-.1,1.26,1.26,0,0,1,.863.348,2.945,2.945,0,0,1,.688,1.07,9.958,9.958,0,0,1,.523,1.828q.223,1.105.371,2.621a.65.65,0,0,1-.258.59,1.277,1.277,0,0,1-.7.168.732.732,0,0,1-.453-.125.464.464,0,0,1-.187-.328Q-36.883-.32-37-1.168t-.262-1.43a3.714,3.714,0,0,0-.309-.887q-.168-.3-.371-.3a.419.419,0,0,0-.254.148,1.786,1.786,0,0,0-.324.543,8.315,8.315,0,0,0-.359,1.078,17.157,17.157,0,0,0-.359,1.746.634.634,0,0,1-.285.453,1.038,1.038,0,0,1-.582.156A.9.9,0,0,1-40.66.211a.558.558,0,0,1-.168-.422q-.031-.516-.105-1.027t-.184-.977q-.109-.465-.242-.859a5.2,5.2,0,0,0-.281-.687,1.927,1.927,0,0,0-.3-.457.437.437,0,0,0-.3-.164q-.2,0-.379.273a2.815,2.815,0,0,0-.328.773,7.8,7.8,0,0,0-.23,1.2,13.026,13.026,0,0,0-.086,1.57q0,.148.008.293t.008.3a.857.857,0,0,1-.074.383.574.574,0,0,1-.211.234.867.867,0,0,1-.316.117A2.283,2.283,0,0,1-44.25.8,1.429,1.429,0,0,1-44.562.77a.412.412,0,0,1-.18-.082.28.28,0,0,1-.086-.145A1.121,1.121,0,0,1-44.859.336Zm11.836-8.3a1.338,1.338,0,0,1-.426-.066,1.042,1.042,0,0,1-.344-.187.935.935,0,0,1-.23-.285.763.763,0,0,1-.086-.359.641.641,0,0,1,.262-.531,1.11,1.11,0,0,1,.7-.2,1.052,1.052,0,0,1,.391.074,1.15,1.15,0,0,1,.332.2.966.966,0,0,1,.23.293.754.754,0,0,1,.086.348.631.631,0,0,1-.246.527A1.061,1.061,0,0,1-33.023-7.969Zm-1.07,2.383a.536.536,0,0,1,.238-.449,1.035,1.035,0,0,1,.629-.176q.7,0,.75.484.031.336.066.758t.07.895q.035.473.063.977t.051.992q.023.488.039.941t.016.828a.669.669,0,0,1-.277.586,1.4,1.4,0,0,1-.809.2.577.577,0,0,1-.379-.113A.406.406,0,0,1-33.773,0q0-1.078-.051-2.02T-33.934-3.7q-.059-.734-.109-1.223T-34.094-5.586Zm3.5-.719a.346.346,0,0,1,.1-.23.992.992,0,0,1,.266-.2,1.779,1.779,0,0,1,.371-.148,1.528,1.528,0,0,1,.418-.059.319.319,0,0,1,.2.063.512.512,0,0,1,.145.238,2.922,2.922,0,0,1,.113.492q.051.316.1.824a2.116,2.116,0,0,0,.059.238q.027.082.074.082.07,0,.141-.242.57-1.648,1.648-1.648a1.466,1.466,0,0,1,.91.313,2.9,2.9,0,0,1,.766,1.02,10.482,10.482,0,0,1,.676,1.859q.32,1.152.641,2.84.016.086.023.156a1.205,1.205,0,0,1,.008.133.563.563,0,0,1-.082.309.665.665,0,0,1-.215.211,1.083,1.083,0,0,1-.3.125,1.29,1.29,0,0,1-.328.043,1.157,1.157,0,0,1-.473-.07.349.349,0,0,1-.184-.266q-.227-1.188-.441-2.109t-.422-1.551a4.649,4.649,0,0,0-.41-.957q-.2-.328-.406-.328a.481.481,0,0,0-.379.254,2.972,2.972,0,0,0-.34.793,12.739,12.739,0,0,0-.316,1.367q-.152.828-.293,1.977a.689.689,0,0,1-.312.5,1.2,1.2,0,0,1-.7.188.681.681,0,0,1-.43-.117.431.431,0,0,1-.164-.32q-.07-1.625-.152-2.676t-.152-1.687q-.07-.637-.117-.949A3.46,3.46,0,0,1-30.594-6.3Zm11.6.211a4.136,4.136,0,0,1,.711.059q.336.059.609.125t.469.125a1.131,1.131,0,0,0,.281.059.176.176,0,0,0,.133-.074,1.758,1.758,0,0,1,.156-.16,1.011,1.011,0,0,1,.25-.16.974.974,0,0,1,.414-.074.682.682,0,0,1,.469.152.486.486,0,0,1,.172.379q0,2.859-.2,4.855a14.268,14.268,0,0,1-.633,3.246A3.95,3.95,0,0,1-17.289,4.25a2.6,2.6,0,0,1-1.687.563,2.446,2.446,0,0,1-.941-.2,3.862,3.862,0,0,1-.895-.52,3.126,3.126,0,0,1-.668-.7,1.31,1.31,0,0,1-.262-.734.467.467,0,0,1,.125-.273,2.1,2.1,0,0,1,.3-.3,2.136,2.136,0,0,1,.375-.25.757.757,0,0,1,.336-.1.314.314,0,0,1,.25.121,1.537,1.537,0,0,1,.191.3q.09.18.184.395a1.815,1.815,0,0,0,.234.395,1.234,1.234,0,0,0,.344.3.977.977,0,0,0,.508.121q1.7,0,2-5.2,0-.234-.133-.234a.191.191,0,0,0-.172.109A4.872,4.872,0,0,1-18.91-.48a4.75,4.75,0,0,1-2.176.5,3.014,3.014,0,0,1-1.023-.168,2.454,2.454,0,0,1-.809-.469,2.092,2.092,0,0,1-.527-.719,2.217,2.217,0,0,1-.187-.918,2.812,2.812,0,0,1,.176-.973,3.571,3.571,0,0,1,.492-.906,4.458,4.458,0,0,1,.754-.785,5.214,5.214,0,0,1,.953-.621,5.208,5.208,0,0,1,1.09-.406A4.8,4.8,0,0,1-18.992-6.094Zm-1.852,4.672A3.171,3.171,0,0,0-18.883-2.1a5.383,5.383,0,0,0,1.523-1.965q.016-.047.023-.074a.212.212,0,0,0,.008-.059q0-.078-.164-.164a1.857,1.857,0,0,0-.43-.148,5.891,5.891,0,0,0-.605-.105,5.444,5.444,0,0,0-.684-.043,3.108,3.108,0,0,0-1.07.188,3.291,3.291,0,0,0-.914.5,2.658,2.658,0,0,0-.641.711,1.572,1.572,0,0,0-.242.828.894.894,0,0,0,.34.734A1.384,1.384,0,0,0-20.844-1.422ZM-9.062-7.969a1.338,1.338,0,0,1-.426-.066,1.042,1.042,0,0,1-.344-.187.935.935,0,0,1-.23-.285.763.763,0,0,1-.086-.359A.641.641,0,0,1-9.887-9.4a1.11,1.11,0,0,1,.7-.2,1.052,1.052,0,0,1,.391.074,1.15,1.15,0,0,1,.332.2.966.966,0,0,1,.23.293.754.754,0,0,1,.086.348.631.631,0,0,1-.246.527A1.061,1.061,0,0,1-9.062-7.969Zm-1.07,2.383a.536.536,0,0,1,.238-.449,1.035,1.035,0,0,1,.629-.176q.7,0,.75.484.031.336.066.758t.07.895q.035.473.063.977t.051.992q.023.488.039.941t.016.828A.669.669,0,0,1-8.488.25a1.4,1.4,0,0,1-.809.2A.577.577,0,0,1-9.676.332.406.406,0,0,1-9.812,0q0-1.078-.051-2.02T-9.973-3.7q-.059-.734-.109-1.223T-10.133-5.586Zm3.5-.719a.346.346,0,0,1,.1-.23.992.992,0,0,1,.266-.2,1.779,1.779,0,0,1,.371-.148,1.528,1.528,0,0,1,.418-.059.319.319,0,0,1,.2.063.512.512,0,0,1,.145.238,2.922,2.922,0,0,1,.113.492q.051.316.1.824a2.115,2.115,0,0,0,.059.238q.027.082.074.082.07,0,.141-.242Q-4.078-6.9-3-6.9a1.466,1.466,0,0,1,.91.313,2.9,2.9,0,0,1,.766,1.02A10.482,10.482,0,0,1-.648-3.707q.32,1.152.641,2.84.016.086.023.156a1.206,1.206,0,0,1,.008.133A.563.563,0,0,1-.059-.27a.665.665,0,0,1-.215.211,1.083,1.083,0,0,1-.3.125A1.29,1.29,0,0,1-.9.109a1.157,1.157,0,0,1-.473-.07.349.349,0,0,1-.184-.266Q-1.781-1.414-2-2.336t-.422-1.551a4.649,4.649,0,0,0-.41-.957q-.2-.328-.406-.328a.481.481,0,0,0-.379.254,2.972,2.972,0,0,0-.34.793A12.739,12.739,0,0,0-4.27-2.758q-.152.828-.293,1.977a.689.689,0,0,1-.312.5,1.2,1.2,0,0,1-.7.188A.681.681,0,0,1-6-.211a.431.431,0,0,1-.164-.32q-.07-1.625-.152-2.676t-.152-1.687q-.07-.637-.117-.949A3.46,3.46,0,0,1-6.633-6.3ZM9.227-3.07a.913.913,0,0,1-.047-.273.611.611,0,0,1,.4-.562l.273-.129q.109-.051.184-.078a.7.7,0,0,1,.121-.035.569.569,0,0,1,.094-.008.386.386,0,0,1,.313.176,1.866,1.866,0,0,1,.238.445,5.379,5.379,0,0,1,.188.578q.082.309.172.578a2.266,2.266,0,0,0,.2.445.3.3,0,0,0,.254.176.474.474,0,0,0,.324-.152,1.655,1.655,0,0,0,.293-.387,2.46,2.46,0,0,0,.215-.508,1.821,1.821,0,0,0,.082-.523,3.229,3.229,0,0,0-.3-1.426A3.438,3.438,0,0,0,11.43-5.82a3.416,3.416,0,0,0-1.1-.668,3.456,3.456,0,0,0-1.223-.23,3.52,3.52,0,0,0-1.2.172,1.692,1.692,0,0,0-.738.5,1.855,1.855,0,0,0-.375.793A4.86,4.86,0,0,0,6.7-4.2a2.387,2.387,0,0,0,.172.887,2.678,2.678,0,0,0,.5.8,3.353,3.353,0,0,0,.8.648,3.806,3.806,0,0,0,1.086.422.18.18,0,0,0,.063.016h.063a.262.262,0,0,0,.2-.078.272.272,0,0,0,.074-.2.341.341,0,0,0-.008-.074q-.008-.035-.023-.09ZM5.078-4.141q0-.086.008-.211t.008-.258a2.014,2.014,0,0,0-.016-.25.906.906,0,0,0-.059-.23A.509.509,0,0,0,4.9-5.27a.348.348,0,0,0-.2-.09.355.355,0,0,1-.23-.113.339.339,0,0,1-.09-.238.7.7,0,0,1,.148-.414,3.722,3.722,0,0,1,.871-.934,4.774,4.774,0,0,1,1.121-.629A6.29,6.29,0,0,1,7.8-8.043a8.115,8.115,0,0,1,1.352-.113,5.163,5.163,0,0,1,1.125.129,5.459,5.459,0,0,1,1.129.387,5.715,5.715,0,0,1,1.043.633,4.324,4.324,0,0,1,.859.871,4.2,4.2,0,0,1,.582,1.1A3.934,3.934,0,0,1,14.1-3.711a4.061,4.061,0,0,1-.141,1.1,3.474,3.474,0,0,1-.395.906,3.259,3.259,0,0,1-.613.723,3.712,3.712,0,0,1-.8.535.367.367,0,0,0-.258.352q0,.023,0,.051a.16.16,0,0,0,.008.051.173.173,0,0,0,.008.055q.039.211.105.52t.133.641q.066.332.113.641a3.56,3.56,0,0,1,.047.52.6.6,0,0,1-.547.609,3.1,3.1,0,0,1-.312.059,1.924,1.924,0,0,1-.2.02q-.477,0-.547-.555-.07-.539-.176-1.055T10.313.43a.541.541,0,0,0-.129-.258A.269.269,0,0,0,9.992.094H9.766a5.12,5.12,0,0,1-1.9-.34,4.627,4.627,0,0,1-1.48-.922,4.174,4.174,0,0,1-.965-1.348A3.922,3.922,0,0,1,5.078-4.141Zm16.43,1.375a.69.69,0,0,1,.414.141.453.453,0,0,1,.148.367.893.893,0,0,1-.023.18q-.023.109-.055.219t-.062.2a.5.5,0,0,1-.055.121.28.28,0,0,1-.168.172q-.105.031-.207.051a.427.427,0,0,0-.172.07q-.07.051-.07.223a1.345,1.345,0,0,0,.039.289q.039.172.086.367t.086.4A1.962,1.962,0,0,1,21.508.4a.578.578,0,0,1-.461.594q-.164.055-.273.086t-.187.047a1.093,1.093,0,0,1-.133.02q-.055,0-.109,0a.289.289,0,0,1-.219-.1.89.89,0,0,1-.164-.281,3.106,3.106,0,0,1-.129-.437q-.059-.258-.113-.57-.07-.352-.121-.578a1.527,1.527,0,0,0-.117-.355.442.442,0,0,0-.148-.18.511.511,0,0,0-.207-.066l-1.484-.117q-.227-.016-.512-.043t-.586-.078a4.366,4.366,0,0,1-.586-.141,2.164,2.164,0,0,1-.508-.23,1.216,1.216,0,0,1-.359-.34.828.828,0,0,1-.137-.48,1.263,1.263,0,0,1,.063-.395,2.6,2.6,0,0,1,.156-.375q.094-.184.207-.363t.215-.352a12.5,12.5,0,0,1,.9-1.324q.5-.637.965-1.285a.859.859,0,0,0,.2-.539.952.952,0,0,0-.039-.262A.928.928,0,0,1,17.578-8a.357.357,0,0,1,.09-.258.558.558,0,0,1,.227-.141,1.308,1.308,0,0,1,.3-.062q.164-.016.32-.016a.921.921,0,0,1,.6.16.849.849,0,0,1,.266.371,1.33,1.33,0,0,1,.078.418,1.205,1.205,0,0,0,.035.309q.3,1.039.617,2.051T20.7-3.117a.4.4,0,0,0,.156.25.632.632,0,0,0,.289.086Zm-3.227-.18a1.841,1.841,0,0,0,.188.023q.1.008.18.008a.344.344,0,0,0,.223-.066.232.232,0,0,0,.082-.191.459.459,0,0,0-.008-.082.656.656,0,0,0-.023-.09q-.055-.172-.105-.355t-.109-.387q-.059-.2-.133-.434t-.184-.5A.723.723,0,0,0,18.3-5.2a.225.225,0,0,0-.2-.1.36.36,0,0,0-.273.18q-.273.383-.527.75t-.48.75a.612.612,0,0,0-.078.258.237.237,0,0,0,.074.18.385.385,0,0,0,.2.094ZM28.328-6.336a.96.96,0,0,1-.234.273.457.457,0,0,1-.281.094A.6.6,0,0,1,27.641-6a2.726,2.726,0,0,1-.3-.125.593.593,0,0,1-.367-.516.648.648,0,0,1,.109-.352,3.43,3.43,0,0,1,.5-.605,3.081,3.081,0,0,1,.648-.48,3.461,3.461,0,0,1,.8-.32,3.753,3.753,0,0,1,.965-.117,3.169,3.169,0,0,1,1.023.164,2.693,2.693,0,0,1,.852.465,2.2,2.2,0,0,1,.582.734,2.161,2.161,0,0,1,.215.973,3.226,3.226,0,0,1-.258,1.262,6.127,6.127,0,0,1-.668,1.188,8.877,8.877,0,0,1-.926,1.094q-.516.52-1.031.973a.449.449,0,0,0-.121.141.3.3,0,0,0-.035.133.173.173,0,0,0,.082.145.407.407,0,0,0,.238.059q.781.039,1.547.105t1.539.152q.523.07.523.516,0,.063-.008.145a2.039,2.039,0,0,1-.07.3.635.635,0,0,1-.238.391.7.7,0,0,1-.418.125q-.156,0-.492-.027L31.547.453Q31.1.414,30.578.363T29.52.273Q28.984.234,28.469.207T27.523.18A.55.55,0,0,1,27.23.105a.584.584,0,0,1-.2-.2.843.843,0,0,1-.105-.285A1.834,1.834,0,0,1,26.9-.719.714.714,0,0,1,27-1.1a1.046,1.046,0,0,1,.277-.293q.359-.266.777-.586t.84-.68q.422-.359.809-.754a7.426,7.426,0,0,0,.688-.8,4.228,4.228,0,0,0,.48-.828,2.093,2.093,0,0,0,.18-.832,1.1,1.1,0,0,0-.113-.5,1.209,1.209,0,0,0-.3-.383A1.323,1.323,0,0,0,30.188-7a1.643,1.643,0,0,0-.516-.082,1.417,1.417,0,0,0-.828.219A1.924,1.924,0,0,0,28.328-6.336ZM34.375-3.07a4.06,4.06,0,0,1,.309-1.582,4,4,0,0,1,.844-1.281,3.957,3.957,0,0,1,1.254-.855A3.837,3.837,0,0,1,38.328-7.1a4.637,4.637,0,0,1,1.656.293,4.365,4.365,0,0,1,1.348.8,3.751,3.751,0,0,1,.906,1.184,3.267,3.267,0,0,1,.332,1.453,3,3,0,0,1-.164.984,3.38,3.38,0,0,1-.465.891,4.1,4.1,0,0,1-.719.758,4.628,4.628,0,0,1-.926.59,5.236,5.236,0,0,1-1.09.383,5.227,5.227,0,0,1-1.2.137A4.312,4.312,0,0,1,36.516.121a3.27,3.27,0,0,1-1.145-.7,3.114,3.114,0,0,1-.734-1.082A3.668,3.668,0,0,1,34.375-3.07ZM41-3.07a2.189,2.189,0,0,0-.234-.992,2.635,2.635,0,0,0-.641-.82,3.14,3.14,0,0,0-.953-.559,3.26,3.26,0,0,0-1.164-.207,1.946,1.946,0,0,0-.8.168,2.048,2.048,0,0,0-.648.453,2.146,2.146,0,0,0-.434.672,2.153,2.153,0,0,0-.16.832,2.568,2.568,0,0,0,.594,1.813,2.156,2.156,0,0,0,1.664.641A3.646,3.646,0,0,0,39.3-1.227a3.02,3.02,0,0,0,.887-.43,2.16,2.16,0,0,0,.6-.637A1.481,1.481,0,0,0,41-3.07Zm4.258-3.266a.96.96,0,0,1-.234.273.457.457,0,0,1-.281.094A.6.6,0,0,1,44.57-6a2.726,2.726,0,0,1-.3-.125.593.593,0,0,1-.367-.516.648.648,0,0,1,.109-.352,3.43,3.43,0,0,1,.5-.605,3.081,3.081,0,0,1,.648-.48,3.461,3.461,0,0,1,.8-.32,3.753,3.753,0,0,1,.965-.117,3.169,3.169,0,0,1,1.023.164,2.693,2.693,0,0,1,.852.465,2.2,2.2,0,0,1,.582.734,2.161,2.161,0,0,1,.215.973,3.226,3.226,0,0,1-.258,1.262,6.127,6.127,0,0,1-.668,1.188,8.877,8.877,0,0,1-.926,1.094q-.516.52-1.031.973a.449.449,0,0,0-.121.141.3.3,0,0,0-.035.133.173.173,0,0,0,.082.145.407.407,0,0,0,.238.059q.781.039,1.547.105t1.539.152q.523.07.523.516,0,.063-.008.145a2.039,2.039,0,0,1-.07.3.635.635,0,0,1-.238.391.7.7,0,0,1-.418.125q-.156,0-.492-.027L48.477.453q-.445-.039-.969-.09T46.449.273Q45.914.234,45.4.207T44.453.18A.55.55,0,0,1,44.16.105a.584.584,0,0,1-.2-.2.843.843,0,0,1-.105-.285,1.834,1.834,0,0,1-.031-.344.714.714,0,0,1,.1-.379,1.046,1.046,0,0,1,.277-.293q.359-.266.777-.586t.84-.68q.422-.359.809-.754a7.426,7.426,0,0,0,.688-.8,4.228,4.228,0,0,0,.48-.828,2.093,2.093,0,0,0,.18-.832,1.1,1.1,0,0,0-.113-.5,1.209,1.209,0,0,0-.3-.383A1.323,1.323,0,0,0,47.117-7a1.643,1.643,0,0,0-.516-.082,1.417,1.417,0,0,0-.828.219A1.924,1.924,0,0,0,45.258-6.336ZM51.3-3.07a4.06,4.06,0,0,1,.309-1.582,4,4,0,0,1,.844-1.281,3.957,3.957,0,0,1,1.254-.855A3.837,3.837,0,0,1,55.258-7.1a4.637,4.637,0,0,1,1.656.293,4.365,4.365,0,0,1,1.348.8,3.751,3.751,0,0,1,.906,1.184A3.267,3.267,0,0,1,59.5-3.375a3,3,0,0,1-.164.984,3.38,3.38,0,0,1-.465.891,4.1,4.1,0,0,1-.719.758,4.628,4.628,0,0,1-.926.59,5.236,5.236,0,0,1-1.09.383,5.227,5.227,0,0,1-1.2.137A4.312,4.312,0,0,1,53.445.121a3.27,3.27,0,0,1-1.145-.7,3.114,3.114,0,0,1-.734-1.082A3.668,3.668,0,0,1,51.3-3.07Zm6.625,0a2.189,2.189,0,0,0-.234-.992,2.635,2.635,0,0,0-.641-.82,3.14,3.14,0,0,0-.953-.559,3.26,3.26,0,0,0-1.164-.207,1.946,1.946,0,0,0-.8.168,2.048,2.048,0,0,0-.648.453,2.146,2.146,0,0,0-.434.672,2.153,2.153,0,0,0-.16.832,2.568,2.568,0,0,0,.594,1.813,2.156,2.156,0,0,0,1.664.641,3.646,3.646,0,0,0,1.078-.156,3.02,3.02,0,0,0,.887-.43,2.16,2.16,0,0,0,.6-.637A1.481,1.481,0,0,0,57.93-3.07Z" transform="translate(1108 20481.463)" fill="#646464"/>
  </g>
</svg>
