<svg xmlns="http://www.w3.org/2000/svg" width="154.17" height="46.555" viewBox="0 0 154.17 46.555">
  <g id="lp-aio-already-released" transform="translate(-914.701 -34754.727)">
    <path id="Path_14129" data-name="Path 14129" d="M376.028,148.652c3.08.544,4.57,5.893,5.79,8.235,1.092,2.1-2.233,4.209-3.58,2.2-.373-.557-.754-1.1-1.136-1.637-.061,15.7-6.738,33.064-19.641,42.114a.658.658,0,0,1-.828-1.023c6.105-6.376,11.278-12.806,14.436-21.177a50.829,50.829,0,0,0,3.1-21.432c-.5.706-1.011,1.4-1.576,2.064a2.208,2.208,0,0,1-3.589-2.568C370.288,153.267,372.82,148.085,376.028,148.652Z" transform="translate(898.566 35180.965) rotate(-109)" fill="#646464"/>
    <path id="Path_14443" data-name="Path 14443" d="M-58.324-1.555a.213.213,0,0,1-.2-.133.856.856,0,0,1-.066-.375v-.09q0-.051.016-.2a.621.621,0,0,1,.555-.656l.18-.016a.515.515,0,0,0,.281-.113.52.52,0,0,0,.148-.254q.133-.445.266-.9t.281-.9q.078-.25.16-.535t.18-.566a5.634,5.634,0,0,1,.227-.555,3.113,3.113,0,0,1,.293-.5,1.148,1.148,0,0,1,.2-.2,1.625,1.625,0,0,1,.285-.184,1.81,1.81,0,0,1,.344-.133,1.358,1.358,0,0,1,.363-.051.833.833,0,0,1,.461.148,4.387,4.387,0,0,1,.6.508,9.131,9.131,0,0,1,.664.758q.367.461.852,1.113T-51.074-3.8a.735.735,0,0,0,.215.176.58.58,0,0,0,.27.059h.445a.64.64,0,0,1,.426.129.441.441,0,0,1,.152.355q0,.047,0,.109a.431.431,0,0,1-.027.125l-.148.438q-.016.063-.023.109a.569.569,0,0,0-.008.094.625.625,0,0,0,.109.336l.836,1.141a.726.726,0,0,1,.141.4.6.6,0,0,1-.32.492l-.3.211a1.236,1.236,0,0,1-.207.109.532.532,0,0,1-.2.039.458.458,0,0,1-.262-.082,1.025,1.025,0,0,1-.23-.223q-.375-.531-.754-1.047t-.77-1.023a.559.559,0,0,0-.477-.25q-.953.039-1.887.105t-1.871.16a.444.444,0,0,0-.422.359L-56.738-.2a.609.609,0,0,1-.625.516h-.125L-57.73.289a.616.616,0,0,1-.4-.164.5.5,0,0,1-.137-.367.721.721,0,0,1,.008-.1,1.164,1.164,0,0,1,.023-.117q.039-.156.082-.32t.09-.32q.016-.062.023-.113a.643.643,0,0,0,.008-.1q0-.242-.187-.242Zm3.719-4.125q-.078-.07-.141-.117a.218.218,0,0,0-.133-.047q-.2,0-.273.273-.156.461-.3.91t-.293.918a.192.192,0,0,0-.016.07v.07q0,.289.3.289h.078q.469-.062.938-.1t.938-.059a.491.491,0,0,0,.246-.082.208.208,0,0,0,.09-.176.461.461,0,0,0-.094-.242q-.328-.437-.66-.863T-54.605-5.68ZM-49.152-8.9a.67.67,0,0,1,.234-.578,1.337,1.337,0,0,1,.773-.172,1.232,1.232,0,0,1,.328.039.541.541,0,0,1,.234.129.655.655,0,0,1,.152.242,2.026,2.026,0,0,1,.1.387q.1.7.207,1.457t.2,1.516q.1.754.184,1.469t.152,1.328q.066.613.1,1.086t.035.746a1.921,1.921,0,0,1-.051.477.652.652,0,0,1-.172.313.7.7,0,0,1-.312.168,1.873,1.873,0,0,1-.473.051.634.634,0,0,1-.434-.141.542.542,0,0,1-.16-.43q0-.3-.047-.793t-.125-1.105q-.078-.609-.176-1.3t-.2-1.359l-.2-1.293q-.1-.621-.176-1.1t-.125-.789Q-49.152-8.859-49.152-8.9Zm8.18,3.055a.866.866,0,0,0-.508.152,1.292,1.292,0,0,0-.375.422,2.718,2.718,0,0,0-.258.633,6.34,6.34,0,0,0-.164.793q-.063.43-.086.9T-42.387-2q0,.625.051,1.23t.051,1.121a.627.627,0,0,1-.25.527,1.149,1.149,0,0,1-.711.191,1.4,1.4,0,0,1-.2-.016.706.706,0,0,1-.207-.062A.552.552,0,0,1-43.82.863.35.35,0,0,1-43.9.641q-.07-.688-.2-1.406T-44.437-2.2a14.393,14.393,0,0,0-.477-1.418,13.121,13.121,0,0,0-.637-1.375q-.063-.117-.105-.219a.5.5,0,0,1-.043-.2.427.427,0,0,1,.105-.254,1.306,1.306,0,0,1,.266-.254,1.527,1.527,0,0,1,.352-.191,1.024,1.024,0,0,1,.371-.074q.3,0,.523.41a5.143,5.143,0,0,1,.422,1.309q.039.156.063.219t.063.063q.086,0,.109-.266a4.842,4.842,0,0,1,.32-1.277,2.817,2.817,0,0,1,.566-.883,2.11,2.11,0,0,1,.781-.512,2.772,2.772,0,0,1,.973-.164,3.575,3.575,0,0,1,.617.055,2.458,2.458,0,0,1,.563.164A1.309,1.309,0,0,1-39.2-6.8a.486.486,0,0,1,.156.352,1.16,1.16,0,0,1-.059.332,2.059,2.059,0,0,1-.152.367,1.243,1.243,0,0,1-.215.3.352.352,0,0,1-.246.121.514.514,0,0,1-.273-.082l-.285-.176q-.152-.094-.32-.176A.852.852,0,0,0-40.973-5.844Zm8.078,4.133a.69.69,0,0,1,.445-.2.424.424,0,0,1,.227.063,1.17,1.17,0,0,1,.227.2,2.281,2.281,0,0,1,.168.293.542.542,0,0,1,.051.223.6.6,0,0,1-.234.445,5.4,5.4,0,0,1-.812.559,6.042,6.042,0,0,1-.914.418,5.952,5.952,0,0,1-.984.262,5.775,5.775,0,0,1-1.008.09A4.263,4.263,0,0,1-36.918.48a3.409,3.409,0,0,1-.988-.457,2.89,2.89,0,0,1-.73-.715,2.685,2.685,0,0,1-.422-.941.9.9,0,0,0-.129-.285.244.244,0,0,0-.191-.066.643.643,0,0,1-.445-.141.518.518,0,0,1-.156-.406.388.388,0,0,1,.016-.141l.016-.156a.759.759,0,0,1,.152-.406.457.457,0,0,1,.355-.125h.117a.467.467,0,0,0,.461-.3,4.178,4.178,0,0,1,.617-.984A4.1,4.1,0,0,1-37.4-5.41a4.039,4.039,0,0,1,1-.492,3.471,3.471,0,0,1,1.09-.176,3.4,3.4,0,0,1,1.082.168,2.857,2.857,0,0,1,.879.465,2.236,2.236,0,0,1,.59.7,1.783,1.783,0,0,1,.215.859,1.359,1.359,0,0,1-.125.586,1.373,1.373,0,0,1-.359.465,1.9,1.9,0,0,1-.566.324,2.9,2.9,0,0,1-.754.164l-2.711.273A.394.394,0,0,0-37.312-2a.256.256,0,0,0-.1.211.613.613,0,0,0,.152.391,1.42,1.42,0,0,0,.406.332,2.391,2.391,0,0,0,.586.23,2.717,2.717,0,0,0,.684.086,3.762,3.762,0,0,0,.691-.066,4.539,4.539,0,0,0,.7-.191,5.042,5.042,0,0,0,.676-.3A4.257,4.257,0,0,0-32.895-1.711Zm-1.742-2.016a.379.379,0,0,0,.2-.113.31.31,0,0,0,.086-.223.333.333,0,0,0-.086-.219.826.826,0,0,0-.234-.184,1.368,1.368,0,0,0-.344-.129,1.77,1.77,0,0,0-.414-.047,2.435,2.435,0,0,0-.656.094,2.786,2.786,0,0,0-.609.246,1.812,1.812,0,0,0-.445.336.54.54,0,0,0-.172.363q0,.18.219.18.133,0,.43-.031T-36-3.527q.359-.043.727-.1T-34.637-3.727Zm8.258-3.1a2.6,2.6,0,0,1,.828.133,2.373,2.373,0,0,1,.7.367,1.833,1.833,0,0,1,.488.563,1.462,1.462,0,0,1,.184.727.714.714,0,0,1-.074.316.868.868,0,0,1-.2.266.98.98,0,0,1-.285.18.859.859,0,0,1-.332.066.087.087,0,0,0-.027,0,.087.087,0,0,1-.027,0,.069.069,0,0,1-.031.008l.031.625A3.75,3.75,0,0,0-24.8-1.937a.846.846,0,0,0,.746.516,1.248,1.248,0,0,0,.293-.031,2.034,2.034,0,0,0,.242-.074q.113-.043.215-.074a.688.688,0,0,1,.2-.031.411.411,0,0,1,.316.156.55.55,0,0,1,.137.375.717.717,0,0,1-.168.438,1.722,1.722,0,0,1-.441.395,2.584,2.584,0,0,1-.617.285,2.281,2.281,0,0,1-.7.109,1.411,1.411,0,0,1-1.07-.5,3.044,3.044,0,0,1-.656-1.48q-.047-.156-.125-.156a.2.2,0,0,0-.164.094A5.659,5.659,0,0,1-28.238-.457a3.525,3.525,0,0,1-1.727.488,2.081,2.081,0,0,1-.719-.117,1.524,1.524,0,0,1-.543-.332,1.455,1.455,0,0,1-.344-.523,1.879,1.879,0,0,1-.121-.691,3.041,3.041,0,0,1,.238-1.133,5.8,5.8,0,0,1,.645-1.172,7.878,7.878,0,0,1,.941-1.1,8.068,8.068,0,0,1,1.125-.922,5.978,5.978,0,0,1,1.2-.633A3.241,3.241,0,0,1-26.379-6.828Zm-.258,2.7a1.752,1.752,0,0,1,.258-.387.6.6,0,0,1,.336-.16q.172-.023.172-.109a.242.242,0,0,0-.047-.133,2.478,2.478,0,0,0-.312-.355.617.617,0,0,0-.437-.152,1.59,1.59,0,0,0-.664.172,4.235,4.235,0,0,0-.746.457,7.033,7.033,0,0,0-.742.648,6.5,6.5,0,0,0-.645.746,4.343,4.343,0,0,0-.453.758,1.641,1.641,0,0,0-.172.672.569.569,0,0,0,.145.414.525.525,0,0,0,.395.148,2.194,2.194,0,0,0,1.4-.68A7.92,7.92,0,0,0-26.637-4.125Zm9.461-1.586a.218.218,0,0,0,.094.016q.172,0,.172-.227v-2.43a.873.873,0,0,1,.207-.656.993.993,0,0,1,.691-.2.965.965,0,0,1,.7.2.965.965,0,0,1,.2.7q0,.188-.023.551t-.051.824q-.027.461-.051.988T-15.262-4.9a7.5,7.5,0,0,0,.109,1.375,3.355,3.355,0,0,0,.313.957A1.493,1.493,0,0,0-14.355-2a1.132,1.132,0,0,0,.633.184,1.172,1.172,0,0,0,.355-.051,1.259,1.259,0,0,1,.379-.051.308.308,0,0,1,.262.16.687.687,0,0,1,.105.387.673.673,0,0,1-.121.383,1.112,1.112,0,0,1-.328.313,1.717,1.717,0,0,1-.48.207,2.168,2.168,0,0,1-.57.074,1.921,1.921,0,0,1-1.172-.395A2.36,2.36,0,0,1-16.09-2q-.023-.125-.078-.125t-.1.125A4.085,4.085,0,0,1-16.82-.973a3.619,3.619,0,0,1-.789.781,3.5,3.5,0,0,1-.984.5,3.669,3.669,0,0,1-1.129.172A3.065,3.065,0,0,1-20.867.27a2.649,2.649,0,0,1-.895-.578,2.664,2.664,0,0,1-.586-.875,2.794,2.794,0,0,1-.211-1.09,3.28,3.28,0,0,1,.313-1.414,3.736,3.736,0,0,1,.848-1.16,4.067,4.067,0,0,1,1.246-.785,3.985,3.985,0,0,1,1.516-.289,5.085,5.085,0,0,1,.7.051A6.006,6.006,0,0,1-17.176-5.711ZM-19.418-.93a1.591,1.591,0,0,0,.793-.2,2.407,2.407,0,0,0,.617-.5,3.167,3.167,0,0,0,.457-.664,5.216,5.216,0,0,0,.3-.707,4.947,4.947,0,0,0,.172-.617A2.3,2.3,0,0,0-17.02-4a.258.258,0,0,0-.047-.152.314.314,0,0,0-.141-.105q-.211-.055-.437-.1t-.445-.074q-.219-.031-.418-.047t-.363-.016a2.454,2.454,0,0,0-.852.141,1.856,1.856,0,0,0-.652.4,1.8,1.8,0,0,0-.418.613,2,2,0,0,0-.148.777,1.906,1.906,0,0,0,.113.676,1.51,1.51,0,0,0,.313.512,1.384,1.384,0,0,0,.48.328A1.589,1.589,0,0,0-19.418-.93ZM-9.77.211a2.109,2.109,0,0,1-.937-.23,3.775,3.775,0,0,1-.9-.629,5.4,5.4,0,0,1-.8-.941,7.237,7.237,0,0,1-.641-1.172,7.415,7.415,0,0,1-.43-1.316,6.187,6.187,0,0,1-.156-1.375,1.087,1.087,0,0,1,.219-.762.944.944,0,0,1,.711-.23q.617,0,.688.508a13.222,13.222,0,0,0,.391,1.945,7.052,7.052,0,0,0,.59,1.477,3.073,3.073,0,0,0,.758.938,1.413,1.413,0,0,0,.887.328,1.265,1.265,0,0,0,.633-.168,1.611,1.611,0,0,0,.516-.473.734.734,0,0,0,.105-.227,1.906,1.906,0,0,0,.043-.25q.039-.555.09-1.09t.1-1.074a1.671,1.671,0,0,1,.063-.383A.524.524,0,0,1-7.7-5.148a.506.506,0,0,1,.246-.117A1.978,1.978,0,0,1-7.066-5.3a1.232,1.232,0,0,1,.453.074.661.661,0,0,1,.3.242,1.122,1.122,0,0,1,.168.438,3.69,3.69,0,0,1,.051.668,3.082,3.082,0,0,1-.051.6q-.051.254-.117.477t-.125.438a2.333,2.333,0,0,0-.074.473q-.039.648-.07,1.121t-.051.809q-.02.336-.031.578t-.02.434q-.008.191-.008.363v.375q0,.367.031.8t.066.832q.035.4.066.7t.031.422a.48.48,0,0,1-.094.281.9.9,0,0,1-.25.234,1.316,1.316,0,0,1-.367.16,1.657,1.657,0,0,1-.445.059.412.412,0,0,1-.324-.137.592.592,0,0,1-.137-.363q-.023-.3-.039-.723t-.031-.906q-.016-.48-.02-.977t-.012-.922Q-8.168.828-8.168.508V.047a.456.456,0,0,0-.031-.2.121.121,0,0,0-.117-.059.4.4,0,0,0-.125.027.957.957,0,0,0-.18.09,2.038,2.038,0,0,1-.555.234A2.44,2.44,0,0,1-9.77.211ZM.855-5.922a.817.817,0,0,1-.3.063q-.375,0-.516-.445a1.211,1.211,0,0,1-.051-.2.957.957,0,0,1-.012-.141.584.584,0,0,1,.414-.547,11.982,11.982,0,0,1,1.672-.531,7.383,7.383,0,0,1,1.719-.2,3.752,3.752,0,0,1,.8.086,2.018,2.018,0,0,1,.707.3,1.607,1.607,0,0,1,.508.563,1.8,1.8,0,0,1,.2.883,1.755,1.755,0,0,1-.152.719,2.987,2.987,0,0,1-.4.656,4.692,4.692,0,0,1-.57.594,7.493,7.493,0,0,1-.656.516q-.336.234-.664.426t-.594.332q-.227.133-.227.273,0,.164.242.258.836.3,1.711.555t1.773.578q.422.156.422.484a.643.643,0,0,1-.09.316,1.994,1.994,0,0,1-.2.293A.664.664,0,0,1,6.02.242,1.135,1.135,0,0,1,5.73.2Q5.223,0,4.641-.211T3.453-.629q-.605-.207-1.191-.4T1.176-1.375a1.2,1.2,0,0,0-.242-.047.156.156,0,0,0-.1.027A.14.14,0,0,0,.8-1.281a.28.28,0,0,0,.008.059.341.341,0,0,1,.008.074q.023.117.059.309t.07.395q.035.2.059.387a2.47,2.47,0,0,1,.023.3A.621.621,0,0,1,.551.852L.2.961A1.382,1.382,0,0,1,.059,1a.72.72,0,0,1-.133.012q-.43,0-.5-.531-.187-1.422-.48-2.8t-.668-2.758a.632.632,0,0,1-.027-.137q0-.059,0-.105a.564.564,0,0,1,.445-.562q.164-.055.27-.086l.172-.051q.066-.02.1-.027A.307.307,0,0,1-.7-6.062a.543.543,0,0,1,.547.477q.164.609.309,1.18T.418-3.281q.062.273.227.273a.374.374,0,0,0,.109-.02A1.322,1.322,0,0,0,.9-3.086q.25-.133.605-.328t.742-.434q.387-.238.766-.5a7.73,7.73,0,0,0,.68-.531,3.3,3.3,0,0,0,.488-.523.838.838,0,0,0,.188-.484.744.744,0,0,0-.043-.258.44.44,0,0,0-.16-.2.871.871,0,0,0-.316-.133,2.254,2.254,0,0,0-.5-.047,4.017,4.017,0,0,0-.621.051,6.171,6.171,0,0,0-.645.137q-.32.086-.633.2T.855-5.922ZM13.668-1.711a.69.69,0,0,1,.445-.2.424.424,0,0,1,.227.063,1.17,1.17,0,0,1,.227.2,2.281,2.281,0,0,1,.168.293.542.542,0,0,1,.051.223.6.6,0,0,1-.234.445,5.4,5.4,0,0,1-.812.559,6.042,6.042,0,0,1-.914.418,5.952,5.952,0,0,1-.984.262,5.775,5.775,0,0,1-1.008.09A4.263,4.263,0,0,1,9.645.48,3.409,3.409,0,0,1,8.656.023a2.89,2.89,0,0,1-.73-.715A2.685,2.685,0,0,1,7.5-1.633a.9.9,0,0,0-.129-.285.244.244,0,0,0-.191-.066.643.643,0,0,1-.445-.141.518.518,0,0,1-.156-.406A.388.388,0,0,1,6.6-2.672l.016-.156a.758.758,0,0,1,.152-.406.457.457,0,0,1,.355-.125h.117a.467.467,0,0,0,.461-.3,4.178,4.178,0,0,1,.617-.984A4.1,4.1,0,0,1,9.16-5.41a4.039,4.039,0,0,1,1-.492,3.471,3.471,0,0,1,1.09-.176,3.4,3.4,0,0,1,1.082.168,2.857,2.857,0,0,1,.879.465,2.236,2.236,0,0,1,.59.7,1.783,1.783,0,0,1,.215.859,1.359,1.359,0,0,1-.125.586,1.373,1.373,0,0,1-.359.465,1.9,1.9,0,0,1-.566.324,2.9,2.9,0,0,1-.754.164L9.5-2.078A.394.394,0,0,0,9.25-2a.256.256,0,0,0-.1.211A.613.613,0,0,0,9.3-1.4a1.42,1.42,0,0,0,.406.332,2.391,2.391,0,0,0,.586.23,2.717,2.717,0,0,0,.684.086,3.762,3.762,0,0,0,.691-.066,4.539,4.539,0,0,0,.7-.191,5.042,5.042,0,0,0,.676-.3A4.257,4.257,0,0,0,13.668-1.711ZM11.926-3.727a.379.379,0,0,0,.2-.113.31.31,0,0,0,.086-.223.333.333,0,0,0-.086-.219.826.826,0,0,0-.234-.184,1.368,1.368,0,0,0-.344-.129,1.77,1.77,0,0,0-.414-.047,2.435,2.435,0,0,0-.656.094,2.786,2.786,0,0,0-.609.246,1.812,1.812,0,0,0-.445.336.54.54,0,0,0-.172.363q0,.18.219.18.133,0,.43-.031t.656-.074q.359-.043.727-.1T11.926-3.727ZM14.855-8.9a.67.67,0,0,1,.234-.578,1.337,1.337,0,0,1,.773-.172,1.232,1.232,0,0,1,.328.039.541.541,0,0,1,.234.129.655.655,0,0,1,.152.242,2.025,2.025,0,0,1,.1.387q.1.7.207,1.457t.2,1.516q.1.754.184,1.469t.152,1.328q.066.613.1,1.086t.035.746a1.921,1.921,0,0,1-.051.477.652.652,0,0,1-.172.313.7.7,0,0,1-.312.168,1.873,1.873,0,0,1-.473.051.634.634,0,0,1-.434-.141.542.542,0,0,1-.16-.43q0-.3-.047-.793t-.125-1.105q-.078-.609-.176-1.3t-.2-1.359L15.2-6.66q-.1-.621-.176-1.1T14.9-8.551Q14.855-8.859,14.855-8.9ZM25.449-1.711a.69.69,0,0,1,.445-.2.424.424,0,0,1,.227.063,1.17,1.17,0,0,1,.227.2,2.281,2.281,0,0,1,.168.293.542.542,0,0,1,.051.223.6.6,0,0,1-.234.445,5.4,5.4,0,0,1-.812.559,6.042,6.042,0,0,1-.914.418,5.952,5.952,0,0,1-.984.262,5.775,5.775,0,0,1-1.008.09A4.263,4.263,0,0,1,21.426.48a3.409,3.409,0,0,1-.988-.457,2.89,2.89,0,0,1-.73-.715,2.685,2.685,0,0,1-.422-.941.9.9,0,0,0-.129-.285.244.244,0,0,0-.191-.066.643.643,0,0,1-.445-.141.518.518,0,0,1-.156-.406.388.388,0,0,1,.016-.141l.016-.156a.758.758,0,0,1,.152-.406.457.457,0,0,1,.355-.125h.117a.467.467,0,0,0,.461-.3,4.178,4.178,0,0,1,.617-.984,4.1,4.1,0,0,1,.844-.762,4.039,4.039,0,0,1,1-.492,3.471,3.471,0,0,1,1.09-.176,3.4,3.4,0,0,1,1.082.168A2.857,2.857,0,0,1,25-5.445a2.236,2.236,0,0,1,.59.7,1.783,1.783,0,0,1,.215.859,1.359,1.359,0,0,1-.125.586,1.373,1.373,0,0,1-.359.465,1.9,1.9,0,0,1-.566.324A2.9,2.9,0,0,1,24-2.352l-2.711.273A.394.394,0,0,0,21.031-2a.256.256,0,0,0-.1.211.613.613,0,0,0,.152.391,1.42,1.42,0,0,0,.406.332,2.391,2.391,0,0,0,.586.23,2.717,2.717,0,0,0,.684.086,3.762,3.762,0,0,0,.691-.066,4.539,4.539,0,0,0,.7-.191,5.042,5.042,0,0,0,.676-.3A4.257,4.257,0,0,0,25.449-1.711ZM23.707-3.727a.378.378,0,0,0,.2-.113A.31.31,0,0,0,24-4.062a.333.333,0,0,0-.086-.219.826.826,0,0,0-.234-.184,1.368,1.368,0,0,0-.344-.129,1.77,1.77,0,0,0-.414-.047,2.435,2.435,0,0,0-.656.094,2.786,2.786,0,0,0-.609.246,1.812,1.812,0,0,0-.445.336.54.54,0,0,0-.172.363q0,.18.219.18.133,0,.43-.031t.656-.074q.359-.043.727-.1T23.707-3.727Zm8.258-3.1a2.6,2.6,0,0,1,.828.133,2.373,2.373,0,0,1,.7.367,1.833,1.833,0,0,1,.488.563,1.462,1.462,0,0,1,.184.727.714.714,0,0,1-.074.316.868.868,0,0,1-.2.266.98.98,0,0,1-.285.18.859.859,0,0,1-.332.066.087.087,0,0,0-.027,0,.087.087,0,0,1-.027,0,.069.069,0,0,1-.031.008l.031.625a3.75,3.75,0,0,0,.316,1.633.846.846,0,0,0,.746.516,1.248,1.248,0,0,0,.293-.031,2.034,2.034,0,0,0,.242-.074q.113-.043.215-.074a.688.688,0,0,1,.2-.031.411.411,0,0,1,.316.156.55.55,0,0,1,.137.375.717.717,0,0,1-.168.438,1.722,1.722,0,0,1-.441.395,2.584,2.584,0,0,1-.617.285,2.281,2.281,0,0,1-.7.109,1.411,1.411,0,0,1-1.07-.5,3.044,3.044,0,0,1-.656-1.48q-.047-.156-.125-.156a.2.2,0,0,0-.164.094A5.659,5.659,0,0,1,30.105-.457a3.525,3.525,0,0,1-1.727.488,2.081,2.081,0,0,1-.719-.117,1.524,1.524,0,0,1-.543-.332,1.455,1.455,0,0,1-.344-.523,1.879,1.879,0,0,1-.121-.691,3.041,3.041,0,0,1,.238-1.133,5.8,5.8,0,0,1,.645-1.172,7.878,7.878,0,0,1,.941-1.1A8.068,8.068,0,0,1,29.6-5.961a5.978,5.978,0,0,1,1.2-.633A3.241,3.241,0,0,1,31.965-6.828Zm-.258,2.7a1.752,1.752,0,0,1,.258-.387.6.6,0,0,1,.336-.16q.172-.023.172-.109a.242.242,0,0,0-.047-.133,2.478,2.478,0,0,0-.312-.355.617.617,0,0,0-.437-.152,1.59,1.59,0,0,0-.664.172,4.235,4.235,0,0,0-.746.457,7.033,7.033,0,0,0-.742.648,6.5,6.5,0,0,0-.645.746,4.343,4.343,0,0,0-.453.758,1.641,1.641,0,0,0-.172.672.569.569,0,0,0,.145.414.525.525,0,0,0,.395.148,2.194,2.194,0,0,0,1.4-.68A7.92,7.92,0,0,0,31.707-4.125Zm6.18-2.656a4.5,4.5,0,0,1,1.078.137,5.535,5.535,0,0,1,1.016.352,3.084,3.084,0,0,1,.758.48.729.729,0,0,1,.3.516.49.49,0,0,1-.109.277,1.714,1.714,0,0,1-.266.289,1.547,1.547,0,0,1-.34.227.756.756,0,0,1-.324.09.766.766,0,0,1-.418-.156q-.23-.156-.508-.348a4.375,4.375,0,0,0-.605-.348,1.632,1.632,0,0,0-.711-.156.661.661,0,0,0-.41.121.4.4,0,0,0-.16.34.585.585,0,0,0,.188.395,3.031,3.031,0,0,0,.5.41q.309.211.7.445t.8.5a9.872,9.872,0,0,1,.8.578,4.944,4.944,0,0,1,.7.68,3.234,3.234,0,0,1,.5.8,2.346,2.346,0,0,1,.188.941,1.978,1.978,0,0,1-.156.8,1.754,1.754,0,0,1-.445.617,2.039,2.039,0,0,1-.687.4,2.613,2.613,0,0,1-.875.141,3.24,3.24,0,0,1-1.109-.184,2.724,2.724,0,0,1-.875-.5,2.28,2.28,0,0,1-.574-.766,2.288,2.288,0,0,1-.207-.977,1.621,1.621,0,0,1,.246-1A.929.929,0,0,1,37.645-2a.961.961,0,0,1,.523.125.36.36,0,0,1,.2.3.626.626,0,0,1-.031.191q-.031.1-.066.2T38.2-.953a1.028,1.028,0,0,0-.027.234.863.863,0,0,0,.094.391A1.118,1.118,0,0,0,38.523,0a1.255,1.255,0,0,0,.371.23A1.169,1.169,0,0,0,39.34.32q.625,0,.625-.516a1.149,1.149,0,0,0-.32-.77,4.793,4.793,0,0,0-.8-.711q-.484-.348-1.043-.7a11.92,11.92,0,0,1-1.043-.734,4.323,4.323,0,0,1-.8-.816,1.552,1.552,0,0,1-.32-.941,1.7,1.7,0,0,1,.176-.773,1.868,1.868,0,0,1,.48-.605A2.238,2.238,0,0,1,37-6.641,2.717,2.717,0,0,1,37.887-6.781ZM48.48-1.711a.69.69,0,0,1,.445-.2.424.424,0,0,1,.227.063,1.17,1.17,0,0,1,.227.2,2.281,2.281,0,0,1,.168.293.542.542,0,0,1,.051.223.6.6,0,0,1-.234.445,5.4,5.4,0,0,1-.812.559,6.042,6.042,0,0,1-.914.418,5.952,5.952,0,0,1-.984.262,5.775,5.775,0,0,1-1.008.09A4.263,4.263,0,0,1,44.457.48a3.409,3.409,0,0,1-.988-.457,2.89,2.89,0,0,1-.73-.715,2.685,2.685,0,0,1-.422-.941.9.9,0,0,0-.129-.285A.244.244,0,0,0,42-1.984a.643.643,0,0,1-.445-.141.518.518,0,0,1-.156-.406.388.388,0,0,1,.016-.141l.016-.156a.759.759,0,0,1,.152-.406.457.457,0,0,1,.355-.125h.117a.467.467,0,0,0,.461-.3,4.178,4.178,0,0,1,.617-.984,4.1,4.1,0,0,1,.844-.762,4.039,4.039,0,0,1,1-.492,3.471,3.471,0,0,1,1.09-.176,3.4,3.4,0,0,1,1.082.168,2.857,2.857,0,0,1,.879.465,2.236,2.236,0,0,1,.59.7,1.783,1.783,0,0,1,.215.859,1.359,1.359,0,0,1-.125.586,1.373,1.373,0,0,1-.359.465,1.9,1.9,0,0,1-.566.324,2.9,2.9,0,0,1-.754.164l-2.711.273A.394.394,0,0,0,44.063-2a.256.256,0,0,0-.1.211.613.613,0,0,0,.152.391,1.42,1.42,0,0,0,.406.332,2.391,2.391,0,0,0,.586.23,2.717,2.717,0,0,0,.684.086,3.762,3.762,0,0,0,.691-.066,4.539,4.539,0,0,0,.7-.191,5.042,5.042,0,0,0,.676-.3A4.257,4.257,0,0,0,48.48-1.711ZM46.738-3.727a.379.379,0,0,0,.2-.113.31.31,0,0,0,.086-.223.333.333,0,0,0-.086-.219.826.826,0,0,0-.234-.184,1.368,1.368,0,0,0-.344-.129,1.77,1.77,0,0,0-.414-.047,2.435,2.435,0,0,0-.656.094,2.786,2.786,0,0,0-.609.246,1.812,1.812,0,0,0-.445.336.54.54,0,0,0-.172.363q0,.18.219.18.133,0,.43-.031t.656-.074q.359-.043.727-.1T46.738-3.727Zm8.578-1.984a.218.218,0,0,0,.094.016q.172,0,.172-.227v-2.43a.873.873,0,0,1,.207-.656.993.993,0,0,1,.691-.2.965.965,0,0,1,.7.2.965.965,0,0,1,.2.7q0,.188-.023.551T57.3-6.93q-.027.461-.051.988T57.23-4.9a7.5,7.5,0,0,0,.109,1.375,3.355,3.355,0,0,0,.313.957A1.493,1.493,0,0,0,58.137-2a1.132,1.132,0,0,0,.633.184,1.172,1.172,0,0,0,.355-.051,1.259,1.259,0,0,1,.379-.051.308.308,0,0,1,.262.16.687.687,0,0,1,.105.387.673.673,0,0,1-.121.383,1.112,1.112,0,0,1-.328.313,1.717,1.717,0,0,1-.48.207,2.168,2.168,0,0,1-.57.074A1.921,1.921,0,0,1,57.2-.793,2.36,2.36,0,0,1,56.4-2q-.023-.125-.078-.125t-.1.125a4.085,4.085,0,0,1-.551,1.027,3.619,3.619,0,0,1-.789.781A3.5,3.5,0,0,1,53.9.3,3.669,3.669,0,0,1,52.77.477,3.065,3.065,0,0,1,51.625.27a2.649,2.649,0,0,1-.895-.578,2.664,2.664,0,0,1-.586-.875,2.794,2.794,0,0,1-.211-1.09,3.28,3.28,0,0,1,.313-1.414,3.736,3.736,0,0,1,.848-1.16,4.067,4.067,0,0,1,1.246-.785,3.985,3.985,0,0,1,1.516-.289,5.085,5.085,0,0,1,.7.051A6.006,6.006,0,0,1,55.316-5.711ZM53.074-.93a1.591,1.591,0,0,0,.793-.2,2.407,2.407,0,0,0,.617-.5,3.167,3.167,0,0,0,.457-.664,5.216,5.216,0,0,0,.3-.707,4.947,4.947,0,0,0,.172-.617A2.3,2.3,0,0,0,55.473-4a.258.258,0,0,0-.047-.152.314.314,0,0,0-.141-.105q-.211-.055-.437-.1T54.4-4.43q-.219-.031-.418-.047t-.363-.016a2.454,2.454,0,0,0-.852.141,1.856,1.856,0,0,0-.652.4,1.8,1.8,0,0,0-.418.613,2,2,0,0,0-.148.777,1.906,1.906,0,0,0,.113.676,1.51,1.51,0,0,0,.313.512,1.384,1.384,0,0,0,.48.328A1.589,1.589,0,0,0,53.074-.93Z" transform="translate(1009 34796)" fill="#646464"/>
  </g>
</svg>
