<svg xmlns="http://www.w3.org/2000/svg" width="65" height="65" viewBox="0 0 65 65"><defs><style>.a{fill:#1e42a5;}.b{fill:#fff;}</style></defs><g transform="translate(-851 -24189)"><g transform="translate(757 15754)"><circle class="a" cx="32.5" cy="32.5" r="32.5" transform="translate(94 8435)"/></g><g transform="translate(866 24118.438)"><g transform="translate(25.818 106.054)"><g transform="translate(0 0)"><path class="b" d="M359.38,303.627a4.283,4.283,0,1,0,4.283,4.283A4.288,4.288,0,0,0,359.38,303.627Zm0,6.163a1.881,1.881,0,1,1,1.881-1.881A1.883,1.883,0,0,1,359.38,309.79Z" transform="translate(-355.097 -303.627)"/></g></g><g transform="translate(0 90.563)"><g transform="translate(0 0)"><path class="b" d="M23.936,90.563H1.2a1.2,1.2,0,0,0-1.2,1.2v18.493a1.2,1.2,0,0,0,1.2,1.2H4.963v-2.4H2.4V92.965H22.736v17.292h2.4V91.764A1.2,1.2,0,0,0,23.936,90.563Z" transform="translate(0 -90.563)"/></g></g><g transform="translate(10.848 109.056)"><g transform="translate(0 0)"><rect class="b" width="16.171" height="2.402"/></g></g><g transform="translate(3.602 106.054)"><g transform="translate(0 0)"><path class="b" d="M53.831,303.627a4.283,4.283,0,1,0,4.283,4.283A4.288,4.288,0,0,0,53.831,303.627Zm0,6.163a1.881,1.881,0,1,1,1.881-1.881A1.883,1.883,0,0,1,53.831,309.79Z" transform="translate(-49.548 -303.627)"/></g></g><g transform="translate(23.936 100.53)"><g transform="translate(0 0)"><path class="b" d="M341.309,227.647H329.221v2.4h10.887v6.124h-1.721v2.4h2.922a1.2,1.2,0,0,0,1.2-1.2v-8.526A1.2,1.2,0,0,0,341.309,227.647Z" transform="translate(-329.221 -227.647)"/></g></g><g transform="translate(23.936 94.926)"><g transform="translate(0 0)"><path class="b" d="M337.679,151.194a1.2,1.2,0,0,0-1.052-.622h-7.405v2.4h6.7l2.74,4.982,2.1-1.158Z" transform="translate(-329.221 -150.572)"/></g></g></g></g></svg>