<svg xmlns="http://www.w3.org/2000/svg" xmlns:xlink="http://www.w3.org/1999/xlink" width="65" height="65" viewBox="0 0 65 65"><defs><style>.a{fill:#fff;stroke:#707070;}.b{fill:#f1f1f1;}.c{clip-path:url(#a);}.d{fill:#e3c089;}.e{fill:#c9a77a;}.f{fill:#f5f8fc;}.g{fill:#c7c8cc;}.h{fill:#c2a077;}</style><clipPath id="a"><rect class="a" width="42.727" height="40" transform="translate(1180 11665)"/></clipPath></defs><g transform="translate(-1171 -11655)"><circle class="b" cx="32.5" cy="32.5" r="32.5" transform="translate(1171 11655)"/><g class="c" transform="translate(2 3)"><g transform="translate(1187.136 11665)"><g transform="translate(0 0)"><rect class="d" width="28.452" height="23.206" transform="translate(0.002 16.794)"/><path class="e" d="M312.376,41.462h-.027l-.014-.044-12.354.022-12.354-.022-.014.044h-.027l-1.834,3.689h28.457Z" transform="translate(-285.753 -28.363)"/><rect class="f" width="3.977" height="9.621" transform="translate(12.24 16.794)"/><path class="g" d="M302.646,41.441h-2.883l-.548,3.713h3.977Z" transform="translate(-286.977 -28.365)"/><rect class="h" width="6.618" height="1.303" transform="translate(20.172 37.548)"/><path class="h" d="M310.946,63.338l-1.062-1.078-1.078,1.078h.33v4.1h1.481v-4.1Z" transform="translate(-287.848 -30.258)"/><path class="h" d="M314.2,64.481l-.8-.811-.811.811h.248v3.081h1.114V64.481Z" transform="translate(-288.192 -30.386)"/><rect class="h" width="4.545" height="0.869" transform="translate(1.011 18.624)"/><rect class="h" width="3.476" height="0.869" transform="translate(6.358 18.624)"/><rect class="h" width="2.54" height="0.869" transform="translate(1.011 20.432)"/><rect class="h" width="2.54" height="0.869" transform="translate(7.294 20.432)"/><rect class="h" width="2.54" height="0.869" transform="translate(4.153 20.432)"/><rect class="d" width="17.252" height="14.071" transform="translate(5.602 2.267)"/><path class="e" d="M308.057,27.084h-.017l-.008-.027-7.491.013-7.491-.013-.007.027h-.017l-1.112,2.237h17.255Z" transform="translate(-286.313 -27.058)"/><rect class="f" width="2.412" height="5.834" transform="translate(13.023 2.267)"/><path class="g" d="M302.157,27.071h-1.748l-.332,2.251h2.412Z" transform="translate(-287.055 -27.059)"/><rect class="h" width="4.013" height="0.79" transform="translate(17.833 14.852)"/><path class="h" d="M307.19,40.349l-.644-.654-.654.654h.2v2.483h.9V40.349Z" transform="translate(-287.583 -28.207)"/><path class="h" d="M309.16,41.042l-.484-.492-.492.492h.15V42.91h.676V41.042Z" transform="translate(-287.792 -28.284)"/><rect class="h" width="2.756" height="0.527" transform="translate(6.214 3.377)"/><rect class="h" width="2.108" height="0.527" transform="translate(9.456 3.377)"/><rect class="h" width="1.54" height="0.527" transform="translate(6.214 4.473)"/><rect class="h" width="1.541" height="0.527" transform="translate(10.024 4.473)"/><rect class="h" width="1.54" height="0.527" transform="translate(8.119 4.473)"/></g></g></g></g></svg>