<svg xmlns="http://www.w3.org/2000/svg" width="297.542" height="73.047" viewBox="0 0 297.542 73.047"><defs><style>.a{fill:#00b67a;}.b{fill:#005128;}</style></defs><g transform="translate(-20.5 -248.5)"><path d="M178.15,300.7h30.1v5.6H196.4v31.589h-6.5V306.3H178.1Zm28.812,10.265h5.554v5.207h.1a6.542,6.542,0,0,1,1.041-2.132,8.244,8.244,0,0,1,1.835-1.884,8.116,8.116,0,0,1,2.38-1.389,6.928,6.928,0,0,1,2.628-.546c.694,0,1.19.05,1.438.05a4.343,4.343,0,0,0,.793.1v5.7a10.035,10.035,0,0,0-1.289-.2,11.283,11.283,0,0,0-1.289-.1,6.883,6.883,0,0,0-2.827.6A7.166,7.166,0,0,0,215,318.106a9.4,9.4,0,0,0-1.587,2.876,12.136,12.136,0,0,0-.6,3.967v12.794h-5.951Zm43.044,26.928h-5.852v-3.769h-.1a8.308,8.308,0,0,1-3.273,3.273,8.638,8.638,0,0,1-4.414,1.24c-3.521,0-6.1-.843-7.686-2.628-1.587-1.736-2.38-4.414-2.38-7.934V310.965h5.951v16.514c0,2.38.446,4.066,1.389,5.009a4.9,4.9,0,0,0,3.818,1.488,7.315,7.315,0,0,0,3.124-.6,5.389,5.389,0,0,0,2.033-1.537,6.031,6.031,0,0,0,1.141-2.331,11.011,11.011,0,0,0,.347-2.926V310.965h5.951v26.928Zm10.116-8.629a4.681,4.681,0,0,0,1.984,3.67,7.809,7.809,0,0,0,4.116,1.041,13.629,13.629,0,0,0,1.884-.149,8.3,8.3,0,0,0,1.984-.5,3.489,3.489,0,0,0,1.537-1.091,2.539,2.539,0,0,0,.546-1.835,2.668,2.668,0,0,0-.843-1.884,7.026,7.026,0,0,0-1.984-1.19,17.2,17.2,0,0,0-2.777-.744c-1.041-.2-2.083-.446-3.174-.694s-2.182-.545-3.223-.893a9.238,9.238,0,0,1-2.777-1.438,6.185,6.185,0,0,1-1.934-2.281,7.129,7.129,0,0,1-.744-3.422,5.865,5.865,0,0,1,1.091-3.67,7.908,7.908,0,0,1,2.727-2.38,12.38,12.38,0,0,1,3.67-1.289,21.013,21.013,0,0,1,3.818-.347,17.062,17.062,0,0,1,3.967.446,10.028,10.028,0,0,1,3.422,1.438,7.856,7.856,0,0,1,2.529,2.579,8.932,8.932,0,0,1,1.289,3.818h-6.2a3.817,3.817,0,0,0-1.934-2.876,7.986,7.986,0,0,0-3.521-.744c-.4,0-.942.05-1.488.1a8.766,8.766,0,0,0-1.636.4,3.878,3.878,0,0,0-1.289.843,1.984,1.984,0,0,0-.546,1.438,2.18,2.18,0,0,0,.744,1.736,6.741,6.741,0,0,0,1.984,1.141,17.2,17.2,0,0,0,2.777.744c1.041.2,2.132.446,3.223.694s2.132.546,3.174.893a8.686,8.686,0,0,1,2.777,1.438,7.152,7.152,0,0,1,1.984,2.232,6.854,6.854,0,0,1,.744,3.323,7.228,7.228,0,0,1-1.091,4.066,9.273,9.273,0,0,1-2.827,2.727,14.017,14.017,0,0,1-3.868,1.537,20.776,20.776,0,0,1-4.215.5,17.761,17.761,0,0,1-4.711-.6,12,12,0,0,1-3.769-1.736,8.325,8.325,0,0,1-2.48-2.926,9.553,9.553,0,0,1-.992-4.166h6v.05Zm19.588-18.3h4.513v-8.133h5.951v8.083h5.356v4.414h-5.356V329.71a15.259,15.259,0,0,0,.1,1.636,3.437,3.437,0,0,0,.347,1.141,1.937,1.937,0,0,0,.843.694,4.423,4.423,0,0,0,1.587.248,10.365,10.365,0,0,0,1.24-.05,10.745,10.745,0,0,0,1.24-.2v4.612c-.645.1-1.289.149-1.934.2a12.32,12.32,0,0,1-1.934.1,12.818,12.818,0,0,1-3.769-.446,5.416,5.416,0,0,1-2.232-1.289,4.61,4.61,0,0,1-1.091-2.132,16.921,16.921,0,0,1-.347-2.975V315.379h-4.513v-4.414Zm19.985,0h5.6v3.67h.1a7.366,7.366,0,0,1,3.471-3.372,11.243,11.243,0,0,1,4.86-1.041,12.22,12.22,0,0,1,5.554,1.141,10.421,10.421,0,0,1,3.918,3.075A12.825,12.825,0,0,1,325.532,319a20.033,20.033,0,0,1,.1,10.811,14.59,14.59,0,0,1-2.132,4.513,10.55,10.55,0,0,1-3.62,3.124,10.7,10.7,0,0,1-5.157,1.19,15.131,15.131,0,0,1-2.579-.248,10.973,10.973,0,0,1-2.48-.744,8.9,8.9,0,0,1-2.182-1.339,7.557,7.557,0,0,1-1.686-1.884h-.1V347.86h-5.951v-36.9Zm20.778,13.489a12.084,12.084,0,0,0-.5-3.521,8.981,8.981,0,0,0-1.438-3.025,7.933,7.933,0,0,0-2.331-2.132,6.343,6.343,0,0,0-3.223-.793,6.586,6.586,0,0,0-5.653,2.579,11.746,11.746,0,0,0-1.884,6.943,12.844,12.844,0,0,0,.5,3.769,8.394,8.394,0,0,0,1.488,2.975,7.085,7.085,0,0,0,2.38,1.984,6.724,6.724,0,0,0,3.223.744,6.6,6.6,0,0,0,3.422-.843A7.992,7.992,0,0,0,318.788,331a8.727,8.727,0,0,0,1.289-3.025A17.032,17.032,0,0,0,320.474,324.454ZM330.937,300.7h5.951v5.6h-5.951Zm0,10.265h5.951v26.928h-5.951ZM342.194,300.7h5.951v37.193h-5.951Zm24.1,37.937a14.171,14.171,0,0,1-5.752-1.091,13.058,13.058,0,0,1-4.265-2.926,12.739,12.739,0,0,1-2.628-4.513,17.629,17.629,0,0,1-.942-5.7,16.107,16.107,0,0,1,.942-5.653,13.189,13.189,0,0,1,2.628-4.513,11.893,11.893,0,0,1,4.265-2.926,15.052,15.052,0,0,1,5.752-1.091,14.17,14.17,0,0,1,5.752,1.091,12.342,12.342,0,0,1,4.265,2.926,12.739,12.739,0,0,1,2.628,4.513,17.326,17.326,0,0,1,.942,5.653,16.193,16.193,0,0,1-.942,5.7,14.036,14.036,0,0,1-2.628,4.513,11.894,11.894,0,0,1-4.265,2.926A14.869,14.869,0,0,1,366.3,338.637Zm0-4.711a6.859,6.859,0,0,0,3.422-.843,7.179,7.179,0,0,0,2.38-2.182,9.348,9.348,0,0,0,1.389-3.025,13.53,13.53,0,0,0,0-6.893,8.892,8.892,0,0,0-1.389-3.025,7.534,7.534,0,0,0-2.38-2.132,7,7,0,0,0-3.422-.843,6.859,6.859,0,0,0-3.422.843,7.6,7.6,0,0,0-2.38,2.132,8.89,8.89,0,0,0-1.389,3.025,13.529,13.529,0,0,0,0,6.893,8.891,8.891,0,0,0,1.389,3.025,7.692,7.692,0,0,0,2.38,2.182A6.494,6.494,0,0,0,366.3,333.926Zm15.373-22.96h4.513v-8.133h5.951v8.083h5.356v4.414h-5.356V329.71a15.259,15.259,0,0,0,.1,1.636,3.437,3.437,0,0,0,.347,1.141,1.937,1.937,0,0,0,.843.694,4.424,4.424,0,0,0,1.587.248,10.371,10.371,0,0,0,1.24-.05,10.753,10.753,0,0,0,1.24-.2v4.612c-.645.1-1.289.149-1.934.2a12.32,12.32,0,0,1-1.934.1,12.817,12.817,0,0,1-3.769-.446,5.415,5.415,0,0,1-2.232-1.289,4.61,4.61,0,0,1-1.091-2.132,16.927,16.927,0,0,1-.347-2.975V315.379h-4.513v-4.414Z" transform="translate(-79.446 -26.314)"/><path class="a" d="M91.761,274.386H64.536L56.155,248.5l-8.43,25.886-27.225-.05,22.018,16.018-8.43,25.886,22.018-16.018L78.124,316.24l-8.381-25.886Z"/><path class="b" d="M107.872,338.752l-1.884-5.852L92.4,342.768Z" transform="translate(-36.245 -42.546)"/></g></svg>