<svg xmlns="http://www.w3.org/2000/svg" width="65" height="65" viewBox="0 0 65 65"><defs><style>.a{fill:#0d6363;}.b{fill:none;stroke:#fff;stroke-linecap:round;stroke-width:1.5px;}.b,.d{fill-rule:evenodd;}.c,.d{fill:#fff;}</style></defs><g transform="translate(-519 -24652)"><g transform="translate(425 16217)"><circle class="a" cx="32.5" cy="32.5" r="32.5" transform="translate(94 8435)"/></g><g transform="translate(-331 16013)"><g transform="translate(870.75 8659)"><path class="b" d="M25.5,4.75A4.5,4.5,0,0,0,21,.25H6.75a4.5,4.5,0,0,0-4.5,4.5v16.5a4.5,4.5,0,0,0,4.5,4.5H21a4.5,4.5,0,0,0,4.5-4.5Z" transform="translate(-2.25 -0.25)"/><g transform="translate(-532.75 -9112)"><path class="c" d="M609.305-12.95c-1.256-.327-1.66-.664-1.66-1.19,0-.6.559-1.024,1.495-1.024.985,0,1.351.47,1.384,1.162h1.223a2.206,2.206,0,0,0-1.777-2.109v-1.212h-1.661v1.2a2.16,2.16,0,0,0-1.937,2c0,1.279,1.057,1.915,2.6,2.286,1.384.332,1.661.819,1.661,1.334,0,.382-.272.991-1.495.991-1.14,0-1.589-.509-1.65-1.162h-1.218a2.32,2.32,0,0,0,2.037,2.12v1.2h1.661v-1.19c1.079-.2,1.937-.83,1.937-1.965C611.907-12.087,610.562-12.624,609.305-12.95Z" transform="translate(-64.271 9133.323)"/></g></g><path class="d" d="M2.25,1.175A1.151,1.151,0,0,0,1.125,0,1.151,1.151,0,0,0,0,1.175V14.493a1.151,1.151,0,0,0,1.125,1.175A1.151,1.151,0,0,0,2.25,14.493Z" transform="translate(890.293 8675.125) rotate(90)"/><path class="d" d="M2.25,1.175A1.151,1.151,0,0,0,1.125,0,1.151,1.151,0,0,0,0,1.175V14.493a1.151,1.151,0,0,0,1.125,1.175A1.151,1.151,0,0,0,2.25,14.493Z" transform="translate(890.293 8679.125) rotate(90)"/></g></g></svg>