<svg xmlns="http://www.w3.org/2000/svg" width="66" height="66" viewBox="0 0 66 66"><defs><style>.a{fill:#77a51e;stroke:#fff;}.b{fill:#fff;}</style></defs><g transform="translate(-1174.5 -24179.5)"><g transform="translate(1081 15745)"><circle class="a" cx="32.5" cy="32.5" r="32.5" transform="translate(94 8435)"/></g><g transform="translate(-15.646 15298.734)"><g transform="translate(2 0.001)"><path class="b" d="M37.3,41.252H33.764V37.718a1.74,1.74,0,0,0-1.74-1.741h-.035a1.74,1.74,0,0,0-1.741,1.741v3.534H26.713a1.74,1.74,0,0,0-1.74,1.741v.035a1.74,1.74,0,0,0,1.74,1.741h3.534V48.3a1.74,1.74,0,0,0,1.741,1.741h.035a1.74,1.74,0,0,0,1.74-1.741V44.768H37.3a1.74,1.74,0,0,0,1.741-1.741v-.035A1.741,1.741,0,0,0,37.3,41.252Z" transform="translate(1180.673 8870.998)"/><path class="b" d="M43.6,47.033a36.082,36.082,0,0,0-3.668-1.66,8.232,8.232,0,0,1-2.013-1.128,1.751,1.751,0,0,1,.434-3.116,3.529,3.529,0,0,1,1.233-.254,9.36,9.36,0,0,1,4.634.917c.731.353.973.242,1.22-.52.26-.805.477-1.623.719-2.435a.851.851,0,0,0-.551-1.134,11.787,11.787,0,0,0-2.924-.874c-1.326-.2-1.326-.211-1.332-1.543-.006-1.877-.006-1.877-1.89-1.877-.272,0-.545-.006-.818,0-.88.025-1.028.179-1.053,1.066-.012.4,0,.793-.006,1.2-.006,1.177-.012,1.159-1.14,1.568-2.726.991-4.411,2.85-4.591,5.824-.161,2.633,1.214,4.411,3.377,5.706a37.341,37.341,0,0,0,4.219,1.9,6.27,6.27,0,0,1,1.536.9,2.106,2.106,0,0,1-.5,3.692,5.049,5.049,0,0,1-2.707.353,12.082,12.082,0,0,1-4.126-1.233c-.762-.4-.985-.291-1.245.533-.223.713-.421,1.431-.62,2.15-.266.967-.167,1.2.756,1.648a13.168,13.168,0,0,0,3.717,1.066c1,.161,1.035.2,1.047,1.245.006.471.006.948.013,1.419a.842.842,0,0,0,.9.954c.694.013,1.394.013,2.088-.006a.794.794,0,0,0,.861-.9c0-.644.031-1.295.006-1.939a1.024,1.024,0,0,1,.886-1.165,7,7,0,0,0,3.649-2.342A6.584,6.584,0,0,0,43.6,47.033Z" transform="translate(1190.041 8865.859)"/></g></g></g></svg>