<svg xmlns="http://www.w3.org/2000/svg" xmlns:xlink="http://www.w3.org/1999/xlink" width="65" height="65" viewBox="0 0 65 65"><defs><style>.a,.h{fill:#fff;}.a{stroke:#707070;}.b{fill:#f1f1f1;}.c{clip-path:url(#a);}.d{fill:#3c3c3b;}.e{fill:#c6c6c6;}.f{fill:#fb0;}.g{fill:#9d9d9c;}.i{fill:#ffe74a;}.j{fill:#ffd13b;}.k{fill:#ededed;}.l{fill:#575756;}</style><clipPath id="a"><rect class="a" width="49" height="42" transform="translate(202 12137)"/></clipPath></defs><g transform="translate(-194 -12126)"><g transform="translate(100 3691)"><circle class="b" cx="32.5" cy="32.5" r="32.5" transform="translate(94 8435)"/></g><g class="c"><g transform="translate(193.127 11997.352)"><path class="d" d="M27.538,165.547c0,.262-.538.474-1.2.474s-1.2-.212-1.2-.474.538-.474,1.2-.474S27.538,165.285,27.538,165.547Z"/><rect class="e" width="5.804" height="4.474" transform="translate(23.433 160.373)"/><path class="f" d="M32.439,152.441a6.091,6.091,0,0,0-12.124-1.067,6.541,6.541,0,0,0,1.725,5.59,4.791,4.791,0,0,1,1.394,3.321v.087h5.8v-.056a4.772,4.772,0,0,1,1.372-3.329A6.485,6.485,0,0,0,32.439,152.441Z"/><path class="g" d="M27.538,165.564h-2.4l-1.7-.718h5.8Z"/><path class="h" d="M24.289,151.846c.323,0,.476.273.612.514s.236.4.414.4.274-.15.412-.4.288-.514.612-.514.476.273.612.514.236.4.412.4.274-.15.412-.4.288-.514.612-.514.475.273.61.514.236.4.412.4a.114.114,0,1,1,0,.228c-.322,0-.475-.272-.61-.513s-.236-.4-.412-.4-.274.15-.413.4-.289.513-.611.513-.476-.272-.611-.513-.236-.4-.413-.4-.274.15-.413.4-.288.513-.611.513-.476-.272-.612-.513-.237-.4-.414-.4-.275.15-.414.4-.289.513-.612.513a.114.114,0,1,1,0-.228c.177,0,.275-.15.414-.4S23.965,151.846,24.289,151.846Z"/><path class="h" d="M26.549,156.482h-.427a.643.643,0,0,0-.7.563v3.328h1.826v-3.328A.642.642,0,0,0,26.549,156.482Z"/><path class="h" d="M25.769,157.042l-.125-.068-2.621-4.021a.151.151,0,1,1,.252-.165l2.62,4.022a.15.15,0,0,1-.043.208Z"/><path class="h" d="M26.9,157.042l-.082-.025a.15.15,0,0,1-.043-.208l2.62-4.022a.151.151,0,1,1,.252.165l-2.62,4.021Z"/><path class="i" d="M26.794,174.15l-1.62-.2-2.352-.654-3.758-3.51a1.736,1.736,0,0,0-1.9-.316l-1.22-1.14a1.737,1.737,0,0,0-2.454.084l-.024.025a1.746,1.746,0,0,0-.354.571,1.885,1.885,0,0,0-1.571.812l-.022.032A1.885,1.885,0,0,0,12,172.475l6.077,4.2.058.032a1.749,1.749,0,0,0,.177.1l.162.074c.054.021.11.037.166.053a1.916,1.916,0,0,0,.2.047l.062.014,7.328.954a1.886,1.886,0,0,0,2.113-1.626l0-.038A1.861,1.861,0,0,0,26.794,174.15Z"/><path class="j" d="M42.256,168.677l-3.247-.713a9.778,9.778,0,0,0-3.517.123l-3.03.664a3.5,3.5,0,0,1-1.139.059l-6.987-.791a1.97,1.97,0,0,0-2.186,1.726l0,.04a1.969,1.969,0,0,0,1.726,2.186l4.695.553-4.56,1.626-5.215.3-6.473-3.216a1.969,1.969,0,0,0-2.64.887l-.018.036a1.969,1.969,0,0,0,.887,2.64l7.819,3.641s3.791.757,5.618.907c.344.028.822-.014,1.313-.024a44.35,44.35,0,0,0,12.233-1.892l4.917-1.079Z"/><path class="k" d="M47.676,167.947l.06,12.671H42.21l.034-12.671Z"/><rect class="l" width="11.841" height="14.197" transform="translate(45.451 167.452)"/><path class="k" d="M50.974,170.656a1.108,1.108,0,1,1,1.4.7A1.107,1.107,0,0,1,50.974,170.656Z"/><path class="k" d="M47.412,170.656a1.108,1.108,0,1,1,1.4.7A1.108,1.108,0,0,1,47.412,170.656Z"/><path class="f" d="M32.785,142.044a.526.526,0,1,0-.912-.527L30.443,144a.52.52,0,0,0,.195.712l.009.006a.52.52,0,0,0,.708-.192Z"/><path class="f" d="M36.981,146.625a.527.527,0,0,0-.527-.912l-2.478,1.431a.519.519,0,0,0-.191.708l0,.009a.52.52,0,0,0,.713.2Z"/><path class="f" d="M38.324,151.636H35.448a.519.519,0,0,0-.518.52v.014a.519.519,0,0,0,.518.52h2.875a.527.527,0,0,0,0-1.053Z"/><path class="f" d="M36.454,158.613a.527.527,0,0,0,.527-.912L34.5,156.27a.52.52,0,0,0-.713.2l0,.009a.519.519,0,0,0,.191.708Z"/><path class="f" d="M15.691,157.7a.527.527,0,0,0,.527.912l2.477-1.431a.519.519,0,0,0,.191-.708l0-.009a.52.52,0,0,0-.713-.2Z"/><path class="f" d="M17.742,152.156a.519.519,0,0,0-.519-.52H14.348a.527.527,0,0,0,0,1.053h2.875a.519.519,0,0,0,.519-.52Z"/><path class="f" d="M16.217,145.713a.527.527,0,0,0-.527.912l2.477,1.43a.52.52,0,0,0,.713-.2l0-.009a.519.519,0,0,0-.191-.708Z"/><path class="f" d="M20.8,141.518a.526.526,0,1,0-.912.527l1.43,2.477a.52.52,0,0,0,.708.192l.009-.006a.519.519,0,0,0,.2-.712Z"/><path class="f" d="M26.342,143.569a.519.519,0,0,0,.52-.518v-2.875a.527.527,0,1,0-1.053,0v2.875a.519.519,0,0,0,.52.518Z"/></g></g></g></svg>