<svg xmlns="http://www.w3.org/2000/svg" width="584.265" height="325.502" viewBox="0 0 584.265 325.502"><defs><style>.a{fill:#717bf1;}.b,.p{fill:#142aff;}.am,.c,.n,.v{fill:#fff;}.d{fill:#dfe1ff;}.e{fill:#a8aff1;}.f{fill:#17ace8;}.g{fill:#1689fc;}.h{fill:#37dfce;opacity:0.35;}.i{fill:#3cd575;}.j,.o{fill:#2b976f;}.k{fill:#dfe4ff;}.l{fill:#a8f1d6;}.ak,.ao,.m,.u{fill:none;}.m,.n{stroke:#3cd575;}.m{stroke-width:3px;}.n{stroke-width:2px;}.ad,.ae,.af,.ag,.ah,.ai,.aj,.al,.am,.o,.p,.w,.x,.y,.z{fill-rule:evenodd;}.q{fill:#969696;}.r{fill:#505050;}.s{fill:#6d6d6d;}.t{fill:#969595;}.u{stroke:#b1b6d0;}.v{stroke:#d1d1d1;}.w{fill:#ff7b35;}.x{fill:#ff8c60;}.y{fill:#f8374d;}.z{fill:#691c48;}.aa{fill:#efefef;}.ab{fill:#e1e1e1;}.ac{fill:#aeaeae;}.ad{fill:#fe1544;}.ae{fill:#fdab3d;}.af{fill:#009ee7;}.ag{fill:#00e5ff;}.ah{fill:#003f5f;}.ai{fill:#e0e0e0;}.aj{fill:#2193c7;}.ak,.am{stroke:#009ee7;stroke-linecap:round;stroke-linejoin:round;stroke-width:1.5px;}.al{fill:rgba(0,229,255,0.05);}.an{stroke:none;}</style></defs><g transform="translate(-147 -42990)"><g transform="translate(633.047 43040)"><path class="a" d="M106.3,0H40.822A9.808,9.808,0,0,0,31,9.822V88.833a9.809,9.809,0,0,0,9.822,9.822c.72,0,13.62-.065,45.835-.065h26.192a3.242,3.242,0,0,0,3.274-3.274V9.822A9.808,9.808,0,0,0,106.3,0Z" transform="translate(-31)"/><path class="b" d="M315.465,9.822V95.315a3.242,3.242,0,0,1-3.274,3.274H286V0h19.644A9.808,9.808,0,0,1,315.465,9.822Z" transform="translate(-230.343)"/><path class="c" d="M166.3,60H113.918a3.242,3.242,0,0,0-3.274,3.274v16.37H94.274A3.242,3.242,0,0,0,91,82.918v65.915a9.809,9.809,0,0,0,9.822,9.822H166.3a9.809,9.809,0,0,0,9.822-9.822V69.822A9.808,9.808,0,0,0,166.3,60Z" transform="translate(-77.904 -46.904)"/><path class="d" d="M328.561,69.822v79.011a9.809,9.809,0,0,1-9.822,9.822H286V60h32.739A9.808,9.808,0,0,1,328.561,69.822Z" transform="translate(-230.343 -46.904)"/><path class="e" d="M117.192,82.918a3.272,3.272,0,0,1-3.274,3.274H91V79.055a9.827,9.827,0,0,1,2.858-6.9l9.3-9.3a9.827,9.827,0,0,1,6.9-2.858h7.136Z" transform="translate(-77.904 -46.904)"/><g transform="translate(26.224 46.272)"><path class="f" d="M206.775,218.548H154.392c-4.321,0-4.321-6.548,0-6.548h52.383C211.1,212,211.1,218.548,206.775,218.548Z" transform="translate(-151.151 -212)"/><path class="f" d="M206.775,278.548H154.392c-4.321,0-4.321-6.548,0-6.548h52.383C211.1,272,211.1,278.548,206.775,278.548Z" transform="translate(-151.151 -258.904)"/><path class="f" d="M206.775,338.548H154.392c-4.321,0-4.321-6.548,0-6.548h52.383C211.1,332,211.1,338.548,206.775,338.548Z" transform="translate(-151.151 -305.808)"/><path class="f" d="M206.775,398.548H154.392c-4.321,0-4.321-6.548,0-6.548h52.383C211.1,392,211.1,398.548,206.775,398.548Z" transform="translate(-151.151 -352.713)"/></g><g transform="translate(55.657 46.272)"><path class="g" d="M312.192,398.548H286V392h26.192C316.513,392,316.513,398.548,312.192,398.548Z" transform="translate(-286 -352.713)"/><path class="g" d="M312.192,338.548H286V332h26.192C316.513,332,316.513,338.548,312.192,338.548Z" transform="translate(-286 -305.808)"/><path class="g" d="M312.192,278.548H286V272h26.192C316.513,272,316.513,278.548,312.192,278.548Z" transform="translate(-286 -258.904)"/><path class="g" d="M312.192,218.548H286V212h26.192C316.513,212,316.513,218.548,312.192,218.548Z" transform="translate(-286 -212)"/></g></g><path class="h" d="M142.027,146.809a3.039,3.039,0,1,1,3.038,3.107A3.074,3.074,0,0,1,142.027,146.809Zm-15.949,0a3.039,3.039,0,1,1,3.038,3.107A3.074,3.074,0,0,1,126.078,146.809Zm-15.19,0a3.039,3.039,0,1,1,3.038,3.107A3.074,3.074,0,0,1,110.888,146.809Zm-15.95,0a3.039,3.039,0,1,1,3.038,3.107A3.074,3.074,0,0,1,94.938,146.809Zm-15.949,0a3.039,3.039,0,1,1,3.038,3.107A3.074,3.074,0,0,1,78.989,146.809Zm-15.948,0a3.038,3.038,0,1,1,3.038,3.107A3.074,3.074,0,0,1,63.041,146.809Zm-15.95,0a3.038,3.038,0,1,1,3.038,3.107A3.074,3.074,0,0,1,47.091,146.809Zm-15.191,0a3.039,3.039,0,1,1,3.038,3.107A3.074,3.074,0,0,1,31.9,146.809Zm-15.95,0a3.039,3.039,0,1,1,3.038,3.107A3.074,3.074,0,0,1,15.949,146.809ZM0,146.809A3.074,3.074,0,0,1,3.038,143.7a3.108,3.108,0,0,1,0,6.214A3.073,3.073,0,0,1,0,146.809Zm142.027-13.2a3.039,3.039,0,1,1,3.038,3.107A3.073,3.073,0,0,1,142.027,133.607Zm-15.949,0a3.039,3.039,0,1,1,3.038,3.107A3.073,3.073,0,0,1,126.078,133.607Zm-15.19,0a3.039,3.039,0,1,1,3.038,3.107A3.074,3.074,0,0,1,110.888,133.607Zm-15.95,0a3.039,3.039,0,1,1,3.038,3.107A3.074,3.074,0,0,1,94.938,133.607Zm-15.949,0a3.039,3.039,0,1,1,3.038,3.107A3.074,3.074,0,0,1,78.989,133.607Zm-15.948,0a3.038,3.038,0,1,1,3.038,3.107A3.073,3.073,0,0,1,63.041,133.607Zm-15.95,0a3.038,3.038,0,1,1,3.038,3.107A3.073,3.073,0,0,1,47.091,133.607Zm-15.191,0a3.039,3.039,0,1,1,3.038,3.107A3.073,3.073,0,0,1,31.9,133.607Zm-15.95,0a3.039,3.039,0,1,1,3.038,3.107A3.073,3.073,0,0,1,15.949,133.607ZM0,133.607A3.073,3.073,0,0,1,3.038,130.5a3.108,3.108,0,0,1,0,6.214A3.073,3.073,0,0,1,0,133.607Zm142.027-12.429a3.039,3.039,0,1,1,3.038,3.107A3.073,3.073,0,0,1,142.027,121.177Zm-15.949,0a3.039,3.039,0,1,1,3.038,3.107A3.073,3.073,0,0,1,126.078,121.177Zm-15.19,0a3.039,3.039,0,1,1,3.038,3.107A3.074,3.074,0,0,1,110.888,121.177Zm-15.95,0a3.039,3.039,0,1,1,3.038,3.107A3.074,3.074,0,0,1,94.938,121.177Zm-15.949,0a3.039,3.039,0,1,1,3.038,3.107A3.074,3.074,0,0,1,78.989,121.177Zm-15.948,0a3.038,3.038,0,1,1,3.038,3.107A3.073,3.073,0,0,1,63.041,121.177Zm-15.95,0a3.038,3.038,0,1,1,3.038,3.107A3.073,3.073,0,0,1,47.091,121.177Zm-15.191,0a3.039,3.039,0,1,1,3.038,3.107A3.073,3.073,0,0,1,31.9,121.177Zm-15.95,0a3.039,3.039,0,1,1,3.038,3.107A3.073,3.073,0,0,1,15.949,121.177ZM0,121.177a3.073,3.073,0,0,1,3.038-3.107,3.108,3.108,0,0,1,0,6.214A3.073,3.073,0,0,1,0,121.177ZM142.027,107.97a3.039,3.039,0,1,1,3.038,3.107A3.073,3.073,0,0,1,142.027,107.97Zm-15.949,0a3.039,3.039,0,1,1,3.038,3.107A3.073,3.073,0,0,1,126.078,107.97Zm-15.19,0a3.039,3.039,0,1,1,3.038,3.107A3.074,3.074,0,0,1,110.888,107.97Zm-15.95,0a3.039,3.039,0,1,1,3.038,3.107A3.074,3.074,0,0,1,94.938,107.97Zm-15.949,0a3.039,3.039,0,1,1,3.038,3.107A3.074,3.074,0,0,1,78.989,107.97Zm-15.948,0a3.038,3.038,0,1,1,3.038,3.107A3.073,3.073,0,0,1,63.041,107.97Zm-15.95,0a3.038,3.038,0,1,1,3.038,3.107A3.073,3.073,0,0,1,47.091,107.97Zm-15.191,0a3.039,3.039,0,1,1,3.038,3.107A3.073,3.073,0,0,1,31.9,107.97Zm-15.95,0a3.039,3.039,0,1,1,3.038,3.107A3.073,3.073,0,0,1,15.949,107.97ZM0,107.97a3.073,3.073,0,0,1,3.038-3.107,3.108,3.108,0,0,1,0,6.214A3.073,3.073,0,0,1,0,107.97Zm142.027-13.2a3.039,3.039,0,1,1,3.038,3.107A3.073,3.073,0,0,1,142.027,94.767Zm-15.949,0a3.039,3.039,0,1,1,3.038,3.107A3.073,3.073,0,0,1,126.078,94.767Zm-15.19,0a3.039,3.039,0,1,1,3.038,3.107A3.073,3.073,0,0,1,110.888,94.767Zm-15.95,0a3.039,3.039,0,1,1,3.038,3.107A3.073,3.073,0,0,1,94.938,94.767Zm-15.949,0a3.039,3.039,0,1,1,3.038,3.107A3.073,3.073,0,0,1,78.989,94.767Zm-15.948,0a3.038,3.038,0,1,1,3.038,3.107A3.073,3.073,0,0,1,63.041,94.767Zm-15.95,0a3.038,3.038,0,1,1,3.038,3.107A3.073,3.073,0,0,1,47.091,94.767Zm-15.191,0a3.039,3.039,0,1,1,3.038,3.107A3.073,3.073,0,0,1,31.9,94.767Zm-15.95,0a3.039,3.039,0,1,1,3.038,3.107A3.073,3.073,0,0,1,15.949,94.767ZM0,94.767a3.073,3.073,0,0,1,3.038-3.106,3.107,3.107,0,0,1,0,6.213A3.073,3.073,0,0,1,0,94.767ZM142.027,81.562a3.039,3.039,0,1,1,3.038,3.106A3.073,3.073,0,0,1,142.027,81.562Zm-15.949,0a3.039,3.039,0,1,1,3.038,3.106A3.073,3.073,0,0,1,126.078,81.562Zm-15.19,0a3.039,3.039,0,1,1,3.038,3.106A3.074,3.074,0,0,1,110.888,81.562Zm-15.95,0a3.039,3.039,0,1,1,3.038,3.106A3.074,3.074,0,0,1,94.938,81.562Zm-15.949,0a3.039,3.039,0,1,1,3.038,3.106A3.074,3.074,0,0,1,78.989,81.562Zm-15.948,0a3.038,3.038,0,1,1,3.038,3.106A3.073,3.073,0,0,1,63.041,81.562Zm-15.95,0a3.038,3.038,0,1,1,3.038,3.106A3.073,3.073,0,0,1,47.091,81.562Zm-15.191,0a3.039,3.039,0,1,1,3.038,3.106A3.073,3.073,0,0,1,31.9,81.562Zm-15.95,0a3.039,3.039,0,1,1,3.038,3.106A3.073,3.073,0,0,1,15.949,81.562ZM0,81.562a3.073,3.073,0,0,1,3.038-3.107,3.107,3.107,0,0,1,0,6.213A3.073,3.073,0,0,1,0,81.562Zm142.027-13.2a3.039,3.039,0,1,1,3.038,3.107A3.073,3.073,0,0,1,142.027,68.359Zm-15.949,0a3.039,3.039,0,1,1,3.038,3.107A3.073,3.073,0,0,1,126.078,68.359Zm-15.19,0a3.039,3.039,0,1,1,3.038,3.107A3.074,3.074,0,0,1,110.888,68.359Zm-15.95,0a3.039,3.039,0,1,1,3.038,3.107A3.074,3.074,0,0,1,94.938,68.359Zm-15.949,0a3.039,3.039,0,1,1,3.038,3.107A3.074,3.074,0,0,1,78.989,68.359Zm-15.948,0a3.038,3.038,0,1,1,3.038,3.107A3.073,3.073,0,0,1,63.041,68.359Zm-15.95,0a3.038,3.038,0,1,1,3.038,3.107A3.073,3.073,0,0,1,47.091,68.359Zm-15.191,0a3.039,3.039,0,1,1,3.038,3.107A3.073,3.073,0,0,1,31.9,68.359Zm-15.95,0a3.039,3.039,0,1,1,3.038,3.107A3.073,3.073,0,0,1,15.949,68.359ZM0,68.359a3.073,3.073,0,0,1,3.038-3.107,3.108,3.108,0,0,1,0,6.214A3.073,3.073,0,0,1,0,68.359ZM142.027,55.153a3.039,3.039,0,1,1,3.038,3.107A3.073,3.073,0,0,1,142.027,55.153Zm-15.949,0a3.039,3.039,0,1,1,3.038,3.107A3.073,3.073,0,0,1,126.078,55.153Zm-15.19,0a3.039,3.039,0,1,1,3.038,3.107A3.074,3.074,0,0,1,110.888,55.153Zm-15.95,0a3.039,3.039,0,1,1,3.038,3.107A3.074,3.074,0,0,1,94.938,55.153Zm-15.949,0a3.039,3.039,0,1,1,3.038,3.107A3.074,3.074,0,0,1,78.989,55.153Zm-15.948,0a3.038,3.038,0,1,1,3.038,3.107A3.073,3.073,0,0,1,63.041,55.153Zm-15.95,0a3.038,3.038,0,1,1,3.038,3.107A3.073,3.073,0,0,1,47.091,55.153Zm-15.191,0a3.039,3.039,0,1,1,3.038,3.107A3.073,3.073,0,0,1,31.9,55.153Zm-15.95,0a3.039,3.039,0,1,1,3.038,3.107A3.073,3.073,0,0,1,15.949,55.153ZM0,55.153a3.073,3.073,0,0,1,3.038-3.107,3.108,3.108,0,0,1,0,6.214A3.073,3.073,0,0,1,0,55.153ZM142.027,42.723a3.039,3.039,0,1,1,3.038,3.107A3.073,3.073,0,0,1,142.027,42.723Zm-15.949,0a3.039,3.039,0,1,1,3.038,3.107A3.073,3.073,0,0,1,126.078,42.723Zm-15.19,0a3.039,3.039,0,1,1,3.038,3.107A3.073,3.073,0,0,1,110.888,42.723Zm-15.95,0a3.039,3.039,0,1,1,3.038,3.107A3.073,3.073,0,0,1,94.938,42.723Zm-15.949,0a3.039,3.039,0,1,1,3.038,3.107A3.073,3.073,0,0,1,78.989,42.723Zm-15.948,0a3.038,3.038,0,1,1,3.038,3.107A3.073,3.073,0,0,1,63.041,42.723Zm-15.95,0a3.038,3.038,0,1,1,3.038,3.107A3.073,3.073,0,0,1,47.091,42.723Zm-15.191,0a3.039,3.039,0,1,1,3.038,3.107A3.073,3.073,0,0,1,31.9,42.723Zm-15.95,0a3.039,3.039,0,1,1,3.038,3.107A3.073,3.073,0,0,1,15.949,42.723ZM0,42.723a3.073,3.073,0,0,1,3.038-3.106,3.107,3.107,0,0,1,0,6.213A3.073,3.073,0,0,1,0,42.723Zm142.027-13.2a3.039,3.039,0,1,1,3.038,3.107A3.073,3.073,0,0,1,142.027,29.521Zm-15.949,0a3.039,3.039,0,1,1,3.038,3.107A3.073,3.073,0,0,1,126.078,29.521Zm-15.19,0a3.039,3.039,0,1,1,3.038,3.107A3.074,3.074,0,0,1,110.888,29.521Zm-15.95,0a3.039,3.039,0,1,1,3.038,3.107A3.074,3.074,0,0,1,94.938,29.521Zm-15.949,0a3.039,3.039,0,1,1,3.038,3.107A3.074,3.074,0,0,1,78.989,29.521Zm-15.948,0a3.038,3.038,0,1,1,3.038,3.107A3.073,3.073,0,0,1,63.041,29.521Zm-15.95,0a3.038,3.038,0,1,1,3.038,3.107A3.073,3.073,0,0,1,47.091,29.521Zm-15.191,0a3.039,3.039,0,1,1,3.038,3.107A3.073,3.073,0,0,1,31.9,29.521Zm-15.95,0a3.039,3.039,0,1,1,3.038,3.107A3.073,3.073,0,0,1,15.949,29.521ZM0,29.521a3.073,3.073,0,0,1,3.038-3.107,3.108,3.108,0,0,1,0,6.214A3.073,3.073,0,0,1,0,29.521ZM142.027,16.313a3.039,3.039,0,1,1,3.038,3.107A3.073,3.073,0,0,1,142.027,16.313Zm-15.949,0a3.039,3.039,0,1,1,3.038,3.107A3.073,3.073,0,0,1,126.078,16.313Zm-15.19,0a3.039,3.039,0,1,1,3.038,3.107A3.074,3.074,0,0,1,110.888,16.313Zm-15.95,0a3.039,3.039,0,1,1,3.038,3.107A3.074,3.074,0,0,1,94.938,16.313Zm-15.949,0a3.039,3.039,0,1,1,3.038,3.107A3.074,3.074,0,0,1,78.989,16.313Zm-15.948,0a3.038,3.038,0,1,1,3.038,3.107A3.073,3.073,0,0,1,63.041,16.313Zm-15.95,0a3.038,3.038,0,1,1,3.038,3.107A3.073,3.073,0,0,1,47.091,16.313Zm-15.191,0a3.039,3.039,0,1,1,3.038,3.107A3.073,3.073,0,0,1,31.9,16.313Zm-15.95,0a3.039,3.039,0,1,1,3.038,3.107A3.073,3.073,0,0,1,15.949,16.313ZM0,16.313a3.073,3.073,0,0,1,3.038-3.107,3.108,3.108,0,0,1,0,6.214A3.073,3.073,0,0,1,0,16.313ZM142.027,3.107a3.039,3.039,0,1,1,6.076,0,3.039,3.039,0,1,1-6.076,0Zm-15.949,0a3.039,3.039,0,1,1,6.076,0,3.039,3.039,0,1,1-6.076,0Zm-15.19,0a3.039,3.039,0,1,1,6.076,0,3.039,3.039,0,1,1-6.076,0Zm-15.95,0a3.039,3.039,0,1,1,6.076,0,3.039,3.039,0,1,1-6.076,0Zm-15.949,0a3.039,3.039,0,1,1,6.076,0,3.039,3.039,0,1,1-6.076,0Zm-15.948,0a3.038,3.038,0,1,1,6.075,0,3.038,3.038,0,1,1-6.075,0Zm-15.95,0a3.038,3.038,0,1,1,6.075,0,3.038,3.038,0,1,1-6.075,0Zm-15.191,0a3.039,3.039,0,1,1,6.076,0,3.039,3.039,0,1,1-6.076,0Zm-15.95,0a3.039,3.039,0,1,1,6.076,0,3.039,3.039,0,1,1-6.076,0ZM0,3.107A3.073,3.073,0,0,1,3.038,0,3.073,3.073,0,0,1,6.076,3.107,3.073,3.073,0,0,1,3.038,6.214,3.073,3.073,0,0,1,0,3.107Z" transform="translate(237.079 42990)"/><g transform="translate(147 43148.141)"><g transform="translate(0 0)"><path class="i" d="M106.3,0H40.822A9.808,9.808,0,0,0,31,9.822V88.833a9.809,9.809,0,0,0,9.822,9.822c.72,0,13.62-.065,45.835-.065h26.192a3.242,3.242,0,0,0,3.274-3.274V9.822A9.808,9.808,0,0,0,106.3,0Z" transform="translate(-31)"/><path class="j" d="M315.465,9.822V95.315a3.242,3.242,0,0,1-3.274,3.274H286V0h19.644A9.808,9.808,0,0,1,315.465,9.822Z" transform="translate(-230.343)"/><path class="c" d="M166.3,60H113.918a3.242,3.242,0,0,0-3.274,3.274v16.37H94.274A3.242,3.242,0,0,0,91,82.918v65.915a9.809,9.809,0,0,0,9.822,9.822H166.3a9.809,9.809,0,0,0,9.822-9.822V69.822A9.808,9.808,0,0,0,166.3,60Z" transform="translate(-77.904 -46.904)"/><path class="k" d="M328.561,69.822v79.011a9.809,9.809,0,0,1-9.822,9.822H286V60h32.739A9.808,9.808,0,0,1,328.561,69.822Z" transform="translate(-230.343 -46.904)"/><path class="l" d="M117.192,82.918a3.272,3.272,0,0,1-3.274,3.274H91V79.055a9.827,9.827,0,0,1,2.858-6.9l9.3-9.3a9.827,9.827,0,0,1,6.9-2.858h7.136Z" transform="translate(-77.904 -46.904)"/></g><path class="m" d="M-9596.459,18286.559l21.929-19.969,22.123,19.969,15.077-18.4" transform="translate(9623.832 -18211.252)"/><g class="n" transform="translate(43.023 50)"><circle class="an" cx="6.395" cy="6.395" r="6.395"/><circle class="ao" cx="6.395" cy="6.395" r="5.395"/></g><g class="n" transform="translate(66.279 68.605)"><circle class="an" cx="6.395" cy="6.395" r="6.395"/><circle class="ao" cx="6.395" cy="6.395" r="5.395"/></g></g><g transform="translate(195.837 43077.922)"><path class="o" d="M43.663-274.043l-.833-5.58,13.678,5.963-11.426,9.124-.859-5.759A49.169,49.169,0,0,0,3.787-221.912H0A52.958,52.958,0,0,1,43.663-274.043Z" transform="translate(0 279.623)"/></g><g transform="translate(644.674 43166.293)"><path class="p" d="M12.845-227.493l.833,5.58L0-227.876,11.426-237l.859,5.759A49.168,49.168,0,0,0,52.72-279.623h3.787A52.957,52.957,0,0,1,12.845-227.493Z" transform="translate(0 279.623)"/></g><g transform="translate(274.907 43030.699)"><path class="q" d="M281.1,424.94H200l3.157-34.756L205.5,364.42H275.6l2.346,25.763Z" transform="translate(-72.56 -146.889)"/><path class="r" d="M279.144,390.183H204.36l2.346-25.763H276.8Z" transform="translate(-73.763 -146.889)"/><rect class="c" width="336.047" height="231.395" rx="15" transform="translate(0 0)"/><path class="s" d="M24,320H359.978v28.964A17.378,17.378,0,0,1,342.6,366.342H41.378A17.378,17.378,0,0,1,24,348.964Z" transform="translate(-24 -134.633)"/><path class="t" d="M248,344h11.585v11.585H248Z" transform="translate(-85.804 -141.255)"/><path class="q" d="M168,440H295.44v11.585H168Z" transform="translate(-63.731 -167.742)"/><line class="u" x2="263.953" transform="translate(44.767 284.302)"/><g class="v" transform="translate(16.279 13.953)"><rect class="an" width="146.512" height="80.233" rx="2"/><rect class="ao" x="0.5" y="0.5" width="145.512" height="79.233" rx="1.5"/></g><g class="v" transform="translate(16.279 100)"><rect class="an" width="146.512" height="80.233" rx="2"/><rect class="ao" x="0.5" y="0.5" width="145.512" height="79.233" rx="1.5"/></g><g class="v" transform="translate(175.581 13.953)"><rect class="an" width="146.512" height="80.233" rx="2"/><rect class="ao" x="0.5" y="0.5" width="145.512" height="79.233" rx="1.5"/></g><g class="v" transform="translate(174.419 100)"><rect class="an" width="146.512" height="80.233" rx="2"/><rect class="ao" x="0.5" y="0.5" width="145.512" height="79.233" rx="1.5"/></g><g transform="translate(44.186 34.569)"><path class="w" d="M0-50.77H5.808V-80.021H0Z" transform="translate(0 101.291)"/><path class="x" d="M42.466-87.18h5.808V-137.7H42.466Z" transform="translate(-26.807 137.7)"/><path class="y" d="M84.569-28.568h5.808V-45.185H84.569Z" transform="translate(-53.384 79.3)"/><path class="y" d="M127.7-49.022h5.808V-76.749H127.7Z" transform="translate(-80.613 99.225)"/><path class="z" d="M172.357-86.846h5.808v-50.733h-5.808Z" transform="translate(-108.8 137.624)"/><path class="z" d="M216.038-51.13h5.808V-80.591h-5.808Z" transform="translate(-136.373 101.65)"/></g><rect class="aa" width="31.395" height="6.977" rx="2" transform="translate(24.419 22.093)"/><rect class="aa" width="31.395" height="6.977" rx="2" transform="translate(24.419 106.977)"/><rect class="ab" width="25.581" height="4.651" rx="2" transform="translate(186.047 38.372)"/><rect class="ab" width="25.581" height="4.651" rx="2" transform="translate(222.093 38.372)"/><rect class="ab" width="25.581" height="4.651" rx="2" transform="translate(186.047 69.767)"/><rect class="ac" width="25.581" height="4.651" rx="2" transform="translate(186.047 112.791)"/><rect class="ab" width="25.581" height="4.651" rx="2" transform="translate(222.093 69.767)"/><rect class="ac" width="25.581" height="4.651" rx="2" transform="translate(222.093 112.791)"/><rect class="aa" width="19.767" height="2.326" rx="1.163" transform="translate(24.419 30.233)"/><rect class="aa" width="19.767" height="2.326" rx="1.163" transform="translate(24.419 115.116)"/><rect class="aa" width="26.744" height="3.488" rx="1.744" transform="translate(127.907 109.302)"/><rect class="aa" width="19.767" height="2.326" rx="1.163" transform="translate(187.209 34.884)"/><rect class="aa" width="19.767" height="2.326" rx="1.163" transform="translate(223.256 34.884)"/><rect class="aa" width="19.767" height="2.326" rx="1.163" transform="translate(187.209 66.279)"/><rect class="aa" width="19.767" height="2.326" rx="1.163" transform="translate(187.209 109.302)"/><rect class="aa" width="19.767" height="2.326" rx="1.163" transform="translate(223.256 66.279)"/><rect class="aa" width="19.767" height="2.326" rx="1.163" transform="translate(223.256 109.302)"/><g transform="translate(262.536 31.393)"><path class="ad" d="M45.949-65.413a22.784,22.784,0,0,0,16.111-27.9,22.8,22.8,0,0,0-27.9-16.111A22.784,22.784,0,0,0,17.511-90.742l6.946,1.024a15.763,15.763,0,0,1,11.515-12.928A15.77,15.77,0,0,1,55.278-91.5,15.763,15.763,0,0,1,44.131-72.194Z" transform="translate(-17.272 110.209)"/><path class="ae" d="M73.648-61.584a22.784,22.784,0,0,0,16.111-27.9,22.783,22.783,0,0,0-9.6-13.211l-3.807,5.863a15.793,15.793,0,0,1,6.653,9.158A15.793,15.793,0,0,1,71.838-68.337Z" transform="translate(-44.971 106.38)"/><path class="af" d="M73.64-37.187a22.783,22.783,0,0,0,16-15.728L82.9-54.85A15.765,15.765,0,0,1,71.823-43.967Z" transform="translate(-44.964 81.984)"/><path class="ag" d="M23.242-44.133A22.784,22.784,0,0,0,50.014-33.856L47.84-40.548a15.747,15.747,0,0,1-18.5-7.1Z" transform="translate(-20.194 78.313)"/><path class="ah" d="M17.122-61.049a22.784,22.784,0,0,0,3,9.841A22.784,22.784,0,0,0,35.9-40.162l1.221-6.926a15.751,15.751,0,0,1-10.906-7.636,15.751,15.751,0,0,1-2.074-6.8Z" transform="translate(-17.074 85.388)"/><path class="ai" d="M17.37-71.571a22.782,22.782,0,0,0-.3,5.354l7.02-.431a15.75,15.75,0,0,1,.21-3.7Z" transform="translate(-17.024 90.509)"/></g><g transform="translate(26.743 127.626)"><path class="aj" d="M1.311-135.657H50.348v-3.1H1.311Z" transform="translate(-1.309 138.758)"/><path class="aj" d="M1.311-110.235H86v-3.1H1.311Z" transform="translate(-1.309 121.696)"/><path class="aj" d="M.232-85.031H28.088v-3.1H.232Z" transform="translate(-0.232 104.78)"/><path class="aj" d="M2.929-59.209H49.411v-3.1H2.929Z" transform="translate(-2.929 87.449)"/><path class="aj" d="M0-32.477H85.049v-3.1H0Z" transform="translate(0.001 69.508)"/></g><g transform="translate(184.884 139.923)"><path class="ak" d="M.75-52.7,4.933-54.63l22.548,4.4L52.326-61l21.2,5.539,22.788-8.071,25,4.906,6.014-3.323" transform="translate(-0.75 64.944)"/><path class="al" d="M1.144-30.1V-52.33l4.019-1.815,22.484,4.456L52.561-60.424l21.167,5.469,22.99-7.8L121.531-58.2l6.28-3.646v32Z" transform="translate(-0.937 64.576)"/><path class="am" d="M8.61-48.792A1.291,1.291,0,0,1,9.9-47.5a1.291,1.291,0,0,1-1.29,1.29A1.291,1.291,0,0,1,7.32-47.5,1.291,1.291,0,0,1,8.61-48.792Z" transform="translate(-3.874 57.938)"/><path class="am" d="M50.032-40.614a1.291,1.291,0,0,1,1.29,1.29,1.291,1.291,0,0,1-1.29,1.29,1.291,1.291,0,0,1-1.29-1.29A1.291,1.291,0,0,1,50.032-40.614Z" transform="translate(-23.569 54.049)"/><path class="am" d="M98.439-60.847a1.291,1.291,0,0,1,1.29,1.29,1.291,1.291,0,0,1-1.29,1.29,1.291,1.291,0,0,1-1.29-1.29A1.291,1.291,0,0,1,98.439-60.847Z" transform="translate(-46.586 63.67)"/><path class="am" d="M138.127-50.891a1.291,1.291,0,0,1,1.29,1.29,1.291,1.291,0,0,1-1.29,1.29,1.291,1.291,0,0,1-1.29-1.29A1.291,1.291,0,0,1,138.127-50.891Z" transform="translate(-65.457 58.936)"/><path class="am" d="M181.537-66.229a1.291,1.291,0,0,1,1.29,1.29,1.291,1.291,0,0,1-1.29,1.29,1.291,1.291,0,0,1-1.29-1.29A1.291,1.291,0,0,1,181.537-66.229Z" transform="translate(-86.098 66.229)"/><path class="am" d="M230.026-56.419a1.291,1.291,0,0,1,1.29,1.29,1.291,1.291,0,0,1-1.29,1.29,1.291,1.291,0,0,1-1.29-1.29A1.291,1.291,0,0,1,230.026-56.419Z" transform="translate(-109.153 61.564)"/></g></g></g></svg>