<svg xmlns="http://www.w3.org/2000/svg" xmlns:xlink="http://www.w3.org/1999/xlink" width="442" height="807" viewBox="0 0 442 807"><defs><style>.a{fill:#fff;}.b{clip-path:url(#a);}.c{opacity:0.09;}.d{fill:none;stroke:#585858;stroke-miterlimit:10;stroke-width:2px;}</style><clipPath id="a"><rect class="a" width="442" height="807" transform="translate(35 927)"/></clipPath></defs><g class="b" transform="translate(-35 -927)"><g class="c" transform="translate(460.817 1562.843) rotate(160)"><path class="d" d="M651.793,337.584s-97.2-47.527-77.938-169.307c21.6-136.545-90.63-193.192-168.416-158.147S331.107,170.186,184.207,176.5C34.01,182.952,0,340.825,0,340.825" transform="translate(0 639.818) rotate(-79)"/><path class="d" d="M475.617,312.813S434.753,209.69,451.563,106.12,400.057-8.383,372.6,4.157c-56.975,26.019-69.9,160.224-161.451,170.438C142.327,182.272,50.766,131.984,0,250.438" transform="translate(74.061 590.613) rotate(-79)"/><path class="d" d="M376.838,88.834s16.9-106.391-50.912-86.311C248.2,25.539,248.635,76.529,151.42,29.966,116.842,13.4-23.464,10.734,3.394,104.748" transform="translate(259.509 571.881) rotate(-79)"/></g></g></svg>