<svg xmlns="http://www.w3.org/2000/svg" width="65" height="65" viewBox="0 0 65 65"><defs><style>.a{fill:#f07d25;}.b{fill:#fff;fill-rule:evenodd;}</style></defs><g transform="translate(-198 -31833)"><g transform="translate(2 8103)"><g transform="translate(102 15295)"><circle class="a" cx="32.5" cy="32.5" r="32.5" transform="translate(94 8435)"/></g></g><path class="b" d="M20.955-123.44v-3.169a5.463,5.463,0,0,1,5.391-5.444,5.456,5.456,0,0,1,5.38,5.444v3.169a5.451,5.451,0,0,1-5.38,5.44A5.459,5.459,0,0,1,20.955-123.44ZM5.211-118A5.266,5.266,0,0,1,0-123.256v-5.172a9.149,9.149,0,0,1,8.986-9.066h.023a9.039,9.039,0,0,1,8.94,9.038v5.2A7.082,7.082,0,0,0,20.266-118Zm17.643-19.493a3.526,3.526,0,0,1,3.492-3.532,3.528,3.528,0,0,1,3.492,3.532,3.531,3.531,0,0,1-3.492,3.537,3.538,3.538,0,0,1-3.5-3.538ZM8.948-150a5.07,5.07,0,0,1,4.954,5.077,5.068,5.068,0,0,1-5.018,5.077,5.078,5.078,0,0,1-5.029-5.012v-.065A5.079,5.079,0,0,1,8.884-150Z" transform="translate(215 32000)"/></g></svg>