<svg xmlns="http://www.w3.org/2000/svg" width="65" height="65" viewBox="0 0 65 65"><defs><style>.a{fill:#ff8040;}.b{fill:#fff;}</style></defs><g transform="translate(-193 -3928)"><g transform="translate(99 -4507)"><circle class="a" cx="32.5" cy="32.5" r="32.5" transform="translate(94 8435)"/></g><g transform="translate(-663 -5165)"><path class="b" d="M615.405-4.157c-3.782-.983-5-2-5-3.583,0-1.817,1.682-3.083,4.5-3.083,2.966,0,4.067,1.417,4.167,3.5h3.682a6.642,6.642,0,0,0-5.349-6.35v-3.65h-5v3.6c-3.232.7-5.833,2.8-5.833,6.017,0,3.85,3.183,5.767,7.833,6.883,4.166,1,5,2.467,5,4.017,0,1.15-.818,2.983-4.5,2.983-3.433,0-4.783-1.533-4.967-3.5h-3.668c.2,3.65,2.934,5.7,6.133,6.383v3.617h5V9.093c3.249-.617,5.833-2.5,5.833-5.917C623.239-1.557,619.189-3.173,615.405-4.157Z" transform="translate(264.729 9130.323)"/><path class="b" d="M.563,8.563a8,8,0,1,1,8,8A8,8,0,0,1,.563,8.563Zm4.632.932L7.53,7.059v5.89a.772.772,0,0,0,.774.774h.516a.772.772,0,0,0,.774-.774V7.059L11.93,9.495a.775.775,0,0,0,1.106.013l.352-.355a.771.771,0,0,0,0-1.094L9.111,3.779a.771.771,0,0,0-1.094,0L3.733,8.059a.771.771,0,0,0,0,1.094l.352.355A.779.779,0,0,0,5.195,9.495Z" transform="translate(890.438 9119.438)"/></g></g></svg>