<svg xmlns="http://www.w3.org/2000/svg" xmlns:xlink="http://www.w3.org/1999/xlink" width="422.026" height="361.002" viewBox="0 0 422.026 361.002"><defs><style>.a{fill:#37dfce;opacity:0.35;}.b{fill:#eefdfa;}.c{fill:#22224d;}.d{fill:#4141ff;}.e{fill:#3838bf;}.f{fill:#fff;}.g{fill:#d0d0f4;}.h{fill:#fcfcfc;}.i{fill:#ff480f;}.j{fill:#e33600;}.k{fill:#ffdb24;}.l{fill:#ffbd24;}.m{fill:#ff3c00;}.n{fill:#b0ac9b;}.o{fill:#53524b;}.p{fill:#c4c0ad;}.q{fill:#d6d3c5;}.r{fill:#edeade;}.s{fill:#a19d8d;}.t{fill:#6a644b;}.u{fill:#ff8040;}.u,.v{fill-rule:evenodd;}.v{fill:#0d1663;}.w{filter:url(#c);}.x{filter:url(#a);}</style><filter id="a" x="208.015" y="0" width="197.675" height="197.676" filterUnits="userSpaceOnUse"><feOffset dy="10" input="SourceAlpha"/><feGaussianBlur stdDeviation="6" result="b"/><feFlood flood-opacity="0.11"/><feComposite operator="in" in2="b"/><feComposite in="SourceGraphic"/></filter><filter id="c" x="20.769" y="161.676" width="200.15" height="199.324" filterUnits="userSpaceOnUse"><feOffset dy="10" input="SourceAlpha"/><feGaussianBlur stdDeviation="6" result="d"/><feFlood flood-opacity="0.11"/><feComposite operator="in" in2="d"/><feComposite in="SourceGraphic"/></filter></defs><g transform="translate(-777 -44100.09)"><path class="a" d="M95.218,98.423a2.037,2.037,0,1,1,2.037,2.083A2.061,2.061,0,0,1,95.218,98.423Zm-10.693,0a2.037,2.037,0,1,1,2.037,2.083A2.061,2.061,0,0,1,84.525,98.423Zm-10.183,0a2.037,2.037,0,1,1,2.037,2.083A2.061,2.061,0,0,1,74.341,98.423Zm-10.693,0a2.037,2.037,0,1,1,2.037,2.083A2.061,2.061,0,0,1,63.648,98.423Zm-10.693,0a2.037,2.037,0,1,1,2.037,2.083A2.061,2.061,0,0,1,52.956,98.423Zm-10.692,0a2.037,2.037,0,1,1,2.037,2.083A2.061,2.061,0,0,1,42.264,98.423Zm-10.693,0a2.037,2.037,0,1,1,2.037,2.083A2.061,2.061,0,0,1,31.57,98.423Zm-10.185,0a2.037,2.037,0,1,1,2.037,2.083A2.061,2.061,0,0,1,21.386,98.423Zm-10.693,0a2.037,2.037,0,1,1,2.037,2.083A2.061,2.061,0,0,1,10.693,98.423ZM0,98.423A2.061,2.061,0,0,1,2.037,96.34a2.084,2.084,0,0,1,0,4.166A2.06,2.06,0,0,1,0,98.423Zm95.218-8.851a2.037,2.037,0,1,1,2.037,2.083A2.06,2.06,0,0,1,95.218,89.572Zm-10.693,0a2.037,2.037,0,1,1,2.037,2.083A2.06,2.06,0,0,1,84.525,89.572Zm-10.183,0a2.037,2.037,0,1,1,2.037,2.083A2.061,2.061,0,0,1,74.341,89.572Zm-10.693,0a2.037,2.037,0,1,1,2.037,2.083A2.061,2.061,0,0,1,63.648,89.572Zm-10.693,0a2.037,2.037,0,1,1,2.037,2.083A2.061,2.061,0,0,1,52.956,89.572Zm-10.692,0A2.037,2.037,0,1,1,44.3,91.655,2.06,2.06,0,0,1,42.264,89.572Zm-10.693,0a2.037,2.037,0,1,1,2.037,2.083A2.06,2.06,0,0,1,31.57,89.572Zm-10.185,0a2.037,2.037,0,1,1,2.037,2.083A2.06,2.06,0,0,1,21.386,89.572Zm-10.693,0a2.037,2.037,0,1,1,2.037,2.083A2.06,2.06,0,0,1,10.693,89.572ZM0,89.572a2.06,2.06,0,0,1,2.037-2.083,2.084,2.084,0,0,1,0,4.166A2.06,2.06,0,0,1,0,89.572Zm95.218-8.333a2.037,2.037,0,1,1,2.037,2.083A2.06,2.06,0,0,1,95.218,81.239Zm-10.693,0a2.037,2.037,0,1,1,2.037,2.083A2.06,2.06,0,0,1,84.525,81.239Zm-10.183,0a2.037,2.037,0,1,1,2.037,2.083A2.061,2.061,0,0,1,74.341,81.239Zm-10.693,0a2.037,2.037,0,1,1,2.037,2.083A2.061,2.061,0,0,1,63.648,81.239Zm-10.693,0a2.037,2.037,0,1,1,2.037,2.083A2.061,2.061,0,0,1,52.956,81.239Zm-10.692,0A2.037,2.037,0,1,1,44.3,83.322,2.06,2.06,0,0,1,42.264,81.239Zm-10.693,0a2.037,2.037,0,1,1,2.037,2.083A2.06,2.06,0,0,1,31.57,81.239Zm-10.185,0a2.037,2.037,0,1,1,2.037,2.083A2.06,2.06,0,0,1,21.386,81.239Zm-10.693,0a2.037,2.037,0,1,1,2.037,2.083A2.06,2.06,0,0,1,10.693,81.239ZM0,81.239a2.06,2.06,0,0,1,2.037-2.083,2.084,2.084,0,0,1,0,4.166A2.06,2.06,0,0,1,0,81.239Zm95.218-8.855a2.037,2.037,0,1,1,2.037,2.083A2.06,2.06,0,0,1,95.218,72.385Zm-10.693,0a2.037,2.037,0,1,1,2.037,2.083A2.06,2.06,0,0,1,84.525,72.385Zm-10.183,0a2.037,2.037,0,1,1,2.037,2.083A2.061,2.061,0,0,1,74.341,72.385Zm-10.693,0a2.037,2.037,0,1,1,2.037,2.083A2.061,2.061,0,0,1,63.648,72.385Zm-10.693,0a2.037,2.037,0,1,1,2.037,2.083A2.061,2.061,0,0,1,52.956,72.385Zm-10.692,0A2.037,2.037,0,1,1,44.3,74.468,2.06,2.06,0,0,1,42.264,72.385Zm-10.693,0a2.037,2.037,0,1,1,2.037,2.083A2.06,2.06,0,0,1,31.57,72.385Zm-10.185,0a2.037,2.037,0,1,1,2.037,2.083A2.06,2.06,0,0,1,21.386,72.385Zm-10.693,0a2.037,2.037,0,1,1,2.037,2.083A2.06,2.06,0,0,1,10.693,72.385ZM0,72.385A2.06,2.06,0,0,1,2.037,70.3a2.084,2.084,0,0,1,0,4.166A2.06,2.06,0,0,1,0,72.385Zm95.218-8.851a2.037,2.037,0,1,1,2.037,2.083A2.06,2.06,0,0,1,95.218,63.533Zm-10.693,0a2.037,2.037,0,1,1,2.037,2.083A2.06,2.06,0,0,1,84.525,63.533Zm-10.183,0a2.037,2.037,0,1,1,2.037,2.083A2.06,2.06,0,0,1,74.341,63.533Zm-10.693,0a2.037,2.037,0,1,1,2.037,2.083A2.06,2.06,0,0,1,63.648,63.533Zm-10.693,0a2.037,2.037,0,1,1,2.037,2.083A2.06,2.06,0,0,1,52.956,63.533Zm-10.692,0A2.037,2.037,0,1,1,44.3,65.616,2.06,2.06,0,0,1,42.264,63.533Zm-10.693,0a2.037,2.037,0,1,1,2.037,2.083A2.06,2.06,0,0,1,31.57,63.533Zm-10.185,0a2.037,2.037,0,1,1,2.037,2.083A2.06,2.06,0,0,1,21.386,63.533Zm-10.693,0a2.037,2.037,0,1,1,2.037,2.083A2.06,2.06,0,0,1,10.693,63.533ZM0,63.533a2.06,2.06,0,0,1,2.037-2.083,2.083,2.083,0,0,1,0,4.166A2.06,2.06,0,0,1,0,63.533ZM95.218,54.68a2.037,2.037,0,1,1,2.037,2.083A2.06,2.06,0,0,1,95.218,54.68Zm-10.693,0a2.037,2.037,0,1,1,2.037,2.083A2.06,2.06,0,0,1,84.525,54.68Zm-10.183,0a2.037,2.037,0,1,1,2.037,2.083A2.061,2.061,0,0,1,74.341,54.68Zm-10.693,0a2.037,2.037,0,1,1,2.037,2.083A2.061,2.061,0,0,1,63.648,54.68Zm-10.693,0a2.037,2.037,0,1,1,2.037,2.083A2.061,2.061,0,0,1,52.956,54.68Zm-10.692,0A2.037,2.037,0,1,1,44.3,56.763,2.06,2.06,0,0,1,42.264,54.68Zm-10.693,0a2.037,2.037,0,1,1,2.037,2.083A2.06,2.06,0,0,1,31.57,54.68Zm-10.185,0a2.037,2.037,0,1,1,2.037,2.083A2.06,2.06,0,0,1,21.386,54.68Zm-10.693,0a2.037,2.037,0,1,1,2.037,2.083A2.06,2.06,0,0,1,10.693,54.68ZM0,54.68A2.06,2.06,0,0,1,2.037,52.6a2.083,2.083,0,0,1,0,4.166A2.06,2.06,0,0,1,0,54.68Zm95.218-8.851a2.037,2.037,0,1,1,2.037,2.083A2.06,2.06,0,0,1,95.218,45.829Zm-10.693,0a2.037,2.037,0,1,1,2.037,2.083A2.06,2.06,0,0,1,84.525,45.829Zm-10.183,0a2.037,2.037,0,1,1,2.037,2.083A2.061,2.061,0,0,1,74.341,45.829Zm-10.693,0a2.037,2.037,0,1,1,2.037,2.083A2.061,2.061,0,0,1,63.648,45.829Zm-10.693,0a2.037,2.037,0,1,1,2.037,2.083A2.061,2.061,0,0,1,52.956,45.829Zm-10.692,0A2.037,2.037,0,1,1,44.3,47.912,2.06,2.06,0,0,1,42.264,45.829Zm-10.693,0a2.037,2.037,0,1,1,2.037,2.083A2.06,2.06,0,0,1,31.57,45.829Zm-10.185,0a2.037,2.037,0,1,1,2.037,2.083A2.06,2.06,0,0,1,21.386,45.829Zm-10.693,0a2.037,2.037,0,1,1,2.037,2.083A2.06,2.06,0,0,1,10.693,45.829ZM0,45.829a2.06,2.06,0,0,1,2.037-2.083,2.084,2.084,0,0,1,0,4.166A2.06,2.06,0,0,1,0,45.829Zm95.218-8.854a2.037,2.037,0,1,1,2.037,2.083A2.06,2.06,0,0,1,95.218,36.975Zm-10.693,0a2.037,2.037,0,1,1,2.037,2.083A2.06,2.06,0,0,1,84.525,36.975Zm-10.183,0a2.037,2.037,0,1,1,2.037,2.083A2.061,2.061,0,0,1,74.341,36.975Zm-10.693,0a2.037,2.037,0,1,1,2.037,2.083A2.061,2.061,0,0,1,63.648,36.975Zm-10.693,0a2.037,2.037,0,1,1,2.037,2.083A2.061,2.061,0,0,1,52.956,36.975Zm-10.692,0A2.037,2.037,0,1,1,44.3,39.058,2.06,2.06,0,0,1,42.264,36.975Zm-10.693,0a2.037,2.037,0,1,1,2.037,2.083A2.06,2.06,0,0,1,31.57,36.975Zm-10.185,0a2.037,2.037,0,1,1,2.037,2.083A2.06,2.06,0,0,1,21.386,36.975Zm-10.693,0a2.037,2.037,0,1,1,2.037,2.083A2.06,2.06,0,0,1,10.693,36.975ZM0,36.975a2.06,2.06,0,0,1,2.037-2.083,2.084,2.084,0,0,1,0,4.166A2.06,2.06,0,0,1,0,36.975Zm95.218-8.333a2.037,2.037,0,1,1,2.037,2.083A2.06,2.06,0,0,1,95.218,28.642Zm-10.693,0a2.037,2.037,0,1,1,2.037,2.083A2.06,2.06,0,0,1,84.525,28.642Zm-10.183,0a2.037,2.037,0,1,1,2.037,2.083A2.06,2.06,0,0,1,74.341,28.642Zm-10.693,0a2.037,2.037,0,1,1,2.037,2.083A2.06,2.06,0,0,1,63.648,28.642Zm-10.693,0a2.037,2.037,0,1,1,2.037,2.083A2.06,2.06,0,0,1,52.956,28.642Zm-10.692,0A2.037,2.037,0,1,1,44.3,30.725,2.06,2.06,0,0,1,42.264,28.642Zm-10.693,0a2.037,2.037,0,1,1,2.037,2.083A2.06,2.06,0,0,1,31.57,28.642Zm-10.185,0a2.037,2.037,0,1,1,2.037,2.083A2.06,2.06,0,0,1,21.386,28.642Zm-10.693,0a2.037,2.037,0,1,1,2.037,2.083A2.06,2.06,0,0,1,10.693,28.642ZM0,28.642A2.06,2.06,0,0,1,2.037,26.56a2.083,2.083,0,0,1,0,4.166A2.06,2.06,0,0,1,0,28.642Zm95.218-8.851a2.037,2.037,0,1,1,2.037,2.083A2.06,2.06,0,0,1,95.218,19.791Zm-10.693,0a2.037,2.037,0,1,1,2.037,2.083A2.06,2.06,0,0,1,84.525,19.791Zm-10.183,0a2.037,2.037,0,1,1,2.037,2.083A2.061,2.061,0,0,1,74.341,19.791Zm-10.693,0a2.037,2.037,0,1,1,2.037,2.083A2.061,2.061,0,0,1,63.648,19.791Zm-10.693,0a2.037,2.037,0,1,1,2.037,2.083A2.061,2.061,0,0,1,52.956,19.791Zm-10.692,0A2.037,2.037,0,1,1,44.3,21.875,2.06,2.06,0,0,1,42.264,19.791Zm-10.693,0a2.037,2.037,0,1,1,2.037,2.083A2.06,2.06,0,0,1,31.57,19.791Zm-10.185,0a2.037,2.037,0,1,1,2.037,2.083A2.06,2.06,0,0,1,21.386,19.791Zm-10.693,0a2.037,2.037,0,1,1,2.037,2.083A2.06,2.06,0,0,1,10.693,19.791ZM0,19.791a2.06,2.06,0,0,1,2.037-2.083,2.084,2.084,0,0,1,0,4.166A2.06,2.06,0,0,1,0,19.791Zm95.218-8.855a2.037,2.037,0,1,1,2.037,2.083A2.06,2.06,0,0,1,95.218,10.937Zm-10.693,0a2.037,2.037,0,1,1,2.037,2.083A2.06,2.06,0,0,1,84.525,10.937Zm-10.183,0a2.037,2.037,0,1,1,2.037,2.083A2.061,2.061,0,0,1,74.341,10.937Zm-10.693,0a2.037,2.037,0,1,1,2.037,2.083A2.061,2.061,0,0,1,63.648,10.937Zm-10.693,0a2.037,2.037,0,1,1,2.037,2.083A2.061,2.061,0,0,1,52.956,10.937Zm-10.692,0A2.037,2.037,0,1,1,44.3,13.02,2.06,2.06,0,0,1,42.264,10.937Zm-10.693,0a2.037,2.037,0,1,1,2.037,2.083A2.06,2.06,0,0,1,31.57,10.937Zm-10.185,0a2.037,2.037,0,1,1,2.037,2.083A2.06,2.06,0,0,1,21.386,10.937Zm-10.693,0a2.037,2.037,0,1,1,2.037,2.083A2.06,2.06,0,0,1,10.693,10.937ZM0,10.937A2.06,2.06,0,0,1,2.037,8.854a2.084,2.084,0,0,1,0,4.166A2.06,2.06,0,0,1,0,10.937ZM95.218,2.083a2.037,2.037,0,1,1,4.074,0,2.037,2.037,0,1,1-4.074,0Zm-10.693,0a2.037,2.037,0,1,1,4.074,0,2.037,2.037,0,1,1-4.074,0Zm-10.183,0a2.037,2.037,0,1,1,4.074,0,2.037,2.037,0,1,1-4.074,0Zm-10.693,0a2.037,2.037,0,1,1,4.074,0,2.037,2.037,0,1,1-4.074,0Zm-10.693,0a2.037,2.037,0,1,1,4.074,0,2.037,2.037,0,1,1-4.074,0Zm-10.692,0a2.037,2.037,0,1,1,4.073,0,2.037,2.037,0,1,1-4.073,0Zm-10.693,0a2.037,2.037,0,1,1,4.073,0,2.037,2.037,0,1,1-4.073,0Zm-10.185,0a2.037,2.037,0,1,1,4.074,0,2.037,2.037,0,1,1-4.074,0Zm-10.693,0a2.037,2.037,0,1,1,4.074,0,2.037,2.037,0,1,1-4.074,0ZM0,2.083A2.06,2.06,0,0,1,2.037,0,2.06,2.06,0,0,1,4.074,2.083,2.06,2.06,0,0,1,2.037,4.166,2.06,2.06,0,0,1,0,2.083Z" transform="translate(1099.735 44202.34)"/><path class="a" d="M95.218,98.423a2.037,2.037,0,1,1,2.037,2.083A2.061,2.061,0,0,1,95.218,98.423Zm-10.693,0a2.037,2.037,0,1,1,2.037,2.083A2.061,2.061,0,0,1,84.525,98.423Zm-10.183,0a2.037,2.037,0,1,1,2.037,2.083A2.061,2.061,0,0,1,74.341,98.423Zm-10.693,0a2.037,2.037,0,1,1,2.037,2.083A2.061,2.061,0,0,1,63.648,98.423Zm-10.693,0a2.037,2.037,0,1,1,2.037,2.083A2.061,2.061,0,0,1,52.956,98.423Zm-10.692,0a2.037,2.037,0,1,1,2.037,2.083A2.061,2.061,0,0,1,42.264,98.423Zm-10.693,0a2.037,2.037,0,1,1,2.037,2.083A2.061,2.061,0,0,1,31.57,98.423Zm-10.185,0a2.037,2.037,0,1,1,2.037,2.083A2.061,2.061,0,0,1,21.386,98.423Zm-10.693,0a2.037,2.037,0,1,1,2.037,2.083A2.061,2.061,0,0,1,10.693,98.423ZM0,98.423A2.061,2.061,0,0,1,2.037,96.34a2.084,2.084,0,0,1,0,4.166A2.06,2.06,0,0,1,0,98.423Zm95.218-8.851a2.037,2.037,0,1,1,2.037,2.083A2.06,2.06,0,0,1,95.218,89.572Zm-10.693,0a2.037,2.037,0,1,1,2.037,2.083A2.06,2.06,0,0,1,84.525,89.572Zm-10.183,0a2.037,2.037,0,1,1,2.037,2.083A2.061,2.061,0,0,1,74.341,89.572Zm-10.693,0a2.037,2.037,0,1,1,2.037,2.083A2.061,2.061,0,0,1,63.648,89.572Zm-10.693,0a2.037,2.037,0,1,1,2.037,2.083A2.061,2.061,0,0,1,52.956,89.572Zm-10.692,0A2.037,2.037,0,1,1,44.3,91.655,2.06,2.06,0,0,1,42.264,89.572Zm-10.693,0a2.037,2.037,0,1,1,2.037,2.083A2.06,2.06,0,0,1,31.57,89.572Zm-10.185,0a2.037,2.037,0,1,1,2.037,2.083A2.06,2.06,0,0,1,21.386,89.572Zm-10.693,0a2.037,2.037,0,1,1,2.037,2.083A2.06,2.06,0,0,1,10.693,89.572ZM0,89.572a2.06,2.06,0,0,1,2.037-2.083,2.084,2.084,0,0,1,0,4.166A2.06,2.06,0,0,1,0,89.572Zm95.218-8.333a2.037,2.037,0,1,1,2.037,2.083A2.06,2.06,0,0,1,95.218,81.239Zm-10.693,0a2.037,2.037,0,1,1,2.037,2.083A2.06,2.06,0,0,1,84.525,81.239Zm-10.183,0a2.037,2.037,0,1,1,2.037,2.083A2.061,2.061,0,0,1,74.341,81.239Zm-10.693,0a2.037,2.037,0,1,1,2.037,2.083A2.061,2.061,0,0,1,63.648,81.239Zm-10.693,0a2.037,2.037,0,1,1,2.037,2.083A2.061,2.061,0,0,1,52.956,81.239Zm-10.692,0A2.037,2.037,0,1,1,44.3,83.322,2.06,2.06,0,0,1,42.264,81.239Zm-10.693,0a2.037,2.037,0,1,1,2.037,2.083A2.06,2.06,0,0,1,31.57,81.239Zm-10.185,0a2.037,2.037,0,1,1,2.037,2.083A2.06,2.06,0,0,1,21.386,81.239Zm-10.693,0a2.037,2.037,0,1,1,2.037,2.083A2.06,2.06,0,0,1,10.693,81.239ZM0,81.239a2.06,2.06,0,0,1,2.037-2.083,2.084,2.084,0,0,1,0,4.166A2.06,2.06,0,0,1,0,81.239Zm95.218-8.855a2.037,2.037,0,1,1,2.037,2.083A2.06,2.06,0,0,1,95.218,72.385Zm-10.693,0a2.037,2.037,0,1,1,2.037,2.083A2.06,2.06,0,0,1,84.525,72.385Zm-10.183,0a2.037,2.037,0,1,1,2.037,2.083A2.061,2.061,0,0,1,74.341,72.385Zm-10.693,0a2.037,2.037,0,1,1,2.037,2.083A2.061,2.061,0,0,1,63.648,72.385Zm-10.693,0a2.037,2.037,0,1,1,2.037,2.083A2.061,2.061,0,0,1,52.956,72.385Zm-10.692,0A2.037,2.037,0,1,1,44.3,74.468,2.06,2.06,0,0,1,42.264,72.385Zm-10.693,0a2.037,2.037,0,1,1,2.037,2.083A2.06,2.06,0,0,1,31.57,72.385Zm-10.185,0a2.037,2.037,0,1,1,2.037,2.083A2.06,2.06,0,0,1,21.386,72.385Zm-10.693,0a2.037,2.037,0,1,1,2.037,2.083A2.06,2.06,0,0,1,10.693,72.385ZM0,72.385A2.06,2.06,0,0,1,2.037,70.3a2.084,2.084,0,0,1,0,4.166A2.06,2.06,0,0,1,0,72.385Zm95.218-8.851a2.037,2.037,0,1,1,2.037,2.083A2.06,2.06,0,0,1,95.218,63.533Zm-10.693,0a2.037,2.037,0,1,1,2.037,2.083A2.06,2.06,0,0,1,84.525,63.533Zm-10.183,0a2.037,2.037,0,1,1,2.037,2.083A2.06,2.06,0,0,1,74.341,63.533Zm-10.693,0a2.037,2.037,0,1,1,2.037,2.083A2.06,2.06,0,0,1,63.648,63.533Zm-10.693,0a2.037,2.037,0,1,1,2.037,2.083A2.06,2.06,0,0,1,52.956,63.533Zm-10.692,0A2.037,2.037,0,1,1,44.3,65.616,2.06,2.06,0,0,1,42.264,63.533Zm-10.693,0a2.037,2.037,0,1,1,2.037,2.083A2.06,2.06,0,0,1,31.57,63.533Zm-10.185,0a2.037,2.037,0,1,1,2.037,2.083A2.06,2.06,0,0,1,21.386,63.533Zm-10.693,0a2.037,2.037,0,1,1,2.037,2.083A2.06,2.06,0,0,1,10.693,63.533ZM0,63.533a2.06,2.06,0,0,1,2.037-2.083,2.083,2.083,0,0,1,0,4.166A2.06,2.06,0,0,1,0,63.533ZM95.218,54.68a2.037,2.037,0,1,1,2.037,2.083A2.06,2.06,0,0,1,95.218,54.68Zm-10.693,0a2.037,2.037,0,1,1,2.037,2.083A2.06,2.06,0,0,1,84.525,54.68Zm-10.183,0a2.037,2.037,0,1,1,2.037,2.083A2.061,2.061,0,0,1,74.341,54.68Zm-10.693,0a2.037,2.037,0,1,1,2.037,2.083A2.061,2.061,0,0,1,63.648,54.68Zm-10.693,0a2.037,2.037,0,1,1,2.037,2.083A2.061,2.061,0,0,1,52.956,54.68Zm-10.692,0A2.037,2.037,0,1,1,44.3,56.763,2.06,2.06,0,0,1,42.264,54.68Zm-10.693,0a2.037,2.037,0,1,1,2.037,2.083A2.06,2.06,0,0,1,31.57,54.68Zm-10.185,0a2.037,2.037,0,1,1,2.037,2.083A2.06,2.06,0,0,1,21.386,54.68Zm-10.693,0a2.037,2.037,0,1,1,2.037,2.083A2.06,2.06,0,0,1,10.693,54.68ZM0,54.68A2.06,2.06,0,0,1,2.037,52.6a2.083,2.083,0,0,1,0,4.166A2.06,2.06,0,0,1,0,54.68Zm95.218-8.851a2.037,2.037,0,1,1,2.037,2.083A2.06,2.06,0,0,1,95.218,45.829Zm-10.693,0a2.037,2.037,0,1,1,2.037,2.083A2.06,2.06,0,0,1,84.525,45.829Zm-10.183,0a2.037,2.037,0,1,1,2.037,2.083A2.061,2.061,0,0,1,74.341,45.829Zm-10.693,0a2.037,2.037,0,1,1,2.037,2.083A2.061,2.061,0,0,1,63.648,45.829Zm-10.693,0a2.037,2.037,0,1,1,2.037,2.083A2.061,2.061,0,0,1,52.956,45.829Zm-10.692,0A2.037,2.037,0,1,1,44.3,47.912,2.06,2.06,0,0,1,42.264,45.829Zm-10.693,0a2.037,2.037,0,1,1,2.037,2.083A2.06,2.06,0,0,1,31.57,45.829Zm-10.185,0a2.037,2.037,0,1,1,2.037,2.083A2.06,2.06,0,0,1,21.386,45.829Zm-10.693,0a2.037,2.037,0,1,1,2.037,2.083A2.06,2.06,0,0,1,10.693,45.829ZM0,45.829a2.06,2.06,0,0,1,2.037-2.083,2.084,2.084,0,0,1,0,4.166A2.06,2.06,0,0,1,0,45.829Zm95.218-8.854a2.037,2.037,0,1,1,2.037,2.083A2.06,2.06,0,0,1,95.218,36.975Zm-10.693,0a2.037,2.037,0,1,1,2.037,2.083A2.06,2.06,0,0,1,84.525,36.975Zm-10.183,0a2.037,2.037,0,1,1,2.037,2.083A2.061,2.061,0,0,1,74.341,36.975Zm-10.693,0a2.037,2.037,0,1,1,2.037,2.083A2.061,2.061,0,0,1,63.648,36.975Zm-10.693,0a2.037,2.037,0,1,1,2.037,2.083A2.061,2.061,0,0,1,52.956,36.975Zm-10.692,0A2.037,2.037,0,1,1,44.3,39.058,2.06,2.06,0,0,1,42.264,36.975Zm-10.693,0a2.037,2.037,0,1,1,2.037,2.083A2.06,2.06,0,0,1,31.57,36.975Zm-10.185,0a2.037,2.037,0,1,1,2.037,2.083A2.06,2.06,0,0,1,21.386,36.975Zm-10.693,0a2.037,2.037,0,1,1,2.037,2.083A2.06,2.06,0,0,1,10.693,36.975ZM0,36.975a2.06,2.06,0,0,1,2.037-2.083,2.084,2.084,0,0,1,0,4.166A2.06,2.06,0,0,1,0,36.975Zm95.218-8.333a2.037,2.037,0,1,1,2.037,2.083A2.06,2.06,0,0,1,95.218,28.642Zm-10.693,0a2.037,2.037,0,1,1,2.037,2.083A2.06,2.06,0,0,1,84.525,28.642Zm-10.183,0a2.037,2.037,0,1,1,2.037,2.083A2.06,2.06,0,0,1,74.341,28.642Zm-10.693,0a2.037,2.037,0,1,1,2.037,2.083A2.06,2.06,0,0,1,63.648,28.642Zm-10.693,0a2.037,2.037,0,1,1,2.037,2.083A2.06,2.06,0,0,1,52.956,28.642Zm-10.692,0A2.037,2.037,0,1,1,44.3,30.725,2.06,2.06,0,0,1,42.264,28.642Zm-10.693,0a2.037,2.037,0,1,1,2.037,2.083A2.06,2.06,0,0,1,31.57,28.642Zm-10.185,0a2.037,2.037,0,1,1,2.037,2.083A2.06,2.06,0,0,1,21.386,28.642Zm-10.693,0a2.037,2.037,0,1,1,2.037,2.083A2.06,2.06,0,0,1,10.693,28.642ZM0,28.642A2.06,2.06,0,0,1,2.037,26.56a2.083,2.083,0,0,1,0,4.166A2.06,2.06,0,0,1,0,28.642Zm95.218-8.851a2.037,2.037,0,1,1,2.037,2.083A2.06,2.06,0,0,1,95.218,19.791Zm-10.693,0a2.037,2.037,0,1,1,2.037,2.083A2.06,2.06,0,0,1,84.525,19.791Zm-10.183,0a2.037,2.037,0,1,1,2.037,2.083A2.061,2.061,0,0,1,74.341,19.791Zm-10.693,0a2.037,2.037,0,1,1,2.037,2.083A2.061,2.061,0,0,1,63.648,19.791Zm-10.693,0a2.037,2.037,0,1,1,2.037,2.083A2.061,2.061,0,0,1,52.956,19.791Zm-10.692,0A2.037,2.037,0,1,1,44.3,21.875,2.06,2.06,0,0,1,42.264,19.791Zm-10.693,0a2.037,2.037,0,1,1,2.037,2.083A2.06,2.06,0,0,1,31.57,19.791Zm-10.185,0a2.037,2.037,0,1,1,2.037,2.083A2.06,2.06,0,0,1,21.386,19.791Zm-10.693,0a2.037,2.037,0,1,1,2.037,2.083A2.06,2.06,0,0,1,10.693,19.791ZM0,19.791a2.06,2.06,0,0,1,2.037-2.083,2.084,2.084,0,0,1,0,4.166A2.06,2.06,0,0,1,0,19.791Zm95.218-8.855a2.037,2.037,0,1,1,2.037,2.083A2.06,2.06,0,0,1,95.218,10.937Zm-10.693,0a2.037,2.037,0,1,1,2.037,2.083A2.06,2.06,0,0,1,84.525,10.937Zm-10.183,0a2.037,2.037,0,1,1,2.037,2.083A2.061,2.061,0,0,1,74.341,10.937Zm-10.693,0a2.037,2.037,0,1,1,2.037,2.083A2.061,2.061,0,0,1,63.648,10.937Zm-10.693,0a2.037,2.037,0,1,1,2.037,2.083A2.061,2.061,0,0,1,52.956,10.937Zm-10.692,0A2.037,2.037,0,1,1,44.3,13.02,2.06,2.06,0,0,1,42.264,10.937Zm-10.693,0a2.037,2.037,0,1,1,2.037,2.083A2.06,2.06,0,0,1,31.57,10.937Zm-10.185,0a2.037,2.037,0,1,1,2.037,2.083A2.06,2.06,0,0,1,21.386,10.937Zm-10.693,0a2.037,2.037,0,1,1,2.037,2.083A2.06,2.06,0,0,1,10.693,10.937ZM0,10.937A2.06,2.06,0,0,1,2.037,8.854a2.084,2.084,0,0,1,0,4.166A2.06,2.06,0,0,1,0,10.937ZM95.218,2.083a2.037,2.037,0,1,1,4.074,0,2.037,2.037,0,1,1-4.074,0Zm-10.693,0a2.037,2.037,0,1,1,4.074,0,2.037,2.037,0,1,1-4.074,0Zm-10.183,0a2.037,2.037,0,1,1,4.074,0,2.037,2.037,0,1,1-4.074,0Zm-10.693,0a2.037,2.037,0,1,1,4.074,0,2.037,2.037,0,1,1-4.074,0Zm-10.693,0a2.037,2.037,0,1,1,4.074,0,2.037,2.037,0,1,1-4.074,0Zm-10.692,0a2.037,2.037,0,1,1,4.073,0,2.037,2.037,0,1,1-4.073,0Zm-10.693,0a2.037,2.037,0,1,1,4.073,0,2.037,2.037,0,1,1-4.073,0Zm-10.185,0a2.037,2.037,0,1,1,4.074,0,2.037,2.037,0,1,1-4.074,0Zm-10.693,0a2.037,2.037,0,1,1,4.074,0,2.037,2.037,0,1,1-4.074,0ZM0,2.083A2.06,2.06,0,0,1,2.037,0,2.06,2.06,0,0,1,4.074,2.083,2.06,2.06,0,0,1,2.037,4.166,2.06,2.06,0,0,1,0,2.083Z" transform="translate(777 44236.641)"/><g transform="translate(815.769 44108.09)"><g transform="translate(187.246 0)"><g class="x" transform="matrix(1, 0, 0, 1, -226.01, -8)"><rect class="b" width="161.675" height="161.675" rx="31" transform="translate(226.01 8)"/></g><g transform="translate(37.615 31.563)"><path class="c" d="M364.233,0a13.539,13.539,0,0,0-13.539,13.539V40.426h25.163v-28.8A11.625,11.625,0,0,0,364.233,0Z" transform="translate(-289.279 0)"/><path class="d" d="M93.173,11.625A11.625,11.625,0,0,1,104.8,0H44.2A14.368,14.368,0,0,0,29.844,14.352V95.08a2.873,2.873,0,0,0,4.945,1.986l3.673-3.836,3.88,3.88a2.871,2.871,0,0,0,4.06,0l3.677-3.676L53.8,97.119a2.871,2.871,0,0,0,4.043,0l3.773-3.741,3.774,3.741a2.871,2.871,0,0,0,4.041,0l3.637-3.6,3.627,3.6a2.872,2.872,0,0,0,4.043,0l3.773-3.741L88.28,97.12a2.874,2.874,0,0,0,4.892-2.039c0-3.977,0-80.963,0-83.456Z" transform="translate(-29.844 0)"/><path class="e" d="M238.99,0a11.625,11.625,0,0,0-11.624,11.624V95.08a2.873,2.873,0,0,1-4.892,2.039l-3.775-3.74-3.773,3.74a2.87,2.87,0,0,1-4.043,0l-3.627-3.6-3.637,3.6a2.869,2.869,0,0,1-4.041,0l-3.775-3.74V0Z" transform="translate(-164.037 0)"/><path class="f" d="M165.17,75.234c-2.747-2.141-6.331-2.473-7.132-3.918a1.491,1.491,0,0,1,.632-1.763,3.431,3.431,0,0,1,3.395.249,2.871,2.871,0,1,0,3.893-4.221,7.934,7.934,0,0,0-3.247-1.752v-.237a2.871,2.871,0,1,0-5.742,0v.429A7.216,7.216,0,0,0,153.016,74.1c2.124,3.835,6.574,4.066,8.625,5.665,1.782,1.389.725,3.236-.6,3.859a6.141,6.141,0,0,1-5-.723A2.871,2.871,0,0,0,152.9,87.7a12.257,12.257,0,0,0,4.071,1.646v.365a2.871,2.871,0,0,0,5.742,0v-.586c5.821-2.017,7.908-9.649,2.458-13.9Z" transform="translate(-128.294 -49.098)"/><path class="g" d="M198.455,139.674v.586a2.87,2.87,0,0,1-2.651,2.862V134.41c2.134-.2,3.536-2.578,1.581-4.1a7.3,7.3,0,0,0-1.581-.879v-6.2a20.88,20.88,0,0,1,5.111,2.548c5.45,4.247,3.363,11.879-2.46,13.9Z" transform="translate(-164.037 -99.642)"/><path class="g" d="M197.808,69.841a3.218,3.218,0,0,0-2-.588V60.77a2.87,2.87,0,0,1,2.651,2.862v.237A7.926,7.926,0,0,1,201.7,65.62a2.871,2.871,0,1,1-3.893,4.221Z" transform="translate(-164.037 -49.138)"/><g transform="translate(11.647 49.017)"><path class="h" d="M93.664,261.822H108.02a2.871,2.871,0,1,0,0-5.742H93.664a2.871,2.871,0,1,0,0,5.742Z" transform="translate(-90.774 -256.08)"/><path class="h" d="M107.98,316.18H93.614a2.871,2.871,0,1,0,0,5.742H107.98a2.871,2.871,0,1,0,0-5.742Z" transform="translate(-90.733 -304.676)"/><path class="h" d="M107.939,376.08H93.564a2.871,2.871,0,0,0,0,5.742h14.375a2.871,2.871,0,1,0,0-5.742Z" transform="translate(-90.693 -353.111)"/></g><circle class="i" cx="25.841" cy="25.841" r="25.841" transform="translate(34.705 46.322)"/><path class="j" d="M371.995,267.841a25.87,25.87,0,0,1-25.841,25.841V242A25.87,25.87,0,0,1,371.995,267.841Z" transform="translate(-285.608 -195.678)"/><circle class="k" cx="20.098" cy="20.098" r="20.098" transform="translate(40.448 52.064)"/><path class="l" d="M366.252,292.1a20.12,20.12,0,0,1-20.1,20.1V272A20.12,20.12,0,0,1,366.252,292.1Z" transform="translate(-285.608 -219.936)"/><path class="m" d="M302.348,320.362a2.871,2.871,0,0,0-2.871,2.871V329.1h-5.812a2.871,2.871,0,0,0,0,5.742h8.683a2.871,2.871,0,0,0,2.871-2.871v-8.736A2.871,2.871,0,0,0,302.348,320.362Z" transform="translate(-240.845 -259.041)"/><path class="j" d="M349.982,323.231v8.736a2.871,2.871,0,0,1-2.871,2.871h-.957V320.525a2.841,2.841,0,0,1,.957-.165A2.871,2.871,0,0,1,349.982,323.231Z" transform="translate(-285.608 -259.039)"/></g></g><g transform="translate(0 161.677)"><g class="w" transform="matrix(1, 0, 0, 1, -38.77, -169.68)"><rect class="f" width="164.15" height="163.325" rx="31" transform="translate(38.77 169.68)"/></g><g transform="translate(36.327 35.566)"><path class="n" d="M66.316,255.534H55.578v-47.19H66.316Zm0,0" transform="translate(-45.631 -171.054)"/><path class="n" d="M179.93,255.534H169.191v-47.19H179.93Zm0,0" transform="translate(-138.909 -171.054)"/><path class="o" d="M293.548,255.534H282.809v-47.19h10.739Zm0,0" transform="translate(-232.191 -171.054)"/><path class="o" d="M407.164,255.534H396.426v-47.19h10.738Zm0,0" transform="translate(-325.473 -171.054)"/><path class="p" d="M111.8,164.456H38.263a2.685,2.685,0,0,1-2.685-2.685V151.033a2.685,2.685,0,0,1,2.685-2.685H111.8a2.685,2.685,0,0,1,2.685,2.685v10.738A2.685,2.685,0,0,1,111.8,164.456Zm0,0" transform="translate(-29.21 -121.796)"/><path class="n" d="M292.761,148.344H255.992v16.108h36.769a2.685,2.685,0,0,0,2.685-2.685V151.029A2.685,2.685,0,0,0,292.761,148.344Zm0,0" transform="translate(-210.174 -121.793)"/><path class="q" d="M88.965,454.529H2.7a2.685,2.685,0,0,1-2.685-2.685v-7.159A2.685,2.685,0,0,1,2.7,442H88.965a2.685,2.685,0,0,1,2.685,2.685v7.159A2.685,2.685,0,0,1,88.965,454.529Zm0,0" transform="translate(-0.013 -362.89)"/><path class="p" d="M299.127,442H255.992v12.529h43.135a2.685,2.685,0,0,0,2.685-2.685v-7.159A2.685,2.685,0,0,0,299.127,442Zm0,0" transform="translate(-210.174 -362.89)"/><path class="q" d="M101.27,41.551H15L58.135,15Zm0,0" transform="translate(-12.315 -12.315)"/><path class="p" d="M255.992,41.551h43.136L255.993,15h0Zm0,0" transform="translate(-210.174 -12.315)"/><path class="r" d="M88.955,31.92H2.686a2.685,2.685,0,0,1-1.407-4.971L44.413.4a2.684,2.684,0,0,1,2.815,0L90.363,26.949a2.685,2.685,0,0,1-1.407,4.971ZM12.169,26.551h67.3L45.82,5.837Zm0,0" transform="translate(-0.001 0)"/><path class="q" d="M300.535,26.949,257.4.4a2.687,2.687,0,0,0-1.409-.4V5.837h0L289.645,26.55H255.992V31.92h43.136a2.685,2.685,0,0,0,1.407-4.971Zm0,0" transform="translate(-210.174 0.001)"/><path class="s" d="M237.136,93.6h-3.651a2.685,2.685,0,0,1,0-5.369h3.651a2.685,2.685,0,0,1,0,5.369Zm0,0" transform="translate(-189.492 -72.436)"/><path class="t" d="M257.819,88.227h-1.827V93.6h1.827a2.685,2.685,0,0,0,0-5.369Zm0,0" transform="translate(-210.174 -72.435)"/></g></g><g transform="translate(82.45 58.36)"><path class="u" d="M72.292-270.384l-1.379-9.239,22.646,9.873L74.642-254.643l-1.423-9.535A81.408,81.408,0,0,0,6.271-184.071H0A87.682,87.682,0,0,1,72.292-270.384Z" transform="translate(0 279.623)"/></g><g transform="translate(182.8 175.312)"><path class="v" d="M21.267-193.31l1.379,9.239L0-193.944l18.918-15.107,1.423,9.535a81.408,81.408,0,0,0,66.948-80.108h6.271A87.682,87.682,0,0,1,21.267-193.31Z" transform="translate(0 279.623)"/></g></g></g></svg>