<svg xmlns="http://www.w3.org/2000/svg" width="65" height="65" viewBox="0 0 65 65"><defs><style>.a{fill:#1ea554;}.b{fill:#fff;}</style></defs><g transform="translate(-851 -24178)"><g transform="translate(757 15743)"><circle class="a" cx="32.5" cy="32.5" r="32.5" transform="translate(94 8435)"/></g><g transform="translate(865 24117.391)"><g transform="translate(0 80.609)"><path class="b" d="M33.063,80.609H3.186A3.19,3.19,0,0,0,0,83.795v18.463a3.19,3.19,0,0,0,3.186,3.186H33.063a3.19,3.19,0,0,0,3.186-3.186V83.795A3.19,3.19,0,0,0,33.063,80.609Zm-.416,2.124-.425.354L19.389,93.773a1.975,1.975,0,0,1-2.528,0L4.027,83.087,3.6,82.733ZM2.124,84.266,12.58,92.973,2.124,99.932ZM33.063,103.32H3.186a1.064,1.064,0,0,1-1.041-.85l12.138-8.078L15.5,95.406a4.1,4.1,0,0,0,5.246,0l1.218-1.014L34.1,102.47A1.064,1.064,0,0,1,33.063,103.32Zm1.062-3.388L23.669,92.973l10.456-8.707Z" transform="translate(0 -80.609)"/></g></g></g></svg>