<svg xmlns="http://www.w3.org/2000/svg" width="130.1" height="45.086" viewBox="0 0 130.1 45.086">
  <g id="lp-aio-coming-soon" transform="translate(-1134.701 -33035.727)">
    <path id="lp-aio-arrow" d="M376.028,148.652c3.08.544,4.57,5.893,5.79,8.235,1.092,2.1-2.233,4.209-3.58,2.2-.373-.557-.754-1.1-1.136-1.637-.061,15.7-6.738,33.064-19.641,42.114a.658.658,0,0,1-.828-1.023c6.105-6.376,11.278-12.806,14.436-21.177a50.829,50.829,0,0,0,3.1-21.432c-.5.706-1.011,1.4-1.576,2.064a2.208,2.208,0,0,1-3.589-2.568C370.288,153.267,372.82,148.085,376.028,148.652Z" transform="translate(1118.566 33461.965) rotate(-109)" fill="#646464"/>
    <path id="Path_14442" data-name="Path 14442" d="M-38.027-6.812a1.632,1.632,0,0,0-.809.207,2.1,2.1,0,0,0-.648.57,2.784,2.784,0,0,0-.434.855,3.466,3.466,0,0,0-.156,1.055,2.222,2.222,0,0,0,.262,1.066,2.687,2.687,0,0,0,.727.852,3.509,3.509,0,0,0,1.094.566,4.439,4.439,0,0,0,1.371.2,5.112,5.112,0,0,0,1.02-.1,3.892,3.892,0,0,0,.84-.262,1.81,1.81,0,0,0,.57-.387.681.681,0,0,0,.211-.473.671.671,0,0,0-.07-.324,1.376,1.376,0,0,0-.16-.234,2.256,2.256,0,0,1-.16-.211.477.477,0,0,1-.07-.27.6.6,0,0,1,.078-.3.846.846,0,0,1,.215-.25,1.069,1.069,0,0,1,.313-.172,1.076,1.076,0,0,1,.363-.062.826.826,0,0,1,.426.117,1.1,1.1,0,0,1,.344.324,1.664,1.664,0,0,1,.227.484,2.07,2.07,0,0,1,.082.59,2.194,2.194,0,0,1-.336,1.176,3.025,3.025,0,0,1-.93.934,4.9,4.9,0,0,1-1.406.613,6.663,6.663,0,0,1-1.766.223A6.35,6.35,0,0,1-38.777-.3a4.837,4.837,0,0,1-1.535-.793,3.662,3.662,0,0,1-1-1.2,3.268,3.268,0,0,1-.359-1.523,4.633,4.633,0,0,1,.316-1.711A4.535,4.535,0,0,1-40.5-6.937a4.133,4.133,0,0,1,1.277-.953,3.548,3.548,0,0,1,1.559-.352,2.626,2.626,0,0,1,.676.082,1.825,1.825,0,0,1,.535.23,1.194,1.194,0,0,1,.355.348.783.783,0,0,1,.129.434.8.8,0,0,1-.082.355,1.056,1.056,0,0,1-.215.3,1.053,1.053,0,0,1-.309.207.9.9,0,0,1-.371.078.516.516,0,0,1-.324-.094,1.678,1.678,0,0,1-.223-.207,1.823,1.823,0,0,0-.219-.207A.5.5,0,0,0-38.027-6.812Zm5.484,4.219a1.6,1.6,0,0,1,.031-.3,1.924,1.924,0,0,0,.031-.359.225.225,0,0,0-.113-.2l-.254-.156a1.059,1.059,0,0,1-.254-.219.574.574,0,0,1-.113-.383.747.747,0,0,1,.1-.359,1.079,1.079,0,0,1,.285-.328,8.307,8.307,0,0,1,.957-.617,7.686,7.686,0,0,1,.992-.461,6.611,6.611,0,0,1,.98-.289,4.53,4.53,0,0,1,.93-.1,3.6,3.6,0,0,1,1.41.277,3.615,3.615,0,0,1,1.148.758,3.612,3.612,0,0,1,.773,1.125,3.37,3.37,0,0,1,.285,1.379,3.185,3.185,0,0,1-.3,1.363,3.719,3.719,0,0,1-.809,1.129,3.861,3.861,0,0,1-1.191.77A3.707,3.707,0,0,1-29.1.719a3.709,3.709,0,0,1-1.375-.25,3.332,3.332,0,0,1-1.094-.691,3.13,3.13,0,0,1-.719-1.047A3.345,3.345,0,0,1-32.543-2.594Zm3.617,1.906a1.919,1.919,0,0,0,.68-.133,2.125,2.125,0,0,0,.645-.387,2.089,2.089,0,0,0,.484-.621,1.765,1.765,0,0,0,.191-.828,2.222,2.222,0,0,0-.172-.875,2.2,2.2,0,0,0-.473-.707,2.191,2.191,0,0,0-.711-.473,2.271,2.271,0,0,0-.887-.172,1.826,1.826,0,0,0-1.328.449,1.848,1.848,0,0,0-.461,1.379,2.821,2.821,0,0,0,.152.941,2.3,2.3,0,0,0,.426.75,1.991,1.991,0,0,0,.645.5A1.831,1.831,0,0,0-28.926-.687ZM-23.645.336Q-23.7-.7-23.82-1.582t-.25-1.535Q-24.2-3.773-24.3-4.18a3.163,3.163,0,0,1-.1-.508.457.457,0,0,1,.113-.289A1.1,1.1,0,0,1-24-5.223a1.652,1.652,0,0,1,.371-.168,1.224,1.224,0,0,1,.363-.062.528.528,0,0,1,.23.047.263.263,0,0,1,.137.156q.039.133.074.277t.074.348q.047.289.125.289t.2-.258a2.835,2.835,0,0,1,.336-.594,1.615,1.615,0,0,1,.387-.371,1.371,1.371,0,0,1,.43-.191,1.942,1.942,0,0,1,.465-.055,1.6,1.6,0,0,1,1.246.578,4.071,4.071,0,0,1,.8,1.672.5.5,0,0,0,.07.16.093.093,0,0,0,.07.035.132.132,0,0,0,.082-.035.338.338,0,0,0,.082-.145A3.762,3.762,0,0,1-18.02-4.4a2.928,2.928,0,0,1,.52-.578,1.863,1.863,0,0,1,.551-.324,1.586,1.586,0,0,1,.539-.1,1.26,1.26,0,0,1,.863.348,2.945,2.945,0,0,1,.688,1.07,9.958,9.958,0,0,1,.523,1.828q.223,1.105.371,2.621a.65.65,0,0,1-.258.59,1.277,1.277,0,0,1-.7.168.732.732,0,0,1-.453-.125.464.464,0,0,1-.187-.328q-.1-1.086-.223-1.934t-.262-1.43a3.714,3.714,0,0,0-.309-.887q-.168-.3-.371-.3a.419.419,0,0,0-.254.148,1.786,1.786,0,0,0-.324.543,8.314,8.314,0,0,0-.359,1.078,17.158,17.158,0,0,0-.359,1.746.634.634,0,0,1-.285.453,1.038,1.038,0,0,1-.582.156.9.9,0,0,1-.551-.125.558.558,0,0,1-.168-.422q-.031-.516-.105-1.027t-.184-.977q-.109-.465-.242-.859a5.2,5.2,0,0,0-.281-.687,1.927,1.927,0,0,0-.3-.457.437.437,0,0,0-.3-.164q-.2,0-.379.273a2.814,2.814,0,0,0-.328.773,7.8,7.8,0,0,0-.23,1.2,13.027,13.027,0,0,0-.086,1.57q0,.148.008.293t.008.3a.857.857,0,0,1-.074.383.574.574,0,0,1-.211.234.867.867,0,0,1-.316.117A2.283,2.283,0,0,1-23.035.8,1.429,1.429,0,0,1-23.348.77a.412.412,0,0,1-.18-.082.28.28,0,0,1-.086-.145A1.121,1.121,0,0,1-23.645.336Zm11.836-8.3a1.338,1.338,0,0,1-.426-.066,1.042,1.042,0,0,1-.344-.187.935.935,0,0,1-.23-.285.763.763,0,0,1-.086-.359.641.641,0,0,1,.262-.531,1.11,1.11,0,0,1,.7-.2,1.052,1.052,0,0,1,.391.074,1.15,1.15,0,0,1,.332.2.966.966,0,0,1,.23.293.754.754,0,0,1,.086.348.631.631,0,0,1-.246.527A1.061,1.061,0,0,1-11.809-7.969Zm-1.07,2.383a.536.536,0,0,1,.238-.449,1.035,1.035,0,0,1,.629-.176q.7,0,.75.484.031.336.066.758t.07.895q.035.473.063.977t.051.992q.023.488.039.941t.016.828a.669.669,0,0,1-.277.586,1.4,1.4,0,0,1-.809.2.577.577,0,0,1-.379-.113A.406.406,0,0,1-12.559,0q0-1.078-.051-2.02T-12.719-3.7q-.059-.734-.109-1.223T-12.879-5.586Zm3.5-.719a.346.346,0,0,1,.1-.23.992.992,0,0,1,.266-.2,1.779,1.779,0,0,1,.371-.148,1.528,1.528,0,0,1,.418-.059.319.319,0,0,1,.2.063.512.512,0,0,1,.145.238,2.922,2.922,0,0,1,.113.492q.051.316.1.824a2.115,2.115,0,0,0,.059.238q.027.082.074.082.07,0,.141-.242Q-6.824-6.9-5.746-6.9a1.466,1.466,0,0,1,.91.313,2.9,2.9,0,0,1,.766,1.02,10.482,10.482,0,0,1,.676,1.859q.32,1.152.641,2.84.016.086.023.156a1.206,1.206,0,0,1,.008.133A.563.563,0,0,1-2.8-.27a.665.665,0,0,1-.215.211,1.083,1.083,0,0,1-.3.125,1.29,1.29,0,0,1-.328.043,1.157,1.157,0,0,1-.473-.07A.349.349,0,0,1-4.3-.227q-.227-1.188-.441-2.109t-.422-1.551a4.649,4.649,0,0,0-.41-.957q-.2-.328-.406-.328a.481.481,0,0,0-.379.254,2.972,2.972,0,0,0-.34.793,12.739,12.739,0,0,0-.316,1.367q-.152.828-.293,1.977a.689.689,0,0,1-.312.5,1.2,1.2,0,0,1-.7.188.681.681,0,0,1-.43-.117.431.431,0,0,1-.164-.32q-.07-1.625-.152-2.676t-.152-1.687q-.07-.637-.117-.949A3.46,3.46,0,0,1-9.379-6.3Zm11.6.211a4.136,4.136,0,0,1,.711.059q.336.059.609.125t.469.125a1.131,1.131,0,0,0,.281.059A.176.176,0,0,0,4.426-5.8a1.758,1.758,0,0,1,.156-.16,1.011,1.011,0,0,1,.25-.16A.974.974,0,0,1,5.246-6.2a.682.682,0,0,1,.469.152.486.486,0,0,1,.172.379q0,2.859-.2,4.855a14.268,14.268,0,0,1-.633,3.246A3.95,3.95,0,0,1,3.926,4.25a2.6,2.6,0,0,1-1.687.563,2.446,2.446,0,0,1-.941-.2A3.862,3.862,0,0,1,.4,4.09a3.126,3.126,0,0,1-.668-.7,1.31,1.31,0,0,1-.262-.734A.467.467,0,0,1-.4,2.383a2.1,2.1,0,0,1,.3-.3,2.136,2.136,0,0,1,.375-.25.757.757,0,0,1,.336-.1.314.314,0,0,1,.25.121,1.537,1.537,0,0,1,.191.3q.09.18.184.395a1.815,1.815,0,0,0,.234.395,1.234,1.234,0,0,0,.344.3.977.977,0,0,0,.508.121q1.7,0,2-5.2,0-.234-.133-.234a.191.191,0,0,0-.172.109A4.872,4.872,0,0,1,2.3-.48a4.75,4.75,0,0,1-2.176.5A3.014,3.014,0,0,1-.895-.152,2.454,2.454,0,0,1-1.7-.621,2.092,2.092,0,0,1-2.23-1.34a2.217,2.217,0,0,1-.187-.918,2.812,2.812,0,0,1,.176-.973,3.571,3.571,0,0,1,.492-.906A4.458,4.458,0,0,1-1-4.922a5.214,5.214,0,0,1,.953-.621,5.208,5.208,0,0,1,1.09-.406A4.8,4.8,0,0,1,2.223-6.094ZM.371-1.422A3.171,3.171,0,0,0,2.332-2.1,5.383,5.383,0,0,0,3.855-4.062q.016-.047.023-.074A.212.212,0,0,0,3.887-4.2q0-.078-.164-.164a1.858,1.858,0,0,0-.43-.148,5.891,5.891,0,0,0-.605-.105A5.444,5.444,0,0,0,2-4.656a3.108,3.108,0,0,0-1.07.188,3.291,3.291,0,0,0-.914.5,2.658,2.658,0,0,0-.641.711,1.573,1.573,0,0,0-.242.828.894.894,0,0,0,.34.734A1.384,1.384,0,0,0,.371-1.422ZM12.543-3.2a1.723,1.723,0,0,0,.23.871,2.471,2.471,0,0,0,.605.7,2.856,2.856,0,0,0,.859.469,3.008,3.008,0,0,0,.992.168,1.947,1.947,0,0,0,.32-.027.971.971,0,0,0,.3-.1.655.655,0,0,0,.219-.184.458.458,0,0,0,.086-.285,1.1,1.1,0,0,0-.23-.648,3.6,3.6,0,0,0-.605-.637,8.774,8.774,0,0,0-.859-.633q-.484-.316-.984-.629t-.984-.629a8.774,8.774,0,0,1-.859-.633,3.523,3.523,0,0,1-.605-.641,1.119,1.119,0,0,1-.23-.652,1.12,1.12,0,0,1,.16-.582,1.872,1.872,0,0,1,.426-.488A3.125,3.125,0,0,1,12-8.148a5,5,0,0,1,.734-.289,5.379,5.379,0,0,1,.77-.176,4.933,4.933,0,0,1,.738-.059q.258,0,.566.012a3.313,3.313,0,0,1,.578.07,1.338,1.338,0,0,1,.449.176.377.377,0,0,1,.18.336.839.839,0,0,1-.023.176,2.1,2.1,0,0,1-.133.348.943.943,0,0,1-.254.34.584.584,0,0,1-.371.113,3.31,3.31,0,0,1-.676-.074,3.489,3.489,0,0,0-.715-.074q-.2,0-.395.02a1.834,1.834,0,0,0-.363.07.656.656,0,0,0-.266.148.327.327,0,0,0-.1.246.5.5,0,0,0,.215.336,4.829,4.829,0,0,0,.57.414q.355.227.809.5t.926.578q.473.309.926.656a6.317,6.317,0,0,1,.809.734,3.561,3.561,0,0,1,.57.816,1.968,1.968,0,0,1,.215.891,1.891,1.891,0,0,1-.258.992,2.367,2.367,0,0,1-.664.719,2.991,2.991,0,0,1-.9.434,3.4,3.4,0,0,1-.961.145,4.259,4.259,0,0,1-.965-.113,4.953,4.953,0,0,1-.941-.32,4.679,4.679,0,0,1-.848-.5,3.642,3.642,0,0,1-.684-.656,3.093,3.093,0,0,1-.457-.785,2.365,2.365,0,0,1-.168-.883,2.9,2.9,0,0,1,.027-.395,1.238,1.238,0,0,1,.1-.352.665.665,0,0,1,.2-.25.5.5,0,0,1,.32-.1.957.957,0,0,1,.141.012,2.086,2.086,0,0,1,.273.074,1.109,1.109,0,0,1,.4.223A.5.5,0,0,1,12.543-3.2Zm5.961.609a1.6,1.6,0,0,1,.031-.3,1.924,1.924,0,0,0,.031-.359.225.225,0,0,0-.113-.2L18.2-3.609a1.059,1.059,0,0,1-.254-.219.574.574,0,0,1-.113-.383.747.747,0,0,1,.1-.359,1.079,1.079,0,0,1,.285-.328,8.307,8.307,0,0,1,.957-.617,7.686,7.686,0,0,1,.992-.461,6.611,6.611,0,0,1,.98-.289,4.53,4.53,0,0,1,.93-.1,3.6,3.6,0,0,1,1.41.277,3.615,3.615,0,0,1,1.148.758,3.612,3.612,0,0,1,.773,1.125,3.37,3.37,0,0,1,.285,1.379,3.185,3.185,0,0,1-.3,1.363,3.719,3.719,0,0,1-.809,1.129,3.861,3.861,0,0,1-1.191.77,3.707,3.707,0,0,1-1.441.285,3.709,3.709,0,0,1-1.375-.25A3.332,3.332,0,0,1,19.48-.223a3.13,3.13,0,0,1-.719-1.047A3.345,3.345,0,0,1,18.5-2.594ZM22.121-.687A1.919,1.919,0,0,0,22.8-.82a2.125,2.125,0,0,0,.645-.387,2.089,2.089,0,0,0,.484-.621,1.765,1.765,0,0,0,.191-.828,2.222,2.222,0,0,0-.172-.875,2.2,2.2,0,0,0-.473-.707,2.191,2.191,0,0,0-.711-.473,2.271,2.271,0,0,0-.887-.172,1.826,1.826,0,0,0-1.328.449,1.848,1.848,0,0,0-.461,1.379,2.821,2.821,0,0,0,.152.941,2.3,2.3,0,0,0,.426.75,1.991,1.991,0,0,0,.645.5A1.831,1.831,0,0,0,22.121-.687Zm4.688-1.906a1.6,1.6,0,0,1,.031-.3,1.924,1.924,0,0,0,.031-.359.225.225,0,0,0-.113-.2L26.5-3.609a1.059,1.059,0,0,1-.254-.219.574.574,0,0,1-.113-.383.747.747,0,0,1,.1-.359A1.079,1.079,0,0,1,26.52-4.9a8.307,8.307,0,0,1,.957-.617,7.686,7.686,0,0,1,.992-.461,6.611,6.611,0,0,1,.98-.289,4.53,4.53,0,0,1,.93-.1,3.6,3.6,0,0,1,1.41.277,3.615,3.615,0,0,1,1.148.758,3.612,3.612,0,0,1,.773,1.125A3.37,3.37,0,0,1,34-2.828a3.185,3.185,0,0,1-.3,1.363,3.719,3.719,0,0,1-.809,1.129A3.861,3.861,0,0,1,31.7.434a3.707,3.707,0,0,1-1.441.285,3.709,3.709,0,0,1-1.375-.25,3.332,3.332,0,0,1-1.094-.691,3.13,3.13,0,0,1-.719-1.047A3.345,3.345,0,0,1,26.809-2.594ZM30.426-.687a1.919,1.919,0,0,0,.68-.133,2.125,2.125,0,0,0,.645-.387,2.089,2.089,0,0,0,.484-.621,1.765,1.765,0,0,0,.191-.828,2.222,2.222,0,0,0-.172-.875,2.2,2.2,0,0,0-.473-.707,2.191,2.191,0,0,0-.711-.473,2.271,2.271,0,0,0-.887-.172,1.826,1.826,0,0,0-1.328.449,1.848,1.848,0,0,0-.461,1.379,2.821,2.821,0,0,0,.152.941,2.3,2.3,0,0,0,.426.75,1.991,1.991,0,0,0,.645.5A1.831,1.831,0,0,0,30.426-.687ZM35.145-6.3a.346.346,0,0,1,.1-.23.992.992,0,0,1,.266-.2,1.779,1.779,0,0,1,.371-.148,1.528,1.528,0,0,1,.418-.059.319.319,0,0,1,.2.063.512.512,0,0,1,.145.238,2.922,2.922,0,0,1,.113.492q.051.316.1.824a2.115,2.115,0,0,0,.059.238q.027.082.074.082.07,0,.141-.242Q37.7-6.9,38.777-6.9a1.466,1.466,0,0,1,.91.313,2.9,2.9,0,0,1,.766,1.02,10.482,10.482,0,0,1,.676,1.859q.32,1.152.641,2.84.016.086.023.156a1.206,1.206,0,0,1,.008.133.563.563,0,0,1-.082.309.665.665,0,0,1-.215.211,1.084,1.084,0,0,1-.3.125,1.29,1.29,0,0,1-.328.043,1.157,1.157,0,0,1-.473-.07.349.349,0,0,1-.184-.266Q40-1.414,39.781-2.336t-.422-1.551a4.649,4.649,0,0,0-.41-.957q-.2-.328-.406-.328a.481.481,0,0,0-.379.254,2.972,2.972,0,0,0-.34.793,12.739,12.739,0,0,0-.316,1.367q-.152.828-.293,1.977a.689.689,0,0,1-.312.5,1.2,1.2,0,0,1-.7.188.681.681,0,0,1-.43-.117.431.431,0,0,1-.164-.32q-.07-1.625-.152-2.676t-.152-1.687q-.07-.637-.117-.949A3.46,3.46,0,0,1,35.145-6.3Z" transform="translate(1223 33076)" fill="#646464"/>
  </g>
</svg>
