<svg xmlns="http://www.w3.org/2000/svg" width="65" height="65" viewBox="0 0 65 65"><defs><style>.a{fill:#9b45b0;}.b,.c,.e{fill:none;stroke:#fff;stroke-width:1.5px;}.b{stroke-linecap:round;}.c,.d{fill-rule:evenodd;}.d{fill:#fff;}</style></defs><g transform="translate(-1175 -24191)"><g transform="translate(1081 15756)"><circle class="a" cx="32.5" cy="32.5" r="32.5" transform="translate(94 8435)"/></g><g transform="translate(1192 24209)"><g transform="translate(0)"><g transform="translate(0)"><g transform="translate(1.585 0.678)"><path class="b" d="M.642,4.17l5.215-1.9a1.585,1.585,0,0,1,2.033.947l8.405,23.1a1.585,1.585,0,0,0,2.033.947l11.921-4.338" transform="translate(-0.642 -2.175)"/></g><g transform="translate(14.701 5.075)"><path class="c" d="M20.8,171.651a1.583,1.583,0,0,0-2.028-.946l-4.477,1.63a1.582,1.582,0,0,0-.944,2.028l1.087,2.986a1.583,1.583,0,0,0,2.027.946l4.477-1.63a1.583,1.583,0,0,0,.946-2.028Z" transform="translate(-13.249 -170.61)"/></g><path class="d" d="M14.659,170.049a1.586,1.586,0,0,0-2.032-.948l-2.98,1.085a1.586,1.586,0,0,0,1.085,2.98l2.98-1.085A1.586,1.586,0,0,0,14.659,170.049Z" transform="translate(-8.603 -169.006)"/><g transform="translate(17.953 13.472)"><path class="c" d="M23.311,174.3a1.582,1.582,0,0,0-2.026-.945l-5.967,2.172a1.582,1.582,0,0,0-.945,2.026l1.087,2.988a1.583,1.583,0,0,0,2.027.946l5.967-2.172a1.582,1.582,0,0,0,.944-2.028Z" transform="translate(-14.277 -173.264)"/></g><g transform="translate(9.756 24.919)"><ellipse class="e" cx="1.982" cy="1.982" rx="1.982" ry="1.982" transform="translate(0 1.356) rotate(-20)"/></g></g></g></g></g></svg>