<svg xmlns="http://www.w3.org/2000/svg" width="65" height="65" viewBox="0 0 65 65"><defs><style>.a{fill:#f07d25;}.b{fill:none;stroke:#fff;stroke-width:1.5px;}</style></defs><g transform="translate(-851 -23526)"><g transform="translate(757 15091)"><circle class="a" cx="32.5" cy="32.5" r="32.5" transform="translate(94 8435)"/></g><g transform="translate(13 13477)"><g transform="translate(4.208 0.393)"><path class="b" d="M3.612-264.956c0-2.4,1.424-4.014,3.555-5.086a16.519,16.519,0,0,1,7.024-1.512,16.518,16.518,0,0,1,7.024,1.512c2.131,1.071,3.555,2.684,3.555,5.086v6.616a.717.717,0,0,1-.717.714H4.329a.717.717,0,0,1-.717-.714Z" transform="translate(852.18 10354.233)"/><path class="b" d="M17.011-275.376a5.19,5.19,0,0,1-5.2,5.179,5.19,5.19,0,0,1-5.2-5.179,5.189,5.189,0,0,1,5.2-5.178A5.189,5.189,0,0,1,17.011-275.376Z" transform="translate(854.562 10347.161)"/></g></g></g></svg>