<svg xmlns="http://www.w3.org/2000/svg" width="65" height="65" viewBox="0 0 65 65"><defs><style>.a{fill:#1aaf5d;}.b,.d{fill:#fff;}.c{fill:none;stroke:#fff;stroke-linecap:round;stroke-width:1.5px;}.c,.d{fill-rule:evenodd;}</style></defs><g transform="translate(-519 -24419)"><g transform="translate(425 15984)"><circle class="a" cx="32.5" cy="32.5" r="32.5" transform="translate(94 8435)"/></g><g transform="translate(534 24439)"><g transform="translate(0 0)"><g transform="translate(0)"><g transform="translate(0 3.75)"><path class="b" d="M1.5,19.5V1.5A1.5,1.5,0,0,0,0,3V18A1.5,1.5,0,0,0,1.5,19.5Z" transform="translate(0 -1.5)"/></g><g transform="translate(6.75)"><path class="c" d="M25.5,4.75A4.5,4.5,0,0,0,21,.25H6.75a4.5,4.5,0,0,0-4.5,4.5v16.5a4.5,4.5,0,0,0,4.5,4.5H21a4.5,4.5,0,0,0,4.5-4.5Z" transform="translate(-2.25 -0.25)"/></g><g transform="translate(10.5 15.75)"><path class="d" d="M5.75,6.625a1.125,1.125,0,0,0-2.25,0v3.75a1.125,1.125,0,1,0,2.25,0Z" transform="translate(-3.5 -5.5)"/></g><g transform="translate(15 12.75)"><path class="d" d="M7.25,5.625a1.125,1.125,0,1,0-2.25,0v6.75a1.125,1.125,0,1,0,2.25,0Z" transform="translate(-5 -4.5)"/></g><g transform="translate(19.5 9.75)"><path class="d" d="M8.75,4.625a1.125,1.125,0,0,0-2.25,0v9.75a1.125,1.125,0,1,0,2.25,0Z" transform="translate(-6.5 -3.5)"/></g><g transform="translate(24 6.75)"><path class="d" d="M10.25,3.625a1.125,1.125,0,1,0-2.25,0v12.75a1.125,1.125,0,1,0,2.25,0Z" transform="translate(-8 -2.5)"/></g><g transform="translate(3 1.5)"><path class="b" d="M1,2.25A1.5,1.5,0,0,1,2.5.75v22.5A1.5,1.5,0,0,1,1,21.75Z" transform="translate(-1 -0.75)"/></g></g></g></g></g></svg>