<svg xmlns="http://www.w3.org/2000/svg" width="56.651" height="40.855" viewBox="0 0 56.651 40.855"><defs><style>.a{fill:#646464;}</style></defs><path class="a" d="M376.028,148.652c3.08.544,4.57,5.893,5.79,8.235,1.092,2.1-2.233,4.209-3.58,2.2-.373-.557-.754-1.1-1.136-1.637-.061,15.7-6.738,33.064-19.641,42.114a.658.658,0,0,1-.828-1.023c6.105-6.376,11.278-12.806,14.436-21.177a50.829,50.829,0,0,0,3.1-21.432c-.5.706-1.011,1.4-1.576,2.064a2.208,2.208,0,0,1-3.589-2.568C370.288,153.267,372.82,148.085,376.028,148.652Z" transform="translate(-16.134 426.238) rotate(-109)"/></svg>