<svg xmlns="http://www.w3.org/2000/svg" width="65" height="65" viewBox="0 0 65 65"><defs><style>.a{fill:#ff8040;}.b,.c,.d{fill:none;stroke:#fff;}.b,.c{stroke-linecap:round;}.b{stroke-width:2px;}.c,.d{stroke-width:1.5px;}.c{fill-rule:evenodd;}</style></defs><g transform="translate(-679 -4534)"><g transform="translate(585 -3901)"><circle class="a" cx="32.5" cy="32.5" r="32.5" transform="translate(94 8435)"/></g><g transform="translate(-916.885 3683.027)"><path class="b" d="M.571,1.714H2.336" transform="translate(1612.313 871.669)"/><path class="b" d="M.571,4H2.336" transform="translate(1612.313 876.443)"/><path class="b" d="M.571,6.286H2.336" transform="translate(1612.313 881.216)"/><path class="b" d="M.571,8.571H2.336" transform="translate(1612.313 885.988)"/><path class="c" d="M29.664,4.918A4.634,4.634,0,0,0,25.031.286H6.061A4.634,4.634,0,0,0,1.429,4.918V25.653a4.634,4.634,0,0,0,4.632,4.632H25.031a4.634,4.634,0,0,0,4.632-4.632Z" transform="translate(1614.103 868.686)"/><path class="d" d="M3.714,8.908a1.515,1.515,0,0,1,.692-1.188A6.592,6.592,0,0,1,6.49,6.711,16.759,16.759,0,0,1,10.773,6a16.426,16.426,0,0,1,4.343.711,6.336,6.336,0,0,1,2.04,1,1.526,1.526,0,0,1,.676,1.195v1.5a.883.883,0,0,1-.882.882H4.6a.883.883,0,0,1-.882-.882Z" transform="translate(1618.876 880.619)"/><path class="d" d="M11.176,5.945A3.088,3.088,0,1,1,8.1,2.857,3.075,3.075,0,0,1,11.176,5.945Z" transform="translate(1621.561 874.056)"/></g></g></svg>