<svg xmlns="http://www.w3.org/2000/svg" xmlns:xlink="http://www.w3.org/1999/xlink" width="65" height="65" viewBox="0 0 65 65"><defs><style>.a{fill:#fff;stroke:#707070;}.b{fill:#f1f1f1;}.c{clip-path:url(#a);}.d{fill:#db4743;}.e{fill:#ececec;}.f{fill:#c3b7a0;}.g{fill:#2f8d93;fill-rule:evenodd;}.h{fill:#613434;}</style><clipPath id="a"><rect class="a" width="40" height="40" transform="translate(859 11666)"/></clipPath></defs><g transform="translate(-848 -11656)"><circle class="b" cx="32.5" cy="32.5" r="32.5" transform="translate(848 11656)"/><g class="c" transform="translate(2 3)"><g transform="translate(860.706 11666)"><path class="d" d="M308.387,134.362V116.5h-5.366v19.7l3.325-1.137Z" transform="translate(-302.109 -116.5)"/><path class="d" d="M319.426,137.216l.362-.139,3.573-1.365V118.586H318v17.455l1.227,1.009Z" transform="translate(-303.773 -116.732)"/><path class="d" d="M330.848,133.424V120.89h-5.367v14.583l2.1-.8Z" transform="translate(-304.604 -116.988)"/><path class="d" d="M330.927,132.173l1.017,2.564-.152.06-3.553,1.356-3.272,1.252-2.1.8-.857.33-.432.163-3.573,1.365-.362.14-.2-.166-1.227-1.007-1.293-1.06-2.161-1.775-.134-.108-1.386.474-1.683.578-1.29.44-2.041.7-3.325,1.139-.912.312,1.22,2.9,5.058-1.719,1.29-.438,2.1-.715.293-.1.147.121,2.825,2.337,1.84,1.521,2.339-.873,2.477-.926,1.289-.482,2.53-.945.157-.058,2.68-1,4.585-1.717,1.22,2.564,4.539-6.816Z" transform="translate(-301.995 -118.241)"/><path class="e" d="M329.684,144.684,328,145.98l-5.1-6.625,1.684-1.3Z" transform="translate(-304.318 -118.895)"/><path class="f" d="M340,155.914a2.421,2.421,0,0,1-3.817,2.94l-7.884-10.24a2.421,2.421,0,0,1,3.818-2.94Z" transform="translate(-304.871 -119.653)"/><path class="e" d="M321.594,136.267a8.979,8.979,0,1,1,1.637-12.591A8.978,8.978,0,0,1,321.594,136.267Zm3.11-13.725a10.838,10.838,0,1,0-1.976,15.2A10.838,10.838,0,0,0,324.7,122.541Z" transform="translate(-302.36 -116.701)"/><path class="g" d="M317.7,138.29l-.691-.567-1.293-1.06-2.161-1.775-.134-.108-1.386.474-1.683.578-.046.016a9.021,9.021,0,0,1-.879-.986q-.193-.249-.365-.508v-9.94a8.966,8.966,0,0,1,1.29-1.534v11.473l1.683-.576,1.386-.477.134.111,2.161,1.777V120.836h-1.928a8.955,8.955,0,0,1,2.745-.43h0c.157,0,.314,0,.471.012v15.825l1.227,1.009.2.166.362-.139,3.573-1.365v-13.36a9.05,9.05,0,0,1,1.263,1.326h0l.021.027,0,.006V134.86a9.009,9.009,0,0,1-5.961,3.43Z" transform="translate(-302.78 -116.934)"/><path class="h" d="M315.873,135.241l-2.161-1.777-.134-.111-1.386.477-1.683.576V122.933a9.359,9.359,0,0,1,.712-.608,8.972,8.972,0,0,1,2.725-1.434h1.928Z" transform="translate(-302.941 -116.988)"/><path class="h" d="M319.426,137.419l-.2-.166L318,136.245V120.42a8.975,8.975,0,0,1,5.363,2.136v13.36l-3.573,1.365Z" transform="translate(-303.773 -116.935)"/><path class="h" d="M325.481,135.3V124.352a8.982,8.982,0,0,1,0,10.946Z" transform="translate(-304.604 -117.372)"/></g></g></g></svg>