<svg xmlns="http://www.w3.org/2000/svg" width="65" height="65" viewBox="0 0 65 65"><defs><style>.a{fill:#754690;}.b{fill:#fff;}</style></defs><g transform="translate(-851 -31833)"><g transform="translate(0 8103)"><g transform="translate(757 15295)"><circle class="a" cx="32.5" cy="32.5" r="32.5" transform="translate(94 8435)"/></g></g><g transform="translate(865.507 31847.504)"><path class="b" d="M30.572,9.675l-10.5-4.788a5.689,5.689,0,0,0-4.141,0L5.428,9.675c-1.237.562-1.237,1.484,0,2.046l10.406,4.746a5.978,5.978,0,0,0,4.331,0l10.406-4.746C31.809,11.159,31.809,10.238,30.572,9.675Z"/><path class="b" d="M15.834,26.381l-7.017-3.2a1.141,1.141,0,0,0-.935,0L5.428,24.3c-1.238.563-1.238,1.484,0,2.046l10.406,4.746a5.978,5.978,0,0,0,4.331,0l10.406-4.746c1.237-.562,1.237-1.484,0-2.046l-2.454-1.118a1.141,1.141,0,0,0-.935,0l-7.017,3.2A5.978,5.978,0,0,1,15.834,26.381Z"/><path class="b" d="M30.572,16.987l-2.229-1.012a1.125,1.125,0,0,0-.928,0l-7.594,3.438a6.207,6.207,0,0,1-3.649,0L8.578,15.975a1.125,1.125,0,0,0-.928,0L5.421,16.987c-1.238.563-1.238,1.484,0,2.046L15.827,23.78a5.978,5.978,0,0,0,4.331,0l10.406-4.746C31.809,18.471,31.809,17.55,30.572,16.987Z"/></g></g></svg>