<svg xmlns="http://www.w3.org/2000/svg" width="65" height="65" viewBox="0 0 65 65"><defs><style>.a{fill:#3856d5;}.b{fill:none;stroke:#fff;stroke-width:1.5px;}</style></defs><g transform="translate(-196 -24652)"><g transform="translate(102 16217)"><circle class="a" cx="32.5" cy="32.5" r="32.5" transform="translate(94 8435)"/></g><g transform="translate(-643 14603)"><g transform="translate(-0.792 0.393)"><path class="b" d="M12.412-258.254H28.549a1.79,1.79,0,0,0,1.793-1.786V-265c0-4.412-5.517-5.752-8.965-5.752a13.887,13.887,0,0,0-5.705,1.186" transform="translate(859.157 10354.861)"/><path class="b" d="M22.325-274.261a3.4,3.4,0,0,1-3.407,3.393,3.4,3.4,0,0,1-3.407-3.393,3.4,3.4,0,0,1,3.407-3.393A3.4,3.4,0,0,1,22.325-274.261Z" transform="translate(861.617 10349.441)"/><path class="b" d="M3.612-264.956c0-2.4,1.424-4.014,3.555-5.086a16.519,16.519,0,0,1,7.024-1.512,16.518,16.518,0,0,1,7.024,1.512c2.131,1.071,3.555,2.684,3.555,5.086v6.616a.717.717,0,0,1-.717.714H4.329a.717.717,0,0,1-.717-.714Z" transform="translate(852.18 10354.233)"/><path class="b" d="M17.011-275.376a5.19,5.19,0,0,1-5.2,5.179,5.19,5.19,0,0,1-5.2-5.179,5.189,5.189,0,0,1,5.2-5.178A5.189,5.189,0,0,1,17.011-275.376Z" transform="translate(854.562 10347.161)"/></g></g></g></svg>