<svg xmlns="http://www.w3.org/2000/svg" width="65" height="65" viewBox="0 0 65 65"><defs><style>.a{fill:#0d1663;}.b{fill:none;stroke:#fff;stroke-linecap:round;}.c{fill:#fff;}</style></defs><g transform="translate(-196 -23526)"><circle class="a" cx="32.5" cy="32.5" r="32.5" transform="translate(196 23526)"/><g transform="translate(215 23543)"><g transform="translate(0 0)"><path class="b" d="M.345,4.411A4.066,4.066,0,0,1,4.411.345H19.72L26.7,7.323V28.279a4.066,4.066,0,0,1-4.066,4.066H4.411A4.066,4.066,0,0,1,.345,28.279Z" transform="translate(-0.345 -0.345)"/></g><g transform="translate(18.823 0.157)"><path class="c" d="M8.078,0l6.693,6.693V7.53H9.751a2.511,2.511,0,0,1-2.51-2.51V0Z" transform="translate(-7.241)"/></g><g transform="translate(3.764 8.471)"><path class="c" d="M6.515,6.187V4.474a1.026,1.026,0,1,0-2.052,0V6.187H2.75a1.026,1.026,0,0,0,0,2.052H4.463V9.952a1.026,1.026,0,1,0,2.052,0V8.239H8.228a1.026,1.026,0,0,0,0-2.052Z" transform="translate(-1.724 -3.448)"/></g><g transform="translate(15.06 11.293)"><path class="c" d="M12.45,4.483H6.8a.941.941,0,0,0,0,1.882H12.45a.941.941,0,1,0,0-1.882Z" transform="translate(-5.862 -4.483)"/></g><g transform="translate(4.179 20.18)"><path class="c" d="M3.815,11.089,2.168,9.442A1,1,0,0,1,3.58,8.03L5.227,9.677,6.874,8.03A1,1,0,0,1,8.286,9.442L6.639,11.089l1.647,1.647a1,1,0,0,1-1.412,1.412L5.227,12.5,3.58,14.148a1,1,0,0,1-1.412-1.412Z" transform="translate(-1.876 -7.738)"/></g><g transform="translate(15.06 22.501)"><path class="c" d="M12.366,8.589H6.888a1.027,1.027,0,0,0,0,2.054h5.478a1.027,1.027,0,0,0,0-2.054Z" transform="translate(-5.862 -8.589)"/></g><g transform="translate(17.8 19.767)"><ellipse class="c" cx="1.026" cy="1.026" rx="1.026" ry="1.026"/></g><g transform="translate(17.8 25.242)"><ellipse class="c" cx="1.026" cy="1.026" rx="1.026" ry="1.026"/></g></g></g></svg>