<svg xmlns="http://www.w3.org/2000/svg" xmlns:xlink="http://www.w3.org/1999/xlink" width="1440" height="900" viewBox="0 0 1440 900"><defs><style>.a{fill:#fff;}.b{clip-path:url(#a);}.c{fill:url(#b);}.d{fill:none;}.e{stroke:rgba(0,0,0,0);stroke-miterlimit:10;opacity:0.08;}</style><clipPath id="a"><rect class="a" width="1440" height="900"/></clipPath><radialGradient id="b" cx="0.5" cy="0.5" r="0.496" gradientUnits="objectBoundingBox"><stop offset="0" stop-color="#0d1663"/><stop offset="1" stop-color="#010846"/></radialGradient></defs><g class="b"><path class="c" d="M0,0H1440V900H0Z"/><path class="d" d="M0,0H1440V900H0Z"/><path class="e" d="M11249.391,25739l-202-117.488L11294.376,25722v17Zm-674.244,0-25.625-189.256,41.335,189.256Zm-169.959,0h-13.34l12.441-290.748,29.056,290.748Zm-165.839,0,37.434-155.1V25739Zm-237.036,0,91.662-77.348-23.907,77.348Zm895.648-.008-81.54-88.361,147.474,88.361Zm-137.139,0-97.263-190.609,144.5,190.609Zm-1041.048,0s365.3-209.646,365.331-209.672c-.02.025-265.782,209.672-265.782,209.672Zm-203.776,0,308.254-123-232.669,123Zm0-118.914,511.268-182.621L9516,25664Zm1316.791-164.5,461.587,164.5v32.9Zm247.883,22.215,213.7,27.066v42.982ZM9516,25484.2l131.894-19.961L9516,25524.5Zm1314.492-118.3,463.886,71.818v19.309ZM9516,25359.207l241.067-12.635L9516,25386Zm0-70.209v-10l463.848,10h14.069l-477.917,19Zm1267.291-2.8,511.087-22.662V25299ZM9516,25140.283v-19.309l528.018,102.729Zm1778.378-215.262V24969l-540.62,184.2Zm0,195.953V25149l-113.541,3.049Zm-535.1-281.975h48.789l-247.8,297.834Zm-354.085,246-13.34-246h26.679l-13.339,295.973Zm-374.149-246h52.194l175.876,279.27Zm1263.338,191.152v28.125l-272.532,58.371ZM9516,25049.461v-19.309l213.7,70.049ZM9719.774,24839h54.093l318.622,249ZM9516,24978v-52.977l305.993,138.16Zm1040.352-139h34.507l-61.186,190.617Zm333.808,0h42.782l-172.11,137.26Zm-580.2,0h28.539l-7.4,129.891Zm939.432,0h44.985v22l-246.984,95.486ZM9516,24839h69.654l177.33,117.486Zm361.437,0h34.979l98.568,115Zm342.083,0h15.71l3.152,54.939Zm833.791,0h76.566s-120.789,53.633-120.828,53.66C11009.035,24892.658,11053.309,24839,11053.309,24839Zm-866.857,0h.5c0,.1-.116.168-.252.168S10186.451,24839.1,10186.451,24839Z" transform="translate(-9685.188 -24839)"/></g></svg>