<svg xmlns="http://www.w3.org/2000/svg" width="65" height="65" viewBox="0 0 65 65"><defs><style>.a{fill:#ff8040;}.b,.d{fill:none;stroke:#fff;stroke-width:1.5px;}.c,.e{fill:#fff;}.d,.e{fill-rule:evenodd;}</style></defs><g transform="translate(-679 -4951)"><g transform="translate(585 -3484)"><circle class="a" cx="32.5" cy="32.5" r="32.5" transform="translate(94 8435)"/></g><g transform="translate(694 4969)"><g transform="translate(0 0)"><g transform="translate(0 0)"><g transform="translate(0)"><path class="b" d="M28.735,11.088V3.147A2.648,2.648,0,0,0,26.088.5H3.147A2.648,2.648,0,0,0,.5,3.147V17.265a2.648,2.648,0,0,0,2.647,2.647H7.509" transform="translate(-0.5 -0.5)"/></g><g transform="translate(0 3.706)"><path class="c" d="M.5,1.55H28.735V5.785H.5Z" transform="translate(-0.5 -1.55)"/></g><g transform="translate(7.059 10.588)"><path class="d" d="M30.735,8.794A5.3,5.3,0,0,0,25.441,3.5H7.794A5.3,5.3,0,0,0,2.5,8.794v8.824a5.3,5.3,0,0,0,5.294,5.294H25.441a5.3,5.3,0,0,0,5.294-5.294Z" transform="translate(-2.5 -3.5)"/></g><g transform="translate(10.588 16.765)"><path class="e" d="M10.559,7.015A1.765,1.765,0,0,0,8.794,5.25H5.265A1.765,1.765,0,0,0,3.5,7.015V7.9A1.765,1.765,0,0,0,5.265,9.662H8.794A1.765,1.765,0,0,0,10.559,7.9Z" transform="translate(-3.5 -5.25)"/></g><g transform="translate(10.588 23.823)"><path class="e" d="M3.882.382A.883.883,0,0,1,3,1.265H.882A.882.882,0,0,1,.882-.5H3A.883.883,0,0,1,3.882.382Z" transform="translate(0 0.5)"/></g><g transform="translate(16.413 23.823)"><path class="e" d="M3.882.382A.883.883,0,0,1,3,1.265H.882A.882.882,0,0,1,.882-.5H3A.883.883,0,0,1,3.882.382Z" transform="translate(0 0.5)"/></g><g transform="translate(22.238 23.823)"><path class="e" d="M3.882.382A.883.883,0,0,1,3,1.265H.882A.882.882,0,0,1,.882-.5H3A.883.883,0,0,1,3.882.382Z" transform="translate(0 0.5)"/></g><g transform="translate(28.063 23.823)"><path class="e" d="M3.882.382A.883.883,0,0,1,3,1.265H.882A.882.882,0,0,1,.882-.5H3A.883.883,0,0,1,3.882.382Z" transform="translate(0 0.5)"/></g></g></g></g></g></svg>