<svg xmlns="http://www.w3.org/2000/svg" width="65" height="65" viewBox="0 0 65 65"><defs><style>.a{fill:#ff8040;}.b,.c,.d,.f{fill:none;stroke:#fff;}.b,.f{stroke-width:1.5px;}.d,.f{stroke-linejoin:round;}.d{stroke-miterlimit:2;}.e{fill:#fff;fill-rule:evenodd;}.f{stroke-linecap:round;stroke-miterlimit:10;}</style></defs><g transform="translate(-244 -4734)"><g transform="translate(150 -3701)"><circle class="a" cx="32.5" cy="32.5" r="32.5" transform="translate(94 8435)"/></g><g transform="translate(261.494 4752)"><g transform="translate(0 0)"><g transform="translate(0 6.317)"><path class="b" d="M-.263,22.1V.789h30V22.1a2.369,2.369,0,0,1-2.368,2.368H2.105A2.369,2.369,0,0,1-.263,22.1Z" transform="translate(0.263 -0.789)"/></g><g transform="translate(0.826 0.001)"><path class="c" d="M13.537-1.316V3.421H.153L4.819-.7a2.5,2.5,0,0,1,1.648-.617Z" transform="translate(-0.153 1.316)"/></g><g transform="translate(15.789 0.001)"><path class="c" d="M13.737-.7l4.676,4.119H5V-1.316h7.085A2.506,2.506,0,0,1,13.737-.7Z" transform="translate(-5 1.316)"/></g><g transform="translate(-0.494 5.527)"><path class="c" d="M0,.526H30.973" transform="translate(0 -0.526)"/></g><g transform="translate(11.052)"><path class="d" d="M11.315,4.144H3.421L5.439-1.382H9.386Z" transform="translate(-3.421 1.382)"/></g><g transform="translate(11.052 5.527)"><path class="d" d="M11.315,8.421,9.3,6.4,7.368,8.421,5.439,6.4,3.421,8.421V.526h7.894Z" transform="translate(-3.421 -0.526)"/></g><g transform="translate(11.71 0.001)"><path class="e" d="M1950.025,776.133l-1.336,5.5,6.605.028-1.3-5.526Z" transform="translate(-1948.689 -776.133)"/></g><g transform="translate(4.737 20.982)"><path class="f" d="M7.018.585H.7" transform="translate(-0.702 -0.585)"/></g><g transform="translate(4.737 25.017)"><path class="f" d="M3.86,1.93H.7" transform="translate(-0.702 -1.93)"/></g></g></g></g></svg>