<svg xmlns="http://www.w3.org/2000/svg" xmlns:xlink="http://www.w3.org/1999/xlink" width="476" height="768" viewBox="0 0 476 768"><defs><style>.a{fill:#fff;}.b{clip-path:url(#a);}.c{opacity:0.07;}.d{fill:none;stroke:#585858;stroke-miterlimit:10;stroke-width:2px;}</style><clipPath id="a"><rect class="a" width="476" height="768" transform="translate(951 927)"/></clipPath></defs><g class="b" transform="translate(-951 -927)"><g class="c" transform="matrix(0.985, 0.174, -0.174, 0.985, 1074.239, 776.103)"><path class="d" d="M926.268,5.5s-138.042,62.146-110.434,221.9C846.79,406.513,687.41,480.589,576.8,434.48S470.861,224.426,262.091,215.865C48.634,207.114,0,0,0,0" transform="translate(439.872 6.275) rotate(79)"/><path class="d" d="M675.9.91S618.024,136.077,642.11,271.941s-72.975,150.07-112.019,133.572c-81.016-34.232-99.641-210.266-229.764-223.837C202.51,171.476,72.489,237.253.119,81.8" transform="translate(502.115 84.49) rotate(79)"/><path class="d" d="M535.553,21.593s24.223,139.564-72.186,113.1C352.862,104.357,353.389,37.485,215.325,98.366,166.218,120.02-33.164,123.253,4.823.006" transform="translate(478.501 166.985) rotate(79)"/></g></g></svg>