<svg xmlns="http://www.w3.org/2000/svg" xmlns:xlink="http://www.w3.org/1999/xlink" width="65" height="65" viewBox="0 0 65 65"><defs><style>.a{fill:#fff;stroke:#707070;}.b{fill:#f1f1f1;}.c{clip-path:url(#a);}.d{fill:#f49225;}.e{fill:#0ea4a1;}.f{fill:#c5c5c5;}.g{fill:#fbf9ee;}.h{fill:#c4d8d2;}.i{fill:#3f4e51;}</style><clipPath id="a"><rect class="a" width="40" height="30.588" transform="translate(851 12139)"/></clipPath></defs><g transform="translate(-840 -12124)"><g transform="translate(750 3691)"><circle class="b" cx="32.5" cy="32.5" r="32.5" transform="translate(90 8433)"/></g><g class="c" transform="translate(2 2)"><g transform="translate(851 12140.185)"><g transform="translate(0 0)"><path class="d" d="M228.514,292.183H204.59a.926.926,0,0,0-.925.926v13.661a.927.927,0,0,0,.925.925h23.924a.926.926,0,0,0,.926-.925V293.108A.925.925,0,0,0,228.514,292.183Z" transform="translate(-203.553 -287.867)"/><path class="e" d="M242.916,317.48a1.151,1.151,0,1,1,.377-.855A1.156,1.156,0,0,1,242.916,317.48Zm-.785-4.748a3.893,3.893,0,1,0,3.893,3.893A3.893,3.893,0,0,0,242.131,312.731Z" transform="translate(-211.01 -292.299)"/><path class="e" d="M209.206,317.48a1.147,1.147,0,1,1,.377-.855A1.156,1.156,0,0,1,209.206,317.48Zm-.776-4.748h-.019a3.893,3.893,0,1,0,.019,0Z" transform="translate(-203.739 -292.299)"/><path class="f" d="M206.8,312.731h-3.283v3.231h.6c0-.014,0-.027.006-.041A4.121,4.121,0,0,1,206.8,312.731Z" transform="translate(-203.522 -292.299)"/><path class="f" d="M244.192,310.147c-1.008.035-2.032.035-3.039.018-.018-.608-.018-1.2,0-1.806q1.511-.027,3.022,0C244.209,308.966,244.209,309.556,244.192,310.147Zm-9.3-7.107c-.016-1.728-.049-3.457.017-5.185,1.157,0,2.331-.017,3.489.033.456,1.712,1.01,3.407,1.467,5.136C238.2,303.055,236.553,303.039,234.89,303.039Zm9.489,6.978c-.016-1.777.033-3.538-.033-5.315-.567-.259-1.14-.52-1.711-.786-.4-.186-.8-.374-1.191-.568a1.233,1.233,0,0,1-.149-.07c-.808-.434-.782-1.523-1.09-2.294-.319-1.307-.846-2.578-1.165-3.883a7.935,7.935,0,0,1-.253-2.541c-2.324-.033-4.632-.017-6.939,0h-.022v0l-.012-.01v2.86l.011.01c-.007,3.793-.039,7.59,0,11.383h-20.55A4.121,4.121,0,0,1,213.95,312c0,.014,0,.027.006.041h17.918c.571-1.81,1.989-3.554,4.027-3.668a4.508,4.508,0,0,1,4.825,3.555c1.484.016,2.967.016,4.451.016,0-.62.016-1.255.016-1.875Z" transform="translate(-205.194 -288.376)"/><path class="e" d="M227.925,296.25a9.57,9.57,0,1,1-9.57-9.57A9.57,9.57,0,0,1,227.925,296.25Z" transform="translate(-204.657 -286.68)"/><path class="g" d="M211.37,296.807a7.542,7.542,0,0,0,7.543,7.542V289.264A7.543,7.543,0,0,0,211.37,296.807Z" transform="translate(-205.215 -287.237)"/><path class="h" d="M220.987,289.264v15.085a7.542,7.542,0,0,0,0-15.085Z" transform="translate(-207.289 -287.237)"/><path class="i" d="M221.869,298.547a1.217,1.217,0,1,1-1.217-1.217A1.217,1.217,0,0,1,221.869,298.547Z" transform="translate(-206.955 -288.977)"/><path class="i" d="M221.328,295.351c0,.163-.2.294-.446.294s-.446-.131-.446-.294v-4.44c0-.163.2-.294.446-.294s.446.131.446.294Z" transform="translate(-207.17 -287.529)"/><path class="i" d="M215.794,301.794a.54.54,0,0,1-.478-.966l2.46-1.216a.54.54,0,0,1,.478.966Z" transform="translate(-206.007 -289.458)"/></g></g></g></g></svg>