<svg xmlns="http://www.w3.org/2000/svg" width="65" height="65" viewBox="0 0 65 65"><defs><style>.a{fill:#a1a51e;}.b,.c{fill:#fff;}.b{fill-rule:evenodd;}</style></defs><g transform="translate(-517 -25140)"><g transform="translate(423 16705)"><circle class="a" cx="32.5" cy="32.5" r="32.5" transform="translate(94 8435)"/></g><g transform="translate(1 15091)"><g transform="translate(537 10067)"><path class="b" d="M1.46.18A2.362,2.362,0,0,1,4.035.694l.693.694L5.42.694a2.364,2.364,0,0,1,3.345,0l.693.694L10.15.694a2.361,2.361,0,0,1,3.343,0l.693.694.693-.694a2.361,2.361,0,0,1,3.343,0l.693.694.693-.694a2.364,2.364,0,0,1,4.037,1.674V27.632a2.364,2.364,0,0,1-4.037,1.674l-.693-.694-.693.694a2.361,2.361,0,0,1-3.343,0l-.693-.694-.693.694a2.361,2.361,0,0,1-3.343,0l-.693-.694-.693.694a2.364,2.364,0,0,1-3.345,0l-.693-.694-.693.694A2.363,2.363,0,0,1,0,27.632V2.368A2.37,2.37,0,0,1,1.46.18ZM4.728,25.264l2.364,2.368,2.366-2.368,2.364,2.368,2.364-2.368,2.364,2.368,2.364-2.368,2.364,2.368V2.368L18.913,4.736,16.549,2.368,14.185,4.736,11.821,2.368,9.457,4.736,7.092,2.368,4.728,4.736,2.364,2.368V27.632Z" transform="translate(0 0)"/></g><g transform="translate(542.516 10074.896)"><rect class="c" width="12.609" height="1.579" transform="translate(0 0)"/></g><g transform="translate(542.516 10079.63)"><rect class="c" width="12.609" height="1.579" transform="translate(0 0)"/></g><g transform="translate(546.456 10082.789)"><path class="c" d="M8.833,15.894h.818v-.827a1.871,1.871,0,0,0,1.879-1.92c0-1.236-.992-1.6-1.879-1.836V10.029a2.376,2.376,0,0,1,1.069.591l.679-.947a2.965,2.965,0,0,0-1.748-.808V8H8.833v.846a1.887,1.887,0,0,0-1.851,1.828c0,1.238.964,1.583,1.851,1.819v1.438a2.453,2.453,0,0,1-1.368-.784l-.664.983a3.063,3.063,0,0,0,2.033.947Zm1.456-2.6c0,.281-.215.546-.638.638V12.712C10.021,12.839,10.289,12.993,10.289,13.293ZM8.23,10.565c0-.309.215-.536.6-.591v1.108C8.471,10.974,8.23,10.829,8.23,10.565Z" transform="translate(-6.8 -8)"/></g></g></g></svg>