<svg xmlns="http://www.w3.org/2000/svg" width="65" height="65" viewBox="0 0 65 65"><defs><style>.a{fill:#63330d;}.b{fill:#fff;}</style></defs><g transform="translate(-196 -24419)"><g transform="translate(102 15984)"><circle class="a" cx="32.5" cy="32.5" r="32.5" transform="translate(94 8435)"/></g><g transform="translate(165 24438)"><g transform="translate(51)"><path class="b" d="M74.145,0H51.879A.879.879,0,0,0,51,.879V29.121a.879.879,0,0,0,.879.879H74.145a.879.879,0,0,0,.879-.879V.879A.879.879,0,0,0,74.145,0Zm-.879,28.242H52.758V1.758H73.266Z" transform="translate(-51)"/></g><g transform="translate(58.793 4.277)"><path class="b" d="M191.559,77.57h-.117V76.223a3.223,3.223,0,0,0-6.445,0V77.57h-.117a.879.879,0,0,0-.879.879v4.57a.879.879,0,0,0,.879.879h6.68a.879.879,0,0,0,.879-.879v-4.57A.879.879,0,0,0,191.559,77.57Zm-4.8-1.348a1.465,1.465,0,0,1,2.93,0V77.57h-2.93Zm3.926,5.918h-4.922V79.328h4.922Z" transform="translate(-184 -73)"/></g><g transform="translate(55.922 18.633)"><path class="b" d="M136.842,318H135.5a.5.5,0,0,0-.5.5v1.339a.5.5,0,0,0,.5.5h1.339a.5.5,0,0,0,.5-.5V318.5A.5.5,0,0,0,136.842,318Z" transform="translate(-135.001 -318)"/></g><g transform="translate(60.902 18.926)"><path class="b" d="M229.2,323h-8.32a.879.879,0,0,0,0,1.758h8.32a.879.879,0,0,0,0-1.758Z" transform="translate(-220 -323)"/></g><g transform="translate(55.922 23.32)"><path class="b" d="M136.842,398H135.5a.5.5,0,0,0-.5.5v1.339a.5.5,0,0,0,.5.5h1.339a.5.5,0,0,0,.5-.5V398.5A.5.5,0,0,0,136.842,398Z" transform="translate(-135.001 -398)"/></g><g transform="translate(60.902 23.613)"><path class="b" d="M229.2,403h-8.32a.879.879,0,0,0,0,1.758h8.32a.879.879,0,0,0,0-1.758Z" transform="translate(-220 -403)"/></g></g></g></svg>