<svg xmlns="http://www.w3.org/2000/svg" width="65" height="65" viewBox="0 0 65 65"><defs><style>.a{fill:#0d6355;}.b{fill:#fff;}</style></defs><g transform="translate(-196 -23526)"><circle class="a" cx="32.5" cy="32.5" r="32.5" transform="translate(196 23526)"/><g transform="translate(153 23543)"><g transform="translate(80)"><path class="b" d="M320,0V8h8Z" transform="translate(-320)"/></g><g transform="translate(64)"><path class="b" d="M80,10a2,2,0,0,1-2-2V0H66a2,2,0,0,0-2,2V30a2,2,0,0,0,2,2H86a2,2,0,0,0,2-2V10ZM71,6.124V5a1,1,0,0,1,2,0V6.126a4.111,4.111,0,0,1,1.692.8,1,1,0,0,1-1.262,1.55A2.27,2.27,0,0,0,72,8c-1.084,0-2,.686-2,1.5s.916,1.5,2,1.5a3.779,3.779,0,0,1,4,3.5,3.621,3.621,0,0,1-3,3.376V19a1,1,0,0,1-2,0V17.874a4.111,4.111,0,0,1-1.692-.8,1,1,0,0,1,1.262-1.552A2.26,2.26,0,0,0,72,16c1.084,0,2-.686,2-1.5S73.084,13,72,13a3.779,3.779,0,0,1-4-3.5A3.621,3.621,0,0,1,71,6.124ZM83,28H69a1,1,0,0,1,0-2H83a1,1,0,0,1,0,2Zm0-4H69a1,1,0,0,1,0-2H83a1,1,0,0,1,0,2Zm0-4H79a1,1,0,0,1,0-2h4a1,1,0,0,1,0,2Zm0-4H79a1,1,0,0,1,0-2h4a1,1,0,0,1,0,2Z" transform="translate(-64)"/></g></g></g></svg>