<svg xmlns="http://www.w3.org/2000/svg" xmlns:xlink="http://www.w3.org/1999/xlink" width="566.633" height="353.025" viewBox="0 0 566.633 353.025"><defs><style>.a{fill:#37dfce;opacity:0.35;}.b{fill:#fff;}.c{fill:#003087;}.d{fill:#009cde;}.e{fill:#012169;}.f{fill:#8db849;}.g{fill:#5a863e;}.h{fill:#fffffe;}.i{fill:#1a1919;}.j{fill:#3080f1;}.k{fill:#a6b5d5;}.l{fill:#f69331;}.m{filter:url(#e);}.n{filter:url(#c);}.o{filter:url(#a);}</style><filter id="a" x="0" y="113" width="357.533" height="147.381" filterUnits="userSpaceOnUse"><feOffset dy="10" input="SourceAlpha"/><feGaussianBlur stdDeviation="6" result="b"/><feFlood flood-opacity="0.11"/><feComposite operator="in" in2="b"/><feComposite in="SourceGraphic"/></filter><filter id="c" x="218.557" y="27.973" width="348.076" height="147.381" filterUnits="userSpaceOnUse"><feOffset dy="10" input="SourceAlpha"/><feGaussianBlur stdDeviation="6" result="d"/><feFlood flood-opacity="0.11"/><feComposite operator="in" in2="d"/><feComposite in="SourceGraphic"/></filter><filter id="e" x="211.202" y="205.645" width="348.076" height="147.381" filterUnits="userSpaceOnUse"><feOffset dy="10" input="SourceAlpha"/><feGaussianBlur stdDeviation="6" result="f"/><feFlood flood-opacity="0.11"/><feComposite operator="in" in2="f"/><feComposite in="SourceGraphic"/></filter></defs><g transform="translate(-125 -42139)"><path class="a" d="M128.344,132.665a2.746,2.746,0,1,1,2.745,2.808A2.777,2.777,0,0,1,128.344,132.665Zm-14.413,0a2.746,2.746,0,1,1,2.745,2.808A2.777,2.777,0,0,1,113.931,132.665Zm-13.726,0a2.746,2.746,0,1,1,2.745,2.808A2.778,2.778,0,0,1,100.2,132.665Zm-14.413,0a2.746,2.746,0,1,1,2.745,2.808A2.778,2.778,0,0,1,85.792,132.665Zm-14.413,0a2.746,2.746,0,1,1,2.745,2.808A2.778,2.778,0,0,1,71.379,132.665Zm-14.412,0a2.746,2.746,0,1,1,2.745,2.808A2.777,2.777,0,0,1,56.967,132.665Zm-14.413,0a2.746,2.746,0,1,1,2.745,2.808A2.777,2.777,0,0,1,42.554,132.665Zm-13.728,0a2.746,2.746,0,1,1,2.745,2.808A2.777,2.777,0,0,1,28.826,132.665Zm-14.413,0a2.746,2.746,0,1,1,2.745,2.808A2.777,2.777,0,0,1,14.413,132.665ZM0,132.665a2.777,2.777,0,0,1,2.745-2.808,2.809,2.809,0,0,1,0,5.616A2.777,2.777,0,0,1,0,132.665Zm128.344-11.93a2.746,2.746,0,1,1,2.745,2.808A2.777,2.777,0,0,1,128.344,120.735Zm-14.413,0a2.746,2.746,0,1,1,2.745,2.808A2.777,2.777,0,0,1,113.931,120.735Zm-13.726,0a2.746,2.746,0,1,1,2.745,2.808A2.777,2.777,0,0,1,100.2,120.735Zm-14.413,0a2.746,2.746,0,1,1,2.745,2.808A2.777,2.777,0,0,1,85.792,120.735Zm-14.413,0a2.746,2.746,0,1,1,2.745,2.808A2.777,2.777,0,0,1,71.379,120.735Zm-14.412,0a2.746,2.746,0,1,1,2.745,2.808A2.777,2.777,0,0,1,56.967,120.735Zm-14.413,0a2.746,2.746,0,1,1,2.745,2.808A2.777,2.777,0,0,1,42.554,120.735Zm-13.728,0a2.746,2.746,0,1,1,2.745,2.808A2.777,2.777,0,0,1,28.826,120.735Zm-14.413,0a2.746,2.746,0,1,1,2.745,2.808A2.777,2.777,0,0,1,14.413,120.735ZM0,120.735a2.777,2.777,0,0,1,2.745-2.808,2.808,2.808,0,0,1,0,5.616A2.777,2.777,0,0,1,0,120.735ZM128.344,109.5a2.746,2.746,0,1,1,2.745,2.808A2.777,2.777,0,0,1,128.344,109.5Zm-14.413,0a2.746,2.746,0,1,1,2.745,2.808A2.777,2.777,0,0,1,113.931,109.5Zm-13.726,0a2.746,2.746,0,1,1,2.745,2.808A2.777,2.777,0,0,1,100.2,109.5Zm-14.413,0a2.746,2.746,0,1,1,2.745,2.808A2.777,2.777,0,0,1,85.792,109.5Zm-14.413,0a2.746,2.746,0,1,1,2.745,2.808A2.777,2.777,0,0,1,71.379,109.5Zm-14.412,0a2.746,2.746,0,1,1,2.745,2.808A2.777,2.777,0,0,1,56.967,109.5Zm-14.413,0A2.746,2.746,0,1,1,45.3,112.31,2.777,2.777,0,0,1,42.554,109.5Zm-13.728,0a2.746,2.746,0,1,1,2.745,2.808A2.777,2.777,0,0,1,28.826,109.5Zm-14.413,0a2.746,2.746,0,1,1,2.745,2.808A2.777,2.777,0,0,1,14.413,109.5ZM0,109.5a2.777,2.777,0,0,1,2.745-2.808,2.808,2.808,0,0,1,0,5.616A2.777,2.777,0,0,1,0,109.5ZM128.344,97.567a2.746,2.746,0,1,1,2.745,2.808A2.777,2.777,0,0,1,128.344,97.567Zm-14.413,0a2.746,2.746,0,1,1,2.745,2.808A2.777,2.777,0,0,1,113.931,97.567Zm-13.726,0a2.746,2.746,0,1,1,2.745,2.808A2.777,2.777,0,0,1,100.2,97.567Zm-14.413,0a2.746,2.746,0,1,1,2.745,2.808A2.777,2.777,0,0,1,85.792,97.567Zm-14.413,0a2.746,2.746,0,1,1,2.745,2.808A2.777,2.777,0,0,1,71.379,97.567Zm-14.412,0a2.746,2.746,0,1,1,2.745,2.808A2.777,2.777,0,0,1,56.967,97.567Zm-14.413,0a2.746,2.746,0,1,1,2.745,2.808A2.777,2.777,0,0,1,42.554,97.567Zm-13.728,0a2.746,2.746,0,1,1,2.745,2.808A2.777,2.777,0,0,1,28.826,97.567Zm-14.413,0a2.746,2.746,0,1,1,2.745,2.808A2.777,2.777,0,0,1,14.413,97.567ZM0,97.567A2.777,2.777,0,0,1,2.745,94.76a2.808,2.808,0,0,1,0,5.616A2.777,2.777,0,0,1,0,97.567ZM128.344,85.637a2.746,2.746,0,1,1,2.745,2.808A2.777,2.777,0,0,1,128.344,85.637Zm-14.413,0a2.746,2.746,0,1,1,2.745,2.808A2.777,2.777,0,0,1,113.931,85.637Zm-13.726,0a2.746,2.746,0,1,1,2.745,2.808A2.777,2.777,0,0,1,100.2,85.637Zm-14.413,0a2.746,2.746,0,1,1,2.745,2.808A2.777,2.777,0,0,1,85.792,85.637Zm-14.413,0a2.746,2.746,0,1,1,2.745,2.808A2.777,2.777,0,0,1,71.379,85.637Zm-14.412,0a2.746,2.746,0,1,1,2.745,2.808A2.777,2.777,0,0,1,56.967,85.637Zm-14.413,0A2.746,2.746,0,1,1,45.3,88.444,2.777,2.777,0,0,1,42.554,85.637Zm-13.728,0a2.746,2.746,0,1,1,2.745,2.808A2.777,2.777,0,0,1,28.826,85.637Zm-14.413,0a2.746,2.746,0,1,1,2.745,2.808A2.777,2.777,0,0,1,14.413,85.637ZM0,85.637A2.777,2.777,0,0,1,2.745,82.83a2.808,2.808,0,0,1,0,5.615A2.777,2.777,0,0,1,0,85.637ZM128.344,73.7a2.746,2.746,0,1,1,2.745,2.807A2.777,2.777,0,0,1,128.344,73.7Zm-14.413,0a2.746,2.746,0,1,1,2.745,2.807A2.777,2.777,0,0,1,113.931,73.7Zm-13.726,0a2.746,2.746,0,1,1,2.745,2.807A2.777,2.777,0,0,1,100.2,73.7Zm-14.413,0a2.746,2.746,0,1,1,2.745,2.807A2.777,2.777,0,0,1,85.792,73.7Zm-14.413,0a2.746,2.746,0,1,1,2.745,2.807A2.777,2.777,0,0,1,71.379,73.7Zm-14.412,0a2.746,2.746,0,1,1,2.745,2.807A2.777,2.777,0,0,1,56.967,73.7Zm-14.413,0A2.746,2.746,0,1,1,45.3,76.511,2.777,2.777,0,0,1,42.554,73.7Zm-13.728,0a2.746,2.746,0,1,1,2.745,2.807A2.777,2.777,0,0,1,28.826,73.7Zm-14.413,0a2.746,2.746,0,1,1,2.745,2.807A2.777,2.777,0,0,1,14.413,73.7ZM0,73.7A2.777,2.777,0,0,1,2.745,70.9a2.808,2.808,0,0,1,0,5.615A2.777,2.777,0,0,1,0,73.7ZM128.344,61.773a2.746,2.746,0,1,1,2.745,2.808A2.777,2.777,0,0,1,128.344,61.773Zm-14.413,0a2.746,2.746,0,1,1,2.745,2.808A2.777,2.777,0,0,1,113.931,61.773Zm-13.726,0a2.746,2.746,0,1,1,2.745,2.808A2.777,2.777,0,0,1,100.2,61.773Zm-14.413,0a2.746,2.746,0,1,1,2.745,2.808A2.777,2.777,0,0,1,85.792,61.773Zm-14.413,0a2.746,2.746,0,1,1,2.745,2.808A2.777,2.777,0,0,1,71.379,61.773Zm-14.412,0a2.746,2.746,0,1,1,2.745,2.808A2.777,2.777,0,0,1,56.967,61.773Zm-14.413,0A2.746,2.746,0,1,1,45.3,64.58,2.777,2.777,0,0,1,42.554,61.773Zm-13.728,0a2.746,2.746,0,1,1,2.745,2.808A2.777,2.777,0,0,1,28.826,61.773Zm-14.413,0a2.746,2.746,0,1,1,2.745,2.808A2.777,2.777,0,0,1,14.413,61.773ZM0,61.773a2.777,2.777,0,0,1,2.745-2.808,2.808,2.808,0,0,1,0,5.616A2.777,2.777,0,0,1,0,61.773ZM128.344,49.839a2.746,2.746,0,1,1,2.745,2.808A2.777,2.777,0,0,1,128.344,49.839Zm-14.413,0a2.746,2.746,0,1,1,2.745,2.808A2.777,2.777,0,0,1,113.931,49.839Zm-13.726,0a2.746,2.746,0,1,1,2.745,2.808A2.777,2.777,0,0,1,100.2,49.839Zm-14.413,0a2.746,2.746,0,1,1,2.745,2.808A2.777,2.777,0,0,1,85.792,49.839Zm-14.413,0a2.746,2.746,0,1,1,2.745,2.808A2.777,2.777,0,0,1,71.379,49.839Zm-14.412,0a2.746,2.746,0,1,1,2.745,2.808A2.777,2.777,0,0,1,56.967,49.839Zm-14.413,0A2.746,2.746,0,1,1,45.3,52.647,2.777,2.777,0,0,1,42.554,49.839Zm-13.728,0a2.746,2.746,0,1,1,2.745,2.808A2.777,2.777,0,0,1,28.826,49.839Zm-14.413,0a2.746,2.746,0,1,1,2.745,2.808A2.777,2.777,0,0,1,14.413,49.839ZM0,49.839a2.777,2.777,0,0,1,2.745-2.808,2.808,2.808,0,0,1,0,5.616A2.777,2.777,0,0,1,0,49.839ZM128.344,38.607a2.746,2.746,0,1,1,2.745,2.808A2.777,2.777,0,0,1,128.344,38.607Zm-14.413,0a2.746,2.746,0,1,1,2.745,2.808A2.777,2.777,0,0,1,113.931,38.607Zm-13.726,0a2.746,2.746,0,1,1,2.745,2.808A2.777,2.777,0,0,1,100.2,38.607Zm-14.413,0a2.746,2.746,0,1,1,2.745,2.808A2.777,2.777,0,0,1,85.792,38.607Zm-14.413,0a2.746,2.746,0,1,1,2.745,2.808A2.777,2.777,0,0,1,71.379,38.607Zm-14.412,0a2.746,2.746,0,1,1,2.745,2.808A2.777,2.777,0,0,1,56.967,38.607Zm-14.413,0A2.746,2.746,0,1,1,45.3,41.415,2.777,2.777,0,0,1,42.554,38.607Zm-13.728,0a2.746,2.746,0,1,1,2.745,2.808A2.777,2.777,0,0,1,28.826,38.607Zm-14.413,0a2.746,2.746,0,1,1,2.745,2.808A2.777,2.777,0,0,1,14.413,38.607ZM0,38.607A2.777,2.777,0,0,1,2.745,35.8a2.808,2.808,0,0,1,0,5.615A2.777,2.777,0,0,1,0,38.607Zm128.344-11.93a2.746,2.746,0,1,1,2.745,2.808A2.777,2.777,0,0,1,128.344,26.677Zm-14.413,0a2.746,2.746,0,1,1,2.745,2.808A2.777,2.777,0,0,1,113.931,26.677Zm-13.726,0a2.746,2.746,0,1,1,2.745,2.808A2.777,2.777,0,0,1,100.2,26.677Zm-14.413,0a2.746,2.746,0,1,1,2.745,2.808A2.777,2.777,0,0,1,85.792,26.677Zm-14.413,0a2.746,2.746,0,1,1,2.745,2.808A2.777,2.777,0,0,1,71.379,26.677Zm-14.412,0a2.746,2.746,0,1,1,2.745,2.808A2.777,2.777,0,0,1,56.967,26.677Zm-14.413,0A2.746,2.746,0,1,1,45.3,29.485,2.777,2.777,0,0,1,42.554,26.677Zm-13.728,0a2.746,2.746,0,1,1,2.745,2.808A2.777,2.777,0,0,1,28.826,26.677Zm-14.413,0a2.746,2.746,0,1,1,2.745,2.808A2.777,2.777,0,0,1,14.413,26.677ZM0,26.677a2.777,2.777,0,0,1,2.745-2.808,2.808,2.808,0,0,1,0,5.616A2.777,2.777,0,0,1,0,26.677ZM128.344,14.742a2.746,2.746,0,1,1,2.745,2.808A2.777,2.777,0,0,1,128.344,14.742Zm-14.413,0a2.746,2.746,0,1,1,2.745,2.808A2.777,2.777,0,0,1,113.931,14.742Zm-13.726,0a2.746,2.746,0,1,1,2.745,2.808A2.777,2.777,0,0,1,100.2,14.742Zm-14.413,0a2.746,2.746,0,1,1,2.745,2.808A2.777,2.777,0,0,1,85.792,14.742Zm-14.413,0a2.746,2.746,0,1,1,2.745,2.808A2.777,2.777,0,0,1,71.379,14.742Zm-14.412,0a2.746,2.746,0,1,1,2.745,2.808A2.777,2.777,0,0,1,56.967,14.742Zm-14.413,0A2.746,2.746,0,1,1,45.3,17.549,2.777,2.777,0,0,1,42.554,14.742Zm-13.728,0a2.746,2.746,0,1,1,2.745,2.808A2.777,2.777,0,0,1,28.826,14.742Zm-14.413,0a2.746,2.746,0,1,1,2.745,2.808A2.777,2.777,0,0,1,14.413,14.742ZM0,14.742a2.777,2.777,0,0,1,2.745-2.808,2.808,2.808,0,0,1,0,5.616A2.777,2.777,0,0,1,0,14.742ZM128.344,2.808a2.746,2.746,0,1,1,5.491,0,2.746,2.746,0,1,1-5.491,0Zm-14.413,0a2.746,2.746,0,1,1,5.491,0,2.746,2.746,0,1,1-5.491,0Zm-13.726,0a2.746,2.746,0,1,1,5.491,0,2.746,2.746,0,1,1-5.491,0Zm-14.413,0a2.746,2.746,0,1,1,5.491,0,2.746,2.746,0,1,1-5.491,0Zm-14.413,0a2.746,2.746,0,1,1,5.491,0,2.746,2.746,0,1,1-5.491,0Zm-14.412,0a2.746,2.746,0,1,1,5.49,0,2.746,2.746,0,1,1-5.49,0Zm-14.413,0a2.746,2.746,0,1,1,5.49,0,2.746,2.746,0,1,1-5.49,0Zm-13.728,0a2.746,2.746,0,1,1,5.491,0,2.746,2.746,0,1,1-5.491,0Zm-14.413,0a2.746,2.746,0,1,1,5.491,0,2.746,2.746,0,1,1-5.491,0ZM0,2.808A2.777,2.777,0,0,1,2.745,0,2.777,2.777,0,0,1,5.491,2.808,2.777,2.777,0,0,1,2.745,5.616,2.777,2.777,0,0,1,0,2.808Z" transform="translate(323.73 42139)"/><g transform="translate(143 42260)"><g class="o" transform="matrix(1, 0, 0, 1, -18, -121)"><rect class="b" width="321.533" height="111.381" rx="11" transform="translate(18 121)"/></g><g transform="translate(39.043 24.921)"><path class="c" d="M57.746-86.111c-2.862-3.261-8.034-4.66-14.652-4.66H23.888A2.751,2.751,0,0,0,21.17-88.45L13.177-37.73a1.648,1.648,0,0,0,.376,1.328,1.65,1.65,0,0,0,1.253.577H26.663l2.978-18.888-.092.591a2.74,2.74,0,0,1,2.706-2.319h5.634c11.069,0,19.736-4.5,22.267-17.5q.113-.576.2-1.125c.752-4.807,0-8.079-2.605-11.041" transform="translate(-13.155 90.771)"/><path class="d" d="M238.948-58.456c-.726,4.759-4.36,4.759-7.875,4.759h-2l1.405-8.886a1.1,1.1,0,0,1,1.088-.931h.917c2.395,0,4.655,0,5.823,1.363a4.438,4.438,0,0,1,.642,3.7m-1.532-12.418H224.16a1.848,1.848,0,0,0-1.824,1.556l-5.359,33.994a1.111,1.111,0,0,0,.253.889,1.1,1.1,0,0,0,.84.389h6.8a1.289,1.289,0,0,0,1.274-1.088l1.522-9.64a1.838,1.838,0,0,1,1.817-1.556h4.2c8.735,0,13.772-4.224,15.09-12.6.593-3.662.022-6.541-1.69-8.557-1.886-2.216-5.228-3.388-9.665-3.388" transform="translate(-49.2 87.251)"/><path class="c" d="M124.058-58.456c-.725,4.759-4.359,4.759-7.875,4.759h-2l1.4-8.886a1.1,1.1,0,0,1,1.091-.931h.917c2.393,0,4.654,0,5.82,1.363a4.424,4.424,0,0,1,.643,3.7m-1.529-12.418h-13.26a1.843,1.843,0,0,0-1.819,1.556L102.09-35.323a1.11,1.11,0,0,0,.25.891,1.1,1.1,0,0,0,.84.387h6.331a1.841,1.841,0,0,0,1.819-1.556l1.449-9.171a1.841,1.841,0,0,1,1.818-1.555h4.2c8.735,0,13.776-4.226,15.09-12.6.595-3.662.025-6.541-1.689-8.557-1.886-2.216-5.228-3.388-9.665-3.388m30.781,24.625a7.08,7.08,0,0,1-7.166,6.063,5.36,5.36,0,0,1-4.263-1.715,5.39,5.39,0,0,1-.994-4.457A7.1,7.1,0,0,1,148-52.47a5.35,5.35,0,0,1,4.232,1.73,5.468,5.468,0,0,1,1.077,4.489m8.847-12.36h-6.348a1.105,1.105,0,0,0-1.093.936l-.278,1.775-.444-.643c-1.376-2-4.441-2.663-7.5-2.663-7.015,0-13,5.316-14.172,12.77a11.984,11.984,0,0,0,2.365,9.755c1.937,2.279,4.7,3.227,7.994,3.227a12.156,12.156,0,0,0,8.791-3.63l-.284,1.764a1.109,1.109,0,0,0,.252.891,1.1,1.1,0,0,0,.842.385H158a1.843,1.843,0,0,0,1.821-1.555l3.432-21.733a1.1,1.1,0,0,0-.253-.89,1.109,1.109,0,0,0-.84-.387" transform="translate(-28.881 87.251)"/><path class="d" d="M274.653-43.744a7.081,7.081,0,0,1-7.166,6.064,5.358,5.358,0,0,1-4.263-1.715,5.391,5.391,0,0,1-.994-4.458,7.1,7.1,0,0,1,7.114-6.11,5.351,5.351,0,0,1,4.234,1.73,5.464,5.464,0,0,1,1.076,4.489M283.5-56.1h-6.35a1.108,1.108,0,0,0-1.093.935l-.278,1.775-.444-.643c-1.373-1.995-4.439-2.663-7.5-2.663-7.012,0-13.006,5.316-14.171,12.77a11.975,11.975,0,0,0,2.365,9.756c1.938,2.279,4.7,3.227,8,3.227a12.152,12.152,0,0,0,8.79-3.63l-.283,1.764a1.106,1.106,0,0,0,.248.891,1.1,1.1,0,0,0,.843.386h5.711a1.846,1.846,0,0,0,1.824-1.555L284.6-54.824a1.107,1.107,0,0,0-.253-.891,1.108,1.108,0,0,0-.843-.387" transform="translate(-55.659 84.745)"/><path class="c" d="M209.791-55.973h-6.383a1.839,1.839,0,0,0-1.522.808l-8.8,12.965-3.733-12.458a1.847,1.847,0,0,0-1.765-1.317h-6.274a1.1,1.1,0,0,0-.9.464,1.1,1.1,0,0,0-.146,1l7.025,20.627-6.611,9.324a1.1,1.1,0,0,0-.077,1.146,1.105,1.105,0,0,0,.982.6h6.375a1.846,1.846,0,0,0,1.513-.791L210.7-54.238a1.106,1.106,0,0,0,.072-1.141,1.1,1.1,0,0,0-.979-.594" transform="translate(-42.701 84.617)"/><path class="d" d="M297.87-69.939l-5.441,34.618a1.112,1.112,0,0,0,.248.891,1.135,1.135,0,0,0,.843.388h5.47a1.843,1.843,0,0,0,1.82-1.556l5.369-34a1.1,1.1,0,0,0-.253-.89,1.1,1.1,0,0,0-.843-.387H298.96a1.1,1.1,0,0,0-1.091.933" transform="translate(-62.545 87.251)"/><path class="c" d="M57.746-86.111c-2.862-3.261-8.034-4.66-14.652-4.66H23.888A2.751,2.751,0,0,0,21.17-88.45L13.177-37.73a1.648,1.648,0,0,0,.376,1.328,1.65,1.65,0,0,0,1.253.577H26.663l2.978-18.888-.092.591a2.74,2.74,0,0,1,2.706-2.319h5.634c11.069,0,19.736-4.5,22.267-17.5q.113-.576.2-1.125c.752-4.807,0-8.079-2.605-11.041" transform="translate(-13.155 90.771)"/><path class="c" d="M32.838-75a2.407,2.407,0,0,1,2.375-2.029H50.27a31.638,31.638,0,0,1,4.966.359,20.917,20.917,0,0,1,2.462.551,13.644,13.644,0,0,1,2.651,1.055c.755-4.808,0-8.078-2.6-11.042-2.863-3.26-8.034-4.658-14.652-4.658H23.886a2.75,2.75,0,0,0-2.714,2.319l-8,50.716a1.647,1.647,0,0,0,.374,1.329,1.646,1.646,0,0,0,1.253.577H26.661l2.978-18.888Z" transform="translate(-13.154 90.77)"/><path class="d" d="M63.072-71.7q-.088.565-.2,1.124c-2.531,13-11.2,17.5-22.267,17.5H34.972a2.739,2.739,0,0,0-2.7,2.319L29.382-32.455l-.82,5.189A1.446,1.446,0,0,0,28.89-26.1a1.443,1.443,0,0,0,1.1.506h9.995a2.406,2.406,0,0,0,2.375-2.029l.1-.509,1.884-11.939.12-.66a2.406,2.406,0,0,1,2.376-2.029h1.5c9.682,0,17.264-3.931,19.479-15.31.923-4.752.444-8.723-2-11.511A9.557,9.557,0,0,0,63.072-71.7" transform="translate(-15.876 87.397)"/><path class="e" d="M61.221-73.174q-.58-.171-1.2-.307c-.41-.09-.834-.17-1.268-.239a31.119,31.119,0,0,0-4.967-.364H38.735a2.4,2.4,0,0,0-2.374,2.03l-3.2,20.293-.092.59a2.74,2.74,0,0,1,2.7-2.321h5.636c11.069,0,19.736-4.5,22.267-17.5.076-.385.139-.758.2-1.125A13.661,13.661,0,0,0,61.79-73c-.187-.062-.376-.12-.569-.178" transform="translate(-16.676 87.819)"/></g></g><g transform="translate(361.557 42174.973)"><g class="n" transform="matrix(1, 0, 0, 1, -236.56, -35.97)"><rect class="b" width="312.076" height="111.381" rx="11" transform="translate(236.56 35.97)"/></g><g transform="translate(35.224 21.298)"><path class="f" d="M27.137,2.264c.48,0,.72.24,1.2.48-2.882,1.2-5.764,4.323-7.2,11.047L15.85,15.232C17.531,10.429,20.893,2.264,27.137,2.264Zm2.642,2.4a16.746,16.746,0,0,1,.961,5.764v.48L23.775,12.83C25.216,7.787,27.618,5.626,29.779,4.665Zm6.244,4.323L32.9,9.949v-.72a16.505,16.505,0,0,0-.72-5.283C33.862,4.425,35.3,6.586,36.023,8.988Zm15.61,3.842a.517.517,0,0,0-.48-.48c-.48,0-5.524-.48-5.524-.48s-3.6-3.6-4.083-3.842c-.48-.48-1.2-.24-1.441-.24,0,0-.72.24-1.921.72-1.2-3.362-3.362-6.484-6.964-6.484h-.24A4.247,4.247,0,0,0,27.378.1c-8.646-.24-12.728,10.567-14.169,16.09-1.921.48-3.842,1.2-6,1.921-1.921.48-1.921.72-2.161,2.4C4.8,21.716,0,59.661,0,59.661l38.185,7.2L58.838,62.3S51.633,13.311,51.633,12.83Z" transform="translate(0 -0.098)"/><path class="g" d="M28.628,7.863c-.24,0-5.283-.48-5.283-.48s-3.6-3.6-4.083-3.842c-.24-.24-.24-.24-.48-.24L15.9,62.378l20.653-4.563s-7.2-48.992-7.2-49.472c0-.24-.48-.48-.721-.48" transform="translate(22.285 4.389)"/><path class="h" d="M26.034,10.579l-2.642,7.685a11.388,11.388,0,0,0-5.043-1.2c-4.083,0-4.323,2.4-4.323,3.122,0,3.362,9.126,4.8,9.126,12.969,0,6.484-4.083,10.567-9.606,10.567A13.2,13.2,0,0,1,3.7,39.638l1.681-5.764s3.362,2.882,6.244,2.882a2.507,2.507,0,0,0,2.642-2.642c0-4.563-7.445-4.8-7.445-12.248,0-6.244,4.563-12.248,13.449-12.248,4.083-.24,5.764.961,5.764.961" transform="translate(5.186 13.2)"/><path class="i" d="M43.15,30.476c-2.162-1.2-3.122-2.161-3.122-3.362,0-1.681,1.441-2.642,3.842-2.642a12.77,12.77,0,0,1,5.044,1.2l1.921-5.764s-1.681-1.441-6.724-1.441c-7.205,0-12.008,4.083-12.008,9.846,0,3.362,2.4,5.764,5.283,7.445,2.4,1.441,3.362,2.4,3.362,3.843s-1.2,2.882-3.6,2.882A17.388,17.388,0,0,1,30.421,40.8L28.5,46.566a15.2,15.2,0,0,0,7.925,1.921c7.205,0,12.488-3.6,12.488-10.086,0-3.6-2.642-6.244-5.764-7.925M72.208,18.228a10.92,10.92,0,0,0-8.646,4.323h0L66.684,6.22H58.52L50.594,47.767h8.166L61.4,33.6c.961-5.283,3.843-8.646,6.484-8.646,1.921,0,2.642,1.2,2.642,3.122a18.155,18.155,0,0,1-.24,3.6l-3.122,16.33H75.33L78.452,31.2a43.136,43.136,0,0,0,.481-5.283c0-4.8-2.4-7.685-6.724-7.685M93.1,42c-2.882,0-3.842-2.4-3.842-5.283,0-4.563,2.4-12.248,6.724-12.248,2.882,0,3.842,2.4,3.842,4.8C99.826,34.559,97.424,42,93.1,42Zm4.083-23.775c-9.847,0-16.331,8.886-16.331,18.732,0,6.244,3.843,11.287,11.287,11.287,9.606,0,16.09-8.646,16.09-18.732C108.231,23.752,104.869,18.228,97.184,18.228ZM121.2,42.244a4.971,4.971,0,0,1-3.362-1.2l1.441-7.685c.961-5.043,3.6-8.405,6.484-8.405,2.4,0,3.362,2.4,3.362,4.563C128.884,34.8,125.763,42.244,121.2,42.244Zm7.925-24.016c-5.523,0-8.645,4.8-8.645,4.8h0l.48-4.323h-7.2a99.438,99.438,0,0,1-1.681,10.807L106.31,59.295h8.165l2.161-12.008h.24a10.368,10.368,0,0,0,4.8.961c9.606,0,15.85-9.846,15.85-19.693C137.53,23.271,135.129,18.228,129.125,18.228ZM149.058,6.7a4.617,4.617,0,0,0-4.563,4.8c0,2.4,1.441,4.083,3.842,4.083h0a4.534,4.534,0,0,0,4.8-4.8A3.908,3.908,0,0,0,149.058,6.7M137.77,47.767h8.165l5.524-28.819h-8.165Zm34.342-28.819h-5.764l.24-1.441c.481-2.882,2.161-5.283,4.8-5.283a7.926,7.926,0,0,1,2.642.48l1.681-6.484a10.458,10.458,0,0,0-4.323-.72,11.729,11.729,0,0,0-7.925,2.642c-2.882,2.4-4.082,5.764-4.8,9.126l-.24,1.441h-3.843l-1.2,6.244h3.842L152.9,47.767h8.165l4.323-22.815h5.524Zm19.452,0s-5.043,12.728-7.445,19.693h0c-.24-2.161-1.921-19.693-1.921-19.693h-8.646l4.8,26.417a3.046,3.046,0,0,1-.24,1.441,13.868,13.868,0,0,1-4.323,4.8,16.847,16.847,0,0,1-4.563,2.4l2.161,6.965a17.427,17.427,0,0,0,7.925-4.323c3.6-3.362,7.2-8.886,10.567-16.09l9.847-21.374Z" transform="translate(39.944 7.472)"/></g></g><g transform="translate(354.202 42352.645)"><g class="m" transform="matrix(1, 0, 0, 1, -229.2, -213.64)"><rect class="b" width="312.076" height="111.381" rx="11" transform="translate(229.2 213.64)"/></g><g transform="translate(56.777 35.383)"><g transform="translate(0 0)"><path class="j" d="M70.18,299.584h0a6.652,6.652,0,0,1-1.621-9.216L84.636,262.98a6.616,6.616,0,1,1,10.836,7.595L79.393,297.963a6.647,6.647,0,0,1-9.214,1.621" transform="translate(-50.98 -260.12)"/><path class="j" d="M198,286.06H176.014c3.62,5.53,10.484,6.353,15.789,3.46a5.575,5.575,0,0,1,7.689,1.973,5.759,5.759,0,0,1-1.969,7.783,23.419,23.419,0,0,1-11.818,3.146,22.18,22.18,0,0,1-20.241-12.235A21.432,21.432,0,0,1,165.208,273a21.061,21.061,0,0,1,40.323,5.624c.507,4.955-2.8,7.436-7.53,7.436m-5.021-9.409c-.731-3.143-4.226-6.135-8.42-6.135-4.13,0-7.689,2.992-8.42,6.135Z" transform="translate(-116.587 -260.067)"/><path class="j" d="M340.534,286.06H318.545c3.624,5.53,10.485,6.353,15.79,3.46a5.575,5.575,0,0,1,7.689,1.973,5.737,5.737,0,0,1-2,7.783,23.409,23.409,0,0,1-11.819,3.146,22.18,22.18,0,0,1-20.239-12.235A21.422,21.422,0,0,1,307.708,273a21.06,21.06,0,0,1,40.321,5.624c.543,4.955-2.766,7.436-7.5,7.436m-5.024-9.409c-.729-3.143-4.226-6.135-8.418-6.135-4.129,0-7.689,2.992-8.423,6.135Z" transform="translate(-213.811 -260.067)"/><path class="j" d="M500.406,261.557c-.159-.064-.317-.158-.476-.223-.476-.188-.952-.382-1.433-.541a.266.266,0,0,0-.159-.035c-.51-.159-1.046-.282-1.591-.411a.826.826,0,0,0-.253-.03,13.46,13.46,0,0,0-1.527-.223c-.381-.03-.788-.064-1.2-.064-.218,0-.417-.03-.634-.03h-.069a18.707,18.707,0,0,0-11.625,4.194A18.631,18.631,0,0,0,469.809,260h-.069c-.218,0-.446.03-.635.03-.407,0-.793.035-1.2.064-.511.064-1.016.129-1.522.223a.871.871,0,0,1-.258.03c-.541.129-1.081.253-1.586.411-.069,0-.1.035-.164.035-.476.159-.986.352-1.423.541a3.086,3.086,0,0,0-.486.223A18.239,18.239,0,0,0,451.6,278.14v16.939a8.185,8.185,0,0,0,.129,1.272c0,.03.03.092.03.121a9,9,0,0,0,.288.959c.064.159.124.317.193.476.089.188.188.347.283.506a7.1,7.1,0,0,0,.54.763c.03.03.06.1.1.126a6.409,6.409,0,0,0,2.92,2,1.488,1.488,0,0,1,.347.129c.188.062.417.092.6.159a5.031,5.031,0,0,0,.981.092h.193a6.685,6.685,0,0,0,6.608-6.606V278.14a4.99,4.99,0,1,1,9.979,0v16.939a6.682,6.682,0,0,0,6.608,6.606h.064a6.685,6.685,0,0,0,6.608-6.606V278.14a5.073,5.073,0,0,1,4.982-5.049,5.014,5.014,0,0,1,5,5.049v16.939a6.681,6.681,0,0,0,6.608,6.606h.188a5.253,5.253,0,0,0,.981-.092,5.153,5.153,0,0,0,.6-.159,1.874,1.874,0,0,0,.352-.129,6.663,6.663,0,0,0,2.925-2c.03-.03.06-.1.089-.126a9.121,9.121,0,0,0,.545-.763c.089-.159.188-.347.282-.506l.193-.476a6.062,6.062,0,0,0,.283-.959c0-.03.035-.092.035-.121a5.674,5.674,0,0,0,.124-1.272V278.14a18.231,18.231,0,0,0-10.862-16.583" transform="translate(-313.122 -260)"/><path class="k" d="M21.257,262.34h0a6.621,6.621,0,0,1,9.214,1.621s10.866,19.983,12.2,22.145a11.17,11.17,0,0,0,1.843,1.938,6.615,6.615,0,0,0,8.8-1.11l.636-1.086a6.652,6.652,0,0,1-8.833,1.115,12.643,12.643,0,0,1-1.843-1.938c-1.334-2.191-12.2-22.145-12.2-22.145a6.647,6.647,0,0,0-9.214-1.621,6.359,6.359,0,0,0-2.161,2.6,7.767,7.767,0,0,1,1.557-1.524" transform="translate(-18.453 -260.052)"/><path class="l" d="M41.837,290.463h0a12.562,12.562,0,0,1-1.843-1.936c-1.334-2.194-12.2-22.147-12.2-22.147a6.615,6.615,0,1,0-10.835,7.592l15.315,27.387a6.642,6.642,0,0,0,5.624,2.8,6.642,6.642,0,0,0,5.624-2.8l7.117-12.01a6.608,6.608,0,0,1-8.8,1.113" transform="translate(-15.776 -262.439)"/></g></g></g></g></svg>