<svg xmlns="http://www.w3.org/2000/svg" width="65" height="65" viewBox="0 0 65 65"><defs><style>.a{fill:#ffb435;}.b{fill:#fff;}</style></defs><g transform="translate(-851 -31660)"><g transform="translate(0 8134)"><g transform="translate(757 15091)"><circle class="a" cx="32.5" cy="32.5" r="32.5" transform="translate(94 8435)"/></g></g><path class="b" d="M25.991,9.417,23.409,1.673A2.442,2.442,0,0,0,21.088,0H13.875V9.794H26.052A2.33,2.33,0,0,0,25.991,9.417ZM12.243,0H5.03A2.442,2.442,0,0,0,2.709,1.673L.128,9.417a2.33,2.33,0,0,0-.061.377H12.243ZM0,11.427V23.67a2.449,2.449,0,0,0,2.449,2.449H23.67a2.449,2.449,0,0,0,2.449-2.449V11.427Z" transform="translate(870.1 31679.383)"/></g></svg>