<svg xmlns="http://www.w3.org/2000/svg" xmlns:xlink="http://www.w3.org/1999/xlink" width="65" height="65" viewBox="0 0 65 65"><defs><style>.a{fill:#fff;stroke:#707070;}.b{fill:#f1f1f1;}.c{clip-path:url(#a);}.d{fill:#24484e;}.e{fill:#204146;}.f{fill:#506d71;}.g{fill:#c4c4c4;}.h{fill:#f2f2f2;}.i{fill:#e5e5e5;}</style><clipPath id="a"><rect class="a" width="46" height="46" transform="translate(1180 11905)"/></clipPath></defs><g transform="translate(-1171 -11895)"><g transform="translate(1077 3460)"><circle class="b" cx="32.5" cy="32.5" r="32.5" transform="translate(94 8435)"/></g><g class="c" transform="translate(1 3)"><g transform="translate(1174.266 11890.889)"><path class="d" d="M44.651,41.562a18.339,18.339,0,1,1-6.809-25.025A18.339,18.339,0,0,1,44.651,41.562Z"/><path class="e" d="M25.93,48.348a.608.608,0,0,1-.1-.009q-.668-.115-1.289-.262a15.949,15.949,0,0,1-6.417-3.013l.5-1.128a15.24,15.24,0,0,0,7.407,3.212.6.6,0,0,1-.1,1.2Zm-9.41-4.8a13.243,13.243,0,0,1-1.866-2.694,13.744,13.744,0,0,1-1.591-5.862.6.6,0,0,1,.6-.6h0a.6.6,0,0,1,.6.605,12.777,12.777,0,0,0,1.478,5.346,12.315,12.315,0,0,0,1.368,2.064Z"/><path class="f" d="M40.4,22.252a.478.478,0,0,1-.4-.216,8.744,8.744,0,0,0-4.845-3.863.479.479,0,0,1,.2-.937A9.506,9.506,0,0,1,40.8,21.511a.479.479,0,0,1-.4.741Z"/><path class="f" d="M42.595,25.619a.479.479,0,0,1-.434-.276,4.409,4.409,0,0,0-.949-1.452.478.478,0,0,1,.293-.856.482.482,0,0,1,.293.1,4.947,4.947,0,0,1,1.229,1.8.479.479,0,0,1-.433.682Z"/><path class="g" d="M14.595,52.965l9.173-20.549-1.146-.552L12.2,51.82a1.327,1.327,0,1,0,2.393,1.145Z"/><path class="h" d="M28.666,30.918c-1.476,3.062-4.451,4.687-6.646,3.63s-2.778-4.4-1.3-7.459,4.451-4.687,6.646-3.63S30.141,27.856,28.666,30.918Z"/><path class="i" d="M22.448,34.137a.263.263,0,0,1-.07-.01q-.077-.021-.151-.046a2.414,2.414,0,0,1-1.634-1.737,3.41,3.41,0,0,1-.086-1.284.263.263,0,0,1,.259-.222.27.27,0,0,1,.041,0,.262.262,0,0,1,.219.3,2.185,2.185,0,0,0,1.491,2.48.263.263,0,0,1-.07.516Z"/><path class="i" d="M23.532,33.251a1.876,1.876,0,0,1-.822-.183c-1.4-.676-1.67-3.028-.6-5.254.876-1.818,2.375-2.99,3.659-2.99a1.877,1.877,0,0,1,.822.183c1.4.676,1.67,3.028.6,5.254C26.315,32.08,24.816,33.251,23.532,33.251Z"/><path class="g" d="M46.676,58.242,37.488,37.7l-1.176.485,7.915,21.076a1.327,1.327,0,1,0,2.449-1.018Z" transform="translate(-1 -3)"/><path class="h" d="M36.185,29.622l1.722,4.172a.564.564,0,1,1-1.043.43L34.919,29.51a.453.453,0,0,0-.839.344l1.981,4.8a.473.473,0,0,1-.257.618l-.185.076a.455.455,0,0,1-.594-.247l-1.957-4.743a.48.48,0,0,0-.887.367L34.152,35.5a.418.418,0,0,1-.227.546l-.27.111a.418.418,0,0,1-.546-.227l-1.72-4.167a.19.19,0,0,0-.36.026,7.465,7.465,0,0,0,.435,4.634c1.3,3.142,4.174,4.936,6.426,4.006s3.026-4.23,1.73-7.372a7.369,7.369,0,0,0-3.148-3.7A.206.206,0,0,0,36.185,29.622Z"/><path class="i" d="M36.246,40.193a2.546,2.546,0,0,1-1.148-.287,3.414,3.414,0,0,1-1.014-.793.263.263,0,0,1,.407-.333,2.51,2.51,0,0,0,1.748.887,2,2,0,0,0,1.094-.343.263.263,0,0,1,.283.442q-.068.043-.135.082A2.46,2.46,0,0,1,36.246,40.193Z"/></g></g></g></svg>