<svg xmlns="http://www.w3.org/2000/svg" xmlns:xlink="http://www.w3.org/1999/xlink" width="65" height="65" viewBox="0 0 65 65"><defs><style>.a{fill:#fff;stroke:#707070;}.b{clip-rule:evenodd;}.c{fill:#f1f1f1;}.d{clip-path:url(#a);}.e{fill:#a7cccc;}.f{fill:#d2d0ca;}.g{fill:#b8d4d4;}.h{fill:#d2d6d6;}.i{fill:#ccc;}.j{fill:#313838;}.k{fill:#242424;}.l{fill:#353b3b;}.m{clip-path:url(#b);}.n{fill:#4f5454;}.o{fill:#444;}.p{fill:#c4caca;}.q{fill:#2b3131;}.r{fill:#1f1f1f;}.s{fill:#a2a8a8;}</style><clipPath id="a"><rect class="a" width="40" height="32" transform="translate(203 11908)"/></clipPath><clipPath id="b"><path class="b" d="M62.64,15.151H32.565a.543.543,0,0,0-.543.543V32.233a.543.543,0,0,0,.543.543H62.64a.543.543,0,0,0,.543-.543V15.694A.543.543,0,0,0,62.64,15.151Z" transform="translate(-32.022 -15.151)"/></clipPath></defs><g transform="translate(-195 -11895)"><g transform="translate(101 3460)"><circle class="c" cx="32.5" cy="32.5" r="32.5" transform="translate(94 8435)"/></g><g class="d" transform="translate(5 4)"><g transform="translate(203.197 11908)"><g transform="translate(0 0)"><g transform="translate(0 21.821)"><path class="e" d="M65.13,50.519H27.665c-.661,0-1.135-.237-1.06-.526v-.924l2.4-8.324c.058-.224.571-.4,1.147-.4H62.779c.575,0,1.086.18,1.141.4L66.2,49.069v.924C66.268,50.282,65.791,50.519,65.13,50.519Z" transform="translate(-26.598 -40.34)"/></g><g transform="translate(0 20.897)"><path class="f" d="M65.13,49.364H27.665c-.661,0-1.135-.237-1.06-.526l2.4-9.248c.058-.224.571-.4,1.147-.4H62.779c.575,0,1.086.18,1.141.4L66.2,48.838C66.268,49.127,65.791,49.364,65.13,49.364Z" transform="translate(-26.598 -39.185)"/></g><g transform="translate(15.964 30.704)"><path class="g" d="M54.224,51.815H46.553c.012-.205.4-.371.859-.371H53.37C53.833,51.444,54.216,51.61,54.224,51.815Z" transform="translate(-46.553 -51.444)"/></g><g transform="translate(14.38 26.971)"><path class="h" d="M54.787,49.848H45.213c-.365,0-.651-.129-.639-.288l.194-2.516c.011-.148.305-.268.656-.268h9.2c.351,0,.643.12.652.268l.159,2.515C55.44,49.719,55.152,49.848,54.787,49.848Z" transform="translate(-44.573 -46.777)"/></g><g transform="translate(14.33 26.921)"><path class="i" d="M54.774,49.885v-.1H45.2a1.127,1.127,0,0,1-.434-.077.382.382,0,0,1-.12-.077.147.147,0,0,1-.028-.039.084.084,0,0,1-.008-.035v-.006l.193-2.515A.086.086,0,0,1,44.815,47a.214.214,0,0,1,.07-.068.7.7,0,0,1,.219-.086,1.341,1.341,0,0,1,.308-.034h9.2a1.191,1.191,0,0,1,.435.075.424.424,0,0,1,.126.076A.148.148,0,0,1,55.2,47a.078.078,0,0,1,.011.033l.159,2.515v0a.086.086,0,0,1-.008.036.188.188,0,0,1-.063.069.632.632,0,0,1-.212.09,1.3,1.3,0,0,1-.31.035v.1a1.229,1.229,0,0,0,.477-.086.482.482,0,0,0,.153-.1.24.24,0,0,0,.046-.066.184.184,0,0,0,.018-.078s0-.007,0-.011l-.159-2.515a.179.179,0,0,0-.022-.075.305.305,0,0,0-.1-.1.787.787,0,0,0-.249-.1,1.432,1.432,0,0,0-.33-.037h-9.2a1.289,1.289,0,0,0-.474.082.528.528,0,0,0-.158.095.252.252,0,0,0-.05.062.179.179,0,0,0-.023.075l-.194,2.515s0,.009,0,.013a.183.183,0,0,0,.017.077.284.284,0,0,0,.095.108.719.719,0,0,0,.245.1,1.4,1.4,0,0,0,.332.038Z" transform="translate(-44.511 -46.715)"/></g><g transform="translate(4.14 22.183)"><path class="j" d="M33.331,41.571h-1.2c-.215,0-.373-.069-.354-.154l.109-.473c.019-.084.207-.151.42-.151h1.189c.212,0,.371.068.354.151l-.1.473C33.734,41.5,33.546,41.571,33.331,41.571Z" transform="translate(-31.773 -40.793)"/></g><g transform="translate(6.677 22.183)"><path class="j" d="M36.507,41.571H35.3c-.215,0-.376-.069-.359-.154l.092-.473c.016-.084.2-.152.414-.152H36.64c.213,0,.374.068.36.152l-.078.473C36.908,41.5,36.722,41.571,36.507,41.571Z" transform="translate(-34.944 -40.793)"/></g><g transform="translate(9.214 22.183)"><path class="j" d="M39.683,41.571h-1.2c-.215,0-.378-.069-.365-.154l.075-.473c.013-.084.2-.152.409-.151h1.189c.213,0,.376.068.365.151l-.061.472C40.081,41.5,39.9,41.571,39.683,41.571Z" transform="translate(-38.115 -40.793)"/></g><g transform="translate(11.75 22.183)"><path class="j" d="M42.859,41.571h-1.2c-.215,0-.381-.069-.37-.154l.058-.472c.01-.084.191-.151.4-.151h1.189c.213,0,.379.068.371.152l-.044.472C43.255,41.5,43.074,41.571,42.859,41.571Z" transform="translate(-41.286 -40.793)"/></g><g transform="translate(14.287 22.183)"><path class="j" d="M46.035,41.571h-1.2c-.215,0-.383-.069-.376-.154l.04-.472c.007-.084.185-.151.4-.151h1.189c.213,0,.381.068.376.152l-.027.472C46.428,41.5,46.25,41.571,46.035,41.571Z" transform="translate(-44.456 -40.793)"/></g><g transform="translate(16.823 22.184)"><path class="j" d="M49.211,41.571h-1.2c-.215,0-.386-.069-.381-.154l.024-.472c0-.084.18-.151.392-.151h1.189c.213,0,.384.068.382.151l-.01.472C49.6,41.5,49.426,41.571,49.211,41.571Z" transform="translate(-47.627 -40.793)"/></g><g transform="translate(19.36 22.184)"><path class="j" d="M52.387,41.571h-1.2c-.215,0-.388-.069-.387-.154l.007-.472c0-.084.175-.152.387-.152H52.38c.213,0,.386.068.387.151l.007.472C52.775,41.5,52.6,41.571,52.387,41.571Z" transform="translate(-50.798 -40.793)"/></g><g transform="translate(21.886 22.184)"><path class="j" d="M55.56,41.571h-1.2c-.215,0-.391-.069-.392-.154l-.011-.472c0-.084.169-.151.382-.151h1.189c.212,0,.388.068.392.152l.024.472C55.946,41.5,55.775,41.571,55.56,41.571Z" transform="translate(-53.955 -40.793)"/></g><g transform="translate(24.405 22.184)"><path class="j" d="M58.732,41.571h-1.2c-.215,0-.393-.069-.4-.154l-.028-.472c0-.084.164-.152.376-.152h1.189c.213,0,.391.068.4.152l.041.472C59.115,41.5,58.947,41.571,58.732,41.571Z" transform="translate(-57.104 -40.793)"/></g><g transform="translate(26.924 22.184)"><path class="j" d="M61.9,41.571H60.7c-.215,0-.4-.069-.4-.154l-.045-.472c-.008-.084.158-.151.371-.151h1.189c.213,0,.393.068.4.152l.058.472C62.284,41.5,62.119,41.571,61.9,41.571Z" transform="translate(-60.253 -40.793)"/></g><g transform="translate(29.443 22.184)"><path class="j" d="M65.076,41.571h-1.2c-.215,0-.4-.069-.409-.154l-.061-.472c-.011-.084.153-.151.365-.151h1.189c.212,0,.4.068.409.152l.075.473C65.454,41.5,65.291,41.571,65.076,41.571Z" transform="translate(-63.402 -40.793)"/></g><g transform="translate(31.962 22.184)"><path class="j" d="M69.8,41.571H67.044c-.215,0-.4-.069-.414-.154l-.079-.473c-.014-.084.147-.151.36-.151H69.64c.213,0,.4.068.417.151l.1.473C70.178,41.5,70.019,41.571,69.8,41.571Z" transform="translate(-66.551 -40.793)"/></g><g transform="translate(3.91 23.168)"><path class="j" d="M34.643,42.824h-2.8c-.218,0-.378-.071-.358-.159l.112-.486c.02-.086.211-.156.426-.156h2.767c.216,0,.378.07.362.156l-.087.486C35.051,42.753,34.861,42.824,34.643,42.824Z" transform="translate(-31.485 -42.024)"/></g><g transform="translate(8.058 23.168)"><path class="j" d="M38.259,42.824h-1.22c-.218,0-.382-.071-.367-.159l.083-.486c.015-.086.2-.156.417-.156h1.206c.216,0,.38.07.368.156l-.07.486C38.664,42.753,38.477,42.824,38.259,42.824Z" transform="translate(-36.67 -42.024)"/></g><g transform="translate(10.631 23.168)"><path class="j" d="M41.48,42.824H40.26c-.218,0-.385-.071-.373-.159l.066-.486c.012-.086.2-.156.411-.156h1.206c.216,0,.383.07.373.156l-.052.486C41.882,42.753,41.7,42.824,41.48,42.824Z" transform="translate(-39.886 -42.024)"/></g><g transform="translate(13.203 23.168)"><path class="j" d="M44.7,42.824h-1.22c-.218,0-.388-.071-.379-.158l.049-.486c.009-.086.19-.156.406-.156h1.206c.216,0,.385.07.379.156l-.035.486C45.1,42.753,44.919,42.824,44.7,42.824Z" transform="translate(-43.102 -42.024)"/></g><g transform="translate(15.776 23.168)"><path class="j" d="M47.922,42.824H46.7c-.218,0-.39-.071-.385-.158l.031-.486c.006-.086.185-.156.4-.156h1.206c.215,0,.388.07.385.156l-.017.486C48.32,42.753,48.14,42.824,47.922,42.824Z" transform="translate(-46.318 -42.024)"/></g><g transform="translate(18.348 23.168)"><path class="j" d="M51.144,42.824h-1.22c-.218,0-.393-.071-.39-.158l.013-.486c0-.086.179-.156.395-.156h1.206c.216,0,.39.07.39.156v.486C51.538,42.753,51.362,42.824,51.144,42.824Z" transform="translate(-49.533 -42.024)"/></g><g transform="translate(20.917 23.168)"><path class="j" d="M54.364,42.824h-1.22c-.218,0-.4-.071-.4-.159l0-.486c0-.086.174-.156.389-.156h1.206c.216,0,.393.07.4.156l.017.486C54.756,42.753,54.582,42.824,54.364,42.824Z" transform="translate(-52.744 -42.024)"/></g><g transform="translate(23.472 23.168)"><path class="j" d="M57.581,42.824h-1.22c-.218,0-.4-.071-.4-.159l-.022-.486c0-.086.168-.156.384-.156h1.206c.216,0,.4.07.4.156l.035.486C57.97,42.753,57.8,42.824,57.581,42.824Z" transform="translate(-55.938 -42.024)"/></g><g transform="translate(26.027 23.168)"><path class="j" d="M60.8,42.824h-1.22c-.218,0-.4-.071-.408-.159l-.039-.486c-.007-.086.162-.156.378-.156h1.206c.216,0,.4.069.407.156l.053.486C61.185,42.753,61.015,42.824,60.8,42.824Z" transform="translate(-59.131 -42.024)"/></g><g transform="translate(28.581 23.169)"><path class="j" d="M64.014,42.824h-1.22c-.218,0-.4-.071-.413-.159l-.056-.486c-.01-.086.156-.156.372-.156H63.9c.216,0,.4.07.413.156l.07.486C64.4,42.753,64.232,42.824,64.014,42.824Z" transform="translate(-62.325 -42.024)"/></g><g transform="translate(31.136 23.169)"><path class="j" d="M67.231,42.824h-1.22c-.218,0-.406-.071-.419-.159l-.074-.486c-.013-.086.151-.156.366-.156h1.206c.216,0,.4.07.418.156l.087.486C67.613,42.753,67.449,42.824,67.231,42.824Z" transform="translate(-65.518 -42.024)"/></g><g transform="translate(33.69 23.169)"><path class="j" d="M70.448,42.824h-1.22c-.218,0-.408-.071-.425-.159l-.091-.486c-.016-.086.146-.156.361-.156h1.206c.216,0,.405.07.424.156l.1.486C70.827,42.753,70.666,42.824,70.448,42.824Z" transform="translate(-68.711 -42.024)"/></g><g transform="translate(3.673 24.181)"><path class="j" d="M35.63,44.114H31.553c-.221,0-.384-.073-.363-.163l.115-.5c.02-.089.214-.16.433-.16h4.03c.219,0,.384.072.37.16l-.081.5C36.042,44.04,35.851,44.114,35.63,44.114Z" transform="translate(-31.189 -43.29)"/></g><g transform="translate(9.116 24.181)"><path class="j" d="M39.606,44.114H38.368c-.221,0-.389-.073-.375-.163l.077-.5c.014-.089.2-.16.421-.16h1.223c.219,0,.387.072.376.16l-.063.5C40.016,44.04,39.827,44.114,39.606,44.114Z" transform="translate(-37.993 -43.29)"/></g><g transform="translate(11.726 24.181)"><path class="j" d="M42.874,44.114H41.636c-.221,0-.392-.073-.381-.163l.059-.5c.011-.089.2-.16.415-.16h1.223c.219,0,.389.072.381.16l-.045.5C43.281,44.04,43.095,44.114,42.874,44.114Z" transform="translate(-41.255 -43.29)"/></g><g transform="translate(14.335 24.181)"><path class="j" d="M46.142,44.114H44.9c-.221,0-.394-.073-.387-.163l.041-.5c.008-.089.191-.16.409-.16h1.224c.219,0,.392.072.387.16l-.027.5C46.546,44.04,46.363,44.114,46.142,44.114Z" transform="translate(-44.517 -43.29)"/></g><g transform="translate(16.945 24.181)"><path class="j" d="M49.409,44.114H48.172c-.221,0-.4-.073-.393-.163l.023-.5c0-.089.185-.16.4-.16h1.224c.219,0,.394.072.393.16l-.009.5C49.811,44.04,49.631,44.114,49.409,44.114Z" transform="translate(-47.779 -43.29)"/></g><g transform="translate(19.555 24.181)"><path class="j" d="M52.677,44.114H51.44c-.221,0-.4-.073-.4-.163l.005-.5c0-.089.179-.16.4-.16h1.223c.219,0,.4.072.4.16l.009.5C53.076,44.041,52.9,44.114,52.677,44.114Z" transform="translate(-51.041 -43.29)"/></g><g transform="translate(22.151 24.182)"><path class="j" d="M55.942,44.114H54.7c-.221,0-.4-.073-.4-.163l-.012-.5c0-.088.173-.16.392-.16H55.9c.219,0,.4.072.4.16l.027.5C56.338,44.041,56.163,44.114,55.942,44.114Z" transform="translate(-54.287 -43.29)"/></g><g transform="translate(24.743 24.182)"><path class="j" d="M59.2,44.114H57.967c-.221,0-.4-.073-.41-.163l-.031-.5c-.006-.088.167-.16.386-.16h1.224c.219,0,.4.072.41.16l.044.5C59.6,44.041,59.426,44.114,59.2,44.114Z" transform="translate(-57.527 -43.29)"/></g><g transform="translate(27.334 24.182)"><path class="j" d="M62.468,44.114H61.231c-.221,0-.408-.073-.416-.163l-.048-.5c-.009-.088.162-.16.38-.16H62.37c.219,0,.4.072.416.16l.062.5C62.859,44.041,62.689,44.114,62.468,44.114Z" transform="translate(-60.766 -43.29)"/></g><g transform="translate(29.926 24.182)"><path class="j" d="M65.732,44.114H64.494c-.221,0-.41-.073-.422-.163l-.066-.5c-.012-.088.156-.16.374-.16H65.6c.219,0,.407.072.422.16l.081.5C66.12,44.041,65.952,44.114,65.732,44.114Z" transform="translate(-64.005 -43.29)"/></g><g transform="translate(32.516 24.182)"><path class="j" d="M70.367,44.114h-2.61c-.221,0-.413-.073-.428-.163l-.085-.5c-.015-.089.15-.16.369-.16h2.581c.219,0,.411.072.431.16l.108.5C70.752,44.041,70.588,44.114,70.367,44.114Z" transform="translate(-67.243 -43.29)"/></g><g transform="translate(3.429 25.223)"><path class="j" d="M32.509,45.441H31.253c-.224,0-.389-.075-.368-.168L31,44.758c.021-.091.218-.165.439-.165h1.241c.222,0,.387.074.368.165l-.1.515C32.93,45.365,32.733,45.441,32.509,45.441Z" transform="translate(-30.884 -44.593)"/></g><g transform="translate(6.077 25.224)"><path class="j" d="M35.825,45.441H34.569c-.224,0-.392-.075-.374-.168l.1-.515c.018-.091.212-.165.434-.165H35.97c.222,0,.389.074.374.165l-.085.515C36.243,45.365,36.049,45.441,35.825,45.441Z" transform="translate(-34.194 -44.593)"/></g><g transform="translate(8.725 25.224)"><path class="j" d="M39.14,45.441H37.885c-.224,0-.394-.075-.38-.168l.081-.515c.014-.091.206-.165.428-.165h1.241c.222,0,.392.074.38.165l-.067.515C39.556,45.365,39.365,45.441,39.14,45.441Z" transform="translate(-37.504 -44.593)"/></g><g transform="translate(11.367 25.224)"><path class="j" d="M52.167,45.441h-11.1c-.152,0-.269-.051-.261-.114l.076-.622c.008-.061.135-.111.286-.111H52.139c.151,0,.274.05.276.112l.023.622C52.44,45.39,52.318,45.441,52.167,45.441Z" transform="translate(-40.806 -44.593)"/></g><g transform="translate(23.558 25.224)"><path class="j" d="M57.737,45.441H56.481c-.224,0-.41-.076-.414-.168l-.022-.515c0-.091.173-.165.394-.165h1.241c.222,0,.407.074.413.165l.037.515C58.138,45.365,57.961,45.441,57.737,45.441Z" transform="translate(-56.045 -44.593)"/></g><g transform="translate(26.187 25.224)"><path class="j" d="M61.048,45.441H59.792c-.224,0-.412-.076-.42-.168l-.041-.515c-.007-.091.167-.165.388-.165h1.241c.222,0,.41.074.419.165l.056.515C61.446,45.365,61.272,45.441,61.048,45.441Z" transform="translate(-59.331 -44.593)"/></g><g transform="translate(28.852 25.645)"><path class="j" d="M64.653,45.547H62.828c-.067,0-.124-.023-.127-.05l-.038-.326c0-.028.048-.05.115-.05h1.815c.067,0,.124.022.128.05l.047.326C64.771,45.524,64.72,45.547,64.653,45.547Z" transform="translate(-62.662 -45.12)"/></g><g transform="translate(31.444 25.224)"><path class="j" d="M67.67,45.441H66.414c-.224,0-.418-.075-.432-.168l-.078-.515c-.014-.091.155-.165.377-.165h1.241c.222,0,.415.074.431.165l.093.515C68.063,45.366,67.894,45.441,67.67,45.441Z" transform="translate(-65.904 -44.593)"/></g><g transform="translate(34.132 25.645)"><path class="j" d="M71.28,45.547H69.455c-.067,0-.126-.023-.131-.05l-.061-.326c-.005-.027.045-.05.111-.05h1.815c.067,0,.126.022.131.05l.07.326C71.4,45.524,71.347,45.547,71.28,45.547Z" transform="translate(-69.263 -45.12)"/></g><g transform="translate(2.534 0)"><path class="k" d="M63.593,13.063H30.71a.944.944,0,0,0-.944.944V33.084a.944.944,0,0,0,.944.944H63.593a.945.945,0,0,0,.945-.944V14.008A.945.945,0,0,0,63.593,13.063Z" transform="translate(-29.765 -13.063)"/></g><g transform="translate(4.339 1.67)"><path class="l" d="M62.64,15.151H32.565a.543.543,0,0,0-.543.543V32.233a.543.543,0,0,0,.543.543H62.64a.543.543,0,0,0,.543-.543V15.694A.543.543,0,0,0,62.64,15.151Z" transform="translate(-32.022 -15.151)"/><g class="m" transform="translate(0 0)"><path class="n" d="M51.607,32.776h-9.39L56.186,15.151H64.68a.543.543,0,0,1,.536.455Z" transform="translate(-34.061 -15.151)"/><path class="n" d="M62.512,33.267H55.456L67.87,17.6v8.9Z" transform="translate(-36.709 -15.641)"/></g></g><g transform="translate(19.642 0.544)"><path class="o" d="M51.429,14.257A.258.258,0,1,1,51.706,14,.268.268,0,0,1,51.429,14.257Z" transform="translate(-51.151 -13.743)"/></g><g transform="translate(7.997 20.897)"><path class="j" d="M60.335,39.489H36.594l.054-.3H60.285Z" transform="translate(-36.594 -39.185)"/></g><g transform="translate(2.651 20.922)"><path class="p" d="M65.141,41.86H63l-.052-.242c-.019-.086-.208-.156-.424-.156H61.313c-.216,0-.377.07-.361.156L61,41.86h-.566l-.044-.242c-.015-.086-.2-.156-.418-.156H58.764c-.216,0-.38.07-.366.156l.037.242h-.566l-.035-.242c-.012-.086-.2-.156-.413-.156H56.215c-.216,0-.382.069-.372.156l.028.242H55.3l-.026-.242c-.009-.086-.192-.156-.407-.156H53.665c-.215,0-.385.07-.378.156l.019.242h-.566l-.018-.242c-.006-.086-.186-.156-.4-.156H51.116c-.216,0-.387.07-.384.156l.011.243h-.566l-.009-.243c0-.086-.18-.156-.4-.156H48.566c-.215,0-.389.07-.389.156l0,.243h-.566v-.243c0-.086-.175-.156-.39-.156H46.017c-.216,0-.392.07-.395.156l-.007.243H45.05l.009-.243c0-.086-.169-.156-.385-.156H43.468c-.215,0-.394.07-.4.156l-.015.242h-.566l.017-.242c.006-.086-.164-.156-.379-.156H40.919c-.216,0-.4.07-.406.156l-.024.242h-.566l.026-.242c.009-.086-.158-.156-.373-.156H38.369c-.216,0-.4.07-.411.156l-.033.242h-.566l.035-.242c.012-.086-.152-.156-.368-.156H35.82c-.216,0-.4.07-.417.156l-.042.242H34.8l.044-.242c.015-.086-.147-.156-.362-.156H31.71a.95.95,0,0,0-.192.019l-1.607-2.114a1.81,1.81,0,0,1,.543-.152.944.944,0,0,0,.285.044H35.3l-.042.232-.041.23H59.036L59,39.492l-.038-.233h4.663a.947.947,0,0,0,.25-.033c.381.063.67.2.711.37l.309,1.256Zm-5.557-1.383c-.212,0-.373.068-.36.151l.079.473c.014.085.2.154.414.154h2.759c.215,0,.374-.069.356-.154l-.1-.473c-.018-.084-.2-.151-.417-.151Zm-2.514,0c-.213,0-.376.068-.365.151l.061.472c.011.085.194.154.409.154h1.2c.215,0,.378-.069.365-.154l-.075-.473c-.013-.084-.2-.151-.409-.152Zm-2.514,0c-.213,0-.378.068-.371.151l.045.472c.008.085.189.154.4.154h1.2c.215,0,.381-.069.37-.154l-.058-.472c-.01-.084-.191-.152-.4-.152Zm-2.514,0c-.212,0-.381.068-.376.152l.028.472c0,.085.183.154.4.154h1.2c.215,0,.383-.069.376-.154l-.041-.472c-.007-.084-.185-.151-.4-.152Zm-2.514,0c-.213,0-.384.068-.382.151l.011.472c0,.085.177.154.392.154h1.2c.215,0,.386-.069.382-.154l-.024-.472c0-.084-.18-.152-.392-.152Zm-2.514,0c-.212,0-.386.068-.387.152l-.007.472c0,.085.172.154.387.154h1.2c.215,0,.388-.069.387-.154l-.007-.472c0-.084-.175-.151-.387-.151Zm-2.514,0c-.212,0-.388.068-.392.151l-.024.472c0,.085.167.154.381.154h1.2c.215,0,.39-.069.392-.154l.01-.472c0-.084-.169-.151-.382-.151Zm-2.514,0c-.213,0-.391.068-.4.151l-.04.472c-.007.085.161.154.376.154h1.2c.215,0,.393-.069.4-.154l.027-.472c0-.084-.163-.151-.376-.152Zm-2.514,0c-.212,0-.393.068-.4.151l-.058.472c-.01.085.155.154.37.154h1.2c.215,0,.4-.069.4-.154l.044-.472c.008-.084-.158-.152-.371-.152Zm-2.514,0c-.213,0-.4.068-.409.151l-.075.473c-.013.085.15.154.365.154h1.2c.215,0,.4-.069.409-.154l.061-.472c.011-.084-.153-.151-.365-.151h-1.19Zm-2.514,0c-.213,0-.4.068-.414.152l-.092.473c-.017.085.144.154.359.154h1.2c.215,0,.4-.069.415-.154l.078-.473c.014-.084-.147-.152-.36-.152Zm-2.514,0c-.213,0-.4.068-.42.151L31.4,41.1c-.02.085.139.154.354.154h1.2c.215,0,.4-.069.42-.154l.1-.473c.017-.084-.142-.151-.354-.151Z" transform="translate(-29.911 -39.216)"/></g><g transform="translate(4.14 22.183)"><path class="q" d="M33.331,41.571h-1.2c-.215,0-.373-.069-.354-.154l.109-.473c.019-.084.207-.151.42-.151h1.189c.212,0,.371.068.354.151l-.1.473C33.734,41.5,33.546,41.571,33.331,41.571Z" transform="translate(-31.773 -40.793)"/></g><g transform="translate(6.677 22.183)"><path class="q" d="M36.507,41.571H35.3c-.215,0-.376-.069-.359-.154l.092-.473c.016-.084.2-.152.414-.152H36.64c.213,0,.374.068.36.152l-.078.473C36.908,41.5,36.722,41.571,36.507,41.571Z" transform="translate(-34.944 -40.793)"/></g><g transform="translate(9.214 22.183)"><path class="q" d="M39.683,41.571h-1.2c-.215,0-.378-.069-.365-.154l.075-.473c.013-.084.2-.151.409-.151h1.19c.213,0,.376.068.365.151l-.061.472C40.081,41.5,39.9,41.571,39.683,41.571Z" transform="translate(-38.115 -40.793)"/></g><g transform="translate(11.75 22.183)"><path class="q" d="M42.859,41.571h-1.2c-.215,0-.381-.069-.37-.154l.058-.472c.01-.084.191-.151.4-.151h1.189c.213,0,.379.068.371.152l-.044.472C43.255,41.5,43.074,41.571,42.859,41.571Z" transform="translate(-41.286 -40.793)"/></g><g transform="translate(14.287 22.183)"><path class="q" d="M46.035,41.571h-1.2c-.215,0-.383-.069-.376-.154l.04-.472c.007-.084.185-.151.4-.151h1.189c.213,0,.381.068.376.152l-.027.472C46.428,41.5,46.25,41.571,46.035,41.571Z" transform="translate(-44.456 -40.793)"/></g><g transform="translate(16.823 22.184)"><path class="q" d="M49.211,41.571h-1.2c-.215,0-.386-.069-.381-.154l.024-.472c0-.084.18-.151.392-.151h1.189c.213,0,.384.068.382.151l-.01.472C49.6,41.5,49.426,41.571,49.211,41.571Z" transform="translate(-47.627 -40.793)"/></g><g transform="translate(19.36 22.184)"><path class="q" d="M52.387,41.571h-1.2c-.215,0-.388-.069-.387-.154l.007-.472c0-.084.175-.152.387-.152H52.38c.213,0,.386.068.387.151l.007.472C52.775,41.5,52.6,41.571,52.387,41.571Z" transform="translate(-50.798 -40.793)"/></g><g transform="translate(21.886 22.184)"><path class="q" d="M55.56,41.571h-1.2c-.215,0-.391-.069-.392-.154l-.011-.472c0-.084.169-.151.382-.151h1.189c.212,0,.388.068.392.152l.024.472C55.946,41.5,55.775,41.571,55.56,41.571Z" transform="translate(-53.955 -40.793)"/></g><g transform="translate(24.405 22.184)"><path class="q" d="M58.732,41.571h-1.2c-.215,0-.393-.069-.4-.154l-.028-.472c0-.084.164-.152.376-.152h1.189c.213,0,.391.068.4.152l.041.472C59.115,41.5,58.947,41.571,58.732,41.571Z" transform="translate(-57.104 -40.793)"/></g><g transform="translate(26.924 22.184)"><path class="q" d="M61.9,41.571H60.7c-.215,0-.4-.069-.4-.154l-.045-.472c-.008-.084.158-.151.371-.151h1.189c.213,0,.393.068.4.152l.058.472C62.284,41.5,62.119,41.571,61.9,41.571Z" transform="translate(-60.253 -40.793)"/></g><g transform="translate(29.443 22.184)"><path class="q" d="M65.076,41.571h-1.2c-.215,0-.4-.069-.409-.154l-.061-.472c-.011-.084.153-.151.365-.151h1.189c.212,0,.4.068.409.152l.075.473C65.454,41.5,65.291,41.571,65.076,41.571Z" transform="translate(-63.402 -40.793)"/></g><g transform="translate(31.962 22.184)"><path class="q" d="M69.8,41.571H67.044c-.215,0-.4-.069-.414-.154l-.079-.473c-.014-.084.147-.151.36-.151H69.64c.213,0,.4.068.417.151l.1.473C70.178,41.5,70.019,41.571,69.8,41.571Z" transform="translate(-66.551 -40.793)"/></g><g transform="translate(4.257 23.168)"><path class="q" d="M35.2,42.422h-1.9a2.46,2.46,0,0,1-1.2-.151l-.173-.228a.95.95,0,0,1,.192-.019h2.767c.216,0,.378.07.362.156Z" transform="translate(-31.92 -42.024)"/></g><g transform="translate(8.101 23.168)"><path class="q" d="M38.722,42.422h-2l.042-.242c.015-.086.2-.156.417-.156h1.206c.216,0,.38.07.368.156Z" transform="translate(-36.724 -42.024)"/></g><g transform="translate(10.664 23.168)"><path class="q" d="M41.926,42.422h-2l.033-.242c.012-.086.2-.156.411-.156h1.206c.216,0,.383.07.373.156Z" transform="translate(-39.928 -42.024)"/></g><g transform="translate(13.228 23.168)"><path class="q" d="M45.131,42.422h-2l.024-.242c.009-.086.19-.156.406-.156h1.206c.216,0,.385.07.379.156Z" transform="translate(-43.133 -42.024)"/></g><g transform="translate(15.792 23.168)"><path class="q" d="M48.336,42.422h-2l.015-.242c.006-.086.185-.156.4-.156H47.96c.215,0,.388.07.385.156Z" transform="translate(-46.338 -42.024)"/></g><g transform="translate(18.355 23.168)"><path class="q" d="M51.54,42.422h-2l.007-.243c0-.086.179-.156.395-.156H51.15c.216,0,.39.07.39.156Z" transform="translate(-49.542 -42.024)"/></g><g transform="translate(20.917 23.168)"><path class="q" d="M54.744,42.422h-2l0-.243c0-.086.174-.156.389-.156h1.206c.216,0,.393.07.4.156Z" transform="translate(-52.744 -42.024)"/></g><g transform="translate(23.472 23.168)"><path class="q" d="M57.946,42.422h-2l-.011-.243c0-.086.168-.156.384-.156h1.206c.216,0,.4.07.4.156Z" transform="translate(-55.938 -42.024)"/></g><g transform="translate(26.027 23.168)"><path class="q" d="M61.149,42.422h-2l-.019-.242c-.007-.086.162-.156.378-.156h1.206c.216,0,.4.069.407.156Z" transform="translate(-59.131 -42.024)"/></g><g transform="translate(28.581 23.169)"><path class="q" d="M64.351,42.422h-2l-.028-.242c-.01-.086.156-.156.372-.156H63.9c.216,0,.4.07.413.156Z" transform="translate(-62.325 -42.024)"/></g><g transform="translate(31.136 23.169)"><path class="q" d="M67.553,42.422h-2l-.037-.242c-.013-.086.151-.156.366-.156h1.206c.216,0,.4.07.418.156Z" transform="translate(-65.518 -42.024)"/></g><g transform="translate(33.69 23.169)"><path class="q" d="M70.756,42.422h-2l-.046-.242c-.016-.086.146-.156.361-.156h1.206c.216,0,.405.07.424.156Z" transform="translate(-68.711 -42.024)"/></g><g transform="translate(3.153 20.897)"><path class="r" d="M63.748,39.253H59.085l-.011-.068h4.491a3.6,3.6,0,0,1,.45.03l-.017,0A.947.947,0,0,1,63.748,39.253Zm-28.322,0H30.865a.944.944,0,0,1-.285-.044l-.04-.014c.086-.007.171-.011.247-.011h4.651Z" transform="translate(-30.54 -39.185)"/></g><g transform="translate(7.998 20.897)"><path class="q" d="M60.334,39.486H36.595l.042-.232.012-.068H60.285l.011.068Z" transform="translate(-36.595 -39.185)"/></g><g transform="translate(7.956 21.198)"><path class="s" d="M60.362,39.791H36.543l.041-.23v0H60.325v0Z" transform="translate(-36.543 -39.561)"/></g><g transform="translate(7.997 21.198)"><path class="q" d="M60.335,39.564H36.594v0h23.74Z" transform="translate(-36.594 -39.561)"/></g></g></g></g></g></svg>