<svg xmlns="http://www.w3.org/2000/svg" xmlns:xlink="http://www.w3.org/1999/xlink" width="65" height="65" viewBox="0 0 65 65"><defs><style>.a{fill:#fff;stroke:#707070;}.b{fill:#f1f1f1;}.c{clip-path:url(#a);}.d{fill:#0eb4c8;}.e{fill:#1f5884;}.f{fill:#00a2e9;}.g{fill:#6990c2;}.h{fill:#979797;}</style><clipPath id="a"><rect class="a" width="53" height="38" transform="translate(523 12141)"/></clipPath></defs><g transform="translate(-517 -12126)"><g transform="translate(423 3691)"><circle class="b" cx="32.5" cy="32.5" r="32.5" transform="translate(94 8435)"/></g><g class="c"><g transform="translate(524.949 11924.123)"><path class="d" d="M15.336,233.663a9.821,9.821,0,0,0,3.385-3.854,12.036,12.036,0,0,0-3.385-.572Z"/><path class="d" d="M18.721,220.9a9.794,9.794,0,0,0-3.385-3.853v4.424A12.057,12.057,0,0,0,18.721,220.9Z"/><path class="d" d="M10.188,225.69a9.852,9.852,0,0,0,.764,3.514,12.725,12.725,0,0,1,3.707-.644v-2.87Z"/><path class="d" d="M15.336,228.56a12.747,12.747,0,0,1,3.662.628,10.139,10.139,0,0,0,.731-3.5H15.336Z"/><path class="d" d="M14.659,222.143a12.706,12.706,0,0,1-3.731-.652,10.1,10.1,0,0,0-.74,3.523h4.471Z"/><path class="d" d="M11.238,229.82a10.044,10.044,0,0,0,3.421,3.828v-4.411A12.016,12.016,0,0,0,11.238,229.82Z"/><path class="d" d="M14.659,216.992a9.791,9.791,0,0,0-3.452,3.882,12.047,12.047,0,0,0,3.452.594Z"/><path class="d" d="M15.336,225.014h4.393a10.143,10.143,0,0,0-.731-3.5,12.7,12.7,0,0,1-3.662.627Z"/><path class="d" d="M19.366,220.672a11.512,11.512,0,0,0,2.014-1.031,8.56,8.56,0,0,0-5.113-2.763A10.439,10.439,0,0,1,19.366,220.672Z"/><path class="d" d="M10.591,230.049a11.311,11.311,0,0,0-1.976,1.015,8.561,8.561,0,0,0,5.134,2.767A10.688,10.688,0,0,1,10.591,230.049Z"/><path class="d" d="M10.288,221.262a11.911,11.911,0,0,1-2.106-1.1,8.517,8.517,0,0,0-1.747,4.849H9.51A10.833,10.833,0,0,1,10.288,221.262Z"/><path class="d" d="M19.639,229.413a11.987,11.987,0,0,1,2.174,1.126,8.529,8.529,0,0,0,1.745-4.849H20.407A10.846,10.846,0,0,1,19.639,229.413Z"/><path class="d" d="M16.268,233.826a8.55,8.55,0,0,0,5.111-2.762,11.473,11.473,0,0,0-2.014-1.033A10.43,10.43,0,0,1,16.268,233.826Z"/><path class="d" d="M9.51,225.69H6.435a8.518,8.518,0,0,0,1.747,4.849,12.17,12.17,0,0,1,2.129-1.108A10.522,10.522,0,0,1,9.51,225.69Z"/><path class="d" d="M13.624,216.894a8.563,8.563,0,0,0-5.009,2.747,11.452,11.452,0,0,0,1.948,1A10.43,10.43,0,0,1,13.624,216.894Z"/><path class="d" d="M20.407,225.014h3.152a8.524,8.524,0,0,0-1.745-4.849,12.066,12.066,0,0,1-2.174,1.125A10.865,10.865,0,0,1,20.407,225.014Z"/><path class="e" d="M37.352,230.215a5.258,5.258,0,0,0-1.409.2,8.832,8.832,0,1,0-17.356-3.281,4.139,4.139,0,0,0-6.063,5.5,4.2,4.2,0,1,0-1.247,8.215H36.8v-.03a5.237,5.237,0,0,0,.556.03,5.314,5.314,0,1,0,0-10.627Z"/><path class="f" d="M37.352,230.215a5.258,5.258,0,0,0-1.409.2,8.837,8.837,0,0,0-8.663-10.577,8.78,8.78,0,0,0-1.607.147v20.862H36.8v-.03a5.237,5.237,0,0,0,.556.03,5.314,5.314,0,1,0,0-10.627Z"/><rect class="g" width="2.266" height="8.065" transform="translate(30.398 234.493)"/><path class="g" d="M31.531,229.024a27.369,27.369,0,0,0,4.31,7.746l-4.31-1.558-4.309,1.558A27.352,27.352,0,0,0,31.531,229.024Z"/><rect class="g" width="2.266" height="8.065" transform="translate(19.986 236.823)"/><path class="g" d="M21.119,250.357a27.387,27.387,0,0,0-4.31-7.746l4.31,1.558,4.309-1.558A27.352,27.352,0,0,0,21.119,250.357Z"/><path class="h" d="M39.568,254.877H11.778v-4.788h1.7v3.089H37.869v-3.089h1.7Z"/></g></g></g></svg>