<svg xmlns="http://www.w3.org/2000/svg" width="55" height="55" viewBox="0 0 55 55"><defs><style>.a{fill:#3856d5;}.b{fill:#fff;}</style></defs><g transform="translate(-143 -4927)"><g transform="translate(69 4153)"><circle class="a" cx="27.5" cy="27.5" r="27.5" transform="translate(74 774)"/></g><path class="b" d="M11.981.563A11.419,11.419,0,1,0,23.4,11.981,11.417,11.417,0,0,0,11.981.563Zm2.629,16.12-4.061-2.951a.556.556,0,0,1-.226-.447V5.535a.554.554,0,0,1,.553-.553h2.21a.554.554,0,0,1,.553.553v6.34L16.562,14a.552.552,0,0,1,.12.774l-1.3,1.786A.556.556,0,0,1,14.61,16.682Z" transform="translate(158.438 4942.438)"/></g></svg>