<svg xmlns="http://www.w3.org/2000/svg" width="48.893" height="10.449" viewBox="0 0 48.893 10.449"><defs><style>.a{fill:#ae2e00;}</style></defs><g transform="translate(0 0)"><path class="a" d="M168.748-3022.875a3.263,3.263,0,0,0-1.893-.551,3.428,3.428,0,0,0-3.421,3.613,3.41,3.41,0,0,0,3.421,3.632,3.332,3.332,0,0,0,1.893-.541v.33H170.9v-7.005h-2.155Zm-26.315,2.056c-.894-.165-1.73-.24-1.73-.734,0-.442.423-.677.974-.677.619,0,1.082.165,1.129.856h2.062c-.11-1.393-1.182-2.258-3.176-2.258-1.664,0-3.133.7-3.133,2.183,0,1.646,1.4,1.976,2.624,2.178.935.165,1.788.235,1.788.865,0,.457-.426.7-1.1.7-.742,0-1.22-.2-1.256-.847h-2.191c.047,1.557,1.4,2.305,3.46,2.305,1.842,0,3.2-.8,3.2-2.338C145.088-3020.189,143.671-3020.613,142.433-3020.819Zm13.065-2.748h-.088a3.579,3.579,0,0,0-3.561,3.562c0,.028,0,.056,0,.089s0,.066,0,.1a3.567,3.567,0,0,0,3.55,3.547h.086a3.489,3.489,0,0,0,3.474-2.277h-2.192a1.575,1.575,0,0,1-1.281.522,1.526,1.526,0,0,1-1.481-1.331h5.046v-.565A3.49,3.49,0,0,0,155.5-3023.567Zm-20.878,0h-.087a3.579,3.579,0,0,0-3.561,3.562c0,.028,0,.056,0,.089s0,.066,0,.1a3.567,3.567,0,0,0,3.55,3.547h.086a3.489,3.489,0,0,0,3.474-2.277h-2.192a1.575,1.575,0,0,1-1.281.522,1.526,1.526,0,0,1-1.481-1.331h5.046v-.565a3.491,3.491,0,0,0-3.554-3.646Zm-8.988-1.985H122.01v9.16h3.623c3.021,0,5.017-1.858,5.017-4.582S128.653-3025.552,125.633-3025.552Zm34.091,4.8v4.22h2.155v-3.646c0-1.171.173-1.6,1.179-1.6h.033v-1.769C160.383-3023.548,159.724-3022.179,159.724-3020.749Zm-6.945-2.785h-2.773l-2.27,2.432-.006-5.528h-2.285v10.1h2.29l.007-2.527,2.333,2.527h2.934l-3.38-3.67Zm15.745,4.484a1.568,1.568,0,0,1-1.466.88.346.346,0,0,1-.067,0,1.62,1.62,0,0,1-1.611-1.614c0-.019,0-.042,0-.061v-.014c0-.019,0-.037,0-.061a1.665,1.665,0,0,1,1.658-1.656h.009a1.619,1.619,0,0,1,1.537.974,1.71,1.71,0,0,1,.151.772,1.9,1.9,0,0,1-.21.776Zm-42.938.635H124.3v-5.25h1.287a2.572,2.572,0,0,1,2.832,2.625A2.572,2.572,0,0,1,125.586-3018.416Zm28.554-2.286a1.5,1.5,0,0,1,1.443-1.077,1.372,1.372,0,0,1,1.375,1.077Zm-20.983,0a1.5,1.5,0,0,1,1.442-1.077,1.372,1.372,0,0,1,1.375,1.077Z" transform="translate(-122.01 3026.629)"/></g></svg>