<svg xmlns="http://www.w3.org/2000/svg" width="65" height="65" viewBox="0 0 65 65"><defs><style>.a{fill:#ff8040;}.b,.d{fill:none;stroke:#fff;stroke-width:1.5px;}.b,.c{fill-rule:evenodd;}.c{fill:#fff;}</style></defs><g transform="translate(-1114 -4734)"><g transform="translate(1020 -3701)"><circle class="a" cx="32.5" cy="32.5" r="32.5" transform="translate(94 8435)"/></g><g transform="translate(1133 4752)"><g transform="translate(0 0)"><g transform="translate(0 0)"><g transform="translate(0 3.333)"><path class="b" d="M27.3,3.833a2.5,2.5,0,0,0-2.5-2.5H3.164a2.5,2.5,0,0,0-2.5,2.5V25.5a2.5,2.5,0,0,0,2.5,2.5H24.8a2.5,2.5,0,0,0,2.5-2.5Z" transform="translate(-0.667 -1.333)"/></g><g transform="translate(5.255 12.647)"><g transform="translate(0 0)"><path class="c" d="M5.107,5.472a1.25,1.25,0,0,0-1.248-1.25H3.026a1.25,1.25,0,0,0-1.248,1.25v.833a1.25,1.25,0,0,0,1.248,1.25h.832a1.25,1.25,0,0,0,1.248-1.25Z" transform="translate(-1.778 -4.222)"/></g><g transform="translate(6.397 0)"><path class="c" d="M5.107,5.472a1.25,1.25,0,0,0-1.248-1.25H3.026a1.25,1.25,0,0,0-1.248,1.25v.833a1.25,1.25,0,0,0,1.248,1.25h.832a1.25,1.25,0,0,0,1.248-1.25Z" transform="translate(-1.778 -4.222)"/></g><g transform="translate(12.794 0)"><path class="c" d="M5.107,5.472a1.25,1.25,0,0,0-1.248-1.25H3.026a1.25,1.25,0,0,0-1.248,1.25v.833a1.25,1.25,0,0,0,1.248,1.25h.832a1.25,1.25,0,0,0,1.248-1.25Z" transform="translate(-1.778 -4.222)"/></g></g><g transform="translate(0 3.333)"><path class="d" d="M.667,3A1.666,1.666,0,0,1,2.331,1.333h23.3A1.666,1.666,0,0,1,27.3,3V8H.667Z" transform="translate(-0.667 -1.333)"/></g><g transform="translate(3.329)"><path class="c" d="M5.329,1.667A1.665,1.665,0,1,0,2,1.667V5A1.665,1.665,0,1,0,5.329,5Z" transform="translate(-2)"/></g><g transform="translate(19.975)"><path class="c" d="M12,1.667a1.665,1.665,0,1,0-3.329,0V5A1.665,1.665,0,1,0,12,5Z" transform="translate(-8.667)"/></g></g></g></g></g></svg>