<svg xmlns="http://www.w3.org/2000/svg" width="55" height="55" viewBox="0 0 55 55"><defs><style>.a{fill:#1ea4a5;}.b{fill:none;stroke:#fff;stroke-linecap:round;stroke-linejoin:round;stroke-width:3px;}</style></defs><g transform="translate(-536 -774)"><circle class="a" cx="27.5" cy="27.5" r="27.5" transform="translate(536 774)"/><g transform="translate(553.769 789.231)"><path class="b" d="M18.692,3H8.538A2.538,2.538,0,0,0,6,5.538V25.846a2.538,2.538,0,0,0,2.538,2.538H23.769a2.538,2.538,0,0,0,2.538-2.538V10.615Z" transform="translate(-6 -3)"/><path class="b" d="M21,3v7.615h7.615" transform="translate(-8.308 -3)"/><path class="b" d="M22.154,19.5H12" transform="translate(-6.923 -5.538)"/><path class="b" d="M22.154,25.5H12" transform="translate(-6.923 -6.462)"/><path class="b" d="M14.538,13.5H12" transform="translate(-6.923 -4.615)"/></g></g></svg>