<svg xmlns="http://www.w3.org/2000/svg" xmlns:xlink="http://www.w3.org/1999/xlink" width="65" height="65" viewBox="0 0 65 65"><defs><style>.a,.e{fill:#fff;}.a{stroke:#707070;}.b{fill:#f1f1f1;}.c{clip-path:url(#a);}.d{fill:#28b5ff;}</style><clipPath id="a"><rect class="a" width="46.55" height="38" transform="translate(1180 12139)"/></clipPath></defs><g transform="translate(-1172 -12126)"><g transform="translate(1078 3691)"><circle class="b" cx="32.5" cy="32.5" r="32.5" transform="translate(94 8435)"/></g><g class="c" transform="translate(1 -2)"><g transform="translate(1180 12143.693)"><g transform="translate(0 0)"><g transform="translate(0 0)"><path class="d" d="M86.991,63.743a7.437,7.437,0,0,0,7.473-7.123c0-.106,0-.212,0-.318a9.808,9.808,0,0,0-9.808-9.808c-.1,0-.19,0-.285.007v-.007a4.373,4.373,0,0,0-6.958-3.526,11.306,11.306,0,0,0-22.037,2.645,9.135,9.135,0,0,0,1.667,18.13Z" transform="translate(-47.918 -35.13)"/></g><g transform="translate(26.258 14.307)"><path class="e" d="M86.148,56.6l.005-.089Zm-.018.2.007-.063Zm-.029.218.006-.041Zm.055-.616v0Zm-.468,1.9.031-.064Zm.37-1.058,0-.014,0,.009Zm-.413,1.141-.068.124Zm-1.261.076a3.45,3.45,0,1,1-.543-4.849A3.45,3.45,0,0,1,84.386,58.464Zm-.292,1.614.061-.039Zm.141-.093.119-.086Zm-1.543.68.079-.019Zm-.235.048.1-.019Zm-.226.034.119-.016Zm-.223.022.142-.013Zm.944-.171.043-.012-.01,0Zm-1.18.181q.09,0,.181-.007Q81.856,60.776,81.77,60.778Zm-2.437-8.265-.023.015Zm.169-.1-.024.014Zm.184-.1-.024.013Zm.2-.094-.028.013Zm.214-.088-.03.011Zm-.971.513-.1.074Zm1.749-.73-.1.018Zm.271-.042c-.052.006-.105.013-.157.021Zm-.823.179-.017.006Zm5.83,4.157c0-.057,0-.114-.007-.172C86.153,56.095,86.156,56.151,86.157,56.211Zm-8.927-.175-.005.1Zm.015-.177-.006.059Zm.024-.2,0,.03Zm.038-.221,0,.019Zm-.084.772v0Zm.2-1.242,0,.008Zm.075-.221v0Zm.085-.211-.007.018Zm.094-.2-.024.052Zm.11-.207-.053.1Zm-.431,1.078,0,.015v-.007Zm8.754.468c.014.1.027.218.035.347a4.465,4.465,0,0,0-.46-1.7l1.153-1.308-2.267-2.062-1.15,1.245a4.457,4.457,0,0,0-2.227-.324,4.513,4.513,0,0,1,.7-.024l-.56-1.656-2.918.937.52,1.663.044-.034a4.489,4.489,0,0,0-1.154,1.308c.065-.111.128-.21.184-.292l-1.7-.4-.752,2.971,1.687.44c-.011-.108-.02-.237-.023-.379a4.467,4.467,0,0,0,1.169,2.926,4.524,4.524,0,0,1-.757-1.107L76.442,59.5l2.207,2.126,1.208-1.235a4.461,4.461,0,0,0,1.9.392c-.129,0-.245,0-.345-.007l.532,1.666,2.933-.887q-.246-.836-.492-1.672l0,0a4.465,4.465,0,0,0,.8-.781,4.547,4.547,0,0,0,.376-.552c-.033.058-.066.113-.1.161l1.716.338.639-3Z" transform="translate(-75.558 -50.189)"/></g><g transform="translate(9.773 6.696)"><path class="e" d="M73.752,49.28l-.04-.127Zm.084.3-.024-.092Zm.075.321-.013-.061ZM73.66,49q-.031-.087-.063-.172Q73.629,48.914,73.66,49Zm.355,2.924.01-.107Zm-.042-1.684,0-.02,0,.013ZM74,52.066c-.009.073-.019.143-.029.21C73.981,52.205,73.99,52.135,74,52.066Zm-1.732.777a5.185,5.185,0,1,1-3.342-6.526A5.185,5.185,0,0,1,72.267,52.843Zm.449,2.425.065-.088Zm.148-.206c.042-.06.083-.122.122-.184C72.949,54.935,72.908,55,72.864,55.061Zm-1.807,1.777.1-.068Zm-.305.192.13-.079Zm-.3.168.159-.086Zm-.3.15c.065-.03.129-.061.193-.093C70.276,57.287,70.212,57.318,70.149,57.348Zm1.236-.742.053-.04-.012.01Zm-1.563.883c.084-.034.167-.069.25-.106C69.986,57.421,69.9,57.456,69.822,57.489ZM62,47.169l-.024.033Zm.186-.231-.028.033Zm.206-.235-.028.031Zm.231-.238-.032.032Zm.255-.238-.035.032Zm-1.091,1.238c-.036.052-.072.1-.106.158C61.713,47.572,61.749,47.519,61.787,47.464Zm2.069-1.956-.126.076Zm.359-.2c-.071.037-.14.074-.21.114C64.076,45.377,64.145,45.341,64.215,45.3Zm-1.062.69-.02.017L63.149,46Zm10.405,2.741c-.032-.08-.065-.159-.1-.237C73.492,48.574,73.525,48.652,73.558,48.735Zm-12.64,4.5.047.147Zm-.074-.256.022.085Zm-.071-.289.01.044Zm-.064-.332.005.03ZM61,53.492c.024.069.049.138.076.206C61.053,53.633,61.028,53.563,61,53.492Zm-.375-1.855v0Zm-.011-.351v0Zm.007-.342v0Zm.024-.338-.008.086Zm.043-.349c-.008.055-.015.11-.022.165C60.675,50.366,60.683,50.312,60.691,50.258ZM60.659,52l0,.024,0-.011Zm12.553-4c.073.133.154.292.234.47a6.727,6.727,0,0,0-1.554-2.151l.925-2.451-4.283-1.693L67.58,44.54a6.71,6.71,0,0,0-3.3.73,6.794,6.794,0,0,1,.966-.4l-1.668-2.029-3.6,2.869,1.616,2.061.044-.071a6.738,6.738,0,0,0-.926,2.452c.032-.192.068-.364.1-.509l-2.605.339.524,4.576,2.6-.279c-.073-.146-.154-.322-.234-.521a6.71,6.71,0,0,0,3.2,3.491,6.759,6.759,0,0,1-1.651-1.154l-1,2.431,4.233,1.813,1.041-2.378A6.7,6.7,0,0,0,69.8,57.5c-.18.071-.346.129-.489.173l1.634,2.057L74.6,56.921l-1.581-2.089,0,.006a6.752,6.752,0,0,0,.948-2.5c-.016.1-.033.194-.05.278l2.591-.438-.7-4.552Z" transform="translate(-58.206 -42.178)"/></g></g></g></g></g></svg>