<svg xmlns="http://www.w3.org/2000/svg" width="65" height="65" viewBox="0 0 65 65"><defs><style>.a{fill:#b32844;}.b{fill:#fff;}</style></defs><g transform="translate(-519 -23730)"><g transform="translate(425 15295)"><circle class="a" cx="32.5" cy="32.5" r="32.5" transform="translate(94 8435)"/></g><g transform="translate(532 23750)"><g transform="translate(1.51 6.937)"><path class="b" d="M20.009,91.927v18.931a1.132,1.132,0,0,0,1.132,1.132c.061-.033,33.033-.033,33.342,0a1.132,1.132,0,0,0,1.132-1.132V91.927Zm11.189,14.6a1.132,1.132,0,1,1-1.6,1.6l-.914-.914-.914.914a1.132,1.132,0,0,1-1.6-1.6l.914-.914-.914-.914a1.132,1.132,0,0,1,1.6-1.6l.914.914.914-.914a1.132,1.132,0,0,1,1.6,1.6l-.914.914Zm8.193.888a1.132,1.132,0,1,1-2.264,0v-1.7a1.132,1.132,0,0,1,2.264,0Zm.088-12.373-.291,4.073a1.132,1.132,0,0,1-1.128,1.051l-.082,0L33.9,99.869a1.132,1.132,0,1,1,.161-2.258l1.412.1a4.66,4.66,0,0,0-7.2,2.934,1.132,1.132,0,0,1-2.22-.445,6.875,6.875,0,0,1,3.771-4.875,6.948,6.948,0,0,1,7.306.793l.089-1.242a1.132,1.132,0,1,1,2.258.161Zm3.381,12.373a1.132,1.132,0,1,1-2.264,0V104.1a1.132,1.132,0,1,1,2.264,0Zm3.47,0a1.132,1.132,0,1,1-2.264,0V104.46a1.132,1.132,0,1,1,2.264,0ZM44.445,99.1a1.933,1.933,0,1,1,1.933-1.933A1.933,1.933,0,0,1,44.445,99.1Zm5.354,8.307a1.132,1.132,0,1,1-2.264,0v-5.9a1.132,1.132,0,1,1,2.264,0Z" transform="translate(-20.009 -91.927)"/></g><g transform="translate(0 0)"><path class="b" d="M36.3,0H2.339a2.339,2.339,0,0,0,0,4.677H36.3A2.339,2.339,0,1,0,36.3,0Z" transform="translate(0 0)"/></g></g></g></svg>