<svg xmlns="http://www.w3.org/2000/svg" width="65" height="65" viewBox="0 0 65 65"><defs><style>.a{fill:#a51e34;}.b{fill:#fff;}</style></defs><g transform="translate(-1175 -23732)"><g transform="translate(1081 15297)"><circle class="a" cx="32.5" cy="32.5" r="32.5" transform="translate(94 8435)"/></g><g transform="translate(1192.983 23750)"><g transform="translate(0.017)"><path class="b" d="M30.015,11.194V6.209L15.016,0l-15,6.209v4.984H1.776V24.724H.017V30h30V24.724H28.256V11.194Zm-15-9.291,9.7,4.015H5.316ZM28.257,26.482v1.761H1.775V26.482ZM3.534,24.724V11.194H5.308V24.724H3.534Zm3.532,0V11.194H8.84V24.724H7.066Zm3.532,0V11.194h1.774V24.724H10.6Zm3.532,0V11.194H15.9V24.724H14.129Zm3.532,0V11.194h1.774V24.724H17.661Zm3.532,0h0V11.194h1.774V24.724H21.192Zm3.532,0V11.194H26.5V24.724ZM1.775,9.436V7.675H28.257V9.436Z" transform="translate(-0.017)"/></g></g></g></svg>