<svg xmlns="http://www.w3.org/2000/svg" xmlns:xlink="http://www.w3.org/1999/xlink" width="499.419" height="333.912" viewBox="0 0 499.419 333.912"><defs><style>.a{fill:#37dfce;opacity:0.35;}.b{fill:#ffc956;}.c{fill:#ff9123;}.d{fill:#b4e1fa;}.e{fill:#a0d2f0;}.f{fill:#daf0fd;}.g{fill:#df0d16;}.h{fill:#c7cfe2;}.i{fill:#ff3030;}.j{fill:#eff2fa;}.k{fill:#5c6379;}.l{fill:#d2afc5;}.m{fill:#ffd782;}.n{fill:#ffaf5f;}.o{fill:#1b2030;}.p,.w{fill:#fea832;}.p,.q{fill-rule:evenodd;}.ae,.q{fill:#3168fe;}.r{fill:#fff;}.s{fill:#dadee0;}.t{fill:#1bb7ea;}.u{fill:#a5a5a5;}.v{fill:#1f4254;}.x{fill:#c1001f;}.y{fill:#fedb41;}.z{fill:#f9bf0f;}.aa{fill:#f28c14;}.ab{fill:#980017;}.ac{fill:#713708;}.ad{fill:#994c0f;}.af{fill:#0733ac;}.ag{fill:#1bd9de;}.ah{fill:#cae8f9;}.ai{fill:#e1e4fb;}.aj{fill:#b7e0f6;}.ak{fill:#c5c9f7;}.al{filter:url(#e);}.am{filter:url(#c);}.an{filter:url(#a);}</style><filter id="a" x="0" y="175.959" width="157.952" height="157.953" filterUnits="userSpaceOnUse"><feOffset dy="10" input="SourceAlpha"/><feGaussianBlur stdDeviation="6" result="b"/><feFlood flood-opacity="0.11"/><feComposite operator="in" in2="b"/><feComposite in="SourceGraphic"/></filter><filter id="c" x="172.889" y="0" width="158.369" height="158.369" filterUnits="userSpaceOnUse"><feOffset dy="10" input="SourceAlpha"/><feGaussianBlur stdDeviation="6" result="d"/><feFlood flood-opacity="0.11"/><feComposite operator="in" in2="d"/><feComposite in="SourceGraphic"/></filter><filter id="e" x="341.466" y="175.959" width="157.952" height="157.953" filterUnits="userSpaceOnUse"><feOffset dy="10" input="SourceAlpha"/><feGaussianBlur stdDeviation="6" result="f"/><feFlood flood-opacity="0.11"/><feComposite operator="in" in2="f"/><feComposite in="SourceGraphic"/></filter></defs><g transform="translate(-146 -32231)"><path class="a" d="M116.69,120.618a2.5,2.5,0,1,1,2.5,2.553A2.525,2.525,0,0,1,116.69,120.618Zm-13.1,0a2.5,2.5,0,1,1,2.5,2.553A2.525,2.525,0,0,1,103.586,120.618Zm-12.48,0a2.5,2.5,0,1,1,2.5,2.553A2.526,2.526,0,0,1,91.106,120.618Zm-13.1,0a2.5,2.5,0,1,1,2.5,2.553A2.526,2.526,0,0,1,78,120.618Zm-13.1,0a2.5,2.5,0,1,1,2.5,2.553A2.526,2.526,0,0,1,64.9,120.618Zm-13.1,0a2.5,2.5,0,1,1,2.5,2.553A2.525,2.525,0,0,1,51.794,120.618Zm-13.1,0a2.5,2.5,0,1,1,2.5,2.553A2.525,2.525,0,0,1,38.69,120.618Zm-12.481,0a2.5,2.5,0,1,1,2.5,2.553A2.525,2.525,0,0,1,26.208,120.618Zm-13.1,0a2.5,2.5,0,1,1,2.5,2.553A2.525,2.525,0,0,1,13.1,120.618Zm-13.1,0a2.525,2.525,0,0,1,2.5-2.553,2.553,2.553,0,0,1,0,5.106A2.525,2.525,0,0,1,0,120.618Zm116.69-10.847a2.5,2.5,0,1,1,2.5,2.553A2.525,2.525,0,0,1,116.69,109.771Zm-13.1,0a2.5,2.5,0,1,1,2.5,2.553A2.525,2.525,0,0,1,103.586,109.771Zm-12.48,0a2.5,2.5,0,1,1,2.5,2.553A2.525,2.525,0,0,1,91.106,109.771Zm-13.1,0a2.5,2.5,0,1,1,2.5,2.553A2.525,2.525,0,0,1,78,109.771Zm-13.1,0a2.5,2.5,0,1,1,2.5,2.553A2.525,2.525,0,0,1,64.9,109.771Zm-13.1,0a2.5,2.5,0,1,1,2.5,2.553A2.525,2.525,0,0,1,51.794,109.771Zm-13.1,0a2.5,2.5,0,1,1,2.5,2.553A2.525,2.525,0,0,1,38.69,109.771Zm-12.481,0a2.5,2.5,0,1,1,2.5,2.553A2.525,2.525,0,0,1,26.208,109.771Zm-13.1,0a2.5,2.5,0,1,1,2.5,2.553A2.525,2.525,0,0,1,13.1,109.771Zm-13.1,0a2.525,2.525,0,0,1,2.5-2.553,2.553,2.553,0,0,1,0,5.106A2.525,2.525,0,0,1,0,109.771ZM116.69,99.559a2.5,2.5,0,1,1,2.5,2.553A2.525,2.525,0,0,1,116.69,99.559Zm-13.1,0a2.5,2.5,0,1,1,2.5,2.553A2.525,2.525,0,0,1,103.586,99.559Zm-12.48,0a2.5,2.5,0,1,1,2.5,2.553A2.525,2.525,0,0,1,91.106,99.559Zm-13.1,0a2.5,2.5,0,1,1,2.5,2.553A2.525,2.525,0,0,1,78,99.559Zm-13.1,0a2.5,2.5,0,1,1,2.5,2.553A2.525,2.525,0,0,1,64.9,99.559Zm-13.1,0a2.5,2.5,0,1,1,2.5,2.553A2.525,2.525,0,0,1,51.794,99.559Zm-13.1,0a2.5,2.5,0,1,1,2.5,2.553A2.525,2.525,0,0,1,38.69,99.559Zm-12.481,0a2.5,2.5,0,1,1,2.5,2.553A2.525,2.525,0,0,1,26.208,99.559Zm-13.1,0a2.5,2.5,0,1,1,2.5,2.553A2.525,2.525,0,0,1,13.1,99.559Zm-13.1,0a2.525,2.525,0,0,1,2.5-2.553,2.553,2.553,0,0,1,0,5.106A2.525,2.525,0,0,1,0,99.559ZM116.69,88.708a2.5,2.5,0,1,1,2.5,2.553A2.525,2.525,0,0,1,116.69,88.708Zm-13.1,0a2.5,2.5,0,1,1,2.5,2.553A2.525,2.525,0,0,1,103.586,88.708Zm-12.48,0a2.5,2.5,0,1,1,2.5,2.553A2.525,2.525,0,0,1,91.106,88.708Zm-13.1,0a2.5,2.5,0,1,1,2.5,2.553A2.525,2.525,0,0,1,78,88.708Zm-13.1,0a2.5,2.5,0,1,1,2.5,2.553A2.525,2.525,0,0,1,64.9,88.708Zm-13.1,0a2.5,2.5,0,1,1,2.5,2.553A2.525,2.525,0,0,1,51.794,88.708Zm-13.1,0a2.5,2.5,0,1,1,2.5,2.553A2.525,2.525,0,0,1,38.69,88.708Zm-12.481,0a2.5,2.5,0,1,1,2.5,2.553A2.525,2.525,0,0,1,26.208,88.708Zm-13.1,0a2.5,2.5,0,1,1,2.5,2.553A2.525,2.525,0,0,1,13.1,88.708Zm-13.1,0a2.525,2.525,0,0,1,2.5-2.553,2.553,2.553,0,0,1,0,5.106A2.525,2.525,0,0,1,0,88.708ZM116.69,77.86a2.5,2.5,0,1,1,2.5,2.553A2.525,2.525,0,0,1,116.69,77.86Zm-13.1,0a2.5,2.5,0,1,1,2.5,2.553A2.525,2.525,0,0,1,103.586,77.86Zm-12.48,0a2.5,2.5,0,1,1,2.5,2.553A2.525,2.525,0,0,1,91.106,77.86Zm-13.1,0a2.5,2.5,0,1,1,2.5,2.553A2.525,2.525,0,0,1,78,77.86Zm-13.1,0a2.5,2.5,0,1,1,2.5,2.553A2.525,2.525,0,0,1,64.9,77.86Zm-13.1,0a2.5,2.5,0,1,1,2.5,2.553A2.525,2.525,0,0,1,51.794,77.86Zm-13.1,0a2.5,2.5,0,1,1,2.5,2.553A2.525,2.525,0,0,1,38.69,77.86Zm-12.481,0a2.5,2.5,0,1,1,2.5,2.553A2.525,2.525,0,0,1,26.208,77.86Zm-13.1,0a2.5,2.5,0,1,1,2.5,2.553A2.525,2.525,0,0,1,13.1,77.86ZM0,77.86a2.525,2.525,0,0,1,2.5-2.552,2.553,2.553,0,0,1,0,5.1A2.525,2.525,0,0,1,0,77.86Zm116.69-10.85a2.5,2.5,0,1,1,2.5,2.552A2.525,2.525,0,0,1,116.69,67.011Zm-13.1,0a2.5,2.5,0,1,1,2.5,2.552A2.525,2.525,0,0,1,103.586,67.011Zm-12.48,0a2.5,2.5,0,1,1,2.5,2.552A2.525,2.525,0,0,1,91.106,67.011Zm-13.1,0a2.5,2.5,0,1,1,2.5,2.552A2.525,2.525,0,0,1,78,67.011Zm-13.1,0a2.5,2.5,0,1,1,2.5,2.552A2.525,2.525,0,0,1,64.9,67.011Zm-13.1,0a2.5,2.5,0,1,1,2.5,2.552A2.525,2.525,0,0,1,51.794,67.011Zm-13.1,0a2.5,2.5,0,1,1,2.5,2.552A2.525,2.525,0,0,1,38.69,67.011Zm-12.481,0a2.5,2.5,0,1,1,2.5,2.552A2.525,2.525,0,0,1,26.208,67.011Zm-13.1,0a2.5,2.5,0,1,1,2.5,2.552A2.525,2.525,0,0,1,13.1,67.011Zm-13.1,0a2.525,2.525,0,0,1,2.5-2.553,2.553,2.553,0,0,1,0,5.1A2.525,2.525,0,0,1,0,67.011ZM116.69,56.164a2.5,2.5,0,1,1,2.5,2.553A2.525,2.525,0,0,1,116.69,56.164Zm-13.1,0a2.5,2.5,0,1,1,2.5,2.553A2.525,2.525,0,0,1,103.586,56.164Zm-12.48,0a2.5,2.5,0,1,1,2.5,2.553A2.525,2.525,0,0,1,91.106,56.164Zm-13.1,0a2.5,2.5,0,1,1,2.5,2.553A2.525,2.525,0,0,1,78,56.164Zm-13.1,0a2.5,2.5,0,1,1,2.5,2.553A2.525,2.525,0,0,1,64.9,56.164Zm-13.1,0a2.5,2.5,0,1,1,2.5,2.553A2.525,2.525,0,0,1,51.794,56.164Zm-13.1,0a2.5,2.5,0,1,1,2.5,2.553A2.525,2.525,0,0,1,38.69,56.164Zm-12.481,0a2.5,2.5,0,1,1,2.5,2.553A2.525,2.525,0,0,1,26.208,56.164Zm-13.1,0a2.5,2.5,0,1,1,2.5,2.553A2.525,2.525,0,0,1,13.1,56.164Zm-13.1,0a2.525,2.525,0,0,1,2.5-2.553,2.553,2.553,0,0,1,0,5.106A2.525,2.525,0,0,1,0,56.164Zm116.69-10.85a2.5,2.5,0,1,1,2.5,2.553A2.525,2.525,0,0,1,116.69,45.313Zm-13.1,0a2.5,2.5,0,1,1,2.5,2.553A2.525,2.525,0,0,1,103.586,45.313Zm-12.48,0a2.5,2.5,0,1,1,2.5,2.553A2.525,2.525,0,0,1,91.106,45.313Zm-13.1,0a2.5,2.5,0,1,1,2.5,2.553A2.525,2.525,0,0,1,78,45.313Zm-13.1,0a2.5,2.5,0,1,1,2.5,2.553A2.525,2.525,0,0,1,64.9,45.313Zm-13.1,0a2.5,2.5,0,1,1,2.5,2.553A2.525,2.525,0,0,1,51.794,45.313Zm-13.1,0a2.5,2.5,0,1,1,2.5,2.553A2.525,2.525,0,0,1,38.69,45.313Zm-12.481,0a2.5,2.5,0,1,1,2.5,2.553A2.525,2.525,0,0,1,26.208,45.313Zm-13.1,0a2.5,2.5,0,1,1,2.5,2.553A2.525,2.525,0,0,1,13.1,45.313Zm-13.1,0a2.525,2.525,0,0,1,2.5-2.553,2.553,2.553,0,0,1,0,5.106A2.525,2.525,0,0,1,0,45.313ZM116.69,35.1a2.5,2.5,0,1,1,2.5,2.553A2.525,2.525,0,0,1,116.69,35.1Zm-13.1,0a2.5,2.5,0,1,1,2.5,2.553A2.525,2.525,0,0,1,103.586,35.1Zm-12.48,0a2.5,2.5,0,1,1,2.5,2.553A2.525,2.525,0,0,1,91.106,35.1ZM78,35.1a2.5,2.5,0,1,1,2.5,2.553A2.525,2.525,0,0,1,78,35.1Zm-13.1,0a2.5,2.5,0,1,1,2.5,2.553A2.525,2.525,0,0,1,64.9,35.1Zm-13.1,0a2.5,2.5,0,1,1,2.5,2.553A2.525,2.525,0,0,1,51.794,35.1Zm-13.1,0a2.5,2.5,0,1,1,2.5,2.553A2.525,2.525,0,0,1,38.69,35.1Zm-12.481,0a2.5,2.5,0,1,1,2.5,2.553A2.525,2.525,0,0,1,26.208,35.1Zm-13.1,0a2.5,2.5,0,1,1,2.5,2.553A2.525,2.525,0,0,1,13.1,35.1ZM0,35.1a2.525,2.525,0,0,1,2.5-2.552,2.553,2.553,0,0,1,0,5.1A2.525,2.525,0,0,1,0,35.1ZM116.69,24.255a2.5,2.5,0,1,1,2.5,2.553A2.525,2.525,0,0,1,116.69,24.255Zm-13.1,0a2.5,2.5,0,1,1,2.5,2.553A2.525,2.525,0,0,1,103.586,24.255Zm-12.48,0a2.5,2.5,0,1,1,2.5,2.553A2.525,2.525,0,0,1,91.106,24.255Zm-13.1,0a2.5,2.5,0,1,1,2.5,2.553A2.525,2.525,0,0,1,78,24.255Zm-13.1,0a2.5,2.5,0,1,1,2.5,2.553A2.525,2.525,0,0,1,64.9,24.255Zm-13.1,0a2.5,2.5,0,1,1,2.5,2.553A2.525,2.525,0,0,1,51.794,24.255Zm-13.1,0a2.5,2.5,0,1,1,2.5,2.553A2.525,2.525,0,0,1,38.69,24.255Zm-12.481,0a2.5,2.5,0,1,1,2.5,2.553A2.525,2.525,0,0,1,26.208,24.255Zm-13.1,0a2.5,2.5,0,1,1,2.5,2.553A2.525,2.525,0,0,1,13.1,24.255Zm-13.1,0A2.525,2.525,0,0,1,2.5,21.7a2.553,2.553,0,0,1,0,5.106A2.525,2.525,0,0,1,0,24.255ZM116.69,13.4a2.5,2.5,0,1,1,2.5,2.553A2.525,2.525,0,0,1,116.69,13.4Zm-13.1,0a2.5,2.5,0,1,1,2.5,2.553A2.525,2.525,0,0,1,103.586,13.4Zm-12.48,0a2.5,2.5,0,1,1,2.5,2.553A2.525,2.525,0,0,1,91.106,13.4ZM78,13.4a2.5,2.5,0,1,1,2.5,2.553A2.525,2.525,0,0,1,78,13.4Zm-13.1,0a2.5,2.5,0,1,1,2.5,2.553A2.525,2.525,0,0,1,64.9,13.4Zm-13.1,0a2.5,2.5,0,1,1,2.5,2.553A2.525,2.525,0,0,1,51.794,13.4Zm-13.1,0a2.5,2.5,0,1,1,2.5,2.553A2.525,2.525,0,0,1,38.69,13.4Zm-12.481,0a2.5,2.5,0,1,1,2.5,2.553A2.525,2.525,0,0,1,26.208,13.4Zm-13.1,0a2.5,2.5,0,1,1,2.5,2.553A2.525,2.525,0,0,1,13.1,13.4ZM0,13.4A2.525,2.525,0,0,1,2.5,10.85a2.553,2.553,0,0,1,0,5.106A2.525,2.525,0,0,1,0,13.4ZM116.69,2.553a2.5,2.5,0,1,1,4.992,0,2.5,2.5,0,1,1-4.992,0Zm-13.1,0a2.5,2.5,0,1,1,4.992,0,2.5,2.5,0,1,1-4.992,0Zm-12.48,0a2.5,2.5,0,1,1,4.992,0,2.5,2.5,0,1,1-4.992,0Zm-13.1,0a2.5,2.5,0,1,1,4.992,0,2.5,2.5,0,1,1-4.992,0Zm-13.1,0a2.5,2.5,0,1,1,4.992,0,2.5,2.5,0,1,1-4.992,0Zm-13.1,0a2.5,2.5,0,1,1,4.992,0,2.5,2.5,0,1,1-4.992,0Zm-13.1,0a2.5,2.5,0,1,1,4.992,0,2.5,2.5,0,1,1-4.992,0Zm-12.481,0a2.5,2.5,0,1,1,4.992,0,2.5,2.5,0,1,1-4.992,0Zm-13.1,0a2.5,2.5,0,1,1,4.992,0,2.5,2.5,0,1,1-4.992,0ZM0,2.553A2.525,2.525,0,0,1,2.5,0a2.525,2.525,0,0,1,2.5,2.553A2.525,2.525,0,0,1,2.5,5.106,2.525,2.525,0,0,1,0,2.553Z" transform="translate(253.813 32369.127)"/><g transform="translate(164 32239)"><g transform="translate(146.343 155.924)"><path class="b" d="M180.694,203.928H17.655V54.475a1.51,1.51,0,0,1,1.51-1.51H179.184a1.51,1.51,0,0,1,1.51,1.51Z" transform="translate(-11.617 -37.869)"/><g transform="translate(6.036 61.482)"><rect class="c" width="163.039" height="24.154" transform="translate(0.002 77.404)"/><path class="c" d="M180.69,196.289a7.876,7.876,0,0,1-9.881-7.7,7.96,7.96,0,0,1-15.92,0,7.96,7.96,0,0,1-15.92,0,7.96,7.96,0,0,1-15.92,0,7.96,7.96,0,0,1-15.92,0,7.96,7.96,0,0,1-15.92,0,7.96,7.96,0,0,1-15.92,0,7.96,7.96,0,0,1-15.92,0,7.96,7.96,0,0,1-15.92,0,7.96,7.96,0,0,1-15.92,0,7.876,7.876,0,0,1-9.881,7.7v6.1a13.833,13.833,0,0,0,1.921.193,13.915,13.915,0,0,0,7.96-2.488,13.974,13.974,0,0,0,15.92,0,13.97,13.97,0,0,0,15.92,0,13.97,13.97,0,0,0,15.92,0,13.97,13.97,0,0,0,15.92,0,13.97,13.97,0,0,0,15.92,0,13.97,13.97,0,0,0,15.92,0,13.97,13.97,0,0,0,15.92,0,13.97,13.97,0,0,0,15.92,0,13.97,13.97,0,0,0,15.92,0,12.921,12.921,0,0,0,9.881,2.3v-6.1Z" transform="translate(-17.649 -188.589)"/></g><g transform="translate(21.135 87.559)"><rect class="d" width="84.538" height="60.384"/><rect class="d" width="36.23" height="60.384" transform="translate(96.617)"/></g><rect class="e" width="36.23" height="9.058" transform="translate(117.752 87.559)"/><path class="f" d="M397.93,293.006,376.8,264.828h-6.04l27.171,36.231Z" transform="translate(-243.952 -177.27)"/><path class="e" d="M347.3,264.828h-3.02v12.078l36.231,48.3v-16.1Z" transform="translate(-226.527 -177.27)"/><path class="d" d="M383.588,273.884l-6.789-9.055h-6.04l6.794,9.055Z" transform="translate(-243.952 -177.27)"/><path class="f" d="M183.741,325.21H177.7l-45.289-60.382h6.039Z" transform="translate(-87.126 -177.27)"/><g transform="translate(21.135 87.558)"><path class="e" d="M136.814,325.21H124.736L79.448,264.828H91.525Z" transform="translate(-73.409 -264.828)"/><rect class="e" width="84.538" height="9.058" transform="translate(0 0.001)"/></g><path class="d" d="M145.246,273.884l-6.793-9.055h-6.039l6.793,9.055Z" transform="translate(-87.126 -177.27)"/><g transform="translate(0 54.346)"><path class="g" d="M194.143,182.821h0a7.96,7.96,0,0,1-7.962-7.961v-7.136H202.1v7.136A7.96,7.96,0,0,1,194.143,182.821Z" transform="translate(-122.503 -167.724)"/><path class="g" d="M287.235,182.821h0a7.961,7.961,0,0,1-7.962-7.961v-7.136h15.919v7.136A7.959,7.959,0,0,1,287.235,182.821Z" transform="translate(-183.754 -167.724)"/><path class="g" d="M101.051,182.821h0a7.96,7.96,0,0,1-7.96-7.961v-7.136H109.01v7.136A7.96,7.96,0,0,1,101.051,182.821Z" transform="translate(-61.252 -167.724)"/><path class="g" d="M7.96,182.821h0A7.96,7.96,0,0,1,0,174.86v-7.136H15.92v7.136A7.96,7.96,0,0,1,7.96,182.821Z" transform="translate(0 -167.724)"/><path class="g" d="M380.32,182.821h0a7.959,7.959,0,0,1-7.957-7.961v-7.136h15.919v7.136A7.96,7.96,0,0,1,380.32,182.821Z" transform="translate(-245.007 -167.724)"/></g><g transform="translate(47.759 54.346)"><path class="h" d="M147.6,182.821h0a7.96,7.96,0,0,1-7.962-7.961v-7.136h15.921v7.136A7.96,7.96,0,0,1,147.6,182.821Z" transform="translate(-139.636 -167.724)"/><path class="h" d="M333.78,182.821h0a7.96,7.96,0,0,1-7.962-7.961v-7.136h15.921v7.136A7.959,7.959,0,0,1,333.78,182.821Z" transform="translate(-262.14 -167.724)"/></g><path class="g" d="M473.418,182.821h0a7.962,7.962,0,0,1-7.964-7.961v-7.136h15.919v7.136A7.956,7.956,0,0,1,473.418,182.821Z" transform="translate(-306.257 -113.377)"/><g transform="translate(15.919 54.346)"><path class="h" d="M426.864,182.821h0a7.956,7.956,0,0,1-7.955-7.961v-7.136h15.919v7.136A7.962,7.962,0,0,1,426.864,182.821Z" transform="translate(-291.553 -167.724)"/><path class="h" d="M54.5,182.821h0a7.96,7.96,0,0,1-7.96-7.961v-7.136h15.92v7.136A7.96,7.96,0,0,1,54.5,182.821Z" transform="translate(-46.545 -167.724)"/><path class="h" d="M240.687,182.821h0a7.961,7.961,0,0,1-7.959-7.961v-7.136h15.921v7.136A7.96,7.96,0,0,1,240.687,182.821Z" transform="translate(-169.049 -167.724)"/></g><g transform="translate(0 30.192)"><path class="i" d="M202.1,121.256H186.182L187.828,97.1h14.823Z" transform="translate(-122.504 -97.103)"/><path class="i" d="M294.139,121.256H278.22L277.667,97.1h14.825Z" transform="translate(-182.7 -97.103)"/><path class="i" d="M109.011,121.256H93.091L96.934,97.1h14.822Z" transform="translate(-61.252 -97.103)"/><path class="i" d="M15.92,121.256H0L6.038,97.1H20.86Z" transform="translate(0 -97.103)"/><path class="i" d="M383,121.256H367.082L364.339,97.1h14.82Z" transform="translate(-239.727 -97.103)"/></g><g transform="translate(47.759 30.192)"><path class="j" d="M155.557,121.256H139.636L142.382,97.1H157.2Z" transform="translate(-139.636 -97.103)"/><path class="j" d="M338.571,121.256H322.65L321,97.1h14.825Z" transform="translate(-258.971 -97.103)"/></g><path class="i" d="M471.872,121.256H455.949L451.009,97.1h14.823Z" transform="translate(-296.755 -66.911)"/><g transform="translate(15.92 30.192)"><path class="j" d="M427.436,121.256H411.518L407.674,97.1H422.5Z" transform="translate(-284.159 -97.103)"/><path class="j" d="M62.466,121.256H46.546L51.487,97.1H66.308Z" transform="translate(-46.546 -97.103)"/><path class="j" d="M248.648,121.256H232.727l.551-24.153H248.1Z" transform="translate(-169.049 -97.103)"/></g><g transform="translate(18.115 84.538)"><path class="k" d="M137.5,262.038v54.347H59V262.038h78.5m3.02-6.038H55.985a3.019,3.019,0,0,0-3.02,3.018V319.4a3.02,3.02,0,0,0,3.02,3.018h84.538a3.019,3.019,0,0,0,3.019-3.018V259.018A3.019,3.019,0,0,0,140.524,256Z" transform="translate(-52.965 -256)"/><path class="k" d="M374.7,256H338.47a3.019,3.019,0,0,0-3.022,3.018V334.5h42.271V259.018A3.018,3.018,0,0,0,374.7,256Zm-3.022,60.385H341.488V262.038h30.191Z" transform="translate(-238.831 -256)"/></g><path class="l" d="M199.758,39.02H103.142A6.038,6.038,0,0,1,97.1,32.982V14.866a6.038,6.038,0,0,1,6.038-6.038h96.616a6.038,6.038,0,0,1,6.038,6.038V32.982A6.038,6.038,0,0,1,199.758,39.02Z" transform="translate(-63.892 -8.828)"/><path class="m" d="M209.865,44.6h-93.6a1.509,1.509,0,0,1-1.51-1.509v-15.1a1.509,1.509,0,0,1,1.51-1.509h93.6a1.509,1.509,0,0,1,1.509,1.509v15.1A1.509,1.509,0,0,1,209.865,44.6Z" transform="translate(-75.508 -20.445)"/><path class="n" d="M116.268,64.927h93.6a1.509,1.509,0,0,0,1.509-1.509V57.379a1.509,1.509,0,0,1-1.509,1.51h-93.6a1.51,1.51,0,0,1-1.51-1.51v6.039A1.51,1.51,0,0,0,116.268,64.927Z" transform="translate(-75.508 -40.773)"/><path class="o" d="M173.606,491.551H1.51A1.508,1.508,0,0,1,0,490.044v-3.02a1.508,1.508,0,0,1,1.51-1.508h172.1a1.508,1.508,0,0,1,1.51,1.508v3.02A1.508,1.508,0,0,1,173.606,491.551Z" transform="translate(0 -322.477)"/></g><g transform="translate(81.011 67.625)"><path class="p" d="M152.947-249.633A152.948,152.948,0,0,0,0-96.684H8.1A144.851,144.851,0,0,1,152.947-241.535Z" transform="translate(0 249.633)"/></g><g transform="translate(234.323 67.625)"><path class="q" d="M0-249.633A152.947,152.947,0,0,1,152.947-96.687h-8.1A144.85,144.85,0,0,0,0-241.535Z" transform="translate(0 249.633)"/></g><g transform="translate(0 175.959)"><g class="an" transform="matrix(1, 0, 0, 1, -18, -183.96)"><path class="r" d="M31.27,0H90.683a31.27,31.27,0,0,1,31.27,31.27V90.683a31.27,31.27,0,0,1-31.27,31.27H31.27A31.27,31.27,0,0,1,0,90.683V31.27A31.27,31.27,0,0,1,31.27,0Z" transform="translate(18 183.96)"/></g><g transform="translate(33.101 28.746)"><path class="s" d="M131.25,61.244a4.939,4.939,0,0,0-4.924-4.924H89.4a4.939,4.939,0,0,0-4.924,4.924V107.2A4.939,4.939,0,0,0,89.4,112.12h27.9l13.95-13.13Z" transform="translate(-75.449 -47.294)"/><path class="t" d="M37.182,13.95A4.938,4.938,0,0,1,42.1,9.026H74.93v-4.1A4.938,4.938,0,0,0,70.007,0H33.079a4.938,4.938,0,0,0-4.924,4.924V50.876A4.938,4.938,0,0,0,33.079,55.8h4.1Z" transform="translate(-28.155)"/><path class="u" d="M294.187,322.56h9.026l-13.948,13.129v-8.2A4.938,4.938,0,0,1,294.187,322.56Z" transform="translate(-247.417 -270.863)"/><g transform="translate(20.104 20.104)"><path class="v" d="M154.825,179.1h22.156a1.23,1.23,0,1,0,0-2.461H154.825a1.23,1.23,0,0,0,0,2.461" transform="translate(-153.595 -168.434)"/><path class="v" d="M154.825,127.9h22.156a1.23,1.23,0,1,0,0-2.461H154.825a1.23,1.23,0,0,0,0,2.461" transform="translate(-153.595 -125.44)"/><path class="v" d="M154.825,230.3h22.156a1.23,1.23,0,1,0,0-2.46H154.825a1.23,1.23,0,1,0,0,2.46" transform="translate(-153.595 -211.429)"/><path class="v" d="M154.825,281.5h12.31a1.23,1.23,0,1,0,0-2.46h-12.31a1.23,1.23,0,1,0,0,2.46" transform="translate(-153.595 -254.423)"/></g></g></g><g transform="translate(172.889 0)"><g class="am" transform="matrix(1, 0, 0, 1, -190.89, -8)"><rect class="r" width="122.369" height="122.369" rx="30" transform="translate(190.89 8)"/></g><g transform="translate(34.896 34.724)"><path class="w" d="M0,100.878v37.33a4.593,4.593,0,0,0,4.588,4.587H47.615a4.593,4.593,0,0,0,4.588-4.587v-37.33Z" transform="translate(0 -90.593)"/><path class="x" d="M167.824,159.177H155.589a4.588,4.588,0,0,1,0-9.177h12.235a4.588,4.588,0,0,1,0,9.177Z" transform="translate(-135.604 -134.706)"/><path class="y" d="M52.2,10.285v0L46.74,2.049A4.636,4.636,0,0,0,42.9,0H9.3A4.64,4.64,0,0,0,5.456,2.061L0,10.285Z" transform="translate(0 0)"/><path class="z" d="M272.8,0H256V10.285h26.1v0l-5.465-8.233A4.631,4.631,0,0,0,272.8,0Z" transform="translate(-229.899 0)"/><path class="aa" d="M256,142.795h21.513a4.6,4.6,0,0,0,4.59-4.587v-37.33H256Z" transform="translate(-229.899 -90.593)"/><path class="ab" d="M262.117,150H256v9.177h6.117a4.588,4.588,0,0,0,0-9.177Z" transform="translate(-229.899 -134.706)"/></g></g><g transform="translate(341.466 175.959)"><g class="al" transform="matrix(1, 0, 0, 1, -359.47, -183.96)"><path class="r" d="M31.27,0H90.683a31.27,31.27,0,0,1,31.27,31.27V90.683a31.27,31.27,0,0,1-31.27,31.27H31.27A31.27,31.27,0,0,1,0,90.683V31.27A31.27,31.27,0,0,1,31.27,0Z" transform="translate(359.47 183.96)"/></g><g transform="translate(63.419 12.808) rotate(45)"><path class="ac" d="M6.146,11.491,3.362,14.275A1.969,1.969,0,0,1,.577,11.491L3.362,8.706a1.97,1.97,0,0,0,0-2.784L.8,3.362A1.969,1.969,0,1,1,3.586.577l2.56,2.56A5.913,5.913,0,0,1,6.146,11.491Z" transform="translate(26.234 40.081)"/><path class="ad" d="M19.492,19.492h0a3.938,3.938,0,0,1-5.569,0L0,5.569,5.569,0,19.492,13.923A3.938,3.938,0,0,1,19.492,19.492Z" transform="translate(17.066 44.611)"/><path class="ae" d="M16.954,0l8.632,8.632-.167,5.4L15.674,23.78a5.966,5.966,0,0,1-8.409-.056L1.7,18.155a5.857,5.857,0,0,1,.056-8.3L11.5.111Z" transform="translate(0 33.361)"/><path class="af" d="M16.707,0l4.344,4.344-.167,5.4-9.746,9.746a5.966,5.966,0,0,1-8.409-.056L0,16.707Z" transform="translate(4.535 37.65)"/><g transform="translate(39.455 0)"><path class="ag" d="M1.97,7.876A1.968,1.968,0,0,1,0,5.908V1.969a1.969,1.969,0,1,1,3.937,0V5.907A1.968,1.968,0,0,1,1.97,7.876Z" transform="translate(0)"/><path class="ag" d="M5.907,3.939H1.969A1.969,1.969,0,0,1,1.969,0H5.907a1.969,1.969,0,0,1,0,3.937Z" transform="translate(11.814 15.752)"/><path class="ag" d="M7.546.585a1.95,1.95,0,0,1,0,2.784L3.369,7.546a1.95,1.95,0,0,1-2.784,0,1.95,1.95,0,0,1,0-2.784L4.762.585A1.95,1.95,0,0,1,7.546.585Z" transform="translate(7.656 3.65)"/></g><path class="ah" d="M19.492,2.283,38.983,21.775c.557.557,1.253,6.432,1.977,6.544L35.475,29.46A42.7,42.7,0,0,0,14.4,40.793l-.473.473L0,27.344l.473-.473A41.379,41.379,0,0,0,11.723,5.708L12.864,0Z" transform="translate(11.497 6.129)"/><path class="ai" d="M6.154.585a1.95,1.95,0,0,1,0,2.784L3.369,6.154a1.95,1.95,0,0,1-2.784,0,1.95,1.95,0,0,1,0-2.784L3.369.585A1.95,1.95,0,0,1,6.154.585Z" transform="translate(9.52 42.634)"/><path class="aj" d="M22.276,0l9.746,9.746c.557.557,1.253,6.432,1.977,6.544l-5.485,1.142A42.7,42.7,0,0,0,7.435,28.764l-.473.473L0,22.276Z" transform="translate(18.458 18.158)"/><path class="ak" d="M5.569,0a1.95,1.95,0,0,1,0,2.784L2.784,5.569A1.95,1.95,0,0,1,0,5.569Z" transform="translate(10.104 43.218)"/><path class="ae" d="M6.661,1.149,31.722,26.209a3.95,3.95,0,0,1,0,5.569,2.3,2.3,0,0,1-.613.39,3.679,3.679,0,0,1-2.979.585,3.508,3.508,0,0,1-1.977-.975L1.092,6.718A3.862,3.862,0,0,1,.034,4.434,3.9,3.9,0,0,1,.507,2.012a4.693,4.693,0,0,1,.585-.863A3.95,3.95,0,0,1,6.661,1.149Z" transform="translate(24.327 1.694)"/><path class="af" d="M5.569,0,18.1,12.53a3.949,3.949,0,0,1,0,5.569,2.3,2.3,0,0,1-.613.39,3.679,3.679,0,0,1-2.979.585A3.507,3.507,0,0,1,12.53,18.1L0,5.569Z" transform="translate(37.949 15.373)"/></g></g></g></g></svg>