<svg xmlns="http://www.w3.org/2000/svg" xmlns:xlink="http://www.w3.org/1999/xlink" width="65" height="65" viewBox="0 0 65 65"><defs><style>.a{fill:#fff;stroke:#707070;}.b{fill:#f1f1f1;}.c{clip-path:url(#a);}.d{fill:#952831;}.e{fill:#3c3f4a;}.f{fill:#f8b795;}.g{fill:#f4a07a;}.h{fill:#380d13;}.i{fill:#dddcdb;}.j{fill:#912f2a;}.k{fill:#d33947;}.l{fill:#e67583;}.m{fill:#f04c45;}.n{fill:#161218;}</style><clipPath id="a"><rect class="a" width="39.13" height="40" transform="translate(858 11905)"/></clipPath></defs><g transform="translate(-848 -11895)"><g transform="translate(754 3460)"><circle class="b" cx="32.5" cy="32.5" r="32.5" transform="translate(94 8435)"/></g><g class="c" transform="translate(3 3)"><g transform="translate(863.623 11905)"><g transform="translate(0 0)"><path class="d" d="M64.447,63.845H54.672A4.543,4.543,0,0,1,50.128,59.3V49.487H68.574V59.718A4.127,4.127,0,0,1,64.447,63.845Z" transform="translate(-45.84 -38.235)"/><path class="e" d="M73.082,80.627,45.2,80.157V77.191C45.2,72.348,51.15,67.83,57,67.83h4.4c5.2,0,11.681,4.549,11.681,8.852Z" transform="translate(-45.196 -40.627)"/><path class="f" d="M62.117,60.775H58.565a1.3,1.3,0,0,0-1.3,1.3v5.568a3.075,3.075,0,0,0,6.149,0V62.074A1.3,1.3,0,0,0,62.117,60.775Z" transform="translate(-46.771 -39.707)"/><path class="g" d="M57.266,67.782s.249,1.811,3.075,1.811,3.075-1.811,3.075-1.811Z" transform="translate(-46.771 -40.621)"/><path class="g" d="M70.671,52.745a2.02,2.02,0,1,0,1.942,2.019A1.982,1.982,0,0,0,70.671,52.745Z" transform="translate(-48.266 -38.659)"/><path class="g" d="M50.359,52.745A2.02,2.02,0,1,0,52.3,54.764,1.982,1.982,0,0,0,50.359,52.745Z" transform="translate(-45.616 -38.659)"/><path class="f" d="M58.8,64.917l-.015.015c.238.021.479.034.722.034a8.362,8.362,0,0,0,2.121-.273l.009-.019a8.954,8.954,0,0,0,6.536-8.734V45.385c0-4.976-3.88-4.183-8.665-4.183s-8.665-.793-8.665,4.183V55.941A8.876,8.876,0,0,0,58.8,64.917Z" transform="translate(-45.932 -37.148)"/><path class="h" d="M67.061,53.925v2.849H63.347s-.762-2.056-3.845-2.056-3.845,2.056-3.845,2.056H51.944V53.925c0-1.123-.411-1.493-1.107-1.616V57.4A8.876,8.876,0,0,0,58.8,66.372l-.015.015c.238.021.479.034.722.034s.484-.013.722-.034l-.015-.015A8.876,8.876,0,0,0,68.168,57.4V52.309C67.473,52.432,67.061,52.8,67.061,53.925Z" transform="translate(-45.932 -38.603)"/><path class="i" d="M57.719,58.863h5.213a2.683,2.683,0,0,1-5.213,0Z" transform="translate(-46.83 -39.457)"/><path class="g" d="M60.776,55.867h-.5a.987.987,0,0,1-.979-1.109l.251-2.008a.986.986,0,0,1,1.957,0l.251,2.008A.986.986,0,0,1,60.776,55.867Z" transform="translate(-47.034 -38.547)"/><path class="j" d="M61.164,38.045H59.345a.734.734,0,0,1-.732-.731V37.28a.734.734,0,0,1,.732-.732h1.819a.734.734,0,0,1,.732.731v.034A.734.734,0,0,1,61.164,38.045Z" transform="translate(-46.946 -36.547)"/><path class="k" d="M50.128,47.946l18.445-.009V45.757a8.094,8.094,0,0,0-8.1-8.09H58.217a8.094,8.094,0,0,0-8.09,8.1Z" transform="translate(-45.84 -36.693)"/><path class="h" d="M60.863,43.162H59.329a2.5,2.5,0,0,0-2.5,2.5v1.726l6.539,0V45.663A2.5,2.5,0,0,0,60.863,43.162Z" transform="translate(-46.714 -37.41)"/><path class="l" d="M56.8,46.491l6.442,0v2.164l-6.443,0a1.082,1.082,0,1,1,0-2.164Z" transform="translate(-46.569 -37.843)"/><path class="m" d="M58.012,47.7a.527.527,0,1,1-.527-.526A.527.527,0,0,1,58.012,47.7Z" transform="translate(-46.731 -37.933)"/><path class="k" d="M58.012,47.7a.527.527,0,1,1-.527-.526A.527.527,0,0,1,58.012,47.7Z" transform="translate(-46.731 -37.933)"/><path class="k" d="M60.5,47.7a.527.527,0,1,1-.527-.526A.527.527,0,0,1,60.5,47.7Z" transform="translate(-47.055 -37.933)"/><path class="k" d="M62.982,47.7a.527.527,0,1,1-.527-.526A.527.527,0,0,1,62.982,47.7Z" transform="translate(-47.379 -37.933)"/><path class="n" d="M56.649,51.76a.8.8,0,1,1-.8-.8A.8.8,0,0,1,56.649,51.76Z" transform="translate(-46.481 -38.426)"/><path class="n" d="M65.808,51.76a.8.8,0,1,1-.8-.8A.8.8,0,0,1,65.808,51.76Z" transform="translate(-47.676 -38.426)"/><path class="h" d="M64.082,45.932A3.032,3.032,0,0,0,65.537,43.4l-2.03.577.428-1.752-1.8,1.853Z" transform="translate(-47.406 -37.287)"/></g></g></g></g></svg>