<svg xmlns="http://www.w3.org/2000/svg" xmlns:xlink="http://www.w3.org/1999/xlink" width="575.277" height="353.002" viewBox="0 0 575.277 353.002"><defs><style>.a{fill:none;}.b{fill:#37dfce;opacity:0.35;}.ap,.aq,.ay,.c{fill:#fff;}.d{fill:#f6f6f6;}.e{fill:#ae2e00;}.au,.f,.g{fill:#181818;}.f{font-size:14px;}.au,.f{font-family:NHaasGroteskDSPro-95Blk, Neue Haas Grotesk Display Pro;}.ap,.av,.ay,.g,.h,.j,.t{font-size:6px;}.ap,.g,.h,.j,.k,.u{font-family:NHaasGroteskDSPro-55Rg, Neue Haas Grotesk Display Pro;}.h{fill:#8f8f8f;}.aw,.i,.j,.k,.t,.u{fill:#222;}.i,.u{font-size:5px;}.ay,.i,.t{font-family:NHaasGroteskDSPro-75Bd, Neue Haas Grotesk Display Pro;}.aw,.k{font-size:4px;}.l{fill:#eee;}.m{fill:#d4d4d4;}.n{fill:#ff4a00;}.o{fill:#8db849;}.p{fill:#5a863e;}.q{fill:#fffffe;}.r{fill:#1a1919;}.s{clip-path:url(#c);}.v{fill:#6772e5;}.w{fill:#003087;}.x{fill:#009cde;}.y{fill:#012169;}.z{fill:#fba612;}.aa{fill:#f98500;}.ab{fill:#f46a26;}.ac{fill:#4db6e4;}.ad{fill:#2f86cc;}.ae{fill:#46a2d4;}.af{fill:#338fd9;}.ag{fill:#3c99e2;}.ah,.aj{fill:#ffd421;}.ai{fill:#be000a;}.aj,.am,.an{fill-rule:evenodd;}.ak{fill:#e6e7e7;}.al{fill:#78b9eb;}.am{fill:#787580;}.ao{fill:#212121;}.aq{stroke:#ae2e00;}.ar{fill:#3080f1;}.as{fill:#a6b5d5;}.at{fill:#f69331;}.au{font-size:11px;}.av{fill:#757575;}.av,.aw{font-family:NHaasGroteskDSPro-65Md, Neue Haas Grotesk Display Pro;font-weight:500;}.ax{fill:#4cd200;}.az{stroke:none;}.ba{filter:url(#f);}.bb{filter:url(#d);}.bc{filter:url(#a);}</style><filter id="a" x="15.718" y="21.973" width="522.095" height="331.029" filterUnits="userSpaceOnUse"><feOffset dy="10" input="SourceAlpha"/><feGaussianBlur stdDeviation="6" result="b"/><feFlood flood-opacity="0.11"/><feComposite operator="in" in2="b"/><feComposite in="SourceGraphic"/></filter><clipPath id="c"><rect class="a" width="354.035" height="89.914"/></clipPath><filter id="d" x="425.012" y="101.582" width="150.265" height="163.377" filterUnits="userSpaceOnUse"><feOffset dy="10" input="SourceAlpha"/><feGaussianBlur stdDeviation="6" result="e"/><feFlood flood-opacity="0.11"/><feComposite operator="in" in2="e"/><feComposite in="SourceGraphic"/></filter><filter id="f" x="86.336" y="182.441" width="103.625" height="58.668" filterUnits="userSpaceOnUse"><feOffset dy="9" input="SourceAlpha"/><feGaussianBlur stdDeviation="6.5" result="g"/><feFlood flood-opacity="0.161"/><feComposite operator="in" in2="g"/><feComposite in="SourceGraphic"/></filter></defs><g transform="translate(-67 -43675)"><path class="b" d="M114.4,118.251a2.448,2.448,0,1,1,2.447,2.5A2.476,2.476,0,0,1,114.4,118.251Zm-12.847,0a2.448,2.448,0,1,1,2.447,2.5A2.476,2.476,0,0,1,101.553,118.251Zm-12.235,0a2.448,2.448,0,1,1,2.447,2.5A2.476,2.476,0,0,1,89.318,118.251Zm-12.847,0a2.448,2.448,0,1,1,2.447,2.5A2.476,2.476,0,0,1,76.471,118.251Zm-12.847,0a2.448,2.448,0,1,1,2.447,2.5A2.476,2.476,0,0,1,63.624,118.251Zm-12.846,0a2.447,2.447,0,1,1,2.447,2.5A2.476,2.476,0,0,1,50.778,118.251Zm-12.847,0a2.447,2.447,0,1,1,2.447,2.5A2.476,2.476,0,0,1,37.93,118.251Zm-12.236,0a2.448,2.448,0,1,1,2.447,2.5A2.476,2.476,0,0,1,25.694,118.251Zm-12.847,0a2.448,2.448,0,1,1,2.447,2.5A2.476,2.476,0,0,1,12.847,118.251ZM0,118.251a2.476,2.476,0,0,1,2.447-2.5,2.5,2.5,0,0,1,0,5.005A2.475,2.475,0,0,1,0,118.251Zm114.4-10.634a2.448,2.448,0,1,1,2.447,2.5A2.475,2.475,0,0,1,114.4,107.617Zm-12.847,0a2.448,2.448,0,1,1,2.447,2.5A2.475,2.475,0,0,1,101.553,107.617Zm-12.235,0a2.448,2.448,0,1,1,2.447,2.5A2.476,2.476,0,0,1,89.318,107.617Zm-12.847,0a2.448,2.448,0,1,1,2.447,2.5A2.476,2.476,0,0,1,76.471,107.617Zm-12.847,0a2.448,2.448,0,1,1,2.447,2.5A2.476,2.476,0,0,1,63.624,107.617Zm-12.846,0a2.447,2.447,0,1,1,2.447,2.5A2.475,2.475,0,0,1,50.778,107.617Zm-12.847,0a2.447,2.447,0,1,1,2.447,2.5A2.475,2.475,0,0,1,37.93,107.617Zm-12.236,0a2.448,2.448,0,1,1,2.447,2.5A2.475,2.475,0,0,1,25.694,107.617Zm-12.847,0a2.448,2.448,0,1,1,2.447,2.5A2.475,2.475,0,0,1,12.847,107.617ZM0,107.617a2.475,2.475,0,0,1,2.447-2.5,2.5,2.5,0,0,1,0,5.005A2.475,2.475,0,0,1,0,107.617ZM114.4,97.605a2.448,2.448,0,1,1,2.447,2.5A2.475,2.475,0,0,1,114.4,97.605Zm-12.847,0a2.448,2.448,0,1,1,2.447,2.5A2.475,2.475,0,0,1,101.553,97.605Zm-12.235,0a2.448,2.448,0,1,1,2.447,2.5A2.476,2.476,0,0,1,89.318,97.605Zm-12.847,0a2.448,2.448,0,1,1,2.447,2.5A2.476,2.476,0,0,1,76.471,97.605Zm-12.847,0a2.448,2.448,0,1,1,2.447,2.5A2.476,2.476,0,0,1,63.624,97.605Zm-12.846,0a2.447,2.447,0,1,1,2.447,2.5A2.475,2.475,0,0,1,50.778,97.605Zm-12.847,0a2.447,2.447,0,1,1,2.447,2.5A2.475,2.475,0,0,1,37.93,97.605Zm-12.236,0a2.448,2.448,0,1,1,2.447,2.5A2.475,2.475,0,0,1,25.694,97.605Zm-12.847,0a2.448,2.448,0,1,1,2.447,2.5A2.475,2.475,0,0,1,12.847,97.605ZM0,97.605a2.475,2.475,0,0,1,2.447-2.5,2.5,2.5,0,0,1,0,5.005A2.475,2.475,0,0,1,0,97.605ZM114.4,86.967a2.448,2.448,0,1,1,2.447,2.5A2.475,2.475,0,0,1,114.4,86.967Zm-12.847,0A2.448,2.448,0,1,1,104,89.47,2.475,2.475,0,0,1,101.553,86.967Zm-12.235,0a2.448,2.448,0,1,1,2.447,2.5A2.476,2.476,0,0,1,89.318,86.967Zm-12.847,0a2.448,2.448,0,1,1,2.447,2.5A2.476,2.476,0,0,1,76.471,86.967Zm-12.847,0a2.448,2.448,0,1,1,2.447,2.5A2.476,2.476,0,0,1,63.624,86.967Zm-12.846,0a2.447,2.447,0,1,1,2.447,2.5A2.475,2.475,0,0,1,50.778,86.967Zm-12.847,0a2.447,2.447,0,1,1,2.447,2.5A2.475,2.475,0,0,1,37.93,86.967Zm-12.236,0a2.448,2.448,0,1,1,2.447,2.5A2.475,2.475,0,0,1,25.694,86.967Zm-12.847,0a2.448,2.448,0,1,1,2.447,2.5A2.475,2.475,0,0,1,12.847,86.967ZM0,86.967a2.475,2.475,0,0,1,2.447-2.5,2.5,2.5,0,0,1,0,5.005A2.475,2.475,0,0,1,0,86.967ZM114.4,76.332a2.448,2.448,0,1,1,2.447,2.5A2.475,2.475,0,0,1,114.4,76.332Zm-12.847,0a2.448,2.448,0,1,1,2.447,2.5A2.475,2.475,0,0,1,101.553,76.332Zm-12.235,0a2.448,2.448,0,1,1,2.447,2.5A2.475,2.475,0,0,1,89.318,76.332Zm-12.847,0a2.448,2.448,0,1,1,2.447,2.5A2.475,2.475,0,0,1,76.471,76.332Zm-12.847,0a2.448,2.448,0,1,1,2.447,2.5A2.476,2.476,0,0,1,63.624,76.332Zm-12.846,0a2.447,2.447,0,1,1,2.447,2.5A2.475,2.475,0,0,1,50.778,76.332Zm-12.847,0a2.447,2.447,0,1,1,2.447,2.5A2.475,2.475,0,0,1,37.93,76.332Zm-12.236,0a2.448,2.448,0,1,1,2.447,2.5A2.475,2.475,0,0,1,25.694,76.332Zm-12.847,0a2.448,2.448,0,1,1,2.447,2.5A2.475,2.475,0,0,1,12.847,76.332ZM0,76.332a2.475,2.475,0,0,1,2.447-2.5,2.5,2.5,0,0,1,0,5A2.475,2.475,0,0,1,0,76.332ZM114.4,65.7a2.448,2.448,0,1,1,2.447,2.5A2.475,2.475,0,0,1,114.4,65.7Zm-12.847,0A2.448,2.448,0,1,1,104,68.2,2.475,2.475,0,0,1,101.553,65.7Zm-12.235,0a2.448,2.448,0,1,1,2.447,2.5A2.476,2.476,0,0,1,89.318,65.7Zm-12.847,0a2.448,2.448,0,1,1,2.447,2.5A2.476,2.476,0,0,1,76.471,65.7Zm-12.847,0a2.448,2.448,0,1,1,2.447,2.5A2.476,2.476,0,0,1,63.624,65.7Zm-12.846,0a2.447,2.447,0,1,1,2.447,2.5A2.475,2.475,0,0,1,50.778,65.7Zm-12.847,0a2.447,2.447,0,1,1,2.447,2.5A2.475,2.475,0,0,1,37.93,65.7Zm-12.236,0a2.448,2.448,0,1,1,2.447,2.5A2.475,2.475,0,0,1,25.694,65.7Zm-12.847,0a2.448,2.448,0,1,1,2.447,2.5A2.475,2.475,0,0,1,12.847,65.7ZM0,65.7a2.475,2.475,0,0,1,2.447-2.5,2.5,2.5,0,0,1,0,5A2.475,2.475,0,0,1,0,65.7ZM114.4,55.061a2.448,2.448,0,1,1,2.447,2.5A2.475,2.475,0,0,1,114.4,55.061Zm-12.847,0a2.448,2.448,0,1,1,2.447,2.5A2.475,2.475,0,0,1,101.553,55.061Zm-12.235,0a2.448,2.448,0,1,1,2.447,2.5A2.476,2.476,0,0,1,89.318,55.061Zm-12.847,0a2.448,2.448,0,1,1,2.447,2.5A2.476,2.476,0,0,1,76.471,55.061Zm-12.847,0a2.448,2.448,0,1,1,2.447,2.5A2.476,2.476,0,0,1,63.624,55.061Zm-12.846,0a2.447,2.447,0,1,1,2.447,2.5A2.475,2.475,0,0,1,50.778,55.061Zm-12.847,0a2.447,2.447,0,1,1,2.447,2.5A2.475,2.475,0,0,1,37.93,55.061Zm-12.236,0a2.448,2.448,0,1,1,2.447,2.5A2.475,2.475,0,0,1,25.694,55.061Zm-12.847,0a2.448,2.448,0,1,1,2.447,2.5A2.475,2.475,0,0,1,12.847,55.061ZM0,55.061a2.475,2.475,0,0,1,2.447-2.5,2.5,2.5,0,0,1,0,5.005A2.475,2.475,0,0,1,0,55.061ZM114.4,44.424a2.448,2.448,0,1,1,2.447,2.5A2.475,2.475,0,0,1,114.4,44.424Zm-12.847,0a2.448,2.448,0,1,1,2.447,2.5A2.475,2.475,0,0,1,101.553,44.424Zm-12.235,0a2.448,2.448,0,1,1,2.447,2.5A2.476,2.476,0,0,1,89.318,44.424Zm-12.847,0a2.448,2.448,0,1,1,2.447,2.5A2.476,2.476,0,0,1,76.471,44.424Zm-12.847,0a2.448,2.448,0,1,1,2.447,2.5A2.476,2.476,0,0,1,63.624,44.424Zm-12.846,0a2.447,2.447,0,1,1,2.447,2.5A2.475,2.475,0,0,1,50.778,44.424Zm-12.847,0a2.447,2.447,0,1,1,2.447,2.5A2.475,2.475,0,0,1,37.93,44.424Zm-12.236,0a2.448,2.448,0,1,1,2.447,2.5A2.475,2.475,0,0,1,25.694,44.424Zm-12.847,0a2.448,2.448,0,1,1,2.447,2.5A2.475,2.475,0,0,1,12.847,44.424ZM0,44.424a2.475,2.475,0,0,1,2.447-2.5,2.5,2.5,0,0,1,0,5.005A2.475,2.475,0,0,1,0,44.424ZM114.4,34.412a2.448,2.448,0,1,1,2.447,2.5A2.475,2.475,0,0,1,114.4,34.412Zm-12.847,0a2.448,2.448,0,1,1,2.447,2.5A2.475,2.475,0,0,1,101.553,34.412Zm-12.235,0a2.448,2.448,0,1,1,2.447,2.5A2.476,2.476,0,0,1,89.318,34.412Zm-12.847,0a2.448,2.448,0,1,1,2.447,2.5A2.475,2.475,0,0,1,76.471,34.412Zm-12.847,0a2.448,2.448,0,1,1,2.447,2.5A2.476,2.476,0,0,1,63.624,34.412Zm-12.846,0a2.447,2.447,0,1,1,2.447,2.5A2.475,2.475,0,0,1,50.778,34.412Zm-12.847,0a2.447,2.447,0,1,1,2.447,2.5A2.475,2.475,0,0,1,37.93,34.412Zm-12.236,0a2.448,2.448,0,1,1,2.447,2.5A2.475,2.475,0,0,1,25.694,34.412Zm-12.847,0a2.448,2.448,0,1,1,2.447,2.5A2.475,2.475,0,0,1,12.847,34.412ZM0,34.412a2.475,2.475,0,0,1,2.447-2.5,2.5,2.5,0,0,1,0,5A2.475,2.475,0,0,1,0,34.412ZM114.4,23.779a2.448,2.448,0,1,1,2.447,2.5A2.475,2.475,0,0,1,114.4,23.779Zm-12.847,0a2.448,2.448,0,1,1,2.447,2.5A2.475,2.475,0,0,1,101.553,23.779Zm-12.235,0a2.448,2.448,0,1,1,2.447,2.5A2.476,2.476,0,0,1,89.318,23.779Zm-12.847,0a2.448,2.448,0,1,1,2.447,2.5A2.476,2.476,0,0,1,76.471,23.779Zm-12.847,0a2.448,2.448,0,1,1,2.447,2.5A2.476,2.476,0,0,1,63.624,23.779Zm-12.846,0a2.447,2.447,0,1,1,2.447,2.5A2.475,2.475,0,0,1,50.778,23.779Zm-12.847,0a2.447,2.447,0,1,1,2.447,2.5A2.475,2.475,0,0,1,37.93,23.779Zm-12.236,0a2.448,2.448,0,1,1,2.447,2.5A2.475,2.475,0,0,1,25.694,23.779Zm-12.847,0a2.448,2.448,0,1,1,2.447,2.5A2.475,2.475,0,0,1,12.847,23.779ZM0,23.779a2.475,2.475,0,0,1,2.447-2.5,2.5,2.5,0,0,1,0,5.005A2.475,2.475,0,0,1,0,23.779ZM114.4,13.14a2.448,2.448,0,1,1,2.447,2.5A2.475,2.475,0,0,1,114.4,13.14Zm-12.847,0a2.448,2.448,0,1,1,2.447,2.5A2.475,2.475,0,0,1,101.553,13.14Zm-12.235,0a2.448,2.448,0,1,1,2.447,2.5A2.476,2.476,0,0,1,89.318,13.14Zm-12.847,0a2.448,2.448,0,1,1,2.447,2.5A2.476,2.476,0,0,1,76.471,13.14Zm-12.847,0a2.448,2.448,0,1,1,2.447,2.5A2.476,2.476,0,0,1,63.624,13.14Zm-12.846,0a2.447,2.447,0,1,1,2.447,2.5A2.475,2.475,0,0,1,50.778,13.14Zm-12.847,0a2.447,2.447,0,1,1,2.447,2.5A2.475,2.475,0,0,1,37.93,13.14Zm-12.236,0a2.448,2.448,0,1,1,2.447,2.5A2.475,2.475,0,0,1,25.694,13.14Zm-12.847,0a2.448,2.448,0,1,1,2.447,2.5A2.475,2.475,0,0,1,12.847,13.14ZM0,13.14a2.475,2.475,0,0,1,2.447-2.5,2.5,2.5,0,0,1,0,5.005A2.475,2.475,0,0,1,0,13.14ZM114.4,2.5a2.448,2.448,0,1,1,4.894,0,2.448,2.448,0,1,1-4.894,0Zm-12.847,0a2.448,2.448,0,1,1,4.894,0,2.448,2.448,0,1,1-4.894,0Zm-12.235,0a2.448,2.448,0,1,1,4.894,0,2.448,2.448,0,1,1-4.894,0Zm-12.847,0a2.448,2.448,0,1,1,4.894,0,2.448,2.448,0,1,1-4.894,0Zm-12.847,0a2.448,2.448,0,1,1,4.894,0,2.448,2.448,0,1,1-4.894,0Zm-12.846,0a2.447,2.447,0,1,1,4.894,0,2.447,2.447,0,1,1-4.894,0ZM37.93,2.5a2.447,2.447,0,1,1,4.894,0,2.447,2.447,0,1,1-4.894,0Zm-12.236,0a2.448,2.448,0,1,1,4.894,0,2.448,2.448,0,1,1-4.894,0Zm-12.847,0a2.448,2.448,0,1,1,4.894,0,2.448,2.448,0,1,1-4.894,0ZM0,2.5A2.475,2.475,0,0,1,2.447,0,2.475,2.475,0,0,1,4.894,2.5a2.475,2.475,0,0,1-2.447,2.5A2.475,2.475,0,0,1,0,2.5Z" transform="translate(67 43675)"/><g transform="translate(100.718 43704.973)"><g class="bc" transform="matrix(1, 0, 0, 1, -33.72, -29.97)"><rect class="c" width="486.095" height="295.029" rx="5" transform="translate(33.72 29.97)"/></g><g transform="translate(0 -0.002)"><rect class="d" width="486.095" height="295.029" rx="5" transform="translate(0 0)"/><g transform="translate(16.742 18.266)"><path class="e" d="M168.748-3022.875a3.263,3.263,0,0,0-1.893-.551,3.428,3.428,0,0,0-3.421,3.613,3.41,3.41,0,0,0,3.421,3.632,3.332,3.332,0,0,0,1.893-.541v.33H170.9v-7.005h-2.155Zm-26.315,2.056c-.894-.165-1.73-.24-1.73-.734,0-.442.423-.677.974-.677.619,0,1.082.165,1.129.856h2.062c-.11-1.393-1.182-2.258-3.176-2.258-1.664,0-3.133.7-3.133,2.183,0,1.646,1.4,1.976,2.624,2.178.935.165,1.788.235,1.788.865,0,.457-.426.7-1.1.7-.742,0-1.22-.2-1.256-.847h-2.191c.047,1.557,1.4,2.305,3.46,2.305,1.842,0,3.2-.8,3.2-2.338C145.088-3020.189,143.671-3020.613,142.433-3020.819Zm13.065-2.748h-.088a3.579,3.579,0,0,0-3.561,3.562c0,.028,0,.056,0,.089s0,.066,0,.1a3.567,3.567,0,0,0,3.55,3.547h.086a3.489,3.489,0,0,0,3.474-2.277h-2.192a1.575,1.575,0,0,1-1.281.522,1.526,1.526,0,0,1-1.481-1.331h5.046v-.565A3.49,3.49,0,0,0,155.5-3023.567Zm-20.878,0h-.087a3.579,3.579,0,0,0-3.561,3.562c0,.028,0,.056,0,.089s0,.066,0,.1a3.567,3.567,0,0,0,3.55,3.547h.086a3.489,3.489,0,0,0,3.474-2.277h-2.192a1.575,1.575,0,0,1-1.281.522,1.526,1.526,0,0,1-1.481-1.331h5.046v-.565a3.491,3.491,0,0,0-3.554-3.646Zm-8.988-1.985H122.01v9.16h3.623c3.021,0,5.017-1.858,5.017-4.582S128.653-3025.552,125.633-3025.552Zm34.091,4.8v4.22h2.155v-3.646c0-1.171.173-1.6,1.179-1.6h.033v-1.769C160.383-3023.548,159.724-3022.179,159.724-3020.749Zm-6.945-2.785h-2.773l-2.27,2.432-.006-5.528h-2.285v10.1h2.29l.007-2.527,2.333,2.527h2.934l-3.38-3.67Zm15.745,4.484a1.568,1.568,0,0,1-1.466.88.346.346,0,0,1-.067,0,1.62,1.62,0,0,1-1.611-1.614c0-.019,0-.042,0-.061v-.014c0-.019,0-.037,0-.061a1.665,1.665,0,0,1,1.658-1.656h.009a1.619,1.619,0,0,1,1.537.974,1.71,1.71,0,0,1,.151.772,1.9,1.9,0,0,1-.21.776Zm-42.938.635H124.3v-5.25h1.287a2.572,2.572,0,0,1,2.832,2.625A2.572,2.572,0,0,1,125.586-3018.416Zm28.554-2.286a1.5,1.5,0,0,1,1.443-1.077,1.372,1.372,0,0,1,1.375,1.077Zm-20.983,0a1.5,1.5,0,0,1,1.442-1.077,1.372,1.372,0,0,1,1.375,1.077Z" transform="translate(-122.01 3026.629)"/></g><rect class="c" width="216.354" height="19.669" rx="5" transform="translate(134.87 67.437)"/><text class="f" transform="translate(194.813 42.036)"><tspan x="0" y="0">Explore Apps</tspan></text><text class="g" transform="translate(167.651 55.578)"><tspan x="0" y="0">Explore our accounting softwares for small business.</tspan></text><text class="h" transform="translate(141.427 78.993)"><tspan x="0" y="0">Search All Applications</tspan></text><text class="i" transform="translate(16.859 84.613)"><tspan x="0" y="0">All Apps</tspan></text><text class="j" transform="translate(16.859 100.535)"><tspan x="0" y="0">e-commerce</tspan></text><text class="j" transform="translate(16.859 114.584)"><tspan x="0" y="0">Integration</tspan></text><text class="j" transform="translate(16.859 129.57)"><tspan x="0" y="0">Tracking</tspan></text><text class="j" transform="translate(16.859 144.555)"><tspan x="0" y="0">Inventory Fixed Assets</tspan></text><rect class="c" width="85.231" height="98.343" rx="5" transform="translate(110.519 103.028)"/><text class="i" transform="translate(118.948 133.316)"><tspan x="0" y="0">Fedex</tspan></text><text class="k" transform="translate(118.948 139.809)"><tspan x="0" y="0">Tracking</tspan></text><rect class="l" width="56.196" height="6.556" rx="3.278" transform="translate(118.948 157.351)"/><rect class="l" width="20.605" height="8.429" rx="2" transform="translate(168.588 184.512)"/><rect class="l" width="36.527" height="5.62" rx="2.81" transform="translate(118.948 167.653)"/><path class="m" d="M2.81,0l.773,2.32L5.62,2.5,4.06,4.123l.486,2.434L2.81,5.237,1.073,6.556,1.56,4.123,0,2.5,2.037,2.32Z" transform="translate(118.948 185.449)"/><path class="m" d="M3.278,0l.9,2.32L6.556,2.5,4.737,4.123,5.3,6.556,3.278,5.237,1.252,6.556l.567-2.434L0,2.5,2.377,2.32Z" transform="translate(125.504 185.449)"/><path class="m" d="M3.278,0l.9,2.32L6.556,2.5,4.737,4.123,5.3,6.556,3.278,5.237,1.252,6.556l.567-2.434L0,2.5,2.377,2.32Z" transform="translate(132.061 185.449)"/><path class="m" d="M2.81,0l.773,2.32L5.62,2.5,4.06,4.123l.486,2.434L2.81,5.237,1.073,6.556,1.56,4.123,0,2.5,2.037,2.32Z" transform="translate(139.553 185.449)"/><path class="m" d="M3.278,0l.9,2.32L6.556,2.5,4.737,4.123,5.3,6.556,3.278,5.237,1.252,6.556l.567-2.434L0,2.5,2.377,2.32Z" transform="translate(146.11 185.449)"/><text class="k" transform="translate(172.334 190.385)"><tspan x="0" y="0">FREE</tspan></text><rect class="c" width="85.231" height="98.343" rx="5" transform="translate(200.432 103.028)"/><text class="i" transform="translate(208.862 133.316)"><tspan x="0" y="0">USPS</tspan></text><text class="k" transform="translate(208.862 139.809)"><tspan x="0" y="0">Tracking</tspan></text><rect class="l" width="56.196" height="6.556" rx="3.278" transform="translate(208.862 157.351)"/><rect class="l" width="19.669" height="8.429" rx="2" transform="translate(258.501 184.512)"/><rect class="l" width="36.527" height="5.62" rx="2.81" transform="translate(208.862 167.653)"/><path class="m" d="M2.81,0l.773,2.32L5.62,2.5,4.06,4.123l.486,2.434L2.81,5.237,1.073,6.556,1.56,4.123,0,2.5,2.037,2.32Z" transform="translate(208.862 185.449)"/><path class="m" d="M2.81,0l.773,2.32L5.62,2.5,4.06,4.123l.486,2.434L2.81,5.237,1.073,6.556,1.56,4.123,0,2.5,2.037,2.32Z" transform="translate(215.418 185.449)"/><path class="m" d="M3.278,0l.9,2.32L6.556,2.5,4.737,4.123,5.3,6.556,3.278,5.237,1.252,6.556l.567-2.434L0,2.5,2.377,2.32Z" transform="translate(221.974 185.449)"/><path class="m" d="M2.81,0l.773,2.32L5.62,2.5,4.06,4.123l.486,2.434L2.81,5.237,1.073,6.556,1.56,4.123,0,2.5,2.037,2.32Z" transform="translate(229.467 185.449)"/><path class="m" d="M2.81,0l.773,2.32L5.62,2.5,4.06,4.123l.486,2.434L2.81,5.237,1.073,6.556,1.56,4.123,0,2.5,2.037,2.32Z" transform="translate(236.023 185.449)"/><text class="k" transform="translate(262.248 190.385)"><tspan x="0" y="0">FREE</tspan></text><rect class="c" width="85.231" height="98.343" rx="5" transform="translate(290.346 103.028)"/><text class="i" transform="translate(298.775 133.316)"><tspan x="0" y="0">Zapier</tspan></text><text class="k" transform="translate(298.775 139.809)"><tspan x="0" y="0">Integration</tspan></text><rect class="l" width="56.196" height="6.556" rx="3.278" transform="translate(298.775 157.351)"/><rect class="l" width="19.669" height="8.429" rx="2" transform="translate(348.415 184.512)"/><rect class="l" width="36.527" height="5.62" rx="2.81" transform="translate(298.775 167.653)"/><path class="m" d="M2.81,0l.773,2.32L5.62,2.5,4.06,4.123l.486,2.434L2.81,5.237,1.073,6.556,1.56,4.123,0,2.5,2.037,2.32Z" transform="translate(298.775 185.449)"/><path class="m" d="M2.81,0l.773,2.32L5.62,2.5,4.06,4.123l.486,2.434L2.81,5.237,1.073,6.556,1.56,4.123,0,2.5,2.037,2.32Z" transform="translate(305.331 185.449)"/><path class="m" d="M3.278,0l.9,2.32L6.556,2.5,4.737,4.123,5.3,6.556,3.278,5.237,1.252,6.556l.567-2.434L0,2.5,2.377,2.32Z" transform="translate(311.888 185.449)"/><path class="m" d="M3.278,0l.9,2.32L6.556,2.5,4.737,4.123,5.3,6.556,3.278,5.237,1.252,6.556l.567-2.434L0,2.5,2.377,2.32Z" transform="translate(318.444 185.449)"/><path class="m" d="M2.81,0l.773,2.32L5.62,2.5,4.06,4.123l.486,2.434L2.81,5.237,1.073,6.556,1.56,4.123,0,2.5,2.037,2.32Z" transform="translate(325.937 185.449)"/><text class="k" transform="translate(351.225 190.385)"><tspan x="0" y="0">FREE</tspan></text><rect class="c" width="85.231" height="98.343" rx="5" transform="translate(379.323 103.028)"/><text class="i" transform="translate(387.752 133.316)"><tspan x="0" y="0">Shopify</tspan></text><text class="k" transform="translate(387.752 139.809)"><tspan x="0" y="0">e-commerce</tspan></text><rect class="l" width="57.133" height="6.556" rx="3.278" transform="translate(387.752 157.351)"/><rect class="l" width="19.669" height="8.429" rx="2" transform="translate(438.329 184.512)"/><rect class="l" width="36.527" height="5.62" rx="2.81" transform="translate(387.752 167.653)"/><path class="m" d="M3.278,0l.9,2.32L6.556,2.5,4.737,4.123,5.3,6.556,3.278,5.237,1.252,6.556l.567-2.434L0,2.5,2.377,2.32Z" transform="translate(387.752 185.449)"/><path class="m" d="M2.81,0l.773,2.32L5.62,2.5,4.06,4.123l.486,2.434L2.81,5.237,1.073,6.556,1.56,4.123,0,2.5,2.037,2.32Z" transform="translate(395.245 185.449)"/><path class="m" d="M3.278,0l.9,2.32L6.556,2.5,4.737,4.123,5.3,6.556,3.278,5.237,1.252,6.556l.567-2.434L0,2.5,2.377,2.32Z" transform="translate(401.801 185.449)"/><path class="m" d="M3.278,0l.9,2.32L6.556,2.5,4.737,4.123,5.3,6.556,3.278,5.237,1.252,6.556l.567-2.434L0,2.5,2.377,2.32Z" transform="translate(408.357 185.449)"/><path class="m" d="M2.81,0l.773,2.32L5.62,2.5,4.06,4.123l.486,2.434L2.81,5.237,1.073,6.556,1.56,4.123,0,2.5,2.037,2.32Z" transform="translate(415.85 185.449)"/><text class="k" transform="translate(441.138 190.385)"><tspan x="0" y="0">FREE</tspan></text><g transform="translate(298.314 112.965)"><g transform="translate(0 0)"><g transform="translate(0 0)"><g transform="translate(0 0)"><path class="n" d="M0,117.8l2.68-4.17H.318a2.427,2.427,0,0,1-.03-.4,2.363,2.363,0,0,1,.03-.387H4.14l.05.129-2.7,4.179H4.021a2.743,2.743,0,0,1,.03.407,2.3,2.3,0,0,1-.03.377H.05Z" transform="translate(0 -108.481)"/><path class="n" d="M124.682,112.6q-.149-.02-.377-.04t-.387-.02a1.615,1.615,0,0,0-.938.228.794.794,0,0,0-.323.695.852.852,0,0,0,.109.467.751.751,0,0,0,.273.258.944.944,0,0,0,.362.109q.2.02.377.02a4.625,4.625,0,0,0,.472-.025,2.826,2.826,0,0,0,.432-.074Zm0-.963a.969.969,0,0,0-.3-.814,1.4,1.4,0,0,0-.864-.228,3.672,3.672,0,0,0-.65.055,4.975,4.975,0,0,0-.591.144,1.545,1.545,0,0,1-.189-.784,4.566,4.566,0,0,1,.745-.169,5.416,5.416,0,0,1,.784-.06,2.229,2.229,0,0,1,1.509.452,1.826,1.826,0,0,1,.516,1.444v3.187q-.348.079-.844.164a6.047,6.047,0,0,1-1.013.084,3.962,3.962,0,0,1-.879-.089,1.794,1.794,0,0,1-.665-.288,1.333,1.333,0,0,1-.422-.506,1.7,1.7,0,0,1-.149-.745,1.517,1.517,0,0,1,.645-1.286,2.1,2.1,0,0,1,.685-.318,3.117,3.117,0,0,1,.814-.1q.318,0,.521.015t.342.035Z" transform="translate(-116.949 -105.533)"/><path class="n" d="M252.511,114.16a1.948,1.948,0,0,0,.387.1,3.614,3.614,0,0,0,.516.03,1.816,1.816,0,0,0,.655-.114,1.3,1.3,0,0,0,.511-.352,1.724,1.724,0,0,0,.338-.6,2.657,2.657,0,0,0,.124-.859,2.356,2.356,0,0,0-.293-1.261,1.045,1.045,0,0,0-.958-.467,1.294,1.294,0,0,0-.476.089,1.175,1.175,0,0,0-.407.268,1.326,1.326,0,0,0-.288.452,1.746,1.746,0,0,0-.109.65Zm-.983-4.259q.1-.02.2-.03c.07-.006.141-.01.213-.01s.136,0,.209.01a2.037,2.037,0,0,1,.208.03.626.626,0,0,1,.025.124q.015.1.03.223t.03.228q.015.109.015.139a2.009,2.009,0,0,1,.238-.308,1.589,1.589,0,0,1,.333-.268,1.74,1.74,0,0,1,.437-.189,1.969,1.969,0,0,1,.541-.07,2.264,2.264,0,0,1,.829.149,1.657,1.657,0,0,1,.655.461,2.22,2.22,0,0,1,.427.794,3.748,3.748,0,0,1,.154,1.137,2.839,2.839,0,0,1-.71,2.05,2.655,2.655,0,0,1-2.01.74,3.455,3.455,0,0,1-.447-.03,2.659,2.659,0,0,1-.4-.079v2.333q-.119.02-.253.03t-.243.01q-.109,0-.243-.01a2.4,2.4,0,0,1-.243-.03Z" transform="translate(-241.76 -105.533)"/><path class="n" d="M383.091,113.623h-.645a1.243,1.243,0,0,1-.03-.184q-.01-.1-.01-.2c0-.066,0-.134.01-.2a1.25,1.25,0,0,1,.03-.184h1.608v5.093a2.4,2.4,0,0,1-.243.03q-.134.01-.243.01t-.233-.01a2.4,2.4,0,0,1-.243-.03Z" transform="translate(-367.554 -108.481)"/><path class="n" d="M456.008,111.957a1.877,1.877,0,0,0-.074-.531,1.354,1.354,0,0,0-.218-.442,1.065,1.065,0,0,0-.367-.3,1.154,1.154,0,0,0-.531-.114,1.17,1.17,0,0,0-.928.367,1.8,1.8,0,0,0-.392,1.023Zm-2.522.735a1.663,1.663,0,0,0,.432,1.221,1.715,1.715,0,0,0,1.216.387,3.651,3.651,0,0,0,1.34-.248,1.488,1.488,0,0,1,.129.362,2.361,2.361,0,0,1,.06.422,3.316,3.316,0,0,1-.72.209,5.011,5.011,0,0,1-.869.069,3.281,3.281,0,0,1-1.191-.194,2.093,2.093,0,0,1-1.291-1.38,3.57,3.57,0,0,1-.149-1.057,3.743,3.743,0,0,1,.144-1.057,2.382,2.382,0,0,1,.442-.854,2.133,2.133,0,0,1,.75-.576,2.475,2.475,0,0,1,1.067-.214,2.231,2.231,0,0,1,.923.179,1.877,1.877,0,0,1,.665.491,2.135,2.135,0,0,1,.407.744,3.05,3.05,0,0,1,.139.938q0,.139-.01.293t-.02.263Z" transform="translate(-434.873 -105.533)"/><path class="n" d="M597.137,111.867q.109-.02.208-.03c.066-.006.136-.01.208-.01s.146,0,.218.01a1.617,1.617,0,0,1,.2.03q.03.149.06.392a3.491,3.491,0,0,1,.03.412,2.054,2.054,0,0,1,.551-.586,1.461,1.461,0,0,1,.878-.248q.08,0,.164.005c.056,0,.1.008.144.015a1.622,1.622,0,0,1,.03.189q.01.1.01.208a2.172,2.172,0,0,1-.015.248q-.015.129-.035.248a.684.684,0,0,0-.164-.02h-.134a1.741,1.741,0,0,0-.511.074,1.07,1.07,0,0,0-.437.263,1.307,1.307,0,0,0-.308.516,2.606,2.606,0,0,0-.114.844v2.532a2.4,2.4,0,0,1-.243.03q-.134.01-.243.01t-.243-.01q-.134-.01-.253-.03Z" transform="translate(-573.947 -107.499)"/><path class="n" d="M366.75,2.022a.987.987,0,0,1-.063.348.986.986,0,0,1-.348.063h0a.987.987,0,0,1-.348-.063.987.987,0,0,1-.063-.348v0a.987.987,0,0,1,.063-.348.986.986,0,0,1,.348-.063h0a.986.986,0,0,1,.348.063.987.987,0,0,1,.063.348Zm1.213-.275H367l.68-.68A1.657,1.657,0,0,0,367.5.856h0a1.659,1.659,0,0,0-.21-.178l-.68.68V.4a1.662,1.662,0,0,0-.274-.023h0a1.662,1.662,0,0,0-.274.023v.962l-.68-.68a1.65,1.65,0,0,0-.21.178h0a1.65,1.65,0,0,0-.178.21l.68.68h-.962s-.023.181-.023.274h0a1.65,1.65,0,0,0,.023.274h.962l-.68.68a1.66,1.66,0,0,0,.388.388l.68-.68v.962a1.653,1.653,0,0,0,.273.023h0a1.651,1.651,0,0,0,.273-.023V2.684l.68.68a1.655,1.655,0,0,0,.21-.178h0a1.663,1.663,0,0,0,.178-.21L367,2.3h.962a1.655,1.655,0,0,0,.023-.273v0A1.656,1.656,0,0,0,367.963,1.747Z" transform="translate(-350.526 -0.373)"/></g></g></g></g><g transform="translate(387.749 115.079)"><path class="o" d="M3.98.416c.07,0,.106.035.176.07A2.044,2.044,0,0,0,3.1,2.107l-.775.211C2.571,1.613,3.064.416,3.98.416Zm.387.352a2.456,2.456,0,0,1,.141.845v.07l-1.021.282A1.689,1.689,0,0,1,4.367.768Zm.916.634-.458.141V1.437A2.421,2.421,0,0,0,4.72.662,1.061,1.061,0,0,1,5.283,1.4Zm2.289.564A.076.076,0,0,0,7.5,1.9c-.07,0-.81-.07-.81-.07s-.528-.528-.6-.564c-.07-.07-.176-.035-.211-.035,0,0-.106.035-.282.106C5.424.839,5.107.381,4.579.381H4.543A.623.623,0,0,0,4.015.1C2.747.064,2.148,1.649,1.937,2.459c-.282.07-.564.176-.881.282-.282.07-.282.106-.317.352C.7,3.269,0,8.834,0,8.834L5.6,9.89l3.029-.669S7.572,2.036,7.572,1.966Z" transform="translate(0 -0.098)"/><path class="p" d="M17.767,3.969c-.035,0-.775-.07-.775-.07s-.528-.528-.6-.564c-.035-.035-.035-.035-.07-.035L15.9,11.964l3.029-.669S17.872,4.11,17.872,4.04c0-.035-.07-.07-.106-.07" transform="translate(-10.3 -2.172)"/><path class="q" d="M6.976,9.732l-.387,1.127a1.67,1.67,0,0,0-.74-.176c-.6,0-.634.352-.634.458,0,.493,1.338.7,1.338,1.9a1.41,1.41,0,0,1-1.409,1.55,1.936,1.936,0,0,1-1.444-.6l.247-.845a1.8,1.8,0,0,0,.916.423.368.368,0,0,0,.387-.387c0-.669-1.092-.7-1.092-1.8a1.808,1.808,0,0,1,1.972-1.8,1.4,1.4,0,0,1,.845.141" transform="translate(-2.397 -6.245)"/><path class="r" d="M30.648,9.163c-.317-.176-.458-.317-.458-.493,0-.247.211-.387.564-.387a1.873,1.873,0,0,1,.74.176l.282-.845a1.607,1.607,0,0,0-.986-.211c-1.057,0-1.761.6-1.761,1.444A1.317,1.317,0,0,0,29.8,9.938c.352.211.493.352.493.564s-.176.423-.528.423a2.55,2.55,0,0,1-.986-.247l-.282.845a2.229,2.229,0,0,0,1.162.282c1.057,0,1.831-.528,1.831-1.479a1.384,1.384,0,0,0-.845-1.162m4.262-1.8A1.6,1.6,0,0,0,33.642,8h0l.458-2.4H32.9L31.74,11.7h1.2l.387-2.078c.141-.775.564-1.268.951-1.268.282,0,.387.176.387.458a2.666,2.666,0,0,1-.035.528l-.458,2.4h1.2l.458-2.465a6.326,6.326,0,0,0,.07-.775c0-.7-.352-1.127-.986-1.127m3.064,3.487c-.423,0-.564-.352-.564-.775,0-.669.352-1.8.986-1.8.423,0,.564.352.564.7C38.961,9.762,38.608,10.854,37.974,10.854Zm.6-3.487a2.554,2.554,0,0,0-2.4,2.747,1.552,1.552,0,0,0,1.655,1.655,2.529,2.529,0,0,0,2.36-2.747A1.539,1.539,0,0,0,38.573,7.367ZM42.1,10.889a.729.729,0,0,1-.493-.176l.211-1.127c.141-.74.528-1.233.951-1.233.352,0,.493.352.493.669C43.222,9.8,42.764,10.889,42.1,10.889Zm1.162-3.522a1.639,1.639,0,0,0-1.268.7h0l.07-.634H41a14.583,14.583,0,0,1-.247,1.585l-.845,4.367h1.2l.317-1.761h.035a1.521,1.521,0,0,0,.7.141c1.409,0,2.325-1.444,2.325-2.888C44.49,8.106,44.138,7.367,43.258,7.367Zm2.923-1.691a.677.677,0,0,0-.669.7.546.546,0,0,0,.564.6h0a.665.665,0,0,0,.7-.7.573.573,0,0,0-.6-.6M44.525,11.7h1.2l.81-4.227h-1.2Zm5.037-4.227h-.845l.035-.211c.07-.423.317-.775.7-.775a1.163,1.163,0,0,1,.387.07l.247-.951a1.534,1.534,0,0,0-.634-.106,1.72,1.72,0,0,0-1.162.387,2.268,2.268,0,0,0-.7,1.338l-.035.211h-.564l-.176.916h.564L46.744,11.7h1.2l.634-3.346h.81Zm2.853,0s-.74,1.867-1.092,2.888h0c-.035-.317-.282-2.888-.282-2.888H49.773l.7,3.874a.447.447,0,0,1-.035.211,2.034,2.034,0,0,1-.634.7,2.471,2.471,0,0,1-.669.352l.317,1.021A2.556,2.556,0,0,0,50.619,13a7.8,7.8,0,0,0,1.55-2.36l1.444-3.135Z" transform="translate(-18.462 -3.597)"/></g><g class="s" transform="translate(110.519 205.119)"><g transform="translate(-0.185 0.383)"><rect class="c" width="91" height="105" rx="5" transform="translate(0.185 -0.379)"/><text class="t" transform="translate(9.184 33.617)"><tspan x="0" y="0">Stock Transfer</tspan></text><text class="u" transform="translate(9.184 40.617)"><tspan x="0" y="0">Inventory/Fixed Assets</tspan></text><rect class="l" width="60" height="6" rx="3" transform="translate(9.185 58.621)"/><rect class="l" width="22" height="9" rx="2" transform="translate(62.185 87.621)"/><rect class="l" width="39" height="7" rx="3.5" transform="translate(9.185 68.621)"/><path class="m" d="M3,0l.825,2.123L6,2.292,4.335,3.773,4.854,6,3,4.793,1.146,6l.519-2.227L0,2.292l2.175-.169Z" transform="translate(9.184 88.617)"/><path class="m" d="M3.5,0l.963,2.123L7,2.292,5.057,3.773,5.663,6,3.5,4.793,1.337,6l.606-2.227L0,2.292l2.537-.169Z" transform="translate(16.184 88.617)"/><path class="m" d="M3.5,0l.963,2.123L7,2.292,5.057,3.773,5.663,6,3.5,4.793,1.337,6l.606-2.227L0,2.292l2.537-.169Z" transform="translate(23.184 88.617)"/><path class="m" d="M3,0l.825,2.123L6,2.292,4.335,3.773,4.854,6,3,4.793,1.146,6l.519-2.227L0,2.292l2.175-.169Z" transform="translate(31.184 88.617)"/><path class="m" d="M3.5,0l.963,2.123L7,2.292,5.057,3.773,5.663,6,3.5,4.793,1.337,6l.606-2.227L0,2.292l2.537-.169Z" transform="translate(38.184 88.617)"/><text class="u" transform="translate(66.184 94.617)"><tspan x="0" y="0">FREE</tspan></text><rect class="c" width="91" height="105" rx="5" transform="translate(96.185 -0.379)"/><text class="t" transform="translate(105.184 33.617)"><tspan x="0" y="0">Stock Adjustment</tspan></text><text class="u" transform="translate(105.184 40.617)"><tspan x="0" y="0">Inventory/Fixed Assets</tspan></text><rect class="l" width="60" height="6" rx="3" transform="translate(105.185 58.621)"/><rect class="l" width="21" height="9" rx="2" transform="translate(158.185 87.621)"/><rect class="l" width="39" height="7" rx="3.5" transform="translate(105.185 68.621)"/><path class="m" d="M3,0l.825,2.123L6,2.292,4.335,3.773,4.854,6,3,4.793,1.146,6l.519-2.227L0,2.292l2.175-.169Z" transform="translate(105.184 88.617)"/><path class="m" d="M3,0l.825,2.123L6,2.292,4.335,3.773,4.854,6,3,4.793,1.146,6l.519-2.227L0,2.292l2.175-.169Z" transform="translate(112.184 88.617)"/><path class="m" d="M3.5,0l.963,2.123L7,2.292,5.057,3.773,5.663,6,3.5,4.793,1.337,6l.606-2.227L0,2.292l2.537-.169Z" transform="translate(119.184 88.617)"/><path class="m" d="M3,0l.825,2.123L6,2.292,4.335,3.773,4.854,6,3,4.793,1.146,6l.519-2.227L0,2.292l2.175-.169Z" transform="translate(127.184 88.617)"/><path class="m" d="M3,0l.825,2.123L6,2.292,4.335,3.773,4.854,6,3,4.793,1.146,6l.519-2.227L0,2.292l2.175-.169Z" transform="translate(134.184 88.617)"/><text class="u" transform="translate(162.184 94.617)"><tspan x="0" y="0">FREE</tspan></text><rect class="c" width="91" height="105" rx="5" transform="translate(192.185 -0.379)"/><text class="t" transform="translate(201.184 33.617)"><tspan x="0" y="0">Stripe Connect</tspan></text><text class="u" transform="translate(201.184 40.617)"><tspan x="0" y="0">Deskera Books and Stripe</tspan></text><rect class="l" width="60" height="6" rx="3" transform="translate(201.185 58.621)"/><rect class="l" width="21" height="9" rx="2" transform="translate(254.185 87.621)"/><rect class="l" width="39" height="7" rx="3.5" transform="translate(201.185 68.621)"/><path class="m" d="M3,0l.825,2.123L6,2.292,4.335,3.773,4.854,6,3,4.793,1.146,6l.519-2.227L0,2.292l2.175-.169Z" transform="translate(201.184 88.617)"/><path class="m" d="M3,0l.825,2.123L6,2.292,4.335,3.773,4.854,6,3,4.793,1.146,6l.519-2.227L0,2.292l2.175-.169Z" transform="translate(208.184 88.617)"/><path class="m" d="M3.5,0l.963,2.123L7,2.292,5.057,3.773,5.663,6,3.5,4.793,1.337,6l.606-2.227L0,2.292l2.537-.169Z" transform="translate(215.184 88.617)"/><path class="m" d="M3.5,0l.963,2.123L7,2.292,5.057,3.773,5.663,6,3.5,4.793,1.337,6l.606-2.227L0,2.292l2.537-.169Z" transform="translate(222.184 88.617)"/><path class="m" d="M3,0l.825,2.123L6,2.292,4.335,3.773,4.854,6,3,4.793,1.146,6l.519-2.227L0,2.292l2.175-.169Z" transform="translate(230.184 88.617)"/><text class="u" transform="translate(257.184 94.617)"><tspan x="0" y="0">FREE</tspan></text><rect class="c" width="91" height="105" rx="5" transform="translate(287.185 -0.379)"/><text class="t" transform="translate(296.184 33.617)"><tspan x="0" y="0">Paypal</tspan></text><text class="u" transform="translate(296.184 40.617)"><tspan x="0" y="0">Deskera Books and Paypal</tspan></text><rect class="l" width="61" height="6" rx="3" transform="translate(296.185 58.621)"/><rect class="l" width="21" height="9" rx="2" transform="translate(350.185 87.621)"/><rect class="l" width="39" height="7" rx="3.5" transform="translate(296.185 68.621)"/><path class="m" d="M3.5,0l.963,2.123L7,2.292,5.057,3.773,5.663,6,3.5,4.793,1.337,6l.606-2.227L0,2.292l2.537-.169Z" transform="translate(296.184 88.617)"/><path class="m" d="M3,0l.825,2.123L6,2.292,4.335,3.773,4.854,6,3,4.793,1.146,6l.519-2.227L0,2.292l2.175-.169Z" transform="translate(304.184 88.617)"/><path class="m" d="M3.5,0l.963,2.123L7,2.292,5.057,3.773,5.663,6,3.5,4.793,1.337,6l.606-2.227L0,2.292l2.537-.169Z" transform="translate(311.184 88.617)"/><path class="m" d="M3.5,0l.963,2.123L7,2.292,5.057,3.773,5.663,6,3.5,4.793,1.337,6l.606-2.227L0,2.292l2.537-.169Z" transform="translate(318.184 88.617)"/><path class="m" d="M3,0l.825,2.123L6,2.292,4.335,3.773,4.854,6,3,4.793,1.146,6l.519-2.227L0,2.292l2.175-.169Z" transform="translate(326.184 88.617)"/><text class="u" transform="translate(353.184 94.617)"><tspan x="0" y="0">FREE</tspan></text><path class="v" d="M1.9,4.419c0-.294.241-.407.64-.407a4.2,4.2,0,0,1,1.867.482V2.725a4.965,4.965,0,0,0-1.867-.346C1.016,2.379,0,3.177,0,4.51,0,6.588,2.861,6.257,2.861,7.153c0,.346-.3.459-.723.459a4.687,4.687,0,0,1-2.055-.6V8.8a5.219,5.219,0,0,0,2.055.429c1.566,0,2.643-.775,2.643-2.123C4.773,4.864,1.9,5.263,1.9,4.419ZM6.994.873l-1.837.391L5.15,7.3A1.892,1.892,0,0,0,7.1,9.23a2.908,2.908,0,0,0,1.318-.248V7.454c-.241.1-1.43.444-1.43-.67V4.111h1.43v-1.6H6.987Zm3.765,2.191-.12-.557H9.012V9.095h1.882V4.63a1.328,1.328,0,0,1,1.43-.392V2.507a1.278,1.278,0,0,0-1.566.557Zm2.025-.557h1.89V9.095h-1.89V2.507Zm0-.572,1.89-.407V0l-1.89.4V1.935Zm5.82.444a2.127,2.127,0,0,0-1.476.587l-.1-.467H15.374v8.779l1.882-.4.008-2.131a2.12,2.12,0,0,0,1.333.474c1.348,0,2.575-1.084,2.575-3.471-.008-2.183-1.25-3.373-2.567-3.373Zm-.452,5.187a1.125,1.125,0,0,1-.888-.354l-.008-2.793a1.121,1.121,0,0,1,.9-.369c.685,0,1.159.768,1.159,1.754,0,1.009-.467,1.762-1.159,1.762ZM27.1,5.827c0-1.927-.934-3.448-2.718-3.448S21.51,3.9,21.51,5.812c0,2.266,1.28,3.411,3.117,3.411a4.2,4.2,0,0,0,2.086-.489V7.228a4,4,0,0,1-1.845.414c-.73,0-1.378-.256-1.461-1.144h3.682c0-.1.015-.489.015-.67Zm-3.719-.715c0-.851.52-1.2.994-1.2.459,0,.949.354.949,1.2Z" transform="translate(201.505 13.097)"/><g transform="translate(296.698 14.889)"><path class="w" d="M20.313-90.023a3.062,3.062,0,0,0-2.352-.748H14.879a.441.441,0,0,0-.436.372L13.16-82.258a.264.264,0,0,0,.06.213.264.264,0,0,0,.2.093h1.9l.478-3.031-.015.095a.44.44,0,0,1,.434-.372h.9A3.233,3.233,0,0,0,20.7-88.07q.018-.093.032-.181a1.971,1.971,0,0,0-.418-1.772" transform="translate(-13.156 90.771)"/><path class="x" d="M220.491-68.882c-.116.764-.7.764-1.264.764h-.321l.225-1.426a.177.177,0,0,1,.175-.15h.147c.384,0,.747,0,.934.219a.711.711,0,0,1,.1.593m-.246-1.993h-2.128a.3.3,0,0,0-.292.25l-.86,5.456a.178.178,0,0,0,.04.143.178.178,0,0,0,.135.062h1.092a.207.207,0,0,0,.2-.174l.244-1.547a.3.3,0,0,1,.292-.25h.673a2.185,2.185,0,0,0,2.422-2.023,1.639,1.639,0,0,0-.271-1.373,1.974,1.974,0,0,0-1.551-.544" transform="translate(-190.037 73.504)"/><path class="w" d="M105.6-68.882c-.116.764-.7.764-1.264.764h-.321l.225-1.426a.177.177,0,0,1,.175-.15h.147c.384,0,.747,0,.934.219a.71.71,0,0,1,.1.593m-.246-1.993h-2.128a.3.3,0,0,0-.292.25l-.86,5.456a.177.177,0,0,0,.04.143.177.177,0,0,0,.135.062h1.016a.3.3,0,0,0,.292-.25l.232-1.472a.3.3,0,0,1,.292-.25h.673a2.185,2.185,0,0,0,2.422-2.023,1.639,1.639,0,0,0-.271-1.373,1.974,1.974,0,0,0-1.551-.544m4.94,3.952a1.136,1.136,0,0,1-1.15.973.86.86,0,0,1-.684-.275.865.865,0,0,1-.16-.716,1.14,1.14,0,0,1,1.142-.981.859.859,0,0,1,.679.278.877.877,0,0,1,.173.72m1.42-1.984H110.7a.178.178,0,0,0-.176.15l-.044.285-.071-.1a1.451,1.451,0,0,0-1.2-.427,2.343,2.343,0,0,0-2.274,2.049,1.924,1.924,0,0,0,.379,1.566,1.6,1.6,0,0,0,1.283.518A1.951,1.951,0,0,0,110-65.452l-.046.283a.177.177,0,0,0,.04.143.177.177,0,0,0,.135.062h.917a.3.3,0,0,0,.292-.25l.551-3.488a.178.178,0,0,0-.041-.143.177.177,0,0,0-.135-.062" transform="translate(-90.329 73.504)"/><path class="x" d="M256.876-54.62a1.136,1.136,0,0,1-1.15.973.86.86,0,0,1-.684-.275.865.865,0,0,1-.16-.716,1.14,1.14,0,0,1,1.142-.981.859.859,0,0,1,.679.278.877.877,0,0,1,.173.72M258.3-56.6h-1.019a.178.178,0,0,0-.176.15l-.044.285-.071-.1a1.451,1.451,0,0,0-1.2-.427,2.344,2.344,0,0,0-2.274,2.049,1.924,1.924,0,0,0,.38,1.566,1.594,1.594,0,0,0,1.283.518,1.951,1.951,0,0,0,1.411-.583l-.046.283a.177.177,0,0,0,.04.143.177.177,0,0,0,.135.062h.917a.3.3,0,0,0,.292-.25l.551-3.488a.178.178,0,0,0-.041-.143.178.178,0,0,0-.135-.062" transform="translate(-221.728 61.201)"/><path class="w" d="M184.957-55.974h-1.024a.3.3,0,0,0-.244.13l-1.413,2.081-.6-2a.3.3,0,0,0-.283-.211h-1.007a.178.178,0,0,0-.144.074.178.178,0,0,0-.024.161l1.128,3.31-1.061,1.5a.178.178,0,0,0-.013.184.178.178,0,0,0,.157.1h1.023a.3.3,0,0,0,.243-.127L185.1-55.7a.177.177,0,0,0,.012-.183.177.177,0,0,0-.157-.1" transform="translate(-158.139 60.572)"/><path class="x" d="M293.291-70.723l-.874,5.556a.177.177,0,0,0,.04.143.178.178,0,0,0,.135.062h.878a.3.3,0,0,0,.292-.25l.861-5.456a.177.177,0,0,0-.04-.143.177.177,0,0,0-.135-.062h-.983a.177.177,0,0,0-.175.15" transform="translate(-255.522 73.502)"/><path class="w" d="M20.313-90.023a3.062,3.062,0,0,0-2.352-.748H14.879a.441.441,0,0,0-.436.372L13.16-82.258a.264.264,0,0,0,.06.213.264.264,0,0,0,.2.093h1.9l.478-3.031-.015.095a.44.44,0,0,1,.434-.372h.9A3.233,3.233,0,0,0,20.7-88.07q.018-.093.032-.181a1.971,1.971,0,0,0-.418-1.772" transform="translate(-13.156 90.771)"/><path class="w" d="M16.314-88.238a.386.386,0,0,1,.381-.326h2.417a5.08,5.08,0,0,1,.8.058,3.348,3.348,0,0,1,.4.088,2.183,2.183,0,0,1,.426.17,1.97,1.97,0,0,0-.418-1.772,3.064,3.064,0,0,0-2.352-.748H14.877a.441.441,0,0,0-.436.372l-1.283,8.14a.264.264,0,0,0,.06.213.264.264,0,0,0,.2.093h1.9l.478-3.032Z" transform="translate(-13.154 90.769)"/><path class="x" d="M34.086-71.7q-.014.091-.032.181a3.233,3.233,0,0,1-3.574,2.809h-.9a.44.44,0,0,0-.434.372L28.679-65.4l-.132.833a.232.232,0,0,0,.053.187.232.232,0,0,0,.176.081h1.6a.386.386,0,0,0,.381-.326l.016-.082.3-1.916.019-.106a.386.386,0,0,1,.381-.326h.24a2.828,2.828,0,0,0,3.126-2.457,2.1,2.1,0,0,0-.321-1.848,1.532,1.532,0,0,0-.439-.339" transform="translate(-26.511 74.216)"/><path class="y" d="M37.587-73.938q-.093-.028-.192-.049c-.066-.015-.134-.027-.2-.038a4.982,4.982,0,0,0-.8-.058H33.978a.385.385,0,0,0-.381.326L33.083-70.5l-.015.095a.44.44,0,0,1,.434-.372h.9a3.233,3.233,0,0,0,3.574-2.809c.012-.062.022-.122.032-.181a2.194,2.194,0,0,0-.334-.141l-.091-.029" transform="translate(-30.437 76.288)"/></g><g transform="translate(8.938 12.188)"><path class="z" d="M4.6-261.921h9.479V-271.4H4.6Z" transform="translate(-4.41 271.59)"/><path class="aa" d="M5.165-195.968H4.6v.379h9.479v-6.628A9.483,9.483,0,0,1,5.165-195.968Z" transform="translate(-4.41 205.258)"/><path class="ab" d="M94.275-269.5l-.569-.569-.569.569-.569-.569L92-269.5v-1.9h2.275Z" transform="translate(-88.208 271.59)"/><path class="ac" d="M164.792-168.164H161V-174.8h4.55v5.877A.762.762,0,0,1,164.792-168.164Z" transform="translate(-154.364 178.971)"/><path class="ad" d="M167.685-50.6a.762.762,0,0,1,.758.758.762.762,0,0,0,.758.758h-3.6V-50.6Z" transform="translate(-158.775 59.89)"/><path class="ae" d="M87.4-49.842a.762.762,0,0,1,.758-.758h4.55a.762.762,0,0,0-.758.758V-48.7H87.4Z" transform="translate(-83.798 59.89)"/><path class="af" d="M179.4-160.242h3.033V-161H179.4Z" transform="translate(-172.006 165.74)"/><path d="M.19-266.141H3.033v-.379H.379v-9.1H3.6v1.706a.191.191,0,0,0,.19.19.19.19,0,0,0,.134-.056l.435-.435.435.435a.191.191,0,0,0,.268,0l.435-.435.435.435a.19.19,0,0,0,.134.056.191.191,0,0,0,.19-.19v-1.706H9.479v3.033h.379v-3.223a.191.191,0,0,0-.19-.19H.19a.191.191,0,0,0-.19.19v9.479A.19.19,0,0,0,.19-266.141Zm5.688-8.231-.245-.245a.191.191,0,0,0-.268,0l-.435.435-.435-.435a.191.191,0,0,0-.268,0l-.245.245v-1.249h1.9Z" transform="translate(0 276)"/><path d="M20.3-174.61a.191.191,0,0,0-.19-.19H18.59a.191.191,0,0,0-.19.19v1.517a.191.191,0,0,0,.19.19h1.517a.191.191,0,0,0,.19-.19Zm-.379,1.327H18.779v-1.138h1.138Z" transform="translate(-17.642 178.971)"/><path d="M20.106-119.6H18.59a.191.191,0,0,0-.19.19v1.517a.19.19,0,0,0,.19.19h1.517a.19.19,0,0,0,.19-.19v-1.517A.191.191,0,0,0,20.106-119.6Zm-.19,1.517H18.779v-1.138h1.138Z" transform="translate(-17.642 126.046)"/><path d="M73.6-137.621h3.033V-138H73.6Z" transform="translate(-70.567 143.688)"/><path d="M73.6-82.421h3.033V-82.8H73.6Z" transform="translate(-70.567 90.763)"/><path d="M90.573-184h-4.55a.191.191,0,0,0-.19.19v5.119H83.748a.954.954,0,0,0-.948.948v1.138a.191.191,0,0,0,.19.19h4.55a.191.191,0,0,0,.19-.19v-.19h2.085a.954.954,0,0,0,.948-.948v-6.067A.191.191,0,0,0,90.573-184Zm-3.223,6.256v.948H83.179v-.948a.572.572,0,0,1,.569-.569H87.54A.943.943,0,0,0,87.35-177.744Zm.379.569v-.569a.571.571,0,0,1,.569-.569.571.571,0,0,1,.569.569.943.943,0,0,0,.19.569Zm2.654-.569a.571.571,0,0,1-.569.569.572.572,0,0,1-.569-.569.954.954,0,0,0-.948-.948H86.213v-4.929h4.171Z" transform="translate(-79.387 187.792)"/><path d="M174.99-164.462h3.033a.191.191,0,0,0,.19-.19v-.758a.191.191,0,0,0-.19-.19H174.99a.19.19,0,0,0-.19.19v.758A.191.191,0,0,0,174.99-164.462Zm.19-.758h2.654v.379h-2.654Z" transform="translate(-167.596 170.15)"/><path d="M174.8-128.421h.948v-.379H174.8Z" transform="translate(-167.596 134.867)"/><path d="M207-128.421h1.138v-.379H207Z" transform="translate(-198.469 134.867)"/><path d="M243.8-128.421h.569v-.379H243.8Z" transform="translate(-233.752 134.867)"/><path d="M225.4-110.021h1.327v-.379H225.4Z" transform="translate(-216.11 117.225)"/><path d="M174.8-110.021h1.706v-.379H174.8Z" transform="translate(-167.596 117.225)"/><path d="M174.8-91.621h.379V-92H174.8Z" transform="translate(-167.596 99.584)"/><path d="M193.2-91.621h1.138V-92H193.2Z" transform="translate(-185.237 99.584)"/><path d="M230-91.621h1.138V-92H230Z" transform="translate(-220.521 99.584)"/><path d="M174.8-73.221h.758V-73.6H174.8Z" transform="translate(-167.596 81.942)"/><path d="M202.4-73.221h.758V-73.6H202.4Z" transform="translate(-194.058 81.942)"/><path d="M230-73.221h1.138V-73.6H230Z" transform="translate(-220.521 81.942)"/></g><g transform="translate(104.815 12.188)"><path class="z" d="M4.6-261.921h9.479V-271.4H4.6Z" transform="translate(-4.41 271.59)"/><path class="aa" d="M5.165-195.968H4.6v.379h9.479v-6.628A9.483,9.483,0,0,1,5.165-195.968Z" transform="translate(-4.41 205.258)"/><path class="ab" d="M94.275-269.5l-.569-.569-.569.569-.569-.569L92-269.5v-1.9h2.275Z" transform="translate(-88.208 271.59)"/><path class="ac" d="M164.792-168.164H161V-174.8h4.55v5.877A.762.762,0,0,1,164.792-168.164Z" transform="translate(-154.364 178.971)"/><path class="ad" d="M167.685-50.6a.762.762,0,0,1,.758.758.762.762,0,0,0,.758.758h-3.6V-50.6Z" transform="translate(-158.775 59.89)"/><path class="ae" d="M87.4-49.842a.762.762,0,0,1,.758-.758h4.55a.762.762,0,0,0-.758.758V-48.7H87.4Z" transform="translate(-83.798 59.89)"/><path class="af" d="M179.4-160.242h3.033V-161H179.4Z" transform="translate(-172.006 165.74)"/><path d="M.19-266.141H3.033v-.379H.379v-9.1H3.6v1.706a.191.191,0,0,0,.19.19.19.19,0,0,0,.134-.056l.435-.435.435.435a.191.191,0,0,0,.268,0l.435-.435.435.435a.19.19,0,0,0,.134.056.191.191,0,0,0,.19-.19v-1.706H9.479v3.033h.379v-3.223a.191.191,0,0,0-.19-.19H.19a.191.191,0,0,0-.19.19v9.479A.19.19,0,0,0,.19-266.141Zm5.688-8.231-.245-.245a.191.191,0,0,0-.268,0l-.435.435-.435-.435a.191.191,0,0,0-.268,0l-.245.245v-1.249h1.9Z" transform="translate(0 276)"/><path d="M20.3-174.61a.191.191,0,0,0-.19-.19H18.59a.191.191,0,0,0-.19.19v1.517a.191.191,0,0,0,.19.19h1.517a.191.191,0,0,0,.19-.19Zm-.379,1.327H18.779v-1.138h1.138Z" transform="translate(-17.642 178.971)"/><path d="M20.106-119.6H18.59a.191.191,0,0,0-.19.19v1.517a.19.19,0,0,0,.19.19h1.517a.19.19,0,0,0,.19-.19v-1.517A.191.191,0,0,0,20.106-119.6Zm-.19,1.517H18.779v-1.138h1.138Z" transform="translate(-17.642 126.046)"/><path d="M73.6-137.621h3.033V-138H73.6Z" transform="translate(-70.567 143.688)"/><path d="M73.6-82.421h3.033V-82.8H73.6Z" transform="translate(-70.567 90.763)"/><path d="M90.573-184h-4.55a.191.191,0,0,0-.19.19v5.119H83.748a.954.954,0,0,0-.948.948v1.138a.191.191,0,0,0,.19.19h4.55a.191.191,0,0,0,.19-.19v-.19h2.085a.954.954,0,0,0,.948-.948v-6.067A.191.191,0,0,0,90.573-184Zm-3.223,6.256v.948H83.179v-.948a.572.572,0,0,1,.569-.569H87.54A.943.943,0,0,0,87.35-177.744Zm.379.569v-.569a.571.571,0,0,1,.569-.569.571.571,0,0,1,.569.569.943.943,0,0,0,.19.569Zm2.654-.569a.571.571,0,0,1-.569.569.572.572,0,0,1-.569-.569.954.954,0,0,0-.948-.948H86.213v-4.929h4.171Z" transform="translate(-79.387 187.792)"/><path d="M174.99-164.462h3.033a.191.191,0,0,0,.19-.19v-.758a.191.191,0,0,0-.19-.19H174.99a.19.19,0,0,0-.19.19v.758A.191.191,0,0,0,174.99-164.462Zm.19-.758h2.654v.379h-2.654Z" transform="translate(-167.596 170.15)"/><path d="M174.8-128.421h.948v-.379H174.8Z" transform="translate(-167.596 134.867)"/><path d="M207-128.421h1.138v-.379H207Z" transform="translate(-198.469 134.867)"/><path d="M243.8-128.421h.569v-.379H243.8Z" transform="translate(-233.752 134.867)"/><path d="M225.4-110.021h1.327v-.379H225.4Z" transform="translate(-216.11 117.225)"/><path d="M174.8-110.021h1.706v-.379H174.8Z" transform="translate(-167.596 117.225)"/><path d="M174.8-91.621h.379V-92H174.8Z" transform="translate(-167.596 99.584)"/><path d="M193.2-91.621h1.138V-92H193.2Z" transform="translate(-185.237 99.584)"/><path d="M230-91.621h1.138V-92H230Z" transform="translate(-220.521 99.584)"/><path d="M174.8-73.221h.758V-73.6H174.8Z" transform="translate(-167.596 81.942)"/><path d="M202.4-73.221h.758V-73.6H202.4Z" transform="translate(-194.058 81.942)"/><path d="M230-73.221h1.138V-73.6H230Z" transform="translate(-220.521 81.942)"/></g></g></g><g transform="translate(118.717 115.103)"><path class="ag" d="M62.333-194.324a.246.246,0,0,1-.245-.245v-2.206a.246.246,0,0,1,.245-.245h1.716l-.836-.836a.492.492,0,0,0-.348-.145H54v5.882a.494.494,0,0,0,.49.49H65.764a.494.494,0,0,0,.49-.49v-2.206Z" transform="translate(-51.794 201.186)"/><path class="ah" d="M11.882-267.08a2.955,2.955,0,0,1-2.941,2.941,2.891,2.891,0,0,1-.98-.169A2.947,2.947,0,0,1,6-267.081a2.955,2.955,0,0,1,2.941-2.941,2.955,2.955,0,0,1,2.941,2.941Z" transform="translate(-5.755 270.266)"/><path class="ai" d="M44.941-244.529c0,.98-1.471,2.451-1.471,2.451S42-243.549,42-244.529A1.478,1.478,0,0,1,43.471-246,1.478,1.478,0,0,1,44.941-244.529Z" transform="translate(-40.284 247.225)"/><path class="aj" d="M66.49-222a.49.49,0,0,1,.49.49.49.49,0,0,1-.49.49.49.49,0,0,1-.49-.49A.49.49,0,0,1,66.49-222Z" transform="translate(-63.304 224.206)"/><path class="ak" d="M256.166-171.794v.49h-3.921a.246.246,0,0,1-.245-.245v-2.206a.246.246,0,0,1,.245-.245h1.716Z" transform="translate(-241.706 178.166)"/><path class="al" d="M54-96H66.254v1.716a.493.493,0,0,1-.49.49H54.49a.493.493,0,0,1-.49-.49Z" transform="translate(-51.794 103.353)"/><path class="am" d="M85.471-78a1.471,1.471,0,0,1,1.471,1.471,1.471,1.471,0,0,1-1.471,1.471A1.471,1.471,0,0,1,84-76.529,1.471,1.471,0,0,1,85.471-78Z" transform="translate(-80.569 86.088)"/><path class="am" d="M253.471-78a1.471,1.471,0,0,1,1.471,1.471,1.471,1.471,0,0,1-1.471,1.471A1.471,1.471,0,0,1,252-76.529,1.471,1.471,0,0,1,253.471-78Z" transform="translate(-241.706 86.088)"/><path d="M14.633-200.742l-3.043-3.042a.73.73,0,0,0-.52-.215H6.862v.49H8.088v3.676h.49v-3.676h2.493a.245.245,0,0,1,.174.072l.418.418H10.539a.493.493,0,0,0-.49.49v2.206a.493.493,0,0,0,.49.49h3.676v1.961a.246.246,0,0,1-.245.245h-.51a1.719,1.719,0,0,0-1.7-1.47,1.719,1.719,0,0,0-1.7,1.47H6.6a1.719,1.719,0,0,0-1.7-1.47,1.719,1.719,0,0,0-1.7,1.47H2.7a.246.246,0,0,1-.245-.245v-2.206h-.49v2.206a.739.739,0,0,0,.735.735h.51a1.711,1.711,0,0,0,.5.98H0v.49H11.764a1.723,1.723,0,0,0,1.7-1.471h.51a.739.739,0,0,0,.735-.735v-2.7A.245.245,0,0,0,14.633-200.742ZM3.676-197.383A1.231,1.231,0,0,1,4.9-198.608a1.231,1.231,0,0,1,1.225,1.225A1.231,1.231,0,0,1,4.9-196.157,1.233,1.233,0,0,1,3.676-197.383ZM6.1-196.157a1.71,1.71,0,0,0,.5-.98h3.47a1.71,1.71,0,0,0,.5.98Zm5.664,0a1.231,1.231,0,0,1-1.225-1.225,1.231,1.231,0,0,1,1.225-1.225,1.231,1.231,0,0,1,1.225,1.225A1.233,1.233,0,0,1,11.764-196.157Zm-1.225-4.166v-2.206h1.614l2.062,2.062v.144Z" transform="translate(0 206.941)"/><path class="an" d="M114-47.51h.49V-48H114Z" transform="translate(-109.343 57.313)"/><path class="an" d="M282-47.51h.49V-48H282Z" transform="translate(-270.481 57.313)"/><path class="an" d="M0-65.51H1.225V-66H0Z" transform="translate(0 74.578)"/><path class="an" d="M12-89.51h.735V-90H12Z" transform="translate(-11.51 97.598)"/><path class="an" d="M18-113.51h.49V-114H18Z" transform="translate(-17.265 120.617)"/><path d="M3.186-269.628a3.2,3.2,0,0,0,3.186-3.186A3.2,3.2,0,0,0,3.186-276,3.2,3.2,0,0,0,0-272.814,3.2,3.2,0,0,0,3.186-269.628Zm0-5.882a2.709,2.709,0,0,1,2.7,2.7,2.709,2.709,0,0,1-2.7,2.7,2.709,2.709,0,0,1-2.7-2.7A2.712,2.712,0,0,1,3.186-275.51Z" transform="translate(0 276)"/><path class="ai" d="M37.716-247.588a.245.245,0,0,0,.173-.072c.158-.158,1.542-1.573,1.542-2.624A1.724,1.724,0,0,0,37.716-252,1.724,1.724,0,0,0,36-250.284c0,1.051,1.384,2.466,1.542,2.624A.245.245,0,0,0,37.716-247.588Zm0-3.921a1.233,1.233,0,0,1,1.225,1.225,4.356,4.356,0,0,1-1.225,2.1,4.356,4.356,0,0,1-1.225-2.1A1.233,1.233,0,0,1,37.716-251.51Z" transform="translate(-34.529 252.98)"/><path class="ah" d="M61.471-227.265a.739.739,0,0,0-.735-.735.739.739,0,0,0-.735.735.739.739,0,0,0,.735.735A.739.739,0,0,0,61.471-227.265Zm-.98,0a.246.246,0,0,1,.245-.245.246.246,0,0,1,.245.245.246.246,0,0,1-.245.245A.246.246,0,0,1,60.49-227.265Z" transform="translate(-57.549 229.961)"/><path class="an" d="M228-89.51h.98V-90H228Z" transform="translate(-218.687 97.598)"/><path class="ao" d="M406.562-229.085a.609.609,0,0,0,.359-.083.276.276,0,0,0,.112-.236.3.3,0,0,0-.038-.156.4.4,0,0,0-.109-.118.91.91,0,0,0-.172-.1q-.1-.045-.232-.089t-.252-.1a.849.849,0,0,1-.214-.14.644.644,0,0,1-.149-.2.636.636,0,0,1-.056-.279.655.655,0,0,1,.236-.535.98.98,0,0,1,.642-.194,1.52,1.52,0,0,1,.419.053,1.286,1.286,0,0,1,.288.114l-.141.37a1.084,1.084,0,0,0-.27-.105,1.259,1.259,0,0,0-.3-.036.478.478,0,0,0-.288.076.25.25,0,0,0-.1.214.283.283,0,0,0,.034.143.354.354,0,0,0,.1.107.858.858,0,0,0,.149.087q.085.04.187.076.178.065.317.132a.894.894,0,0,1,.236.16.625.625,0,0,1,.147.218.806.806,0,0,1,.051.3.629.629,0,0,1-.241.528,1.136,1.136,0,0,1-.705.187,1.868,1.868,0,0,1-.285-.02,1.823,1.823,0,0,1-.229-.049,1.564,1.564,0,0,1-.172-.06,1.065,1.065,0,0,1-.116-.056l.134-.374a1.547,1.547,0,0,0,.265.109A1.307,1.307,0,0,0,406.562-229.085Z" transform="translate(-389.186 233.141)"/><path class="ao" d="M452.376-234.451v-2.742l.439-.073v.939a1.175,1.175,0,0,1,.169-.044,1.025,1.025,0,0,1,.19-.018.981.981,0,0,1,.379.063.6.6,0,0,1,.241.178.693.693,0,0,1,.129.274,1.531,1.531,0,0,1,.038.355v1.066h-.439v-1a1.435,1.435,0,0,0-.02-.259.458.458,0,0,0-.065-.174.262.262,0,0,0-.121-.1.505.505,0,0,0-.189-.031.906.906,0,0,0-.178.018,1.217,1.217,0,0,0-.134.033v1.509Z" transform="translate(-433.898 238.847)"/><path class="ao" d="M497.8-232.321h-.439v-1.9h.439Zm.047-2.452a.252.252,0,0,1-.08.2.271.271,0,0,1-.189.073.276.276,0,0,1-.192-.073.252.252,0,0,1-.08-.2.256.256,0,0,1,.08-.2.276.276,0,0,1,.192-.073.271.271,0,0,1,.189.073A.256.256,0,0,1,497.844-234.773Z" transform="translate(-476.99 236.718)"/><path class="ao" d="M518.807-214.78a.707.707,0,0,0-.132-.457.517.517,0,0,0-.426-.163q-.062,0-.129.005a.708.708,0,0,0-.132.024v1.084a.68.68,0,0,0,.154.074.6.6,0,0,0,.2.034.393.393,0,0,0,.35-.163A.771.771,0,0,0,518.807-214.78Zm.45-.007a1.345,1.345,0,0,1-.056.4.931.931,0,0,1-.161.312.717.717,0,0,1-.263.2.846.846,0,0,1-.357.073.881.881,0,0,1-.247-.033.924.924,0,0,1-.185-.073v.736h-.439v-2.506q.134-.036.33-.069a2.514,2.514,0,0,1,.414-.033,1.106,1.106,0,0,1,.4.069.839.839,0,0,1,.3.2.871.871,0,0,1,.192.312A1.192,1.192,0,0,1,519.256-214.787Z" transform="translate(-496.407 218.237)"/><path class="ao" d="M566.044-214.838a.924.924,0,0,0-.074-.43.29.29,0,0,0-.278-.132,1.3,1.3,0,0,0-.16.011l-.131.018v1.531h-.439v-1.835a2.93,2.93,0,0,1,.332-.069,2.753,2.753,0,0,1,.433-.033.863.863,0,0,1,.321.051.619.619,0,0,1,.209.134.847.847,0,0,1,.1-.062,1.046,1.046,0,0,1,.138-.06,1.265,1.265,0,0,1,.161-.045.827.827,0,0,1,.172-.018.905.905,0,0,1,.365.063.535.535,0,0,1,.225.178.691.691,0,0,1,.112.276,1.892,1.892,0,0,1,.031.354v1.066h-.439v-1a.945.945,0,0,0-.073-.43.289.289,0,0,0-.279-.132.577.577,0,0,0-.2.034.653.653,0,0,0-.141.067.968.968,0,0,1,.04.192,2.044,2.044,0,0,1,.011.218v1.048h-.439Z" transform="translate(-541.886 218.237)"/><path class="ao" d="M633.687-214.95a1.191,1.191,0,0,1,.074-.439.92.92,0,0,1,.2-.314.818.818,0,0,1,.283-.189.876.876,0,0,1,.326-.063.781.781,0,0,1,.611.243,1.052,1.052,0,0,1,.219.725q0,.036,0,.082t-.005.082H634.14a.5.5,0,0,0,.161.354.613.613,0,0,0,.415.125,1.364,1.364,0,0,0,.292-.029,1.211,1.211,0,0,0,.209-.062l.058.359a.705.705,0,0,1-.1.038,1.4,1.4,0,0,1-.145.036q-.082.016-.176.027a1.673,1.673,0,0,1-.192.011,1.163,1.163,0,0,1-.435-.074.81.81,0,0,1-.3-.207.846.846,0,0,1-.178-.312A1.273,1.273,0,0,1,633.687-214.95Zm1.273-.2a.58.58,0,0,0-.025-.172.417.417,0,0,0-.074-.141.352.352,0,0,0-.12-.094.382.382,0,0,0-.169-.034.393.393,0,0,0-.178.038.4.4,0,0,0-.129.1.455.455,0,0,0-.082.141.77.77,0,0,0-.04.163Z" transform="translate(-607.802 218.408)"/><path class="ao" d="M681.457-215.675a2.944,2.944,0,0,1,.33-.069,2.845,2.845,0,0,1,.45-.033,1.035,1.035,0,0,1,.388.063.6.6,0,0,1,.248.178.678.678,0,0,1,.131.276,1.543,1.543,0,0,1,.038.354v1.066H682.6v-1a1.439,1.439,0,0,0-.02-.259.461.461,0,0,0-.065-.174.261.261,0,0,0-.123-.1.52.52,0,0,0-.19-.031,1.467,1.467,0,0,0-.174.011l-.134.018v1.531h-.439Z" transform="translate(-653.621 218.237)"/><path class="ao" d="M727.362-228.757l.439-.073v.573h.675v.366H727.8v.773a.561.561,0,0,0,.073.326.287.287,0,0,0,.247.1.805.805,0,0,0,.212-.025,1.452,1.452,0,0,0,.147-.047l.073.348a1.65,1.65,0,0,1-.2.067,1.086,1.086,0,0,1-.29.034.918.918,0,0,1-.339-.054.5.5,0,0,1-.216-.158.625.625,0,0,1-.112-.25,1.553,1.553,0,0,1-.033-.335Z" transform="translate(-697.651 230.757)"/><path class="ao" d="M399.316-130.822v.521H398.3v2.793h-.607V-130.3h-1.019v-.521Z" transform="translate(-380.468 136.752)"/><path class="ao" d="M461.911-111.631a1.842,1.842,0,0,0-.2-.05,1.46,1.46,0,0,0-.294-.026,1.164,1.164,0,0,0-.2.019,1.22,1.22,0,0,0-.151.033v2h-.579v-2.382a3.184,3.184,0,0,1,.419-.117,2.607,2.607,0,0,1,.557-.055q.057,0,.134.007t.153.019q.077.012.148.029t.115.031Z" transform="translate(-441.676 118.896)"/><path class="ao" d="M497.139-110.282a2.152,2.152,0,0,0,.406-.029v-.641a1.119,1.119,0,0,0-.139-.029,1.292,1.292,0,0,0-.2-.014,1.335,1.335,0,0,0-.194.014.6.6,0,0,0-.177.053.321.321,0,0,0-.127.108.3.3,0,0,0-.048.175.306.306,0,0,0,.129.285A.666.666,0,0,0,497.139-110.282Zm-.048-2.157a1.417,1.417,0,0,1,.483.072.772.772,0,0,1,.313.2.753.753,0,0,1,.167.313,1.535,1.535,0,0,1,.05.4v1.516q-.134.029-.4.069a4.126,4.126,0,0,1-.61.041,1.83,1.83,0,0,1-.411-.043.865.865,0,0,1-.318-.139.654.654,0,0,1-.206-.249.863.863,0,0,1-.074-.378.729.729,0,0,1,.084-.364.687.687,0,0,1,.227-.242.984.984,0,0,1,.332-.134,1.871,1.871,0,0,1,.395-.041,1.781,1.781,0,0,1,.2.012,1.871,1.871,0,0,1,.225.041v-.1a.749.749,0,0,0-.024-.191.4.4,0,0,0-.084-.16.392.392,0,0,0-.158-.108.684.684,0,0,0-.246-.038,2.188,2.188,0,0,0-.368.029,1.62,1.62,0,0,0-.273.067l-.072-.469a2.281,2.281,0,0,1,.32-.076A2.511,2.511,0,0,1,497.091-112.439Z" transform="translate(-475.818 119.12)"/><path class="ao" d="M552.287-111.124a1.533,1.533,0,0,1,.086-.519,1.232,1.232,0,0,1,.246-.419,1.128,1.128,0,0,1,.39-.277,1.276,1.276,0,0,1,.517-.1,1.751,1.751,0,0,1,.67.129l-.124.473a1.31,1.31,0,0,0-.227-.072,1.222,1.222,0,0,0-.27-.029.633.633,0,0,0-.517.213.914.914,0,0,0-.177.6.946.946,0,0,0,.167.591.669.669,0,0,0,.564.218,1.483,1.483,0,0,0,.292-.029,1.37,1.37,0,0,0,.249-.072l.081.478a1.2,1.2,0,0,1-.289.086,2.058,2.058,0,0,1-.4.038,1.45,1.45,0,0,1-.557-.1,1.056,1.056,0,0,1-.392-.273,1.13,1.13,0,0,1-.232-.416A1.727,1.727,0,0,1,552.287-111.124Z" transform="translate(-529.727 119.12)"/><path class="ao" d="M604.269-138.355l.234-.246q.125-.132.244-.263t.227-.253q.108-.122.184-.213h.684q-.239.268-.5.555t-.532.56a3.309,3.309,0,0,1,.3.289q.157.17.305.361t.277.383a3.9,3.9,0,0,1,.215.354h-.67q-.086-.148-.2-.311t-.242-.316q-.129-.153-.263-.289a2.246,2.246,0,0,0-.263-.232v1.148h-.579v-3.616l.579-.1Z" transform="translate(-579.031 146.074)"/><path class="ao" d="M659.959-134.022h-.579v-2.5h.579Zm.062-3.233a.332.332,0,0,1-.105.258.358.358,0,0,1-.249.1.363.363,0,0,1-.253-.1.332.332,0,0,1-.105-.258.338.338,0,0,1,.105-.263.363.363,0,0,1,.253-.1.358.358,0,0,1,.249.1A.338.338,0,0,1,660.022-137.255Z" transform="translate(-632.378 143.267)"/><path class="ao" d="M686.006-112.071a3.879,3.879,0,0,1,.435-.091,3.758,3.758,0,0,1,.593-.043,1.365,1.365,0,0,1,.512.084.8.8,0,0,1,.328.234.9.9,0,0,1,.172.364,2.032,2.032,0,0,1,.05.466v1.406h-.579v-1.315a1.913,1.913,0,0,0-.026-.342.606.606,0,0,0-.086-.23.343.343,0,0,0-.162-.129.685.685,0,0,0-.251-.041,1.928,1.928,0,0,0-.23.014q-.12.014-.177.024v2.018h-.579Z" transform="translate(-657.984 118.896)"/><path class="ao" d="M744.442-110.966a.764.764,0,0,0,.16.538.543.543,0,0,0,.414.17.866.866,0,0,0,.261-.038.743.743,0,0,0,.2-.091v-1.3q-.062-.014-.153-.026a1.811,1.811,0,0,0-.23-.012.584.584,0,0,0-.483.208A.847.847,0,0,0,744.442-110.966Zm1.612,1.062a1.132,1.132,0,0,1-.3.875,1.344,1.344,0,0,1-.93.277,2.577,2.577,0,0,1-.447-.038,2.5,2.5,0,0,1-.395-.1l.105-.493a1.8,1.8,0,0,0,.337.1,2.061,2.061,0,0,0,.409.038.7.7,0,0,0,.5-.143.566.566,0,0,0,.148-.426v-.1a1.5,1.5,0,0,1-.227.086,1.107,1.107,0,0,1-.323.043,1.207,1.207,0,0,1-.438-.077.917.917,0,0,1-.34-.225,1.028,1.028,0,0,1-.22-.371,1.535,1.535,0,0,1-.079-.514,1.456,1.456,0,0,1,.084-.5,1.074,1.074,0,0,1,.244-.392,1.114,1.114,0,0,1,.39-.254,1.408,1.408,0,0,1,.521-.091,3.2,3.2,0,0,1,.536.043q.254.043.431.091Z" transform="translate(-713.464 118.896)"/></g><g transform="translate(207.755 115.103)"><path class="ag" d="M62.333-194.324a.246.246,0,0,1-.245-.245v-2.206a.246.246,0,0,1,.245-.245h1.716l-.836-.836a.492.492,0,0,0-.348-.145H54v5.882a.494.494,0,0,0,.49.49H65.764a.494.494,0,0,0,.49-.49v-2.206Z" transform="translate(-51.794 201.186)"/><path class="ah" d="M11.882-267.08a2.955,2.955,0,0,1-2.941,2.941,2.891,2.891,0,0,1-.98-.169A2.947,2.947,0,0,1,6-267.081a2.955,2.955,0,0,1,2.941-2.941,2.955,2.955,0,0,1,2.941,2.941Z" transform="translate(-5.755 270.266)"/><path class="ai" d="M44.941-244.529c0,.98-1.471,2.451-1.471,2.451S42-243.549,42-244.529A1.478,1.478,0,0,1,43.471-246,1.478,1.478,0,0,1,44.941-244.529Z" transform="translate(-40.284 247.225)"/><path class="aj" d="M66.49-222a.49.49,0,0,1,.49.49.49.49,0,0,1-.49.49.49.49,0,0,1-.49-.49A.49.49,0,0,1,66.49-222Z" transform="translate(-63.304 224.206)"/><path class="ak" d="M256.166-171.794v.49h-3.921a.246.246,0,0,1-.245-.245v-2.206a.246.246,0,0,1,.245-.245h1.716Z" transform="translate(-241.706 178.166)"/><path class="al" d="M54-96H66.254v1.716a.493.493,0,0,1-.49.49H54.49a.493.493,0,0,1-.49-.49Z" transform="translate(-51.794 103.353)"/><path class="am" d="M85.471-78a1.471,1.471,0,0,1,1.471,1.471,1.471,1.471,0,0,1-1.471,1.471A1.471,1.471,0,0,1,84-76.529,1.471,1.471,0,0,1,85.471-78Z" transform="translate(-80.569 86.088)"/><path class="am" d="M253.471-78a1.471,1.471,0,0,1,1.471,1.471,1.471,1.471,0,0,1-1.471,1.471A1.471,1.471,0,0,1,252-76.529,1.471,1.471,0,0,1,253.471-78Z" transform="translate(-241.706 86.088)"/><path d="M14.633-200.742l-3.043-3.042a.73.73,0,0,0-.52-.215H6.862v.49H8.088v3.676h.49v-3.676h2.493a.245.245,0,0,1,.174.072l.418.418H10.539a.493.493,0,0,0-.49.49v2.206a.493.493,0,0,0,.49.49h3.676v1.961a.246.246,0,0,1-.245.245h-.51a1.719,1.719,0,0,0-1.7-1.47,1.719,1.719,0,0,0-1.7,1.47H6.6a1.719,1.719,0,0,0-1.7-1.47,1.719,1.719,0,0,0-1.7,1.47H2.7a.246.246,0,0,1-.245-.245v-2.206h-.49v2.206a.739.739,0,0,0,.735.735h.51a1.711,1.711,0,0,0,.5.98H0v.49H11.764a1.723,1.723,0,0,0,1.7-1.471h.51a.739.739,0,0,0,.735-.735v-2.7A.245.245,0,0,0,14.633-200.742ZM3.676-197.383A1.231,1.231,0,0,1,4.9-198.608a1.231,1.231,0,0,1,1.225,1.225A1.231,1.231,0,0,1,4.9-196.157,1.233,1.233,0,0,1,3.676-197.383ZM6.1-196.157a1.71,1.71,0,0,0,.5-.98h3.47a1.71,1.71,0,0,0,.5.98Zm5.664,0a1.231,1.231,0,0,1-1.225-1.225,1.231,1.231,0,0,1,1.225-1.225,1.231,1.231,0,0,1,1.225,1.225A1.233,1.233,0,0,1,11.764-196.157Zm-1.225-4.166v-2.206h1.614l2.062,2.062v.144Z" transform="translate(0 206.941)"/><path class="an" d="M114-47.51h.49V-48H114Z" transform="translate(-109.343 57.313)"/><path class="an" d="M282-47.51h.49V-48H282Z" transform="translate(-270.481 57.313)"/><path class="an" d="M0-65.51H1.225V-66H0Z" transform="translate(0 74.578)"/><path class="an" d="M12-89.51h.735V-90H12Z" transform="translate(-11.51 97.598)"/><path class="an" d="M18-113.51h.49V-114H18Z" transform="translate(-17.265 120.617)"/><path d="M3.186-269.628a3.2,3.2,0,0,0,3.186-3.186A3.2,3.2,0,0,0,3.186-276,3.2,3.2,0,0,0,0-272.814,3.2,3.2,0,0,0,3.186-269.628Zm0-5.882a2.709,2.709,0,0,1,2.7,2.7,2.709,2.709,0,0,1-2.7,2.7,2.709,2.709,0,0,1-2.7-2.7A2.712,2.712,0,0,1,3.186-275.51Z" transform="translate(0 276)"/><path class="ai" d="M37.716-247.588a.245.245,0,0,0,.173-.072c.158-.158,1.542-1.573,1.542-2.624A1.724,1.724,0,0,0,37.716-252,1.724,1.724,0,0,0,36-250.284c0,1.051,1.384,2.466,1.542,2.624A.245.245,0,0,0,37.716-247.588Zm0-3.921a1.233,1.233,0,0,1,1.225,1.225,4.356,4.356,0,0,1-1.225,2.1,4.356,4.356,0,0,1-1.225-2.1A1.233,1.233,0,0,1,37.716-251.51Z" transform="translate(-34.529 252.98)"/><path class="ah" d="M61.471-227.265a.739.739,0,0,0-.735-.735.739.739,0,0,0-.735.735.739.739,0,0,0,.735.735A.739.739,0,0,0,61.471-227.265Zm-.98,0a.246.246,0,0,1,.245-.245.246.246,0,0,1,.245.245.246.246,0,0,1-.245.245A.246.246,0,0,1,60.49-227.265Z" transform="translate(-57.549 229.961)"/><path class="an" d="M228-89.51h.98V-90H228Z" transform="translate(-218.687 97.598)"/><path class="ao" d="M406.562-229.085a.609.609,0,0,0,.359-.083.276.276,0,0,0,.112-.236.3.3,0,0,0-.038-.156.4.4,0,0,0-.109-.118.91.91,0,0,0-.172-.1q-.1-.045-.232-.089t-.252-.1a.849.849,0,0,1-.214-.14.644.644,0,0,1-.149-.2.636.636,0,0,1-.056-.279.655.655,0,0,1,.236-.535.98.98,0,0,1,.642-.194,1.52,1.52,0,0,1,.419.053,1.286,1.286,0,0,1,.288.114l-.141.37a1.084,1.084,0,0,0-.27-.105,1.259,1.259,0,0,0-.3-.036.478.478,0,0,0-.288.076.25.25,0,0,0-.1.214.283.283,0,0,0,.034.143.354.354,0,0,0,.1.107.858.858,0,0,0,.149.087q.085.04.187.076.178.065.317.132a.894.894,0,0,1,.236.16.625.625,0,0,1,.147.218.806.806,0,0,1,.051.3.629.629,0,0,1-.241.528,1.136,1.136,0,0,1-.705.187,1.868,1.868,0,0,1-.285-.02,1.823,1.823,0,0,1-.229-.049,1.564,1.564,0,0,1-.172-.06,1.065,1.065,0,0,1-.116-.056l.134-.374a1.547,1.547,0,0,0,.265.109A1.307,1.307,0,0,0,406.562-229.085Z" transform="translate(-389.186 233.141)"/><path class="ao" d="M452.376-234.451v-2.742l.439-.073v.939a1.175,1.175,0,0,1,.169-.044,1.025,1.025,0,0,1,.19-.018.981.981,0,0,1,.379.063.6.6,0,0,1,.241.178.693.693,0,0,1,.129.274,1.531,1.531,0,0,1,.038.355v1.066h-.439v-1a1.435,1.435,0,0,0-.02-.259.458.458,0,0,0-.065-.174.262.262,0,0,0-.121-.1.505.505,0,0,0-.189-.031.906.906,0,0,0-.178.018,1.217,1.217,0,0,0-.134.033v1.509Z" transform="translate(-433.898 238.847)"/><path class="ao" d="M497.8-232.321h-.439v-1.9h.439Zm.047-2.452a.252.252,0,0,1-.08.2.271.271,0,0,1-.189.073.276.276,0,0,1-.192-.073.252.252,0,0,1-.08-.2.256.256,0,0,1,.08-.2.276.276,0,0,1,.192-.073.271.271,0,0,1,.189.073A.256.256,0,0,1,497.844-234.773Z" transform="translate(-476.99 236.718)"/><path class="ao" d="M518.807-214.78a.707.707,0,0,0-.132-.457.517.517,0,0,0-.426-.163q-.062,0-.129.005a.708.708,0,0,0-.132.024v1.084a.68.68,0,0,0,.154.074.6.6,0,0,0,.2.034.393.393,0,0,0,.35-.163A.771.771,0,0,0,518.807-214.78Zm.45-.007a1.345,1.345,0,0,1-.056.4.931.931,0,0,1-.161.312.717.717,0,0,1-.263.2.846.846,0,0,1-.357.073.881.881,0,0,1-.247-.033.924.924,0,0,1-.185-.073v.736h-.439v-2.506q.134-.036.33-.069a2.514,2.514,0,0,1,.414-.033,1.106,1.106,0,0,1,.4.069.839.839,0,0,1,.3.2.871.871,0,0,1,.192.312A1.192,1.192,0,0,1,519.256-214.787Z" transform="translate(-496.407 218.237)"/><path class="ao" d="M566.044-214.838a.924.924,0,0,0-.074-.43.29.29,0,0,0-.278-.132,1.3,1.3,0,0,0-.16.011l-.131.018v1.531h-.439v-1.835a2.93,2.93,0,0,1,.332-.069,2.753,2.753,0,0,1,.433-.033.863.863,0,0,1,.321.051.619.619,0,0,1,.209.134.847.847,0,0,1,.1-.062,1.046,1.046,0,0,1,.138-.06,1.265,1.265,0,0,1,.161-.045.827.827,0,0,1,.172-.018.905.905,0,0,1,.365.063.535.535,0,0,1,.225.178.691.691,0,0,1,.112.276,1.892,1.892,0,0,1,.031.354v1.066h-.439v-1a.945.945,0,0,0-.073-.43.289.289,0,0,0-.279-.132.577.577,0,0,0-.2.034.653.653,0,0,0-.141.067.968.968,0,0,1,.04.192,2.044,2.044,0,0,1,.011.218v1.048h-.439Z" transform="translate(-541.886 218.237)"/><path class="ao" d="M633.687-214.95a1.191,1.191,0,0,1,.074-.439.92.92,0,0,1,.2-.314.818.818,0,0,1,.283-.189.876.876,0,0,1,.326-.063.781.781,0,0,1,.611.243,1.052,1.052,0,0,1,.219.725q0,.036,0,.082t-.005.082H634.14a.5.5,0,0,0,.161.354.613.613,0,0,0,.415.125,1.364,1.364,0,0,0,.292-.029,1.211,1.211,0,0,0,.209-.062l.058.359a.705.705,0,0,1-.1.038,1.4,1.4,0,0,1-.145.036q-.082.016-.176.027a1.673,1.673,0,0,1-.192.011,1.163,1.163,0,0,1-.435-.074.81.81,0,0,1-.3-.207.846.846,0,0,1-.178-.312A1.273,1.273,0,0,1,633.687-214.95Zm1.273-.2a.58.58,0,0,0-.025-.172.417.417,0,0,0-.074-.141.352.352,0,0,0-.12-.094.382.382,0,0,0-.169-.034.393.393,0,0,0-.178.038.4.4,0,0,0-.129.1.455.455,0,0,0-.082.141.77.77,0,0,0-.04.163Z" transform="translate(-607.802 218.408)"/><path class="ao" d="M681.457-215.675a2.944,2.944,0,0,1,.33-.069,2.845,2.845,0,0,1,.45-.033,1.035,1.035,0,0,1,.388.063.6.6,0,0,1,.248.178.678.678,0,0,1,.131.276,1.543,1.543,0,0,1,.038.354v1.066H682.6v-1a1.439,1.439,0,0,0-.02-.259.461.461,0,0,0-.065-.174.261.261,0,0,0-.123-.1.52.52,0,0,0-.19-.031,1.467,1.467,0,0,0-.174.011l-.134.018v1.531h-.439Z" transform="translate(-653.621 218.237)"/><path class="ao" d="M727.362-228.757l.439-.073v.573h.675v.366H727.8v.773a.561.561,0,0,0,.073.326.287.287,0,0,0,.247.1.805.805,0,0,0,.212-.025,1.452,1.452,0,0,0,.147-.047l.073.348a1.65,1.65,0,0,1-.2.067,1.086,1.086,0,0,1-.29.034.918.918,0,0,1-.339-.054.5.5,0,0,1-.216-.158.625.625,0,0,1-.112-.25,1.553,1.553,0,0,1-.033-.335Z" transform="translate(-697.651 230.757)"/><path class="ao" d="M399.316-130.822v.521H398.3v2.793h-.607V-130.3h-1.019v-.521Z" transform="translate(-380.468 136.752)"/><path class="ao" d="M461.911-111.631a1.842,1.842,0,0,0-.2-.05,1.46,1.46,0,0,0-.294-.026,1.164,1.164,0,0,0-.2.019,1.22,1.22,0,0,0-.151.033v2h-.579v-2.382a3.184,3.184,0,0,1,.419-.117,2.607,2.607,0,0,1,.557-.055q.057,0,.134.007t.153.019q.077.012.148.029t.115.031Z" transform="translate(-441.676 118.896)"/><path class="ao" d="M497.139-110.282a2.152,2.152,0,0,0,.406-.029v-.641a1.119,1.119,0,0,0-.139-.029,1.292,1.292,0,0,0-.2-.014,1.335,1.335,0,0,0-.194.014.6.6,0,0,0-.177.053.321.321,0,0,0-.127.108.3.3,0,0,0-.048.175.306.306,0,0,0,.129.285A.666.666,0,0,0,497.139-110.282Zm-.048-2.157a1.417,1.417,0,0,1,.483.072.772.772,0,0,1,.313.2.753.753,0,0,1,.167.313,1.535,1.535,0,0,1,.05.4v1.516q-.134.029-.4.069a4.126,4.126,0,0,1-.61.041,1.83,1.83,0,0,1-.411-.043.865.865,0,0,1-.318-.139.654.654,0,0,1-.206-.249.863.863,0,0,1-.074-.378.729.729,0,0,1,.084-.364.687.687,0,0,1,.227-.242.984.984,0,0,1,.332-.134,1.871,1.871,0,0,1,.395-.041,1.781,1.781,0,0,1,.2.012,1.871,1.871,0,0,1,.225.041v-.1a.749.749,0,0,0-.024-.191.4.4,0,0,0-.084-.16.392.392,0,0,0-.158-.108.684.684,0,0,0-.246-.038,2.188,2.188,0,0,0-.368.029,1.62,1.62,0,0,0-.273.067l-.072-.469a2.281,2.281,0,0,1,.32-.076A2.511,2.511,0,0,1,497.091-112.439Z" transform="translate(-475.818 119.12)"/><path class="ao" d="M552.287-111.124a1.533,1.533,0,0,1,.086-.519,1.232,1.232,0,0,1,.246-.419,1.128,1.128,0,0,1,.39-.277,1.276,1.276,0,0,1,.517-.1,1.751,1.751,0,0,1,.67.129l-.124.473a1.31,1.31,0,0,0-.227-.072,1.222,1.222,0,0,0-.27-.029.633.633,0,0,0-.517.213.914.914,0,0,0-.177.6.946.946,0,0,0,.167.591.669.669,0,0,0,.564.218,1.483,1.483,0,0,0,.292-.029,1.37,1.37,0,0,0,.249-.072l.081.478a1.2,1.2,0,0,1-.289.086,2.058,2.058,0,0,1-.4.038,1.45,1.45,0,0,1-.557-.1,1.056,1.056,0,0,1-.392-.273,1.13,1.13,0,0,1-.232-.416A1.727,1.727,0,0,1,552.287-111.124Z" transform="translate(-529.727 119.12)"/><path class="ao" d="M604.269-138.355l.234-.246q.125-.132.244-.263t.227-.253q.108-.122.184-.213h.684q-.239.268-.5.555t-.532.56a3.309,3.309,0,0,1,.3.289q.157.17.305.361t.277.383a3.9,3.9,0,0,1,.215.354h-.67q-.086-.148-.2-.311t-.242-.316q-.129-.153-.263-.289a2.246,2.246,0,0,0-.263-.232v1.148h-.579v-3.616l.579-.1Z" transform="translate(-579.031 146.074)"/><path class="ao" d="M659.959-134.022h-.579v-2.5h.579Zm.062-3.233a.332.332,0,0,1-.105.258.358.358,0,0,1-.249.1.363.363,0,0,1-.253-.1.332.332,0,0,1-.105-.258.338.338,0,0,1,.105-.263.363.363,0,0,1,.253-.1.358.358,0,0,1,.249.1A.338.338,0,0,1,660.022-137.255Z" transform="translate(-632.378 143.267)"/><path class="ao" d="M686.006-112.071a3.879,3.879,0,0,1,.435-.091,3.758,3.758,0,0,1,.593-.043,1.365,1.365,0,0,1,.512.084.8.8,0,0,1,.328.234.9.9,0,0,1,.172.364,2.032,2.032,0,0,1,.05.466v1.406h-.579v-1.315a1.913,1.913,0,0,0-.026-.342.606.606,0,0,0-.086-.23.343.343,0,0,0-.162-.129.685.685,0,0,0-.251-.041,1.928,1.928,0,0,0-.23.014q-.12.014-.177.024v2.018h-.579Z" transform="translate(-657.984 118.896)"/><path class="ao" d="M744.442-110.966a.764.764,0,0,0,.16.538.543.543,0,0,0,.414.17.866.866,0,0,0,.261-.038.743.743,0,0,0,.2-.091v-1.3q-.062-.014-.153-.026a1.811,1.811,0,0,0-.23-.012.584.584,0,0,0-.483.208A.847.847,0,0,0,744.442-110.966Zm1.612,1.062a1.132,1.132,0,0,1-.3.875,1.344,1.344,0,0,1-.93.277,2.577,2.577,0,0,1-.447-.038,2.5,2.5,0,0,1-.395-.1l.105-.493a1.8,1.8,0,0,0,.337.1,2.061,2.061,0,0,0,.409.038.7.7,0,0,0,.5-.143.566.566,0,0,0,.148-.426v-.1a1.5,1.5,0,0,1-.227.086,1.107,1.107,0,0,1-.323.043,1.207,1.207,0,0,1-.438-.077.917.917,0,0,1-.34-.225,1.028,1.028,0,0,1-.22-.371,1.535,1.535,0,0,1-.079-.514,1.456,1.456,0,0,1,.084-.5,1.074,1.074,0,0,1,.244-.392,1.114,1.114,0,0,1,.39-.254,1.408,1.408,0,0,1,.521-.091,3.2,3.2,0,0,1,.536.043q.254.043.431.091Z" transform="translate(-713.464 118.896)"/></g><g transform="translate(314.697 68.372)"><rect class="e" width="35.591" height="17.795" rx="5" transform="translate(0 0)"/><text class="ap" transform="translate(8.43 10.623)"><tspan x="0" y="0">Search</tspan></text></g></g><g class="bb" transform="matrix(1, 0, 0, 1, -33.72, -29.97)"><rect class="c" width="114.265" height="127.378" rx="5" transform="translate(443.01 109.58)"/></g><g transform="translate(409.294 79.611)"><g transform="translate(0)"><g class="aq" transform="translate(0 0)"><rect class="az" width="114.265" height="127.378" rx="5"/><rect class="a" x="0.5" y="0.5" width="113.265" height="126.378" rx="4.5"/></g><g transform="translate(9.366 20.429)"><g transform="translate(0 0)"><path class="ar" d="M68.1,270.36h0a1.719,1.719,0,0,1-.419-2.382l4.155-7.079a1.71,1.71,0,0,1,2.8,1.963l-4.155,7.079a1.719,1.719,0,0,1-2.381.419" transform="translate(-63.138 -260.161)"/><path class="ar" d="M172.443,266.809H166.76a3.039,3.039,0,0,0,4.081.9,1.442,1.442,0,0,1,1.987.509,1.489,1.489,0,0,1-.509,2.012,6.051,6.051,0,0,1-3.055.813,5.734,5.734,0,0,1-5.231-3.162,5.539,5.539,0,0,1-.066-4.443,5.443,5.443,0,0,1,10.421,1.454c.131,1.281-.723,1.922-1.946,1.922m-1.3-2.431a2.286,2.286,0,0,0-4.352,0Z" transform="translate(-151.402 -260.092)"/><path class="ar" d="M314.951,266.809h-5.683a3.039,3.039,0,0,0,4.081.9,1.441,1.441,0,0,1,1.987.509,1.484,1.484,0,0,1-.517,2.012,6.051,6.051,0,0,1-3.055.813,5.733,5.733,0,0,1-5.231-3.162,5.539,5.539,0,0,1-.066-4.443,5.443,5.443,0,0,1,10.421,1.454c.14,1.281-.714,1.922-1.938,1.922m-1.3-2.431a2.286,2.286,0,0,0-4.352,0Z" transform="translate(-282.2 -260.092)"/><path class="ar" d="M464.214,260.4c-.041-.016-.082-.041-.123-.057-.123-.049-.246-.1-.37-.14a.074.074,0,0,0-.041-.008c-.131-.041-.271-.074-.411-.107a.2.2,0,0,0-.066-.008,3.248,3.248,0,0,0-.394-.057c-.1-.008-.205-.016-.312-.016-.057,0-.107-.008-.164-.008h-.016a4.836,4.836,0,0,0-3.006,1.084A4.818,4.818,0,0,0,456.306,260h-.016c-.057,0-.115.008-.164.008-.107,0-.205.008-.312.016-.131.016-.263.033-.394.057a.2.2,0,0,1-.066.008c-.14.033-.279.066-.411.107-.016,0-.025.008-.041.008-.123.041-.255.09-.37.14a.829.829,0,0,0-.123.057,4.713,4.713,0,0,0-2.809,4.287v4.377a2.123,2.123,0,0,0,.033.328c0,.008.008.025.008.033a2.173,2.173,0,0,0,.074.246l.049.123c.025.049.049.09.074.131a1.707,1.707,0,0,0,.14.2c.008.008.016.025.025.033a1.667,1.667,0,0,0,.755.517.4.4,0,0,1,.09.033c.049.016.107.025.156.041a1.273,1.273,0,0,0,.255.025h.049a1.728,1.728,0,0,0,1.708-1.708v-4.377a1.289,1.289,0,1,1,2.579,0v4.377a1.728,1.728,0,0,0,1.708,1.708h.016a1.728,1.728,0,0,0,1.708-1.708v-4.377a1.311,1.311,0,0,1,1.289-1.306,1.3,1.3,0,0,1,1.289,1.306v4.377a1.728,1.728,0,0,0,1.708,1.708h.049a1.34,1.34,0,0,0,.255-.025,1.09,1.09,0,0,0,.156-.041.4.4,0,0,0,.09-.033,1.712,1.712,0,0,0,.755-.517c.008-.008.016-.025.025-.033.049-.066.1-.131.14-.2.025-.041.049-.09.074-.131l.049-.123a1.407,1.407,0,0,0,.074-.246c0-.008.008-.025.008-.033a1.44,1.44,0,0,0,.033-.328v-4.377a4.713,4.713,0,0,0-2.809-4.287" transform="translate(-415.81 -260)"/><path class="as" d="M20.1,260.661h0a1.711,1.711,0,0,1,2.381.419s2.809,5.165,3.153,5.724a2.865,2.865,0,0,0,.476.5,1.709,1.709,0,0,0,2.275-.287l.164-.279a1.72,1.72,0,0,1-2.283.287,3.242,3.242,0,0,1-.476-.5c-.345-.567-3.153-5.724-3.153-5.724a1.719,1.719,0,0,0-2.381-.419,1.635,1.635,0,0,0-.558.673,2.035,2.035,0,0,1,.4-.394" transform="translate(-19.378 -260.069)"/><path class="at" d="M22.511,270.525h0a3.238,3.238,0,0,1-.476-.5c-.345-.567-3.153-5.724-3.153-5.724a1.71,1.71,0,1,0-2.8,1.963l3.958,7.079a1.823,1.823,0,0,0,2.907,0l1.839-3.1a1.709,1.709,0,0,1-2.275.287" transform="translate(-15.776 -263.282)"/></g></g></g><text class="au" transform="translate(9.366 44.654)"><tspan x="0" y="0">Veem Connect</tspan></text><text class="av" transform="translate(9.366 55.64)"><tspan x="0" y="0">Deskera Books and Veem </tspan><tspan x="0" y="8">Integration for Online Payments</tspan></text><rect class="l" width="19.669" height="9.366" rx="2" transform="translate(86.167 107.709)"/><path class="m" d="M2.81,0l.773,2.32L5.62,2.5,4.06,4.123l.486,2.434L2.81,5.237,1.073,6.556,1.56,4.123,0,2.5,2.037,2.32Z" transform="translate(9.366 109.582)"/><path class="m" d="M2.81,0l.773,2.32L5.62,2.5,4.06,4.123l.486,2.434L2.81,5.237,1.073,6.556,1.56,4.123,0,2.5,2.037,2.32Z" transform="translate(15.922 109.582)"/><path class="m" d="M3.278,0l.9,2.32L6.556,2.5,4.737,4.123,5.3,6.556,3.278,5.237,1.252,6.556l.567-2.434L0,2.5,2.377,2.32Z" transform="translate(23.415 109.582)"/><path class="m" d="M3.278,0l.9,2.32L6.556,2.5,4.737,4.123,5.3,6.556,3.278,5.237,1.252,6.556l.567-2.434L0,2.5,2.377,2.32Z" transform="translate(30.908 109.582)"/><path class="m" d="M2.81,0l.773,2.32L5.62,2.5,4.06,4.123l.486,2.434L2.81,5.237,1.073,6.556,1.56,4.123,0,2.5,2.037,2.32Z" transform="translate(38.401 109.582)"/><text class="aw" transform="translate(90.85 113.582)"><tspan x="0" y="0">FREE</tspan></text></g><g class="ba" transform="matrix(1, 0, 0, 1, -33.72, -29.97)"><rect class="ax" width="64.625" height="19.669" rx="9.834" transform="translate(105.84 192.94)"/></g><g transform="translate(72.118 162.968)"><rect class="ax" width="64.625" height="19.669" rx="9.834" transform="translate(0 0)"/><text class="ay" transform="translate(19.669 11.62)"><tspan x="0" y="0">Connected</tspan></text><path class="c" d="M10,5.281A4.718,4.718,0,1,1,5.281.563,4.718,4.718,0,0,1,10,5.281Zm-5.264,2.5,3.5-3.5a.3.3,0,0,0,0-.43l-.43-.43a.3.3,0,0,0-.43,0L4.52,6.272,3.187,4.939a.3.3,0,0,0-.43,0l-.43.43a.3.3,0,0,0,0,.43L4.3,7.779a.3.3,0,0,0,.43,0Z" transform="translate(5.057 4.12)"/></g></g></g></svg>