<svg xmlns="http://www.w3.org/2000/svg" xmlns:xlink="http://www.w3.org/1999/xlink" width="405" height="740" viewBox="0 0 405 740"><defs><style>.a{fill:#fff;}.b{clip-path:url(#a);}.c{opacity:0.07;}.d{fill:none;stroke:#585858;stroke-miterlimit:10;stroke-width:2px;}</style><clipPath id="a"><rect class="a" width="405" height="740" transform="translate(35 927)"/></clipPath></defs><g class="b" transform="translate(-35 -927)"><g class="c" transform="translate(425.311 1509.824) rotate(160)"><path class="d" d="M597.445,309.435s-89.1-43.564-71.44-155.19C545.8,29.085,442.932-22.837,371.632,9.285s-68.135,146.71-202.785,152.5C31.174,167.7,0,312.406,0,312.406" transform="translate(0 586.468) rotate(-79)"/><path class="d" d="M435.958,286.73S398.5,192.206,413.91,97.271,366.7-7.684,341.531,3.81C289.307,27.66,277.46,150.674,193.542,160.037,130.459,167.074,46.533,120.979,0,229.556" transform="translate(67.885 541.366) rotate(-79)"/><path class="d" d="M345.416,81.427s15.493-97.52-46.667-79.114C227.5,23.41,227.9,70.148,138.794,27.467,107.1,12.287-21.507,9.839,3.111,96.014" transform="translate(237.87 524.196) rotate(-79)"/></g></g></svg>