<svg xmlns="http://www.w3.org/2000/svg" width="65" height="65" viewBox="0 0 65 65"><defs><style>.a{fill:#0d6363;}.b{fill:none;stroke:#fff;stroke-linecap:round;stroke-width:1.5px;}.b,.c{fill-rule:evenodd;}.c{fill:#fff;}</style></defs><g transform="translate(-851 -23730)"><g transform="translate(757 15295)"><circle class="a" cx="32.5" cy="32.5" r="32.5" transform="translate(94 8435)"/></g><g transform="translate(1 15091)"><g transform="translate(870.75 8659)"><path class="b" d="M25.5,4.75A4.5,4.5,0,0,0,21,.25H6.75a4.5,4.5,0,0,0-4.5,4.5v16.5a4.5,4.5,0,0,0,4.5,4.5H21a4.5,4.5,0,0,0,4.5-4.5Z" transform="translate(-2.25 -0.25)"/></g><g transform="translate(874.5 8674.75)"><path class="c" d="M5.75,6.625a1.125,1.125,0,0,0-2.25,0v3.75a1.125,1.125,0,1,0,2.25,0Z" transform="translate(-3.5 -5.5)"/></g><g transform="translate(879 8671.75)"><path class="c" d="M7.25,5.625a1.125,1.125,0,1,0-2.25,0v6.75a1.125,1.125,0,1,0,2.25,0Z" transform="translate(-5 -4.5)"/></g><g transform="translate(883.5 8668.75)"><path class="c" d="M8.75,4.625a1.125,1.125,0,0,0-2.25,0v9.75a1.125,1.125,0,1,0,2.25,0Z" transform="translate(-6.5 -3.5)"/></g><g transform="translate(888 8665.75)"><path class="c" d="M10.25,3.625a1.125,1.125,0,1,0-2.25,0v12.75a1.125,1.125,0,1,0,2.25,0Z" transform="translate(-8 -2.5)"/></g></g></g></svg>