<svg xmlns="http://www.w3.org/2000/svg" width="65" height="65" viewBox="0 0 65 65"><defs><style>.a{fill:#117989;}.b{fill:#fff;}</style></defs><g transform="translate(-851 -24652)"><g transform="translate(757 16217)"><circle class="a" cx="32.5" cy="32.5" r="32.5" transform="translate(94 8435)"/></g><g transform="translate(875 24670)"><path class="b" d="M79.125,53.153a.582.582,0,0,1-.114-.011.623.623,0,0,1-.11-.033.6.6,0,0,1-.1-.054.592.592,0,0,1-.089-.073.623.623,0,0,1-.073-.089.635.635,0,0,1-.054-.1.556.556,0,0,1-.033-.11.568.568,0,0,1,0-.229.556.556,0,0,1,.033-.11.623.623,0,0,1,.054-.1.563.563,0,0,1,.162-.162.579.579,0,0,1,.211-.087.591.591,0,0,1,.528.16.578.578,0,0,1,.073.089.606.606,0,0,1,.054.1.584.584,0,0,1,0,.448.617.617,0,0,1-.054.1.623.623,0,0,1-.073.089A.59.59,0,0,1,79.125,53.153Zm0,0" transform="translate(-73.937 -48.936)"/><path class="b" d="M14.182,0H2.657A2.66,2.66,0,0,0,0,2.657V27.343A2.66,2.66,0,0,0,2.657,30H14.182a2.66,2.66,0,0,0,2.657-2.657V2.657A2.66,2.66,0,0,0,14.182,0ZM2.657,1.172H14.182a1.487,1.487,0,0,1,1.485,1.485v.389H7.99a.586.586,0,0,0,0,1.172h7.677V25.2H1.172V4.217H2.717a.586.586,0,0,0,0-1.172H1.172V2.657A1.487,1.487,0,0,1,2.657,1.172Zm13.01,26.171a1.487,1.487,0,0,1-1.485,1.485H2.657a1.487,1.487,0,0,1-1.485-1.485v-.975H15.667Zm0,0"/><path class="b" d="M46.971,140.357H42.836a.586.586,0,0,1-.586-.586v-4.135a.586.586,0,0,1,.586-.586h4.135a.586.586,0,0,1,.586.586v4.135A.586.586,0,0,1,46.971,140.357Zm-3.549-1.172h2.963v-2.963H43.422Zm0,0" transform="translate(-39.774 -127.137)"/><path class="b" d="M159.28,140.357h-4.135a.586.586,0,0,1-.586-.586v-4.135a.586.586,0,0,1,.586-.586h4.135a.586.586,0,0,1,.586.586v4.135A.586.586,0,0,1,159.28,140.357Zm-3.549-1.172h2.963v-2.963h-2.963Zm0,0" transform="translate(-145.502 -127.137)"/><path class="b" d="M46.971,251.663H42.836a.586.586,0,0,1-.586-.586v-4.135a.586.586,0,0,1,.586-.586h4.135a.586.586,0,0,1,.586.586v4.135A.586.586,0,0,1,46.971,251.663Zm-3.549-1.172h2.963v-2.963H43.422Zm0,0" transform="translate(-39.774 -231.921)"/><path class="b" d="M159.28,251.663h-4.135a.586.586,0,0,1-.586-.586v-4.135a.586.586,0,0,1,.586-.586h4.135a.586.586,0,0,1,.586.586v4.135A.586.586,0,0,1,159.28,251.663Zm-3.549-1.172h2.963v-2.963h-2.963Zm0,0" transform="translate(-145.502 -231.921)"/><path class="b" d="M123.386,462.176h-1.445a.586.586,0,1,1,0-1.172h1.445a.586.586,0,0,1,0,1.172Zm0,0" transform="translate(-114.244 -433.992)"/><path class="b" d="M105.144,362.172h-3.867a.586.586,0,0,1,0-1.172h3.867a.586.586,0,0,1,0,1.172Zm0,0" transform="translate(-94.791 -339.848)"/></g></g></svg>