<svg xmlns="http://www.w3.org/2000/svg" xmlns:xlink="http://www.w3.org/1999/xlink" width="439.279" height="345.105" viewBox="0 0 439.279 345.105"><defs><style>.a{fill:#37dfce;opacity:0.35;}.b{fill:#eefdfa;}.c{fill:#e95353;}.d{fill:#168de2;}.e{fill:#fff;}.f{fill:#ffe21f;}.g{fill:#454545;}.h{fill:#ed6262;}.i{fill:#ffbd49;}.j{fill:#ffdb6f;}.k{fill:#6f6f6f;}.l{fill:#777;}.m{fill:#3aa2eb;}.n{fill:#2980b9;}.o{fill:#9fe0f6;}.p{fill:#3498db;}.q{fill:#333;}.r{fill:#ffcc5c;}.s{fill:#f7931e;}.t{fill:#f15a24;}.u{fill:#ddd;}.v{fill:#ceccca;}.w{fill:#efefef;}.x{fill:#647892;}.y{fill:#4d6682;}.z{fill:#a4d9f4;}.aa{fill:#fac149;}.ab{fill:#f8a748;}.ac{fill:#fc5b6f;}.ad{fill:#23b658;}.ae{fill:#f74352;}.af{fill:#e8364c;}.ag{fill:#f991a2;}.ah{fill:#64c4ff;}.ai{fill:#48aef9;}.aj{fill:#ffc73b;}.ak{fill:#ffa73e;}.al{fill:#d4efff;}.am{fill:#b7d4e2;}.an{fill:#ff5a39;}.ao{fill:#ff2727;}.ap{fill:#364c59;}.aq{fill:#668fa3;}.ar{filter:url(#g);}.as{filter:url(#e);}.at{filter:url(#c);}.au{filter:url(#a);}</style><filter id="a" x="157.97" y="0" width="198.527" height="198.527" filterUnits="userSpaceOnUse"><feOffset dy="10" input="SourceAlpha"/><feGaussianBlur stdDeviation="6" result="b"/><feFlood flood-opacity="0.11"/><feComposite operator="in" in2="b"/><feComposite in="SourceGraphic"/></filter><filter id="c" x="75.947" y="144.301" width="200.805" height="200.805" filterUnits="userSpaceOnUse"><feOffset dy="10" input="SourceAlpha"/><feGaussianBlur stdDeviation="6" result="d"/><feFlood flood-opacity="0.11"/><feComposite operator="in" in2="d"/><feComposite in="SourceGraphic"/></filter><filter id="e" x="238.474" y="124.555" width="200.805" height="200.805" filterUnits="userSpaceOnUse"><feOffset dy="10" input="SourceAlpha"/><feGaussianBlur stdDeviation="6" result="f"/><feFlood flood-opacity="0.11"/><feComposite operator="in" in2="f"/><feComposite in="SourceGraphic"/></filter><filter id="g" x="0" y="61.516" width="200.805" height="200.805" filterUnits="userSpaceOnUse"><feOffset dy="10" input="SourceAlpha"/><feGaussianBlur stdDeviation="6" result="h"/><feFlood flood-opacity="0.161"/><feComposite operator="in" in2="h"/><feComposite in="SourceGraphic"/></filter></defs><g transform="translate(-722 -42388)"><path class="a" d="M92.764,95.887a1.985,1.985,0,1,1,1.984,2.029A2.007,2.007,0,0,1,92.764,95.887Zm-10.417,0a1.985,1.985,0,1,1,1.984,2.029A2.007,2.007,0,0,1,82.347,95.887Zm-9.921,0a1.985,1.985,0,1,1,1.984,2.029A2.008,2.008,0,0,1,72.426,95.887Zm-10.418,0a1.985,1.985,0,1,1,1.984,2.029A2.008,2.008,0,0,1,62.009,95.887Zm-10.417,0a1.985,1.985,0,1,1,1.984,2.029A2.008,2.008,0,0,1,51.591,95.887Zm-10.417,0a1.985,1.985,0,1,1,1.984,2.029A2.007,2.007,0,0,1,41.175,95.887Zm-10.418,0a1.985,1.985,0,1,1,1.984,2.029A2.007,2.007,0,0,1,30.757,95.887Zm-9.922,0a1.985,1.985,0,1,1,1.984,2.029A2.007,2.007,0,0,1,20.835,95.887Zm-10.418,0A1.985,1.985,0,1,1,12.4,97.917,2.007,2.007,0,0,1,10.417,95.887ZM0,95.887a2.007,2.007,0,0,1,1.984-2.029,2.03,2.03,0,0,1,0,4.059A2.007,2.007,0,0,1,0,95.887Zm92.764-8.623a1.985,1.985,0,1,1,1.984,2.029A2.007,2.007,0,0,1,92.764,87.265Zm-10.417,0a1.985,1.985,0,1,1,1.984,2.029A2.007,2.007,0,0,1,82.347,87.265Zm-9.921,0a1.985,1.985,0,1,1,1.984,2.029A2.007,2.007,0,0,1,72.426,87.265Zm-10.418,0a1.985,1.985,0,1,1,1.984,2.029A2.007,2.007,0,0,1,62.009,87.265Zm-10.417,0a1.985,1.985,0,1,1,1.984,2.029A2.007,2.007,0,0,1,51.591,87.265Zm-10.417,0a1.985,1.985,0,1,1,1.984,2.029A2.007,2.007,0,0,1,41.175,87.265Zm-10.418,0a1.985,1.985,0,1,1,1.984,2.029A2.007,2.007,0,0,1,30.757,87.265Zm-9.922,0a1.985,1.985,0,1,1,1.984,2.029A2.007,2.007,0,0,1,20.835,87.265Zm-10.418,0A1.985,1.985,0,1,1,12.4,89.294,2.007,2.007,0,0,1,10.417,87.265ZM0,87.265a2.007,2.007,0,0,1,1.984-2.029,2.03,2.03,0,0,1,0,4.059A2.007,2.007,0,0,1,0,87.265Zm92.764-8.118a1.985,1.985,0,1,1,1.984,2.029A2.007,2.007,0,0,1,92.764,79.146Zm-10.417,0a1.985,1.985,0,1,1,1.984,2.029A2.007,2.007,0,0,1,82.347,79.146Zm-9.921,0a1.985,1.985,0,1,1,1.984,2.029A2.007,2.007,0,0,1,72.426,79.146Zm-10.418,0a1.985,1.985,0,1,1,1.984,2.029A2.007,2.007,0,0,1,62.009,79.146Zm-10.417,0a1.985,1.985,0,1,1,1.984,2.029A2.007,2.007,0,0,1,51.591,79.146Zm-10.417,0a1.985,1.985,0,1,1,1.984,2.029A2.007,2.007,0,0,1,41.175,79.146Zm-10.418,0a1.985,1.985,0,1,1,1.984,2.029A2.007,2.007,0,0,1,30.757,79.146Zm-9.922,0a1.985,1.985,0,1,1,1.984,2.029A2.007,2.007,0,0,1,20.835,79.146Zm-10.418,0A1.985,1.985,0,1,1,12.4,81.176,2.007,2.007,0,0,1,10.417,79.146ZM0,79.146a2.007,2.007,0,0,1,1.984-2.029,2.03,2.03,0,0,1,0,4.059A2.007,2.007,0,0,1,0,79.146ZM92.764,70.52a1.985,1.985,0,1,1,1.984,2.029A2.007,2.007,0,0,1,92.764,70.52Zm-10.417,0a1.985,1.985,0,1,1,1.984,2.029A2.007,2.007,0,0,1,82.347,70.52Zm-9.921,0a1.985,1.985,0,1,1,1.984,2.029A2.007,2.007,0,0,1,72.426,70.52Zm-10.418,0a1.985,1.985,0,1,1,1.984,2.029A2.007,2.007,0,0,1,62.009,70.52Zm-10.417,0a1.985,1.985,0,1,1,1.984,2.029A2.007,2.007,0,0,1,51.591,70.52Zm-10.417,0a1.985,1.985,0,1,1,1.984,2.029A2.007,2.007,0,0,1,41.175,70.52Zm-10.418,0a1.985,1.985,0,1,1,1.984,2.029A2.007,2.007,0,0,1,30.757,70.52Zm-9.922,0a1.985,1.985,0,1,1,1.984,2.029A2.007,2.007,0,0,1,20.835,70.52Zm-10.418,0A1.985,1.985,0,1,1,12.4,72.549,2.007,2.007,0,0,1,10.417,70.52ZM0,70.52A2.007,2.007,0,0,1,1.984,68.49a2.03,2.03,0,0,1,0,4.059A2.007,2.007,0,0,1,0,70.52ZM92.764,61.9a1.985,1.985,0,1,1,1.984,2.029A2.007,2.007,0,0,1,92.764,61.9Zm-10.417,0a1.985,1.985,0,1,1,1.984,2.029A2.007,2.007,0,0,1,82.347,61.9Zm-9.921,0a1.985,1.985,0,1,1,1.984,2.029A2.007,2.007,0,0,1,72.426,61.9Zm-10.418,0a1.985,1.985,0,1,1,1.984,2.029A2.007,2.007,0,0,1,62.009,61.9Zm-10.417,0a1.985,1.985,0,1,1,1.984,2.029A2.007,2.007,0,0,1,51.591,61.9Zm-10.417,0a1.985,1.985,0,1,1,1.984,2.029A2.007,2.007,0,0,1,41.175,61.9Zm-10.418,0a1.985,1.985,0,1,1,1.984,2.029A2.007,2.007,0,0,1,30.757,61.9Zm-9.922,0a1.985,1.985,0,1,1,1.984,2.029A2.007,2.007,0,0,1,20.835,61.9Zm-10.418,0A1.985,1.985,0,1,1,12.4,63.926,2.007,2.007,0,0,1,10.417,61.9ZM0,61.9a2.007,2.007,0,0,1,1.984-2.029,2.03,2.03,0,0,1,0,4.058A2.007,2.007,0,0,1,0,61.9Zm92.764-8.625A1.985,1.985,0,1,1,94.749,55.3,2.007,2.007,0,0,1,92.764,53.271Zm-10.417,0A1.985,1.985,0,1,1,84.332,55.3,2.007,2.007,0,0,1,82.347,53.271Zm-9.921,0A1.985,1.985,0,1,1,74.411,55.3,2.007,2.007,0,0,1,72.426,53.271Zm-10.418,0A1.985,1.985,0,1,1,63.993,55.3,2.007,2.007,0,0,1,62.009,53.271Zm-10.417,0A1.985,1.985,0,1,1,53.576,55.3,2.007,2.007,0,0,1,51.591,53.271Zm-10.417,0A1.985,1.985,0,1,1,43.159,55.3,2.007,2.007,0,0,1,41.175,53.271Zm-10.418,0A1.985,1.985,0,1,1,32.741,55.3,2.007,2.007,0,0,1,30.757,53.271Zm-9.922,0A1.985,1.985,0,1,1,22.819,55.3,2.007,2.007,0,0,1,20.835,53.271Zm-10.418,0A1.985,1.985,0,1,1,12.4,55.3,2.007,2.007,0,0,1,10.417,53.271ZM0,53.271a2.007,2.007,0,0,1,1.984-2.029,2.03,2.03,0,0,1,0,4.058A2.007,2.007,0,0,1,0,53.271Zm92.764-8.623a1.985,1.985,0,1,1,1.984,2.029A2.007,2.007,0,0,1,92.764,44.648Zm-10.417,0a1.985,1.985,0,1,1,1.984,2.029A2.007,2.007,0,0,1,82.347,44.648Zm-9.921,0a1.985,1.985,0,1,1,1.984,2.029A2.007,2.007,0,0,1,72.426,44.648Zm-10.418,0a1.985,1.985,0,1,1,1.984,2.029A2.007,2.007,0,0,1,62.009,44.648Zm-10.417,0a1.985,1.985,0,1,1,1.984,2.029A2.007,2.007,0,0,1,51.591,44.648Zm-10.417,0a1.985,1.985,0,1,1,1.984,2.029A2.007,2.007,0,0,1,41.175,44.648Zm-10.418,0a1.985,1.985,0,1,1,1.984,2.029A2.007,2.007,0,0,1,30.757,44.648Zm-9.922,0a1.985,1.985,0,1,1,1.984,2.029A2.007,2.007,0,0,1,20.835,44.648Zm-10.418,0A1.985,1.985,0,1,1,12.4,46.678,2.007,2.007,0,0,1,10.417,44.648ZM0,44.648a2.007,2.007,0,0,1,1.984-2.029,2.03,2.03,0,0,1,0,4.059A2.007,2.007,0,0,1,0,44.648Zm92.764-8.626a1.985,1.985,0,1,1,1.984,2.029A2.007,2.007,0,0,1,92.764,36.023Zm-10.417,0a1.985,1.985,0,1,1,1.984,2.029A2.007,2.007,0,0,1,82.347,36.023Zm-9.921,0a1.985,1.985,0,1,1,1.984,2.029A2.007,2.007,0,0,1,72.426,36.023Zm-10.418,0a1.985,1.985,0,1,1,1.984,2.029A2.007,2.007,0,0,1,62.009,36.023Zm-10.417,0a1.985,1.985,0,1,1,1.984,2.029A2.007,2.007,0,0,1,51.591,36.023Zm-10.417,0a1.985,1.985,0,1,1,1.984,2.029A2.007,2.007,0,0,1,41.175,36.023Zm-10.418,0a1.985,1.985,0,1,1,1.984,2.029A2.007,2.007,0,0,1,30.757,36.023Zm-9.922,0a1.985,1.985,0,1,1,1.984,2.029A2.007,2.007,0,0,1,20.835,36.023Zm-10.418,0A1.985,1.985,0,1,1,12.4,38.052,2.007,2.007,0,0,1,10.417,36.023ZM0,36.023a2.007,2.007,0,0,1,1.984-2.029,2.03,2.03,0,0,1,0,4.059A2.007,2.007,0,0,1,0,36.023ZM92.764,27.9a1.985,1.985,0,1,1,1.984,2.029A2.007,2.007,0,0,1,92.764,27.9Zm-10.417,0a1.985,1.985,0,1,1,1.984,2.029A2.007,2.007,0,0,1,82.347,27.9Zm-9.921,0a1.985,1.985,0,1,1,1.984,2.029A2.007,2.007,0,0,1,72.426,27.9Zm-10.418,0a1.985,1.985,0,1,1,1.984,2.029A2.007,2.007,0,0,1,62.009,27.9Zm-10.417,0a1.985,1.985,0,1,1,1.984,2.029A2.007,2.007,0,0,1,51.591,27.9Zm-10.417,0a1.985,1.985,0,1,1,1.984,2.029A2.007,2.007,0,0,1,41.175,27.9Zm-10.418,0a1.985,1.985,0,1,1,1.984,2.029A2.007,2.007,0,0,1,30.757,27.9Zm-9.922,0a1.985,1.985,0,1,1,1.984,2.029A2.007,2.007,0,0,1,20.835,27.9Zm-10.418,0A1.985,1.985,0,1,1,12.4,29.934,2.007,2.007,0,0,1,10.417,27.9ZM0,27.9a2.007,2.007,0,0,1,1.984-2.029,2.03,2.03,0,0,1,0,4.058A2.007,2.007,0,0,1,0,27.9Zm92.764-8.623a1.985,1.985,0,1,1,1.984,2.029A2.007,2.007,0,0,1,92.764,19.282Zm-10.417,0a1.985,1.985,0,1,1,1.984,2.029A2.007,2.007,0,0,1,82.347,19.282Zm-9.921,0a1.985,1.985,0,1,1,1.984,2.029A2.007,2.007,0,0,1,72.426,19.282Zm-10.418,0a1.985,1.985,0,1,1,1.984,2.029A2.007,2.007,0,0,1,62.009,19.282Zm-10.417,0a1.985,1.985,0,1,1,1.984,2.029A2.007,2.007,0,0,1,51.591,19.282Zm-10.417,0a1.985,1.985,0,1,1,1.984,2.029A2.007,2.007,0,0,1,41.175,19.282Zm-10.418,0a1.985,1.985,0,1,1,1.984,2.029A2.007,2.007,0,0,1,30.757,19.282Zm-9.922,0a1.985,1.985,0,1,1,1.984,2.029A2.007,2.007,0,0,1,20.835,19.282Zm-10.418,0A1.985,1.985,0,1,1,12.4,21.311,2.007,2.007,0,0,1,10.417,19.282ZM0,19.282a2.007,2.007,0,0,1,1.984-2.029,2.03,2.03,0,0,1,0,4.059A2.007,2.007,0,0,1,0,19.282Zm92.764-8.627a1.985,1.985,0,1,1,1.984,2.029A2.007,2.007,0,0,1,92.764,10.655Zm-10.417,0a1.985,1.985,0,1,1,1.984,2.029A2.007,2.007,0,0,1,82.347,10.655Zm-9.921,0a1.985,1.985,0,1,1,1.984,2.029A2.007,2.007,0,0,1,72.426,10.655Zm-10.418,0a1.985,1.985,0,1,1,1.984,2.029A2.007,2.007,0,0,1,62.009,10.655Zm-10.417,0a1.985,1.985,0,1,1,1.984,2.029A2.007,2.007,0,0,1,51.591,10.655Zm-10.417,0a1.985,1.985,0,1,1,1.984,2.029A2.007,2.007,0,0,1,41.175,10.655Zm-10.418,0a1.985,1.985,0,1,1,1.984,2.029A2.007,2.007,0,0,1,30.757,10.655Zm-9.922,0a1.985,1.985,0,1,1,1.984,2.029A2.007,2.007,0,0,1,20.835,10.655Zm-10.418,0A1.985,1.985,0,1,1,12.4,12.684,2.007,2.007,0,0,1,10.417,10.655ZM0,10.655A2.007,2.007,0,0,1,1.984,8.626a2.03,2.03,0,0,1,0,4.059A2.007,2.007,0,0,1,0,10.655ZM92.764,2.029a1.985,1.985,0,1,1,3.969,0,1.985,1.985,0,1,1-3.969,0Zm-10.417,0a1.985,1.985,0,1,1,3.969,0,1.985,1.985,0,1,1-3.969,0Zm-9.921,0a1.985,1.985,0,1,1,3.969,0,1.985,1.985,0,1,1-3.969,0Zm-10.418,0a1.985,1.985,0,1,1,3.969,0,1.985,1.985,0,1,1-3.969,0Zm-10.417,0a1.985,1.985,0,1,1,3.969,0,1.985,1.985,0,1,1-3.969,0Zm-10.417,0a1.985,1.985,0,1,1,3.968,0,1.985,1.985,0,1,1-3.968,0Zm-10.418,0a1.985,1.985,0,1,1,3.968,0,1.985,1.985,0,1,1-3.968,0Zm-9.922,0a1.985,1.985,0,1,1,3.969,0,1.985,1.985,0,1,1-3.969,0Zm-10.418,0a1.985,1.985,0,1,1,3.969,0,1.985,1.985,0,1,1-3.969,0ZM0,2.029A2.007,2.007,0,0,1,1.984,0,2.007,2.007,0,0,1,3.969,2.029,2.007,2.007,0,0,1,1.984,4.059,2.007,2.007,0,0,1,0,2.029Z" transform="translate(786.328 42623.082)"/><path class="a" d="M92.764,95.887a1.985,1.985,0,1,1,1.984,2.029A2.007,2.007,0,0,1,92.764,95.887Zm-10.417,0a1.985,1.985,0,1,1,1.984,2.029A2.007,2.007,0,0,1,82.347,95.887Zm-9.921,0a1.985,1.985,0,1,1,1.984,2.029A2.008,2.008,0,0,1,72.426,95.887Zm-10.418,0a1.985,1.985,0,1,1,1.984,2.029A2.008,2.008,0,0,1,62.009,95.887Zm-10.417,0a1.985,1.985,0,1,1,1.984,2.029A2.008,2.008,0,0,1,51.591,95.887Zm-10.417,0a1.985,1.985,0,1,1,1.984,2.029A2.007,2.007,0,0,1,41.175,95.887Zm-10.418,0a1.985,1.985,0,1,1,1.984,2.029A2.007,2.007,0,0,1,30.757,95.887Zm-9.922,0a1.985,1.985,0,1,1,1.984,2.029A2.007,2.007,0,0,1,20.835,95.887Zm-10.418,0A1.985,1.985,0,1,1,12.4,97.917,2.007,2.007,0,0,1,10.417,95.887ZM0,95.887a2.007,2.007,0,0,1,1.984-2.029,2.03,2.03,0,0,1,0,4.059A2.007,2.007,0,0,1,0,95.887Zm92.764-8.623a1.985,1.985,0,1,1,1.984,2.029A2.007,2.007,0,0,1,92.764,87.265Zm-10.417,0a1.985,1.985,0,1,1,1.984,2.029A2.007,2.007,0,0,1,82.347,87.265Zm-9.921,0a1.985,1.985,0,1,1,1.984,2.029A2.007,2.007,0,0,1,72.426,87.265Zm-10.418,0a1.985,1.985,0,1,1,1.984,2.029A2.007,2.007,0,0,1,62.009,87.265Zm-10.417,0a1.985,1.985,0,1,1,1.984,2.029A2.007,2.007,0,0,1,51.591,87.265Zm-10.417,0a1.985,1.985,0,1,1,1.984,2.029A2.007,2.007,0,0,1,41.175,87.265Zm-10.418,0a1.985,1.985,0,1,1,1.984,2.029A2.007,2.007,0,0,1,30.757,87.265Zm-9.922,0a1.985,1.985,0,1,1,1.984,2.029A2.007,2.007,0,0,1,20.835,87.265Zm-10.418,0A1.985,1.985,0,1,1,12.4,89.294,2.007,2.007,0,0,1,10.417,87.265ZM0,87.265a2.007,2.007,0,0,1,1.984-2.029,2.03,2.03,0,0,1,0,4.059A2.007,2.007,0,0,1,0,87.265Zm92.764-8.118a1.985,1.985,0,1,1,1.984,2.029A2.007,2.007,0,0,1,92.764,79.146Zm-10.417,0a1.985,1.985,0,1,1,1.984,2.029A2.007,2.007,0,0,1,82.347,79.146Zm-9.921,0a1.985,1.985,0,1,1,1.984,2.029A2.007,2.007,0,0,1,72.426,79.146Zm-10.418,0a1.985,1.985,0,1,1,1.984,2.029A2.007,2.007,0,0,1,62.009,79.146Zm-10.417,0a1.985,1.985,0,1,1,1.984,2.029A2.007,2.007,0,0,1,51.591,79.146Zm-10.417,0a1.985,1.985,0,1,1,1.984,2.029A2.007,2.007,0,0,1,41.175,79.146Zm-10.418,0a1.985,1.985,0,1,1,1.984,2.029A2.007,2.007,0,0,1,30.757,79.146Zm-9.922,0a1.985,1.985,0,1,1,1.984,2.029A2.007,2.007,0,0,1,20.835,79.146Zm-10.418,0A1.985,1.985,0,1,1,12.4,81.176,2.007,2.007,0,0,1,10.417,79.146ZM0,79.146a2.007,2.007,0,0,1,1.984-2.029,2.03,2.03,0,0,1,0,4.059A2.007,2.007,0,0,1,0,79.146ZM92.764,70.52a1.985,1.985,0,1,1,1.984,2.029A2.007,2.007,0,0,1,92.764,70.52Zm-10.417,0a1.985,1.985,0,1,1,1.984,2.029A2.007,2.007,0,0,1,82.347,70.52Zm-9.921,0a1.985,1.985,0,1,1,1.984,2.029A2.007,2.007,0,0,1,72.426,70.52Zm-10.418,0a1.985,1.985,0,1,1,1.984,2.029A2.007,2.007,0,0,1,62.009,70.52Zm-10.417,0a1.985,1.985,0,1,1,1.984,2.029A2.007,2.007,0,0,1,51.591,70.52Zm-10.417,0a1.985,1.985,0,1,1,1.984,2.029A2.007,2.007,0,0,1,41.175,70.52Zm-10.418,0a1.985,1.985,0,1,1,1.984,2.029A2.007,2.007,0,0,1,30.757,70.52Zm-9.922,0a1.985,1.985,0,1,1,1.984,2.029A2.007,2.007,0,0,1,20.835,70.52Zm-10.418,0A1.985,1.985,0,1,1,12.4,72.549,2.007,2.007,0,0,1,10.417,70.52ZM0,70.52A2.007,2.007,0,0,1,1.984,68.49a2.03,2.03,0,0,1,0,4.059A2.007,2.007,0,0,1,0,70.52ZM92.764,61.9a1.985,1.985,0,1,1,1.984,2.029A2.007,2.007,0,0,1,92.764,61.9Zm-10.417,0a1.985,1.985,0,1,1,1.984,2.029A2.007,2.007,0,0,1,82.347,61.9Zm-9.921,0a1.985,1.985,0,1,1,1.984,2.029A2.007,2.007,0,0,1,72.426,61.9Zm-10.418,0a1.985,1.985,0,1,1,1.984,2.029A2.007,2.007,0,0,1,62.009,61.9Zm-10.417,0a1.985,1.985,0,1,1,1.984,2.029A2.007,2.007,0,0,1,51.591,61.9Zm-10.417,0a1.985,1.985,0,1,1,1.984,2.029A2.007,2.007,0,0,1,41.175,61.9Zm-10.418,0a1.985,1.985,0,1,1,1.984,2.029A2.007,2.007,0,0,1,30.757,61.9Zm-9.922,0a1.985,1.985,0,1,1,1.984,2.029A2.007,2.007,0,0,1,20.835,61.9Zm-10.418,0A1.985,1.985,0,1,1,12.4,63.926,2.007,2.007,0,0,1,10.417,61.9ZM0,61.9a2.007,2.007,0,0,1,1.984-2.029,2.03,2.03,0,0,1,0,4.058A2.007,2.007,0,0,1,0,61.9Zm92.764-8.625A1.985,1.985,0,1,1,94.749,55.3,2.007,2.007,0,0,1,92.764,53.271Zm-10.417,0A1.985,1.985,0,1,1,84.332,55.3,2.007,2.007,0,0,1,82.347,53.271Zm-9.921,0A1.985,1.985,0,1,1,74.411,55.3,2.007,2.007,0,0,1,72.426,53.271Zm-10.418,0A1.985,1.985,0,1,1,63.993,55.3,2.007,2.007,0,0,1,62.009,53.271Zm-10.417,0A1.985,1.985,0,1,1,53.576,55.3,2.007,2.007,0,0,1,51.591,53.271Zm-10.417,0A1.985,1.985,0,1,1,43.159,55.3,2.007,2.007,0,0,1,41.175,53.271Zm-10.418,0A1.985,1.985,0,1,1,32.741,55.3,2.007,2.007,0,0,1,30.757,53.271Zm-9.922,0A1.985,1.985,0,1,1,22.819,55.3,2.007,2.007,0,0,1,20.835,53.271Zm-10.418,0A1.985,1.985,0,1,1,12.4,55.3,2.007,2.007,0,0,1,10.417,53.271ZM0,53.271a2.007,2.007,0,0,1,1.984-2.029,2.03,2.03,0,0,1,0,4.058A2.007,2.007,0,0,1,0,53.271Zm92.764-8.623a1.985,1.985,0,1,1,1.984,2.029A2.007,2.007,0,0,1,92.764,44.648Zm-10.417,0a1.985,1.985,0,1,1,1.984,2.029A2.007,2.007,0,0,1,82.347,44.648Zm-9.921,0a1.985,1.985,0,1,1,1.984,2.029A2.007,2.007,0,0,1,72.426,44.648Zm-10.418,0a1.985,1.985,0,1,1,1.984,2.029A2.007,2.007,0,0,1,62.009,44.648Zm-10.417,0a1.985,1.985,0,1,1,1.984,2.029A2.007,2.007,0,0,1,51.591,44.648Zm-10.417,0a1.985,1.985,0,1,1,1.984,2.029A2.007,2.007,0,0,1,41.175,44.648Zm-10.418,0a1.985,1.985,0,1,1,1.984,2.029A2.007,2.007,0,0,1,30.757,44.648Zm-9.922,0a1.985,1.985,0,1,1,1.984,2.029A2.007,2.007,0,0,1,20.835,44.648Zm-10.418,0A1.985,1.985,0,1,1,12.4,46.678,2.007,2.007,0,0,1,10.417,44.648ZM0,44.648a2.007,2.007,0,0,1,1.984-2.029,2.03,2.03,0,0,1,0,4.059A2.007,2.007,0,0,1,0,44.648Zm92.764-8.626a1.985,1.985,0,1,1,1.984,2.029A2.007,2.007,0,0,1,92.764,36.023Zm-10.417,0a1.985,1.985,0,1,1,1.984,2.029A2.007,2.007,0,0,1,82.347,36.023Zm-9.921,0a1.985,1.985,0,1,1,1.984,2.029A2.007,2.007,0,0,1,72.426,36.023Zm-10.418,0a1.985,1.985,0,1,1,1.984,2.029A2.007,2.007,0,0,1,62.009,36.023Zm-10.417,0a1.985,1.985,0,1,1,1.984,2.029A2.007,2.007,0,0,1,51.591,36.023Zm-10.417,0a1.985,1.985,0,1,1,1.984,2.029A2.007,2.007,0,0,1,41.175,36.023Zm-10.418,0a1.985,1.985,0,1,1,1.984,2.029A2.007,2.007,0,0,1,30.757,36.023Zm-9.922,0a1.985,1.985,0,1,1,1.984,2.029A2.007,2.007,0,0,1,20.835,36.023Zm-10.418,0A1.985,1.985,0,1,1,12.4,38.052,2.007,2.007,0,0,1,10.417,36.023ZM0,36.023a2.007,2.007,0,0,1,1.984-2.029,2.03,2.03,0,0,1,0,4.059A2.007,2.007,0,0,1,0,36.023ZM92.764,27.9a1.985,1.985,0,1,1,1.984,2.029A2.007,2.007,0,0,1,92.764,27.9Zm-10.417,0a1.985,1.985,0,1,1,1.984,2.029A2.007,2.007,0,0,1,82.347,27.9Zm-9.921,0a1.985,1.985,0,1,1,1.984,2.029A2.007,2.007,0,0,1,72.426,27.9Zm-10.418,0a1.985,1.985,0,1,1,1.984,2.029A2.007,2.007,0,0,1,62.009,27.9Zm-10.417,0a1.985,1.985,0,1,1,1.984,2.029A2.007,2.007,0,0,1,51.591,27.9Zm-10.417,0a1.985,1.985,0,1,1,1.984,2.029A2.007,2.007,0,0,1,41.175,27.9Zm-10.418,0a1.985,1.985,0,1,1,1.984,2.029A2.007,2.007,0,0,1,30.757,27.9Zm-9.922,0a1.985,1.985,0,1,1,1.984,2.029A2.007,2.007,0,0,1,20.835,27.9Zm-10.418,0A1.985,1.985,0,1,1,12.4,29.934,2.007,2.007,0,0,1,10.417,27.9ZM0,27.9a2.007,2.007,0,0,1,1.984-2.029,2.03,2.03,0,0,1,0,4.058A2.007,2.007,0,0,1,0,27.9Zm92.764-8.623a1.985,1.985,0,1,1,1.984,2.029A2.007,2.007,0,0,1,92.764,19.282Zm-10.417,0a1.985,1.985,0,1,1,1.984,2.029A2.007,2.007,0,0,1,82.347,19.282Zm-9.921,0a1.985,1.985,0,1,1,1.984,2.029A2.007,2.007,0,0,1,72.426,19.282Zm-10.418,0a1.985,1.985,0,1,1,1.984,2.029A2.007,2.007,0,0,1,62.009,19.282Zm-10.417,0a1.985,1.985,0,1,1,1.984,2.029A2.007,2.007,0,0,1,51.591,19.282Zm-10.417,0a1.985,1.985,0,1,1,1.984,2.029A2.007,2.007,0,0,1,41.175,19.282Zm-10.418,0a1.985,1.985,0,1,1,1.984,2.029A2.007,2.007,0,0,1,30.757,19.282Zm-9.922,0a1.985,1.985,0,1,1,1.984,2.029A2.007,2.007,0,0,1,20.835,19.282Zm-10.418,0A1.985,1.985,0,1,1,12.4,21.311,2.007,2.007,0,0,1,10.417,19.282ZM0,19.282a2.007,2.007,0,0,1,1.984-2.029,2.03,2.03,0,0,1,0,4.059A2.007,2.007,0,0,1,0,19.282Zm92.764-8.627a1.985,1.985,0,1,1,1.984,2.029A2.007,2.007,0,0,1,92.764,10.655Zm-10.417,0a1.985,1.985,0,1,1,1.984,2.029A2.007,2.007,0,0,1,82.347,10.655Zm-9.921,0a1.985,1.985,0,1,1,1.984,2.029A2.007,2.007,0,0,1,72.426,10.655Zm-10.418,0a1.985,1.985,0,1,1,1.984,2.029A2.007,2.007,0,0,1,62.009,10.655Zm-10.417,0a1.985,1.985,0,1,1,1.984,2.029A2.007,2.007,0,0,1,51.591,10.655Zm-10.417,0a1.985,1.985,0,1,1,1.984,2.029A2.007,2.007,0,0,1,41.175,10.655Zm-10.418,0a1.985,1.985,0,1,1,1.984,2.029A2.007,2.007,0,0,1,30.757,10.655Zm-9.922,0a1.985,1.985,0,1,1,1.984,2.029A2.007,2.007,0,0,1,20.835,10.655Zm-10.418,0A1.985,1.985,0,1,1,12.4,12.684,2.007,2.007,0,0,1,10.417,10.655ZM0,10.655A2.007,2.007,0,0,1,1.984,8.626a2.03,2.03,0,0,1,0,4.059A2.007,2.007,0,0,1,0,10.655ZM92.764,2.029a1.985,1.985,0,1,1,3.969,0,1.985,1.985,0,1,1-3.969,0Zm-10.417,0a1.985,1.985,0,1,1,3.969,0,1.985,1.985,0,1,1-3.969,0Zm-9.921,0a1.985,1.985,0,1,1,3.969,0,1.985,1.985,0,1,1-3.969,0Zm-10.418,0a1.985,1.985,0,1,1,3.969,0,1.985,1.985,0,1,1-3.969,0Zm-10.417,0a1.985,1.985,0,1,1,3.969,0,1.985,1.985,0,1,1-3.969,0Zm-10.417,0a1.985,1.985,0,1,1,3.968,0,1.985,1.985,0,1,1-3.968,0Zm-10.418,0a1.985,1.985,0,1,1,3.968,0,1.985,1.985,0,1,1-3.968,0Zm-9.922,0a1.985,1.985,0,1,1,3.969,0,1.985,1.985,0,1,1-3.969,0Zm-10.418,0a1.985,1.985,0,1,1,3.969,0,1.985,1.985,0,1,1-3.969,0ZM0,2.029A2.007,2.007,0,0,1,1.984,0,2.007,2.007,0,0,1,3.969,2.029,2.007,2.007,0,0,1,1.984,4.059,2.007,2.007,0,0,1,0,2.029Z" transform="translate(994.423 42442.328)"/><g transform="translate(897.97 42396)"><g class="au" transform="matrix(1, 0, 0, 1, -175.97, -8)"><rect class="b" width="162.527" height="162.527" rx="31" transform="translate(175.97 8)"/></g><g transform="translate(25.062 37.971)"><path class="c" d="M115.616,104.546a16.4,16.4,0,0,0-3.428-9.148c-4.576-5.957-5.468-10.687-5.468-10.687a130.671,130.671,0,0,0-9.134-19.667,15.773,15.773,0,0,0-11.558-7.616c-9.687-1.252-39.96-1.252-49.647,0a15.793,15.793,0,0,0-11.555,7.616,131.038,131.038,0,0,0-9.134,19.667S14.8,89.441,10.224,95.4A16.391,16.391,0,0,0,6.8,104.546c-.346,7.21,1.742,8.795,3.61,25.11a2.537,2.537,0,0,0,2.526,2.249h96.548a2.54,2.54,0,0,0,2.526-2.249c.525-4.576,2.082-13.857,2.082-13.857A33.981,33.981,0,0,0,115.616,104.546Z" transform="translate(-5.237 -56.49)"/><path class="d" d="M142.25,90.361a140.724,140.724,0,0,0-8.6-18.219,14.227,14.227,0,0,0-10.278-6.909c-9.708-1.287-39.565-1.277-49.2,0a14.227,14.227,0,0,0-10.278,6.909,143.176,143.176,0,0,0-8.634,18.219A554.693,554.693,0,0,0,142.25,90.361Z" transform="translate(-42.8 -62.517)"/><path class="e" d="M381.35,215.36a15.988,15.988,0,0,0-2.995,1.315A36.8,36.8,0,0,1,373.5,219c-2.785,1.056-3.257,2.634-3.257,2.634-.084.109-.164.217-.241.329a4.451,4.451,0,0,0,4.408,6.783,53.763,53.763,0,0,0,12.149-3.246,4.355,4.355,0,0,0,2.645-2.967c.032-.129.06-.259.084-.385A6.115,6.115,0,0,0,381.35,215.36Z" transform="translate(-286.01 -179.316)"/><path class="f" d="M424.313,327.857h-6.028a1.019,1.019,0,0,0-.721,1.739l6.028,6.028a1.019,1.019,0,0,0,1.739-.721v-6.027A1.017,1.017,0,0,0,424.313,327.857Z" transform="translate(-323.184 -266.671)"/><path class="g" d="M425.023,339.458a2.544,2.544,0,0,1-2.529,2.256H410.9v6.73a4.317,4.317,0,0,0,4.317,4.317H422.5a4.317,4.317,0,0,0,4.317-4.317v-21.07C426.335,330.293,425.4,336.124,425.023,339.458Z" transform="translate(-318.251 -266.298)"/><path class="h" d="M457.436,150.047a3.476,3.476,0,0,0-3.428-2.631H451.1a3.376,3.376,0,0,0-3.376,3.376v2.074h-1.543l.885,2.1h3.393a12.225,12.225,0,0,0,5.09-1.109A3.374,3.374,0,0,0,457.436,150.047Z" transform="translate(-345.578 -126.915)"/><circle class="i" cx="4.243" cy="4.243" r="4.243" transform="translate(93.006 37.237)"/><circle class="j" cx="3.117" cy="3.117" r="3.117" transform="translate(85.597 41.711)"/><path class="k" d="M188.171,255.324l-4.873,8.486H143.712l-4.873-8.486Z" transform="translate(-107.535 -210.493)"/><path class="e" d="M57.336,221.96c-.073-.112-.154-.22-.241-.329,0,0-.472-1.578-3.257-2.634a37.013,37.013,0,0,1-4.856-2.327,16.085,16.085,0,0,0-2.995-1.315,6.118,6.118,0,0,0-7.941,6.79c.025.129.053.255.08.385a4.355,4.355,0,0,0,2.645,2.967,53.753,53.753,0,0,0,12.153,3.246A4.452,4.452,0,0,0,57.336,221.96Z" transform="translate(-29.39 -179.312)"/><path class="f" d="M50.482,327.857H44.454a1.017,1.017,0,0,0-1.018,1.018V334.9a1.019,1.019,0,0,0,1.739.721L51.2,329.6A1.019,1.019,0,0,0,50.482,327.857Z" transform="translate(-33.642 -266.671)"/><path class="l" d="M113.234,338.372c-6.276-10.858-13.493-10.519-13.493-10.519H46.46s-7.213-.339-13.493,10.519H22.119l.133,1.4a2.544,2.544,0,0,0,2.536,2.312h96.628a2.544,2.544,0,0,0,2.536-2.312l.133-1.4Z" transform="translate(-17.132 -266.667)"/><path class="g" d="M19.3,341.731a2.546,2.546,0,0,1-2.529-2.256c-.381-3.334-1.315-9.169-1.791-12.083v21.07a4.317,4.317,0,0,0,4.317,4.317h7.283a4.317,4.317,0,0,0,4.317-4.317v-6.731H19.3Z" transform="translate(-11.604 -266.311)"/><path class="h" d="M9.793,152.866v-2.074a3.375,3.375,0,0,0-3.372-3.376H3.511a3.477,3.477,0,0,0-3.428,2.631,3.373,3.373,0,0,0,1.889,3.81,12.232,12.232,0,0,0,5.09,1.109h3.393l.885-2.1H9.793v0Z" transform="translate(0 -126.915)"/><circle class="i" cx="4.243" cy="4.243" r="4.243" transform="translate(10.444 37.237)"/><circle class="j" cx="3.117" cy="3.117" r="3.117" transform="translate(20.114 41.711)"/><g transform="translate(32.133 64.156)"><path class="k" d="M188.913,341.029h-45.12a1.277,1.277,0,1,0,0,2.554H188.91a1.277,1.277,0,0,0,0-2.554Z" transform="translate(-142.516 -341.029)"/><path class="k" d="M188.913,363.635h-45.12a1.277,1.277,0,1,0,0,2.554H188.91a1.277,1.277,0,0,0,0-2.554Z" transform="translate(-142.516 -358.538)"/></g><path class="m" d="M137.509,94.374v.437a3.09,3.09,0,0,1-3.239,3.1,3.232,3.232,0,0,1-2.921-3.274V88.357a2.59,2.59,0,0,0-2.711-2.568h-.1a2.594,2.594,0,0,0-2.711,2.568v5.678a3.091,3.091,0,0,1-3.274,3.061,3.2,3.2,0,0,1-2.921-3.239V88.92a2.741,2.741,0,0,0-2.746-2.711h-.21A2.584,2.584,0,0,0,114.1,88.78V95.2a3.122,3.122,0,0,1-3.274,3.1,3.2,3.2,0,0,1-2.886-3.274V86.415a2.455,2.455,0,0,0-2.606-2.428h-.21a2.589,2.589,0,0,0-2.6,2.571v8.8a3.079,3.079,0,0,1-6.157.105V88.077A3.234,3.234,0,0,0,93.442,84.8,3.092,3.092,0,0,0,90.2,87.9l-.035,6.822a3.09,3.09,0,0,1-3.239,3.1,3.206,3.206,0,0,1-2.9-3.145v-8a3.205,3.205,0,0,0-2.911-3.246,3.1,3.1,0,0,0-3.25,3.089v8.385a3.114,3.114,0,0,1-3.257,3.015,3.2,3.2,0,0,1-2.886-3.274V88.357a2.62,2.62,0,0,0-2.746-2.568h-.07a2.6,2.6,0,0,0-2.746,2.568v5.678A3.061,3.061,0,0,1,62.92,97.1a3.132,3.132,0,0,1-2.868-2.823c-1.627,3.369-3.239,7.017-4.807,10.915a553.82,553.82,0,0,0,86.991,0Q139.895,99.325,137.509,94.374Z" transform="translate(-42.789 -77.346)"/></g></g><g transform="translate(815.947 42540.301)"><g class="at" transform="matrix(1, 0, 0, 1, -93.95, -152.3)"><rect class="e" width="164.805" height="164.805" rx="31" transform="translate(93.95 152.3)"/></g><g transform="translate(32.657 27.341)"><rect class="n" width="23.179" height="56.292" rx="1" transform="translate(71.193 43.047)"/><rect class="o" width="9.873" height="7.595" rx="1" transform="translate(78.985 50.885)"/><rect class="o" width="9.873" height="9.873" rx="1" transform="translate(78.985 63.796)"/><rect class="n" width="23.179" height="56.292" rx="1" transform="translate(4.967 43.047)"/><rect class="o" width="10.633" height="7.595" rx="1" transform="translate(9.873 50.885)"/><rect class="o" width="10.633" height="9.873" rx="1" transform="translate(9.873 63.796)"/><rect class="p" width="49.669" height="74.504" rx="1" transform="translate(24.835 24.835)"/><g transform="translate(29.802 31.457)"><rect class="o" width="9.934" height="9.934" rx="1"/><rect class="o" width="9.934" height="9.934" rx="1" transform="translate(14.901)"/><rect class="o" width="9.934" height="9.934" rx="1" transform="translate(29.802)"/><rect class="o" width="9.934" height="9.934" rx="1" transform="translate(0 13.245)"/><rect class="o" width="9.934" height="9.934" rx="1" transform="translate(14.901 13.245)"/><rect class="o" width="9.934" height="9.934" rx="1" transform="translate(29.802 13.245)"/><rect class="o" width="9.934" height="9.934" rx="1" transform="translate(0 26.49)"/><rect class="o" width="9.934" height="9.934" rx="1" transform="translate(14.901 26.49)"/><rect class="o" width="9.934" height="9.934" rx="1" transform="translate(29.802 26.49)"/></g><path class="n" d="M51.146,48.311H24.656a1.656,1.656,0,1,1,0-3.311h26.49a1.656,1.656,0,0,1,0,3.311Z" transform="translate(11.769 26.193)"/><path class="o" d="M26,46H45.868V70.835H26Z" transform="translate(13.735 26.848)"/><path class="n" d="M46.523,45H26.656A1.656,1.656,0,0,0,25,46.656V71.49a1.656,1.656,0,0,0,1.656,1.656H46.523a1.656,1.656,0,0,0,1.656-1.656V46.656A1.656,1.656,0,0,0,46.523,45ZM28.311,48.311h6.623V69.835H28.311ZM44.868,69.835H38.245V48.311h6.623Z" transform="translate(13.08 26.193)"/><path class="q" d="M99.683,63.311H3.656a1.656,1.656,0,1,1,0-3.311H99.683a1.656,1.656,0,0,1,0,3.311Z" transform="translate(-2 36.027)"/><path class="r" d="M39.843,16.26a1.667,1.667,0,0,1-.581-.106,12.992,12.992,0,0,0-9.136,0,1.655,1.655,0,1,1-1.159-3.1,16.316,16.316,0,0,1,11.461,0,1.656,1.656,0,0,1-.581,3.207Z" transform="translate(14.975 4.565)"/><path class="s" d="M46.491,12.743a1.656,1.656,0,0,1-.76-.185,19.868,19.868,0,0,0-18.278,0A1.656,1.656,0,1,1,25.93,9.619a23.179,23.179,0,0,1,21.325,0,1.656,1.656,0,0,1-.763,3.124Z" transform="translate(13.077 1.292)"/><path class="t" d="M52.97,9.4a1.656,1.656,0,0,1-.858-.24,26.311,26.311,0,0,0-27.388,0,1.656,1.656,0,1,1-1.719-2.831,29.616,29.616,0,0,1,30.825,0A1.656,1.656,0,0,1,52.97,9.4Z" transform="translate(11.25 -2)"/></g></g><g transform="translate(978.474 42520.555)"><g class="as" transform="matrix(1, 0, 0, 1, -256.47, -132.55)"><rect class="e" width="164.805" height="164.805" rx="31" transform="translate(256.47 132.55)"/></g><g transform="translate(32.657 37.213)"><path class="u" d="M179.656,400.529c-.4,3.439-3.052,4.284-3.746,4.964h31.256c-.607-.594-3.348-1.548-3.746-4.964l-.913-8.029H180.57Z" transform="translate(-141.467 -320.388)"/><path class="v" d="M184.834,400.529l.914-8.03h-5.177l-.914,8.03c-.4,3.439-3.052,4.284-3.746,4.964h5.177C181.695,404.9,184.436,403.945,184.834,400.529Z" transform="translate(-141.467 -320.388)"/><path class="w" d="M94.551,96.623H5.7a5.716,5.716,0,0,1-5.7-5.7V29.908a5.716,5.716,0,0,1,5.7-5.7H94.551a5.716,5.716,0,0,1,5.7,5.7V90.924A5.716,5.716,0,0,1,94.551,96.623Z" transform="translate(0 -24.209)"/><path class="u" d="M11.094,90.924V29.908a5.716,5.716,0,0,1,5.7-5.7H5.7a5.716,5.716,0,0,0-5.7,5.7V90.924a5.716,5.716,0,0,0,5.7,5.7H16.793A5.716,5.716,0,0,1,11.094,90.924Z" transform="translate(0 -24.209)"/><path class="w" d="M185.943,457.915H148.632a2.886,2.886,0,0,0-2.877,2.877v.095a2.886,2.886,0,0,0,2.877,2.877h37.311a2.886,2.886,0,0,0,2.877-2.877v-.095A2.886,2.886,0,0,0,185.943,457.915Z" transform="translate(-117.216 -372.995)"/><path class="u" d="M154.361,460.888v-.095a2.886,2.886,0,0,1,2.877-2.877h-8.606a2.886,2.886,0,0,0-2.877,2.877v.095a2.886,2.886,0,0,0,2.877,2.877h8.606A2.886,2.886,0,0,1,154.361,460.888Z" transform="translate(-117.216 -372.996)"/><path class="x" d="M94.548,24.209H5.7a5.718,5.718,0,0,0-5.7,5.7V85.126H100.25V29.911A5.718,5.718,0,0,0,94.548,24.209Z" transform="translate(0 -24.209)"/><path class="y" d="M11.094,29.908a5.716,5.716,0,0,1,5.7-5.7H5.7a5.719,5.719,0,0,0-5.7,5.7V85.126H11.094Z" transform="translate(0 -24.209)"/><path class="z" d="M116.625,54.084H29.818a.973.973,0,0,0-.973.973V102.53a.973.973,0,0,0,.973.973h86.806a.973.973,0,0,0,.973-.973V55.057A.973.973,0,0,0,116.625,54.084Z" transform="translate(-23.197 -48.234)"/><path class="aa" d="M68.582,54.084H29.818a.973.973,0,0,0-.973.973V102.53a.973.973,0,0,0,.973.973H68.582Z" transform="translate(-23.197 -48.234)"/><path class="ab" d="M34.291,54.084H29.818a.973.973,0,0,0-.973.973V102.53a.973.973,0,0,0,.973.973h4.473Z" transform="translate(-23.197 -48.234)"/><path class="w" d="M116.625,53.054H29.818a.973.973,0,0,0-.973.973v9.919H117.6V54.027A.973.973,0,0,0,116.625,53.054Z" transform="translate(-23.197 -47.406)"/><g transform="translate(5.648 5.648)"><path class="u" d="M34.291,53.105c0-.017,0-.034,0-.051H29.818a.973.973,0,0,0-.973.973v9.919h5.446Z" transform="translate(-28.845 -53.054)"/><path class="u" d="M249.509,360.24a1.512,1.512,0,1,1,1.513-1.513A1.516,1.516,0,0,1,249.509,360.24Z" transform="translate(-205.086 -297.659)"/></g><path class="ac" d="M60.79,77.442A1.513,1.513,0,1,1,62.3,75.929,1.518,1.518,0,0,1,60.79,77.442Z" transform="translate(-47.671 -64.585)"/><path class="aa" d="M89.215,77.442a1.513,1.513,0,1,1,1.513-1.513A1.516,1.516,0,0,1,89.215,77.442Z" transform="translate(-70.53 -64.585)"/><path class="ad" d="M117.646,77.442a1.513,1.513,0,1,1,1.513-1.513A1.517,1.517,0,0,1,117.646,77.442Z" transform="translate(-93.394 -64.585)"/><path class="u" d="M207.48,77.2H151.4a1.513,1.513,0,0,1,0-3.026H207.48a1.513,1.513,0,0,1,0,3.026Z" transform="translate(-120.543 -64.391)"/><path class="ac" d="M82.349,149.353a5.782,5.782,0,0,0-4.089-1.694H67.906a5.782,5.782,0,0,0-4.089,1.694l-4.705,4.706a.3.3,0,0,0,0,.43l5.252,5.253a.323.323,0,0,0,.456,0l1.558-1.558a.153.153,0,0,1,.262.108V170.24a.616.616,0,0,0,.616.616h11.7a.567.567,0,0,0,.567-.567V158.453a.22.22,0,0,1,.376-.156l1.329,1.329a.485.485,0,0,0,.686,0l4.992-4.993a.508.508,0,0,0,0-.719Z" transform="translate(-47.466 -123.487)"/><g transform="translate(11.557 24.172)"><path class="ae" d="M61.351,156.728l7.375-7.375a5.782,5.782,0,0,1,4.089-1.694H67.906a5.782,5.782,0,0,0-4.089,1.694l-4.705,4.706a.3.3,0,0,0,0,.43Z" transform="translate(-59.023 -147.659)"/><path class="ae" d="M113.444,151.951a4.291,4.291,0,0,0,4.291-4.291h-8.583A4.292,4.292,0,0,0,113.444,151.951Z" transform="translate(-99.337 -147.66)"/></g><path class="af" d="M112.88,147.659h-3.728a4.293,4.293,0,0,0,6.155,3.866A4.292,4.292,0,0,1,112.88,147.659Z" transform="translate(-87.78 -123.487)"/><rect class="ag" width="12.887" height="3.026" transform="translate(19.173 35.973)"/><g transform="translate(51.336 34.56)"><path class="w" d="M297.38,203.74H263.695a1.513,1.513,0,0,1,0-3.026H297.38a1.513,1.513,0,1,1,0,3.026Z" transform="translate(-262.182 -200.714)"/><path class="w" d="M297.38,235.676H263.695a1.513,1.513,0,1,1,0-3.025H297.38a1.513,1.513,0,1,1,0,3.025Z" transform="translate(-262.182 -226.397)"/><path class="w" d="M297.38,268.642H263.695a1.513,1.513,0,1,1,0-3.026H297.38a1.513,1.513,0,1,1,0,3.026Z" transform="translate(-262.182 -252.908)"/></g><path class="ah" d="M300.467,149.993H272.681a3.227,3.227,0,0,1-3.227-3.227h0a3.227,3.227,0,0,1,3.227-3.227h27.786a3.227,3.227,0,0,1,3.227,3.227h0A3.227,3.227,0,0,1,300.467,149.993Z" transform="translate(-216.695 -120.173)"/><path class="ai" d="M278.061,146.765a3.227,3.227,0,0,1,3.227-3.227h-8.606a3.227,3.227,0,1,0,0,6.455h8.606A3.227,3.227,0,0,1,278.061,146.765Z" transform="translate(-216.695 -120.173)"/></g></g><g transform="translate(740 42457.516)"><g transform="translate(0 0)"><g class="ar" transform="matrix(1, 0, 0, 1, -18, -69.52)"><rect class="e" width="164.805" height="164.805" rx="31" transform="translate(18 69.52)"/></g></g><g transform="translate(26.581 43.289)"><path class="aj" d="M166.5,232.9h71.821v42.738H166.5Z" transform="translate(-130.318 -198.57)"/><path class="ak" d="M166.5,402.068h71.821v5.976H166.5Z" transform="translate(-130.318 -330.978)"/><g transform="translate(51.965 0)"><path class="al" d="M266.569,108.3a1.622,1.622,0,0,1-.452,1.2h-11.53a1.631,1.631,0,0,1-.452-1.2l1.087-26.181h10.261Z" transform="translate(-250.873 -80.556)"/><path class="am" d="M293.358,108.3a1.622,1.622,0,0,1-.452,1.2h-3.912a1.622,1.622,0,0,0,.452-1.2L288.36,82.118h3.912Z" transform="translate(-277.662 -80.556)"/><path class="an" d="M258.088,197.048v6.515H239.13v-6.515a1.629,1.629,0,0,1,1.63-1.63h15.7A1.629,1.629,0,0,1,258.088,197.048Z" transform="translate(-239.13 -169.235)"/><path class="ao" d="M303.288,197.048v6.515H298.51v-6.515a1.629,1.629,0,0,0-1.63-1.63h4.779A1.629,1.629,0,0,1,303.288,197.048Z" transform="translate(-284.33 -169.235)"/><path class="ap" d="M262.114,74.929H250.763a1.63,1.63,0,0,0,0,3.26h11.352a1.63,1.63,0,1,0,0-3.26Z" transform="translate(-246.959 -74.929)"/></g><g transform="translate(76.304 0)"><path class="al" d="M378.569,108.3a1.623,1.623,0,0,1-.452,1.2h-11.53a1.631,1.631,0,0,1-.452-1.2l1.087-26.181h10.261Z" transform="translate(-362.873 -80.556)"/><path class="am" d="M405.358,108.3a1.622,1.622,0,0,1-.452,1.2h-3.912a1.622,1.622,0,0,0,.452-1.2L400.36,82.118h3.912Z" transform="translate(-389.662 -80.556)"/><path class="an" d="M370.088,197.048v6.515H351.13v-6.515a1.629,1.629,0,0,1,1.63-1.63h15.7A1.629,1.629,0,0,1,370.088,197.048Z" transform="translate(-351.13 -169.235)"/><path class="ao" d="M415.288,197.048v6.515H410.51v-6.515a1.629,1.629,0,0,0-1.63-1.63h4.779A1.629,1.629,0,0,1,415.288,197.048Z" transform="translate(-396.33 -169.235)"/><path class="ap" d="M374.113,74.929H362.762a1.63,1.63,0,0,0,0,3.26h11.352a1.63,1.63,0,0,0,0-3.26Z" transform="translate(-358.958 -74.929)"/></g><path class="aq" d="M166.5,232.9h71.821v5.976H166.5Z" transform="translate(-130.318 -198.57)"/><path class="ap" d="M239.952,225.4h-71.82a1.63,1.63,0,0,0,0,3.26h71.82a1.63,1.63,0,0,0,0-3.26Z" transform="translate(-130.32 -192.698)"/><g transform="translate(44.264 45.632)"><path class="al" d="M205.324,288.173h8.563a1.63,1.63,0,0,0,0-3.26h-8.563a1.63,1.63,0,1,0,0,3.26Z" transform="translate(-203.693 -284.913)"/><path class="al" d="M215.514,316.538v23.287H203.69V316.538a1.63,1.63,0,0,1,1.63-1.63h8.564A1.63,1.63,0,0,1,215.514,316.538Z" transform="translate(-203.69 -308.39)"/></g><path class="aq" d="M215.514,316.538v6.519H203.69v-6.519a1.63,1.63,0,0,1,1.63-1.63h8.564A1.63,1.63,0,0,1,215.514,316.538Z" transform="translate(-159.426 -262.758)"/><g transform="translate(59.962 45.632)"><path class="al" d="M277.561,288.173h8.563a1.63,1.63,0,1,0,0-3.26h-8.563a1.63,1.63,0,0,0,0,3.26Z" transform="translate(-275.931 -284.913)"/><path class="al" d="M287.754,316.538v23.287H275.93V316.538a1.63,1.63,0,0,1,1.63-1.63h8.564A1.63,1.63,0,0,1,287.754,316.538Z" transform="translate(-275.93 -308.39)"/></g><path class="aq" d="M287.752,316.538v6.519H275.928v-6.519a1.63,1.63,0,0,1,1.63-1.63h8.564A1.63,1.63,0,0,1,287.752,316.538Z" transform="translate(-215.966 -262.758)"/><g transform="translate(75.658 45.632)"><path class="al" d="M349.8,288.173h8.563a1.63,1.63,0,1,0,0-3.26H349.8a1.63,1.63,0,1,0,0,3.26Z" transform="translate(-348.166 -284.913)"/><path class="al" d="M359.984,316.538v23.287H348.16V316.538a1.63,1.63,0,0,1,1.63-1.63h8.564A1.63,1.63,0,0,1,359.984,316.538Z" transform="translate(-348.16 -308.39)"/></g><path class="aq" d="M359.988,316.538v6.519H348.164v-6.519a1.63,1.63,0,0,1,1.63-1.63h8.564A1.63,1.63,0,0,1,359.988,316.538Z" transform="translate(-272.505 -262.758)"/><g transform="translate(91.357 45.632)"><path class="al" d="M422.035,288.173H430.6a1.63,1.63,0,0,0,0-3.26h-8.563a1.63,1.63,0,1,0,0,3.26Z" transform="translate(-420.404 -284.913)"/><path class="al" d="M432.224,316.538v23.287H420.4V316.538a1.63,1.63,0,0,1,1.63-1.63h8.564A1.63,1.63,0,0,1,432.224,316.538Z" transform="translate(-420.4 -308.39)"/></g><path class="aq" d="M432.225,316.538v6.519H420.4v-6.519a1.63,1.63,0,0,1,1.63-1.63h8.564A1.63,1.63,0,0,1,432.225,316.538Z" transform="translate(-329.044 -262.758)"/><g transform="translate(44.264 71.09)"><path class="am" d="M203.69,402.068h11.824v5.976H203.69Z" transform="translate(-203.69 -402.068)"/><path class="am" d="M275.93,402.068h11.824v5.976H275.93Z" transform="translate(-260.232 -402.068)"/><path class="am" d="M348.16,402.068h11.824v5.976H348.16Z" transform="translate(-316.765 -402.068)"/><path class="am" d="M420.4,402.068h11.824v5.976H420.4Z" transform="translate(-373.307 -402.068)"/></g><path class="an" d="M15,148.738H51.182v61.027H15Z" transform="translate(-11.74 -132.699)"/><path class="ao" d="M15,402.068H51.182v5.976H15Z" transform="translate(-11.74 -330.978)"/><path class="aq" d="M15,148.738H51.182v5.976H15Z" transform="translate(-11.74 -132.699)"/><g transform="translate(9.699 27.534)"><path class="al" d="M78.56,367.078v12.3H75.3v-12.3a1.63,1.63,0,0,1,3.26,0Z" transform="translate(-68.636 -329.85)"/><path class="al" d="M109.23,367.078v12.3h-3.26v-12.3a1.63,1.63,0,0,1,3.26,0Z" transform="translate(-92.641 -329.85)"/><path class="al" d="M46.616,201.634a1.63,1.63,0,0,0-1.63,1.63v4.685a1.63,1.63,0,0,0,3.26,0v-4.685A1.63,1.63,0,0,0,46.616,201.634Z" transform="translate(-44.909 -201.634)"/><path class="al" d="M77.283,201.634a1.63,1.63,0,0,0-1.63,1.63v4.685a1.63,1.63,0,1,0,3.26,0v-4.685A1.63,1.63,0,0,0,77.283,201.634Z" transform="translate(-68.912 -201.634)"/><path class="al" d="M107.95,201.634a1.63,1.63,0,0,0-1.63,1.63v4.685a1.63,1.63,0,0,0,3.26,0v-4.685A1.63,1.63,0,0,0,107.95,201.634Z" transform="translate(-92.915 -201.634)"/><path class="al" d="M138.617,201.634a1.63,1.63,0,0,0-1.63,1.63v4.685a1.63,1.63,0,0,0,3.26,0v-4.685A1.63,1.63,0,0,0,138.617,201.634Z" transform="translate(-116.918 -201.634)"/><path class="al" d="M46.381,264.109a1.63,1.63,0,0,0,1.63-1.63v-4.685a1.63,1.63,0,1,0-3.26,0v4.685A1.63,1.63,0,0,0,46.381,264.109Z" transform="translate(-44.725 -244.314)"/><path class="al" d="M77.047,264.109a1.63,1.63,0,0,0,1.63-1.63v-4.685a1.63,1.63,0,1,0-3.26,0v4.685A1.63,1.63,0,0,0,77.047,264.109Z" transform="translate(-68.727 -244.314)"/><path class="al" d="M107.714,264.109a1.63,1.63,0,0,0,1.63-1.63v-4.685a1.63,1.63,0,1,0-3.26,0v4.685A1.63,1.63,0,0,0,107.714,264.109Z" transform="translate(-92.73 -244.314)"/><path class="al" d="M138.381,264.109a1.63,1.63,0,0,0,1.63-1.63v-4.685a1.63,1.63,0,0,0-3.26,0v4.685A1.63,1.63,0,0,0,138.381,264.109Z" transform="translate(-116.733 -244.314)"/><path class="al" d="M46.5,310.922a1.63,1.63,0,0,0-1.63,1.63v4.685a1.63,1.63,0,0,0,3.26,0v-4.685A1.63,1.63,0,0,0,46.5,310.922Z" transform="translate(-44.818 -287.173)"/><path class="al" d="M77.166,310.922a1.63,1.63,0,0,0-1.63,1.63v4.685a1.63,1.63,0,0,0,3.26,0v-4.685A1.63,1.63,0,0,0,77.166,310.922Z" transform="translate(-68.82 -287.173)"/><path class="al" d="M107.832,310.922a1.63,1.63,0,0,0-1.63,1.63v4.685a1.63,1.63,0,0,0,3.26,0v-4.685A1.63,1.63,0,0,0,107.832,310.922Z" transform="translate(-92.822 -287.173)"/><path class="al" d="M138.5,310.922a1.63,1.63,0,0,0-1.63,1.63v4.685a1.63,1.63,0,1,0,3.26,0v-4.685A1.63,1.63,0,0,0,138.5,310.922Z" transform="translate(-116.825 -287.173)"/><path class="al" d="M46.263,365.451a1.63,1.63,0,0,0-1.63,1.63v4.685a1.63,1.63,0,1,0,3.26,0v-4.685A1.63,1.63,0,0,0,46.263,365.451Z" transform="translate(-44.633 -329.852)"/><path class="al" d="M138.263,365.451a1.63,1.63,0,0,0-1.63,1.63v4.685a1.63,1.63,0,0,0,3.26,0v-4.685A1.63,1.63,0,0,0,138.263,365.451Z" transform="translate(-116.641 -329.852)"/></g><path class="am" d="M75.3,402.068h3.26v5.976H75.3Z" transform="translate(-58.937 -330.978)"/><path class="am" d="M105.97,402.068h3.26v5.976h-3.26Z" transform="translate(-82.942 -330.978)"/><path class="ap" d="M109.633,422.071H1.63a1.63,1.63,0,0,0,0,3.26h108a1.63,1.63,0,0,0,0-3.26Z" transform="translate(0 -346.634)"/><path class="ap" d="M41.072,141.242H1.63a1.63,1.63,0,0,0,0,3.26H41.072a1.63,1.63,0,1,0,0-3.26Z" transform="translate(0 -126.832)"/></g></g></g></svg>