<svg xmlns="http://www.w3.org/2000/svg" width="65" height="65" viewBox="0 0 65 65"><defs><style>.a{fill:#a51e1e;}.b{fill:#fff;}</style></defs><g transform="translate(-519 -24409)"><g transform="translate(425 15974)"><circle class="a" cx="32.5" cy="32.5" r="32.5" transform="translate(94 8435)"/></g><g transform="translate(533 24424)"><path class="b" d="M29.273,16.843V10.135l3.273-3.273V18.091h1.091V5.545h0A.531.531,0,0,0,33.091,5H6.909a.543.543,0,0,0-.386.16L2.16,9.523A.545.545,0,0,0,2,9.909V30.636a.545.545,0,0,0,.545.545H28.727a.545.545,0,0,0,.545-.545V24.113a6.264,6.264,0,0,1-5.182,9.8.545.545,0,0,0,0,1.091h1.091a9.537,9.537,0,0,0,4.091-18.157ZM28.5,9.364H18.589l3.273-3.273h9.912Zm-11.614.16a.543.543,0,0,0-.16.386v3.818H14.545V10.135l4.044-4.044h1.73ZM7.135,6.091h9.912L13.774,9.364H3.862Zm-4.044,24V10.455H13.455v3.818a.545.545,0,0,0,.545.545h3.273a.545.545,0,0,0,.545-.545V10.455H28.182V16.4a9.483,9.483,0,0,0-3-.49h-.818V13.182a.545.545,0,0,0-.862-.444l-7.636,5.455a.545.545,0,0,0,0,.887L23.5,24.534a.545.545,0,0,0,.862-.443V21.37a6.246,6.246,0,0,1,3.818,1.516v7.205ZM29.3,32.837a7.36,7.36,0,0,0-5.208-12.565h-.273a.545.545,0,0,0-.545.545v2.213l-6.152-4.395,6.152-4.395v2.213a.545.545,0,0,0,.545.545h1.364A8.454,8.454,0,0,1,29.3,32.837Z"/><path class="b" d="M6,47h6.545v1.091H6Z" transform="translate(-1.818 -19.091)"/><path class="b" d="M6,43h6.545v1.091H6Z" transform="translate(-1.818 -17.273)"/></g></g></svg>