<svg xmlns="http://www.w3.org/2000/svg" width="65" height="65" viewBox="0 0 65 65"><defs><style>.a{fill:#ff8040;}.b{fill:#fff;}</style></defs><g transform="translate(-1123 -18328)"><circle class="a" cx="32.5" cy="32.5" r="32.5" transform="translate(1123 18328)"/><g transform="translate(1138 18331.406)"><path class="b" d="M141.592,76.9V87.832h6.97V85.909h-5.047V76.9Z" transform="translate(-124.578 -57.455)"/><path class="b" d="M36.576,28.21a16.621,16.621,0,0,0-33.01-2.76H.9l4.6,7.931,4.737-7.931H7.478A12.776,12.776,0,1,1,22.731,40.675V44.6A16.678,16.678,0,0,0,36.576,28.21Z" transform="translate(-0.789)"/><path class="b" d="M2.93,216.854l1.223-1.3a19.247,19.247,0,0,0,1.635-1.95,2.636,2.636,0,0,0,.444-1.512,2.527,2.527,0,0,0-.835-2,3.408,3.408,0,0,0-2.324-.732,3,3,0,0,0-2.253.872A2.861,2.861,0,0,0,0,212.372l.012.054H2.062a1.7,1.7,0,0,1,.27-1.038.856.856,0,0,1,.742-.409.978.978,0,0,1,.791.306,1.235,1.235,0,0,1,.264.83,1.916,1.916,0,0,1-.261.861,5.907,5.907,0,0,1-.792,1.129L.191,217.159v1.4H6.44v-1.682H2.949l-.019-.018Z" transform="translate(0 -173.998)"/><path class="b" d="M59.93,210.639H57.887V210.6l-3.647,5.838.1,1.287h3.546v1.923H59.93v-1.923h.961v-1.562H59.93Zm-2.043,5.528h-1.8l1.552-2.582.184-.271.06,0Z" transform="translate(-47.722 -175.095)"/><path class="b" d="M122.6,219.03v-3.89a6.418,6.418,0,0,0-.025-.8,2.832,2.832,0,0,0-.533-1.453,1.992,1.992,0,0,0-1.632-.726,1.809,1.809,0,0,0-.939.251,1.6,1.6,0,0,0-.716.7V209.9h-2.163v9.133h2.163v-4.914c0-.108.2-.191.35-.251a1.348,1.348,0,0,1,.516-.09.848.848,0,0,1,.707.292,1.772,1.772,0,0,1,.229,1.062v3.9H122.6Z" transform="translate(-102.582 -174.473)"/></g></g></svg>