<svg xmlns="http://www.w3.org/2000/svg" xmlns:xlink="http://www.w3.org/1999/xlink" width="289" height="197.148" viewBox="0 0 289 197.148"><defs><style>.a,.c{fill:#04f;}.b{opacity:0.33;mix-blend-mode:exclusion;clip-path:url(#a);}.b,.c{isolation:isolate;}.c{mix-blend-mode:multiply;}.d{fill:#37dfce;opacity:0.35;}</style><clipPath id="a"><rect class="a" width="257" height="197"/></clipPath></defs><g class="b"><ellipse class="c" cx="95.5" cy="95" rx="95.5" ry="95" transform="translate(66 -85)"/><ellipse class="c" cx="95" cy="94.5" rx="95" ry="94.5" transform="translate(28 2)"/></g><path class="d" d="M139.825,2.988A2.991,2.991,0,1,0,142.816,0,2.99,2.99,0,0,0,139.825,2.988Zm-15.7,0A2.991,2.991,0,1,0,127.114,0,2.99,2.99,0,0,0,124.123,2.988Zm-14.954,0A2.991,2.991,0,1,0,112.16,0,2.99,2.99,0,0,0,109.169,2.988Zm-15.7,0A2.991,2.991,0,1,0,96.457,0,2.99,2.99,0,0,0,93.466,2.988Zm-15.7,0A2.991,2.991,0,1,0,80.755,0,2.99,2.99,0,0,0,77.764,2.988Zm-15.7,0A2.991,2.991,0,1,0,65.054,0,2.99,2.99,0,0,0,62.063,2.988Zm-15.7,0A2.991,2.991,0,1,0,49.351,0,2.99,2.99,0,0,0,46.36,2.988Zm-14.956,0A2.991,2.991,0,1,0,34.4,0,2.99,2.99,0,0,0,31.4,2.988Zm-15.7,0A2.991,2.991,0,1,0,18.693,0,2.99,2.99,0,0,0,15.7,2.988ZM0,2.988A2.991,2.991,0,1,0,2.991,0,2.99,2.99,0,0,0,0,2.988ZM139.825,15.682a2.991,2.991,0,1,0,2.991-2.988A2.989,2.989,0,0,0,139.825,15.682Zm-15.7,0a2.991,2.991,0,1,0,2.991-2.988A2.989,2.989,0,0,0,124.123,15.682Zm-14.954,0a2.991,2.991,0,1,0,2.991-2.988A2.99,2.99,0,0,0,109.169,15.682Zm-15.7,0a2.991,2.991,0,1,0,2.991-2.988A2.99,2.99,0,0,0,93.466,15.682Zm-15.7,0a2.991,2.991,0,1,0,2.991-2.988A2.99,2.99,0,0,0,77.764,15.682Zm-15.7,0a2.991,2.991,0,1,0,2.991-2.988A2.989,2.989,0,0,0,62.063,15.682Zm-15.7,0a2.991,2.991,0,1,0,2.991-2.988A2.989,2.989,0,0,0,46.36,15.682Zm-14.956,0A2.991,2.991,0,1,0,34.4,12.694,2.989,2.989,0,0,0,31.4,15.682Zm-15.7,0a2.991,2.991,0,1,0,2.991-2.988A2.989,2.989,0,0,0,15.7,15.682Zm-15.7,0a2.991,2.991,0,1,0,2.991-2.988A2.989,2.989,0,0,0,0,15.682ZM139.825,27.633a2.991,2.991,0,1,0,2.991-2.988A2.989,2.989,0,0,0,139.825,27.633Zm-15.7,0a2.991,2.991,0,1,0,2.991-2.988A2.989,2.989,0,0,0,124.123,27.633Zm-14.954,0a2.991,2.991,0,1,0,2.991-2.988A2.99,2.99,0,0,0,109.169,27.633Zm-15.7,0a2.991,2.991,0,1,0,2.991-2.988A2.99,2.99,0,0,0,93.466,27.633Zm-15.7,0a2.991,2.991,0,1,0,2.991-2.988A2.99,2.99,0,0,0,77.764,27.633Zm-15.7,0a2.991,2.991,0,1,0,2.991-2.988A2.989,2.989,0,0,0,62.063,27.633Zm-15.7,0a2.991,2.991,0,1,0,2.991-2.988A2.989,2.989,0,0,0,46.36,27.633Zm-14.956,0A2.991,2.991,0,1,0,34.4,24.645,2.989,2.989,0,0,0,31.4,27.633Zm-15.7,0a2.991,2.991,0,1,0,2.991-2.988A2.989,2.989,0,0,0,15.7,27.633Zm-15.7,0a2.991,2.991,0,1,0,2.991-2.988A2.989,2.989,0,0,0,0,27.633Zm139.825,12.7a2.991,2.991,0,1,0,2.991-2.988A2.989,2.989,0,0,0,139.825,40.332Zm-15.7,0a2.991,2.991,0,1,0,2.991-2.988A2.989,2.989,0,0,0,124.123,40.332Zm-14.954,0a2.991,2.991,0,1,0,2.991-2.988A2.99,2.99,0,0,0,109.169,40.332Zm-15.7,0a2.991,2.991,0,1,0,2.991-2.988A2.99,2.99,0,0,0,93.466,40.332Zm-15.7,0a2.991,2.991,0,1,0,2.991-2.988A2.99,2.99,0,0,0,77.764,40.332Zm-15.7,0a2.991,2.991,0,1,0,2.991-2.988A2.989,2.989,0,0,0,62.063,40.332Zm-15.7,0a2.991,2.991,0,1,0,2.991-2.988A2.989,2.989,0,0,0,46.36,40.332Zm-14.956,0A2.991,2.991,0,1,0,34.4,37.345,2.989,2.989,0,0,0,31.4,40.332Zm-15.7,0a2.991,2.991,0,1,0,2.991-2.988A2.989,2.989,0,0,0,15.7,40.332Zm-15.7,0a2.991,2.991,0,1,0,2.991-2.988A2.989,2.989,0,0,0,0,40.332ZM139.825,53.027a2.991,2.991,0,1,0,2.991-2.988A2.989,2.989,0,0,0,139.825,53.027Zm-15.7,0a2.991,2.991,0,1,0,2.991-2.988A2.989,2.989,0,0,0,124.123,53.027Zm-14.954,0a2.991,2.991,0,1,0,2.991-2.988A2.989,2.989,0,0,0,109.169,53.027Zm-15.7,0a2.991,2.991,0,1,0,2.991-2.988A2.989,2.989,0,0,0,93.466,53.027Zm-15.7,0a2.991,2.991,0,1,0,2.991-2.988A2.989,2.989,0,0,0,77.764,53.027Zm-15.7,0a2.991,2.991,0,1,0,2.991-2.988A2.989,2.989,0,0,0,62.063,53.027Zm-15.7,0a2.991,2.991,0,1,0,2.991-2.988A2.989,2.989,0,0,0,46.36,53.027Zm-14.956,0A2.991,2.991,0,1,0,34.4,50.04,2.989,2.989,0,0,0,31.4,53.027Zm-15.7,0a2.991,2.991,0,1,0,2.991-2.988A2.989,2.989,0,0,0,15.7,53.027Zm-15.7,0A2.991,2.991,0,1,0,2.991,50.04,2.989,2.989,0,0,0,0,53.027Zm139.825,12.7a2.991,2.991,0,1,0,2.991-2.987A2.989,2.989,0,0,0,139.825,65.724Zm-15.7,0a2.991,2.991,0,1,0,2.991-2.987A2.989,2.989,0,0,0,124.123,65.724Zm-14.954,0a2.991,2.991,0,1,0,2.991-2.987A2.99,2.99,0,0,0,109.169,65.724Zm-15.7,0a2.991,2.991,0,1,0,2.991-2.987A2.99,2.99,0,0,0,93.466,65.724Zm-15.7,0a2.991,2.991,0,1,0,2.991-2.987A2.99,2.99,0,0,0,77.764,65.724Zm-15.7,0a2.991,2.991,0,1,0,2.991-2.987A2.989,2.989,0,0,0,62.063,65.724Zm-15.7,0a2.991,2.991,0,1,0,2.991-2.987A2.989,2.989,0,0,0,46.36,65.724Zm-14.956,0A2.991,2.991,0,1,0,34.4,62.738,2.989,2.989,0,0,0,31.4,65.724Zm-15.7,0a2.991,2.991,0,1,0,2.991-2.987A2.989,2.989,0,0,0,15.7,65.724Zm-15.7,0a2.991,2.991,0,1,0,2.991-2.987A2.989,2.989,0,0,0,0,65.724ZM139.825,78.419a2.991,2.991,0,1,0,2.991-2.988A2.989,2.989,0,0,0,139.825,78.419Zm-15.7,0a2.991,2.991,0,1,0,2.991-2.988A2.989,2.989,0,0,0,124.123,78.419Zm-14.954,0a2.991,2.991,0,1,0,2.991-2.988A2.99,2.99,0,0,0,109.169,78.419Zm-15.7,0a2.991,2.991,0,1,0,2.991-2.988A2.99,2.99,0,0,0,93.466,78.419Zm-15.7,0a2.991,2.991,0,1,0,2.991-2.988A2.99,2.99,0,0,0,77.764,78.419Zm-15.7,0a2.991,2.991,0,1,0,2.991-2.988A2.989,2.989,0,0,0,62.063,78.419Zm-15.7,0a2.991,2.991,0,1,0,2.991-2.988A2.989,2.989,0,0,0,46.36,78.419Zm-14.956,0A2.991,2.991,0,1,0,34.4,75.432,2.989,2.989,0,0,0,31.4,78.419Zm-15.7,0a2.991,2.991,0,1,0,2.991-2.988A2.989,2.989,0,0,0,15.7,78.419Zm-15.7,0a2.991,2.991,0,1,0,2.991-2.988A2.989,2.989,0,0,0,0,78.419Zm139.825,12.7a2.991,2.991,0,1,0,2.991-2.988A2.989,2.989,0,0,0,139.825,91.117Zm-15.7,0a2.991,2.991,0,1,0,2.991-2.988A2.989,2.989,0,0,0,124.123,91.117Zm-14.954,0a2.991,2.991,0,1,0,2.991-2.988A2.99,2.99,0,0,0,109.169,91.117Zm-15.7,0a2.991,2.991,0,1,0,2.991-2.988A2.99,2.99,0,0,0,93.466,91.117Zm-15.7,0a2.991,2.991,0,1,0,2.991-2.988A2.99,2.99,0,0,0,77.764,91.117Zm-15.7,0a2.991,2.991,0,1,0,2.991-2.988A2.989,2.989,0,0,0,62.063,91.117Zm-15.7,0a2.991,2.991,0,1,0,2.991-2.988A2.989,2.989,0,0,0,46.36,91.117Zm-14.956,0A2.991,2.991,0,1,0,34.4,88.13,2.989,2.989,0,0,0,31.4,91.117Zm-15.7,0a2.991,2.991,0,1,0,2.991-2.988A2.989,2.989,0,0,0,15.7,91.117Zm-15.7,0A2.991,2.991,0,1,0,2.991,88.13,2.989,2.989,0,0,0,0,91.117Zm139.825,11.951a2.991,2.991,0,1,0,2.991-2.988A2.989,2.989,0,0,0,139.825,103.068Zm-15.7,0a2.991,2.991,0,1,0,2.991-2.988A2.989,2.989,0,0,0,124.123,103.068Zm-14.954,0a2.991,2.991,0,1,0,2.991-2.988A2.989,2.989,0,0,0,109.169,103.068Zm-15.7,0a2.991,2.991,0,1,0,2.991-2.988A2.989,2.989,0,0,0,93.466,103.068Zm-15.7,0a2.991,2.991,0,1,0,2.991-2.988A2.989,2.989,0,0,0,77.764,103.068Zm-15.7,0a2.991,2.991,0,1,0,2.991-2.988A2.989,2.989,0,0,0,62.063,103.068Zm-15.7,0a2.991,2.991,0,1,0,2.991-2.988A2.989,2.989,0,0,0,46.36,103.068Zm-14.956,0a2.991,2.991,0,1,0,2.991-2.988A2.989,2.989,0,0,0,31.4,103.068Zm-15.7,0a2.991,2.991,0,1,0,2.991-2.988A2.989,2.989,0,0,0,15.7,103.068Zm-15.7,0a2.991,2.991,0,1,0,2.991-2.988A2.989,2.989,0,0,0,0,103.068Zm139.825,12.694a2.991,2.991,0,1,0,2.991-2.988A2.989,2.989,0,0,0,139.825,115.762Zm-15.7,0a2.991,2.991,0,1,0,2.991-2.988A2.989,2.989,0,0,0,124.123,115.762Zm-14.954,0a2.991,2.991,0,1,0,2.991-2.988A2.99,2.99,0,0,0,109.169,115.762Zm-15.7,0a2.991,2.991,0,1,0,2.991-2.988A2.99,2.99,0,0,0,93.466,115.762Zm-15.7,0a2.991,2.991,0,1,0,2.991-2.988A2.99,2.99,0,0,0,77.764,115.762Zm-15.7,0a2.991,2.991,0,1,0,2.991-2.988A2.989,2.989,0,0,0,62.063,115.762Zm-15.7,0a2.991,2.991,0,1,0,2.991-2.988A2.989,2.989,0,0,0,46.36,115.762Zm-14.956,0a2.991,2.991,0,1,0,2.991-2.988A2.989,2.989,0,0,0,31.4,115.762Zm-15.7,0a2.991,2.991,0,1,0,2.991-2.988A2.989,2.989,0,0,0,15.7,115.762Zm-15.7,0a2.991,2.991,0,1,0,2.991-2.988A2.989,2.989,0,0,0,0,115.762Zm139.825,12.7a2.991,2.991,0,1,0,2.991-2.988A2.989,2.989,0,0,0,139.825,128.462Zm-15.7,0a2.991,2.991,0,1,0,2.991-2.988A2.989,2.989,0,0,0,124.123,128.462Zm-14.954,0a2.991,2.991,0,1,0,2.991-2.988A2.99,2.99,0,0,0,109.169,128.462Zm-15.7,0a2.991,2.991,0,1,0,2.991-2.988A2.99,2.99,0,0,0,93.466,128.462Zm-15.7,0a2.991,2.991,0,1,0,2.991-2.988A2.99,2.99,0,0,0,77.764,128.462Zm-15.7,0a2.991,2.991,0,1,0,2.991-2.988A2.989,2.989,0,0,0,62.063,128.462Zm-15.7,0a2.991,2.991,0,1,0,2.991-2.988A2.989,2.989,0,0,0,46.36,128.462Zm-14.956,0a2.991,2.991,0,1,0,2.991-2.988A2.989,2.989,0,0,0,31.4,128.462Zm-15.7,0a2.991,2.991,0,1,0,2.991-2.988A2.989,2.989,0,0,0,15.7,128.462Zm-15.7,0a2.991,2.991,0,1,0,2.991-2.988A2.989,2.989,0,0,0,0,128.462Zm139.825,12.7a2.991,2.991,0,1,0,2.991-2.988A2.989,2.989,0,0,0,139.825,141.16Zm-15.7,0a2.991,2.991,0,1,0,2.991-2.988A2.989,2.989,0,0,0,124.123,141.16Zm-14.954,0a2.991,2.991,0,1,0,2.991-2.988A2.99,2.99,0,0,0,109.169,141.16Zm-15.7,0a2.991,2.991,0,1,0,2.991-2.988A2.99,2.99,0,0,0,93.466,141.16Zm-15.7,0a2.991,2.991,0,1,0,2.991-2.988A2.99,2.99,0,0,0,77.764,141.16Zm-15.7,0a2.991,2.991,0,1,0,2.991-2.988A2.989,2.989,0,0,0,62.063,141.16Zm-15.7,0a2.991,2.991,0,1,0,2.991-2.988A2.989,2.989,0,0,0,46.36,141.16Zm-14.956,0a2.991,2.991,0,1,0,2.991-2.988A2.989,2.989,0,0,0,31.4,141.16Zm-15.7,0a2.991,2.991,0,1,0,2.991-2.988A2.989,2.989,0,0,0,15.7,141.16Zm-15.7,0a2.991,2.991,0,1,0,2.991-2.988A2.989,2.989,0,0,0,0,141.16Z" transform="translate(289 197.148) rotate(180)"/></svg>