<svg xmlns="http://www.w3.org/2000/svg" width="55" height="55" viewBox="0 0 55 55"><defs><style>.a{fill:#f9374d;}.b{fill:#fff;}</style></defs><g transform="translate(-726 -4927)"><g transform="translate(652 4153)"><circle class="a" cx="27.5" cy="27.5" r="27.5" transform="translate(74 774)"/></g><path class="b" d="M13.8,12.27H4.6v3.067h9.2Zm4.266-7.237L13.377.335A1.149,1.149,0,0,0,12.562,0H12.27V6.135H18.4V5.842A1.147,1.147,0,0,0,18.069,5.032ZM10.736,6.518V0H1.15A1.148,1.148,0,0,0,0,1.15V23.389a1.148,1.148,0,0,0,1.15,1.15h16.1a1.148,1.148,0,0,0,1.15-1.15V7.668H11.886A1.154,1.154,0,0,1,10.736,6.518ZM3.067,3.451a.383.383,0,0,1,.383-.383H7.285a.383.383,0,0,1,.383.383v.767a.383.383,0,0,1-.383.383H3.451a.383.383,0,0,1-.383-.383Zm0,3.067a.383.383,0,0,1,.383-.383H7.285a.383.383,0,0,1,.383.383v.767a.383.383,0,0,1-.383.383H3.451a.383.383,0,0,1-.383-.383Zm12.27,14.57a.383.383,0,0,1-.383.383H11.119a.383.383,0,0,1-.383-.383v-.767a.383.383,0,0,1,.383-.383h3.834a.383.383,0,0,1,.383.383Zm0-9.586v4.6a.767.767,0,0,1-.767.767H3.834a.767.767,0,0,1-.767-.767V11.5a.767.767,0,0,1,.767-.767H14.57A.767.767,0,0,1,15.337,11.5Z" transform="translate(744 4942)"/></g></svg>