<svg xmlns="http://www.w3.org/2000/svg" width="212.8" height="40" viewBox="0 0 212.8 40"><defs><style>.a{fill:#00b67a;}.b{fill:#fff;}.c{fill:#dcdce6;}</style></defs><g transform="translate(-282 -19927)"><g transform="translate(282 19927)"><rect class="a" width="40" height="40" transform="translate(0 0)"/><g transform="translate(6.4 7.2)"><path class="b" d="M48,258.491H37.5L34.262,248.5l-3.254,9.991L20.5,258.472l8.5,6.182-3.254,9.991,8.5-6.182,8.5,6.182-3.235-9.991Z" transform="translate(-20.5 -248.5)"/><path class="a" d="M98.372,335.159l-.727-2.259L92.4,336.709Z" transform="translate(-78.638 -316.746)"/></g></g><g transform="translate(325.2 19927)"><rect class="a" width="40" height="40" transform="translate(0 0)"/><g transform="translate(6.4 7.2)"><path class="b" d="M48,258.491H37.5L34.262,248.5l-3.254,9.991L20.5,258.472l8.5,6.182-3.254,9.991,8.5-6.182,8.5,6.182-3.235-9.991Z" transform="translate(-20.5 -248.5)"/><path class="a" d="M98.372,335.159l-.727-2.259L92.4,336.709Z" transform="translate(-78.638 -316.746)"/></g></g><g transform="translate(368.4 19927)"><rect class="a" width="40" height="40" transform="translate(0 0)"/><g transform="translate(6.4 7.2)"><path class="b" d="M48,258.491H37.5L34.262,248.5l-3.254,9.991L20.5,258.472l8.5,6.182-3.254,9.991,8.5-6.182,8.5,6.182-3.235-9.991Z" transform="translate(-20.5 -248.5)"/><path class="a" d="M98.372,335.159l-.727-2.259L92.4,336.709Z" transform="translate(-78.638 -316.746)"/></g></g><g transform="translate(325.2 19927)"><rect class="a" width="40" height="40" transform="translate(0 0)"/><g transform="translate(6.4 7.2)"><path class="b" d="M48,258.491H37.5L34.262,248.5l-3.254,9.991L20.5,258.472l8.5,6.182-3.254,9.991,8.5-6.182,8.5,6.182-3.235-9.991Z" transform="translate(-20.5 -248.5)"/><path class="a" d="M98.372,335.159l-.727-2.259L92.4,336.709Z" transform="translate(-78.638 -316.746)"/></g></g><g transform="translate(411.6 19927)"><rect class="a" width="40" height="40" transform="translate(0 0)"/><g transform="translate(6.4 7.2)"><path class="b" d="M48,258.491H37.5L34.262,248.5l-3.254,9.991L20.5,258.472l8.5,6.182-3.254,9.991,8.5-6.182,8.5,6.182-3.235-9.991Z" transform="translate(-20.5 -248.5)"/><path class="a" d="M98.372,335.159l-.727-2.259L92.4,336.709Z" transform="translate(-78.638 -316.746)"/></g></g><g transform="translate(454.8 19927)"><rect class="a" width="40" height="40" transform="translate(0 0)"/><rect class="c" width="20" height="40" transform="translate(20 0)"/><g transform="translate(6.4 7.2)"><path class="b" d="M48,258.491H37.5L34.262,248.5l-3.254,9.991L20.5,258.472l8.5,6.182-3.254,9.991,8.5-6.182,8.5,6.182-3.235-9.991Z" transform="translate(-20.5 -248.5)"/><path class="c" d="M98.372,335.159l-.727-2.259L92.4,336.709Z" transform="translate(-78.638 -316.746)"/></g></g></g></svg>