<svg xmlns="http://www.w3.org/2000/svg" width="65" height="65" viewBox="0 0 65 65"><defs><style>.a{fill:#ff8040;}.b{fill:none;stroke:#fff;stroke-width:1.5px;}.c{fill:#fff;}</style></defs><g transform="translate(-679 -4734)"><g transform="translate(585 -3701)"><circle class="a" cx="32.5" cy="32.5" r="32.5" transform="translate(94 8435)"/></g><g transform="translate(697 4752)"><g transform="translate(0 0)"><path class="b" d="M21.108,7.453l-3.148-3a1.175,1.175,0,0,0-.828-.343H1.7A1.172,1.172,0,0,0,.53,5.287V17A1.171,1.171,0,0,0,1.7,18.173h.946m16.7-16.1a6.152,6.152,0,1,1,1.732,10.309m0,0a1.573,1.573,0,0,0,.031-.309,1.535,1.535,0,1,0-.031.309Z" transform="translate(-0.53 -0.53)"/><g transform="translate(0.583 6.923)"><path class="b" d="M23.807,4.855a1.942,1.942,0,0,0-1.942-1.942H13.583a1.936,1.936,0,0,0-1.372.569L1.3,14.394a1.943,1.943,0,0,0,0,2.745l8.285,8.285a1.943,1.943,0,0,0,2.745,0L23.238,14.51a1.936,1.936,0,0,0,.569-1.372Z" transform="translate(-0.731 -2.914)"/></g><g transform="translate(6.52 15.305)"><path class="c" d="M3.039,13.415l.791.791.8-.8a2.553,2.553,0,0,0,3.666-.037c1.192-1.192.586-2.5-.043-3.586L9.488,8.547a3.23,3.23,0,0,1,.462,1.6l1.571-.254a4.063,4.063,0,0,0-.909-2.471l.834-.834L10.654,5.8l-.815.817A2.577,2.577,0,0,0,6.285,6.59c-1.192,1.192-.594,2.458.035,3.543L4.934,11.52a3.365,3.365,0,0,1-.569-2.077l-1.588.306A4.179,4.179,0,0,0,3.83,12.626Zm3.915-1.1a.949.949,0,0,1-1.229,0L6.9,11.135C7.136,11.617,7.245,12.023,6.954,12.312ZM7.6,7.692A.829.829,0,0,1,8.751,7.7L7.681,8.773C7.436,8.32,7.344,7.946,7.6,7.692Z" transform="translate(-2.775 -5.8)"/></g></g></g></g></svg>