<svg xmlns="http://www.w3.org/2000/svg" width="156" height="27" viewBox="0 0 156 27"><defs><style>.a{fill:#ffb300;}</style></defs><g transform="translate(-745 -1713)"><path class="a" d="M14,0l3.43,10.139L28,10.313l-8.45,6.44L22.652,27,14,20.842,5.348,27l3.1-10.246L0,10.313l10.57-.175Z" transform="translate(745 1713)"/><path class="a" d="M14,0l3.43,10.139L28,10.313l-8.45,6.44L22.652,27,14,20.842,5.348,27l3.1-10.246L0,10.313l10.57-.175Z" transform="translate(777 1713)"/><path class="a" d="M14,0l3.43,10.139L28,10.313l-8.45,6.44L22.652,27,14,20.842,5.348,27l3.1-10.246L0,10.313l10.57-.175Z" transform="translate(809 1713)"/><path class="a" d="M14,0l3.43,10.139L28,10.313l-8.45,6.44L22.652,27,14,20.842,5.348,27l3.1-10.246L0,10.313l10.57-.175Z" transform="translate(841 1713)"/><path class="a" d="M14,0l3.43,10.139L28,10.313l-8.45,6.44L22.652,27,14,20.842,5.348,27l3.1-10.246L0,10.313l10.57-.175Z" transform="translate(873 1713)"/></g></svg>