<svg xmlns="http://www.w3.org/2000/svg" width="65" height="65" viewBox="0 0 65 65"><defs><style>.a{fill:#e8002e;}.b{fill:#fff;}</style></defs><g transform="translate(-1175 -31835)"><g transform="translate(0 8103)"><g transform="translate(1081 15297)"><circle class="a" cx="32.5" cy="32.5" r="32.5" transform="translate(94 8435)"/></g></g><path class="b" d="M19.125,0H3.375A3.376,3.376,0,0,0,0,3.375v29.25A3.376,3.376,0,0,0,3.375,36h15.75A3.376,3.376,0,0,0,22.5,32.625V3.375A3.376,3.376,0,0,0,19.125,0ZM11.25,33.75A2.25,2.25,0,1,1,13.5,31.5,2.248,2.248,0,0,1,11.25,33.75Zm7.875-7.594a.846.846,0,0,1-.844.844H4.219a.846.846,0,0,1-.844-.844V4.219a.846.846,0,0,1,.844-.844H18.281a.846.846,0,0,1,.844.844Z" transform="translate(1196.75 31849.5)"/></g></svg>