<svg xmlns="http://www.w3.org/2000/svg" width="65" height="65" viewBox="0 0 65 65"><defs><style>.a{fill:#3856d5;}.b{fill:#fff;}</style></defs><g transform="translate(-519 -31660)"><g transform="translate(0 8134)"><g transform="translate(425 15091)"><circle class="a" cx="32.5" cy="32.5" r="32.5" transform="translate(94 8435)"/></g></g><path class="b" d="M16-150H3.2a3.2,3.2,0,0,0-3.184,3.2L0-121.2A3.2,3.2,0,0,0,3.184-118H22.4a3.209,3.209,0,0,0,3.2-3.2v-19.2Zm3.2,24.93a.671.671,0,0,1-.67.67H7.07a.671.671,0,0,1-.67-.67v-1.859a.671.671,0,0,1,.67-.67H18.53a.671.671,0,0,1,.67.67Zm0-6.4a.671.671,0,0,1-.67.67H7.07a.671.671,0,0,1-.67-.67v-1.859a.671.671,0,0,1,.67-.67H18.53a.671.671,0,0,1,.67.67Zm-3.682-7.33a1.119,1.119,0,0,1-.79-.328,1.119,1.119,0,0,1-.328-.79V-147.6l8.8,8.8Z" transform="translate(539 31827)"/></g></svg>