<svg xmlns="http://www.w3.org/2000/svg" width="55" height="55" viewBox="0 0 55 55"><defs><style>.a{fill:#1ea4a5;}.b{fill:#fff;}</style></defs><g transform="translate(-143 -5002)"><g transform="translate(-393 4228)"><circle class="a" cx="27.5" cy="27.5" r="27.5" transform="translate(536 774)"/></g><path class="b" d="M22.837,10.314a6.63,6.63,0,1,0,6.63,6.63A6.626,6.626,0,0,0,22.837,10.314Zm2.947,6.92a.45.45,0,0,1-.447.447h-2.79a.45.45,0,0,1-.447-.447V13.707a.45.45,0,0,1,.447-.447h.58a.45.45,0,0,1,.447.447v2.5h1.763a.45.45,0,0,1,.447.447Zm-11.05-.29a8.075,8.075,0,0,1,.838-3.568,6.135,6.135,0,0,0-1.133-.115H13.67a8.015,8.015,0,0,1-6.713,0H6.188A6.19,6.19,0,0,0,0,19.449v1.915a2.211,2.211,0,0,0,2.21,2.21H18.192A8.1,8.1,0,0,1,14.734,16.944Zm-4.42-5.157A5.894,5.894,0,1,0,4.42,5.894,5.893,5.893,0,0,0,10.314,11.787Z" transform="translate(156 5018)"/></g></svg>