<svg xmlns="http://www.w3.org/2000/svg" xmlns:xlink="http://www.w3.org/1999/xlink" width="542" height="807" viewBox="0 0 542 807"><defs><style>.a{fill:#fff;}.b{clip-path:url(#a);}.c{opacity:0.07;}.d{fill:none;stroke:#585858;stroke-miterlimit:10;stroke-width:2px;}</style><clipPath id="a"><rect class="a" width="542" height="807" transform="translate(951 927)"/></clipPath></defs><g class="b" transform="translate(-951 -927)"><g class="c" transform="translate(1186.828 745.829) rotate(20)"><path class="d" d="M973.5,16.358S828.346,87.331,857.112,269.184c32.254,203.9-135.338,288.493-251.5,236.161s-111-239.012-330.366-248.439C50.962,247.269.175,11.518.175,11.518" transform="translate(495.336 -15.835) rotate(79)"/><path class="d" d="M711.839,11.962s-61.022,153.993-35.92,308.655S599.006,491.6,558,472.877c-85.08-38.854-104.381-239.262-241.095-254.515C214.137,206.9,77.409,281.993,1.6,105.106" transform="translate(565.033 64.141) rotate(79)"/><path class="d" d="M563.249,23.859s25.24,158.874-76.027,128.888C371.149,118.377,371.8,42.233,226.633,111.767,175,136.5-34.52,140.485,5.587.094" transform="translate(525.524 154.725) rotate(79)"/></g></g></svg>