<svg xmlns="http://www.w3.org/2000/svg" width="65" height="65" viewBox="0 0 65 65"><defs><style>.a{fill:#1ea54f;}.b{fill:#fff;}</style></defs><g transform="translate(-1177 -24655)"><g transform="translate(1083 16220)"><circle class="a" cx="32.5" cy="32.5" r="32.5" transform="translate(94 8435)"/></g><g transform="translate(1195 24672)"><path class="b" d="M71.812,71.5H66.187A2.19,2.19,0,0,1,64,69.313V66.188A2.19,2.19,0,0,1,66.187,64h5.625A2.19,2.19,0,0,1,74,66.188v3.125A2.19,2.19,0,0,1,71.812,71.5Zm-5.625-5.625a.313.313,0,0,0-.312.312v3.125a.313.313,0,0,0,.312.312h5.625a.313.313,0,0,0,.313-.312V66.188a.313.313,0,0,0-.313-.312Zm0,0" transform="translate(-60.25 -60.25)"/><path class="b" d="M285.145,327.5H279.52a2.19,2.19,0,0,1-2.188-2.187v-3.125A2.19,2.19,0,0,1,279.52,320h5.625a2.19,2.19,0,0,1,2.187,2.187v3.125A2.19,2.19,0,0,1,285.145,327.5Zm-5.625-5.625a.313.313,0,0,0-.313.312v3.125a.313.313,0,0,0,.313.312h5.625a.313.313,0,0,0,.312-.312v-3.125a.313.313,0,0,0-.312-.312Zm0,0" transform="translate(-261.082 -301.25)"/><path class="b" d="M285.145,76.5H279.52a2.19,2.19,0,0,1-2.188-2.187V66.187A2.19,2.19,0,0,1,279.52,64h5.625a2.19,2.19,0,0,1,2.187,2.187v8.125A2.19,2.19,0,0,1,285.145,76.5ZM279.52,65.875a.313.313,0,0,0-.313.312v8.125a.313.313,0,0,0,.313.312h5.625a.313.313,0,0,0,.312-.312V66.187a.313.313,0,0,0-.312-.312Zm0,0" transform="translate(-261.082 -60.25)"/><path class="b" d="M71.812,247.168H66.187A2.19,2.19,0,0,1,64,244.98v-8.125a2.19,2.19,0,0,1,2.187-2.187h5.625A2.19,2.19,0,0,1,74,236.855v8.125A2.19,2.19,0,0,1,71.812,247.168Zm-5.625-10.625a.313.313,0,0,0-.312.312v8.125a.313.313,0,0,0,.312.312h5.625a.313.313,0,0,0,.313-.312v-8.125a.313.313,0,0,0-.313-.312Zm0,0" transform="translate(-60.25 -220.918)"/><path class="b" d="M26.562,30H3.438A3.44,3.44,0,0,1,0,26.562V3.438A3.44,3.44,0,0,1,3.438,0H26.562A3.44,3.44,0,0,1,30,3.438V26.562A3.44,3.44,0,0,1,26.562,30ZM3.438,1.875A1.565,1.565,0,0,0,1.875,3.438V26.562a1.565,1.565,0,0,0,1.563,1.563H26.562a1.565,1.565,0,0,0,1.563-1.563V3.438a1.565,1.565,0,0,0-1.563-1.563Zm0,0"/></g></g></svg>