<svg xmlns="http://www.w3.org/2000/svg" width="65" height="65" viewBox="0 0 65 65"><defs><style>.a{fill:#0d632d;}.b{fill:#fff;}</style></defs><g transform="translate(-1175 -24421)"><g transform="translate(1081 15986)"><circle class="a" cx="32.5" cy="32.5" r="32.5" transform="translate(94 8435)"/></g><g transform="translate(1191 24438)"><path class="b" d="M8.727,14.455a2.727,2.727,0,1,1,2.727-2.727A2.73,2.73,0,0,1,8.727,14.455Zm0-3.409a.682.682,0,1,0,.682.682A.683.683,0,0,0,8.727,11.045Z" transform="translate(2.182 2.909)"/><path class="b" d="M13.886,20.136a1.023,1.023,0,0,1-1.023-1.023V17.75a1.707,1.707,0,0,0-1.7-1.7H7.75a1.707,1.707,0,0,0-1.7,1.7v1.364a1.023,1.023,0,1,1-2.045,0V17.75A3.753,3.753,0,0,1,7.75,14h3.409a3.753,3.753,0,0,1,3.75,3.75v1.364A1.023,1.023,0,0,1,13.886,20.136Z" transform="translate(1.455 4.727)"/><path class="b" d="M19.023,17.819a1.013,1.013,0,0,1-.665-.247,1.024,1.024,0,0,1-.11-1.443l1.474-1.721-1.474-1.721A1.023,1.023,0,1,1,19.8,11.355l2.045,2.386a1.023,1.023,0,0,1,0,1.332L19.8,17.46a1.02,1.02,0,0,1-.777.359Z" transform="translate(6.546 3.636)"/><path class="b" d="M22.182,14.8H15.023a1.023,1.023,0,0,1,0-2.045h7.159a1.023,1.023,0,0,1,0,2.045Z" transform="translate(5.091 4.273)"/><path class="b" d="M28.977,31H3.75A3.753,3.753,0,0,1,0,27.25V4.75A3.753,3.753,0,0,1,3.75,1H28.977a3.753,3.753,0,0,1,3.75,3.75v22.5A3.753,3.753,0,0,1,28.977,31ZM3.75,3.045a1.707,1.707,0,0,0-1.7,1.7v22.5a1.707,1.707,0,0,0,1.7,1.7H28.977a1.707,1.707,0,0,0,1.7-1.7V4.75a1.707,1.707,0,0,0-1.7-1.7Z"/><path class="b" d="M31.7,6.545H1.023a1.023,1.023,0,1,1,0-2.045H31.7a1.023,1.023,0,0,1,0,2.045Z" transform="translate(0 1.273)"/></g></g></svg>