<svg xmlns="http://www.w3.org/2000/svg" width="152.937" height="162.042" viewBox="0 0 152.937 162.042"><defs><style>.a{fill:#37dfce;opacity:0.35;}</style></defs><path class="a" d="M146.663,158.684a3.145,3.145,0,1,1,3.137,3.358A3.254,3.254,0,0,1,146.663,158.684Zm-16.47,0a3.145,3.145,0,1,1,3.137,3.358A3.254,3.254,0,0,1,130.193,158.684Zm-15.685,0a3.145,3.145,0,1,1,3.137,3.358A3.254,3.254,0,0,1,114.508,158.684Zm-16.471,0a3.145,3.145,0,1,1,3.137,3.358A3.254,3.254,0,0,1,98.037,158.684Zm-16.47,0a3.145,3.145,0,1,1,3.137,3.358A3.254,3.254,0,0,1,81.567,158.684Zm-16.469,0a3.144,3.144,0,1,1,3.137,3.358A3.254,3.254,0,0,1,65.1,158.684Zm-16.471,0a3.144,3.144,0,1,1,3.137,3.358A3.254,3.254,0,0,1,48.628,158.684Zm-15.687,0a3.145,3.145,0,1,1,3.137,3.358A3.254,3.254,0,0,1,32.94,158.684Zm-16.471,0a3.254,3.254,0,0,1,3.137-3.358,3.366,3.366,0,0,1,0,6.717A3.253,3.253,0,0,1,16.47,158.684Zm-16.47,0a3.254,3.254,0,0,1,3.137-3.358,3.366,3.366,0,0,1,0,6.717A3.253,3.253,0,0,1,0,158.684Zm146.663-14.27a3.145,3.145,0,1,1,3.137,3.358A3.253,3.253,0,0,1,146.663,144.414Zm-16.47,0a3.145,3.145,0,1,1,3.137,3.358A3.253,3.253,0,0,1,130.193,144.414Zm-15.685,0a3.145,3.145,0,1,1,3.137,3.358A3.254,3.254,0,0,1,114.508,144.414Zm-16.471,0a3.145,3.145,0,1,1,3.137,3.358A3.254,3.254,0,0,1,98.037,144.414Zm-16.47,0a3.145,3.145,0,1,1,3.137,3.358A3.254,3.254,0,0,1,81.567,144.414Zm-16.469,0a3.144,3.144,0,1,1,3.137,3.358A3.253,3.253,0,0,1,65.1,144.414Zm-16.471,0a3.144,3.144,0,1,1,3.137,3.358A3.253,3.253,0,0,1,48.628,144.414Zm-15.687,0a3.145,3.145,0,1,1,3.137,3.358A3.253,3.253,0,0,1,32.94,144.414Zm-16.471,0a3.253,3.253,0,0,1,3.137-3.358,3.366,3.366,0,0,1,0,6.717A3.253,3.253,0,0,1,16.47,144.414Zm-16.47,0a3.253,3.253,0,0,1,3.137-3.358,3.366,3.366,0,0,1,0,6.717A3.253,3.253,0,0,1,0,144.414Zm146.663-13.435a3.145,3.145,0,1,1,3.137,3.359A3.253,3.253,0,0,1,146.663,130.979Zm-16.47,0a3.145,3.145,0,1,1,3.137,3.359A3.253,3.253,0,0,1,130.193,130.979Zm-15.685,0a3.145,3.145,0,1,1,3.137,3.359A3.254,3.254,0,0,1,114.508,130.979Zm-16.471,0a3.145,3.145,0,1,1,3.137,3.359A3.254,3.254,0,0,1,98.037,130.979Zm-16.47,0a3.145,3.145,0,1,1,3.137,3.359A3.254,3.254,0,0,1,81.567,130.979Zm-16.469,0a3.144,3.144,0,1,1,3.137,3.359A3.253,3.253,0,0,1,65.1,130.979Zm-16.471,0a3.144,3.144,0,1,1,3.137,3.359A3.253,3.253,0,0,1,48.628,130.979Zm-15.687,0a3.145,3.145,0,1,1,3.137,3.359A3.253,3.253,0,0,1,32.94,130.979Zm-16.471,0a3.253,3.253,0,0,1,3.137-3.358,3.366,3.366,0,0,1,0,6.717A3.253,3.253,0,0,1,16.47,130.979Zm-16.47,0a3.253,3.253,0,0,1,3.137-3.358,3.366,3.366,0,0,1,0,6.717A3.253,3.253,0,0,1,0,130.979ZM146.663,116.7a3.145,3.145,0,1,1,3.137,3.358A3.253,3.253,0,0,1,146.663,116.7Zm-16.47,0a3.145,3.145,0,1,1,3.137,3.358A3.253,3.253,0,0,1,130.193,116.7Zm-15.685,0a3.145,3.145,0,1,1,3.137,3.358A3.254,3.254,0,0,1,114.508,116.7Zm-16.471,0a3.145,3.145,0,1,1,3.137,3.358A3.254,3.254,0,0,1,98.037,116.7Zm-16.47,0a3.145,3.145,0,1,1,3.137,3.358A3.254,3.254,0,0,1,81.567,116.7Zm-16.469,0a3.144,3.144,0,1,1,3.137,3.358A3.253,3.253,0,0,1,65.1,116.7Zm-16.471,0a3.144,3.144,0,1,1,3.137,3.358A3.253,3.253,0,0,1,48.628,116.7Zm-15.687,0a3.145,3.145,0,1,1,3.137,3.358A3.253,3.253,0,0,1,32.94,116.7Zm-16.471,0a3.253,3.253,0,0,1,3.137-3.358,3.366,3.366,0,0,1,0,6.717A3.253,3.253,0,0,1,16.47,116.7ZM0,116.7a3.253,3.253,0,0,1,3.137-3.358,3.366,3.366,0,0,1,0,6.717A3.253,3.253,0,0,1,0,116.7Zm146.663-14.271a3.145,3.145,0,1,1,3.137,3.358A3.253,3.253,0,0,1,146.663,102.432Zm-16.47,0a3.145,3.145,0,1,1,3.137,3.358A3.253,3.253,0,0,1,130.193,102.432Zm-15.685,0a3.145,3.145,0,1,1,3.137,3.358A3.254,3.254,0,0,1,114.508,102.432Zm-16.471,0a3.145,3.145,0,1,1,3.137,3.358A3.254,3.254,0,0,1,98.037,102.432Zm-16.47,0a3.145,3.145,0,1,1,3.137,3.358A3.254,3.254,0,0,1,81.567,102.432Zm-16.469,0a3.144,3.144,0,1,1,3.137,3.358A3.253,3.253,0,0,1,65.1,102.432Zm-16.471,0a3.144,3.144,0,1,1,3.137,3.358A3.253,3.253,0,0,1,48.628,102.432Zm-15.687,0a3.145,3.145,0,1,1,3.137,3.358A3.253,3.253,0,0,1,32.94,102.432Zm-16.471,0a3.253,3.253,0,0,1,3.137-3.358,3.366,3.366,0,0,1,0,6.716A3.253,3.253,0,0,1,16.47,102.432Zm-16.47,0a3.253,3.253,0,0,1,3.137-3.358,3.366,3.366,0,0,1,0,6.716A3.253,3.253,0,0,1,0,102.432ZM146.663,88.159a3.144,3.144,0,1,1,3.137,3.358A3.253,3.253,0,0,1,146.663,88.159Zm-16.47,0a3.144,3.144,0,1,1,3.137,3.358A3.253,3.253,0,0,1,130.193,88.159Zm-15.685,0a3.144,3.144,0,1,1,3.137,3.358A3.254,3.254,0,0,1,114.508,88.159Zm-16.471,0a3.144,3.144,0,1,1,3.137,3.358A3.254,3.254,0,0,1,98.037,88.159Zm-16.47,0A3.144,3.144,0,1,1,84.7,91.516,3.254,3.254,0,0,1,81.567,88.159Zm-16.469,0a3.144,3.144,0,1,1,3.137,3.358A3.253,3.253,0,0,1,65.1,88.159Zm-16.471,0a3.144,3.144,0,1,1,3.137,3.358A3.253,3.253,0,0,1,48.628,88.159Zm-15.687,0a3.144,3.144,0,1,1,3.137,3.358A3.253,3.253,0,0,1,32.94,88.159Zm-16.471,0A3.253,3.253,0,0,1,19.607,84.8a3.366,3.366,0,0,1,0,6.716A3.253,3.253,0,0,1,16.47,88.159ZM0,88.159A3.253,3.253,0,0,1,3.137,84.8a3.366,3.366,0,0,1,0,6.716A3.253,3.253,0,0,1,0,88.159ZM146.663,73.888a3.145,3.145,0,1,1,3.137,3.358A3.253,3.253,0,0,1,146.663,73.888Zm-16.47,0a3.145,3.145,0,1,1,3.137,3.358A3.253,3.253,0,0,1,130.193,73.888Zm-15.685,0a3.145,3.145,0,1,1,3.137,3.358A3.254,3.254,0,0,1,114.508,73.888Zm-16.471,0a3.145,3.145,0,1,1,3.137,3.358A3.254,3.254,0,0,1,98.037,73.888Zm-16.47,0A3.145,3.145,0,1,1,84.7,77.247,3.254,3.254,0,0,1,81.567,73.888Zm-16.469,0a3.144,3.144,0,1,1,3.137,3.358A3.253,3.253,0,0,1,65.1,73.888Zm-16.471,0a3.144,3.144,0,1,1,3.137,3.358A3.253,3.253,0,0,1,48.628,73.888Zm-15.687,0a3.145,3.145,0,1,1,3.137,3.358A3.253,3.253,0,0,1,32.94,73.888Zm-16.471,0a3.253,3.253,0,0,1,3.137-3.358,3.366,3.366,0,0,1,0,6.717A3.253,3.253,0,0,1,16.47,73.888ZM0,73.888A3.253,3.253,0,0,1,3.137,70.53a3.366,3.366,0,0,1,0,6.717A3.253,3.253,0,0,1,0,73.888ZM146.663,59.614a3.145,3.145,0,1,1,3.137,3.358A3.253,3.253,0,0,1,146.663,59.614Zm-16.47,0a3.145,3.145,0,1,1,3.137,3.358A3.253,3.253,0,0,1,130.193,59.614Zm-15.685,0a3.145,3.145,0,1,1,3.137,3.358A3.254,3.254,0,0,1,114.508,59.614Zm-16.471,0a3.145,3.145,0,1,1,3.137,3.358A3.254,3.254,0,0,1,98.037,59.614Zm-16.47,0A3.145,3.145,0,1,1,84.7,62.972,3.254,3.254,0,0,1,81.567,59.614Zm-16.469,0a3.144,3.144,0,1,1,3.137,3.358A3.253,3.253,0,0,1,65.1,59.614Zm-16.471,0a3.144,3.144,0,1,1,3.137,3.358A3.253,3.253,0,0,1,48.628,59.614Zm-15.687,0a3.145,3.145,0,1,1,3.137,3.358A3.253,3.253,0,0,1,32.94,59.614Zm-16.471,0a3.253,3.253,0,0,1,3.137-3.358,3.366,3.366,0,0,1,0,6.717A3.253,3.253,0,0,1,16.47,59.614ZM0,59.614a3.253,3.253,0,0,1,3.137-3.358,3.366,3.366,0,0,1,0,6.717A3.253,3.253,0,0,1,0,59.614ZM146.663,46.179a3.145,3.145,0,1,1,3.137,3.358A3.253,3.253,0,0,1,146.663,46.179Zm-16.47,0a3.145,3.145,0,1,1,3.137,3.358A3.253,3.253,0,0,1,130.193,46.179Zm-15.685,0a3.145,3.145,0,1,1,3.137,3.358A3.254,3.254,0,0,1,114.508,46.179Zm-16.471,0a3.145,3.145,0,1,1,3.137,3.358A3.254,3.254,0,0,1,98.037,46.179Zm-16.47,0A3.145,3.145,0,1,1,84.7,49.537,3.254,3.254,0,0,1,81.567,46.179Zm-16.469,0a3.144,3.144,0,1,1,3.137,3.358A3.253,3.253,0,0,1,65.1,46.179Zm-16.471,0a3.144,3.144,0,1,1,3.137,3.358A3.253,3.253,0,0,1,48.628,46.179Zm-15.687,0a3.145,3.145,0,1,1,3.137,3.358A3.253,3.253,0,0,1,32.94,46.179Zm-16.471,0a3.253,3.253,0,0,1,3.137-3.358,3.366,3.366,0,0,1,0,6.716A3.253,3.253,0,0,1,16.47,46.179ZM0,46.179a3.253,3.253,0,0,1,3.137-3.358,3.366,3.366,0,0,1,0,6.716A3.253,3.253,0,0,1,0,46.179Zm146.663-14.27a3.145,3.145,0,1,1,3.137,3.358A3.253,3.253,0,0,1,146.663,31.909Zm-16.47,0a3.145,3.145,0,1,1,3.137,3.358A3.253,3.253,0,0,1,130.193,31.909Zm-15.685,0a3.145,3.145,0,1,1,3.137,3.358A3.254,3.254,0,0,1,114.508,31.909Zm-16.471,0a3.145,3.145,0,1,1,3.137,3.358A3.254,3.254,0,0,1,98.037,31.909Zm-16.47,0A3.145,3.145,0,1,1,84.7,35.268,3.254,3.254,0,0,1,81.567,31.909Zm-16.469,0a3.144,3.144,0,1,1,3.137,3.358A3.253,3.253,0,0,1,65.1,31.909Zm-16.471,0a3.144,3.144,0,1,1,3.137,3.358A3.253,3.253,0,0,1,48.628,31.909Zm-15.687,0a3.145,3.145,0,1,1,3.137,3.358A3.253,3.253,0,0,1,32.94,31.909Zm-16.471,0a3.253,3.253,0,0,1,3.137-3.358,3.366,3.366,0,0,1,0,6.717A3.253,3.253,0,0,1,16.47,31.909ZM0,31.909a3.253,3.253,0,0,1,3.137-3.358,3.366,3.366,0,0,1,0,6.717A3.253,3.253,0,0,1,0,31.909ZM146.663,17.633a3.145,3.145,0,1,1,6.275,0,3.145,3.145,0,1,1-6.275,0Zm-16.47,0a3.145,3.145,0,1,1,6.275,0,3.145,3.145,0,1,1-6.275,0Zm-15.685,0a3.145,3.145,0,1,1,6.275,0,3.145,3.145,0,1,1-6.275,0Zm-16.471,0a3.145,3.145,0,1,1,6.275,0,3.145,3.145,0,1,1-6.275,0Zm-16.47,0a3.145,3.145,0,1,1,6.275,0,3.145,3.145,0,1,1-6.275,0Zm-16.469,0a3.144,3.144,0,1,1,6.274,0,3.144,3.144,0,1,1-6.274,0Zm-16.471,0a3.144,3.144,0,1,1,6.274,0,3.144,3.144,0,1,1-6.274,0Zm-15.687,0a3.145,3.145,0,1,1,6.275,0,3.145,3.145,0,1,1-6.275,0Zm-16.471,0a3.253,3.253,0,0,1,3.137-3.358,3.253,3.253,0,0,1,3.137,3.358,3.253,3.253,0,0,1-3.137,3.358A3.253,3.253,0,0,1,16.47,17.633ZM0,17.633a3.253,3.253,0,0,1,3.137-3.358,3.253,3.253,0,0,1,3.137,3.358,3.253,3.253,0,0,1-3.137,3.358A3.253,3.253,0,0,1,0,17.633ZM146.663,3.358a3.145,3.145,0,1,1,6.275,0,3.145,3.145,0,1,1-6.275,0Zm-16.47,0a3.145,3.145,0,1,1,6.275,0,3.145,3.145,0,1,1-6.275,0Zm-15.685,0a3.145,3.145,0,1,1,6.275,0,3.145,3.145,0,1,1-6.275,0Zm-16.471,0a3.145,3.145,0,1,1,6.275,0,3.145,3.145,0,1,1-6.275,0Zm-16.47,0a3.145,3.145,0,1,1,6.275,0,3.145,3.145,0,1,1-6.275,0Zm-16.469,0a3.144,3.144,0,1,1,6.274,0,3.144,3.144,0,1,1-6.274,0Zm-16.471,0a3.144,3.144,0,1,1,6.274,0,3.144,3.144,0,1,1-6.274,0Zm-15.687,0a3.145,3.145,0,1,1,6.275,0,3.145,3.145,0,1,1-6.275,0Zm-16.471,0A3.253,3.253,0,0,1,19.607,0a3.253,3.253,0,0,1,3.137,3.358,3.253,3.253,0,0,1-3.137,3.358A3.253,3.253,0,0,1,16.47,3.358ZM0,3.358A3.253,3.253,0,0,1,3.137,0,3.253,3.253,0,0,1,6.275,3.358,3.253,3.253,0,0,1,3.137,6.717,3.253,3.253,0,0,1,0,3.358Z"/></svg>