<svg xmlns="http://www.w3.org/2000/svg" width="276.751" height="224.985" viewBox="0 0 276.751 224.985"><defs><style>.a{fill:#8e0000;opacity:0.06;}</style></defs><path class="a" d="M48.488-154.356C2.695-121.5-32.148-65.756-32.148-5.03c0,48.78,28.87,75.659,61.721,75.659A52.471,52.471,0,0,0,82.335,17.867C82.335-12,62.425-32.9,34.551-32.9c-4.978,0-11.946,1-12.942,1,2.987-31.856,31.856-71.677,63.713-92.582Zm159.281,0C161.976-121.5,127.133-65.756,127.133-5.03c0,48.78,28.87,75.659,61.721,75.659,29.865,0,53.757-23.892,53.757-52.762,0-29.865-20.906-50.771-48.78-50.771-4.978,0-11.946,1-12.942,1,3.982-31.856,31.856-71.677,63.712-92.582Z" transform="translate(32.148 154.356)"/></svg>