<svg xmlns="http://www.w3.org/2000/svg" width="276.751" height="224.985" viewBox="0 0 276.751 224.985"><defs><style>.a{fill:#8e0000;opacity:0.22;}</style></defs><path class="a" d="M163.967,70.629C209.76,37.777,244.6-17.971,244.6-78.7c0-48.78-28.87-75.659-61.721-75.659a52.471,52.471,0,0,0-52.762,52.762c0,29.865,19.91,50.771,47.784,50.771,4.978,0,11.946-1,12.942-1-2.987,31.856-31.856,71.677-63.713,92.582Zm-159.281,0C50.479,37.777,85.322-17.971,85.322-78.7c0-48.78-28.87-75.659-61.721-75.659-29.865,0-53.757,23.892-53.757,52.762,0,29.865,20.906,50.771,48.78,50.771,4.978,0,11.946-1,12.942-1C27.582-19.962-.292,19.858-32.148,40.764Z" transform="translate(32.148 154.356)"/></svg>