<svg xmlns="http://www.w3.org/2000/svg" width="40" height="40" viewBox="0 0 40 40"><defs><style>.a{fill:#181818;}.b{fill:#fff;}</style></defs><g transform="translate(-548 -959)"><circle class="a" cx="20" cy="20" r="20" transform="translate(548 959)"/><path class="b" d="M-10967.525-96.946l-.236-.23a1.31,1.31,0,0,1-.044-1.826l-.788.829a1.255,1.255,0,0,1-.918.4,1.264,1.264,0,0,1-.878-.355l-.237-.23a1.308,1.308,0,0,1-.082-1.773l-.49.522a1.256,1.256,0,0,1-.919.4,1.26,1.26,0,0,1-.876-.355l-.238-.23a1.313,1.313,0,0,1-.042-1.826l.629-.668a1.273,1.273,0,0,1-.812.292,1.245,1.245,0,0,1-.868-.351l-.236-.23a1.308,1.308,0,0,1-.042-1.825l2.384-2.542a1.248,1.248,0,0,1,.919-.4,1.25,1.25,0,0,1,.876.355l.237.229a1.308,1.308,0,0,1,.117,1.727,1.259,1.259,0,0,1,.9-.376,1.25,1.25,0,0,1,.873.354l.236.23a1.31,1.31,0,0,1,.044,1.825l-.477.507a1.265,1.265,0,0,1,.878-.355,1.243,1.243,0,0,1,.87.354l.237.23a1.311,1.311,0,0,1,.043,1.825l0,.007a1.258,1.258,0,0,1,.92-.4,1.25,1.25,0,0,1,.876.355l.237.23a1.307,1.307,0,0,1,.043,1.823l-1.344,1.431a1.251,1.251,0,0,1-.919.4A1.255,1.255,0,0,1-10967.525-96.946Zm4.755-.7-.179-.172a2.863,2.863,0,0,0-.442-3.529l-.242-.233a2.726,2.726,0,0,0-1.13-.663,2.813,2.813,0,0,0-.708-1.124l-.237-.23a2.728,2.728,0,0,0-.458-.359,2.817,2.817,0,0,0-.858-1.973l-.235-.227a2.736,2.736,0,0,0-1.218-.689,2.809,2.809,0,0,0-.671-1.016l-.237-.23a2.737,2.737,0,0,0-1.914-.777,2.762,2.762,0,0,0-2.006.872l-.5.532-2.194-2.243,5.836-5.893,1.694,1.605a3.688,3.688,0,0,0,1.237-.22c.222-.095.915-.406.915-.406a3.019,3.019,0,0,1,1.487-.172l-.353.252a2.772,2.772,0,0,0-1.131,1.84,2.809,2.809,0,0,0,.506,2.1l.194.265a2.908,2.908,0,0,0,2.347,1.184,2.833,2.833,0,0,0,1.483-.415l1.559-1.011a.572.572,0,0,1,.2-.03.661.661,0,0,1,.232.038l2.151,2s.666.517.964.764l3.433,3.244a1.311,1.311,0,0,1,.066,1.825l-.224.244a1.259,1.259,0,0,1-1.766.09l.357.337a1.312,1.312,0,0,1,.066,1.825l-.224.244a1.258,1.258,0,0,1-1.793.068l-.423-.4a1.311,1.311,0,0,1,.059,1.816l-.223.243a1.259,1.259,0,0,1-1.8.068l-1.646-1.552a1.3,1.3,0,0,1,.041,1.79l-.223.244a1.257,1.257,0,0,1-.931.409A1.255,1.255,0,0,1-10962.771-97.65Zm8.1-10.408a25.068,25.068,0,0,0-1.961-1.634l-2.26-2.1a1.969,1.969,0,0,0-1.141-.338,1.9,1.9,0,0,0-.977.251l-1.557,1.01a1.341,1.341,0,0,1-.705.195,1.415,1.415,0,0,1-1.14-.565l-.2-.266a1.274,1.274,0,0,1,.281-1.782l3.28-2.338a2.25,2.25,0,0,1,1.28-.369,2.061,2.061,0,0,1,.9.188l2.119,1.049a4.223,4.223,0,0,0,.768.26l1.354-1.35,5.621,5.47-3.616,4.262Z" transform="translate(11531 1085)"/></g></svg>