<svg xmlns="http://www.w3.org/2000/svg" xmlns:xlink="http://www.w3.org/1999/xlink" width="264" height="104" viewBox="0 0 264 104"><defs><style>.a{fill:#fff;}.b{fill:#c3c3c3;}.c{fill:#e3e3e3;}.d{fill:#f07d25;}.e{filter:url(#a);}</style><filter id="a" x="0" y="0" width="264" height="104" filterUnits="userSpaceOnUse"><feOffset dy="8" input="SourceAlpha"/><feGaussianBlur stdDeviation="3.5" result="b"/><feFlood flood-opacity="0.161"/><feComposite operator="in" in2="b"/><feComposite in="SourceGraphic"/></filter></defs><g transform="translate(-645.5 -3179.5)"><g transform="translate(561)"><g class="e" transform="matrix(1, 0, 0, 1, 84.5, 3179.5)"><rect class="a" width="243" height="83" rx="11" transform="translate(10.5 2.5)"/></g><rect class="b" width="127" height="12" rx="3" transform="translate(177 3209)"/><rect class="c" width="76" height="12" rx="3" transform="translate(177 3224)"/></g><g transform="translate(-153.676 240.289)"><path class="d" d="M20.663,23.179a20.55,20.55,0,0,0-7.839-1.742C9.043,21.437,1.5,23.318,1.5,27.1v4.791l22.634-.36C24.473,26.343,23.952,24.365,20.663,23.179Zm.871,6.1H4.113V27.1c0-.941,4.46-3.049,8.71-3.049s8.71,2.108,8.71,3.049Zm2.613,0V27.1a3.17,3.17,0,0,0-.906-2.125ZM12.824,19.695a6.1,6.1,0,1,0-6.1-6.1A6.1,6.1,0,0,0,12.824,19.695Zm0-9.582A3.484,3.484,0,1,1,9.339,13.6,3.494,3.494,0,0,1,12.824,10.113Z" transform="translate(833.5 2964.5)"/><path class="d" d="M10.21,15.726V10.5H6.726v5.226H1.5V19.21H6.726v5.226H10.21V19.21h5.226V15.726Z" transform="translate(852.779 2962.661)"/></g></g></svg>