<svg xmlns="http://www.w3.org/2000/svg" fill-rule="evenodd" stroke-linejoin="round" stroke-miterlimit="2" clip-rule="evenodd" viewBox="0 0 1343 103">
  <defs />
  <g fill-rule="nonzero" id="separator-1">
    <path id="separator" d="M1161.07 36.997C1167.146 15.708 1188.042 0 1212.857 0c20.341 0 38.049 10.555 47.118 26.084 8.671-7.765 20.899-12.605 34.44-12.605 26.273 0 47.603 18.222 47.603 40.668 0 22.445-21.33 40.667-47.603 40.667-15.493 0-29.267-6.336-37.963-16.14-9.721 12.622-25.631 20.855-43.595 20.855-17.574 0-33.183-7.879-42.952-20.036-5.786 12.48-18.429 21.143-33.079 21.143-18.968 0-34.571-14.523-36.285-33.046a36.284 36.284 0 01-23.063 8.235 36.291 36.291 0 01-23.7-8.768c-5.739 12.598-18.444 21.364-33.181 21.364-11.543 0-21.839-5.378-28.519-13.764-8.783 16.706-26.968 28.194-47.957 28.194-19.519 0-36.614-9.935-45.977-24.765-5.958 2.759-13.017 4.357-20.581 4.357-16.931 0-31.331-8.005-36.532-19.128-7.189 11.484-19.955 19.128-34.493 19.128-11.903 0-22.618-5.124-30.058-13.286-3.157 19.127-19.08 33.694-38.222 33.694-16.996 0-31.453-11.482-36.691-27.443-11.696 15.059-33.825 25.228-59.174 25.228-28.318 0-52.617-12.69-62.844-30.716a23.754 23.754 0 01-15.702 5.905 23.73 23.73 0 01-13.911-4.481c-6.452 10.256-17.87 17.077-30.869 17.077a36.251 36.251 0 01-19.727-5.804c-12.466 11.655-31.641 19.127-53.132 19.127-32.698 0-60.039-17.298-66.543-40.312-4.317 10.975-15.937 18.844-29.579 18.844-15.062 0-27.659-9.593-30.685-22.368-6.249 14.429-20.622 24.535-37.337 24.535-10.52 0-20.113-4.003-27.337-10.568-5.963 16.642-24.101 28.761-45.526 28.761-19.773 0-36.747-10.321-43.935-24.996-9.812 14.322-27.513 23.889-47.702 23.889-19.658 0-36.957-9.071-46.91-22.767-5.122 13.927-18.515 23.874-34.213 23.874C16.329 100.636 0 84.307 0 64.195c0-20.113 16.329-36.442 36.441-36.442 10.455 0 19.887 4.412 26.535 11.474C68.405 16.816 90.799 0 117.564 0c25.296 0 46.686 15.019 53.544 35.588 8.685-9.886 22.521-16.288 38.093-16.288 13.107 0 24.984 4.536 33.595 11.867 4.672-17.309 20.492-30.06 39.268-30.06 21.291 0 38.783 16.398 40.525 37.241 5.341-8.739 15.658-14.666 27.497-14.666 13.282 0 24.647 7.46 29.223 17.983C385.11 17.975 412.875 0 446.208 0c22.313 0 42.13 8.054 54.532 20.481a36.258 36.258 0 0118.327-4.943c12.999 0 24.417 6.82 30.869 17.077a23.73 23.73 0 0113.911-4.481 23.736 23.736 0 0114.877 5.214c9.696-18.83 34.559-32.241 63.669-32.241 30.995 0 57.175 15.203 65.359 35.964 7.105-9.47 18.133-15.556 30.506-15.556 11.15 0 21.207 4.943 28.287 12.851 3.486-18.912 20.077-33.259 39.993-33.259 20.809 0 37.988 15.663 40.382 35.833 7.058-6.741 18.163-11.09 30.643-11.09 6.733 0 13.066 1.266 18.58 3.491 8.778-16.73 26.975-28.234 47.978-28.234 20.989 0 39.174 11.488 47.957 28.195 6.68-8.386 16.976-13.764 28.519-13.764a36.286 36.286 0 0123.7 8.768c5.739-12.598 18.444-21.364 33.181-21.364 18.968 0 34.571 14.524 36.285 33.046a36.284 36.284 0 0123.063-8.235c9.306 0 17.802 3.496 24.244 9.244z" />
  </g>
</svg>
