<?xml version="1.0" encoding="UTF-8"?>
<svg xmlns="http://www.w3.org/2000/svg" width="407" height="373" viewBox="0 0 407 373" fill="none">
  <path d="M406.617 305.113C409.138 273.84 384.876 233.313 322.411 235.645C295.714 236.643 276.868 230.02 261.875 202.491C246.881 174.962 249.398 112.774 231.53 68.6947C218.612 36.8963 172.387 -24.1578 92.5513 10.1606C60.0763 24.1276 8.68048 78.1731 1.49233 135.888C-5.69582 193.603 15.6539 250.763 38.9898 276.843C80.718 325.645 130.837 310.055 180.795 296.892C205.112 290.472 225.891 297.051 240.736 310.052C251.395 319.367 277.817 361.352 316.187 370.395C376.383 384.608 404.077 336.353 406.617 305.113Z" fill="#FF77BA"></path>
</svg>
