<?xml version="1.0" encoding="UTF-8"?>
<svg xmlns="http://www.w3.org/2000/svg" width="454" height="306" viewBox="0 0 454 306" fill="none">
  <path d="M422.006 12.5996C396.721 -6.33458 349.135 -7.92081 317.5 45.4141C303.98 68.2097 288.194 80.3569 256.671 78.0398C225.148 75.7227 173.524 40.1513 126.354 31.3225C92.3106 24.9773 15.4163 30.6537 1.68094 115.688C-3.90008 150.281 14.4785 222.222 59.7782 259.28C105.078 296.339 165.265 309.305 200.045 303.887C264.08 295.365 277.777 245.188 293.453 196.45C301.072 172.721 317.861 158.939 336.927 153.56C350.6 149.687 400.591 150.256 428.947 123.134C473.457 80.5956 447.253 31.5329 422.006 12.5996Z" fill="#FDE1D6"></path>
</svg>
