<?xml version="1.0" encoding="UTF-8"?>
<svg xmlns="http://www.w3.org/2000/svg" width="449" height="317" viewBox="0 0 449 317" fill="none">
  <path d="M35.1711 306.267C61.5432 323.689 109.141 322.489 137.533 267.397C149.666 243.85 164.699 230.801 196.305 231.27C227.912 231.74 281.572 264.229 329.187 270.284C363.55 274.627 439.97 264.462 448.599 178.774C452.103 143.914 429.457 73.1745 382.022 38.8305C334.586 4.48642 273.729 -4.93703 239.335 2.50582C175.921 14.7589 165.247 65.6496 152.511 115.218C146.323 139.351 130.388 154.092 111.676 160.577C98.2587 165.243 48.3216 167.598 21.6361 196.332C-20.2535 241.399 8.83619 288.843 35.1711 306.267Z" fill="#BFCBFF"></path>
</svg>
