<svg xmlns="http://www.w3.org/2000/svg" width="1440" height="365.066" viewBox="0 0 1440 365.066">
  <path id="skyline-id" d="M427.54-164.969c.884-.639,1.759-1.293,2.613-1.968,19.747-15.574,26.414-43.989,26.414-43.989l.4.044.281,106.586h0v.4h0V-8.784a53.994,53.994,0,0,1,34.03-11.82c26.583,0,48.485,18.572,51.461,42.482h14.695v5.809h49.847v-4.5a4.91,4.91,0,0,1,4.9-4.9h.058V14.924a3.8,3.8,0,0,1,3.714-3.789V-12.92h3.137v6.592h1.471V-12.92h.886V-30.958h3.224v6.083h1.53v-6.083h1.849c-.009-.216-.015-.434-.015-.653a13.178,13.178,0,0,1,3.626-9.227v-8.289h2.055V-59.09h2.237v-9.252h2v-2.58h2.191v2.58h2v9.252h2.237v9.964h1.592v7.8a13.085,13.085,0,0,1,4.13,9.714c0,.218-.005.437-.016.653h2.6v6.083h1.53v-6.083h3.908v13.817h.069V-6.329h.226V-12.92h3.634v-.4h-.112v-4.9a4.916,4.916,0,0,1,4.9-4.9h.054v-3.367a3.8,3.8,0,0,1,3.718-3.789V-54.33h3.133v6.592h1.471V-54.33h.887V-72.364h3.223v6.083h1.53v-6.083H682.7c-.011-.218-.013-.437-.013-.655a13.187,13.187,0,0,1,3.622-9.224v-8.291h2.055V-100.5H690.6v-9.255h2v-2.58h2.191v2.58h2v9.255h2.237v9.962h1.591v7.8a13.085,13.085,0,0,1,4.13,9.714c0,.218-.005.437-.015.655h2.6v6.083h1.533v-6.083h3.907V-58.55h.066v10.812h.226V-54.33H717.1v24.061a3.8,3.8,0,0,1,3.588,3.784v3.372a4.916,4.916,0,0,1,4.679,4.9v4.9h-1.039v5.081h1.18A4.607,4.607,0,0,1,730.1-3.643v4.6h-1.046a7.311,7.311,0,0,1,4.9,6.88v0a7.315,7.315,0,0,1-5.783,7.129V26.4a4.132,4.132,0,0,1,1.93,3.488v0a4.132,4.132,0,0,1-4.122,4.123h-9.849V33.6h-3.183v.878h13.37v7.846h7.08V36.054h7.162v-6.58a4.069,4.069,0,0,1-3.167-3.956v-.159a4.066,4.066,0,0,1,3.167-3.956V8.038a7.247,7.247,0,0,1-7.01-7.221v0a7.253,7.253,0,0,1,5.46-7,6.159,6.159,0,0,1-4.643-5.948v0a6.151,6.151,0,0,1,6.133-6.132h.344v-4.306a4.744,4.744,0,0,1,4.734-4.731h.128V-57.677h3.977v8.32h2.048v-8.32h1.156v-22.77h4.1v7.68h2.126v-7.68h2.42c-.015-.291-.022-.584-.022-.877a16.283,16.283,0,0,1,4.739-11.628v-10.433h2.689v-12.579h2.927v-11.683h2.611V-130.9h2.74v3.257h2.611v11.683h2.927v12.579h2.081v9.818a16.2,16.2,0,0,1,5.4,12.243c0,.293-.008.587-.022.877h3.4v7.68h2.126v-7.68h4.986v17.441h.087v13.648h.42v-8.32H806.4v18.9h1.647v11.464h6.546V-49.126h9.764v21.815h1.662c-.015-.258-.023-.52-.023-.781a13.992,13.992,0,0,1,4.064-9.98v-8.957h2.305V-57.637h2.509V-67.649h2.237v-2.8h2.409v2.8h2.237v10.013h2.509v10.608h1.782V-38.6a13.907,13.907,0,0,1,4.632,10.508c0,.3-.009.6-.027.9h2.929v6.582h1.764v-6.582h4.331V-12.24h.078V-.135h-1.8V-7.273h-3.591V-.135h-2.506V-7.273h-3.4V-.135h-2.5V-7.273h-3.639V-.135h-2.506V-7.273h-3.586V-.135h-2.506V-7.273h-3.589V-.135h-1.23V2.144h32.8V11.5h3.873a7.377,7.377,0,0,1,6.351-3.715,3.788,3.788,0,0,1,1.7-7.175h2.144V-33.144h3.469v7.134h1.7v-7.134h1v-19.52h3.564v6.586h1.764v-6.586h2.077c-.012-.24-.017-.48-.017-.724a14,14,0,0,1,4.062-9.98v-8.958h2.305V-83.107h2.509V-93.121h2.237v-2.8h2.409v2.8h2.237v10.014h2.509v10.781h1.785v8.433a13.911,13.911,0,0,1,4.63,10.505c0,.244-.005.484-.018.724h2.918v6.586h1.764v-6.586h4.332v14.952h.075v11.7h.3v-7.134h4.48v16.2h.009V.612h2.172a3.789,3.789,0,0,1,1.588,7.229,7.358,7.358,0,0,1,.183,14.584V32.95h3.7v4.642h5.915V49.814h63.956v-39.5h19.666V.694h27.959v9.624h19.666V91.658h-67.041v1.527h70.237V-13.156h-1.72v-8.727h8.561v-9.624h38.229v9.624h8.738v8.727H1126.9V93.186h11.345V-3.08h-6.951V-10.5h34.539v6.826h6.479V-10.5h34.534V-3.08h-6.951V93.186h14.15V-48.662h6.5V-58.984h7.008v10.322h21.378V-58.984h7.008v10.322h5.574V93.186h62.742V26.219h-4.542V17.558h20.165v-24.6h-7.122v-7.526h7.846v-9.06a9.491,9.491,0,0,1,9.458-9.467h6.568a9.5,9.5,0,0,1,9.461,9.467v9.06h7.55v7.526h-6.823v24.6h18.128v8.661h-4.549V93.186h7.213a10.986,10.986,0,0,1,10.861-8.644,11.289,11.289,0,0,1,6.1,1.774,13.6,13.6,0,0,1,2.988-3.747V66.584a16.238,16.238,0,1,1,.9.025c-.162,0-.336,0-.5-.008V82.227a14.089,14.089,0,0,1,8.909-3.136,13.667,13.667,0,0,1,13.888,13.432c0,.222-.013.443-.027.662H1440v.4H1199.891V93.8h-61.65v-.212H50.581l.005.028H7.41l0-.028H0v-.4H7.384c-.011-.21-.017-.422-.017-.634A13.662,13.662,0,0,1,21.244,79.119a14.092,14.092,0,0,1,8.91,3.136l0-15.627c-.166.005-.332.008-.5.008a16.221,16.221,0,1,1,.9-.025l0,15.985a13.555,13.555,0,0,1,2.993,3.747,11.283,11.283,0,0,1,6.1-1.774A10.982,10.982,0,0,1,50.5,93.186H77.937V79.712h27.82V70.768h29.461l-14.267-17.83H107.773v-5.91h35.779l7.275-134.418h-7.043V-94.48h-2.305v-8.04h2.684v-6.193h5.989v-8.874h2v-4.792h2.534v4.792h2v8.874h5.986v6.193h2.682v8.04h-2.305v7.091h-6.425l6.659,134.418H197.4v-70.1h14.478V-37.381h12.936V-58.026h26.7V-71.512h51.325v13.486h67.3V-38.07h12.937v15.342h9.08V-104.3h11.278c-.026-2.35-.257-24.254,0-28.352.778-12.2,6.23-18.939,12.891-24.292,1.427-1.145,2.908-2.227,4.411-3.285h0l.106-.074q.549-.388,1.1-.768ZM1194.38,93.186h5.109V-3.08h-5.109Zm-6.2,0h5.792V-3.08h-5.792Zm-7.418,0h7.015V-3.08h-7.015Zm-8.055,0h7.651V-3.08h-7.651Zm-6.882,0h6.478v-3.8h-6.478Zm-8.055,0h7.651V12.128h-7.651Zm-7.16,0h6.756V12.128h-6.756Zm-6.329,0h5.926V12.128h-5.926Zm-5.64,0h5.236V12.128h-5.236ZM385.892,80.618H197.8V93.186H747.715V85.853H385.892ZM1255.535-48.258h-33.454V93.186h33.454ZM1109.9-13.022V93.186h5.037V-13.022Zm111.779-35.236h-7.232V93.186h7.232ZM1094.485,93.186h15.01V89.306h-15.01Zm20.854,0h11.02V89.924h-11.02Zm-39.085,0h11.158V89.924h-11.158Zm-1026.163,0a10.582,10.582,0,0,0-10.439-8.213A10.876,10.876,0,0,0,33.588,86.8l-.188.126-.1-.2a13.523,13.523,0,0,0-12.053-7.2A13.258,13.258,0,0,0,7.77,92.551c0,.212.007.425.018.634Zm1043.989,0V-13.022h-6.266V93.186Zm336.243,0c.013-.219.027-.441.027-.662A13.265,13.265,0,0,0,1416.866,79.5a13.518,13.518,0,0,0-12.045,7.2l-.108.2-.188-.126a10.867,10.867,0,0,0-6.056-1.828,10.6,10.6,0,0,0-10.457,8.241Zm-174.385,0h5.171V-48.257h-5.171Zm68.72,0H1380V26.219h-55.337ZM197.4,80.116H78.341V93.183H197.4Zm644.06.576V57.705H748.119v35.3h23.819V71.544a8.8,8.8,0,0,1,17.6,0V93.008h45.8V80.692ZM1005.21,57.705h-88.7V80.692h2.9V93.008h45.6V71.719a8.8,8.8,0,0,1,17.6,0V93.008h22.6Zm-216.079,35.3V71.544a8.394,8.394,0,0,0-16.789,0V93.008Zm46.61,0h83.273V81.1H835.741Zm146.47,0V71.719a8.4,8.4,0,0,0-16.792,0V93.008Zm282.8-1.752h53.77V85.125h-53.77Zm-259.244,0h66.483V10.721h-66.483Zm259.648-.4h52.963V85.528h-52.963ZM1247.862-19.2V90.492h-19.269V-19.2ZM1229,90.088h18.46v-3.8H1229Zm-113.658-.643h11.02V82.212h-11.02Zm-39.085,0h11.158V82.212h-11.158Zm-9.815-73.232V89.306h-14.089V16.213Zm-19.681,0V89.306H1032.67V16.213ZM1026.74,16.2v73.09h-14.089V16.2Zm139.089,72.789h6.478V84.979h-6.478Zm-71.345-.084h5.576V81.027h-5.576Zm-41.73,0h13.282V85.029h-13.282Zm-19.681,0h13.282V85.029h-13.282Zm67.432,0h8.989V81.027h-8.989Zm-87.451-.019h13.282v-3.87h-13.282Zm316.809-.647h11.971V75.323h-11.971Zm34.583,0h11.971V75.323h-11.971Zm-17.293,0h11.971V75.323h-11.971Zm-16.886-.4h11.163V75.727h-11.163Zm34.583,0h11.164V75.727h-11.164Zm-17.293,0h11.164V75.727h-11.164ZM1229,85.886h18.46v-3.8H1229Zm-814.36-.437h5.1V33.6h-5.1Zm-10.734,0h10.331V33.6H403.9Zm16.237,0H747.6V71.06H420.14Zm-26.557,0h9.844V33.6h-9.844Zm-7.287,0h6.884V33.6H386.3Zm881.4-23.059h-2.686V56.259h53.77v6.131h-1.752v5.475h-.1v11h1.853v6.131h-53.77V78.861h2.583V67.521h.1ZM1033.073,84.626h13.282v-3.87h-13.282Zm19.681,0h13.282v-3.87h-13.282Zm-39.7-.015h13.282V80.737h-13.282Zm254.54-5.346h-2.179v5.324h52.962V79.264h-1.449v.171h-49.334Zm-101.765,5.311h6.478v-4.01h-6.478Zm-89.575-2.767h11.158V77.056h-11.158Zm39.085,0h11.02V77.056h-11.02ZM1229,81.684h18.46v-3.8H1229Zm-305.541-.648h11.138V62.19H923.456ZM841.862,50.218V80.692h7.1V50.218Zm13.073,11.471h-5.573v19h3.783v-.82h1.79Zm18.943,19h5.57v-19h-5.57Zm15.02,0h4.709V57.7H888.9ZM873.427,57.705H868.55V80.692h4.924v-19h-.047Zm-12.38,22.94h7.1V50.218h-7.1Zm-7.5,0h1.387v-.37h-1.387Zm48.072,0h5.57V61.689h-5.57Zm-21.768,0h1.075V50.218h-7.1V61.285h6.021Zm-26.3-30.427V61.285h1.79v19.36h5.305V50.218Zm62.561,0h-7.095V80.645h7.095ZM908.5,57.705h-6.993v3.58h6.083v19.36h.91Zm-14.491,22.94h6.993V50.218h-6.993Zm-12.613,0h7.1V57.705h-7.1Zm42.46-.013H934.19V62.593H923.86Zm170.625-.009h15.01v-5.6h-15.01Zm-274.8-.136h11.138V61.641H819.683Zm213.39-.135h13.282V76.479h-13.282Zm19.681,0h13.282V76.479h-13.282Zm-39.7-.019h13.282V76.46h-13.282ZM392.156-22.324h-9.484V-37.667H369.736V-57.622h-67.3V-71.108H251.917v13.486h-26.7v20.645H212.28v14.313H197.8V47.028h.009v5.91H197.8V80.215h188.09V69.472H373.13V65.347h12.762V54.42H373.13V50.3h12.762V39.64H373.13V35.514h12.762V33.6h-5.02v-5.91h11.284ZM1165.829,80.162h6.479V76.154h-6.479Zm-345.743-.078h10.331V62.044H820.087Zm-713.925-.371H197.4v-8.54H106.161Zm1194.147-.852h11.778V67.925h-11.778Zm12.182,0h4.035V67.925h-4.035Zm-44.492,0h4.141V67.925H1268Zm4.546,0h11.569V67.925h-11.569Zm11.972,0H1299.9V67.925h-15.388ZM1229,77.479h18.46v-3.8H1229Zm-113.658-.9h11.02V69.344h-11.02Zm-39.085,0h11.158V69.344h-11.158Zm-23.5-.5h13.282V72.2h-13.282Zm-19.681,0h13.282V72.2h-13.282Zm-20.019-.019h13.282v-3.87h-13.282Zm159.253-4.316h-6.479v4.01h6.479Zm-77.823,2.881h5.576V66.746h-5.576Zm6.021,0h8.989V66.746h-8.989ZM1229,73.277h18.46v-3.8H1229ZM1052.754,71.8h13.282V67.928h-13.282Zm-19.681,0h13.282V67.928h-13.282Zm-20.019-.019h13.282V67.909h-13.282Zm351.392-.4h11.971V63.856h-11.971Zm-17.293,0h11.971V63.856h-11.971Zm-17.289,0h11.971V63.856h-11.971Zm-164.035-.048h6.478V67.329h-6.478Zm181.728-.356h11.164V64.259h-11.164Zm-17.289,0h11.163V64.259h-11.163Zm34.583,0h11.164V64.259h-11.164ZM171.624,70.768H197.4V52.938H186.967Zm-35.888,0h35.355l15.343-17.83H121.469Zm284.4-.112h10.524V33.6H420.14Zm10.928,0h5.1V33.6h-5.1Zm5.506,0H447.4V33.6h-10.83Zm11.235,0h5.1V33.6h-5.1Zm5.506,0h10.83V33.6h-10.83Zm11.233,0h5.1V33.6h-5.1Zm5.506,0h10.833V33.6H470.052Zm11.237,0h5.1V33.6h-5.1Zm5.506,0h10.83V33.6H486.8Zm11.233,0h5.1V33.6h-5.1Zm5.507,0h10.833V33.6H503.536Zm11.236,0h5.1V33.6h-5.1Zm5.506,0h10.83V33.6h-10.83Zm11.235,0h5.1V33.6h-5.1Zm5.506,0h10.833V33.6H537.018Zm11.236,0h5.1V33.6h-5.1Zm5.507,0h10.83V33.6h-10.83Zm11.233,0h5.1V33.6h-5.1Zm5.506,0h10.833V33.6H570.5Zm11.237,0h5.1V33.6h-5.1Zm5.5,0h10.833V33.6H587.24Zm11.236,0h5.1V33.6h-5.1Zm5.506,0h10.833V33.6H603.982Zm11.237,0h5.1V33.6h-5.1Zm5.5,0h10.833V33.6H620.722Zm11.236,0h5.1V33.6h-5.1Zm5.507,0h10.842V33.6H637.465Zm11.245,0h5.1V33.6h-5.1Zm5.506,0h34.277V33.6H654.216Zm34.681,0h9.5V33.6h-9.5Zm9.908,0h5.483V33.6h-5.483Zm5.887-6.5v6.5h7.854V33.6h-7.854v3.627H710.3V39.64h-5.609v3.714H710.3V45.77h-5.609v3.714H710.3V51.9h-5.609V55.61H710.3v2.416h-5.609V61.74H710.3v2.416Zm8.258,6.409H733.4V42.725H712.949Zm96.823-34.108H733.8V70.566h13.911V49.814h62.073V38.033h-.016Zm-466.647,34.1h8.249v-6.29h-8.249Zm11.718,0h8.249v-6.29h-8.249Zm-123.108,0h8.249v-6.29h-8.249Zm35.145,0h8.249v-6.29H266.88Zm52.814,0h8.249v-6.29h-8.249Zm-64.532,0h8.249v-6.29h-8.249Zm23.434,0h8.249v-6.29H278.6Zm52.814,0h8.249v-6.29h-8.249Zm-23.43,0h8.249v-6.29h-8.249Zm-64.532,0H251.7v-6.29h-8.249Zm76.65-.4h7.442V64.668H320.1Zm-76.246,0h7.442V64.668h-7.442Zm111.394,0h7.442V64.668h-7.442Zm-123.108,0h7.442V64.668h-7.442Zm111.39,0h7.442V64.668h-7.442Zm-11.714,0h7.442V64.668h-7.442Zm-64.531,0h7.442V64.668h-7.442Zm-11.718,0h7.442V64.668h-7.442Zm52.818,0h7.442V64.668h-7.442Zm-29.384,0h7.442V64.668H279Zm-75.953-.476h15.886V65.553H203.048Zm.4-.4h15.079V65.956H203.452ZM1229,69.071h18.46v-3.8H1229Zm-855.464,0h12.358V65.75H373.533Zm702.721-.128h11.158V64.188h-11.158Zm39.085,0h11.02V64.188h-11.02Zm-62.585-1.416h13.282V63.651h-13.282Zm-19.681,0h13.282V63.651h-13.282Zm-20.019-.019h13.282v-3.87h-13.282Zm255.047-.044h48.523V62.681H1268.1Zm-102.272-.537h6.478v-4.01h-6.478Zm-56.335-7.039h-15.01v6.456h15.01ZM30.561,66.207a15.832,15.832,0,1,0-.9.025q.25,0,.5-.008V58.819L24.843,53.8l.277-.294,5.038,4.757V48.045h.4V66.207Zm1377.4-.01c.162.005.336.008.5.008a15.817,15.817,0,1,0-.9-.025V48.017h.4V58.236l5.033-4.757.283.294-5.316,5.019ZM1229,64.869h18.46v-3.8H1229ZM704.692,63.753H709.9V62.144h-5.205Zm371.563-.047h11.158v-7.23h-11.158Zm39.085,0h11.02v-7.23h-11.02Zm-82.266-.459h13.282v-3.87h-13.282Zm19.681,0h13.282v-3.87h-13.282Zm-39.7-.016h13.282V59.358h-13.282Zm152.775-.721h6.479V58.5h-6.479Zm99.586-.524h52.963V56.663h-52.963Zm-416.054-.7h3.783v-3.58h-3.783ZM1229,60.667h18.46v-3.8H1229Zm135.45-.751h11.971V52.388h-11.971Zm-34.583,0h11.971V52.388h-11.971Zm17.289,0h11.971V52.388h-11.971Zm-16.886-.4h11.163V52.792h-11.163Zm17.289,0h11.164V52.792h-11.164Zm17.293,0h11.164V52.792h-11.164Zm-270.366-.031h5.576V51.606h-5.576Zm6.021,0h8.989V51.606h-8.989Zm-67.432-.509h13.282V55.1h-13.282Zm19.681,0h13.282V55.1h-13.282Zm-39.7-.019h13.282V55.081h-13.282Zm152.775-.855h6.479v-4.01h-6.479Zm-461.138-.477H709.9V56.014h-5.205ZM888.9,57.3h4.709V50.218H888.9Zm-7.5,0h7.1V50.218h-7.1Zm-32.038,0h3.783V50.218h-3.783Zm-101.243,0h93.339V50.218H748.119Zm168.394,0h88.7V50.218h-88.7Zm-47.963,0h4.878V50.218H868.55Zm32.961,0H908.5V50.218h-6.993ZM1229,56.462h18.46v-3.8H1229Zm38.7-39.274h-2.686V11.054h53.77v6.134h-1.752v5.3h-.1V33.655h1.853v6.134h-1.752v4.96h-.1v11.5h-49.334V44.336h.1V39.789h-2.686V33.655h2.583V22.01h.1ZM1076.255,56.072h11.158V51.319h-11.158Zm39.085,0h11.02V51.319h-11.02Zm169.177-.225H1299.9V44.75h-15.388Zm-11.972,0h11.569V44.75h-11.569Zm-4.546,0h4.141V44.75H1268Zm44.492,0h4.035V44.75h-4.035Zm-12.182,0h11.778V44.75h-11.778ZM1052.754,54.7h13.282V50.823h-13.282Zm-19.681,0h13.282V50.823h-13.282Zm-20.019-.019h13.282v-3.87h-13.282Zm-769.606-.152H251.7V50.192h-8.249Zm87.962,0h8.249V50.192h-8.249Zm11.714,0h8.249V50.192h-8.249Zm-23.43,0h8.249V50.192h-8.249Zm-11.714,0h8.249V50.192h-8.249Zm-76.246,0h8.249V50.192h-8.249Zm46.862,0h8.249V50.192H278.6Zm-11.716,0h8.249V50.192H266.88Zm87.962,0h8.249V50.192h-8.249Zm-99.68,0h8.249V50.192h-8.249Zm-52.115-.006h15.886V50.395H203.048Zm105.337-.4h7.442V50.6h-7.442Zm-52.818,0h7.442V50.6h-7.442Zm76.249,0h7.442V50.6h-7.442Zm-87.962,0h7.442V50.6h-7.442Zm76.246,0h7.442V50.6H320.1Zm-41.1,0h7.442V50.6H279Zm64.528,0h7.442V50.6h-7.442Zm11.718,0h7.442V50.6h-7.442Zm-123.108,0h7.442V50.6h-7.442Zm35.145,0h7.442V50.6h-7.442Zm-63.832-.006h15.079V50.8H203.452Zm170.082-.1h12.358V50.7H373.533Zm792.3-.331h6.478V49.678h-6.478ZM108.176,52.535H197.4v-5.1H108.176ZM1229,52.26h18.46v-3.8H1229ZM704.692,51.5H709.9V49.887h-5.205Zm389.793-6.9V51.2h15.01V44.593Zm20.854,6.244h11.02v-7.23h-11.02Zm-39.085,0h11.158v-7.23h-11.158Zm-23.5-.418h13.282v-3.87h-13.282Zm-19.681,0h13.282v-3.87h-13.282Zm-20.019-.016h13.282V46.531h-13.282Zm-202.862-.59h18.3V38.033h-18.3ZM941,38h-23.16l-.032.128H881.623c0,.032,0,.065,0,.1,0,.075,0,.149-.005.223q0,.052,0,.1l0,.038c0,.021,0,.041,0,.062l0,.049c0,.027,0,.054-.007.08l-.02.184c-.007.042-.012.084-.019.126l0,.021c-.015.095-.032.189-.051.282v0c-.012.063-.027.126-.042.188l0,.017c-.005.018-.009.036-.013.054-.012.043-.023.085-.035.128l0,.013c-.005.017-.009.035-.015.053s-.019.064-.03.1c0,.014-.009.029-.013.043l-.024.073c-.043.128-.091.254-.144.378l-.012.028q-.038.092-.081.182c-.007.013-.013.027-.019.04l-.008.015c-.011.023-.022.045-.034.068l0,.007a5.542,5.542,0,0,1-.279.491l-.008.013q-.145.227-.311.439l-.031.04-.031.039c-.02.025-.04.049-.062.074l-.023.027a5.429,5.429,0,0,1-.584.591l-.074.064-.048.04-.011.008-.066.054c-.052.041-.1.08-.157.119l-.052.038-.1.071-.013.009-.054.036-.043.028c-.079.051-.16.1-.241.146q-.194.11-.4.205l-.083.038-.044.02-.091.039-.032.013-.028.011-.054.021-.042.016-.031.012-.039.014-.161.055-.052.017-.065.02-.052.015-.061.017-.016,0-.071.019-.012,0-.063.016-.071.017-.075.017a5.3,5.3,0,0,1-.627.093h0q-.093.008-.19.013l-.171.006h-.108a5.51,5.51,0,0,1-5.43-5.586v-.1H834.576l-.023-.09h-5.659V49.814H941Zm224.826,11.279h6.478v-4.01h-6.478Zm198.618-.828h11.971V40.92h-11.971Zm-17.293,0h11.971V40.92h-11.971Zm-17.289,0h11.971V40.92h-11.971ZM1229,48.058h18.46v-3.8H1229Zm135.854-.016h11.164V41.324h-11.164Zm-17.293,0h11.164V41.324h-11.164Zm-17.289,0h11.163V41.324h-11.163ZM151.231-87.389,143.96,46.954h18.91L156.214-87.389ZM1033.073,46.146h13.282V42.272h-13.282Zm19.681,0h13.282V42.272h-13.282Zm-39.7-.019h13.282V42.254h-13.282Zm-308.363-.761H709.9V43.757h-5.205Zm461.138-.505h6.479V40.853h-6.479Zm150.8-.524V39.789H1268.1v4.547Zm-216.12-.147h8.989V36.314h-8.989Zm-6.021,0h5.576V36.314h-5.576ZM1229,43.853h18.46v-3.8H1229ZM881.215,37.991a5.022,5.022,0,0,0-10.044,0c0,.118,0,.228,0,.226,0,.133,0,.265.013.4,0,.008,0,.016,0,.024.007.089.016.178.027.266,0,.022.005.044.009.066q.016.123.04.244l.008.044c.009.051.02.1.032.152q.036.156.081.309c.012.041.024.082.038.123l.005.018.028.085c.016.05.035.1.052.148s.028.073.043.109a.166.166,0,0,0,.009.024c.028.071.059.141.09.209a.179.179,0,0,1,.011.024l.044.093.077.151.069.124c.036.064.073.127.112.189l.026.04c.009.017.02.033.031.049l.019.029c.023.035.047.069.07.1l.024.034.052.073c.032.044.066.088.1.131l.028.036.057.071c.047.057.1.112.144.167.009.009.018.018.026.028l.038.041c.035.037.07.074.106.11l.038.038.039.039.023.021.024.023.054.05.015.014c.039.035.079.07.118.1l.021.018.1.082.02.016.086.066.027.021.141.1.034.024.083.055.048.031c.035.023.07.045.106.066l.048.029.054.031.075.042.013.007.07.037.039.02.013.007.113.056.058.027.121.054.028.012.071.029.015.006.043.017.03.012c.091.035.183.066.276.1l.015,0,.139.041.05.013.044.012c.055.014.11.027.167.039l.038.008c.113.024.227.044.342.059l.016,0,.094.012.047.005.048,0,.082.007.03,0,.093.006c.061,0,.12.005.18.006h.1a5.107,5.107,0,0,0,5.01-5.181ZM1076.255,43.2h11.158V38.451h-11.158Zm39.085,0h11.02V38.451h-11.02Zm-402.39-.883h12.967V34.879H712.949Zm339.8-.452h13.282V38h-13.282Zm-19.681,0h13.282V38h-13.282Zm-20.019-.019h13.282V37.98h-13.282ZM354.843,40.722h8.249v-6.29h-8.249Zm-46.862,0h8.249v-6.29h-8.249Zm35.144,0h8.249v-6.29h-8.249Zm-11.714,0h8.249v-6.29h-8.249Zm-11.717,0h8.249v-6.29h-8.249Zm852.613-4.283h-6.479v4.01h6.479ZM331.815,40.318h7.442V34.835h-7.442Zm-11.717,0h7.442V34.835H320.1Zm23.43,0h7.442V34.835h-7.442Zm11.718,0h7.442V34.835h-7.442Zm-46.862,0h7.442V34.835h-7.442Zm-41.5-.042h8.246v-6.29H266.88Zm11.716,0h8.246v-6.29H278.6Zm-35.148,0H251.7v-6.29h-8.249Zm-11.716,0h8.249v-6.29h-8.249Zm23.43,0h8.249v-6.29h-8.249Zm-23.027-.4h7.442V34.389h-7.442Zm23.43,0h7.442V34.389h-7.442Zm11.718,0h7.439V34.389h-7.439Zm-23.432,0h7.442V34.389h-7.442Zm35.148,0h7.439V34.389H279Zm950-.222h18.46v-3.8H1229Zm88.032-.265h1.349V34.059h-52.962v5.327h2.282v-.228h49.331Zm-1113.981-.02h15.886V35.24H203.048Zm170.485-.129h12.358V35.918H373.533Zm331.158,0H709.9V37.627h-5.205Zm-501.24-.274h15.079V35.643H203.452Zm911.887-.992h11.02v-7.23h-11.02Zm-39.085,0h11.158v-7.23h-11.158ZM888.171,22.5H888l-11.8-6.194L867.4,20.921l-.067-.055-11.859,6.222L852.5,28.65h0L835.4,37.629h35.388a5.421,5.421,0,0,1,10.822,0h35.388l-8.149-4.276h0l-11.936-6.265ZM810.193,37.629h18.3v-55.5H813.273a6.092,6.092,0,0,1,3.938,5.666v6.2h-7.034v42.06h.016Zm242.562-.034h13.282V33.722h-13.282Zm-19.681,0h13.282V33.722h-13.282Zm-204.18-8.921v8.918h5.7l16.989-8.918Zm80.822,4.679,8.075,4.238h17.3V33.354Zm103.339,4.223h13.282V33.7h-13.282Zm316.809-.6h11.971V29.453h-11.971Zm17.289,0h11.971V29.453h-11.971Zm17.293,0h11.971V29.453h-11.971Zm.4-.4h11.164V29.857h-11.164Zm-34.583,0h11.163V29.857h-11.163Zm17.289,0h11.164V29.857h-11.164Zm-606.591-.521h68.807V29.623H740.966Zm424.863-.019h6.478V32.028h-6.478Zm-56.335-6.313h-15.01V35.91h15.01ZM1229,35.446h18.46v-3.8H1229Zm-503-9.273h-9.458v7.442h9.445a3.727,3.727,0,0,0,3.718-3.72v0a3.727,3.727,0,0,0-1.815-3.192l-.016-.009a3.7,3.7,0,0,0-1.822-.517Zm542,7.345h4.141V22.488H1268Zm16.518,0H1299.9V22.488h-15.388Zm27.974,0h4.035V22.488h-4.035Zm-12.182,0h11.778V22.488h-11.778Zm-27.764,0h11.569V22.488h-11.569Zm-239.471-.2h13.282V29.445h-13.282Zm19.681,0h13.282V29.445h-13.282Zm-39.7-.019h13.282v-3.87h-13.282Zm-631.779-.106H716.132v-5.1H381.276Zm550.116-10.72c-.219.02-.443.03-.667.03H889.04l8.055,4.227,11.851,6.219h22.447Zm234.437,9.151h6.478v-4.01h-6.478ZM1229,31.244h18.46v-3.8H1229Zm-152.742-.908h11.158V25.583h-11.158Zm39.085,0h11.02V25.583h-11.02Zm-20.854-1.017h5.576V21.443h-5.576Zm6.021,0h8.989V21.443h-8.989Zm-359.055-7.61a3.659,3.659,0,0,0-3.651,3.651v.159a3.661,3.661,0,0,0,3.651,3.651h68.322V21.708Zm311.3,7.333h13.282v-3.87h-13.282Zm-19.681,0h13.282v-3.87h-13.282Zm-20.019-.016h13.282V25.152h-13.282ZM865.729,19.06H828.894v9.211h23.463l2.932-1.54,11.718-6.148A7.468,7.468,0,0,1,865.729,19.06ZM428.615,27.687H557.028v-5.4H428.615Zm183.618-8.992h-.058a4.505,4.505,0,0,0-4.492,4.5v4.5h62.629V23.1a4.475,4.475,0,0,0-1.194-2.958l-.044-.047-.017-.018a4.492,4.492,0,0,0-3.023-1.382v.013h-53.8Zm73.425,8.992V15.326H666.034V18.3a4.877,4.877,0,0,1,2.767,1.015l.062.049a4.9,4.9,0,0,1,1.84,3.465l.005.068,0,.087,0,.078v4.629Zm.4,0h15.285V8.041H686.062Zm41.707-1.508V15.326H701.75V27.687h14.382V25.769h9.924A4.086,4.086,0,0,1,727.769,26.179ZM456.843-103.892H392.56V27.55h35.651V21.879h11.606l.03-.225a44.689,44.689,0,0,1,1.522-7.135l.549-1.7.256-.724A46.518,46.518,0,0,1,448.076.92l-.231.276L442,1.236V-2.619h7.4V-.847a49.864,49.864,0,0,1,7.442-7.607ZM1172.308,23.2h-6.479V27.21h6.479ZM1229,27.038h18.46v-3.8H1229Zm155.543-9.077h-64.423v7.854h64.423ZM400.857,25.184h7.407V21.327h-7.407Zm13.714,0h7.407V21.327h-7.407Zm700.769-.083h11.02v-7.23h-11.02Zm-39.085,0h11.158v-7.23h-11.158ZM401.261,24.78h6.6V21.73h-6.6Zm13.714,0h6.6V21.73h-6.6Zm637.78-.013h13.282V20.894h-13.282Zm-19.681,0h13.282V20.894h-13.282Zm-20.019-.019h13.282V20.875h-13.282Zm-658.212-.055h8.249V20.359h-8.249Zm-11.718,0h8.249V20.359h-8.249Zm-35.144,0h8.249V20.359h-8.249Zm11.714,0h8.249V20.359h-8.249Zm11.717,0h8.249V20.359h-8.249Zm41.718-.106h15.886V20.465H373.13Zm-64.745-.3h7.442V20.763h-7.442Zm11.714,0h7.442V20.763H320.1Zm23.43,0h7.442V20.763h-7.442Zm-11.714,0h7.442V20.763h-7.442Zm23.432,0h7.442V20.763h-7.442Zm-123.514-.042h8.249V19.916h-8.249Zm23.43,0h8.249V19.916h-8.249Zm11.718,0h8.246V19.916H266.88Zm-23.432,0H251.7V19.916h-8.249Zm35.148,0h8.246V19.916H278.6Zm-75.549-.038h15.886V20.085H203.048Zm170.485-.026h15.079V20.869H373.533Zm-129.681-.34h7.442V20.32h-7.442Zm23.432,0h7.439V20.32h-7.439Zm-35.148,0h7.442V20.32h-7.442Zm23.43,0h7.442V20.32h-7.442Zm23.434,0h7.439V20.32H279Zm-75.549-.038h15.079V20.488H203.452ZM1229,22.836h18.46v-3.8H1229Zm-63.167-.037h6.478v-4.01h-6.478Zm-234.248-.752a6.955,6.955,0,0,0-.857-13.856H871.954a6.967,6.967,0,0,0-6,3.444l-.093.167a6.777,6.777,0,0,0-.491,1.1A6.876,6.876,0,0,0,865,15.01v.228a6.9,6.9,0,0,0,1.016,3.514l.073.121a7.07,7.07,0,0,0,1.3,1.509l8.805-4.62,11.975,6.284Zm385.044-.037V17.3H1268.1V22.01Zm-876.4-.131H542.331c-2.977-23.7-24.7-42.079-51.054-42.079a53.573,53.573,0,0,0-34.1,11.993l0,.009a47.486,47.486,0,0,0-15.015,21.566l-.479,1.528-.358,1.293-.261,1.048q-.41,1.746-.682,3.534ZM740.966,21.3h68.807V8.041H740.966Zm368.528-.265v-6.5h-15.01v6.5Zm-56.74-.549h13.282V16.617h-13.282Zm-19.681,0h13.282V16.617h-13.282Zm-20.019-.019h13.282V16.6h-13.282Zm-147.7-8.565H828.894v6.749h36.6a7.3,7.3,0,0,1-.895-3.421V15a7.341,7.341,0,0,1,.754-3.1ZM1229,18.634h18.46v-3.8H1229Zm-63.167-.25h6.478V14.377h-6.478Zm-502.7-6.728a3.366,3.366,0,0,0-.885-.118H616.021a3.393,3.393,0,0,0-3.385,3.386v3.367H665.63V14.924a3.373,3.373,0,0,0-.118-.885A7.374,7.374,0,0,1,663.129,11.656Zm677.153,5.9h26.128v-24.6h-26.128Zm-264.027-.091h11.158V12.715h-11.158Zm39.085,0h11.02V12.715h-11.02ZM414.571,17.2h7.407V13.344h-7.407Zm-13.714,0h7.407V13.344h-7.407Zm27.427,0h7.4V13.344h-7.4Zm-13.31-.4h6.6v-3.05h-6.6Zm-13.714,0h6.6v-3.05h-6.6Zm27.427,0h6.6v-3.05h-6.6Zm836.728-.013h52.963V11.457h-52.963ZM665.983,14.307a3.707,3.707,0,0,1,.051.615h1.585A7.251,7.251,0,0,1,665.983,14.307ZM687.712.957H662.446V7.84a6.827,6.827,0,0,0,.947,3.474,3.815,3.815,0,0,1,2.461,2.461,6.825,6.825,0,0,0,3.474.948h16.33V4.3A3.751,3.751,0,0,1,687.712.957Zm11.983,0A3.749,3.749,0,0,1,701.75,4.3V14.722h24.92a6.9,6.9,0,0,0,6.882-6.883v0A6.9,6.9,0,0,0,726.67.957ZM1229,14.429h18.46v-3.8H1229Zm-128.491-.293h8.989V6.257h-8.989Zm-6.021,0h5.576V6.257h-5.576Zm71.345-.162h6.479V9.963h-6.479ZM663.792,11.914a6.952,6.952,0,0,0,1.463,1.463A3.423,3.423,0,0,0,663.792,11.914Zm451.548.319h11.02V5h-11.02Zm-39.085,0h11.158V5h-11.158ZM1359.172-2.691v14.9h-11.964v-14.9ZM1347.611,11.8h11.164V5.084h-11.164Zm-189.836-.078h7.651V6.132h-7.651Zm-13.489,0h5.926V6.132h-5.926Zm6.329,0h6.756V6.132h-6.756Zm-11.969,0h5.236V6.132h-5.236ZM828.894,11.5h32.4V2.548h-32.4ZM662.446,10.226v.914a3.782,3.782,0,0,1,.416.045A7.3,7.3,0,0,1,662.446,10.226Zm-46.095.909h45.691V2.454H616.351ZM1267.7-5.416h-2.686v-6.131h53.77v6.131h-1.752V10.749H1267.7Zm4.946,15.762h11.572V-.681h-11.572Zm11.976,0h15.388V-.681H1284.62Zm15.79,0h11.775V-.681H1300.41Zm-32.308,0h4.138V-.681H1268.1Zm44.488,0h4.035V-.681h-4.035Zm-287.156-.028h27.151V1.1h-27.151ZM1229,10.227h18.46v-3.8H1229ZM266.88,10.135h8.249V3.844H266.88Zm-11.718,0h8.249V3.844h-8.249Zm-23.428,0h8.249V3.844h-8.249Zm11.714,0H251.7V3.844h-8.249Zm35.148,0h8.249V3.844H278.6Zm41.1-.1h8.249V3.741h-8.249Zm11.717,0h8.249V3.741h-8.249Zm11.714,0h8.249V3.741h-8.249Zm11.718,0h8.249V3.741h-8.249Zm-46.862,0h8.249V3.741h-8.249Zm-52.415-.3h7.442V4.248h-7.442Zm-23.428,0h7.442V4.248h-7.442Zm11.714,0h7.442V4.248h-7.442Zm35.148,0h7.442V4.248H279Zm-11.717,0h7.442V4.248h-7.442Zm52.814-.1h7.442V4.145H320.1Zm-11.714,0h7.442V4.145h-7.442Zm46.862,0h7.442V4.145h-7.442Zm-23.432,0h7.442V4.145h-7.442Zm11.714,0h7.442V4.145h-7.442Zm822.3-.069h6.479V5.552h-6.479ZM428.284,9.218h7.4V5.364h-7.4Zm-13.714,0h7.407V5.364h-7.407Zm-13.714,0h7.407V5.364h-7.407ZM203.048,9.052h15.886V4.93H203.048Zm211.926-.238h6.6V5.767h-6.6Zm13.714,0h6.6V5.767h-6.6Zm-27.427,0h6.6V5.767h-6.6ZM203.452,8.648h15.079V5.334H203.452ZM373.13,8.475h15.886V4.353H373.13Zm.4-.4h15.079V4.757H373.533Zm502.629-.284h20.6V1.016h-20.6Zm-.4-6.771h-2.144a3.386,3.386,0,1,0,0,6.771h2.144Zm21.4,0V7.787h32.862a3.386,3.386,0,1,0,0-6.771ZM809.773-6.006h-69a6.841,6.841,0,0,0-6.82,6.82v0a6.841,6.841,0,0,0,6.82,6.82h69ZM701.346,7.638V4.3A3.346,3.346,0,0,0,698.007.957H689.4A3.345,3.345,0,0,0,686.062,4.3V7.638ZM1229,6.022h18.46v-3.8H1229ZM1094.485-.154V5.853h15.01V-.154Zm49.8,5.882h5.926V.364h-5.926Zm6.329,0h6.756V.364h-6.756Zm7.16,0h7.651V.364h-7.651Zm-19.129,0h5.236V.364h-5.236Zm27.184-.58h6.478V1.138h-6.478ZM1076.255,4.6h11.158V-.154h-11.158Zm39.085,0h11.02V-.154h-11.02Zm232.272-.168h11.164V-2.287h-11.164ZM620.959-12.516v6.592h-2.278v-6.592h-2.33V2.051h45.691V-12.516h-3.23v6.592h-2.278v-6.592h-3.16v6.592H651.1v-6.592H648.1v6.592h-2.278v-6.592h-3.2v6.592h-2.282v-6.592h-3.155v6.592h-2.28v-6.592h-3.159v6.592h-2.278v-6.592h-2.993v6.592H624.2v-6.592ZM1229,1.82h18.46v-3.8H1229Zm-828.14-.585h7.407V-2.619h-7.407Zm13.714,0h7.407V-2.619h-7.407Zm13.714,0h7.4V-2.619h-7.4Zm-27.024-.4h6.6V-2.216h-6.6Zm13.714,0h6.6V-2.216h-6.6Zm13.714,0h6.6V-2.216h-6.6ZM442.4-2.216V.829l5.253-.035L449-.806V-2.216ZM1165.829.734h6.478V-3.273h-6.478ZM876.162.612h20.6v-9.9h-20.6Zm21,0H927.45v-9.9H897.163ZM729.7.553v-4.2a4.2,4.2,0,0,0-4.189-4.191H662.446V.553ZM1138.646-.04h5.236V-3.08h-5.236Zm5.64,0h5.926V-3.08h-5.926Zm6.329,0h6.756V-3.08h-6.756Zm7.16,0h7.651V-3.08h-7.651Zm-298.426-11.8H828.894v11.3h.826V-7.676h4.4V-.539h1.7V-7.676h4.394V-.539h1.7V-7.676h4.447V-.539h1.7V-7.676h4.21V-.539h1.7V-7.676h4.4V-.539h.993ZM1094.485-.557h5.576V-8.433h-5.576Zm6.021,0h8.989V-8.433h-8.989Zm-24.251-.078h11.158V-7.868h-11.158Zm39.085,0h11.02V-7.868h-11.02Zm152.763-.53h48.524V-5.416H1268.1ZM1229-2.385h18.46v-3.8H1229Zm-56.285-1.1h33.728V-10.1h-33.728Zm-41.017,0h33.731V-10.1h-33.731ZM1317.029-5.82h1.349v-5.324h-52.962V-5.82h2.282v-.449h49.331Zm-48.928,0h48.523v-.045H1268.1ZM278.6-5.894h8.249v-4.331H278.6Zm-11.716,0h8.249v-4.331H266.88Zm-23.432,0H251.7v-4.331h-8.249Zm-11.714,0h8.249v-4.331h-8.249Zm23.428,0h8.249v-4.331h-8.249ZM331.411-6h8.249v-4.331h-8.249Zm-23.43,0h8.249v-4.331h-8.249Zm46.862,0h8.249v-4.331h-8.249ZM319.695-6h8.249v-4.331h-8.249Zm23.43,0h8.249v-4.331h-8.249Zm30-.1h15.886v-4.125H373.13Zm-170.082,0h15.886v-4.125H203.048ZM279-6.3h7.442V-9.821H279Zm-23.434,0h7.442V-9.821h-7.442Zm-23.428,0h7.442V-9.821h-7.442Zm35.145,0h7.442V-9.821h-7.442Zm-23.432,0h7.442V-9.821h-7.442ZM621.844-12.92h2.762v6.592h1.471V-12.92h3.8v6.592h1.471V-12.92h3.966v6.592h1.472V-12.92h3.962v6.592h1.475V-12.92h4.006v6.592H647.7V-12.92h3.8v6.592h1.471V-12.92h3.967v6.592h.841V-16.737H621.844ZM331.815-6.4h7.442V-9.927h-7.442Zm23.432,0h7.442V-9.927h-7.442Zm-11.718,0h7.442V-9.927h-7.442Zm-35.144,0h7.442V-9.927h-7.442Zm11.714,0h7.442V-9.927H320.1ZM740.846-17.87H740.5a5.746,5.746,0,0,0-5.729,5.729v0A5.748,5.748,0,0,0,740.5-6.41h69.271v-.128h7.034v-5.6a5.746,5.746,0,0,0-5.717-5.728v.025H740.846ZM203.452-6.506h15.079V-9.824H203.452Zm170.082,0h15.079V-9.824H373.533ZM1229-6.588h18.46v-3.8H1229ZM414.571-6.745h7.407V-10.6h-7.407Zm27.427,0h7.4V-10.6H442Zm-41.141,0h7.407V-10.6h-7.407Zm27.427,0h7.4V-10.6h-7.4Zm.4-.4h6.6V-10.2h-6.6Zm-13.714,0h6.6V-10.2h-6.6Zm-13.714,0h6.6V-10.2h-6.6Zm41.141,0H449V-10.2h-6.6Zm890.758-.293h40.07V-14.16h-40.07Zm-670.714-.8h61.479v-5.081H662.446Zm413.809-.034h11.158v-4.75h-11.158Zm39.085,0h11.02v-4.75h-11.02Zm-20.854-.565h15.01v-4.185h-15.01ZM876.162-9.688H927.45v-6.849H876.162ZM1229-10.79h18.46v-3.8H1229Zm38.7-68.566V-99.223h56.967v8.764h-7.636v11.1h1.752v6.131h-1.752v16.47h1.752v6.131h-1.752v16.473h1.752v6.131h-1.752v16.34H1267.7v-16.34h-2.686v-6.131h2.686V-50.622h-2.686v-6.131h2.686v-16.47h-2.686v-6.131Zm.4,67.274h4.138V-23.089H1268.1Zm32.308,0h11.775V-23.089H1300.41Zm-27.766,0h11.572V-23.089h-11.572Zm39.946,0h4.035V-23.089h-4.035Zm-27.97,0h15.388V-23.089H1284.62ZM828.894-12.24h30.377V-26.789h-3.523v6.582h-2.572v-6.582h-3.767v6.582h-2.573v-6.582h-3.713v6.582h-2.576v-6.582h-3.713v6.582h-2.576v-6.582h-3.436v8.772h-1.929Zm245.641-1.32h54.719v-7.919h-54.719ZM666.884-22.714h-.054a4.511,4.511,0,0,0-4.5,4.5v4.493h62.631v-4.493a4.511,4.511,0,0,0-4.276-4.494v.013h-53.8Zm698.8,8.15v-9.06a9.087,9.087,0,0,0-9.057-9.063h-6.568a9.086,9.086,0,0,0-9.054,9.063v9.06ZM442-14.728h7.4v-3.857H442Zm-13.714,0h7.4v-3.857h-7.4Zm-13.714,0h7.407v-3.857h-7.407Zm-13.714,0h7.407v-3.857h-7.407ZM1229-14.995h18.46v-3.8H1229Zm-786.6-.137H449v-3.05h-6.6Zm-13.714,0h6.6v-3.05h-6.6Zm-27.427,0h6.6v-3.05h-6.6Zm13.714,0h6.6v-3.05h-6.6ZM887.52-25.606h-2.507v-7.134h-3.686v7.134h-2.5v-7.134h-2.662v15.8h51.277v-15.8h-3.673v7.134H921.26v-7.134H917.67v7.134h-2.506v-7.134h-3.4v7.134h-2.506v-7.134H905.62v7.134h-2.507v-7.134h-3.585v7.134H897.02v-7.134h-3.589v7.134h-2.506v-7.134h-3.4ZM629.957-30.554H626.6v6.083h-2.338v-6.083h-2.417v13.413H657.71V-30.554h-3.1v6.083h-2.338v-6.083h-3.315v6.083h-2.338v-6.083h-3.272v6.083h-2.34v-6.083H637.74v6.083H635.4v-6.083h-3.1v6.083h-2.339Zm176.4,3.647H745.581a4.339,4.339,0,0,0-4.331,4.328v4.306h69.436v-4.306A4.34,4.34,0,0,0,806.36-26.907Zm24.059,0H808.265a4.783,4.783,0,0,1,2.342,2.249l.019.038.02.045.019.039.018.039.015.032.02.047.03.072.031.078.03.078.024.071.028.081.023.072.024.082.023.082.019.074.013.052.016.072.016.076.011.053.015.076.012.076.008.053.011.077.007.054.008.075,0,.044,0,.045,0,.045,0,.045,0,.076,0,.045v4.341h19.328Zm4.243,6.3h1.768v-6.356h-1.768Zm6.289,0h1.767v-6.356h-1.767Zm6.289,0H849v-6.356H847.24Zm-515.828-.052h8.249v-6.29h-8.249Zm-23.43,0h8.249v-6.29h-8.249Zm11.714,0h8.249v-6.29h-8.249Zm35.148,0h8.249v-6.29h-8.249Zm-11.718,0h8.249v-6.29h-8.249Zm-111.39-.306h8.249v-6.29h-8.249Zm23.428,0h8.249v-6.29h-8.249Zm11.718,0h8.249v-6.29H266.88Zm-23.432,0H251.7v-6.29h-8.249Zm35.148,0h8.249v-6.29H278.6Zm53.218-.1h7.442v-5.483h-7.442Zm23.432,0h7.442v-5.483h-7.442Zm-46.862,0h7.442v-5.483h-7.442Zm35.144,0h7.442v-5.483h-7.442Zm-23.43,0h7.442v-5.483H320.1Zm-87.96-.306h7.442v-5.483h-7.442Zm46.862,0h7.442v-5.483H279Zm-35.148,0h7.442v-5.483h-7.442Zm23.432,0h7.442v-5.483h-7.442Zm-11.718,0h7.442v-5.483h-7.442Zm827.529-.512h37.421V-31.1H1083.1Zm-654.811-.828h7.4v-3.854h-7.4Zm-13.714,0h7.407v-3.854h-7.407Zm-13.714,0h7.407v-3.854h-7.407Zm41.141,0h7.4v-3.854H442Zm-40.737-.4h6.6v-3.046h-6.6Zm13.714,0h6.6v-3.046h-6.6Zm27.427,0H449v-3.046h-6.6Zm-13.714,0h6.6v-3.046h-6.6Zm291.6,0v-3.367a3.4,3.4,0,0,0-3.386-3.386H670.674a3.394,3.394,0,0,0-3.386,3.386v3.367Zm596.34-.471v-4.428H1268.1v4.428Zm-78.849-19.416a9.424,9.424,0,0,0-9.426,9.423,9.427,9.427,0,0,0,9.426,9.43,9.427,9.427,0,0,0,9.426-9.43A9.424,9.424,0,0,0,1237.777-43.005Zm0,.4a9.02,9.02,0,0,1,9.022,9.019,9.023,9.023,0,0,1-9.022,9.026,9.024,9.024,0,0,1-9.022-9.026A9.02,9.02,0,0,1,1237.777-42.6ZM647.023-24.874h1.53v-5.679h-1.53Zm-5.612,0h1.534v-5.679h-1.534Zm-11.05,0h1.53v-5.679h-1.53Zm5.441,0h1.534v-5.679H635.8ZM922.655-26.01v-11.3H882.323v4.163h3.094v7.134h1.7v-7.134h4.212v7.134h1.7v-7.134h4.4v7.134h1.7v-7.134h4.393v7.134h1.7v-7.134h4.444v7.134h1.7v-7.134h4.21v7.134h1.7v-7.134h4.4v7.134ZM807.642-38.371h-61.53v11.061h61.53ZM815-27.311h8.955v-8.8H815Zm17.369-19.315h-1.9V-37.9l-.061.059a13.58,13.58,0,0,0-4,9.751c0,.241.008.483.02.721h23.838c.012-.238.017-.481.017-.721a13.493,13.493,0,0,0-4.562-10.263l-.07-.06v-8.21h-1.378v.174h-11.9Zm484.665,18.2h1.349v-5.324h-52.962v5.324h2.282v-.259h49.331ZM671.006-30.274H716.7v-8.681H671.006ZM442-30.694h7.4v-3.854H442Zm-13.714,0h7.4v-3.854h-7.4Zm-27.427,0h7.407v-3.854h-7.407Zm13.714,0h7.407v-3.854h-7.407ZM645.556-48.722h-13.5v8.051l-.059.059a12.763,12.763,0,0,0-3.566,9c0,.219.005.437.015.653h21.221c.012-.216.017-.434.017-.653a12.665,12.665,0,0,0-4.063-9.473l-.067-.061ZM401.261-31.1h6.6v-3.046h-6.6Zm27.427,0h6.6v-3.046h-6.6Zm13.714,0H449v-3.046h-6.6Zm-27.427,0h6.6v-3.046h-6.6ZM1312.59-34.5h4.035v-11.1h-4.035Zm-27.97,0h15.388v-11.1H1284.62Zm-16.518,0h4.138v-11.1H1268.1Zm32.308,0h11.775v-11.1H1300.41Zm-27.766,0h11.572v-11.1h-11.572ZM815-36.514h8.955v-3.864H815ZM354.843-36.69h8.249v-4.331h-8.249Zm-23.432,0h8.249v-4.331h-8.249Zm-23.43,0h8.249v-4.331h-8.249Zm35.144,0h8.249v-4.331h-8.249Zm-23.43,0h8.249v-4.331h-8.249ZM243.449-37H251.7V-41.33h-8.249Zm11.714,0h8.249V-41.33h-8.249ZM278.6-37h8.249V-41.33H278.6ZM266.88-37h8.249V-41.33H266.88Zm-35.145,0h8.249V-41.33h-8.249Zm100.08-.1h7.442v-3.524h-7.442Zm11.714,0h7.442v-3.524h-7.442Zm-35.144,0h7.442v-3.524h-7.442Zm11.714,0h7.442v-3.524H320.1Zm35.148,0h7.442v-3.524h-7.442ZM243.853-37.4h7.442v-3.527h-7.442Zm23.432,0h7.442v-3.527h-7.442Zm-35.145,0h7.442v-3.527h-7.442ZM279-37.4h7.442v-3.527H279Zm-23.434,0h7.442v-3.527h-7.442ZM885.079-52.26h-2.756v14.549H922.58V-52.26h-3.525v6.586h-2.572V-52.26h-3.767v6.586h-2.572V-52.26H906.43v6.586h-2.575V-52.26h-3.714v6.586h-2.574V-52.26h-3.527v6.586h-2.574V-52.26h-3.814v6.586h-2.572ZM414.571-38.674h7.407v-3.857h-7.407Zm-13.714,0h7.407v-3.857h-7.407Zm41.141,0h7.4v-3.857H442Zm-13.714,0h7.4v-3.857h-7.4Zm323.853-18.6v8.32h-2.856v-8.32h-3.169v18.5h59.882v-18.5h-4.354v8.32h-.824v0h-2.032v-8.324h-4.254v8.324h-2.856v-8.324h-4.035v8.324h-2.856v-8.324h-4.311v8.324h-2.856v-8.324h-4.253v8.324H770.51v-8.324h-4.254v8.324H763.4v-8.324h-4.042v8.324H756.5v-8.324ZM442.4-39.078H449v-3.05h-6.6Zm-27.427,0h6.6v-3.05h-6.6Zm-13.714,0h6.6v-3.05h-6.6Zm27.427,0h6.6v-3.05h-6.6Zm250.166-8.257v-6.592H675.61v6.592h-2.278v-6.592h-2.326v14.568H716.7V-53.926h-3.234v6.592h-2.278v-6.592h-3.156v6.592h-2.278v-6.592h-2.993v6.592h-2.276v-6.592h-3.2v6.592H695v-6.592h-3.156v6.592h-2.278v-6.592h-3.159v6.592h-2.278v-6.592h-2.994v6.592ZM815-40.781h8.955V-44.3H815Zm0-3.924h8.955v-4.017H815Zm-572.458-.433h31.369v-7.573H242.538Zm.4-.4H273.5v-6.765H242.941Zm1025.16-.524h48.523v-4.556H1268.1Zm-363.842-.012h1.767v-6.182h-1.767Zm6.289,0h1.764v-6.182h-1.764Zm-18.68,0h1.768v-6.182h-1.768Zm6.1,0h1.768v-6.182h-1.768ZM442-46.658h7.4v-3.857H442Zm-13.714,0h7.4v-3.857h-7.4Zm-27.427,0h7.407v-3.857h-7.407Zm13.714,0h7.407v-3.857h-7.407Zm418.2-.371H843.86v-10.2H832.768Zm-431.507-.032h6.6v-3.05h-6.6Zm27.427,0h6.6v-3.05h-6.6Zm13.714,0H449v-3.05h-6.6Zm-27.427,0h6.6v-3.05h-6.6Zm297.456-.677V-58.147H676.5v3.817h2.76v6.592h1.474V-54.33h3.8v6.592H686V-54.33h3.966v6.592h1.471V-54.33H695.4v6.592h1.471V-54.33h4.01v6.592h1.468V-54.33h3.8v6.592h1.471V-54.33h3.963v6.592Zm508.519-.923h6.2V-58.58h-6.2Zm28.385,0h6.2V-58.58h-6.2Zm-615.22-.464h9.85v-9.56h-9.85Zm166.3-.231V-62.6h-47.12v4.924h3.613v8.32h2.048v-8.32H763.8v8.32h2.048v-8.32h5.062v8.32h2.048v-8.32h5.06v8.32h2.048v-8.32h5.118v8.32h2.048v-8.32h4.842v8.32h2.048v-8.32h5.061v8.32Zm516.615-1.669h1.349V-56.35h-52.962v5.324h2.282v-.227h49.331ZM217.137-68l-8.511,7.671,7.672,8.509,8.508-7.67Zm-7.94,7.7,7.131,7.912,7.908-7.13-7.129-7.911Zm699.757-11.62H893.772V-63.2l-.061.059a13.587,13.587,0,0,0-4,9.752c0,.244.005.484.018.724h23.838c.011-.24.017-.48.017-.724a13.5,13.5,0,0,0-4.56-10.26l-.07-.061ZM428.284-54.64h7.4V-58.5h-7.4Zm-13.714,0h7.407V-58.5h-7.407Zm-13.714,0h7.407V-58.5h-7.407Zm41.141,0h7.4V-58.5H442Zm-27.024-.4h6.6v-3.05h-6.6Zm13.714,0h6.6v-3.05h-6.6Zm13.714,0H449v-3.05h-6.6Zm-41.141,0h6.6v-3.05h-6.6Zm871.383-1.888h11.572v-11.1h-11.572Zm-4.542,0h4.138v-11.1H1268.1Zm32.308,0h11.775v-11.1H1300.41Zm-15.79,0h15.388v-11.1H1284.62Zm27.97,0h4.035v-11.1h-4.035Zm-477.313-.705h6.076v-9.61h-6.076ZM712.364-58.55V-71.96h-3.1v6.083h-2.34V-71.96h-3.316v6.083h-2.338V-71.96H698v6.083h-2.338V-71.96h-3.272v6.083h-2.338V-71.96h-3.1v6.083h-2.34V-71.96h-3.359v6.083h-2.338V-71.96H676.5v13.41Zm-76.013-.54h5.377v-8.849h-5.377ZM428.284-62.623h7.4v-3.854h-7.4Zm-27.427,0h7.407v-3.854h-7.407Zm41.141,0h7.4v-3.854H442Zm-27.427,0h7.407v-3.854h-7.407Zm342.011-17.42h-3.288v17.038h47.033V-80.043h-4.179v7.68h-2.934v-7.68h-4.46v7.68H785.82v-7.68h-4.4v7.68h-2.934v-7.68h-4.4v7.68h-2.937v-7.68h-4.18v7.68H764.03v-7.68h-4.515v7.68h-2.934ZM401.261-63.027h6.6v-3.046h-6.6Zm27.427,0h6.6v-3.046h-6.6Zm13.714,0H449v-3.046h-6.6Zm-27.427,0h6.6v-3.046h-6.6ZM23.992-80.774,15.481-73.1l7.67,8.509,8.511-7.67Zm-7.94,7.7,7.129,7.911,7.911-7.13L23.962-80.2Zm680.015,6.792h1.53V-71.96h-1.53Zm-11.053,0h1.534V-71.96h-1.534Zm5.444,0h1.53V-71.96h-1.53Zm11.217,0h1.53V-71.96h-1.53Zm419.807-14.6-7.34,6.616,6.615,7.34,7.341-6.615Zm-6.771,6.646,6.075,6.741,6.741-6.075-6.075-6.741Zm-277.2,6.59h1.6v-2.391h-1.6Zm-199.165-.693h1.384v-2.176h-1.384Zm629.754-.1h48.524v-4.784H1268.1ZM1055.826-82.2a9.939,9.939,0,0,1,9.643-7.542,9.936,9.936,0,0,1,9.937,9.937,10,10,0,0,1-.075,1.227,9.92,9.92,0,0,1,4.788,8.095l.009.21h-35.772l-.048-.135a9.194,9.194,0,0,1-.52-3.052,9.19,9.19,0,0,1,9.192-9.192A9.135,9.135,0,0,1,1055.826-82.2ZM428.284-70.6h7.4V-74.46h-7.4ZM442-70.6h7.4V-74.46H442Zm-41.141,0h7.407V-74.46h-7.407Zm13.714,0h7.407V-74.46h-7.407Zm665.135-.07a9.529,9.529,0,0,0-4.694-7.623l-.116-.067.017-.133A9.707,9.707,0,0,0,1075-79.8a9.533,9.533,0,0,0-9.534-9.534,9.532,9.532,0,0,0-9.3,7.444l-.05.222-.214-.075a8.775,8.775,0,0,0-2.926-.5,8.787,8.787,0,0,0-8.788,8.788,8.8,8.8,0,0,0,.451,2.783Zm-664.731-.334h6.6v-3.05h-6.6Zm-13.714,0h6.6v-3.05h-6.6Zm27.427,0h6.6v-3.05h-6.6Zm13.714,0H449v-3.05h-6.6Zm453.675-1.319h11.092V-82.7H896.077Zm-195.87-17.8h-13.5v8.053l-.059.059a12.772,12.772,0,0,0-3.562,9c0,.218,0,.437.013.655h21.22c.009-.218.015-.437.015-.655a12.669,12.669,0,0,0-4.063-9.474l-.067-.059Zm64.227,17.365h2.129v-7.277h-2.129Zm7.117,0h2.129v-7.277h-2.129Zm14.673,0h2.126v-7.277h-2.126Zm-7.337,0h2.126v-7.277h-2.126Zm539.491-6.185h-52.962v5.324h52.962Zm-951.6-15.427L358.265-86.7l7.671,8.511,8.509-7.674ZM442-78.585h7.4v-3.857H442Zm-13.714,0h7.4v-3.857h-7.4Zm-13.714,0h7.407v-3.857h-7.407Zm-13.714,0h7.407v-3.857h-7.407Zm-42.021-8.09,7.13,7.911,7.911-7.133-7.13-7.911Zm56.138,7.686h6.6v-3.05h-6.6Zm27.427,0H449v-3.05h-6.6Zm-41.141,0h6.6v-3.05h-6.6Zm27.427,0h6.6v-3.05h-6.6Zm871.722-.366h11.775v-11.1H1300.41Zm12.18,0h4.035v-11.1h-4.035Zm-44.488,0h4.138v-11.1H1268.1Zm4.542,0h11.572v-11.1h-11.572Zm11.976,0h15.388v-11.1H1284.62ZM789.809-80.447c.015-.291.023-.584.023-.877a15.792,15.792,0,0,0-5.332-12l-.07-.061v-9.6H766.652v10.2l-.061.059a15.869,15.869,0,0,0-4.678,11.4c0,.293.007.587.023.877Zm108.776-2.661h6.076v-9.61h-6.076ZM414.571-86.569h7.407v-3.857h-7.407Zm-13.714,0h7.407v-3.857h-7.407Zm27.427,0h7.4v-3.857h-7.4Zm13.714,0h7.4v-3.857H442Zm.4-.4H449v-3.05h-6.6Zm-27.427,0h6.6v-3.05h-6.6Zm-13.714,0h6.6v-3.05h-6.6Zm27.427,0h6.6v-3.05h-6.6Zm-284.5-.821h18.451V-94.48H144.188Zm544.577-2.741h9.85v-9.557h-9.85Zm579.336-.328h56.16v-7.956H1268.1ZM900.822-93.121h1.6v-2.391h-1.6ZM414.571-94.552h7.407v-3.854h-7.407Zm-13.714,0h7.407v-3.854h-7.407Zm41.141,0h7.4v-3.854H442Zm-13.714,0h7.4v-3.854h-7.4Zm-263.34-.332v-7.232H141.883v7.232Zm236.316-.071h6.6V-98h-6.6Zm13.714,0h6.6V-98h-6.6Zm27.427,0H449V-98h-6.6Zm-13.714,0h6.6V-98h-6.6ZM696.38-109.347H691v8.851h5.378Zm685.28-6.724a12.761,12.761,0,0,1,12.381-9.731,12.745,12.745,0,0,1,12.745,12.746,12.716,12.716,0,0,1-.094,1.61,12.71,12.71,0,0,1,6.164,10.4l.013.21h-45.986l-.04-.135a11.781,11.781,0,0,1-.673-3.914,11.786,11.786,0,0,1,11.789-11.784A11.743,11.743,0,0,1,1381.66-116.071Zm30.792,14.832a12.327,12.327,0,0,0-6.083-9.928l-.121-.067.027-.133a13.986,13.986,0,0,0,.108-1.689,12.337,12.337,0,0,0-12.341-12.342,12.342,12.342,0,0,0-12.031,9.635l-.054.222-.215-.075a11.327,11.327,0,0,0-3.782-.646,11.386,11.386,0,0,0-11.385,11.38,11.269,11.269,0,0,0,.606,3.644ZM144.567-102.52h17.7v-5.789h-17.7Zm624.774-.864h13.007v-12.174H769.341ZM420.919-159.856c-1.478,1.04-2.935,2.106-4.337,3.233-6.582,5.289-11.974,11.949-12.742,24-.26,4.1-.027,26,0,28.326h53.005l-.1-37.5-14.836-18.04ZM150.555-108.714h5.72v-8.471h-5.72Zm277.254-.672h3.473v-3.358h-3.473Zm-10.665,0h3.473v-3.358h-3.473Zm23.122,0h3.473v-3.358h-3.473Zm-367.316-9.5a7.618,7.618,0,0,1,7.379-5.728A7.615,7.615,0,0,1,87.943-117a7.574,7.574,0,0,1-.053.911,7.605,7.605,0,0,1,3.644,6.187l.009.21H64.214l-.047-.135a7.056,7.056,0,0,1-.4-2.342,7.048,7.048,0,0,1,7.049-7.047A7.059,7.059,0,0,1,72.95-118.882ZM693-109.751h1.384v-2.176H693Zm-264.786-.038h2.666v-2.551h-2.666Zm12.457,0h2.666v-2.551H440.67Zm-23.122,0h2.666v-2.551h-2.666Zm-326.429-.3A7.2,7.2,0,0,0,87.57-115.8l-.117-.069.019-.135a7.082,7.082,0,0,0,.067-.988,7.211,7.211,0,0,0-7.21-7.211,7.214,7.214,0,0,0-7.037,5.629l-.05.221-.214-.075a6.669,6.669,0,0,0-2.21-.375,6.645,6.645,0,0,0-6.646,6.643,6.649,6.649,0,0,0,.33,2.073Zm453.4-21.553a15.034,15.034,0,0,1,14.613-11.515,15.029,15.029,0,0,1,15.028,15.03,15.392,15.392,0,0,1-.121,1.924,15.024,15.024,0,0,1,7.3,12.279l.009.21h-54.31L527-113.85a13.884,13.884,0,0,1-.786-4.615,13.9,13.9,0,0,1,13.9-13.894A13.894,13.894,0,0,1,544.518-131.645ZM580.93-114.12a14.623,14.623,0,0,0-7.212-11.805l-.116-.069.019-.133a14.9,14.9,0,0,0,.135-2,14.625,14.625,0,0,0-14.625-14.626,14.628,14.628,0,0,0-14.269,11.419l-.048.222-.215-.075a13.483,13.483,0,0,0-4.491-.766,13.493,13.493,0,0,0-13.493,13.49,13.509,13.509,0,0,0,.716,4.346Zm-163.786-.891h3.473v-3.355h-3.473Zm23.122,0h3.473v-3.355h-3.473Zm-12.457,0h3.473v-3.355h-3.473Zm-10.262-.4h2.666v-2.547h-2.666Zm10.665,0h2.666v-2.547h-2.666Zm12.457,0h2.666v-2.547H440.67Zm331.6-.549h7.155v-11.279h-7.155Zm-619.715-1.624h1.727v-4.388h-1.727Zm287.713-2.947h3.473v-3.358h-3.473Zm-12.457,0h3.473v-3.358h-3.473Zm-10.665,0h3.473v-3.358h-3.473Zm11.069-.4h2.666v-2.551h-2.666Zm12.457,0h2.666v-2.551H440.67Zm-23.122,0h2.666v-2.551h-2.666Zm-.4-5.218h3.473v-3.358h-3.473Zm10.665,0h3.473v-3.358h-3.473Zm12.457,0h3.473v-3.358h-3.473Zm-22.718-.4h2.666v-2.551h-2.666Zm10.665,0h2.666v-2.551h-2.666Zm12.457,0h2.666v-2.551H440.67Zm334.209-1.086h1.933V-130.5h-1.933Zm-334.613-4.037h3.473v-3.355h-3.473Zm-12.457,0h3.473v-3.355h-3.473Zm-10.665,0h3.473v-3.355h-3.473Zm.4-.4h2.666v-2.547h-2.666Zm23.122,0h2.666v-2.547H440.67Zm-12.457,0h2.666v-2.547h-2.666ZM223.094-153.261c.816-1.094,8.316-10.71,18.818-9.722,4.744.447,10.107,3.052,15.739,9.6,1.445-.3,15.423-2.88,19,10.5a21.163,21.163,0,0,1,7.664,2.048,10.857,10.857,0,0,1,5.862,6.689l.073.258-49.987-.235-55.811.238.047-.241a10.178,10.178,0,0,1,4.4-6.109c2.4-1.517,6.063-2.412,11.622-1.171a17.34,17.34,0,0,1,6.433-8.885C210.38-152.72,215.509-154.4,223.094-153.261Zm66.617,18.966a10.514,10.514,0,0,0-5.578-6.181,20.7,20.7,0,0,0-7.645-2.012l-.188-.151c-3.615-13.913-18.676-10.324-18.676-10.324l-.2-.065c-5.569-6.51-10.862-9.112-15.549-9.554-10.924-1.028-18.526,9.655-18.526,9.655l-.2.082c-7.511-1.159-12.585.484-15.967,2.883a16.794,16.794,0,0,0-6.327,8.842l-.242.149c-5.518-1.27-9.142-.417-11.505,1.075a9.842,9.842,0,0,0-4.159,5.6l55.309-.236Zm138.1-3.011h3.473v-3.358h-3.473Zm12.457,0h3.473v-3.358h-3.473Zm-23.122,0h3.473v-3.358h-3.473Zm.4-.4h2.666v-2.551h-2.666Zm10.665,0h2.666v-2.551h-2.666Zm12.457,0h2.666v-2.551H440.67Zm11.743-37.513h0l-8.621,8.713v0l-1.7,1.72-14.308.149-.023.016c-1.76,1.273-3.564,2.5-5.351,3.733l-.91.634,20.6.019,14.645,17.8-.1-37.066Zm-35.269,32.391h3.473v-3.358h-3.473Zm23.122,0h3.473v-3.358h-3.473Zm-12.457,0h3.473v-3.358h-3.473Zm.4-.4h2.666v-2.551h-2.666Zm12.457,0h2.666v-2.551H440.67Zm-23.122,0h2.666v-2.551h-2.666Zm327.274-15.672-7.341,6.616,6.616,7.341,7.341-6.616Zm-6.771,6.646,6.075,6.741,6.741-6.075-6.075-6.741ZM1004.64-175.89c.624.005,1.044.011,1.241.016,4.225.118,7.331,1.331,7.331,5.331v.143l-19.561,6.966h-.007A174.208,174.208,0,0,1,971.526-159c-4.385.5-8.443.606-11.093-.1a37.252,37.252,0,0,0-7.588-.863l25.259,10.69v.373l-3.978,1.638-.078.015c-14.4-.116-61.02-18.5-61.02-18.5l17.483,6.592q-1.966.157-3.932.336l-1.311.124-.428.043-.186.019-.074.007-15.329.116-.048,0-.1,0-.351.012c-.311.011-.62.02-.931.027q-1.512.034-3.025.028-2.988-.008-5.974-.17-1.462-.081-2.919-.2c-.91-.079-1.819-.171-2.727-.281q-1.193-.145-2.382-.335-1.118-.18-2.226-.408c-.682-.141-1.361-.3-2.034-.478-.62-.164-1.237-.347-1.845-.553-.423-.144-.843-.3-1.254-.467q-2.574-1.056-5.148-2.109c-.039-.016-.094-.005-.117-.039s-.005-.092-.008-.137c0-.009,0-.019,0-.028q-.012-.226-.016-.452a8.533,8.533,0,0,1,.167-1.868,5.911,5.911,0,0,1,.5-1.455,4.93,4.93,0,0,1,.572-.883,4.835,4.835,0,0,1,.482-.514c.108-.1.221-.2.338-.287.085-.066.171-.131.26-.191a7.172,7.172,0,0,1,2.082-.945c.126-.035.253-.069.381-.1q.258-.063.521-.113c.237-.047.476-.086.715-.118a18.547,18.547,0,0,1,1.891-.157c.2-.007.4-.012.6-.015h.221a.087.087,0,0,0,.032,0c.005,0,.007-.011.009-.015l.012-.018c.023-.035.048-.071.073-.106.085-.122.174-.242.265-.361a11.183,11.183,0,0,1,1.048-1.167,11.362,11.362,0,0,1,2.028-1.572,10.48,10.48,0,0,1,1.674-.82,10.256,10.256,0,0,1,1.26-.389,10.167,10.167,0,0,1,1.2-.213c.11-.013.221-.022.33-.03l.453-.026c.385-.019.771-.032,1.156-.044.982-.032,1.964-.052,2.946-.073q2.477-.046,4.954-.075,3.026-.038,6.053-.063h.223c1.327-.638,35.863-17.166,50.338-18.085l.139.359L938.834-175.87h.49q17.163-.055,34.325-.061h.048a25.225,25.225,0,0,0,11.824-3.95c3.733-2.435,6.562-5.694,9.567-8.446,3.046-2.79,6.271-5.059,10.764-5.473l5.576-.086Zm-66.734,10.044-23.745.11c2.358.918,8.719,3.366,16.572,6.177v0c14.726,5.273,34.685,11.816,43.277,11.9l3.492-1.439ZM417.144-148.455h3.473v-3.355h-3.473Zm10.665,0h3.473v-3.355h-3.473Zm12.457,0h3.473v-3.355h-3.473Zm-12.053-.4h2.666v-2.547h-2.666Zm-10.665,0h2.666v-2.547h-2.666Zm23.122,0h2.666v-2.547H440.67Zm58.658-58.305a29.1,29.1,0,0,0-29.1,29.1,29.1,29.1,0,0,0,29.1,29.105,29.106,29.106,0,0,0,29.105-29.105A29.105,29.105,0,0,0,499.327-207.164Zm0,.4a28.7,28.7,0,0,1,28.7,28.7,28.7,28.7,0,0,1-28.7,28.7,28.7,28.7,0,0,1-28.7-28.7A28.7,28.7,0,0,1,499.327-206.76Zm470.838,31.233q-16.022.012-32.046.062h-.607l-26.865.149h0l95.222-.155c-4.094-.116-106.312-.117-111.339.467a10.486,10.486,0,0,0-7.131,4.258h9.563v.4h-9.943a15.93,15.93,0,0,0-4.447.513,5.414,5.414,0,0,0-3.164,2.182,6.489,6.489,0,0,0-.851,3.881l5.028,2.06c8.787,3.6,25.651,2.793,25.655,2.793l15.318-.116c.155-.016,2.151-.219,5.158-.467-9.108-3.274-16.022-5.987-16.643-6.231l-.046-.019.073-.389,24.886-.116.038.016,13.8,5.837c1.218.031,2.435.082,3.65.171q.8.059,1.595.144c.476.051.951.11,1.425.182.517.078,1.031.171,1.54.287q.192.044.383.093c.061.015.122.032.184.048l.171.043c.234.057.471.1.708.147.482.086.968.145,1.455.188.552.05,1.106.077,1.659.089q.925.02,1.848-.009.987-.028,1.97-.1,1.084-.075,2.164-.187,1.1-.113,2.206-.257c1.7-.219,3.393-.484,5.08-.779q2.737-.478,5.458-1.054,1.752-.367,3.5-.768,1.665-.382,3.324-.79,1.141-.281,2.278-.576l.729-.192.261-.07.1-.027a.113.113,0,0,0,.023-.005q9.639-3.432,19.277-6.866v-.042c0-.057,0-.112-.007-.168a5.639,5.639,0,0,0-.071-.653,4.341,4.341,0,0,0-.406-1.26,3.817,3.817,0,0,0-.377-.591,3.9,3.9,0,0,0-.474-.5c-.069-.061-.14-.12-.213-.175a5.383,5.383,0,0,0-1.561-.814c-.086-.031-.175-.059-.262-.086-.121-.036-.242-.07-.365-.1a11.576,11.576,0,0,0-1.421-.264c-.537-.067-1.078-.1-1.619-.122-.256-.009-.511-.012-.767-.015q-.456-.006-.912-.008h-.139l-30.585-.034a19.358,19.358,0,0,1-3.222,0ZM456.621-188.434l-.055-20.9c-1.69,6.082-9.033,29.2-26.162,42.711q-1.017.8-2.063,1.568l13.576-.143,1.754-1.771-2.618-10.05,11.2,1.17-3.475-13.408Zm568.826,21.9,258.99-1.077v-.4l-258.99,1.077ZM444-167.3l8.073-8.16-10.484-1.1Zm582.01-6.738L1052.024-173l.016-.4-26.011-1.042Zm-89.223-1.825,1.4-.007,22.12-17.478c-13.714,1.254-43.444,15.107-48.75,17.623l.444,0q5.971-.048,11.941-.079,6.163-.032,12.325-.052Zm67.4-.03h.022l6.631-17.583-4.957.077c-4.394.408-7.543,2.64-10.521,5.368-3.021,2.767-5.866,6.04-9.62,8.488a25.236,25.236,0,0,1-9.007,3.609h.307q8.123,0,16.246.008,3.111,0,6.223.012C1001.069-175.908,1002.629-175.9,1004.187-175.893Zm-551.563-.121,4.019-4.062-.02-7.952-7.31-.764Zm379.036-16.8-7.34,6.619,6.615,7.34,7.344-6.615Zm-6.771,6.648,6.075,6.741,6.745-6.075-6.079-6.744Zm565.733-17.907-7.335,6.616,6.621,7.34,7.334-6.615Zm-6.769,6.646,6.083,6.741,6.742-6.075L1390.6-203.5ZM748.392-205.6a7.616,7.616,0,0,1,7.38-5.728,7.613,7.613,0,0,1,7.613,7.615,7.79,7.79,0,0,1-.054.908,7.613,7.613,0,0,1,3.644,6.189l.009.21H739.657l-.047-.135a7.063,7.063,0,0,1-.4-2.34,7.047,7.047,0,0,1,7.047-7.049A7.026,7.026,0,0,1,748.392-205.6Zm18.17,8.791a7.217,7.217,0,0,0-3.549-5.716l-.114-.069.017-.132a7.718,7.718,0,0,0,.066-.988,7.209,7.209,0,0,0-7.209-7.211,7.209,7.209,0,0,0-7.037,5.629l-.05.222-.215-.075a6.614,6.614,0,0,0-2.213-.378,6.644,6.644,0,0,0-6.643,6.646,6.675,6.675,0,0,0,.33,2.071ZM246.107-221.6a15.036,15.036,0,0,1,14.614-11.515,15.03,15.03,0,0,1,15.03,15.03,15.186,15.186,0,0,1-.125,1.924,15.019,15.019,0,0,1,7.306,12.279l.008.21H228.634l-.048-.135a13.924,13.924,0,0,1-.785-4.615,13.894,13.894,0,0,1,13.9-13.894A13.815,13.815,0,0,1,246.107-221.6Zm36.412,17.525a14.622,14.622,0,0,0-7.212-11.805l-.117-.069.019-.133a14.921,14.921,0,0,0,.139-2,14.627,14.627,0,0,0-14.626-14.626,14.631,14.631,0,0,0-14.271,11.419l-.05.222-.215-.075a13.392,13.392,0,0,0-4.487-.766,13.491,13.491,0,0,0-13.493,13.49,13.491,13.491,0,0,0,.716,4.346ZM86.6-226.869l-8.511,7.67,7.67,8.511,8.511-7.67Zm-7.94,7.7,7.129,7.911,7.911-7.129L86.575-226.3ZM1192.4-231.389a15.126,15.126,0,0,1,14.7-11.583,15.114,15.114,0,0,1,15.117,15.116,15.3,15.3,0,0,1-.125,1.935,15.113,15.113,0,0,1,7.349,12.35l.009.21h-54.624l-.048-.135a14,14,0,0,1-.787-4.64,13.976,13.976,0,0,1,13.975-13.975A13.856,13.856,0,0,1,1192.4-231.389Zm36.627,17.625a14.71,14.71,0,0,0-7.255-11.877l-.117-.069.019-.133a15.031,15.031,0,0,0,.139-2.013,14.711,14.711,0,0,0-14.714-14.712,14.722,14.722,0,0,0-14.356,11.488l-.05.222-.214-.077a13.488,13.488,0,0,0-4.515-.771,13.572,13.572,0,0,0-13.571,13.571,13.561,13.561,0,0,0,.719,4.371Zm55.241-27.939c.817-1.094,8.317-10.71,18.819-9.722,4.744.447,10.107,3.052,15.739,9.6,1.445-.3,15.422-2.88,19,10.5a21.168,21.168,0,0,1,7.664,2.048,10.853,10.853,0,0,1,5.865,6.689l.067.258-49.984-.236-55.811.236.047-.242a10.176,10.176,0,0,1,4.4-6.109c2.4-1.515,6.064-2.412,11.624-1.171a17.321,17.321,0,0,1,6.433-8.881C1271.552-241.164,1276.681-242.848,1284.265-241.7Zm66.617,18.966a10.541,10.541,0,0,0-5.577-6.181,20.712,20.712,0,0,0-7.647-2.012l-.187-.151c-3.615-13.913-18.676-10.324-18.676-10.324l-.2-.065c-5.569-6.51-10.861-9.112-15.548-9.554-10.924-1.028-18.528,9.655-18.528,9.655l-.2.082c-7.509-1.159-12.583.484-15.966,2.881a16.8,16.8,0,0,0-6.327,8.839l-.241.149c-5.518-1.269-9.143-.417-11.505,1.077a9.846,9.846,0,0,0-4.16,5.6l55.31-.233Zm-325.126-24.075-7.341,6.616,6.619,7.34,7.341-6.615Zm-6.771,6.646,6.078,6.741,6.741-6.075-6.078-6.741ZM199.8-264.462l-8.511,7.67,7.672,8.511,8.511-7.67Zm-7.942,7.7,7.133,7.911,7.911-7.129-7.131-7.912Zm229.436-14.5-8.511,7.671,7.671,8.511,8.509-7.671Zm-7.94,7.7,7.13,7.911,7.911-7.13-7.13-7.911Z" transform="translate(0 271.264)" fill="#ff8200" fill-rule="evenodd"/>
</svg>
