<svg xmlns="http://www.w3.org/2000/svg" width="1440" height="375.596" viewBox="0 0 1440 375.596">
  <path id="skyline-sg" d="M235.343,63.166c.642-8.01,1.636-16.624,3.06-22.021,3.287-12.432.265-29.783-.646-41.936-.824-12.08-2.383-45.151-2.383-45.151l-.01-.227h62.888v129.4H234.182l.007-.151s.081-2.661.245-6.6l-7,10.068-.09.076a79.3,79.3,0,0,1-13.063,4.27,5.571,5.571,0,0,1,2.672,4.871c0,2.939-2.207,5.4-4.78,5.4A4.581,4.581,0,0,1,208.1,98.4v.1a6.158,6.158,0,0,1-5.881,6.152h-.006a6.361,6.361,0,0,1-5.511-3.037,6.18,6.18,0,0,1-5.364,3.691h-.006a6.382,6.382,0,0,1-6.43-6.152h0a6.152,6.152,0,0,1,11.429-3.164,6.156,6.156,0,0,1,3.081-3.064,81.305,81.305,0,0,1-16.663-1.206,6.381,6.381,0,0,1,1.9,4.873c.019,4.092-2.375,8.586-2.375,8.586l-.06.127-14.639-.076h-7.916V84.035c-2.663-1.406-4.113-2.361-4.113-2.361h-.032C139.2,65.151,136.87,47.021,138.073,36.523c.521-4.519,1.716-7.634,2.718-8.638,1.469-1.606,2.3-1.958,3.355-2.161a16.9,16.9,0,0,0,2.576-.752l.089-.051,2.28,1.23.108.176a22.9,22.9,0,0,0,.246,2.385,47.261,47.261,0,0,0,7.4,17.178l12.447.828,16.718,17.1L190.345,49h13.025l4.022,12.883,6.192-.251,5.032-13.911,9.284.1,2.336,14.111,3.031-3.313Zm829.834,4.646.32,1.582.2,1.23.5.627.033.227h-5.517V71.5h5.031V82.4h55.689v9.417h17.871V80.168h-.34a12.083,12.083,0,1,1,.757-.051v11.7h13.163a35.447,35.447,0,0,1,4.722-10.371c3.221-4.695,8.327-9.241,16.066-9.141-2.332-3.84-2.64-9.844-2.139-15.793a100.2,100.2,0,0,1,3.445-17.881l.013-.049c6.818-13.862,4.131-26.394,1.658-34.128-1.069-3.34-2.1-5.75-2.317-7.031a13.624,13.624,0,0,0-1.641-3.691c-2.065-3.691-5.543-8.838-7.731-12.881a22.185,22.185,0,0,1-1.771-3.943A4.058,4.058,0,0,1,1163-25a5.12,5.12,0,0,1,4.765-4.067h.044l8.677,3.289,3.4-18.733c-3.681-2.058-5-4.167-5.4-5.8a4.4,4.4,0,0,1,.141-2.812h0l4.216-7.08,1.745,3.313a22.494,22.494,0,0,0,9.678-4.846c.8-2.461.645-4.167,0-5.3a4.47,4.47,0,0,0-2.588-2.034,9.23,9.23,0,0,0-2.985-.479h-.118c-.957-.576-2.175-.276-3.414.479-3.041,1.707-6.191,5.75-6.191,5.75l-.243.3-1.277-3.994c-3.858-1.406-5.34-3.591-5.95-6.931a57.619,57.619,0,0,1-.492-8.311c-.085-2.637,1.873-4.446,4.687-5.625,4.761-2.009,11.974-2.361,15.343-2.361a5.736,5.736,0,0,1-1.151-1.155,4.19,4.19,0,0,1-.291-3.967,4.082,4.082,0,0,1,3.267-2.764,9.183,9.183,0,0,0,4.024-1.807,17.094,17.094,0,0,0,5.053-5.476c1.49-2.761,3.377-2.988,4.016-2.961a1.059,1.059,0,0,1,.422-.554,4.658,4.658,0,0,1,1.8-.8c3.439-.879,12.5-1.406,36.3,1.558l3.442.076-1.51,7.559h-.113a36.716,36.716,0,0,1,5.37,5.625c5.495,7.031,9.96,17.7,9.555,33.75l-.008.352-6.245-3.215,3.145,23.479,6.757,16.65-.29.225-9.924-5.273,8.933,34.832-8.257-2.009c.5,2.158,3.99,17.7,4.245,27.6.274,10.671,3.892,25.186-6.658,41.484.692.125,1.366.3,2.021.476,9.849,2.561,14,8.01,18.97,17.754l-.371.176c-4.905-9.617-8.985-14.966-18.708-17.527-3.854-1.055-8.349-1.106-13.4-.6-7.612.7-16.477,2.585-26.3,3.892-9.861,1.382-14.268.276-20.045-1.279a94.007,94.007,0,0,0-15.3-3.015c-8.776-.979-14.4,3.818-17.842,8.865a34.555,34.555,0,0,0-4.636,10.12h121.653V105.3H1073.191v-.276H941.1v.2h-30.73l.054-.276-10.8.076L898.624-76.5l32.326-39.551.361.051c11.253,36.787,16.925,65.867,19.118,102.656,3.021,53.337-8.6,83.018-9.787,88.191-.731,3.516-3.842,12.4-6.315,19.16a.342.342,0,0,1-.188.227,2.058,2.058,0,0,1-.684.1h-.381c.4.2.8.427,1.184.652A15.714,15.714,0,0,1,943,92.421a15.5,15.5,0,0,1,15.292,12.356l.044.225V98.625h-2.653V71.5h9.757c.036,0,.072-.024.108-.024H953.333l-.207-.227c3.124-25.286,29.685-38.245,56.333-38.369a75.772,75.772,0,0,1,28.991,5.349l.579.676.935.427.5.227.962.427.333.2,1.274.6,1.4.752.614.352.607.352.105.076h.05l.054.051.393.225.681.427.161.1.053.027.05.049.381.227.862.576.995.7.559.427.552.4.4.3.81.679.528.427.891.752.763.7.356.352.737.7.231.251.818.83.9,1.028.21.251.756.93.827,1.055.188.251.688.979.178.276.734,1.13.614,1.055.157.276.646,1.179.538,1.082.133.325.495,1.082.517,1.331.167.427.217.627.188.576.124.352.333,1.13.107.4.289,1.13.093.4.252,1.282ZM232.43,90.312l1.725-4.922h64.1v19.739l-28.542.1h-46.95v-1.155A15.042,15.042,0,0,1,232.43,90.312Zm152.053,14.817V85.39H320.39l-7.005,19.839Zm105.2-59.414V-118.716l51.3-20.09v-1.455l.356-.127c13.469,13.435,14.935,13.586,22.54,30.964l.017.049v214.4H465.137v.1l-71,.1,6.914-19.839h64.093v5.676a14.548,14.548,0,0,1,7.36,6.5,11.11,11.11,0,0,1,6.331-1.833,11.432,11.432,0,0,1,10.856,7.583V75.849a16.847,16.847,0,0,1-6.533,1.731V95.937h-.417V77.58h-.524A16.892,16.892,0,0,1,465.6,62.941V83.156H401.434l.007-.176s.917-29.482,4.212-41.963c3.286-12.4.358-29.756-.555-41.885-.914-12.08-2.378-45.176-2.378-45.176l-.01-.227H465.6V58.6a16.848,16.848,0,0,1,24.09-12.881Zm375.156-158.73h19.112v13.284h7.315V105.229H772.157v-.2H735.491l.024.1-55.506.1,3.407-11.877h6.652l2.012-13.987h31.452l1.945,13.987h6.907l1.5,5.625.139-.479c.1-.3.2-.652.314-.979.268-.728.588-1.482.953-2.234a16.692,16.692,0,0,1,1.441-2.361,17.658,17.658,0,0,1,1.722-2.109,23.862,23.862,0,0,1,1.836-1.682,16.875,16.875,0,0,1,1.952-1.406,19.34,19.34,0,0,1,3.227-1.633c.522-.2,1.055-.4,1.594-.552l.862-.227V83.859l-.642-191.677L818.244-58.7V-99.732h7.315v-13.284h19.111v-7.334h20.17Zm431.018,190.6h-.524a16.387,16.387,0,1,1,.941,0v27.5h-.417Zm-1246.845,0h-.431a16.339,16.339,0,1,1,.848,0v27.5h-.417Zm1368.015,0h-.528a16.376,16.376,0,1,1,.945,0v27.5h-.417ZM632.887,105.029H574.271V-70.2h10.516v-7.534H609.02l.092-49.067h.417l-.092,49.067H633.76V-70.2h11.615V85.917a20.83,20.83,0,0,1,7.015-1.23c10.334,0,18.808,7.734,19.543,17.529V77.58h-.523a16.387,16.387,0,1,1,.939,0v27.5h-.417V104.6l-.076.427Zm763.491-9.292a11.478,11.478,0,0,1,11.27,9.041l.055.251h-44.728v-1.055A14.176,14.176,0,0,1,1377.1,90.061h.256a14.486,14.486,0,0,1,12.682,7.51A11.173,11.173,0,0,1,1396.378,95.737ZM33.4,95.737a11.325,11.325,0,0,1,11.177,9.041l.05.251H0s0-1.055,0-1.055A14.186,14.186,0,0,1,14.1,90.061h.185a14.593,14.593,0,0,1,12.785,7.51A11.5,11.5,0,0,1,33.4,95.737Zm162.729.728a5.833,5.833,0,0,0-5.071-3.064,5.77,5.77,0,0,0-5.742,5.752,5.907,5.907,0,0,0,6,5.725,5.743,5.743,0,0,0,5.12-3.743,6.26,6.26,0,0,1-.66-2.637h0A6.286,6.286,0,0,1,196.132,96.464ZM168.373,87.8l-.791,16.975,14.382.1a20.43,20.43,0,0,0,2.269-8.286,5.73,5.73,0,0,0-2.4-5.049A82.306,82.306,0,0,1,168.373,87.8Zm964.752,4.419,4.373-.4a22.668,22.668,0,0,0-4.373.4h-11.691v6.755h-47.825v5.9h45.007l.025-.1C1120.043,98.625,1125.744,93.652,1133.125,92.221Zm8.755,0c7.4,1.431,13.17,6.4,14.568,12.556l.025.1h118.078V92.221H1141.88c-.706-.151-1.426-.227-2.158-.327Zm-981.8-8.01v20.566h7.082v-17.4A69.162,69.162,0,0,1,160.078,84.211Zm771.707,9.968c-1.683-.251-3.713-.7-4.086-.779h-.011c-4.512-.879-8.209.73-11.188,2.637-.015,0-.032.051-.047.051A13.867,13.867,0,0,0,914.371,98a17.378,17.378,0,0,0-2.945,6.125c-.086.3-.136.6-.136.6a.936.936,0,0,1-.032-.125.231.231,0,0,0-.174-.076v.251h16.529a15.177,15.177,0,0,1,6.226-9.543A11.365,11.365,0,0,0,931.785,94.179ZM463.837,90.615c.3.1.592.2.884.276V85.842h-63.38l-6.622,18.936,50.706-.051v-.752a14.176,14.176,0,0,1,14.126-13.914h.256A15.365,15.365,0,0,1,463.837,90.615ZM320.685,85.842l-6.711,18.936,70.092-.1V85.842Zm-50.638,18.936,27.788-.1V85.842H234.449l-1.513,4.294a14.327,14.327,0,0,1,4.768-.779h.256a15.29,15.29,0,0,1,13.517,7.937,12.39,12.39,0,0,1,6.64-1.909h.056A11.973,11.973,0,0,1,270.047,104.777ZM237.865,89.76a14.364,14.364,0,0,0-5.225,1l-.054-.049a14.585,14.585,0,0,0-9.409,13.359v.7h46.441a11.711,11.711,0,0,0-11.44-8.965h-.063a11.286,11.286,0,0,0-6.6,1.982l-.192.076-.108-.176a14.948,14.948,0,0,0-13.259-7.935Zm633.6-63.733H772.574V93.7a6.12,6.12,0,0,0,.582-.227c.382-.125.77-.251,1.163-.4a13.737,13.737,0,0,1,2.661-.5,11.3,11.3,0,0,1,1.313-.1l.86-.051h.41c.42.051.841.051,1.259.1a19.108,19.108,0,0,1,2.388.427c.389.127.773.276,1.152.4l.6.225V81.223h13.128V98.273h-6.811l.377.476a9.682,9.682,0,0,1,.659.979,16.991,16.991,0,0,1,1.126,2.136,16.334,16.334,0,0,1,.649,1.907c.063.2.121.427.174.654.026.125.053.251.076.352h76.855l.185-53.337h0V34.465h.061l.026-7.786Zm-52.8-125.383v40.908h0V11.513h6.349V3.225h13.127v8.337h8.819V3.225h13.128v8.389h2.927V25.576h8.87l0,1.155v7.734h10.7V51.44h-10.7V65.854h10.7V82.8h-10.7v21.973h18.973V-99.356ZM733.683,99.855l-1.618-6.077H683.728l-3.166,11,52.818-.1-.076-.73-.013-.4c0-.076,0-.176,0-.276,0-.251.015-.5.031-.779.035-.579.1-1.13.182-1.682ZM941.1,104.6h16.727A15,15,0,0,0,943,92.873H943A15.034,15.034,0,0,0,928.079,104.6Zm-207.171-3.818c-.036.251-.068.479-.095.7-.053.427-.088.83-.108,1.282l-.021.828.014.352.07.654h1.155ZM490.1,75.646V104.6h50.517V-138.2L490.1-118.416V45.939a16.977,16.977,0,0,1,8.688,11.853h11.338V74.768H498.464V65.227A17,17,0,0,1,490.1,75.646ZM752.178,85.09c-.448.049-.895.049-1.341.1l-.007.024a22.8,22.8,0,0,0-2.64.479l-.266.1v-.1l-.877.276c-.535.176-1.062.352-1.58.576A17.732,17.732,0,0,0,742.24,88.2a20.389,20.389,0,0,0-1.954,1.458c-.649.576-1.262,1.155-1.832,1.758a22.433,22.433,0,0,0-1.707,2.209,18.039,18.039,0,0,0-1.38,2.461,18.721,18.721,0,0,0-.86,2.234c-.1.352-.195.654-.277,1.006l-.121.527,1.269,4.746h58.483c-.1-.427-.225-.93-.368-1.357a13.836,13.836,0,0,0-.752-1.858,17.351,17.351,0,0,0-1.1-1.934c-.281-.4-.582-.779-.9-1.179h-5.776V94a14.664,14.664,0,0,0-6.012-1.13h-.006a15.345,15.345,0,0,0-6.448,1.357l-.01,8.838-.417.051c-.271-9.944-8.709-17.93-19.057-18.03ZM960.807,98.625h-2.053V104.6h114.436V98.977h-7.863v-.352H960.807Zm-497.1-7.61a14.591,14.591,0,0,0-3.9-.527h-.253a13.775,13.775,0,0,0-13.709,13.486v.627h43.788a10.955,10.955,0,0,0-10.8-8.437h-.007a10.785,10.785,0,0,0-6.285,1.882l-.193.151-.108-.227A14.034,14.034,0,0,0,463.7,91.015ZM44.118,104.6a10.84,10.84,0,0,0-10.713-8.437H33.4a10.767,10.767,0,0,0-6.28,1.882l-.192.151-.109-.227A14.138,14.138,0,0,0,14.29,90.488H14.1A13.752,13.752,0,0,0,.417,103.974v.627Zm1111.863,0c-1.75-6.982-9.37-12.38-18.483-12.38s-16.64,5.4-18.39,12.38Zm251.208,0a11.022,11.022,0,0,0-10.812-8.437h0a10.772,10.772,0,0,0-6.281,1.882l-.195.151-.111-.227a14.056,14.056,0,0,0-12.435-7.483h-.253a13.777,13.777,0,0,0-13.71,13.486v.627ZM541.4-139.734V104.6h22.079V-109.275C555.989-126.451,554.477-126.678,541.4-139.734ZM633.214,103.5v.127c0,.352.06.676.083.979h38.216a4.537,4.537,0,0,0,.057-.979h0c0-10.222-8.6-18.533-19.179-18.533a20.213,20.213,0,0,0-7.129,1.306l-.022.049c-.582.227-1.151.5-1.7.754a19.459,19.459,0,0,0-6.384,5.173A18.62,18.62,0,0,0,633.214,103.5ZM929.99,93.076,930.628-115,899.04-76.377l1,180.979,10.474-.076a15.483,15.483,0,0,1,3.6-6.88,9.027,9.027,0,0,1,2.1-1.909,16.51,16.51,0,0,1,13.771-2.661ZM644.958,86.093V-69.825h-70.27V104.6h58.189c-.024-.3-.082-.627-.082-.979v-.151a18.521,18.521,0,0,1,4-11.3l.036-.049a19,19,0,0,1,6.512-5.325C643.868,86.545,644.408,86.32,644.958,86.093Zm-443.013,6.68a3.535,3.535,0,0,0-.735.051,5.764,5.764,0,0,0-4.623,3.616,6.156,6.156,0,0,1,.308,4.695,5.911,5.911,0,0,0,5.307,3.115,5.744,5.744,0,0,0-.031-11.477ZM213.6,91.066c-.688.125-1.379.3-2.071.452-.681.125-1.365.251-2.048.352h0a5.329,5.329,0,0,0-1.573,3.892c0,2.737,1.909,5.022,4.272,5.022s4.364-2.285,4.364-5.022a4.962,4.962,0,0,0-2.9-4.695Zm-17.2,5.977A5.611,5.611,0,0,0,196.2,98.5a5.881,5.881,0,0,0,.429,2.061,5.787,5.787,0,0,0,.175-1.406A5.572,5.572,0,0,0,196.393,97.043Zm575.683-2.637c-.538.276-1.063.576-1.57.879a19.012,19.012,0,0,1,1.565,4.395Zm293.669-11.6V98.222h7.864V98.4l47.407.176V91.818h0V82.8ZM858.622,98.273H845.5V81.223h13.127Zm-29.993,0H815.592V81.223h13.036ZM997.753,71.906h-4.785a6.875,6.875,0,0,0-4.311,6.252V98.222h13.392V78.183A6.8,6.8,0,0,0,997.753,71.906Zm44.5,0H998.734a7.175,7.175,0,0,1,3.731,6.277V98.222h9.1V82.529Zm10.176,0h-8.9l-31.554,10.947V98.222h53.348V71.906h-4.612V80.52h-8.281Zm-68.442,0h-4.757a6.813,6.813,0,0,0-4.294,6.252V98.222h13.3V78.183a.131.131,0,0,1,0-.024A6.8,6.8,0,0,0,983.991,71.906Zm-19.453,0H956.1V98.222h4.706V78.183A7.17,7.17,0,0,1,964.538,71.906Zm5.689,0h-4.709a6.8,6.8,0,0,0-4.294,6.277V98.222h13.3V78.159A6.81,6.81,0,0,0,970.227,71.906ZM845.912,97.846h12.293v-7.71H845.912Zm-60.537,0h4.987c-.253-.276-.518-.552-.792-.8a14.124,14.124,0,0,0-1.523-1.282,19.629,19.629,0,0,0-1.661-1.055q-.5-.264-1.012-.527Zm12.294-7.71H785.375v3.616h.007a10.5,10.5,0,0,1,1.159.579,16.713,16.713,0,0,1,1.837,1.13,13.735,13.735,0,0,1,1.67,1.455c.306.3.6.6.878.93h6.743Zm18.339,7.71h12.2v-7.71h-12.2Zm-648.432-10.3v8.386l.386-8.262A2.326,2.326,0,0,1,167.577,87.551ZM208.8,91.994c-1.713.251-3.4.479-5.061.6a6.351,6.351,0,0,1,3.745,3.264v-.1A5.8,5.8,0,0,1,208.8,91.994ZM818.244-58.223,747.7-107.039l.639,190.9V85.19h0a7.108,7.108,0,0,1,1.226-.227,10.363,10.363,0,0,1,1.22-.176h0a9.873,9.873,0,0,1,2.1-.1h0a19.66,19.66,0,0,1,17.447,10.247,12.548,12.548,0,0,1,1.744-.955l.011-10.247H759.719V73.789H772.1l.01-8.638H759.719V55.332h12.4l.011-8.662H759.719V36.75h12.425l.01-8.613H759.719V18.293H780.66v-6.68h.21l37.374-.1ZM930.407,93.225c.509.176,1.01.352,1.5.527a15.149,15.149,0,0,0,1.548.176c.172,0,.314-.049.418-.049.022,0,.051,0,.067-.051,2.465-6.729,5.566-15.593,6.294-19.06,1.188-5.2,12.795-34.8,9.779-88.066-2.174-36.487-7.768-65.339-18.837-101.7l-.131-.427Zm94.645-7.91h-8.281v8.464h8.281Zm-7.864,8.037h7.447v-7.61h-7.447ZM692.442,79.765l-1.953,13.586,34.543-.176L723.17,79.765ZM143.872,26.2a6.139,6.139,0,0,0-2.778,1.934h-.006a6.563,6.563,0,0,0-1.169,2.109,26.256,26.256,0,0,0-1.433,6.328c-1.193,10.447,1.125,28.376,17.311,44.773.164.1,1.513.979,3.863,2.209V81.4h7.916v5.674a2.549,2.549,0,0,0,.407.176l.013-.276.261.1s2.74.93,11.6,3.191a8.442,8.442,0,0,1,2.155.9A76.444,76.444,0,0,0,200.4,92.421c-13.428-2.585-23.749-6.755-31.669-11.8l-.031.024a1.784,1.784,0,0,1-.247-.225,54.734,54.734,0,0,1-16.919-16.6C140.686,46.87,143.386,28.889,143.872,26.2ZM164.688,70.1c-.235.83-1.2,5.374,4.011,10.02,8.232,5.273,19.1,9.644,33.41,12.229,1.124-.1,2.264-.176,3.416-.325C185.112,84.687,180.254,71.63,179.744,70.1Zm47.3.1-1.529,6.68h-.015l3.671,13.611-.4.127-5.988-22.224V70.1H189.746V65l-5.2,12.48c3.749,4.67,10.411,10.471,21.911,14.414h.013q1.411-.187,2.814-.376l.007-.051a4.333,4.333,0,0,1,2.886-1.1,4.905,4.905,0,0,1,1.494.251c.364-.076.73-.151,1.1-.251h0c13.817-4.47,15.807-18.333,16.019-20.266Zm.806,20.618c-.2,0-.409-.051-.618-.051a3.871,3.871,0,0,0-1.984.554h.04c.853-.151,1.7-.352,2.553-.5Zm-41.762-2.461a88,88,0,0,0,9.29,2.485,4.242,4.242,0,0,0-.568-.176C175.645,89.609,172.849,88.83,171.032,88.354Zm67.124-18.081-5-10.9-2.9,3.164-.359-.125-2.349-14.189-8.638-.1-5.026,13.938-6.793.276-4.024-12.883H190.658L186.212,64.6l-17.1-17.478-11.962-.8A57.82,57.82,0,0,0,175.017,62.99h1.5a3.686,3.686,0,0,1,3.494,2.864c2.29,1.13,4.832,2.261,7.544,3.315l2.189-5.273V62.99h14.482a3.594,3.594,0,0,1,3.5,3.591v.227l2.5,9.241L211.56,70.2h-.008L213.2,62.99h14.439a3.694,3.694,0,0,1,3.588,3.591V70.1H231.2c-.178,1.682-1.855,13.887-13.181,19.387a70.857,70.857,0,0,0,9.106-3.215L234.466,75.7h0l3.716-5.374ZM816.009,89.357h12.2V81.623h-12.2Zm-30.634,0h12.294V81.623H785.375Zm60.537,0h12.293V81.623H845.912Zm191.026-8.965h-8.371V88.83h8.371Zm-7.954,8.037h7.538V80.771h-7.538ZM167.16,86.948V81.8h-7.082v1.985C161.914,84.687,164.3,85.793,167.16,86.948Zm881.849-11.226h-8.373V84.26h8.373Zm-7.956,8.137h7.538V76.125h-7.538ZM772.1,74.191H760.136v9.089H772.09ZM321.508-46.17l.011.227s1.555,33.071,2.469,45.151c.821,12.153,3.842,29.5.554,41.885-3.295,12.48-4.212,41.987-4.212,41.987l-.007.151h64.068l.092-129.4ZM234.877,75.822c-.153,3.643-.24,6.279-.264,7.031h63.221V-45.792H235.8c.136,2.913,1.588,33.5,2.372,44.973.916,12.18,3.931,29.558.634,42.063-1.458,5.525-2.46,14.438-3.1,22.576l2.828,6.277.126.276Zm85.877,7.031h63.222l.09-128.645H321.945c.136,2.913,1.587,33.5,2.458,44.973.824,12.18,3.84,29.558.542,42.063C321.822,53,320.843,80.168,320.754,82.854Zm314.652-9.968H582.958V82.8h52.449ZM401.865,82.753h63.313V-45.867H403.148c.126,2.888,1.5,33.474,2.367,44.949.916,12.18,3.84,29.583.542,42.063C402.932,52.922,401.954,80.068,401.865,82.753Zm181.51-.352H634.99V73.313H583.375Zm288.5,0h10.286V74.667H871.878Zm186.069-30.31-.656-.8-.938-1.055-.386-.4-.456-.479-.746-.728-.6-.552-.68-.654-1.012-.828-.614-.527-1.059-.83-.789-.627-2.114-1.455-2.126-1.306-.424-.251-.951-.552-.509-.251-.812-.452-1.26-.6-1.059-.479-.521-.276-1.3-.552-.49-.2,5.674-3.24-.681-1.23c-.427-.8-.827-1.633-1.2-2.461a43.7,43.7,0,0,1-2.172-6.077,42.6,42.6,0,0,1-1.181-5.828c-.133-1-.229-2.058-.288-3.088-.033-.6-.054-1.179-.064-1.782h0l-6.718.076a49.272,49.272,0,0,0,5.642,22.373l-.37.176a49.556,49.556,0,0,1-5.607-20.164l-.085-3.04V12.492h-2.06a5.846,5.846,0,0,1,.1.979v2.234a5.269,5.269,0,0,1-.061.83h2.022V14.174c0,.955.031,1.882.085,2.813H1029.3a5.9,5.9,0,0,1-5.646,4.57l-5.941.076h-.73l-1.381.076a3.9,3.9,0,0,1-3.865-3.867l-.046-3.115-.044-1.1c0-.127.008-.3.022-.427l-.022-1.533a3.964,3.964,0,0,1,3.769-3.967h2.1l5.949-.125a6.084,6.084,0,0,1,5.775,4.495h2.193c.021-.552.049-1.03.086-1.558.068-.955.165-1.934.289-2.888a51.353,51.353,0,0,1,1.11-5.8,48.285,48.285,0,0,1,1.936-5.977q.571-1.469,1.23-2.861c.228-.479.464-.955.709-1.458h0l-2.032-1.179a5.746,5.746,0,0,1-4.323,1.934,5.739,5.739,0,0,1-2.871-.754l-5.214-2.937a.533.533,0,0,0-.181-.076c-.121-.051-.242-.151-.36-.2l-1.2-.73a3.9,3.9,0,0,1-1.54-5.247l3.11-5.425a3.759,3.759,0,0,1,3.334-1.985,3.585,3.585,0,0,1,1.884.527s1.189.6,1.192.6l.547.352s5.213,2.964,5.21,2.964a5.775,5.775,0,0,1,3.039,5.073,5.723,5.723,0,0,1-.225,1.606l2.066,1.179.792-1.179c.527-.8,1.074-1.558,1.643-2.31a53.069,53.069,0,0,1,4.421-5.049,53.757,53.757,0,0,1,5.047-4.443c.743-.554,1.5-1.13,2.276-1.658l1.206-.8-1.233-2.136a5.95,5.95,0,0,1-6.784-2.737l-2.925-5.1a.562.562,0,0,1-.071-.125,1.833,1.833,0,0,1-.3-.452l-.645-1.257a3.7,3.7,0,0,1-.531-1.934,3.8,3.8,0,0,1,1.891-3.289l2.952-1.682.71-.4c.154-.076.311-.176.472-.251.777-.452,1.349-.752,1.348-.752a3.828,3.828,0,0,1,1.943-.579,3.826,3.826,0,0,1,3.285,1.934l.639,1.182c.058.1.111.2.16.276a2.744,2.744,0,0,0,.208.352s3.018,5.146,3.02,5.146a6.009,6.009,0,0,1-1.074,7.207l1.233,2.136,0-.027c.474-.225.952-.452,1.433-.7.924-.4,1.862-.828,2.813-1.179a45.508,45.508,0,0,1,5.945-1.985,56.174,56.174,0,0,1,5.766-1.155q1.428-.187,2.866-.3c.516-.051,1.031-.051,1.548-.076h.018v-2.512a5.981,5.981,0,0,1-4.48-5.725v-5.925c0-.127.005-.227.012-.352-.008-.1-.012-.176-.012-.3v-1.355a3.864,3.864,0,0,1,3.773-3.867h6.311a3.9,3.9,0,0,1,3.866,3.867v1.355c0,.076,0,.2-.011.3s.013.225.013.352v5.925a5.967,5.967,0,0,1-4.572,5.725V-36.1h.014c.577.024,1.152.076,1.726.125,1.042.076,2.08.227,3.114.378a50.323,50.323,0,0,1,6.119,1.331,47.546,47.546,0,0,1,6.351,2.285c1.034.452,2.054.928,3.056,1.455.528.3,1.051.554,1.568.879h.008L1104.2-30.8l1.294-2.134a5.986,5.986,0,0,1-1.879-4.37,6.05,6.05,0,0,1,.786-2.937s2.636-4.622,2.9-5.049a3.836,3.836,0,0,1,.3-.7l.734-1.2a3.811,3.811,0,0,1,3.323-1.909,3.85,3.85,0,0,1,1.9.476l5.489,3.115a3.929,3.929,0,0,1,1.449,5.222l-.674,1.106a3.791,3.791,0,0,1-.333.7l-2.928,5.146a6.045,6.045,0,0,1-6.772,2.764l-1.283-.479.263.127.611.251.409.1-1.294,2.285-1.379-.83c.52.3,1.035.654,1.544.955q1.469.981,2.871,2.034a52.356,52.356,0,0,1,5.781,5,55.244,55.244,0,0,1,4.949,5.852c.689.979,1.345,1.934,1.966,2.937.321.527.632,1.006.935,1.558l.01.024.021-.024-.96-1.733,2.235-1.179a5.768,5.768,0,0,1-.243-1.658,5.881,5.881,0,0,1,3.036-5.122s5.211-2.888,5.214-2.888l.545-.3,1.2-.7a3.887,3.887,0,0,1,5.215,1.533l.774,1.355c.081.151.157.227.229.352l1.1,1.934c.06.127.115.227.167.352l.842,1.506A3.978,3.978,0,0,1,1143-12.117s-1.192.627-1.188.627l-.55.352L1136.047-8.3a5.944,5.944,0,0,1-7.24-1.13l-2.173,1.23-1.238-2.209h-.017q.438.791.849,1.582c.52,1.006,1,2.034,1.456,3.04a50.421,50.421,0,0,1,2.262,6.377,48.64,48.64,0,0,1,1.312,6.1c.156,1,.278,2.058.367,3.064.049.627.088,1.2.117,1.758h2.506a5.939,5.939,0,0,1,5.724-4.57h7.956a3.9,3.9,0,0,1,3.866,3.867v6.3a3.862,3.862,0,0,1-3.866,3.767h-7.956a5.934,5.934,0,0,1-5.7-4.47h-2.521v.027c-.024.5-.056,1.028-.1,1.506-.075.955-.178,1.934-.307,2.861a49.506,49.506,0,0,1-1.141,5.752,48.747,48.747,0,0,1-1.954,5.925c-.377.979-.781,1.885-1.213,2.813-.228.479-.463.93-.706,1.406h0l2.125,1.23a6.03,6.03,0,0,1,4.29-1.833,5.766,5.766,0,0,1,2.94.779l5.121,2.964a.808.808,0,0,1,.3.151l1.53.8a3.964,3.964,0,0,1,1.447,5.222h0s-3.2,5.5-3.2,5.5a3.864,3.864,0,0,1-3.335,1.934,3.575,3.575,0,0,1-1.89-.479l-1.228-.752a4.528,4.528,0,0,1-.5-.276s-5.214-2.964-5.214-3.015a5.872,5.872,0,0,1-2.683-6.729l-2.108-1.282-.778,1.182q-.778,1.128-1.614,2.258a49.5,49.5,0,0,1-4.362,4.973,53.133,53.133,0,0,1-4.974,4.419c-.727.527-1.47,1.106-2.226,1.633l-1.179.779,1.18,2.034a6.02,6.02,0,0,1,6.775,2.737s2.927,5.222,2.925,5.173l.367.576.736,1.182a3.927,3.927,0,0,1-1.451,5.222l-5.493,3.215a3.942,3.942,0,0,1-5.214-1.458l-.738-1.179a4.489,4.489,0,0,1-.27-.654l-3.021-5.1a6.05,6.05,0,0,1,1.087-7.256l-1.1-2.034-1.162.576q-1.14.527-2.307,1.055a49.35,49.35,0,0,1-5.3,1.934,46,46,0,0,1-5.2,1.23c-.81.127-1.625.276-2.44.4l-1.288.125V81.623h-9.287V64.1a50.8,50.8,0,0,1-14.132-3.264l.15-.4a48.029,48.029,0,0,0,13.982,3.215l.417.049h0l.987.076h.725l.9.051h-.518l-.763-.051-.773-.024-.555-.051h0l-.417-.049V56.914l-1.408-.176c-.865-.125-1.723-.251-2.578-.427a32.992,32.992,0,0,1-5.121-1.331A49.015,49.015,0,0,1,1063.523,53c-.631-.3-1.255-.6-1.87-.906l-.923-.527-1.341,2.361.014.051c.306.427.6.828.892,1.279l.285.427.716,1.182.2.352.168.276.256.476.257.5.325.6.188.4.236.479.206.427.153.352.272.627.324.779.246.676.168.479.178.476.218.679.352,1.179.072.251c.2.7.384,1.458.545,2.209l.315,1.658.136.83c.031.225.06.452.088.676h0l-.224-1.531-.314-1.633c-.16-.752-.341-1.506-.545-2.209l-.172-.6-.374-1.179-.274-.8-.306-.83-.275-.7-.3-.7-.285-.676-.442-.906-.347-.7-.422-.8-.424-.752-.917-1.533-.285-.427c-.289-.452-.587-.852-.892-1.279-.094-.127-.189-.276-.286-.4l-.95-1.23Zm28.5,11.9c-.395.049-.789.1-1.185.125-.763.051-1.527.1-2.293.1q-1.7.04-3.4,0c-.52-.049-1.039-.049-1.558-.1H1078v17.1h8.453V64Zm-33.6,16.121h7.447v-8.21h-7.447Zm86.872-.4a11.7,11.7,0,1,0-.757,0h.34v-10l-.5,3.516-.36.076-3.018-3.291.307-.276,2.721,2.939.852-5.928h.414Zm-213.8-7.383H903.2v7.356h22.729Zm-22.313,6.956h21.9V72.734h-21.9ZM697.806-162.989a13.325,13.325,0,0,1-5.115-10.447h0a13.287,13.287,0,0,1,13.237-13.184,13.3,13.3,0,0,1,13.237,13.21,13.272,13.272,0,0,1-3.54,8.989L728.07-160.6l-3.63,20.115-1.023-.024a58.959,58.959,0,0,1,10.053,1.882l.208.076-6.644,18.809v14.39h-10.7V79.238h-18.7v-184.57l-10.982.051.648-15.645L679.905-138.5l.143-.3a88.474,88.474,0,0,1,11.882-1.858l-2.664.051-5.218-19.336,13.374-3.291ZM148.9,27.734c-.049-.427-.085-.828-.107-1.255l-2.008-1.055a18.307,18.307,0,0,1-2.465.652c-.345,1.809-3.514,20.215,7.565,37.468a53.682,53.682,0,0,0,15.063,15.393c-3.567-4.094-2.953-7.81-2.689-8.84h-2.217V62.99h12.186a58.179,58.179,0,0,1-17.624-16.7,1.227,1.227,0,0,1-.438-.276,4.818,4.818,0,0,1-.974-1.13,46.268,46.268,0,0,1-6.148-16.1c-.126-.652-.168-1.055-.168-1.055ZM710.208,78.811h5.709V-105.281h-5.709Zm-12.162,0h5.71V-105.281h-5.71Zm6.127,0h5.618V-105.281h-5.618ZM295.6,69.67h-54.46v8.489H295.6Zm167.344,0H408.481v8.489h54.461Zm-83.488,0h-52.54v8.489h52.54ZM408.9,77.707h53.627V70.1H408.9Zm-167.342,0h53.627V70.1H241.556Zm85.774,0h51.707V70.1H327.33Zm855.26-46.23-.018.076-5.172,2.385a44.725,44.725,0,0,1-2.028,4.846,98.692,98.692,0,0,0-3.423,17.778c-.5,5.928-.2,12,2.222,15.745a9.565,9.565,0,0,1,1.669.127,94.512,94.512,0,0,1,15.364,3.037c5.729,1.533,10.1,2.637,19.882,1.282,9.824-1.331,18.694-3.215,26.312-3.918a43.919,43.919,0,0,1,11.078.076c10.61-16.3,6.961-30.762,6.689-41.433-.267-10.247-4.048-26.67-4.282-27.7L1239.121.939l.4,3.391L1215.19-1.746l3.549-37.09a39.983,39.983,0,0,1-2.6,8.513l-.1.2-6.173-3.164-9.254,8.086-2.931,17.778-8.2,4.8a16.153,16.153,0,0,1,2.321,6.453,18.7,18.7,0,0,1,5.68.4,9.473,9.473,0,0,1,5.571,3.34c1.508,1.982,2.221,5,1.13,9.617l-.013.051-1.245,1.306a20.456,20.456,0,0,1,6.82.852c1.263.527,2.189,1.257,2.307,2.461.146,1.458.525,2.813.707,4.119a5.652,5.652,0,0,1-.853,4.395c.313.879,1.958,5.676,1.791,9.543-.19,4.395-5.042,4.646-5.042,4.646l-.384.049.19-.352c2.181-3.816-.329-7.559-4.654-9.041a14.54,14.54,0,0,0-10.363.527,18.759,18.759,0,0,1,1.015,4.395,5.964,5.964,0,0,1,4.757.3h.032a32.172,32.172,0,0,1,4.484,1.658,6.692,6.692,0,0,1,2.522,1.907c1.584,2.185,1.236,4.27.584,8.086a24.056,24.056,0,0,1-2.215,7.031,8.01,8.01,0,0,1-2.358,2.988c-2.148,1.406-5.136,1.406-8.406.378a4.918,4.918,0,0,1-2.553-1.433,2.659,2.659,0,0,1-.479-1.631,15.33,15.33,0,0,1,.235-2.285,26.794,26.794,0,0,1,.921-4.8l.4.151a25.893,25.893,0,0,0-.907,4.695v.027a14.627,14.627,0,0,0-.231,2.209,2.066,2.066,0,0,0,.4,1.355,4.613,4.613,0,0,0,2.343,1.331c3.132.955,6,1.006,8.056-.352a7.161,7.161,0,0,0,2.215-2.861,22.835,22.835,0,0,0,2.172-6.855h0c.627-3.691,1.01-5.676-.514-7.834h0a5.871,5.871,0,0,0-2.361-1.709c-.6-.3-1.246-.552-1.884-.828a5.9,5.9,0,0,1,1.476,1.179l.02.051.01.049a19.677,19.677,0,0,1,.86,3.918,8.036,8.036,0,0,1-.41,4.067c-1.326,2.964-4.372,5.273-7.592,3.792-1.978-.928-3.7-2.083-4.369-3.867a6.685,6.685,0,0,1,.332-4.746c1.616-4.167,2.014-5.449,2.083-5.674a13.817,13.817,0,0,0-2.226-6.807h-.074a.359.359,0,0,1-.27-.1c-.062-.024-.092-.125-.1-.225a.314.314,0,0,1,.026-.151h.053A6.626,6.626,0,0,0,1190.216,32l-.256.251-.3-.3.2-.176c-.011-.024-.022-.024-.035-.024a5.226,5.226,0,0,0-1.633-.679c-.153.452-.308.93-.471,1.382l-.393-.151c.156-.427.307-.879.456-1.306a9.455,9.455,0,0,0-4.191.2C1183.25,31.3,1182.916,31.4,1182.591,31.477Zm113.684,45.652a15.952,15.952,0,1,0-.939.051h.523V62.238L1295,70.2l-.378.076-4.3-6.025.341-.251,3.98,5.574,1.22-11.25.416.051ZM489.685,46.191a16.385,16.385,0,1,0-7.472,30.989h.523V61.435l-.866,6.377-.36.1-4.3-4.746.308-.276,4,4.446,1.219-9.016.416.051V77.128a15.241,15.241,0,0,0,6.533-1.758v-.024l.111-.051a16.416,16.416,0,0,0,8.667-12.805V59.074A16.376,16.376,0,0,0,489.8,46.291l-.111-.049Zm927.761,30.938a15.958,15.958,0,1,0-.945.051h.528V61.987l-.959,8.21-.375.076-4.211-6.025.333-.251,3.9,5.574,1.306-11.25.417.051Zm-745.1,0a15.951,15.951,0,1,0-.938.051h.521V62.238l-.864,7.959-.377.076-4.3-6.025.339-.251,3.981,5.574,1.22-11.25.415.051Zm-622.919,0a15.911,15.911,0,1,0-.848.051h.431V69.521l-5.423-5.273.29-.251,5.55,5.374Zm130.663-10.8c.008.076.013.176.014.251v3.291a25.06,25.06,0,0,0,4.141,7.256l3.149-7.607C184.781,68.515,182.323,67.412,180.094,66.33Zm798.16,5.576h-7.046a7.364,7.364,0,0,1,3.523,4.57l.19-.627a8.876,8.876,0,0,1,.458-1.055,10.646,10.646,0,0,1,.692-1.055,6.655,6.655,0,0,1,.857-.854,4.018,4.018,0,0,1,.839-.679Zm13.733,0h-7.019l.474.3a3.991,3.991,0,0,1,.842.679,4.846,4.846,0,0,1,.859.9,6.425,6.425,0,0,1,.682,1.006,9.031,9.031,0,0,1,.448,1.055l.183.627A7.285,7.285,0,0,1,991.987,71.906Zm116.977,2.737h.005a3.506,3.506,0,0,0,4.657,1.306l.056-.051a5.613,5.613,0,0,1-4.718-1.255Zm10.386-8.237a3.442,3.442,0,0,0-2.649-1.255,3.559,3.559,0,0,0-1.682.427l-5.484,3.113a3.617,3.617,0,0,0-1.548,4.143,5.417,5.417,0,0,0,4.73,2.712,5.728,5.728,0,0,0,2.731-.7l1.833-1.1a5.405,5.405,0,0,0,2.068-7.334Zm-588.1,8.362H518.125V57.792h13.127Zm27.982-16.975V74.768H546.107V57.792ZM798.36,74.416H785.232v-17.1H798.36Zm60.535,0H845.769v-17.1H858.9Zm-29.9-17.1v17.1H815.866v-17.1Zm-282.471,17h12.294V66.633H546.524Zm-27.982,0h12.294V66.633H518.541Zm-19.661,0h10.83V66.633H498.88Zm347.305-.352h12.293V66.23H846.186Zm-29.9,0h12.294V66.23H816.283Zm-30.634,0h12.293V66.23H785.649Zm86.229-.076h10.286V66.23H871.878Zm248.475-5.9a6.016,6.016,0,0,1,.094,1.055,5.631,5.631,0,0,1-1.318,3.643,3.444,3.444,0,0,0,1.276-4.6Zm-1.616-2.686c-.852-1.482-2.357-4.17-2.355-4.17a5.543,5.543,0,0,0-6.2-2.537l.081.127-4.294,2.51-.092-.176a5.581,5.581,0,0,0-.931,6.631s1.594,2.686,2.467,4.167a3.987,3.987,0,0,1,1.912-3.516l5.491-3.113a3.989,3.989,0,0,1,3.923.076Zm-150.2,6.2a9.067,9.067,0,0,0-1.33,0Zm10.728-.024H970.2c.036,0,.072.024.108.024h8.852C979.194,71.5,979.23,71.479,979.266,71.479Zm3.04.024a6.943,6.943,0,0,0-.716-.024,6.042,6.042,0,0,0-.667.024ZM993,71.479h-9.043c.038,0,.074.024.108.024h8.824C992.928,71.5,992.964,71.479,993,71.479Zm2.4,0-.735.024h1.4A6.026,6.026,0,0,0,995.4,71.479Zm2.433.024h54.6v-.024H997.721C997.758,71.479,997.793,71.5,997.83,71.5Zm40.331-32.947a75.359,75.359,0,0,0-28.7-5.247c-26.354.149-52.659,12.856-55.892,37.766h112.185l-27.411-32.292.142-.1-.324-.127.182.227-.046.024Zm6.2,2.939-1.429-.754-1.354-.652-.545-.251-.827-.4-1.169-.5-.007-.027-.545-.225.552.251,26.65,31.689.068.452-.06-.452h-.008l-.111-.7-.106-.652-.138-.654-.208-1-.187-.754-.2-.8-.219-.752-.227-.73-.249-.752-.308-.879-.316-.8-.213-.5-.314-.754-.314-.7-.639-1.279-.689-1.282-.734-1.23-.782-1.23-.432-.6-.445-.627-.807-1.055-.485-.6-.489-.576-.884-1.006-.528-.576-.532-.527-.4-.4-.619-.6-.81-.752-.578-.479-.777-.7-.52-.4-.684-.527-1.094-.83-.714-.527-.636-.452-1.149-.752-.214-.127-1.128-.7-.156-.076ZM213.532,63.417l-1.449,6.328,18.726-.076V66.582a3.264,3.264,0,0,0-3.174-3.164Zm-6.761,1.406a3.1,3.1,0,0,0-2.547-1.406H190.163V69.67h17.144V66.857l-.545-2.034Zm-44.315-1.406V69.67h17.235V66.582a3.265,3.265,0,0,0-3.174-3.164Zm217-5.525h-52.54v8.464h52.54Zm83.488,0H408.481v8.464h54.461Zm-167.344,0h-54.46v8.464H295.6ZM408.9,65.93h53.627V58.271H408.9Zm-167.342,0h53.627V58.271H241.556Zm85.774,0h51.707V58.271H327.33Zm171.55-2.688v2.612h10.831V58.2H498.88v.125a16.8,16.8,0,0,1,.182,2.461A16.282,16.282,0,0,1,498.88,63.242Zm47.643,2.612h12.294V58.2H546.524Zm-27.982,0h12.294V58.2H518.541ZM846.186,65.5h12.293V57.768H846.186Zm-29.9,0h12.294V57.768H816.283Zm-30.634,0h12.293V57.768H785.649Zm-13.527-9.768H760.136v9.014h11.975ZM635.407,54.5H582.958v9.944h52.449Zm290.52,2.461H903.2v7.383h22.729ZM583.375,64H634.99V54.9H583.375Zm320.239-.1h21.9V57.417h-21.9Zm177.99-.076h1.376c.766-.051,1.53-.076,2.293-.127l1.178-.1V56.838h0c-.77.076-1.541.176-2.314.227-.8.024-1.609.024-2.414.024h-1.159c-.852-.024-1.7-.076-2.55-.125H1078v6.729Zm21.627-12.532q-.438.264-.881.527c-.592.327-1.192.627-1.8.93a46,46,0,0,1-4.76,1.982,38.982,38.982,0,0,1-5.036,1.406,22.048,22.048,0,0,1-2.528.479l-1.36.176v6.755l1.5-.151c.937-.151,1.869-.327,2.8-.5a54.12,54.12,0,0,0,5.663-1.482,47.851,47.851,0,0,0,5.782-2.285c.894-.4,1.773-.879,2.64-1.331.446-.251.888-.527,1.326-.728v-.051l-3.337-5.725Zm6.33,7.031-1.027-1.758-3.488,2.061.943,1.758a6.918,6.918,0,0,1,.774-.554l1.923-1.1C1108.97,58.6,1109.264,58.471,1109.561,58.32Zm9.309-22.5c-.228.4-.461.754-.7,1.155-.485.754-.992,1.482-1.522,2.236a46.513,46.513,0,0,1-4.45,5.2,41.063,41.063,0,0,1-5.2,4.419c-.727.527-1.472,1.055-2.232,1.558l-1.16.7,3.337,5.75.013-.049a14.614,14.614,0,0,0,1.484-.93c.945-.552,1.869-1.23,2.771-1.882a51.079,51.079,0,0,0,5.651-4.922,47.582,47.582,0,0,0,4.855-5.676c.667-.928,1.3-1.833,1.909-2.761.313-.479.617-1.006.913-1.482l.01-.051-5.66-3.313ZM1078,21.206V56.513h0c.88.1,1.761.149,2.645.2h1.524a5.171,5.171,0,0,0,.89-.051,16.54,16.54,0,0,0,2.222-.149l1.172-.076V22.46l-.749-1.255Zm-.417,35.281v-34.8l-16.647,29.531.884.479c.581.3,1.169.6,1.765.879a45.5,45.5,0,0,0,4.693,1.934,41.5,41.5,0,0,0,5.2,1.355c.878.176,1.761.352,2.649.452.482.076.967.127,1.452.176Zm25.453-5.549-16.166-27.773V56.386l1.413-.225a22.617,22.617,0,0,0,2.565-.479,44.692,44.692,0,0,0,5.1-1.431,43.238,43.238,0,0,0,4.537-1.958c.571-.251,1.135-.554,1.693-.854Zm-723.58-4.119H327.646v8.389h51.808Zm83.488,0H409.305v8.389h53.637Zm-167.344,0H241.962v8.389H295.6Zm114.124,7.937h52.8v-7.51h-52.8Zm-167.344,0h52.8v-7.51h-52.8Zm85.684,0h50.975v-7.51H328.063ZM1197.735,40.39a5.124,5.124,0,0,0-3.269.176c-.1.352-.539,1.733-2.083,5.725a6.134,6.134,0,0,0-.331,4.395c.631,1.758,2.283,2.813,4.154,3.643,3,1.406,5.8-.779,7.037-3.567a7.688,7.688,0,0,0,.374-3.867,18.652,18.652,0,0,0-.827-3.767,9.733,9.733,0,0,0-3.684-2.285c-.831-.225-1.39-.352-1.39-.352Zm-140.11,11.3.723.879.771,1,1.248-2.185c-.414-.276-.826-.5-1.231-.752q-1.217-.791-2.382-1.582a45.76,45.76,0,0,1-5.445-4.622,42.348,42.348,0,0,1-4.629-5.449c-.557-.752-1.091-1.531-1.6-2.361l-.752-1.23-5.393,3.04.96.427.62.276.749.352.552.251.7.352.557.251.347.2.748.376.531.327.981.552.265.151,1.977,1.206,1.847,1.279.429.352.6.452.769.579.518.427.386.352.591.476.421.352.318.3.361.352.315.276.282.276.32.3.427.427.278.327.364.352.2.2.477.527.461.527Zm82.812-.227a6.034,6.034,0,0,1-4.505,1.182,3.3,3.3,0,0,0,1.613.4A3.431,3.431,0,0,0,1140.437,51.464Zm.468-11.123a3.35,3.35,0,0,0-1.406-.3,3.39,3.39,0,0,0-2.914,1.682s-3.206,5.5-3.2,5.5a3.38,3.38,0,0,0,1.237,4.595,5.462,5.462,0,0,0,6.911-2.234l1.1-1.934a5.44,5.44,0,0,0,.731-2.737A5.53,5.53,0,0,0,1140.9,40.341Zm-1.238-.7-4.19-2.412a5.475,5.475,0,0,0-2.732-.7,5.412,5.412,0,0,0-3.917,1.633l.183.076-2.5,4.219-.114-.027a5.442,5.442,0,0,0,2.522,6.152s2.759,1.609,4.261,2.461a3.775,3.775,0,0,1-.66-2.109,3.926,3.926,0,0,1,.5-1.907s3.206-5.476,3.2-5.476a3.725,3.725,0,0,1,3.275-1.907Zm-267.789,11.4h10.286V43.378H871.878Zm204.853-34.026-32.037,18.157.744,1.23c.5.779,1.028,1.582,1.581,2.385a47.089,47.089,0,0,0,4.583,5.349A40.962,40.962,0,0,0,1057,48.7c.76.527,1.537,1.055,2.33,1.531l1.245.754,17.01-30.134v-.1h.049l1.034-1.858A6.069,6.069,0,0,1,1076.731,17.011Zm9.965.051a5.908,5.908,0,0,1-1.837,1.833l1.081,1.858h.927v1.582l16.524,28.4,1.148-.7c.753-.5,1.49-.979,2.211-1.506a43.107,43.107,0,0,0,5.153-4.446,39.883,39.883,0,0,0,4.407-5.146q.788-1.055,1.508-2.185l.706-1.13ZM828.354,49.707H815.317V32.656h13.036Zm-29.9-17.051V49.707H785.325V32.656Zm61.45,0V49.707H846.775V32.656ZM815.734,49.279h12.2V41.6h-12.2Zm31.458,0h12.293V41.6H847.192Zm-61.45,0h12.294V41.6H785.742Zm140.184-7.659H903.2v7.358h22.729ZM531.251,48.7H518.125V31.652h13.127Zm-21.123,0H497V31.652h13.128Zm49.105-17.051V48.7H546.107V31.652Zm344.38,16.924h21.9V42.023h-21.9Zm-357.09-.3h12.294v-7.71H546.524Zm-27.982,0h12.294v-7.71H518.541Zm-21.124,0h12.294v-7.71H497.417Zm274.727-11.1H760.136v9.114h12ZM635.407,36.123H582.958v9.944h52.449Zm507.018,5.071a5.708,5.708,0,0,1,1.348,3.718,6.538,6.538,0,0,1-.078.979l.026-.051a3.5,3.5,0,0,0-1.294-4.646Zm-559.05,4.421H634.99V36.523H583.375ZM153.906,41.9c.239.427.475.879.7,1.257.335.627.656,1.1.953,1.555C154.959,43.73,154.407,42.8,153.906,41.9ZM1211.6,30.722a6.4,6.4,0,0,1-.9.93l-.108.1-.125-.1a26.084,26.084,0,0,0-7.162-2.412c-2.479-.352-5.125-.225-7.057,1.406a28.512,28.512,0,0,1-3.574,2.588c-.16.076-.3.176-.415.225a9.986,9.986,0,0,1,1.035,1.934c5.768-2.461,11.551-1.155,14.45,1.709a5.816,5.816,0,0,1,1.273,7.031c1.088-.176,4.123-.93,4.266-4.27C1213.436,36.4,1212.052,32.053,1211.6,30.722Zm-832.15,4.922H329.2v8.413h50.254Zm83.488,0H410.86v8.413h52.082Zm-167.344,0H243.517v8.413H295.6Zm-51.665,7.961h51.249V36.1H243.934Zm85.683,0h49.421V36.1H329.616Zm81.661,0h51.249V36.1H411.277Zm460.6-1.006h10.286V34.917H871.878Zm256.3-4.368-1.751-1.006-1.99,3.516,1.727,1.006c.1-.251.224-.5.368-.779l1.1-1.885A7.1,7.1,0,0,1,1128.176,38.232ZM847.192,40.793h12.293V33.059H847.192Zm-61.45,0h12.294V33.059H785.742Zm29.992,0h12.2V33.059h-12.2ZM518.541,39.787h12.294V32.053H518.541Zm27.982,0h12.294V32.053H546.524Zm-49.107,0h12.294V32.053H497.417Zm633.971-25.664h-6.481c0,.6-.019,1.257-.05,1.885q-.077,1.582-.274,3.164A42.411,42.411,0,0,1,1123.4,25.2a45.809,45.809,0,0,1-2.275,6.328c-.4.879-.83,1.758-1.288,2.588-.158.3-.321.6-.488.879l-.25.427,5.659,3.313h.008c.36-.627.709-1.279,1.041-1.907q.909-1.772,1.677-3.542c.484-1.155.926-2.334,1.323-3.489q.592-1.772,1.049-3.542a48.124,48.124,0,0,0,1.22-6.653c.132-1.13.222-2.312.272-3.467.028-.652.042-1.306.043-1.958Zm-6.9,0H1087.6a5.966,5.966,0,0,1-.689,2.588l31.827,18.557.7-1.282c.433-.8.844-1.631,1.224-2.461a41.564,41.564,0,0,0,2.164-5.85c.3-1.006.556-2.061.774-3.064q.325-1.582.531-3.164.217-1.659.3-3.315c.035-.652.053-1.306.057-1.958Zm-48.64.076-36.894.327h0c.01.6.033,1.255.07,1.882.064,1.055.169,2.136.314,3.191a41.872,41.872,0,0,0,1.277,6.025,40.959,40.959,0,0,0,2.075,5.625c.36.8.744,1.582,1.151,2.385l.643,1.182,32.037-18.181A5.852,5.852,0,0,1,1075.851,14.2ZM925.926,26.252H903.2v7.383h22.729Zm256.331,4.922c.313-1.028,1.857-6.2,1.857-9.265,0-3.215-1.326-18.281-1.526-20.591l-5.709,2.461c.056.2.113.352.168.552,2.171,6.755,4.5,17.251.539,29.08l.139-.1h-.011A20.355,20.355,0,0,1,1182.257,31.174ZM903.614,33.183h21.9V26.63h-21.9Zm288.392-.024a30.61,30.61,0,0,0,3.979-2.812c2.021-1.733,4.787-1.909,7.383-1.506a27.407,27.407,0,0,1,7.171,2.361,5.084,5.084,0,0,0,1.811-5.173c-.182-1.306-.563-2.688-.71-4.119a2.218,2.218,0,0,0-1.023-1.606,7.632,7.632,0,0,0-2.26-.906,22.611,22.611,0,0,0-5.824-.4v-.051L1190.505,31.7A5.891,5.891,0,0,1,1192.006,33.159ZM379.454,24.494H330.938v8.464h48.516Zm-83.854,0H245.346v8.464H295.6Zm167.342,0H412.6v8.464h50.345ZM331.355,32.58h47.683V24.921H331.355Zm-85.592,0h49.421V24.921H245.763Zm167.252,0h49.512V24.921H413.014Zm777.136-1.155,13.642-14.414c1.031-4.395.377-7.283-1.071-9.165a9.191,9.191,0,0,0-5.335-3.215,19.346,19.346,0,0,0-5.514-.4c.835,5.222.654,13.711-3.551,26.467a5.645,5.645,0,0,1,1.711.7C1190.073,31.4,1190.112,31.425,1190.151,31.425Zm-1.028-33.875-6.066,3.564h.013l-.078.051c.15,1.658,1.54,17.427,1.54,20.742,0,2.888-1.349,7.634-1.791,9.089.246-.049.5-.149.752-.176a10.091,10.091,0,0,1,4.422-.225C1195.463,7.746,1190-1.219,1189.122-2.449ZM772.361,25.576l8.3-.251V18.693H760.136v8.992h12.019V25.576ZM635.407,17.714H582.958v9.944h52.449Zm-52.032,9.543H634.99V18.166H583.375ZM825.012,12.014H781.079V25.576h81.515V12.014l-2.508.051H846.957v-.051h-8.819v.051H825.012ZM510.128,22.561H497V5.585h13.128ZM559.234,5.585V22.561H546.107V5.585ZM531.251,22.561H518.125V5.585h13.127Zm15.272-.452h12.294V14.526H546.524Zm-49.107,0h12.294V14.526H497.417Zm21.124,0h12.294V14.526H518.541ZM379.454,13.471H329.565v8.337h49.889Zm-83.854,0H243.882v8.337H295.6Zm167.342,0H411.224v8.337h51.718Zm623.242,7.734.267.427v-.427Zm-841.885.2h50.884V13.847H244.3Zm167.342,0h50.884V13.847H411.641Zm-81.66,0h49.055V13.847H329.982Zm682.179-3.416a3.451,3.451,0,0,0,3.439,3.291h.011A5.758,5.758,0,0,1,1012.161,17.99Zm5.018-9.893a5.661,5.661,0,0,0-5.089,5.1l.022,1.531.046,1.106a5.405,5.405,0,0,0,5.024,5.374,3.476,3.476,0,0,0,3.246-3.44l-.09-6.279A3.639,3.639,0,0,0,1017.179,8.1Zm11.638,3.967A5.592,5.592,0,0,0,1023.475,8s-3.274.049-4.961.1a3.978,3.978,0,0,1,2.24,3.34l.09,6.328a3.949,3.949,0,0,1-2.111,3.44l4.919-.1a5.389,5.389,0,0,0,5.222-4.119h-.217V12.065Zm55.681,7.056c-.19.1-.386.176-.587.276-.32.127-.65.2-.988.3a3.826,3.826,0,0,1-.743.1,5.818,5.818,0,0,1-1.743-.151c-.307-.076-.609-.176-.9-.251l-.513-.276-.917,1.633h7.351l-.959-1.633Zm60.325-11.777h-4.851a5.588,5.588,0,0,0-5.3,4.17h.1l.1,4.9h-.178a5.516,5.516,0,0,0,5.27,4.094h4.846a3.913,3.913,0,0,1-2.129-3.391v-6.3A3.957,3.957,0,0,1,1144.824,7.343Zm6.551,9.795a5.948,5.948,0,0,1-3.3,3.364A3.515,3.515,0,0,0,1151.375,17.138Zm-5.115-9.744a3.441,3.441,0,0,0-3.155,3.416v6.3a3.555,3.555,0,0,0,3.171,3.391,5.565,5.565,0,0,0,5.1-5.474V12.844A5.5,5.5,0,0,0,1146.259,7.395ZM882.581,20.175H869.453V3.225h13.128Zm-12.711-.427h12.293V12.014H869.87Zm210.55-3.088-1.191,2.109a5.25,5.25,0,0,0,2.495.627h.028a5.15,5.15,0,0,0,2.54-.652l-1.212-2.085a3.294,3.294,0,0,1-1.313.327h-.047A3.221,3.221,0,0,1,1080.42,16.66ZM1079.2,15.6l-2.107,1.182a5.479,5.479,0,0,0,1.775,1.758l1.19-2.109A2.88,2.88,0,0,1,1079.2,15.6Zm5.086.051a2.505,2.505,0,0,1-.842.779l1.206,2.109a5.264,5.264,0,0,0,1.687-1.709Zm-158.359-4.7H903.2v7.283h22.729Zm-22.313,6.855h21.9V11.386h-21.9Zm179.256-1.506-1.145-1.982-1.1,1.982a3.125,3.125,0,0,0,1.1.227h.042A3.145,3.145,0,0,0,1082.87,16.308Zm4.309-2.185h-2.333a3.035,3.035,0,0,1-.342,1.182l2.043,1.179A5.223,5.223,0,0,0,1087.179,14.123Zm-8.49.051h-2.421a5.493,5.493,0,0,0,.617,2.261l2.105-1.206A2.971,2.971,0,0,1,1078.689,14.174Zm5.235,1.255-1.626-.9.935,1.558A2.122,2.122,0,0,0,1083.924,15.429Zm-3.662.654.907-1.609-1.608.906A2.246,2.246,0,0,0,1080.263,16.083Zm53.9-4.17h-2.034v4.094h2.05a5.754,5.754,0,0,1-.088-.979V12.844A6.54,6.54,0,0,1,1134.166,11.914Zm-49.74,2.209h-1.932l1.65.955A2.334,2.334,0,0,0,1084.426,14.123Zm-5.072.906,1.568-.854h-1.814A2.485,2.485,0,0,0,1079.354,15.029Zm-40.945-25.615c-.357.627-.7,1.23-1.03,1.909q-.9,1.7-1.67,3.54a46.257,46.257,0,0,0-2.36,7.007,47.409,47.409,0,0,0-1.213,6.58c-.132,1.155-.222,2.334-.272,3.464-.028.654-.043,1.331-.044,1.985v.276l6.716-.051.008-1.1c.011-.579.035-1.106.068-1.658a42.92,42.92,0,0,1,3.955-15.569c.324-.654.666-1.357,1.026-2.009l.579-1.055-5.76-3.315Zm6.114,3.516c-.187.3-.37.654-.547.979-.357.7-.7,1.357-1.017,2.061a39.731,39.731,0,0,0-2.007,5.1,40.234,40.234,0,0,0-1.3,5.173,41.9,41.9,0,0,0-.628,5.146c-.033.579-.054,1.106-.067,1.682l-.007,1.055,36.893-.352a5.993,5.993,0,0,1,.673-2.61L1044.533-7.12Zm32.356,18.457a5.389,5.389,0,0,0-.617,2.385h2.419a3.065,3.065,0,0,1,.283-1.2Zm2.449,1.406a2.933,2.933,0,0,0-.229.93h1.855Zm-532.8.93h12.294V5.988H546.524Zm-49.107,0h12.294V5.988H497.417Zm21.124,0h12.294V5.988H518.541ZM1119.047-6.844,1086.962,11.21a5.649,5.649,0,0,1,.637,2.512h36.891q-.006-.981-.05-1.885-.079-1.582-.275-3.164A42.506,42.506,0,0,0,1120.9-3.152c-.367-.8-.76-1.633-1.178-2.412Zm5.967-3.34-5.6,3.113a42.927,42.927,0,0,1,5.5,20.793h6.48c0-.654-.021-1.282-.049-1.934-.051-1.13-.143-2.236-.272-3.391a50.079,50.079,0,0,0-1.194-6.5,51.329,51.329,0,0,0-2.289-6.855c-.489-1.13-1.021-2.31-1.6-3.416Q1125.519-9.318,1125.014-10.184ZM1086.6,11.438l-2.04,1.13a3.1,3.1,0,0,1,.292,1.155h2.33A5.092,5.092,0,0,0,1086.6,11.438Zm-2.4,1.331-1.676.955h1.915A2.646,2.646,0,0,0,1084.2,12.768Zm-.921-1.106-.988,1.709,1.707-.955A3.091,3.091,0,0,0,1083.274,11.662Zm-3.045.051a2.051,2.051,0,0,0-.7.728l1.641.93Zm1.7-.5v1.934l.982-1.658A1.941,1.941,0,0,0,1081.93,11.21Zm-.417,0a3.747,3.747,0,0,0-.926.276l.926,1.658Zm-2.65-1.934a5.7,5.7,0,0,0-1.776,1.758l2.078,1.182a2.618,2.618,0,0,1,.86-.854Zm5.8,0-1.181,2.034a3.365,3.365,0,0,1,.873.879l2.039-1.155A5.6,5.6,0,0,0,1084.665,9.277Zm-225,2.336V3.627H847.374v7.935Zm-21.947-.051V3.627H825.429v7.886ZM1015.493,8.1h-.064a3.538,3.538,0,0,0-3.362,3.416A6.135,6.135,0,0,1,1015.493,8.1ZM869.87,11.262h12.293V3.627H869.87Zm211.643-2.812a5.793,5.793,0,0,0-2.287.6l1.156,2.083a2.535,2.535,0,0,1,1.131-.325Zm.417,0v2.334a2.533,2.533,0,0,1,1.194.352L1084.3,9.1A5.439,5.439,0,0,0,1081.93,8.449Zm21.519-31.289L1084.875,8.925a5.851,5.851,0,0,1,1.883,1.934L1118.841-7.2l-.714-1.182c-.481-.8-.987-1.555-1.515-2.285a47.058,47.058,0,0,0-4.459-5.374,43.643,43.643,0,0,0-5.246-4.519c-.736-.527-1.49-1.055-2.258-1.533Zm-42.863-.352a14.029,14.029,0,0,0-1.22.752c-.8.479-1.574,1.006-2.336,1.533a44.708,44.708,0,0,0-5.379,4.519,47.419,47.419,0,0,0-4.6,5.374c-.549.779-1.071,1.533-1.57,2.336l-.743,1.206,31.983,18.281a5.882,5.882,0,0,1,1.934-1.909l-18.067-32.092ZM379.454,2.3H327.828v8.438h51.626ZM295.6,2.3H242.145v8.438H295.6Zm167.345,0H409.4v8.438h53.547ZM1148.06,7.343a6.638,6.638,0,0,1,1.994,1.331,6.425,6.425,0,0,1,1.319,2.009A3.526,3.526,0,0,0,1148.06,7.343Zm-905.5,2.988h52.621V2.7H242.562Zm85.683,0h50.792V2.7H328.245Zm81.569,0h52.713V2.7H409.814ZM811.535-.115H759.719V9.8h51.815ZM760.136,9.4h50.98V.312h-50.98ZM635.407-.643H582.958V9.277h52.449ZM583.375,8.9H634.99V-.215H583.375ZM1081.93-28.868V8.046a5.924,5.924,0,0,1,2.583.654l18.577-31.768-1.224-.7c-.817-.427-1.65-.828-2.495-1.23a40.324,40.324,0,0,0-5.841-2.158c-1.03-.3-2.072-.554-3.123-.779q-1.551-.341-3.123-.527a29.874,29.874,0,0,0-3.327-.3c-.671-.049-1.344-.1-2.015-.1Zm-.434,0c-.62,0-1.241.051-1.861.1-1.058.051-2.114.127-3.164.251a37.618,37.618,0,0,0-5.976,1.206,35.174,35.174,0,0,0-5.834,2.058c-.832.352-1.652.754-2.458,1.182l-1.249.652L1079.022,8.7a6.341,6.341,0,0,1,2.492-.654V-28.868Zm164.83-8.437-11.646,2.261a8.2,8.2,0,0,1,.143.828c.585,4.043,3.21,26.016,4.244,34.7l19.95,4.846-8.854-34.553-2.721-1.406-.028-.076a23.757,23.757,0,0,1-1.39-4.495,4.421,4.421,0,0,1-.047-1.355,1.237,1.237,0,0,1,.279-.654Zm-26.683-72.471a9.637,9.637,0,0,1,2.754,4.443c1.2,3.44,1.8,8.362,1.969,14.038.445,15.142-2.211,35.808-4.872,48.943l-3.856,40.3,23.4,5.828c-.393-3.315-3.936-33.174-4.626-37.92h0a6.291,6.291,0,0,0-4.782-5.474l-.139-.327c6.844-15.142,7.3-51.277,6.113-57.129a17.537,17.537,0,0,0-3.6-6.8,36.522,36.522,0,0,0-3.266-3.591h-.024l0-.051a22.183,22.183,0,0,0-1.883-1.707C1224.16-109.5,1221.772-109.676,1219.643-109.776Zm-47.295,82.893a14.388,14.388,0,0,0-1.255,3.691,3.229,3.229,0,0,0,.831,3.213A18.812,18.812,0,0,1,1177.844.815l-.852,2.485,5.475-2.361-2.2-3.691,1.876-22.2a10.328,10.328,0,0,1-1.547,1.279l-.092.076Zm-.379-.176-4.232-1.582a4.733,4.733,0,0,0-4.336,3.74,3.476,3.476,0,0,0,.189,1.658,22.229,22.229,0,0,0,1.737,3.918c2.187,4.043,5.663,9.141,7.728,12.832a15.02,15.02,0,0,1,1.687,3.816c.19,1.106.988,3.088,1.889,5.752l.818-2.412a18.431,18.431,0,0,0-5.784-20.339,3.592,3.592,0,0,1-.984-3.567A14.538,14.538,0,0,1,1171.97-27.059ZM925.926-4.383H903.2V2.873h22.729ZM903.614,2.473h21.9V-3.982h-21.9ZM1213.59-109.979a36.848,36.848,0,0,0-9.3.654,4.131,4.131,0,0,0-1.8.828.755.755,0,0,0-.136.327l0-.051-.2.076-.032.176s-2.154-.3-3.8,2.737a17.2,17.2,0,0,1-5.182,5.652,9.451,9.451,0,0,1-4.215,1.858,3.775,3.775,0,0,0-2.929,2.51,3.855,3.855,0,0,0,.213,3.567c.2.076,1.744.854,5.349-.8h.083l2.915,1.23.035.125a1.194,1.194,0,0,1-.189,1.006,1.89,1.89,0,0,1-1.509.7,12.582,12.582,0,0,1-3.99-.427,2.481,2.481,0,0,1-.928-.051c-2.727,0-10.9.127-16.1,2.336-2.636,1.155-4.514,2.761-4.434,5.222a57.18,57.18,0,0,0,.485,8.262c.588,3.264,2.026,5.325,5.778,6.655l.1.024,1.1,3.491a27.2,27.2,0,0,1,6.066-5.6c1.366-.728,2.715-1.079,3.781-.476a9.915,9.915,0,0,1,3.081.476,4.927,4.927,0,0,1,2.815,2.209c.687,1.282.885,3.064.01,5.7l-.062.151a23.86,23.86,0,0,1-10.059,4.946l-.154.051-1.547-2.939L1175-52.9a3.93,3.93,0,0,0-.108,2.51c.392,1.533,1.7,3.591,5.329,5.625l.131.027-3.49,19.209,3.6,1.458c2.861-1.985,5.87-6.5,8.7-11.829,5.595-10.6,10.448-24.509,11.9-28.828-7.3,10.146-16.426,17.854-20.192,20.139l-.215-.352c5.56-3.389,22.88-18.633,28.531-36.135,5.616-17.4-7.96-25.889-7.96-25.889l.222-.352s13.856,8.662,8.135,26.367a58.216,58.216,0,0,1-7.692,15.042c-.264.828-5.8,17.754-12.363,30.183A45.7,45.7,0,0,1,1182.6-25.4L1180.7-2.852l2.148,3.616L1197.3-7.674l2.922-17.727,9.423-8.237C1220.012-79.317,1214.037-107.969,1213.59-109.979ZM379.454-8.777H327.828V-.44h51.626Zm-83.855,0H242.145V-.44H295.6Zm167.345,0H409.4V-.44h53.547ZM242.562-.818h52.621V-8.377H242.562Zm167.252,0h52.713V-8.377H409.814Zm-81.569,0h50.792V-8.377H328.245ZM559.234-20.479V-3.5H546.107V-20.479ZM510.128-3.5H497V-20.479h13.128Zm21.123,0H518.125V-20.479h13.127Zm-12.71-.452h12.294v-7.686H518.541Zm27.982,0h12.294v-7.686H546.524Zm-49.107,0h12.294v-7.686H497.417ZM1106.9-28.768l-3.245,5.576,1.213.752c.777.479,1.537,1.006,2.279,1.533a44.742,44.742,0,0,1,5.3,4.619,44.856,44.856,0,0,1,4.5,5.349c.535.754,1.045,1.558,1.53,2.336l.723,1.179,5.6-3.164h-.007c-.3-.527-.61-1.055-.928-1.531-.613-.979-1.259-1.934-1.939-2.888a57.708,57.708,0,0,0-4.906-5.825,54.1,54.1,0,0,0-5.731-5c-.925-.654-1.875-1.331-2.846-1.985-.5-.3-1.016-.6-1.531-.9Zm-49.737-.5c-.538.325-1.07.627-1.6.979-1.015.627-2.007,1.279-2.973,1.982a46.163,46.163,0,0,0-5.9,5,51.09,51.09,0,0,0-5.071,5.8c-.71.979-1.388,1.985-2.029,2.964-.333.5-.657,1.055-.97,1.606h0l5.759,3.315.752-1.282q.755-1.2,1.586-2.334a46.013,46.013,0,0,1,4.64-5.449,45.422,45.422,0,0,1,5.432-4.57q1.153-.791,2.358-1.582l1.24-.7-3.21-5.725Zm76.582,6.78c-1.5.828-4.286,2.41-4.289,2.41a5.348,5.348,0,0,0-2.819,4.722,5.029,5.029,0,0,0,.2,1.431l.133-.024,2.4,4.167-.2.127a5.563,5.563,0,0,0,6.668,1l4.314-2.361h-.235a3.861,3.861,0,0,1-3.335-1.934l-3.113-5.5A3.906,3.906,0,0,1,1133.748-22.488Zm-103.78-.127a3.707,3.707,0,0,1,.585,2.009,3.723,3.723,0,0,1-.5,1.885s-3.018,5.5-3.02,5.5a3.966,3.966,0,0,1-3.538,1.985c1.5.828,4.283,2.361,4.284,2.361a5.058,5.058,0,0,0,2.665.752,5.348,5.348,0,0,0,3.954-1.758l-.147-.076,2.4-4.319.149.1a5.135,5.135,0,0,0,.182-1.379,5.4,5.4,0,0,0-2.822-4.722ZM1126.6-13.3l-1.8.955,1.99,3.567,1.737-1.006a4.121,4.121,0,0,1-.539-.8l-1.006-1.934A4.938,4.938,0,0,1,1126.6-13.3ZM811.535-18.721H759.719v9.944h51.815Zm225.507,5.2a5.1,5.1,0,0,1-.4.828s-1.1,1.934-1.094,1.934a9.431,9.431,0,0,1-.5.8l1.8,1.006,1.991-3.567Zm-401.634-5.5H582.958V-9.08h52.449Zm124.73,9.795h50.98v-9.092h-50.98Zm122.445-.127H869.453v-17.1h13.128Zm-22.5-17.1v17.1H846.957v-17.1Zm-22.13,17.1H824.828v-17.1h13.127Zm-254.58-.176H634.99v-9.089H583.375Zm264-.251h12.293v-7.734H847.374Zm-22.129,0h12.294v-7.734H825.245Zm44.625,0h12.293v-7.734H869.87Zm271.983-11.475a5.572,5.572,0,0,0-6.715-1.985,3.528,3.528,0,0,0-1.294,4.622l3.107,5.449a3.372,3.372,0,0,0,2.972,1.758,3.145,3.145,0,0,0,1.634-.427,5.711,5.711,0,0,0,1.772-6.831ZM462.944-19.927H408.756v8.462h54.187Zm-167.344,0H241.414v8.462H295.6Zm83.854,0H327.189v8.462h52.265Zm649.431-3.315a5.46,5.46,0,0,0-2.588-.652,5.476,5.476,0,0,0-4.749,2.813l-1.1,1.934a5.517,5.517,0,0,0,1.915,7.256,3.546,3.546,0,0,0,4.3-1.555s3.018-5.476,3.02-5.476a3.4,3.4,0,0,0,.445-1.682A3.475,3.475,0,0,0,1028.885-23.243ZM241.831-11.893h53.353V-19.5H241.831Zm85.774,0h51.432V-19.5H327.606Zm81.568,0h53.353V-19.5H409.173Zm109.368-.527h12.294v-7.659H518.541Zm-21.124,0h12.294v-7.659H497.417Zm49.107,0h12.294v-7.659H546.524Zm379.4-7.356H903.2v7.307h22.729Zm218.247,2.61a6.21,6.21,0,0,1-1.283,4.622,3.576,3.576,0,0,0,1.285-4.622Zm-124.732-.276a3.545,3.545,0,0,0-.282,2.561,3.52,3.52,0,0,0,1.5,2.009A6.037,6.037,0,0,1,1019.441-17.442ZM903.614-12.9h21.9v-6.428h-21.9Zm-56.24-5.374h12.293V-26H847.374Zm22.5,0h12.293V-26H869.87Zm-44.625,0h12.294V-26H825.245ZM379.454-31.026H326.091v8.411h53.363Zm-83.855,0H240.315v8.411H295.6Zm167.344,0H407.568v8.411h55.374Zm678.017,8.186a4.337,4.337,0,0,0-.611-.7,3.741,3.741,0,0,0-2.846-.83,2.728,2.728,0,0,0-1.053.352h-.021A6.2,6.2,0,0,1,1140.959-22.84Zm-113.826-1.406a3.558,3.558,0,0,0-1.606-.4,3.376,3.376,0,0,0-2.931,1.682,5.931,5.931,0,0,1,3.7-1.331A4.537,4.537,0,0,1,1027.133-24.246Zm-786.4,1.179h54.45v-7.507h-54.45Zm85.776,0h52.53v-7.507h-52.53Zm81.478,0h54.541v-7.507H407.985ZM1081.93-35.748v6.479h.015c.627,0,1.255,0,1.88.049,1.069.051,2.134.151,3.195.276a45.972,45.972,0,0,1,12.315,3.467c.9.427,1.776.828,2.64,1.331.3.151.594.3.887.476l.438.251,3.243-5.525-.014-.049q-.934-.527-1.891-1.055c-1.158-.579-2.34-1.13-3.542-1.682-1.14-.479-2.3-.906-3.47-1.357q-1.755-.6-3.549-1.055a49.749,49.749,0,0,0-6.636-1.255c-1.159-.151-2.323-.227-3.49-.276-.67-.051-1.34-.051-2.009-.076Zm-.427,0c-.642,0-1.285.024-1.927.024-1.134.051-2.266.127-3.394.276a43.911,43.911,0,0,0-6.5,1.182,50.225,50.225,0,0,0-6.851,2.234c-1.174.5-2.332,1.006-3.466,1.582-.616.327-1.226.627-1.827.979h0l3.21,5.7,1.292-.7c.849-.427,1.712-.828,2.588-1.23a44.539,44.539,0,0,1,6.19-2.158,41.871,41.871,0,0,1,5.836-1.082c1.023-.125,2.05-.225,3.08-.276.592-.049,1.184-.049,1.776-.049h0v-6.479Zm165.769-30.21.177,11.653,1.755,15.82-.162.049a6.017,6.017,0,0,0-2.469,1.482.916.916,0,0,0-.182.5,4.042,4.042,0,0,0,.047,1.206,22.981,22.981,0,0,0,1.333,4.319l12.5,6.628-6.562-16.121-3.189-23.857ZM811.535-37.305H759.719v9.944h51.815Zm-176.128-.076H582.958v9.919h52.449Zm124.73,9.568h50.98V-36.9h-50.98ZM925.926-35.1H903.2v7.234h22.729ZM583.375-27.889H634.99V-37H583.375Zm320.239-.352h21.9v-6.453h-21.9Zm153.761-4.319a4.96,4.96,0,0,1-.788.579l-1.921,1.1a4.114,4.114,0,0,1-.869.4l1.024,1.782,3.569-2.109Zm51.393,1.633h0a1.3,1.3,0,0,0-.258-.127l-1.922-1.1c-.268-.176-.524-.352-.764-.527h0l-1.04,1.707,3.566,2.109,1.038-1.807-.6-.251ZM559.234-46.646v17.075H546.107V-46.646ZM510.128-29.571H497V-46.646h13.128Zm21.123,0H518.125V-46.646h13.127ZM497.417-30h12.294v-7.734H497.417Zm49.107,0h12.294v-7.734H546.524Zm-27.982,0h12.294v-7.734H518.541ZM1055.9-44.061a3.807,3.807,0,0,1-1.878,3.542l-5.49,3.137a3.8,3.8,0,0,1-3.959-.1l2.4,4.219a5.552,5.552,0,0,0,6.206,2.561l-.089-.176,4.29-2.461.1.127a5.584,5.584,0,0,0,.928-6.631S1056.762-42.627,1055.9-44.061Zm158.118-65.918c.592,2.712,6.271,31.289-3.941,76.34l5.793,2.937c.864-1.682,1.962-5.674,3.074-11.023.046-.227.092-.452.138-.679l.053-.576h.058c2.62-13.135,5.195-33.4,4.757-48.315-.164-5.625-.757-10.471-1.946-13.911-.776-2.236-1.8-3.818-3.134-4.6h.011C1217.071-109.9,1215.458-109.979,1214.018-109.979Zm-106.91,65.869-2.344,4.092a5.561,5.561,0,0,0-.731,2.712,5.417,5.417,0,0,0,1.682,3.967l.071-.1,4.29,2.385-.072.127a5.646,5.646,0,0,0,6.2-2.637s1.654-2.888,2.474-4.294a4.087,4.087,0,0,1-2.244.7,4.089,4.089,0,0,1-1.886-.5l-5.49-3.013A3.911,3.911,0,0,1,1107.108-44.109ZM295.6-42.176h-55.74v8.386H295.6Zm83.855,0H325.725v8.386h53.729Zm83.488,0H407.2v8.386h55.741Zm-136.8,7.959h52.895v-7.507H326.142Zm81.476,0h54.907v-7.507H407.618Zm-167.342,0h54.907v-7.507H240.276ZM63.412-51.844,54.6-43.985l7.961,8.84,8.815-7.861Zm1166.145-55.422a41.008,41.008,0,0,1,2.777,3.115,17.839,17.839,0,0,1,3.677,7.031c1.185,5.825.738,41.809-6.042,57.153a6.8,6.8,0,0,1,4.6,4.519l12.4-2.41a6.7,6.7,0,0,1,1.781-.93l-1.72-15.469-.181-11.926-1.227-.6.036-.176s3.009-13.008.005-21.848h0a57.586,57.586,0,0,0-6.147-13.384A35.286,35.286,0,0,0,1229.557-107.266ZM55.187-43.934l7.4,8.186,8.193-7.307-7.4-8.213Zm1024.547,5.4V-36.5h4.065v-2.034a5.109,5.109,0,0,1-.888.1h-2.2A6.176,6.176,0,0,1,1079.735-38.536Zm-24.561-6.755a5.464,5.464,0,0,0-4.541-2.41,5.468,5.468,0,0,0-2.276.476l-1.165.654-1.122.7a5.448,5.448,0,0,0-2.755,4.746,5.518,5.518,0,0,0,.646,2.585,3.522,3.522,0,0,0,4.368.8l5.484-3.137A3.474,3.474,0,0,0,1055.174-45.291Zm64.272,5.928a5.661,5.661,0,0,0-2.439-6.807l-1.92-1.1a5.779,5.779,0,0,0-2.664-.7,5.378,5.378,0,0,0-4.73,2.861h-.005a3.531,3.531,0,0,0,1.573,4.094l5.487,3.013a3.583,3.583,0,0,0,1.681.452,3.371,3.371,0,0,0,2.974-1.758Zm-600.9.879h12.294v-7.734H518.541Zm27.982,0h12.294v-7.734H546.524Zm-49.107,0h12.294v-7.734H497.417Zm590.954-10.674a3.919,3.919,0,0,1-3.452,2.109h-6.312a3.893,3.893,0,0,1-3.353-2.109v4.822a5.5,5.5,0,0,0,4.063,5.273v-.176h4.9v.227a5.54,5.54,0,0,0,4.155-5.325Zm-205.79,9.619H869.453V-56.49h13.128ZM837.955-56.49v16.951H824.828V-56.49Zm22.13,0v16.951H846.957V-56.49Zm9.785,16.523h12.293v-7.61H869.87Zm-22.5,0h12.293v-7.61H847.374Zm-22.129,0h12.294v-7.61H825.245Zm219.01-4.922-.018.024a3.366,3.366,0,0,0-1.682,2.913,3.364,3.364,0,0,0,.389,1.582,6.2,6.2,0,0,1-.047-.752A5.907,5.907,0,0,1,1044.255-44.888Zm74.574-.276a6.113,6.113,0,0,1,1.328,4.619,3.536,3.536,0,0,0-1.32-4.619Zm-192.9-5.325H903.2v7.383h22.729Zm-22.313,6.956h21.9v-6.5h-21.9ZM811.535-55.762H759.719v9.944h51.815Zm-176.128-.024H582.958v9.919h52.449Zm124.73,9.568h50.98v-9.092h-50.98ZM583.375-46.27H634.99v-9.089H583.375Zm471-.527h0a3.44,3.44,0,0,0-2.921-1.658,3.157,3.157,0,0,0-1.572.4,3.664,3.664,0,0,1,.749-.051A6.025,6.025,0,0,1,1054.379-46.8Zm58.852-1.531a3.157,3.157,0,0,0-1.572-.4,3.455,3.455,0,0,0-2.9,1.682,5.691,5.691,0,0,1,3.66-1.331A4.268,4.268,0,0,1,1113.231-48.328Zm-24.874-2.285a5.476,5.476,0,0,0-5.448-5.1h-2.193a5.5,5.5,0,0,0-5.45,5.1,3.5,3.5,0,0,0,3.346,3.164h6.306A3.471,3.471,0,0,0,1088.357-50.613ZM869.87-48.379h12.293v-7.734H869.87Zm-22.5,0h12.293v-7.734H847.374Zm-22.129,0h12.294v-7.734H825.245ZM391.89-68.846h92.273v18.057H226.172c-13.966,0-23.357-1.055-29.71-2.988-4.805-1.506-7.885-3.467-9.9-5.977a17.765,17.765,0,0,1-3.491-8.889l-.038-.2H303.413v-4.319h7.916v4.319h5.527v-4.319h7.916v4.319h5.435v-4.319h8.007v4.319h5.435v-4.319h7.916v4.319h5.527v-4.319h7.916v4.319h5.527v-4.319h7.916v4.319h5.527v-4.319h7.915Zm91.856,17.629V-68.443H183.525a17.323,17.323,0,0,0,3.364,8.438c1.971,2.461,4.99,4.37,9.7,5.825,6.326,1.934,15.68,2.964,29.587,2.964Zm594.827-4.495a3.259,3.259,0,0,0-2.307,1,3.388,3.388,0,0,0-1.009,2.285A5.927,5.927,0,0,1,1078.573-55.711Zm6.486,0a5.447,5.447,0,0,1,1.99,1.331,5.265,5.265,0,0,1,1.317,1.958A3.424,3.424,0,0,0,1085.058-55.711Zm-525.825-17v17H546.107v-17Zm-27.982,17H518.125v-17h13.127Zm-21.123,0H497v-17h13.128Zm36.4-.427h12.294V-63.8H546.524Zm-27.982,0h12.294V-63.8H518.541Zm-21.124,0h12.294V-63.8H497.417Zm428.509-9.719H903.2v7.383h22.729Zm-22.313,6.982h21.9V-65.43h-21.9Zm336.8-42.666a58.168,58.168,0,0,1,5.649,12.607c2.836,8.337.368,20.391.04,21.921l10.717,5.549c.331-15.769-4.062-26.292-9.476-33.223A39.229,39.229,0,0,0,1240.413-101.541ZM518.541-64.551h12.294v-7.734H518.541Zm-21.124,0h12.294v-7.734H497.417Zm49.107,0h12.294v-7.734H546.524Zm-162.132-4.57h7.081v-3.591h-7.081Zm-13.442,0h7.081v-3.591h-7.081Zm-40.327,0H337.8v-3.591h-7.173Zm-13.35,0h7.081v-3.591h-7.081Zm-13.442,0h7.081v-3.591H303.83Zm40.235,0h7.081v-3.591h-7.081Zm13.442,0h7.081v-3.591h-7.081Zm-77.27-8.613h8.779v8.589H232.087v-8.589h8.779v-4.395h39.372Zm181.06,0h10.516v8.589H403.819v-8.589h10.516v-4.395H461.3ZM232.5-69.6h56.1v-7.734H232.5Zm171.732,0H471.4v-7.734h-67.16ZM824.828-86.875h13.127V-69.9H824.828ZM846.957-69.9V-86.875h13.128V-69.9Zm22.5,0V-86.875h13.128V-69.9ZM585.2-77.332V-70.2h48.139v-7.131H609.437v.251h-.417v-.251ZM825.245-70.3h12.294v-7.734H825.245Zm44.625,0h12.293v-7.734H869.87Zm-22.5,0h12.293v-7.734H847.374ZM241.282-78.086h38.538v-3.591H241.282Zm173.469,0H460.88v-3.591H414.751Zm410.494-.752h12.294v-7.634H825.245Zm44.625,0h12.293v-7.634H869.87Zm-22.5,0h12.293v-7.634H847.374ZM546.107-98.777h13.127v17H546.107Zm-27.982,17v-17h13.127v17ZM497-98.777h13.128v17H497Zm.417,16.572h12.294v-7.734H497.417Zm21.124,0h12.294v-7.734H518.541Zm27.982,0h12.294v-7.734H546.524Zm642.393-7.959.026-.076c2.461.6,3.808.552,4.539.3.378-.149.57-.3.659-.527a.819.819,0,0,0,.058-.452L1191.639-92c-2.486,1.079-4.05,1.13-4.9.955a3.114,3.114,0,0,0,1.313.8h.846Zm-670.375-.527h12.294v-7.634H518.541Zm-21.124,0h12.294v-7.634H497.417Zm49.107,0h12.294v-7.634H546.524Zm493.058-17-7.628,6.855,6.866,7.51,7.531-6.855Zm-7.037,6.855,6.3,6.931,6.918-6.328-6.215-6.88ZM825.977-99.732h57.559v-12.883H825.977Zm401.569-9.468c.335.327.825.754,1.406,1.331a34.061,34.061,0,0,1,10.864,5.349h.012c.727.527,1.466,1.106,2.21,1.758l1.381-6.931-2.978-.049C1235.543-108.37,1231.271-108.848,1227.547-109.2ZM707.671-140.965h-1.358l-4.764.125a116.353,116.353,0,0,0-21.165,2.385l7.329,17.429-.632,15.317,39.536-.1v-13.962l6.522-18.508a81.792,81.792,0,0,0-17.057-2.461Zm137.417,27.949h19.335v-6.907H845.088ZM414.471-133.055l-8.813,7.959,7.96,8.84,8.813-7.961Zm-8.225,8.01,7.4,8.162,8.195-7.383-7.4-8.162Zm-357.3-15.093c.847-1.079,8.631-11.074,19.49-10.068,4.9.452,10.443,3.137,16.248,9.893,1.5-.3,15.99-2.937,19.655,10.95a21.174,21.174,0,0,1,7.931,2.058,11.307,11.307,0,0,1,6.1,6.956l.078.251-51.665-.3-57.774.3.05-.251a10.537,10.537,0,0,1,4.577-6.3c2.489-1.558,6.284-2.488,12.03-1.206a17.837,17.837,0,0,1,6.626-9.192C35.824-139.559,41.116-141.268,48.947-140.137Zm802.217-6.052-.09,25.791h.417l.09-25.791Zm7.225,0V-120.4h.417v-25.791Zm-740.5,25.664a10.914,10.914,0,0,0-5.8-6.377,21.1,21.1,0,0,0-7.913-2.061l-.2-.176c-3.7-14.414-19.319-10.723-19.319-10.723l-.207-.049c-5.739-6.731-11.2-9.392-16.05-9.9-11.294-1-19.189,10.02-19.189,10.02l-.2.1c-7.755-1.179-12.989.527-16.477,2.988a17.28,17.28,0,0,0-6.515,9.141l-.249.127c-5.7-1.331-9.459-.4-11.911,1.13a10.263,10.263,0,0,0-4.328,5.774l57.253-.276Zm569.878-12.354,3.337,10.1,8.075-.076-1.618-9.919Zm29.74-.1-1.618,10.2h7.336l3.812-9.695Zm-15.242,0,1.338,10.12h7.684l1.144-9.795ZM691.4-123.162l7.286-.1-1.484-9.089-8.86-.076Zm24.974,0h6.563l3.5-8.914-8.577-.452Zm-12.408-.1h6.947l1.049-9.014-9.222-.251Zm666.627-21.873c.842-1.155,8.587-11.047,19.448-10.02,4.906.479,10.45,3.164,16.287,9.919,1.5-.3,15.9-2.988,19.566,10.9a21.787,21.787,0,0,1,7.963,2.109,11.052,11.052,0,0,1,6.059,6.907l.083.276-51.665-.276-57.772.276.049-.227a10.661,10.661,0,0,1,4.578-6.377c2.489-1.533,6.284-2.461,12.029-1.182a18,18,0,0,1,6.645-9.189C1357.411-144.581,1362.723-146.338,1370.593-145.135Zm68.851,19.688a10.709,10.709,0,0,0-5.767-6.428,21.226,21.226,0,0,0-7.949-2.058l-.194-.127c-3.71-14.463-19.233-10.723-19.233-10.723l-.208-.1c-5.767-6.729-11.243-9.392-16.092-9.844-11.294-1.1-19.144,9.944-19.144,9.944l-.2.076c-7.792-1.179-13.049.527-16.55,2.988a17.469,17.469,0,0,0-6.536,9.192l-.25.176c-5.7-1.357-9.456-.479-11.908,1.055a10.41,10.41,0,0,0-4.33,5.85l57.254-.276ZM715.953-141.141l8.139.225,3.5-19.385-12.237-3.767c-.324.3-.65.552-.977.828a12.95,12.95,0,0,1-8.4,3.064h0a12.4,12.4,0,0,1-3.866-.576,15.856,15.856,0,0,1-4.767-2.061L684.561-159.7l5.024,18.682,12.225-.251c1.392-.049,2.8-.1,4.2-.1h1.823C710.575-141.368,713.306-141.268,715.953-141.141Zm-1.808-22.451a12.878,12.878,0,0,0,4.6-9.817,12.871,12.871,0,0,0-12.82-12.808,12.876,12.876,0,0,0-12.82,12.781,12.972,12.972,0,0,0,9.147,12.3A13.133,13.133,0,0,0,714.145-163.592Zm130.587-12.932.845.3,1.76.627,2.441.879c-3.715.3-6.245.576-6.245.576h-.01l-15.827.076c-.325,0-17.7.8-26.694-2.861l-5.425-2.236-.007-.125c-.151-2.561.541-4.27,1.712-5.374,1.715-1.609,4.49-1.96,7.253-1.96a11.223,11.223,0,0,1,7.859-4.871c1.18-.151,7.518-.227,16.668-.327h0s36.816-17.8,52.019-18.657l.142.352-22.881,18.13h.431q17.75-.073,35.5-.049h.032a26.229,26.229,0,0,0,12.278-4.07c3.83-2.51,6.747-5.9,9.849-8.738,3.142-2.864,6.473-5.249,11.1-5.625l5.809-.151-7.068,18.633c.693.051,1.159.051,1.373.051,3.024.1,5.486.7,6.7,2.51a5.15,5.15,0,0,1,.821,2.988v.176l-20.174,7.158h-.007a178.968,178.968,0,0,1-22.924,4.57c-4.539.527-8.738.652-11.472-.076a34.99,34.99,0,0,0-7.75-.9l26.078,11.047v.352l-4.115,1.758h-.083c-8.9-.1-29.647-6.855-44.947-12.354l-18.224-6.78,2.419.928,2.361.93,2.8,1.055.757.251,2.764,1.055Zm12.542-5.122-24.543.151c2.458.928,9.047,3.44,17.158,6.377h0c15.239,5.449,35.887,12.229,44.789,12.356l3.62-1.533-26.53-11.223h-.135Zm-661.451-4.067-8.813,7.959,7.867,8.789,8.815-7.959Zm-8.227,7.959,7.312,8.213,8.195-7.41-7.312-8.186Zm328.724,5.8h.042a49.408,49.408,0,0,0,49.176-49.167,49.41,49.41,0,0,0-49.176-49.17,49.411,49.411,0,0,0-49.177,49.17v.049A49.494,49.494,0,0,0,516.321-171.954Zm0-.427A49.063,49.063,0,0,1,467.6-221.072v-.049a48.985,48.985,0,0,1,48.761-48.767,48.985,48.985,0,0,1,48.759,48.767,49,49,0,0,1-48.759,48.74ZM921.126-191.59h1.149l2.653.049h2.631l-94.61.076c-11.185.1-19.165.227-20.5.4a10.6,10.6,0,0,0-7.4,4.443h9.936v.4h-10.7c-2.564.024-5.115.376-6.707,1.882-1.08,1.006-1.7,2.537-1.59,4.873l5.182,2.158c9.022,3.643,26.522,2.813,26.526,2.813l15.813-.1c.165,0,2.239-.225,5.313-.427l-1.823-.652-1.7-.627-.556-.227-.264-.076-1.541-.576-.282-.1-.215-.076-2-.754-.546-.225-.235-.076-.523-.176-1.477-.579-1.321-.476-2.678-1.006-2.1-.852.075-.378,25.739-.176,14.49,6.1h.007c.775,0,1.552,0,2.329.049,1.42.076,2.838.227,4.243.427.65.151,1.3.227,1.941.4l.691.125a6.968,6.968,0,0,0,.7.127c.491.1.984.149,1.477.2.545.024,1.091.076,1.637.076.637.049,1.274,0,1.912,0,.679,0,1.36-.051,2.039-.076.749-.1,1.5-.151,2.241-.227.763-.1,1.523-.176,2.285-.276,1.759-.2,3.513-.476,5.261-.779,1.893-.352,3.778-.7,5.657-1.1,1.245-.276,2.486-.527,3.726-.779,1.144-.276,2.285-.552,3.424-.854.763-.176,1.526-.352,2.286-.552l1.155-.327q9.939-3.5,19.878-7.056l-.043-.627a5.531,5.531,0,0,0-.211-1.006,3.3,3.3,0,0,0-.454-.928,2.445,2.445,0,0,0-.364-.479,2.715,2.715,0,0,0-.295-.325c-.074-.027-.151-.127-.229-.151a5.632,5.632,0,0,0-1.73-.9,1.164,1.164,0,0,0-.293-.076c-.132-.051-.265-.076-.4-.127-.171-.049-.343-.049-.517-.1-.228-.049-.457-.076-.687-.125-.3,0-.6-.051-.9-.076l-1.062-.051h-1.875l-1.77-.049h-2.788Zm-310.968-7.383-7.532,6.855,6.769,7.507,7.628-6.755Zm-6.946,6.9,6.216,6.907,7-6.2-6.3-7.031Zm344.087,3.04,277.441-1.106v-.452L947.3-189.48Zm-89.485-2.561c-9,.049-17.584.1-24.828.125h-.1l24.868-.076Zm33.142-.051h0a16.694,16.694,0,0,0,3.163,0h-3.161Zm-8.228,0h-8.314l-4.036.051h-4.4l8.9-.051Zm-25.061-.352,22.764-18.054c-14.134,1.279-44.895,15.593-50.353,18.206h3.445c7.992-.1,15.985-.1,23.977-.151Zm53.358-.049h14.824l6.882-18.132-5.172.076c-4.519.4-7.77,2.737-10.844,5.549-3.117,2.864-6.052,6.279-9.9,8.789a26.725,26.725,0,0,1-9.279,3.718H910.98Zm36.812-4.773,26.883,1.106.018-.452-26.883-1.106Zm-660.129-29.28c.846-1.1,8.633-11.074,19.491-10.02,4.9.452,10.443,3.164,16.248,9.944,1.5-.325,15.99-2.937,19.654,10.85a21.656,21.656,0,0,1,7.931,2.109,11.337,11.337,0,0,1,6.1,6.9l.079.251-51.761-.2-57.678.2.05-.251a10.454,10.454,0,0,1,4.576-6.277c2.489-1.606,6.284-2.512,12.03-1.255a17.807,17.807,0,0,1,6.626-9.167C274.586-225.516,279.877-227.225,287.708-226.094Zm68.939,19.612a11.139,11.139,0,0,0-5.8-6.377,22.263,22.263,0,0,0-7.914-2.061l-.193-.176c-3.7-14.338-19.319-10.647-19.319-10.647l-.206-.049c-5.741-6.755-11.2-9.443-16.052-9.919-11.292-1.055-19.189,9.968-19.189,9.968l-.2.1c-7.754-1.2-12.989.527-16.477,2.988a17.285,17.285,0,0,0-6.515,9.141l-.249.127c-5.7-1.306-9.459-.4-11.911,1.155a10.086,10.086,0,0,0-4.329,5.75l57.157-.176Zm1053.281-25.588-7.629,6.855,6.865,7.51,7.629-6.755Zm-7.032,6.855,6.309,6.956,7-6.252-6.309-6.98Zm-180.062-13.835-7.532,6.9,6.864,7.61,7.532-6.88Zm-438.932,0-7.625,6.9,6.864,7.61,7.625-6.88Zm-7.036,6.9,6.3,7.031,7.005-6.328-6.3-7Zm439.023,0,6.3,7.031,6.916-6.328-6.306-7ZM415.656-248.292l-8.813,7.959,7.868,8.84,8.813-7.961Zm657.74-3.291c.844-1.13,8.588-11.074,19.451-10.1,4.905.479,10.456,3.164,16.287,9.919,1.494-.352,15.9-2.988,19.655,10.9a22.177,22.177,0,0,1,7.913,2.061,11.2,11.2,0,0,1,6.026,6.956l.074.276-51.661-.276-57.679.276.047-.276a10.48,10.48,0,0,1,4.518-6.279c2.471-1.582,6.252-2.51,12-1.23a17.9,17.9,0,0,1,6.684-9.141C1060.26-251,1065.566-252.762,1073.4-251.583Zm68.852,19.612a10.708,10.708,0,0,0-5.735-6.428,20.931,20.931,0,0,0-7.892-2.058l-.2-.127c-3.791-14.463-19.319-10.771-19.319-10.771l-.207-.051c-5.767-6.729-11.242-9.392-16.091-9.844-11.3-1.055-19.148,10.02-19.148,10.02l-.2.1c-7.756-1.23-13,.479-16.509,2.939a17.593,17.593,0,0,0-6.575,9.141l-.249.125c-5.7-1.279-9.443-.376-11.878,1.155a10.1,10.1,0,0,0-4.272,5.8l57.163-.3Zm-734.819-8.311,7.314,8.21,8.195-7.432-7.314-8.162ZM45.489-255.047l-8.814,7.959,7.961,8.84,8.814-7.961Zm-8.225,8.01,7.4,8.21,8.195-7.432-7.4-8.162Z" transform="translate(0 270.291)" fill="#f07d25" fill-rule="evenodd"/>
</svg>
