<?xml version="1.0" encoding="utf-8"?>
<!-- Generator: Adobe Illustrator 16.0.0, SVG Export Plug-In . SVG Version: 6.00 Build 0)  -->
<!DOCTYPE svg PUBLIC "-//W3C//DTD SVG 1.0//EN" "http://www.w3.org/TR/2001/REC-SVG-20010904/DTD/svg10.dtd">
<svg version="1.0" id="Layer_1" xmlns="http://www.w3.org/2000/svg" xmlns:xlink="http://www.w3.org/1999/xlink" x="0px" y="0px"
	 width="20px" height="12px" viewBox="0 0 20 12" enable-background="new 0 0 20 12" xml:space="preserve">
<g opacity="0.3">
	<path opacity="0.85" fill-rule="evenodd" clip-rule="evenodd" fill="#2D292A" d="M19.022,8.888l-0.431,1.602l-0.345-0.093l0.43-1.6
		L19.022,8.888L19.022,8.888z M17.677,10.096l-0.121-0.032l0.039-0.147l0.121,0.032L17.677,10.096L17.677,10.096z M17.524,10.1
		l0.183,0.049l0.062-0.23l-0.204-0.054l-0.061,0.229L17.524,10.1L17.524,10.1z M17.79,9.672L17.67,9.64l0.04-0.146l0.12,0.032
		L17.79,9.672L17.79,9.672z M17.639,9.674l0.181,0.049l0.062-0.228L17.68,9.44L17.618,9.67L17.639,9.674L17.639,9.674z
		 M17.903,9.247l-0.119-0.032l0.039-0.147l0.12,0.032L17.903,9.247L17.903,9.247z M17.752,9.251l0.182,0.048l0.062-0.229
		l-0.202-0.055l-0.062,0.23L17.752,9.251L17.752,9.251z M18.018,8.823l-0.12-0.032l0.039-0.147l0.121,0.032L18.018,8.823
		L18.018,8.823z M17.866,8.825l0.183,0.049l0.062-0.229l-0.203-0.054l-0.062,0.229L17.866,8.825L17.866,8.825z M18.132,8.397
		l-0.121-0.032l0.041-0.146l0.12,0.032L18.132,8.397L18.132,8.397z M17.979,8.402l0.183,0.048l0.062-0.229l-0.202-0.055L17.96,8.396
		L17.979,8.402L17.979,8.402z M17.963,10.172l-0.12-0.032l0.039-0.146l0.12,0.032L17.963,10.172L17.963,10.172z M17.812,10.177
		l0.182,0.048l0.063-0.229L17.853,9.94L17.79,10.17L17.812,10.177L17.812,10.177z M18.078,9.749l-0.121-0.032l0.039-0.147
		l0.121,0.032L18.078,9.749L18.078,9.749z M17.926,9.751l0.181,0.048l0.062-0.228l-0.202-0.055l-0.062,0.23L17.926,9.751
		L17.926,9.751z M18.19,9.323l-0.12-0.032l0.041-0.147l0.119,0.032L18.19,9.323L18.19,9.323z M18.039,9.327l0.182,0.049l0.063-0.23
		l-0.202-0.054l-0.063,0.229L18.039,9.327L18.039,9.327z M18.305,8.9l0.039-0.147l-0.12-0.032l-0.039,0.147L18.305,8.9L18.305,8.9z
		 M18.153,8.902l0.182,0.048l0.062-0.228l-0.202-0.055l-0.062,0.23L18.153,8.902L18.153,8.902z M18.418,8.475l-0.119-0.032
		l0.039-0.147l0.121,0.032L18.418,8.475L18.418,8.475z M18.269,8.479l0.18,0.049l0.062-0.23l-0.202-0.054l-0.06,0.229L18.269,8.479
		L18.269,8.479z M18.066,10.348l0.571-2.129l-0.694-0.186l-0.572,2.129L18.066,10.348L18.066,10.348z M17.34,10.198l0.757,0.202
		l0.594-2.212L17.913,7.98l-0.595,2.212L17.34,10.198L17.34,10.198z M17.131,9.944l-0.384-0.103l-0.011,0.04l0.385,0.103
		L17.131,9.944L17.131,9.944z M17.174,9.789l-0.385-0.103l-0.011,0.04l0.384,0.103L17.174,9.789L17.174,9.789z M17.216,9.634
		l-0.385-0.103l-0.011,0.04l0.385,0.103L17.216,9.634L17.216,9.634z M17.257,9.479l-0.385-0.103l-0.011,0.04l0.385,0.103
		L17.257,9.479L17.257,9.479z M17.3,9.323l-0.387-0.103l-0.011,0.04l0.386,0.103L17.3,9.323L17.3,9.323z M17.34,9.166l-0.011,0.042
		l-0.385-0.103l0.011-0.04L17.34,9.166L17.34,9.166z M17.381,9.013L17.37,9.054L16.987,8.95l0.011-0.04L17.381,9.013L17.381,9.013z
		 M17.424,8.855l-0.012,0.043l-0.384-0.104l0.011-0.04L17.424,8.855L17.424,8.855z M17.465,8.7l-0.01,0.043L17.069,8.64l0.012-0.04
		L17.465,8.7L17.465,8.7z M17.47,8.005l-0.045-0.013l-0.096,0.361l-0.146-0.038l-0.05,0.184l-0.127-0.034l-0.4,1.494l0.589,0.157
		l0.401-1.498l-0.123-0.032l0.05-0.182l-0.15-0.041L17.47,8.005L17.47,8.005z M17.426,8.333l0.096-0.358L17.395,7.94L17.3,8.303
		l-0.146-0.04l-0.049,0.184l-0.128-0.034l-0.423,1.577l0.672,0.179l0.425-1.58l-0.124-0.032l0.048-0.182L17.426,8.333L17.426,8.333z
		 M18.499,10.315l0.019-0.066l-0.086-0.024l-0.019,0.068L18.499,10.315L18.499,10.315z M18.382,10.329l0.146,0.039l0.04-0.149
		l-0.166-0.045l-0.04,0.149L18.382,10.329L18.382,10.329z M18.583,10.003l0.018-0.068l-0.084-0.022L18.498,9.98L18.583,10.003
		L18.583,10.003z M18.468,10.015l0.145,0.041l0.041-0.149l-0.166-0.045l-0.041,0.149L18.468,10.015L18.468,10.015z M18.667,9.69
		l0.019-0.068L18.601,9.6l-0.018,0.068L18.667,9.69L18.667,9.69z M18.552,9.702l0.146,0.039l0.04-0.149L18.57,9.547l-0.04,0.149
		L18.552,9.702L18.552,9.702z M18.751,9.376L18.77,9.31l-0.084-0.022l-0.019,0.066L18.751,9.376L18.751,9.376z M18.635,9.39
		l0.146,0.039l0.04-0.149l-0.165-0.045l-0.041,0.149L18.635,9.39L18.635,9.39z M18.834,9.063l0.019-0.066L18.77,8.975l-0.019,0.066
		L18.834,9.063L18.834,9.063z M18.72,9.077l0.146,0.039l0.04-0.149l-0.166-0.045l-0.041,0.149L18.72,9.077L18.72,9.077z
		 M18.628,10.521l0.446-1.664l-0.427-0.112l-0.453,1.682l0.428,0.114L18.628,10.521z"/>
	<path opacity="0.85" fill-rule="evenodd" clip-rule="evenodd" fill="#2D292A" d="M5.102,1.662L5.078,1.845l0.345,0.044L5.409,1.996
		l0.307,0.412l-0.445,0.35l0.03-0.231L4.956,2.482L4.97,2.374L4.663,1.969l0.445-0.358L5.102,1.662L5.102,1.662z M6.417,1.673
		c0.124,0.016,0.229,0.082,0.299,0.175c0.071,0.093,0.107,0.214,0.09,0.341C6.79,2.316,6.725,2.424,6.634,2.497
		c-0.092,0.073-0.211,0.11-0.335,0.094c-0.124-0.016-0.23-0.082-0.3-0.175c-0.071-0.094-0.106-0.215-0.09-0.341
		C5.925,1.948,5.99,1.84,6.081,1.767C6.173,1.695,6.292,1.658,6.417,1.673L6.417,1.673z M6.688,1.871
		C6.623,1.786,6.526,1.725,6.412,1.71S6.188,1.729,6.104,1.796c-0.085,0.067-0.145,0.167-0.16,0.283
		C5.93,2.196,5.962,2.307,6.027,2.393C6.092,2.479,6.189,2.54,6.303,2.554c0.115,0.014,0.224-0.02,0.308-0.087
		C6.696,2.401,6.755,2.301,6.77,2.185C6.785,2.068,6.752,1.957,6.688,1.871L6.688,1.871z M4.058,1.373
		c0.124,0.016,0.229,0.082,0.3,0.175c0.07,0.093,0.106,0.214,0.09,0.341C4.433,2.015,4.367,2.124,4.275,2.196
		C4.184,2.269,4.064,2.306,3.94,2.29c-0.125-0.016-0.23-0.082-0.3-0.175C3.569,2.022,3.534,1.901,3.55,1.774
		c0.016-0.126,0.082-0.235,0.174-0.308C3.815,1.394,3.934,1.357,4.058,1.373L4.058,1.373z M4.33,1.57
		C4.265,1.484,4.167,1.424,4.053,1.409C3.939,1.396,3.83,1.429,3.746,1.496c-0.085,0.066-0.144,0.167-0.16,0.283
		C3.571,1.896,3.604,2.007,3.669,2.092c0.065,0.086,0.162,0.146,0.276,0.161c0.114,0.015,0.224-0.02,0.308-0.086
		C4.337,2.1,4.397,2,4.412,1.884C4.427,1.768,4.394,1.656,4.33,1.57L4.33,1.57z M6.839,3.316l0.206,0.026L7.04,3.383L6.834,3.357
		L6.839,3.316L6.839,3.316z M5.967,2.681L5.561,2.756c-0.009,0.002-0.161,0.04-0.22,0.16C5.333,2.936,5.258,3.145,5.251,3.298
		l1.956,0.25c0.011-0.058,0.04-0.235,0.013-0.372V3.173c0,0-0.006-0.152-0.249-0.271L6.668,2.77C6.66,2.799,6.642,2.852,6.603,2.907
		C6.58,2.945,6.552,2.979,6.471,3.027C6.466,3.03,6.458,3.035,6.447,3.039C6.394,3.06,6.279,3.083,6.117,2.993H6.116
		C6.116,2.993,5.957,2.905,5.967,2.681L5.967,2.681z M5.553,2.716L5.553,2.716c-0.001,0-0.18,0.042-0.248,0.183L5.303,2.9
		c0,0.001-0.092,0.246-0.091,0.417v0.018L7.24,3.594l0.004-0.019c0,0,0.049-0.233,0.017-0.406C7.26,3.151,7.239,2.986,6.989,2.864
		c-0.093-0.053-0.247-0.108-0.35-0.153L6.634,2.737c0,0-0.022,0.153-0.175,0.25L6.457,2.988v0L6.452,2.991
		C6.448,2.994,6.441,2.997,6.433,3C6.386,3.019,6.284,3.039,6.137,2.957c0,0-0.15-0.082-0.127-0.299L6.012,2.63L5.553,2.716
		L5.553,2.716z M4.468,3.004L4.673,3.03L4.668,3.072L4.462,3.045L4.468,3.004L4.468,3.004z M3.596,2.369L3.189,2.445
		c-0.008,0.002-0.161,0.04-0.219,0.16C2.962,2.624,2.887,2.833,2.88,2.987l1.956,0.25C4.847,3.179,4.875,3,4.85,2.865l0-0.003
		c0,0-0.006-0.153-0.249-0.272L4.296,2.458C4.288,2.488,4.27,2.54,4.231,2.595c-0.02,0.013-0.035,0.057-0.132,0.12
		C4.094,2.718,4.086,2.723,4.075,2.728c-0.052,0.021-0.167,0.044-0.33-0.046h0C3.744,2.681,3.585,2.594,3.596,2.369L3.596,2.369z
		 M3.182,2.404L3.182,2.404c-0.001,0-0.181,0.042-0.25,0.183L2.932,2.589c0,0-0.092,0.246-0.092,0.416v0.019l2.029,0.259
		l0.004-0.019c0,0,0.049-0.233,0.017-0.406C4.888,2.839,4.868,2.675,4.618,2.552C4.524,2.5,4.371,2.445,4.267,2.399L4.262,2.425
		c0,0-0.022,0.153-0.175,0.25L4.084,2.677l0,0L4.08,2.679c-0.004,0.002-0.011,0.006-0.02,0.01C4.015,2.707,3.912,2.727,3.765,2.646
		c0,0-0.149-0.082-0.127-0.3l0.003-0.027L3.182,2.404L3.182,2.404z M5.379,2.23L5.379,2.23L5.034,2.188L5.001,2.446L5.346,2.49
		L5.324,2.664L5.658,2.4L5.403,2.056L5.379,2.23L5.379,2.23L5.379,2.23z M5,2.141L5,2.141l0.344,0.043l0.034-0.258L5.032,1.882
		l0.002-0.021l0.021-0.154l-0.335,0.27l0.258,0.339L5,2.141L5,2.141z"/>
	<path opacity="0.85" fill-rule="evenodd" clip-rule="evenodd" fill="#2D292A" d="M8.607,4.151L8.45,2.747L8.341,2.816L8.5,4.24
		v0.002c0,0-0.002,0.071,0.078,0.063l2.126-0.236h0.002c0,0,0.057,0.004,0.049-0.064l-0.158-1.418l-0.12-0.043l0.154,1.384
		l-0.025-0.01c-0.002,0-0.49-0.194-0.985,0.106L9.615,4.026L9.608,4.025c-0.002,0-0.601-0.163-0.974,0.137L8.61,4.182L8.607,4.151
		L8.607,4.151z M9.671,3.347c0,0-0.008-0.065,0.146-0.119l0.001,0c0,0,0.286-0.082,0.457-0.047c0.001,0,0.099,0.012,0.118,0.059
		l-0.031,0.013c-0.011-0.028-0.092-0.039-0.092-0.039h-0.001c-0.158-0.032-0.423,0.042-0.441,0.046
		C9.7,3.304,9.705,3.343,9.705,3.343L9.671,3.347L9.671,3.347z M9.628,2.964c0,0-0.007-0.065,0.146-0.119h0.001
		c0.001,0,0.285-0.083,0.457-0.047c0,0,0.099,0.011,0.12,0.058l-0.031,0.013c-0.012-0.028-0.093-0.038-0.094-0.038v0
		c-0.158-0.032-0.424,0.042-0.441,0.046C9.657,2.922,9.662,2.961,9.662,2.961L9.628,2.964L9.628,2.964z M9.714,3.728
		c0,0-0.008-0.065,0.146-0.119h0.001c0.001,0,0.283-0.083,0.456-0.048c0,0,0.1,0.011,0.119,0.058l-0.03,0.013
		c-0.013-0.028-0.093-0.038-0.093-0.038h-0.002c-0.158-0.032-0.423,0.041-0.44,0.046C9.743,3.686,9.748,3.724,9.748,3.725
		L9.714,3.728L9.714,3.728z M9.692,3.537c0,0-0.008-0.065,0.146-0.119l0.001,0c0,0,0.284-0.082,0.457-0.047
		c0,0,0.099,0.012,0.118,0.058l-0.031,0.013c-0.011-0.028-0.092-0.038-0.092-0.038l-0.001,0C10.132,3.371,9.868,3.445,9.85,3.45
		C9.721,3.495,9.727,3.533,9.727,3.534L9.692,3.537L9.692,3.537z M9.65,3.156c0,0-0.008-0.066,0.146-0.119h0.001
		c0,0,0.285-0.082,0.457-0.048c0,0,0.1,0.012,0.119,0.059L10.341,3.06c-0.012-0.028-0.093-0.038-0.093-0.038v0
		C10.09,2.99,9.825,3.063,9.807,3.068C9.679,3.113,9.684,3.151,9.684,3.151L9.65,3.156L9.65,3.156z M9.607,2.774
		c0,0-0.008-0.066,0.146-0.119l0.001,0c0.001,0,0.285-0.082,0.457-0.047c0,0,0.1,0.012,0.119,0.058l-0.031,0.013
		C10.288,2.65,10.206,2.64,10.206,2.64h-0.001c-0.159-0.033-0.423,0.042-0.441,0.046C9.636,2.731,9.641,2.77,9.641,2.77L9.607,2.774
		L9.607,2.774z M8.676,3.457c0,0-0.008-0.065,0.146-0.119l0.001,0c0.001,0,0.284-0.082,0.457-0.047c0,0,0.099,0.012,0.119,0.058
		L9.368,3.362C9.356,3.333,9.275,3.323,9.275,3.323h0C9.116,3.291,8.851,3.365,8.833,3.37C8.705,3.414,8.709,3.453,8.709,3.453
		L8.676,3.457L8.676,3.457z M8.634,3.075c0,0-0.008-0.066,0.146-0.119H8.78c0.001,0,0.285-0.083,0.457-0.048
		c0,0,0.1,0.012,0.119,0.058L9.326,2.979C9.313,2.952,9.232,2.942,9.232,2.942H9.231C9.073,2.91,8.809,2.983,8.791,2.988
		C8.662,3.033,8.667,3.071,8.667,3.071L8.634,3.075L8.634,3.075z M8.719,3.838c0,0-0.008-0.065,0.146-0.119h0.001
		c0.001,0,0.285-0.083,0.458-0.048c0,0,0.099,0.011,0.119,0.058L9.41,3.743C9.398,3.715,9.317,3.705,9.317,3.705H9.316
		C9.158,3.673,8.893,3.747,8.875,3.752C8.748,3.796,8.752,3.835,8.752,3.835L8.719,3.838L8.719,3.838z M8.698,3.648
		c0,0-0.009-0.066,0.146-0.12h0.001c0.001,0,0.285-0.082,0.457-0.047c0,0,0.099,0.012,0.119,0.058L9.389,3.552
		C9.377,3.524,9.296,3.515,9.296,3.515H9.295C9.137,3.482,8.872,3.556,8.854,3.561C8.727,3.605,8.731,3.644,8.731,3.644L8.698,3.648
		L8.698,3.648z M8.655,3.266c0,0-0.008-0.066,0.145-0.119h0.001c0.001,0,0.285-0.082,0.457-0.048c0,0,0.099,0.012,0.119,0.059
		L9.347,3.17C9.334,3.143,9.254,3.132,9.253,3.132H9.252C9.094,3.1,8.83,3.174,8.812,3.179C8.684,3.223,8.688,3.262,8.688,3.262
		L8.655,3.266L8.655,3.266z M8.612,2.884c0,0-0.007-0.065,0.146-0.119l0.001,0c0,0,0.285-0.082,0.456-0.047
		c0,0,0.1,0.012,0.12,0.058L9.303,2.789C9.292,2.761,9.211,2.751,9.211,2.751H9.21C9.052,2.718,8.786,2.792,8.769,2.797
		C8.642,2.841,8.646,2.88,8.646,2.88L8.612,2.884L8.612,2.884z M8.446,2.71L8.44,2.664l0.006-0.006c0,0,0.311-0.315,1-0.144
		c0.06-0.036,0.547-0.314,1.011-0.071l0.009,0.004l0.007,0.059l0.155,0.056L10.789,4c0.012,0.102-0.072,0.102-0.083,0.102
		L8.582,4.338C8.473,4.35,8.467,4.258,8.466,4.244L8.306,2.799L8.446,2.71L8.446,2.71z M9.467,2.541
		C9.537,2.5,9.995,2.245,10.435,2.468l0.158,1.408c-0.108-0.035-0.531-0.147-0.966,0.104L9.467,2.541L9.467,2.541z M9.595,3.987
		C9.483,3.961,8.981,3.865,8.638,4.118L8.476,2.676c0.044-0.04,0.344-0.282,0.958-0.13L9.595,3.987z"/>
	<path opacity="0.85" fill-rule="evenodd" clip-rule="evenodd" fill="#2D292A" d="M14.448,2.332l-0.165-0.058L14.25,2.369
		c-0.006,0.016-0.017,0.029-0.031,0.037c-0.014,0.008-0.031,0.01-0.047,0.005l-0.223-0.077c-0.016-0.006-0.027-0.018-0.034-0.033
		c-0.006-0.014-0.007-0.031-0.002-0.048l0.033-0.094l-0.874-0.303L13.04,1.949c-0.006,0.016-0.017,0.029-0.032,0.036
		c-0.014,0.008-0.031,0.01-0.047,0.005L12.74,1.913c-0.017-0.006-0.028-0.018-0.034-0.033c-0.007-0.014-0.008-0.031-0.001-0.048
		l0.032-0.094L12.56,1.677c-0.006-0.002-0.012-0.002-0.018,0c-0.005,0.002-0.009,0.007-0.011,0.012l-0.105,0.308l1.93,0.67
		l0.106-0.308c0.002-0.005,0.002-0.012-0.001-0.017C14.459,2.338,14.455,2.334,14.448,2.332L14.448,2.332z M12.927,2.53l0.337,0.117
		l-0.076,0.217l-0.335-0.117L12.927,2.53L12.927,2.53z M12.839,2.787l-0.076,0.217l0.336,0.116l0.075-0.216L12.839,2.787
		L12.839,2.787z M12.748,3.043l0.337,0.117l-0.077,0.216L12.674,3.26L12.748,3.043L12.748,3.043z M12.659,3.3l-0.076,0.216
		l0.336,0.116l0.075-0.216L12.659,3.3L12.659,3.3z M12.542,3.502l-0.334-0.117l0.075-0.216l0.336,0.117L12.542,3.502L12.542,3.502z
		 M12.633,3.246l0.075-0.216l-0.336-0.116l-0.075,0.216L12.633,3.246L12.633,3.246z M12.722,2.989l-0.336-0.117l0.076-0.217
		l0.336,0.117L12.722,2.989L12.722,2.989z M12.813,2.732l-0.337-0.116l0.076-0.216l0.336,0.117L12.813,2.732L12.813,2.732z
		 M13.305,2.661l0.335,0.117l-0.075,0.216l-0.337-0.117L13.305,2.661L13.305,2.661z M13.214,2.917l0.337,0.117L13.475,3.25
		l-0.337-0.117L13.214,2.917L13.214,2.917z M13.125,3.174L13.05,3.391l0.336,0.116l0.075-0.216L13.125,3.174L13.125,3.174z
		 M13.035,3.431l0.336,0.117l-0.074,0.216l-0.338-0.117L13.035,3.431L13.035,3.431z M13.681,2.791l-0.076,0.217l0.336,0.117
		l0.076-0.216L13.681,2.791L13.681,2.791z M13.591,3.048l-0.075,0.216l0.335,0.116l0.076-0.216L13.591,3.048L13.591,3.048z
		 M13.501,3.305l0.336,0.117l-0.075,0.216l-0.337-0.116L13.501,3.305L13.501,3.305z M13.412,3.562l-0.075,0.216l0.336,0.117
		l0.075-0.216L13.412,3.562L13.412,3.562z M13.679,3.941l-1.526-0.529l0.373-1.067l1.545,0.537l-0.372,1.067L13.679,3.941
		L13.679,3.941z M12.411,2.038l1.931,0.67l-0.536,1.536C13.804,4.25,13.8,4.255,13.794,4.257c-0.005,0.002-0.011,0.003-0.017,0.001
		l-1.89-0.656c-0.006-0.002-0.01-0.006-0.013-0.011c-0.002-0.005-0.002-0.01,0-0.017L12.411,2.038L12.411,2.038z M14.256,2.22
		L14.21,2.354c-0.002,0.006-0.006,0.011-0.012,0.014c-0.004,0.002-0.008,0.002-0.012,0.001l-0.223-0.077
		c-0.004-0.001-0.007-0.005-0.009-0.009c-0.002-0.005-0.003-0.012,0-0.018l0.046-0.134l0.039-0.112
		c0.002-0.006,0.007-0.011,0.012-0.013c0.004-0.002,0.008-0.003,0.014-0.002l0.222,0.077c0.004,0.001,0.007,0.005,0.01,0.009
		c0.002,0.005,0.002,0.012,0,0.018L14.256,2.22L14.256,2.22z M13.961,2.118L14,2.005c0.006-0.016,0.018-0.029,0.03-0.037
		c0.016-0.008,0.032-0.01,0.049-0.005l0.223,0.077c0.016,0.005,0.028,0.018,0.034,0.033c0.006,0.014,0.007,0.031,0.001,0.047
		l-0.039,0.113l0.165,0.058c0.018,0.005,0.03,0.018,0.038,0.033c0.007,0.015,0.008,0.033,0.003,0.049l-0.658,1.884
		c-0.006,0.017-0.018,0.03-0.033,0.038c-0.014,0.007-0.032,0.008-0.05,0.003l-1.889-0.656c-0.018-0.006-0.03-0.019-0.037-0.033
		s-0.009-0.033-0.003-0.05l0.657-1.884c0.006-0.018,0.018-0.03,0.033-0.038c0.014-0.007,0.032-0.008,0.048-0.003l0.179,0.062
		l0.039-0.112c0.005-0.016,0.018-0.029,0.031-0.037c0.015-0.008,0.031-0.01,0.048-0.004l0.222,0.077
		c0.016,0.005,0.028,0.018,0.034,0.033c0.006,0.015,0.007,0.032,0.001,0.048l-0.039,0.113L13.961,2.118L13.961,2.118z M13.047,1.8
		l-0.048,0.134c-0.002,0.006-0.006,0.011-0.011,0.013c-0.004,0.002-0.01,0.003-0.014,0.001l-0.221-0.077
		c-0.004-0.001-0.008-0.005-0.009-0.009c-0.002-0.005-0.003-0.011,0-0.018l0.046-0.134l0.041-0.112
		c0.002-0.006,0.006-0.011,0.011-0.014c0.004-0.002,0.008-0.003,0.012-0.001l0.222,0.077c0.005,0.001,0.008,0.005,0.01,0.009
		c0.002,0.005,0.002,0.012,0,0.018L13.047,1.8z"/>
	<path opacity="0.85" fill-rule="evenodd" clip-rule="evenodd" fill="#2D292A" d="M1.385,8.249l0.348-0.432l0.346,0.278L1.732,8.527
		L1.385,8.249L1.385,8.249z M2.919,7.562L2.712,7.394l0.184-0.228L2.468,6.823L2.452,6.844L2.056,7.335l0.427,0.343l0.196-0.243
		l0.187,0.148l-0.716,0.89L1.963,8.323l0.19-0.235L1.725,7.745l-0.017,0.02L1.313,8.257L1.74,8.6l0.19-0.236l0.186,0.149
		L1.405,9.396L1.219,9.245l0.203-0.252L0.995,8.65L0.978,8.67L0.582,9.162L1.01,9.507l0.177-0.222l0.226,0.182l0.004-0.004h0.001
		l0.366-0.456l0.205,0.165l0.033-0.04L1.817,8.967l1.122-1.39L2.919,7.562L2.919,7.562L2.919,7.562z M3.362,8.7L3.175,8.551
		l0.19-0.235L2.938,7.973l-0.016,0.02L2.525,8.484l0.427,0.343l0.19-0.235l0.187,0.151L2.622,9.62L2.449,9.479l0.189-0.235
		L2.211,8.9L2.194,8.92L1.798,9.412l0.428,0.343l0.19-0.236L2.629,9.69l0.013-0.017l0.001,0.003l0.362-0.45L3.198,9.38l-0.19,0.236
		l0.427,0.343l0.413-0.511L3.421,9.104L3.404,9.124L3.231,9.34L3.038,9.187l0.365-0.452L3.362,8.7L3.362,8.7L3.362,8.7z
		 M3.081,9.607l0.348-0.432l0.347,0.278L3.428,9.886L3.081,9.607L3.081,9.607z M0.654,9.156l0.348-0.432l0.346,0.278l-0.347,0.43
		L0.654,9.156L0.654,9.156z M1.871,9.404l0.347-0.432l0.347,0.278L2.218,9.683L1.871,9.404L1.871,9.404z M2.598,8.477l0.348-0.432
		l0.347,0.278L2.944,8.755L2.598,8.477L2.598,8.477z M2.127,7.327l0.349-0.431l0.346,0.277L2.475,7.605L2.127,7.327z"/>
	<path opacity="0.85" fill-rule="evenodd" clip-rule="evenodd" fill="#2D292A" d="M9.852,7.244l0.128-1.96L8.175,5.169L8.04,7.229
		l2.077,0.135l0.123-1.9l0.042,0.002l-0.128,1.943L7.997,7.267l0.141-2.142c0.628,0.041,1.257,0.081,1.886,0.121L9.892,7.247
		L9.852,7.244L9.852,7.244z M8.999,5.729L8.997,5.77l0.715,0.046l0.003-0.041L8.999,5.729L8.999,5.729z M9.009,5.454L9.006,5.495
		l0.726,0.047l0.002-0.041L9.009,5.454L9.009,5.454z M8.308,6.779l-0.003,0.04l1.337,0.089l0.002-0.043L8.308,6.779L8.308,6.779z
		 M8.332,6.502L8.329,6.544l0.715,0.048l0.002-0.043L8.332,6.502L8.332,6.502z M8.347,6.227L8.344,6.268L9.06,6.314l0.002-0.041
		L8.347,6.227L8.347,6.227z M8.352,5.958L8.349,6l0.715,0.046l0.002-0.041L8.352,5.958L8.352,5.958z M9.349,6.063L9.315,6.577
		l0.296,0.019l0.034-0.52L9.349,6.063L9.349,6.063z M9.273,6.596l-0.002,0.02L9.649,6.64l0.04-0.603L9.311,6.019L9.273,6.596
		L9.273,6.596z M8.433,5.452L8.417,5.688l0.296,0.019l0.016-0.238L8.433,5.452L8.433,5.452z M8.375,5.706L8.373,5.727l0.378,0.024
		l0.021-0.32L8.394,5.409L8.375,5.706L8.375,5.706z M10.144,5.405l-0.041-0.003L9.98,7.269l0.041,0.002L10.144,5.405z"/>
	<path opacity="0.85" fill-rule="evenodd" clip-rule="evenodd" fill="#2D292A" d="M13.011,7.549l-1.454,0.188L11.254,5.39
		l-0.006-0.047l1.257-0.161l0.001,0.004l0.636,0.477h0.001v0l0.031,0.024l-0.005,0.005l0.084,0.641L13.205,6.34l-0.081-0.627
		L12.601,5.78l0.001,0.005l-0.047,0.006l-0.071-0.559l-1.182,0.152l0.296,2.301l1.407-0.182L13.011,7.549L13.011,7.549z
		 M13.61,7.172l0.005-0.008c0.073-0.093,0.109-0.214,0.094-0.341c-0.017-0.127-0.084-0.233-0.177-0.307
		c-0.094-0.072-0.215-0.108-0.343-0.093c-0.126,0.016-0.234,0.083-0.307,0.177c-0.073,0.094-0.109,0.214-0.094,0.339
		c0.017,0.128,0.084,0.236,0.176,0.308c0.096,0.072,0.217,0.108,0.344,0.093c0.105-0.013,0.199-0.063,0.271-0.134l0.289,0.222
		l0.028-0.036L13.61,7.172L13.61,7.172z M13.578,7.136c0.065-0.085,0.099-0.193,0.084-0.307c-0.015-0.112-0.075-0.21-0.159-0.274
		c-0.085-0.066-0.192-0.099-0.308-0.084c-0.113,0.015-0.211,0.074-0.275,0.158s-0.098,0.192-0.082,0.305
		c0.014,0.115,0.073,0.212,0.156,0.276c0.086,0.064,0.193,0.097,0.309,0.083C13.415,7.279,13.513,7.221,13.578,7.136L13.578,7.136z
		 M11.697,5.847l0.006,0.047l0.487-0.063l-0.007-0.047L11.697,5.847L11.697,5.847z M11.738,6.174l0.005,0.047l1.092-0.14
		l-0.006-0.047L11.738,6.174L11.738,6.174z M11.78,6.486l0.006,0.047l1.084-0.138l-0.007-0.048L11.78,6.486L11.78,6.486z
		 M11.821,6.807l0.007,0.047l0.75-0.097l-0.007-0.046L11.821,6.807L11.821,6.807z M11.88,7.124l0.006,0.046l0.623-0.081
		l-0.006-0.046L11.88,7.124L11.88,7.124z M12.595,5.733l0.479-0.062l-0.54-0.405L12.595,5.733z"/>
	<path opacity="0.85" fill-rule="evenodd" clip-rule="evenodd" fill="#2D292A" d="M3.984,6.294l0.153,1.037l1.147-0.11l-0.2-1.25
		L4.978,6.003L4.209,6.228L4.178,6.236l0,0L3.984,6.294L3.984,6.294z M5.339,7.208L5.14,5.964l1.472,0.002l0.123,0.88L5.339,7.208
		L5.339,7.208z M4.404,6.529l0.064,0.398L4.42,6.936L4.356,6.537L4.404,6.529L4.404,6.529z M4.788,6.396l0.085,0.526L4.825,6.93
		L4.741,6.404L4.788,6.396L4.788,6.396z M6.376,6.263L6.329,6.27l0.049,0.308l0.048-0.008L6.376,6.263L6.376,6.263z M5.959,6.281
		L5.912,6.289l0.063,0.398L6.024,6.68L5.959,6.281L5.959,6.281z M5.552,6.273L5.504,6.281l0.085,0.525l0.047-0.006L5.552,6.273
		L5.552,6.273z M4.208,4.903c0,0-0.024-0.152,0.246-0.242c0.012-0.006,0.089-0.05,0.091-0.188l0.048,0
		c-0.002,0.181-0.12,0.232-0.12,0.232L4.471,4.706C4.238,4.783,4.256,4.895,4.256,4.895L4.208,4.903L4.208,4.903z M5.093,4.835
		c0,0-0.024-0.152,0.246-0.242c0.012-0.006,0.089-0.05,0.092-0.188l0.049,0c-0.002,0.18-0.121,0.231-0.121,0.231L5.356,4.639
		C5.123,4.715,5.141,4.827,5.141,4.828L5.093,4.835L5.093,4.835z M5.858,4.915c0,0-0.024-0.152,0.247-0.242
		c0.011-0.006,0.089-0.05,0.091-0.188l0.048,0c-0.003,0.18-0.12,0.232-0.12,0.232L6.122,4.719C5.889,4.795,5.907,4.907,5.907,4.908
		L5.858,4.915L5.858,4.915z M5.775,5.14l0.032,0.77l0.482,0L6.042,5.097L5.775,5.14L5.775,5.14z M5.759,5.917L5.726,5.098
		l0.35-0.056c0.089,0.292,0.178,0.583,0.268,0.875l0.311,0l0.133,0.964L5.309,7.267H5.305L4.096,7.384L4.093,7.361L3.931,6.259
		l0.245-0.071L4.111,5.027l0.364-0.07C4.574,5.309,4.674,5.66,4.773,6.012l0.202-0.059L4.932,5.077l0.371-0.043l0.242,0.882
		L5.759,5.917L5.759,5.917z M5.495,5.916l-0.228-0.83L4.983,5.12l0.04,0.819l0.078-0.022l0.007-0.001L5.495,5.916L5.495,5.916z
		 M4.162,5.066L4.44,5.013l0.285,1.008L4.224,6.173L4.162,5.066z"/>
	<path opacity="0.85" fill-rule="evenodd" clip-rule="evenodd" fill="#2D292A" d="M7.184,7.897C7.283,7.844,7.396,7.837,7.498,7.87
		C7.6,7.902,7.691,7.973,7.748,8.075s0.067,0.218,0.039,0.32C7.758,8.499,7.69,8.59,7.591,8.644c-0.1,0.055-0.212,0.061-0.314,0.028
		s-0.193-0.103-0.25-0.205C6.971,8.363,6.96,8.249,6.988,8.146C7.017,8.043,7.084,7.952,7.184,7.897L7.184,7.897z M6.103,8.448
		c0.12-0.066,0.257-0.074,0.38-0.036c0.124,0.038,0.234,0.125,0.303,0.25s0.082,0.264,0.047,0.389S6.716,9.285,6.596,9.352
		C6.475,9.416,6.338,9.426,6.215,9.386C6.091,9.348,5.98,9.261,5.912,9.136C5.844,9.013,5.831,8.872,5.865,8.747
		C5.9,8.622,5.981,8.513,6.103,8.448L6.103,8.448z M6.472,8.45c-0.113-0.034-0.239-0.026-0.35,0.034
		C6.011,8.543,5.936,8.646,5.905,8.759C5.873,8.874,5.884,9.003,5.947,9.118C6.01,9.232,6.112,9.312,6.225,9.348
		c0.114,0.036,0.24,0.028,0.351-0.032c0.111-0.061,0.186-0.161,0.217-0.276s0.02-0.244-0.043-0.358
		C6.688,8.565,6.586,8.486,6.472,8.45L6.472,8.45z M7.531,9.656l0.2-0.109L7.753,9.59l-0.2,0.108L7.531,9.656L7.531,9.656z
		 M6.341,9.644L6.028,9.975c-0.007,0.008-0.117,0.142-0.091,0.286c0.006,0.022,0.075,0.259,0.17,0.401L8.01,9.628
		C7.982,9.569,7.892,9.39,7.78,9.285L7.777,9.281c0,0-0.104-0.133-0.398-0.085L7.021,9.273C7.034,9.306,7.052,9.366,7.053,9.44
		C7.045,9.465,7.06,9.515,7.015,9.634C7.012,9.64,7.008,9.648,7,9.66C6.968,9.713,6.88,9.808,6.677,9.831h0
		C6.676,9.831,6.478,9.854,6.341,9.644L6.341,9.644z M5.995,9.942L5.995,9.942c-0.001,0.002-0.133,0.155-0.102,0.324l0,0.005
		c0,0,0.016,0.056,0.043,0.133l-0.78,0.423c-0.079-0.116-0.136-0.313-0.141-0.33c-0.021-0.121,0.07-0.23,0.076-0.236l0.257-0.271
		c0.114,0.173,0.277,0.152,0.278,0.152h0c0.143-0.016,0.217-0.076,0.251-0.12C5.91,9.979,5.946,9.902,5.937,9.819
		c0-0.061-0.016-0.11-0.026-0.137l0.232-0.049l0.046-0.05c-0.096,0.012-0.234,0.05-0.332,0.072l0.011,0.021
		c0,0.002,0.066,0.127,0.006,0.279L5.874,9.959l0,0L5.872,9.963C5.87,9.967,5.867,9.973,5.862,9.98
		c-0.023,0.036-0.088,0.107-0.24,0.125c0,0-0.153,0.017-0.254-0.157l-0.013-0.02l-0.291,0.306l0,0c0,0-0.109,0.128-0.083,0.269
		l0,0.002c0,0,0.063,0.232,0.156,0.359l0.009,0.012L5.95,10.44c0.033,0.087,0.079,0.191,0.132,0.265l0.012,0.016l1.974-1.07
		L8.06,9.63c0,0-0.059-0.133-0.147-0.256L8.806,8.89L8.798,8.874c0-0.002-0.089-0.202-0.206-0.313
		C8.582,8.549,8.478,8.438,8.229,8.479c-0.096,0.012-0.24,0.053-0.34,0.072L7.9,8.573c0,0,0.066,0.125,0.006,0.278L7.905,8.855h0
		L7.903,8.859C7.901,8.863,7.898,8.87,7.894,8.876C7.87,8.914,7.806,8.984,7.653,9.001c0,0-0.153,0.018-0.254-0.155L7.387,8.823
		l-0.235,0.25L7.216,9.06L7.38,8.886c0.114,0.172,0.277,0.153,0.278,0.153h0C7.826,9.019,7.897,8.94,7.925,8.898
		C7.931,8.888,7.934,8.88,7.937,8.876c0.037-0.099,0.024-0.14,0.032-0.159C7.967,8.654,7.952,8.605,7.942,8.579l0.294-0.063
		c0.242-0.04,0.329,0.069,0.329,0.069L8.566,8.59c0.092,0.086,0.167,0.233,0.191,0.282L7.891,9.344
		C7.866,9.31,7.839,9.279,7.811,9.253C7.797,9.236,7.672,9.102,7.37,9.152C7.252,9.164,7.079,9.215,6.957,9.241L6.97,9.267
		c0,0,0.081,0.151,0.008,0.337L6.977,9.607l0,0L6.974,9.613C6.972,9.618,6.968,9.626,6.963,9.634
		C6.934,9.681,6.856,9.763,6.672,9.785c-0.001,0-0.187,0.022-0.309-0.189L6.348,9.569L5.995,9.942L5.995,9.942z M5.153,9.003
		c0.099-0.055,0.212-0.063,0.314-0.03c0.102,0.032,0.193,0.103,0.25,0.206c0.055,0.103,0.066,0.218,0.038,0.32
		C5.727,9.602,5.659,9.692,5.56,9.747C5.461,9.802,5.347,9.81,5.246,9.777C5.144,9.745,5.052,9.672,4.997,9.569
		C4.94,9.467,4.93,9.352,4.958,9.249C4.986,9.146,5.053,9.056,5.153,9.003L5.153,9.003z M5.458,9.005
		c0.094,0.03,0.178,0.095,0.23,0.189c0.051,0.095,0.061,0.199,0.035,0.297c-0.026,0.093-0.088,0.177-0.18,0.226
		c-0.091,0.05-0.195,0.057-0.29,0.028C5.161,9.715,5.077,9.65,5.025,9.556S4.964,9.354,4.99,9.259
		c0.026-0.093,0.088-0.178,0.18-0.228C5.261,8.982,5.365,8.975,5.458,9.005L5.458,9.005z M7.489,7.902
		C7.396,7.872,7.292,7.878,7.2,7.928c-0.091,0.051-0.153,0.134-0.18,0.229C6.995,8.251,7.004,8.355,7.057,8.45
		C7.108,8.545,7.192,8.611,7.286,8.64c0.094,0.03,0.198,0.024,0.29-0.026c0.091-0.05,0.153-0.133,0.178-0.228
		C7.78,8.291,7.771,8.187,7.718,8.092C7.667,7.997,7.583,7.93,7.489,7.902L7.489,7.902z M8.362,8.896l0.166-0.09L8.545,8.84
		L8.38,8.928L8.362,8.896z"/>
	<path opacity="0.85" fill-rule="evenodd" clip-rule="evenodd" fill="#2D292A" d="M11.496,10.969l-0.493-1.68l-0.118,0.107
		l0.501,1.705l0.001,0.002c0,0,0.013,0.087,0.107,0.061l2.543-0.744h0.004c0,0,0.072-0.006,0.047-0.088L13.59,8.634l-0.156-0.028
		l0.487,1.657l-0.034-0.006c-0.002,0-0.639-0.133-1.179,0.341L12.7,10.602h-0.009c-0.002,0-0.768-0.07-1.16,0.377l-0.025,0.028
		L11.496,10.969L11.496,10.969z M12.623,9.759c0,0-0.024-0.076,0.151-0.175h0.002c0.001,0,0.329-0.162,0.547-0.155
		c0.001-0.003,0.124-0.009,0.158,0.044l-0.036,0.022c-0.021-0.03-0.12-0.026-0.121-0.026h-0.001c-0.2-0.004-0.507,0.141-0.528,0.151
		c-0.146,0.082-0.132,0.129-0.132,0.129L12.623,9.759L12.623,9.759z M12.488,9.304c0,0-0.023-0.079,0.153-0.178h0.001
		c0.001,0,0.329-0.161,0.547-0.155c0,0,0.124-0.008,0.158,0.046l-0.035,0.022c-0.021-0.032-0.122-0.026-0.122-0.026h-0.001
		c-0.201-0.006-0.508,0.142-0.528,0.151c-0.146,0.081-0.133,0.127-0.133,0.127L12.488,9.304L12.488,9.304z M12.757,10.217
		c0,0-0.024-0.079,0.152-0.176l0.001-0.002c0.001,0,0.331-0.159,0.548-0.155c0,0,0.123-0.006,0.157,0.047L13.58,9.952
		c-0.021-0.032-0.121-0.025-0.121-0.025h-0.001c-0.2-0.007-0.509,0.141-0.529,0.15c-0.146,0.081-0.131,0.127-0.131,0.127
		L12.757,10.217L12.757,10.217z M12.689,9.989c0,0-0.023-0.079,0.153-0.178h0.001c0.001,0,0.33-0.161,0.548-0.155
		c0,0,0.123-0.008,0.157,0.046l-0.036,0.022c-0.02-0.032-0.12-0.026-0.12-0.026h-0.001c-0.202-0.006-0.509,0.142-0.528,0.151
		c-0.147,0.081-0.134,0.127-0.134,0.127L12.689,9.989L12.689,9.989z M12.556,9.531c0,0-0.024-0.079,0.152-0.176h0.001
		c0.001-0.002,0.33-0.161,0.548-0.157c0,0,0.123-0.006,0.157,0.047l-0.035,0.021c-0.02-0.03-0.121-0.025-0.121-0.025h-0.001
		c-0.2-0.007-0.508,0.141-0.529,0.15c-0.146,0.081-0.132,0.127-0.132,0.127L12.556,9.531L12.556,9.531z M12.423,9.075
		c0-0.002-0.023-0.078,0.149-0.177h0.002c0.001,0,0.331-0.162,0.548-0.155c0.001,0,0.125-0.009,0.159,0.044l-0.035,0.024
		c-0.022-0.032-0.122-0.028-0.123-0.028h-0.001c-0.199-0.004-0.507,0.141-0.528,0.151c-0.146,0.082-0.132,0.129-0.132,0.129
		L12.423,9.075L12.423,9.075z M11.433,10.107c0,0-0.024-0.078,0.152-0.177h0.001c0.001,0,0.329-0.162,0.546-0.155
		c0.001,0,0.125-0.009,0.158,0.046l-0.034,0.022c-0.021-0.032-0.122-0.026-0.123-0.026h-0.001c-0.199-0.006-0.507,0.142-0.527,0.149
		c-0.146,0.082-0.133,0.129-0.133,0.129L11.433,10.107L11.433,10.107z M11.298,9.65c0,0-0.023-0.079,0.152-0.176l0.001-0.002
		c0.002,0,0.33-0.159,0.548-0.155c0,0,0.123-0.006,0.157,0.046l-0.035,0.022C12.101,9.355,12,9.359,12,9.359h-0.001
		c-0.2-0.006-0.509,0.142-0.529,0.151c-0.146,0.081-0.132,0.127-0.132,0.127L11.298,9.65L11.298,9.65z M11.566,10.565
		c0-0.002-0.025-0.078,0.151-0.178h0.001c0.001-0.002,0.331-0.161,0.549-0.155c0,0,0.123-0.008,0.158,0.045l-0.037,0.024
		c-0.02-0.032-0.12-0.028-0.12-0.028h-0.001c-0.201-0.004-0.509,0.141-0.529,0.151c-0.146,0.082-0.133,0.129-0.132,0.129
		L11.566,10.565L11.566,10.565z M11.498,10.336c0,0-0.023-0.079,0.153-0.176l0.001-0.002c0.001,0,0.329-0.159,0.548-0.155
		c0,0,0.123-0.006,0.157,0.046l-0.035,0.022c-0.02-0.03-0.121-0.026-0.121-0.026H12.2c-0.201-0.006-0.509,0.142-0.528,0.151
		c-0.147,0.081-0.134,0.127-0.134,0.127L11.498,10.336L11.498,10.336z M11.366,9.88c0,0-0.025-0.078,0.15-0.178h0.001
		c0.001,0,0.331-0.161,0.548-0.155c0,0,0.124-0.008,0.158,0.045l-0.035,0.021c-0.021-0.029-0.122-0.025-0.122-0.025h-0.001
		c-0.199-0.004-0.508,0.141-0.529,0.151c-0.145,0.082-0.13,0.129-0.13,0.129L11.366,9.88L11.366,9.88z M11.23,9.422
		c0,0-0.023-0.078,0.153-0.177h0.001c0.001,0,0.329-0.162,0.547-0.155c0.001,0,0.124-0.009,0.158,0.046l-0.035,0.022
		c-0.021-0.032-0.121-0.026-0.122-0.026h-0.001c-0.201-0.006-0.507,0.142-0.527,0.151c-0.147,0.08-0.133,0.127-0.133,0.127
		L11.23,9.422L11.23,9.422z M10.991,9.245L10.974,9.19l0.007-0.01c0,0,0.31-0.452,1.187-0.388c0.067-0.059,0.602-0.502,1.223-0.305
		l0.011,0.002l0.02,0.071l0.201,0.036l0.506,1.722c0.036,0.123-0.065,0.142-0.079,0.142l-2.544,0.744
		c-0.128,0.036-0.157-0.075-0.16-0.093l-0.507-1.729L10.991,9.245L10.991,9.245z M12.2,8.821c0.076-0.066,0.581-0.476,1.167-0.296
		l0.495,1.686c-0.14-0.021-0.681-0.066-1.156,0.332L12.2,8.821L12.2,8.821z M12.666,10.56c-0.141-0.008-0.773-0.021-1.141,0.362
		L11.02,9.196c0.046-0.059,0.36-0.417,1.141-0.363L12.666,10.56z"/>
	<path opacity="0.85" fill-rule="evenodd" clip-rule="evenodd" fill="#2D292A" d="M16.828,4.463l-0.464-0.111l0.09-0.37l0.462,0.111
		L16.828,4.463L16.828,4.463z M15.729,3.528L15.676,3.75l-0.245-0.059l-0.109,0.457l0.022,0.005L15.87,4.28l0.11-0.457L15.719,3.76
		l0.05-0.199l0.953,0.228l-0.047,0.2l-0.254-0.061l-0.11,0.457l0.022,0.005l0.527,0.126l0.109-0.457L16.717,4l0.049-0.2l0.947,0.226
		l-0.049,0.2l-0.27-0.064l-0.11,0.457l0.021,0.005l0.528,0.126l0.109-0.457l-0.235-0.057l0.059-0.242L17.76,3.994V3.993
		l-0.487-0.117l0.051-0.219l-0.042-0.011l-0.053,0.219l-1.493-0.358L15.729,3.528L15.729,3.528L15.729,3.528z M16.455,2.768
		L16.455,2.768l0.01-0.043l0.484,0.116L17,2.635L16.769,2.58l-0.021-0.005l0.109-0.457l0.55,0.132l-0.108,0.457l-0.255-0.061
		l-0.049,0.205l0.481,0.116v0.001l0.018,0.004l-0.055,0.228l0.254,0.061l-0.11,0.458L17.054,3.59l-0.021-0.005l0.11-0.457
		l0.253,0.061l0.044-0.186l-0.942-0.226l-0.048,0.199l0.255,0.061l-0.11,0.457l-0.528-0.126l-0.022-0.005l0.111-0.457l0.252,0.061
		L16.455,2.768L16.455,2.768z M17.264,2.652l0.088-0.37L16.89,2.171l-0.088,0.37L17.264,2.652L17.264,2.652z M17.801,4.696
		l-0.464-0.111l0.09-0.37l0.464,0.111L17.801,4.696L17.801,4.696z M17.549,3.664l-0.463-0.111l0.089-0.371l0.463,0.111L17.549,3.664
		L17.549,3.664z M16.56,3.441l0.09-0.371l-0.463-0.11l-0.09,0.37L16.56,3.441L16.56,3.441z M15.838,4.226l-0.464-0.111l0.089-0.37
		l0.464,0.111L15.838,4.226z"/>
	<path opacity="0.85" fill-rule="evenodd" clip-rule="evenodd" fill="#2D292A" d="M16.926,6.706l0.199,0.827l-0.896,0.26
		l-0.229-0.998l0.091-0.008l0.646-0.063l0.025-0.002l0,0L16.926,6.706L16.926,6.706z M16.186,7.801l-0.228-0.994l-1.105,0.444
		l0.175,0.699L16.186,7.801L16.186,7.801z M16.683,7.009l0.072,0.32l0.039-0.01L16.721,7L16.683,7.009L16.683,7.009z M16.352,7.025
		l0.097,0.421l0.039-0.01l-0.096-0.42L16.352,7.025L16.352,7.025z M15.119,7.404l0.038-0.011l0.057,0.246l-0.038,0.008L15.119,7.404
		L15.119,7.404z M15.438,7.293l0.038-0.01l0.074,0.318l-0.04,0.01L15.438,7.293L15.438,7.293z M15.743,7.164l0.037-0.008
		l0.095,0.419l-0.036,0.008L15.743,7.164L15.743,7.164z M16.337,5.729c0,0-0.027-0.122-0.258-0.108
		c-0.012-0.001-0.083-0.011-0.126-0.114l-0.038,0.015c0.058,0.135,0.162,0.138,0.162,0.138h0.003
		c0.198-0.012,0.219,0.078,0.219,0.078L16.337,5.729L16.337,5.729z M15.651,5.945c0-0.001-0.028-0.122-0.259-0.108
		c-0.012-0.001-0.082-0.011-0.125-0.114L15.23,5.738c0.057,0.135,0.16,0.138,0.161,0.138h0.002c0.198-0.012,0.22,0.077,0.22,0.078
		L15.651,5.945L15.651,5.945z M15.099,6.235c0-0.001-0.027-0.122-0.257-0.108c-0.01,0-0.082-0.01-0.125-0.113L14.68,6.029
		c0.058,0.135,0.16,0.137,0.161,0.137h0.002c0.197-0.012,0.218,0.078,0.218,0.078L15.099,6.235L15.099,6.235z M15.229,6.379
		l0.21,0.588l-0.362,0.145l-0.06-0.685L15.229,6.379L15.229,6.379z M15.478,6.959l-0.223-0.626l-0.28,0.063
		c0.022,0.246,0.044,0.492,0.064,0.738l-0.232,0.095l0.191,0.764l1.228-0.157h0.003l0.944-0.275l-0.006-0.019l-0.211-0.877
		l-0.206,0.02l-0.304-0.891l-0.294,0.056c0.032,0.295,0.064,0.589,0.096,0.884l-0.169,0.016l-0.233-0.671l-0.292,0.08l0.086,0.734
		L15.478,6.959L15.478,6.959z M15.677,6.877l0.291-0.116l0.005-0.002l0.065-0.007L15.82,6.125l-0.224,0.061L15.677,6.877
		L15.677,6.877z M16.421,5.837L16.195,5.88l0.091,0.844l0.424-0.037L16.421,5.837z"/>
	<path opacity="0.85" fill-rule="evenodd" clip-rule="evenodd" fill="#2D292A" d="M0,3.981l1.401-0.41l0.002,0
		c0,0,0.064-0.006,0.043-0.081L0.996,1.954L0.854,1.93l0.44,1.5L1.264,3.423c-0.001,0-0.578-0.121-1.067,0.308L0.19,3.737
		L0.183,3.736C0.182,3.736,0.11,3.729,0,3.734V3.696c0.073-0.003,0.128-0.001,0.16,0L0,3.152V3.018l0.195,0.665
		c0.431-0.361,0.921-0.319,1.046-0.302L0.794,1.855C0.483,1.761,0.197,1.849,0,1.95V1.907c0.205-0.101,0.498-0.185,0.815-0.085
		l0.01,0.003l0.019,0.063L1.026,1.92l0.457,1.56c0.033,0.11-0.06,0.127-0.072,0.129L0,4.021V3.981L0,3.981z M0.12,2.974l0.036-0.011
		c0,0-0.013-0.042,0.121-0.116C0.295,2.838,0.574,2.706,0.754,2.71h0.001c0,0,0.092-0.004,0.109,0.024l0.032-0.021
		C0.866,2.666,0.754,2.673,0.754,2.673C0.558,2.667,0.26,2.813,0.259,2.813L0.257,2.814C0.099,2.903,0.12,2.974,0.12,2.974
		L0.12,2.974z M0,2.533V2.56l0.035-0.01c0,0-0.013-0.042,0.12-0.116c0.019-0.008,0.297-0.142,0.479-0.137h0.001
		c0,0,0.092-0.004,0.11,0.024L0.776,2.3C0.745,2.252,0.633,2.259,0.633,2.259C0.436,2.254,0.138,2.399,0.137,2.4l-0.001,0
		C0.037,2.456,0.007,2.504,0,2.533L0,2.533z M0.241,3.387l0.037-0.01c0,0-0.013-0.042,0.119-0.116
		c0.019-0.009,0.297-0.142,0.478-0.137h0.001c0,0,0.092-0.004,0.11,0.024l0.032-0.02C0.988,3.08,0.876,3.086,0.875,3.086
		C0.679,3.082,0.381,3.227,0.38,3.227l-0.001,0C0.22,3.316,0.241,3.387,0.241,3.387L0.241,3.387z M0.181,3.18l0.037-0.01
		c0,0-0.013-0.042,0.12-0.116c0.019-0.009,0.297-0.141,0.479-0.137h0.001c0,0,0.091-0.004,0.109,0.024L0.958,2.92
		C0.927,2.873,0.816,2.879,0.815,2.879C0.618,2.875,0.321,3.02,0.319,3.021l-0.001,0C0.159,3.11,0.181,3.18,0.181,3.18L0.181,3.18z
		 M0.06,2.767l0.036-0.011c0,0-0.013-0.042,0.12-0.116c0.019-0.009,0.297-0.142,0.479-0.137h0.001c0,0,0.092-0.004,0.11,0.024
		l0.032-0.02C0.806,2.459,0.694,2.465,0.694,2.465C0.497,2.461,0.199,2.606,0.198,2.606l-0.001,0C0.038,2.696,0.06,2.767,0.06,2.767
		L0.06,2.767z M0,2.244v0.049c0.018-0.018,0.046-0.04,0.094-0.067C0.113,2.217,0.391,2.085,0.572,2.09h0.001
		c0,0,0.091-0.004,0.11,0.024l0.032-0.021C0.685,2.045,0.573,2.052,0.572,2.052c-0.197-0.005-0.494,0.14-0.495,0.141l-0.001,0
		C0.044,2.211,0.019,2.228,0,2.244z"/>
	<path opacity="0.85" fill-rule="evenodd" clip-rule="evenodd" fill="#2D292A" d="M0.546,7.047H0V7.005h0.546V7.047L0.546,7.047z
		 M0,4.917h0.37v0.004l0.502,0.488h0v0l0.025,0.024L0.894,5.438v0.57H0.852V5.451H0.387v0.004H0.345V4.958H0V4.917L0,4.917z
		 M1.112,6.781l0.005-0.004c0.074-0.075,0.12-0.176,0.12-0.289S1.191,6.273,1.118,6.2S0.941,6.081,0.829,6.081
		c-0.113,0-0.215,0.046-0.289,0.119C0.466,6.273,0.42,6.375,0.42,6.488s0.045,0.214,0.12,0.289C0.614,6.85,0.716,6.896,0.829,6.896
		c0.095,0,0.183-0.033,0.251-0.088l0.228,0.227l0.029-0.028L1.112,6.781L1.112,6.781z M1.089,6.746
		c-0.067,0.066-0.158,0.107-0.26,0.107c-0.101,0-0.193-0.041-0.26-0.107C0.503,6.682,0.462,6.59,0.462,6.488
		c0-0.101,0.041-0.192,0.107-0.258c0.066-0.066,0.159-0.107,0.26-0.107c0.102,0,0.193,0.041,0.26,0.107
		c0.066,0.065,0.107,0.157,0.107,0.258C1.196,6.59,1.155,6.682,1.089,6.746L1.089,6.746z M0,5.409v0.042h0.021V5.409H0L0,5.409z
		 M0,5.7v0.041h0.556V5.7H0L0,5.7z M0,5.978V6.02h0.551V5.978H0L0,5.978z M0,6.263h0.255v0.042H0V6.263L0,6.263z M0,6.545h0.158
		v0.043H0V6.545L0,6.545z M0.386,5.409h0.427L0.386,4.995V5.409z"/>
	<path opacity="0.85" fill-rule="evenodd" clip-rule="evenodd" fill="#2D292A" d="M19.12,4.069l-0.446-1.521l-0.107,0.097
		l0.453,1.543v0.002c0,0,0.012,0.079,0.099,0.053l0.88-0.257v0.039l-0.869,0.254c-0.119,0.035-0.144-0.066-0.146-0.083l-0.46-1.565
		l0.139-0.125l-0.015-0.05l0.005-0.007c0.001-0.001,0.282-0.409,1.077-0.352c0.024-0.022,0.121-0.104,0.269-0.18V1.96
		c-0.128,0.068-0.215,0.14-0.241,0.163l0.241,0.823v0.135l-0.276-0.946c-0.709-0.049-0.992,0.276-1.033,0.329l0.459,1.562
		c0.243-0.255,0.619-0.317,0.851-0.329v0.038c-0.232,0.012-0.613,0.076-0.846,0.341L19.13,4.102L19.12,4.069L19.12,4.069z
		 M19.958,2.353l0.036-0.011c0,0-0.002-0.007,0.004-0.021V2.264C19.946,2.317,19.958,2.353,19.958,2.353L19.958,2.353z
		 M19.062,3.289l0.036-0.011c0,0-0.012-0.042,0.12-0.116c0.019-0.009,0.298-0.142,0.479-0.137h0.001c0,0,0.09-0.004,0.109,0.024
		l0.031-0.021c-0.03-0.048-0.142-0.041-0.142-0.041C19.499,2.982,19.2,3.128,19.2,3.128l-0.001,0
		C19.039,3.217,19.062,3.288,19.062,3.289L19.062,3.289z M18.939,2.875l0.036-0.01c0,0-0.012-0.042,0.121-0.116
		c0.019-0.009,0.297-0.142,0.478-0.137h0.001c0,0,0.091-0.004,0.11,0.024l0.032-0.021c-0.03-0.047-0.144-0.041-0.144-0.041
		c-0.197-0.005-0.494,0.14-0.494,0.141l-0.001,0C18.918,2.804,18.939,2.875,18.939,2.875L18.939,2.875z M19.183,3.702l0.036-0.011
		c0,0-0.012-0.042,0.12-0.116c0.018-0.009,0.297-0.142,0.478-0.136h0.001c0,0,0.093-0.005,0.111,0.024l0.032-0.021
		c-0.031-0.048-0.145-0.042-0.145-0.042c-0.196-0.005-0.495,0.141-0.495,0.141l-0.002,0C19.161,3.631,19.183,3.702,19.183,3.702
		L19.183,3.702z M19.122,3.495l0.036-0.01c0,0-0.012-0.042,0.12-0.116c0.019-0.009,0.297-0.142,0.478-0.137h0.001
		c0,0,0.092-0.004,0.11,0.024l0.032-0.021c-0.031-0.047-0.144-0.041-0.144-0.041c-0.196-0.005-0.494,0.14-0.495,0.141l-0.001,0
		C19.101,3.424,19.122,3.495,19.122,3.495L19.122,3.495z M19,3.082l0.036-0.011c0,0-0.013-0.042,0.121-0.116
		c0.019-0.009,0.296-0.142,0.478-0.137h0.001c0,0,0.093-0.004,0.111,0.023l0.03-0.02c-0.029-0.048-0.143-0.042-0.143-0.042
		c-0.197-0.005-0.494,0.141-0.495,0.142l-0.002,0C18.979,3.011,19,3.082,19,3.082L19,3.082z M18.879,2.668l0.036-0.011
		c0,0-0.013-0.042,0.12-0.116c0.019-0.008,0.297-0.141,0.479-0.137h0.001c0,0,0.09-0.004,0.109,0.024l0.031-0.021
		c-0.031-0.048-0.142-0.042-0.142-0.042c-0.198-0.004-0.496,0.141-0.497,0.141l-0.001,0C18.858,2.597,18.879,2.667,18.879,2.668z"/>
	<path opacity="0.85" fill-rule="evenodd" clip-rule="evenodd" fill="#2D292A" d="M19.998,7.047h-0.727V4.958V4.917h0.727v0.042
		h-0.686v2.046h0.686V7.047L19.998,7.047z M19.606,5.409v0.042h0.392V5.409H19.606L19.606,5.409z M19.605,5.7v0.041h0.393V5.7
		H19.605L19.605,5.7z M19.606,5.978V6.02h0.392V5.978H19.606L19.606,5.978z M19.606,6.263v0.042h0.392V6.263H19.606L19.606,6.263z
		 M19.623,6.545v0.043h0.375V6.545H19.623z"/>
	<path fill-rule="evenodd" clip-rule="evenodd" fill="#2D292A" d="M19.057,0.924L19.574,1l0.062-0.414L19.119,0.51L19.057,0.924
		L19.057,0.924z M19.998,0.363L19.441,0.28l-0.033,0.223l0.284,0.042l-0.076,0.511l-0.024-0.003l-0.591-0.088l0.077-0.511
		l0.282,0.042l0.033-0.223l-1.059-0.158l-0.033,0.224l0.302,0.045l-0.075,0.51l-0.024-0.003l-0.592-0.087l0.077-0.511l0.265,0.039
		l0.039-0.27L18.3,0.063V0.062l0.546,0.081L18.868,0h0.049l-0.021,0.15l1.103,0.164V0.363L19.998,0.363z M19.998,0.077V0.028
		L19.813,0H19.7l-0.004,0.032L19.998,0.077L19.998,0.077z M17.968,0.762l0.52,0.077l0.062-0.415L18.03,0.348L17.968,0.762z"/>
	<path fill-rule="evenodd" clip-rule="evenodd" fill="#2D292A" d="M0.552,0.421L0.515,0.669L0.789,0.71L0.713,1.22L0.688,1.217
		l-0.59-0.088l0.076-0.51l0.292,0.043L0.5,0.438L0,0.364V0.315l0.556,0.083L0.552,0.421L0.552,0.421L0.552,0.421z M0.318,0
		L0.3,0.123L0.276,0.12L0,0.079V0.029l0.259,0.038L0.269,0H0.318L0.318,0z M0.153,1.088l0.518,0.077l0.062-0.414L0.215,0.674
		L0.153,1.088z"/>
	<path fill-rule="evenodd" clip-rule="evenodd" fill="#2D292A" d="M9.589,1.296L7.992,0.975L8.189,0h0.054L8.053,0.933L9.6,1.245
		L9.589,1.296L9.589,1.296z M10.298,0l-0.021,0.1l-0.051-0.01L10.244,0H10.298L10.298,0z M10.354,1.11l0.008-0.005
		c0.111-0.073,0.193-0.187,0.22-0.326c0.029-0.139-0.002-0.276-0.075-0.386c-0.073-0.109-0.188-0.191-0.327-0.219
		C10.041,0.146,9.903,0.177,9.793,0.25c-0.11,0.073-0.191,0.187-0.22,0.326C9.545,0.715,9.577,0.852,9.649,0.961
		c0.072,0.109,0.188,0.191,0.327,0.219c0.118,0.023,0.233,0.005,0.333-0.044l0.223,0.336l0.043-0.028L10.354,1.11L10.354,1.11z
		 M10.333,1.062c-0.098,0.065-0.221,0.093-0.346,0.067C9.862,1.104,9.758,1.031,9.692,0.933C9.627,0.834,9.6,0.711,9.625,0.586
		C9.65,0.462,9.724,0.359,9.822,0.294c0.098-0.065,0.222-0.093,0.348-0.068c0.125,0.025,0.228,0.099,0.292,0.197
		c0.066,0.098,0.093,0.221,0.068,0.346C10.505,0.894,10.432,0.996,10.333,1.062L10.333,1.062z M9.858,0L9.853,0.03L9.704,0H9.858
		L9.858,0z M8.603,0.09L8.592,0.141l0.824,0.166l0.011-0.052L8.603,0.09L8.603,0.09z M8.551,0.443l-0.01,0.052l0.685,0.138
		l0.01-0.051L8.551,0.443z"/>
	<path fill-rule="evenodd" clip-rule="evenodd" fill="#2D292A" d="M15.808,0l-0.233,0.084L15.544,0h-0.05l0.037,0.101l-0.362,0.132
		L15.083,0h-0.136l-0.328,0.121l0.421,1.15l0.022-0.008l1.645-0.601L16.463,0h-0.05l0.03,0.081l-0.361,0.133L16.003,0h-0.048
		l0.083,0.229l-0.361,0.132l-0.086-0.233L15.941,0H15.808L15.808,0z M16.055,0.272l0.085,0.233l-0.361,0.132l-0.086-0.233
		L16.055,0.272L16.055,0.272z M16.156,0.549l0.086,0.233l-0.363,0.132l-0.085-0.233L16.156,0.549L16.156,0.549z M16.285,0.766
		l-0.086-0.233l0.361-0.132l0.087,0.233L16.285,0.766L16.285,0.766z M16.184,0.489l-0.086-0.233l0.362-0.132l0.084,0.233
		L16.184,0.489L16.184,0.489z M15.548,0.144l0.085,0.233l-0.361,0.132l-0.086-0.233L15.548,0.144L15.548,0.144z M15.649,0.42
		l0.086,0.233l-0.363,0.132l-0.086-0.233L15.649,0.42L15.649,0.42z M15.751,0.697l0.086,0.233l-0.363,0.132l-0.086-0.233
		L15.751,0.697L15.751,0.697z M15.039,0.016l0.087,0.233l-0.362,0.132l-0.086-0.233L15.039,0.016L15.039,0.016z M15.143,0.292
		l0.085,0.233l-0.361,0.132L14.78,0.424L15.143,0.292L15.143,0.292z M15.243,0.568l0.087,0.233l-0.363,0.132L14.88,0.701
		L15.243,0.568L15.243,0.568z M15.346,0.845l0.085,0.233l-0.362,0.133l-0.085-0.233L15.346,0.845L15.346,0.845z M16.706,0h0.049
		l0.3,0.816c0.007,0.019,0.006,0.038-0.002,0.054c-0.007,0.016-0.021,0.03-0.04,0.036L14.977,1.65
		c-0.018,0.007-0.037,0.005-0.053-0.002c-0.017-0.008-0.031-0.022-0.038-0.04L14.297,0h0.049l0.585,1.593
		c0.002,0.006,0.007,0.011,0.012,0.013c0.005,0.003,0.013,0.003,0.019,0.001l2.036-0.744c0.007-0.002,0.011-0.007,0.014-0.012
		c0.002-0.005,0.002-0.012,0-0.019L16.706,0z"/>
	<path opacity="0.85" fill-rule="evenodd" clip-rule="evenodd" fill="#2D292A" d="M3.114,0.956L1.831,1.12L1.687,0h0.042
		l0.138,1.074l1.242-0.159L3.114,0.956L3.114,0.956z M3.643,0.622l0.004-0.006c0.064-0.083,0.097-0.19,0.083-0.301
		C3.715,0.203,3.656,0.108,3.573,0.044C3.551,0.027,3.528,0.012,3.503,0H3.145C3.088,0.028,3.039,0.068,3.001,0.118
		C2.937,0.2,2.904,0.307,2.919,0.418C2.933,0.53,2.992,0.625,3.074,0.689c0.083,0.063,0.19,0.096,0.301,0.082
		C3.47,0.759,3.552,0.715,3.615,0.653l0.254,0.195l0.025-0.033L3.643,0.622L3.643,0.622z M3.614,0.59
		C3.672,0.516,3.701,0.42,3.688,0.32C3.675,0.22,3.623,0.134,3.548,0.077C3.474,0.02,3.377-0.01,3.277,0.003
		C3.176,0.017,3.091,0.068,3.034,0.143c-0.058,0.074-0.086,0.17-0.074,0.27C2.973,0.513,3.026,0.599,3.1,0.656
		c0.074,0.057,0.17,0.086,0.271,0.073C3.471,0.716,3.557,0.665,3.614,0.59L3.614,0.59z M2.027,0.018l0.006,0.042L2.494,0H2.167
		L2.027,0.018L2.027,0.018z M2.064,0.3l0.005,0.042l0.662-0.085L2.727,0.215L2.064,0.3L2.064,0.3z M2.116,0.579L2.122,0.62
		l0.55-0.07L2.667,0.509L2.116,0.579z"/>
	<path opacity="0.85" fill="#2D292A" d="M18.868,11.967l0.015-0.103l0.049,0.008l-0.015,0.095H18.868L18.868,11.967z M19.998,11.569
		l-0.186-0.026l-0.061,0.414l0.063,0.01H19.7l0.071-0.479l0.227,0.034V11.569L19.998,11.569z M19.998,11.293v-0.05l-0.397-0.059
		l0.034-0.229l0.259,0.038l0.024,0.004l0.077-0.513l-0.616-0.09l-0.075,0.512l0.283,0.04l-0.034,0.232l-0.541-0.081l0,0
		l-0.019-0.002l-0.037,0.254l-0.283-0.042l-0.077,0.512l0.591,0.087l0.024,0.004l0.076-0.51l-0.284-0.043l0.031-0.207L19.998,11.293
		L19.998,11.293z M19.359,10.864l0.062-0.414l0.519,0.077l-0.063,0.413L19.359,10.864L19.359,10.864z M18.652,11.779l0.062-0.415
		l0.518,0.076l-0.063,0.415L18.652,11.779z"/>
	<polygon fill-rule="evenodd" clip-rule="evenodd" fill="#2D292A" points="0.126,11.313 0.093,11.537 0.376,11.58 0.318,11.967 
		0.269,11.967 0.321,11.62 0,11.571 0,11.523 0.044,11.529 0.078,11.306 0,11.295 0,11.245 0.133,11.265 0.126,11.313 	"/>
	<path fill-rule="evenodd" clip-rule="evenodd" fill="#2D292A" d="M8.189,11.967l0.325-1.603l0.01-0.053l1.38,0.278l-0.001,0.004
		l0.498,0.728h0.001v0.002l0.024,0.037l-0.006,0.004l-0.123,0.603h-0.053l0.122-0.599l-0.574-0.115L9.79,11.259l-0.052-0.01
		l0.125-0.615l-1.298-0.26l-0.322,1.593H8.189L8.189,11.967z M8.815,11.003l-0.01,0.051L9.34,11.16l0.01-0.05L8.815,11.003
		L8.815,11.003z M8.741,11.36l-0.01,0.052l1.197,0.24l0.01-0.051L8.741,11.36L8.741,11.36z M8.673,11.705l-0.011,0.052l1.043,0.21
		h0.153l0.004-0.022L8.673,11.705L8.673,11.705z M9.801,11.2l0.526,0.107l-0.423-0.619L9.801,11.2z"/>
	<path fill-rule="evenodd" clip-rule="evenodd" fill="#2D292A" d="M14.198,11.497l0.18-0.064l0.036,0.101
		c0.007,0.019,0.02,0.032,0.033,0.04c0.017,0.009,0.037,0.011,0.054,0.005l0.239-0.089c0.017-0.007,0.03-0.019,0.037-0.036
		c0.006-0.017,0.007-0.035,0-0.051L14.74,11.3l0.941-0.343l0.037,0.101c0.006,0.018,0.021,0.03,0.034,0.038
		c0.017,0.008,0.035,0.01,0.053,0.004l0.237-0.087c0.018-0.006,0.03-0.02,0.037-0.036c0.007-0.016,0.007-0.034,0.001-0.052
		l-0.038-0.102l0.192-0.07c0.006-0.002,0.013-0.002,0.018,0.002c0.005,0.002,0.01,0.006,0.013,0.013l0.121,0.332l-2.08,0.761
		l-0.122-0.331c-0.003-0.008-0.002-0.014,0.001-0.019C14.188,11.505,14.192,11.501,14.198,11.497L14.198,11.497z M15.852,11.685
		l0.085,0.233l-0.13,0.049h0.134l0.013-0.006l0.002,0.006h0.049l-0.008-0.021l0.362-0.133l0.056,0.153h0.049l-0.179-0.49
		l-1.338,0.49h0.138h-0.001l0.361-0.133l0.05,0.133h0.05l-0.055-0.149L15.852,11.685L15.852,11.685z M15.979,11.902l0.361-0.131
		l-0.084-0.234l-0.363,0.133L15.979,11.902L15.979,11.902z M16.402,11.143l0.304,0.824h0.049l-0.446-1.216
		c-0.006-0.019-0.021-0.03-0.036-0.038c-0.017-0.008-0.035-0.011-0.054-0.002l-0.191,0.068l-0.044-0.121
		c-0.007-0.017-0.02-0.03-0.034-0.038c-0.017-0.008-0.035-0.011-0.053-0.004l-0.238,0.086c-0.017,0.007-0.03,0.021-0.036,0.037
		c-0.006,0.016-0.007,0.034-0.001,0.052l0.044,0.121l-0.94,0.345l-0.046-0.121c-0.006-0.018-0.02-0.032-0.033-0.04
		c-0.017-0.008-0.034-0.01-0.052-0.004l-0.239,0.087c-0.017,0.008-0.03,0.02-0.036,0.038c-0.006,0.014-0.007,0.032-0.001,0.051
		l0.046,0.12l-0.181,0.067c-0.019,0.006-0.031,0.02-0.039,0.036c-0.009,0.016-0.01,0.034-0.002,0.052l0.155,0.424h0.049
		l-0.023-0.064L16.402,11.143L16.402,11.143z M14.405,11.372l0.053,0.146c0.003,0.006,0.007,0.012,0.012,0.014
		c0.005,0.004,0.01,0.004,0.016,0.002l0.239-0.087c0.004-0.002,0.007-0.006,0.01-0.01c0.002-0.006,0.002-0.012,0-0.019l-0.055-0.145
		l-0.045-0.123c-0.002-0.006-0.006-0.011-0.012-0.015c-0.004-0.002-0.009-0.002-0.013,0l-0.239,0.087
		c-0.004,0.002-0.008,0.006-0.009,0.01c-0.003,0.007-0.003,0.013,0,0.019L14.405,11.372L14.405,11.372z M15.709,10.896l0.054,0.145
		c0.003,0.007,0.008,0.013,0.013,0.015c0.004,0.002,0.009,0.004,0.014,0.002l0.238-0.089c0.005,0,0.008-0.004,0.01-0.01
		c0.002-0.004,0.002-0.011,0-0.019l-0.053-0.146l-0.045-0.12c-0.002-0.007-0.008-0.013-0.013-0.015
		c-0.004-0.002-0.01-0.004-0.015-0.002l-0.237,0.089c-0.006,0.002-0.009,0.004-0.011,0.01c-0.002,0.004-0.002,0.013,0,0.019
		L15.709,10.896z"/>
	<path opacity="0.85" fill-rule="evenodd" clip-rule="evenodd" fill="#2D292A" d="M1.687,11.967l-0.122-0.952l-0.005-0.04
		l1.109-0.143l0,0.004l0.561,0.421H3.23l0,0l0.027,0.021l-0.003,0.006l0.073,0.564l-0.041,0.004l-0.071-0.55L2.752,11.36l0,0.004
		L2.712,11.37l-0.065-0.494l-1.042,0.133l0.125,0.958H1.687L1.687,11.967z M3.144,11.967h0.359
		c-0.069-0.034-0.149-0.049-0.232-0.038C3.227,11.935,3.184,11.946,3.144,11.967L3.144,11.967z M1.955,11.418l0.005,0.043
		l0.43-0.055l-0.005-0.042L1.955,11.418L1.955,11.418z M1.99,11.709l0.006,0.04l0.961-0.123l-0.005-0.042L1.99,11.709L1.99,11.709z
		 M2.165,11.967h0.327l0.497-0.064l-0.005-0.04L2.165,11.967L2.165,11.967z M2.747,11.317l0.422-0.053l-0.476-0.358L2.747,11.317z"
		/>
</g>
</svg>
