<svg fill="none" height="567" viewBox="0 0 979 567" width="979" xmlns="http://www.w3.org/2000/svg"><path d="m624.084 209.397.001.007c9.271 64.38 25.597 130.484 92.667 158.369 13.119 5.462 26.67 10.639 40.321 15.855 32.087 12.259 64.721 24.728 93.574 41.589 41.048 23.988 74.239 56.769 86.871 110.271l.002.008.002.007c7.609 30.243 1.453 63.564-13.059 93.186-14.511 29.619-37.331 55.438-62.899 70.677-56.781 33.447-122.07 27.934-167.272-25.08l-.002-.002c-13.122-15.324-23.304-32.285-32.784-49.209-2.019-3.603-4.007-7.207-5.985-10.792-7.296-13.229-14.46-26.217-22.55-38.063-10.295-15.076-22.136-28.377-37.772-38.101-15.646-9.729-35.03-15.838-60.354-16.625h-.001c-54.7-1.65-111.09 17.754-162.094 35.305l-1.235.425-.002.001c-88.895 30.799-195.384 57.371-279.3785 1.051l-.0019-.001c-57.4399-38.322-79.3439-110.443-76.6515-176.865 3.5742-81.728 33.4494-153.369 83.8619-217.408l.0013-.002c86.9857-110.9605 235.1277-165.97433 373.1457-128.7208 82.098 22.16 140.121 90.4988 151.594 174.1178z" stroke="#fff" stroke-width="2"/></svg>