<svg xmlns="http://www.w3.org/2000/svg" xmlns:xlink="http://www.w3.org/1999/xlink" width="281.5" height="108.5" viewBox="0 0 281.5 108.5"><defs><style>.a{fill:#ffc861;stroke:#ae2e00;}.b{fill:#fff;}.c{fill:#c3c3c3;}.d{fill:#e3e3e3;}.e{fill:#f07d25;}.f{stroke:none;}.g{fill:none;}.h{filter:url(#a);}</style><filter id="a" x="0" y="0" width="264" height="104" filterUnits="userSpaceOnUse"><feOffset dy="8" input="SourceAlpha"/><feGaussianBlur stdDeviation="3.5" result="b"/><feFlood flood-opacity="0.161"/><feComposite operator="in" in2="b"/><feComposite in="SourceGraphic"/></filter></defs><g transform="translate(-982.5 -1684.5)"><g class="a" transform="translate(1021 1710)"><rect class="f" width="243" height="83" rx="11"/><rect class="g" x="0.5" y="0.5" width="242" height="82" rx="10.5"/></g><g transform="translate(-49 -1495)"><g transform="translate(947)"><g class="h" transform="matrix(1, 0, 0, 1, 84.5, 3179.5)"><rect class="b" width="243" height="83" rx="11" transform="translate(10.5 2.5)"/></g><rect class="c" width="127" height="12" rx="3" transform="translate(171 3207)"/><rect class="d" width="76" height="12" rx="3" transform="translate(171 3222)"/></g></g><g transform="translate(951.5 1710)"><path class="e" d="M164.556,20.62a6.063,6.063,0,0,0,6.056-6.056V6.056a6.056,6.056,0,1,0-12.111,0v8.509A6.062,6.062,0,0,0,164.556,20.62ZM160.363,6.056a4.192,4.192,0,1,1,8.385,0v8.509a4.192,4.192,0,0,1-8.385,0Z" transform="translate(-84.41)"/><path class="e" d="M87.133,181.9H83.406v-2.423a9.8,9.8,0,0,0,6.521-9.223V166H88.064v4.255a7.919,7.919,0,0,1-15.838,0V166H70.363v4.255a9.8,9.8,0,0,0,6.521,9.223V181.9H73.158a4.663,4.663,0,0,0-4.658,4.658v.932H91.791v-.932A4.664,4.664,0,0,0,87.133,181.9Zm-8.385-1.964a9.789,9.789,0,0,0,2.795,0V181.9H78.748Zm-8.225,5.69a2.8,2.8,0,0,1,2.635-1.863H87.133a2.8,2.8,0,0,1,2.635,1.863Z" transform="translate(0 -155.69)"/></g></g></svg>