<svg height="1171.932" viewBox="0 0 1280.955 1171.932" width="1280.955" xmlns="http://www.w3.org/2000/svg"><g fill="none" opacity=".06" stroke="#000" transform="translate(.468 .499)"><path d="m914.649 85.455c14.754 7.778 17.3 24.1 23.433 37.652 5.709 12.61 11.488 24.889 10.974 38.35-.606 15.849 1.188 35.394-14.155 44.913-15.454 9.589-37.207-1.752-56.5-1.075-17.461.609-36.36 12.932-50.816 4.821-14.611-8.2-7.571-27.534-13.942-41.152-5.876-12.559-23.3-21.667-21.72-35.075 1.6-13.609 17.012-22.787 29.569-31.688 12.257-8.688 25.719-15.846 41.49-18.682 17.272-3.107 36.769-5.919 51.667 1.935z" transform="translate(-184.832 469.841)"/><path d="m937.664 36.794c23.836 12.565 27.992 38.862 37.936 60.706 9.252 20.327 18.616 40.118 17.827 61.8-.928 25.53 2.027 57.022-22.706 72.324-24.913 15.412-60.054-2.9-91.193-1.857-28.179.944-58.642 20.756-82 7.659-23.6-13.237-12.3-44.373-22.627-66.325-9.521-20.245-37.665-34.955-35.162-56.551 2.541-21.919 27.387-36.675 47.625-50.987 19.755-13.97 41.46-25.474 66.9-30.006 27.874-4.965 59.332-9.453 83.4 3.23z" transform="translate(-184.832 478.824)"/><path d="m959.96-10.345c32.632 17.194 38.351 53.162 51.98 83.041 12.69 27.8 25.53 54.873 24.47 84.527-1.24 34.91 2.84 77.974-30.99 98.878-34.076 21.056-82.187-4.012-124.8-2.609-38.562 1.269-80.228 28.336-112.207 10.409-32.319-18.118-16.887-60.685-31.041-90.711-13.053-27.692-51.585-47.827-48.184-77.355 3.452-29.972 37.437-50.128 65.117-69.684 27.018-19.087 56.708-34.8 91.523-40.98 38.133-6.766 81.179-12.878 114.132 4.484z" transform="translate(-184.832 487.528)"/><path d="m980.1-52.922c40.58 21.379 47.71 66.078 64.67 103.213 15.78 34.553 31.76 68.2 30.47 105.049-1.53 43.382 3.57 96.9-38.48 122.864-42.35 26.153-102.177-5.017-155.153-3.29-47.94 1.562-99.725 35.183-139.492 12.9-40.189-22.526-21.028-75.42-38.641-112.738-16.242-34.414-64.156-59.454-59.945-96.146 4.271-37.25 46.514-62.285 80.916-86.58 33.578-23.71 70.481-43.226 113.76-50.891 47.4-8.392 100.916-15.97 141.9 5.619z" transform="translate(-184.832 495.389)"/><path d="m998.8-92.458c47.95 25.266 56.39 78.072 76.45 121.945 18.67 40.824 37.55 80.575 36.04 124.106-1.79 51.25 4.25 114.471-45.43 145.136-50.03 30.887-120.738-5.952-183.337-3.922-56.648 1.835-117.829 41.54-164.827 15.2-47.5-26.617-24.873-89.1-45.7-133.191-19.2-40.658-75.831-70.249-70.867-113.595 5.039-44 54.944-73.562 95.587-102.253 39.67-28 83.27-51.049 134.409-60.1 56.014-9.9 119.245-18.844 167.675 6.669z" transform="translate(-184.832 502.689)"/><path d="m1018.22-133.516c55.62 29.3 65.41 90.528 88.69 141.4 21.65 47.335 43.56 93.426 41.81 143.9-2.06 59.417 4.97 132.719-52.63 168.264-58.02 35.8-140.023-6.918-212.615-4.578-65.691 2.118-136.63 48.142-191.137 17.595-55.087-30.873-28.866-103.309-53.027-154.43-22.28-47.144-87.954-81.464-82.211-131.716 5.835-51.019 63.7-85.285 110.824-118.539 46-32.459 96.551-59.173 155.852-69.651 64.952-11.477 138.275-21.829 194.444 7.755z" transform="translate(-184.833 510.269)"/><path d="m1041.95-183.7c64.99 34.233 76.45 105.75 103.64 165.173 25.31 55.292 50.92 109.132 48.89 168.083-2.39 69.4 5.83 155.023-61.46 196.532-67.77 41.81-163.575-8.1-248.382-5.38-76.744 2.464-159.608 56.21-223.294 20.522-64.362-36.068-33.744-120.674-61.983-180.39-26.04-55.064-102.772-95.16-96.071-153.858 6.8-59.58 74.4-99.6 129.442-138.435 53.729-37.906 112.783-69.1 182.06-81.331 75.878-13.4 161.536-25.48 227.158 9.089z" transform="translate(-184.832 519.534)"/><path d="m1067.84-238.438c75.2 39.614 88.48 122.357 119.96 191.11 29.29 63.974 58.94 126.266 56.6 194.469-2.76 80.294 6.77 179.355-71.08 227.37-78.41 48.363-189.282-9.394-287.413-6.254-88.8 2.841-184.675 65.014-258.374 23.715-74.481-41.737-39.07-139.616-71.754-208.71-30.141-63.715-118.937-110.112-111.193-178.023 7.86-68.93 86.067-115.223 149.754-160.147 62.164-43.849 130.492-79.934 210.651-94.069 87.8-15.492 186.909-29.463 262.849 10.539z" transform="translate(-184.832 529.641)"/><path d="m1142.013-285.752c91.049 53.815 107.133 166.191 145.247 259.566 35.472 86.886 71.372 171.491 68.549 264.123-3.326 109.051 8.213 243.589-86.012 308.791-94.92 65.675-229.146-12.778-347.941-8.524-107.5 3.848-223.556 88.274-312.78 32.18-90.176-56.693-47.317-189.624-86.894-283.464-36.5-86.537-144-149.561-134.633-241.792 9.506-93.616 104.175-156.48 181.264-217.484 75.249-59.544 157.96-108.544 254.997-127.744 106.287-21.025 226.266-39.989 318.2 14.347z" transform="translate(-218.832 459.082)"/><path d="m1165.031-334.411c100.129 58.594 117.823 180.951 159.748 282.623 39.012 94.606 78.5 186.725 75.4 287.578-3.645 118.733 9.054 265.217-94.561 336.2-104.38 71.5-251.992-13.929-382.632-9.307-118.219 4.183-245.837 96.1-343.961 35.016-99.166-61.732-52.05-206.464-95.581-308.638-40.144-94.219-158.368-162.845-148.077-263.261 10.446-101.932 114.549-170.371 199.323-236.786 82.746-64.829 173.7-118.173 280.41-139.072 116.879-22.881 248.825-43.52 349.932 15.647z" transform="translate(-218.832 468.067)"/><path d="m1189.479-386.11c109.779 63.676 129.184 196.635 175.159 307.12 42.783 102.8 86.073 202.9 82.681 312.5-3.985 129.016 9.956 288.2-103.65 365.327-114.419 77.689-276.261-15.15-419.481-10.136-129.606 4.541-269.508 104.414-377.088 38.031-108.724-67.087-57.079-224.359-104.81-335.384-44.023-102.392-173.641-176.972-162.366-286.092 11.445-110.756 125.576-185.12 218.505-257.287 90.713-70.435 190.42-128.4 307.412-151.1 128.136-24.861 272.79-47.282 383.637 17.019z" transform="translate(-218.832 477.612)"/><path d="m1216.087-442.372c120.28 69.208 141.555 213.706 191.93 333.779 46.873 111.728 94.314 220.521 90.612 339.622-4.365 140.215 10.916 313.206-113.538 397.022-125.359 84.425-302.681-16.481-459.6-11.037-142 4.925-295.28 113.457-413.148 41.309-119.122-72.916-62.549-243.823-114.852-364.495-48.232-111.274-190.248-192.335-177.9-310.923 12.532-120.368 137.565-201.177 239.381-279.6 99.383-76.548 208.623-139.532 336.8-164.2 140.385-27.008 298.873-51.366 420.32 18.519z" transform="translate(-218.832 488)"/></g></svg>