<svg height="470.48" viewBox="0 0 590.586 470.48" width="590.586" xmlns="http://www.w3.org/2000/svg"><g fill="none" opacity=".042" stroke="#ae2e00" transform="translate(.486 .5)"><path d="m848.4 82.712c6.8 3.583 7.969 11.1 10.794 17.344 2.63 5.809 5.292 11.464 5.055 17.665-.279 7.3.547 16.3-6.52 20.688-7.119 4.417-17.139-.807-26.026-.495-8.043.281-16.748 5.957-23.407 2.221-6.73-3.776-3.487-12.683-6.422-18.956-2.707-5.785-10.733-9.981-10-16.157.737-6.269 7.836-10.5 13.62-14.6 5.646-4 11.847-7.3 19.111-8.605 7.956-1.431 16.937-2.726 23.8.891z" transform="translate(-512.225 136.045)"/><path d="m830.824 32.349c10.979 5.788 12.894 17.9 17.474 27.963 4.262 9.363 8.575 18.48 8.212 28.469-.427 11.76.934 26.266-10.459 33.315-11.476 7.1-27.663-1.336-42.006-.855-12.98.435-27.012 9.561-37.771 3.528-10.873-6.1-5.666-20.439-10.423-30.551-4.386-9.325-17.35-16.1-16.2-26.049 1.171-10.1 12.615-16.893 21.937-23.486 9.1-6.435 19.1-11.734 30.816-13.822 12.84-2.287 27.33-4.354 38.417 1.488z" transform="translate(-484.048 168.132)"/><path d="m813.8-16.44c15.031 7.92 17.666 24.488 23.943 38.251 5.845 12.807 11.76 25.276 11.272 38.935-.571 16.08 1.308 35.917-14.275 45.546-15.7 9.7-37.858-1.848-57.486-1.2-17.763.584-36.955 13.052-51.686 4.795-14.887-8.346-7.779-27.953-14.3-41.784-6.013-12.756-23.762-22.031-22.195-35.632 1.59-13.806 17.245-23.09 29.995-32.1 12.445-8.792 26.121-16.03 42.158-18.877 17.565-3.117 37.393-5.932 52.572 2.066z" transform="translate(-456.753 199.217)"/><path d="m798.422-60.508c18.693 9.848 21.978 30.438 29.789 47.543 7.269 15.916 14.63 31.413 14.035 48.389-.7 19.983 1.644 44.634-17.725 56.595-19.508 12.047-47.066-2.311-71.468-1.515-22.082.72-45.936 16.206-64.254 5.94-18.511-10.377-9.685-34.744-17.799-51.931-7.481-15.852-29.551-27.386-27.612-44.288 1.967-17.157 21.426-28.689 37.272-39.879 15.467-10.921 32.466-19.911 52.4-23.442 21.836-3.866 46.485-7.356 65.361 2.588z" transform="translate(-432.099 227.293)"/><path d="m784.142-101.427c22.087 11.638 25.975 35.962 35.215 56.171 8.6 18.8 17.3 37.115 16.6 57.167-.825 23.607 1.958 52.729-20.926 66.854-23.045 14.227-55.615-2.742-84.45-1.807-26.094.845-54.275 19.135-75.924 7-21.879-12.258-11.457-41.041-21.05-61.35-8.844-18.728-34.93-32.359-32.643-52.325 2.321-20.266 25.309-33.885 44.03-47.1 18.273-12.9 38.357-23.514 61.913-27.682 25.8-4.562 54.928-8.68 77.236 3.072z" transform="translate(-409.205 253.363)"/><path d="m769.314-143.921c25.62 13.5 30.13 41.7 40.853 65.132 9.973 21.8 20.065 43.035 19.259 66.283-.949 27.369 2.289 61.134-24.243 77.507-26.726 16.491-64.5-3.187-97.936-2.109-30.259.976-62.936 22.176-88.043 8.1-25.375-14.221-13.3-47.587-24.426-71.135-10.263-21.716-40.514-37.525-37.869-60.672 2.688-23.5 29.342-39.282 51.049-54.6 21.189-14.951 44.474-27.257 71.79-32.083 29.918-5.282 63.693-10.052 89.566 3.577z" transform="translate(-385.432 280.437)"/><path d="m751.19-195.857c29.936 15.769 35.215 48.712 47.74 76.083 11.658 25.474 23.454 50.274 22.519 77.424-1.1 31.969 2.685 71.408-28.31 90.528-31.217 19.259-75.347-3.731-114.412-2.478-35.351 1.135-73.52 25.892-102.856 9.453-29.646-16.614-15.543-55.586-28.551-83.093-11.995-25.366-47.34-43.835-44.253-70.873 3.132-27.444 34.271-45.879 59.625-63.767 24.749-17.461 51.951-31.83 83.862-37.463 34.952-6.17 74.408-11.737 104.635 4.186z" transform="translate(-356.377 313.526)"/><path d="m731.417-252.516c34.639 18.247 40.756 56.361 55.257 88.031 13.492 29.468 27.149 58.162 26.072 89.578-1.271 36.986 3.118 82.616-32.746 104.733-36.113 22.274-87.184-4.326-132.386-2.881-40.9 1.309-85.067 29.947-119.014 10.924-34.308-19.225-18-64.311-33.052-96.138-13.884-29.349-54.786-50.721-51.219-82 3.621-31.751 39.645-53.075 68.981-73.768 28.634-20.2 60.108-36.82 97.032-43.331 40.442-7.138 86.095-13.573 121.075 4.852z" transform="translate(-324.679 349.624)"/><path d="m734.766-307.6c41.94 20.659 49.349 63.8 66.9 99.646 16.339 33.355 32.876 65.834 31.576 101.4-1.532 41.864 3.783 93.512-39.62 118.543-43.722 25.211-105.546-4.911-160.266-3.278-49.518 1.478-102.977 33.889-144.076 12.354-41.535-21.764-21.8-72.8-40.026-108.82-16.811-33.221-66.329-57.415-62.016-92.822 4.379-35.938 47.986-60.072 83.5-83.491 34.662-22.86 72.761-41.67 117.459-49.04 48.955-8.071 104.221-15.351 146.569 5.508z" transform="translate(-309.523 384.719)"/><path d="m717.193-357.964c46.122 22.86 54.273 70.6 73.584 110.265 17.97 36.91 36.161 72.851 34.731 112.2-1.678 46.323 4.171 103.474-43.557 131.169-48.08 27.896-116.074-5.434-176.251-3.631-54.455 1.632-113.24 37.494-158.438 13.661-45.679-24.085-23.976-80.552-44.027-120.415-18.491-36.761-72.948-63.536-68.208-102.714 4.811-39.767 52.764-66.468 91.813-92.381 38.115-25.29 80.011-46.105 129.16-54.258 53.842-8.932 114.62-16.98 161.193 6.104z" transform="translate(-281.347 416.807)"/><path d="m698.518-411.473c50.568 25.2 59.506 77.822 80.683 121.548 19.707 40.687 39.648 80.3 38.085 123.678-1.835 51.06 4.586 114.059-47.744 144.585-52.7 30.747-127.254-6-193.225-4.011-59.7 1.8-124.143 41.323-173.7 15.051-50.081-26.551-26.292-88.794-48.278-132.734-20.277-40.524-79.982-70.04-74.789-113.226 5.272-43.834 57.842-73.265 100.65-101.826 41.785-27.876 87.713-50.817 141.6-59.8 59.026-9.84 125.658-18.714 176.718 6.735z" transform="translate(-251.41 450.899)"/><path d="m678.2-469.706c55.4 27.749 65.2 85.684 88.408 133.827 21.591 44.8 43.444 88.417 41.739 136.17-2.01 56.219 5.028 125.579-52.3 159.184-57.744 33.85-139.424-6.608-211.7-4.425-65.417 1.975-136.022 45.491-190.315 16.563-54.871-29.235-28.812-97.762-52.9-146.143-22.217-44.615-87.634-77.116-81.947-124.663 5.772-48.261 63.366-80.661 110.266-112.1 45.779-30.691 96.1-55.945 155.138-65.834 64.666-10.829 137.669-20.6 193.611 7.425z" transform="translate(-218.832 488)"/></g></svg>