<svg xmlns="http://www.w3.org/2000/svg" width="40" height="40" viewBox="0 0 40 40"><defs><style>.a{fill:#181818;}.b{fill:#fff;}</style></defs><g transform="translate(-991 -1192)"><circle class="a" cx="20" cy="20" r="20" transform="translate(991 1192)"/><path class="b" d="M-12434.972-1246.1l-4.556-4.531a.347.347,0,0,1,0-.493l4.556-4.53a.352.352,0,0,1,.5,0l4.556,4.53a.347.347,0,0,1,0,.493l-4.556,4.531a.35.35,0,0,1-.248.1A.354.354,0,0,1-12434.972-1246.1Zm9.509-4.777a4.448,4.448,0,0,1,4.455-4.43,4.447,4.447,0,0,1,4.455,4.43,4.447,4.447,0,0,1-4.455,4.43A4.448,4.448,0,0,1-12425.463-1250.88Zm4.1-5.494a.244.244,0,0,1-.245-.244v-3.206a.244.244,0,0,1,.245-.244h.562a.245.245,0,0,1,.245.244v3.206a.245.245,0,0,1-.245.244Zm-13.716-.116a.245.245,0,0,1-.245-.244v-3.206a.245.245,0,0,1,.245-.244h.561a.245.245,0,0,1,.246.244v3.206a.245.245,0,0,1-.246.244Zm-3.48-4.194a.35.35,0,0,1-.351-.348v-7.619a.35.35,0,0,1,.351-.349h7.662a.35.35,0,0,1,.351.349v7.619a.35.35,0,0,1-.351.348Zm15.034-.01a.35.35,0,0,1-.3-.174l-2.206-3.8a.342.342,0,0,1,0-.348l2.206-3.8a.35.35,0,0,1,.3-.174h4.411a.351.351,0,0,1,.3.174l2.206,3.8a.347.347,0,0,1,0,.348l-2.206,3.8a.351.351,0,0,1-.3.174Zm-5.879-3.543a.244.244,0,0,1-.245-.244v-.558a.244.244,0,0,1,.245-.244h2.447a.244.244,0,0,1,.245.244v.558a.244.244,0,0,1-.245.244Z" transform="translate(13438.631 2470)"/></g></svg>